<svg width="28" height="28" viewBox="0 0 28 28" fill="none" xmlns="http://www.w3.org/2000/svg">
<path d="M3.11052 3.33268H9.09719L11.0265 8.15668L7.92652 10.2233C7.74396 10.3451 7.5943 10.5101 7.49079 10.7036C7.38729 10.8972 7.33315 11.1132 7.33319 11.3327C7.33719 11.458 7.33319 11.334 7.33319 11.334V11.362C7.33385 11.4216 7.33652 11.4812 7.34119 11.5407C7.3483 11.6509 7.36385 11.7976 7.38785 11.9807C7.43985 12.3407 7.53985 12.8367 7.73452 13.4207C8.12652 14.594 8.89452 16.1127 10.3905 17.6087C11.8865 19.1047 13.4052 19.8727 14.5772 20.2647C15.1625 20.4593 15.6572 20.558 16.0199 20.6113C16.2244 20.6411 16.4305 20.6589 16.6372 20.6647L16.6545 20.666H16.6652C16.6652 20.666 16.8145 20.658 16.6665 20.666C16.9141 20.6659 17.1567 20.5968 17.3672 20.4666C17.5777 20.3364 17.7479 20.1501 17.8585 19.9287L18.7519 18.142L24.6665 19.1287V24.8887C21.8519 25.2953 14.2492 25.6967 8.27585 19.7233C2.30252 13.75 2.70252 6.14602 3.11052 3.33268ZM10.0972 11.9807L12.5065 10.3753C13.0155 10.0358 13.3923 9.53164 13.5736 8.9473C13.755 8.36296 13.7299 7.73404 13.5025 7.16602L11.5732 2.34202C11.3752 1.84722 11.0335 1.4231 10.5922 1.12436C10.1508 0.825628 9.63012 0.66598 9.09719 0.666016H3.04119C1.82919 0.666016 0.689187 1.50735 0.49052 2.82202C0.0371868 5.81135 -0.57748 14.6407 6.39052 21.6087C13.3585 28.5767 22.1879 27.9607 25.1772 27.5087C26.4918 27.3087 27.3332 26.17 27.3332 24.958V19.1287C27.3333 18.4974 27.1094 17.8866 26.7014 17.4049C26.2935 16.9232 25.7278 16.6019 25.1052 16.498L19.1905 15.5127C18.628 15.4188 18.0502 15.5077 17.5419 15.7664C17.0336 16.0251 16.6217 16.4399 16.3665 16.95L15.9052 17.874C15.7421 17.8335 15.5807 17.7868 15.4212 17.734C14.5945 17.4593 13.4465 16.894 12.2759 15.7233C11.1052 14.5527 10.5399 13.4047 10.2652 12.5767C10.2004 12.3807 10.1448 12.1818 10.0985 11.9807H10.0972Z" fill="white"/>
</svg>
