<svg width="28" height="32" viewBox="0 0 28 32" fill="none" xmlns="http://www.w3.org/2000/svg">
<path fill-rule="evenodd" clip-rule="evenodd" d="M19.866 21.5473V10.026C22.1637 11.6785 24.9233 12.5659 27.7536 12.5625V8.15637C26.0848 7.79646 24.5778 6.90507 23.4586 5.61597C22.5623 5.03296 21.7936 4.27409 21.1991 3.38532C20.6046 2.49654 20.1966 1.49635 20 0.445312H15.8493L15.8406 23.1655C15.7452 25.7098 13.6509 27.7521 11.0837 27.7521C10.3284 27.7513 9.58413 27.5707 8.9124 27.2253C8.24067 26.8799 7.6608 26.3796 7.22072 25.7658C6.45088 25.3622 5.80599 24.7559 5.35575 24.0124C4.90551 23.2689 4.66705 22.4165 4.66613 21.5473C4.66759 20.2838 5.17014 19.0725 6.06353 18.1791C6.95692 17.2858 8.1682 16.7832 9.43165 16.7818C9.92191 16.7818 10.3925 16.8621 10.8378 17.0024V12.5569C5.19738 12.6894 0.649414 17.3146 0.649414 22.9865C0.649414 25.7295 1.71507 28.2266 3.4515 30.0915C5.202 31.3238 7.2909 31.9843 9.43165 31.9824C15.1856 31.9824 19.866 27.3012 19.866 21.5473Z" fill="white"/>
</svg>
