<svg width="28" height="24" viewBox="0 0 28 24" fill="none" xmlns="http://www.w3.org/2000/svg">
<path d="M0.938618 11.1743C3.74422 9.62897 6.87602 8.33912 9.80222 7.04272C14.8364 4.91932 19.8906 2.83272 24.9958 0.890125C25.9891 0.559145 27.7738 0.235505 27.9488 1.70744C27.8529 3.79104 27.4588 5.86245 27.1884 7.93385C26.5021 12.489 25.7089 17.0286 24.9354 21.5688C24.6689 23.0812 22.7744 23.864 21.5622 22.8962C18.649 20.9285 15.7134 18.9798 12.8374 16.9664C11.8953 16.0092 12.7689 14.6344 13.6103 13.9508C16.0097 11.5862 18.5543 9.57723 20.8283 7.09043C21.4417 5.60921 19.6293 6.85752 19.0315 7.24005C15.7467 9.50365 12.5423 11.9055 9.07906 13.8949C7.31006 14.8686 5.24826 14.0365 3.48006 13.4931C1.89468 12.8367 -0.428542 12.1754 0.938458 11.1745L0.938618 11.1743Z" fill="white"/>
</svg>
