<svg width="30" height="30" viewBox="0 0 30 30" fill="none" xmlns="http://www.w3.org/2000/svg">
<path fill-rule="evenodd" clip-rule="evenodd" d="M14.7915 29.3533H14.7856C12.3971 29.3525 10.0502 28.7532 7.96574 27.6162L0.400391 29.6008L2.42501 22.2056C1.17612 20.0413 0.51897 17.5863 0.52004 15.071C0.523171 7.20248 6.92521 0.800781 14.7913 0.800781C18.609 0.802429 22.1922 2.28865 24.8866 4.98619C27.581 7.6836 29.064 11.2691 29.0625 15.0823C29.0594 22.9491 22.6599 29.3501 14.7915 29.3533ZM8.31626 25.0327L8.7494 25.2897C10.5706 26.3705 12.6582 26.9423 14.7867 26.9431H14.7915C21.3292 26.9431 26.6503 21.6219 26.6529 15.0815C26.6542 11.912 25.4215 8.93186 23.1821 6.68977C20.9426 4.44767 17.9644 3.21232 14.7961 3.21122C8.25332 3.21122 2.93216 8.53189 2.92957 15.0718C2.92865 17.3131 3.55576 19.4959 4.74313 21.3844L5.02516 21.8332L3.82687 26.2103L8.31626 25.0327ZM21.4928 18.1548C21.7415 18.275 21.9095 18.3562 21.9812 18.4759C22.0703 18.6246 22.0703 19.3385 21.7733 20.1716C21.476 21.0046 20.0514 21.7648 19.3663 21.8671C18.752 21.959 17.9745 21.9973 17.1203 21.7258C16.6024 21.5615 15.9383 21.3421 15.0875 20.9747C11.7446 19.5312 9.48541 16.2912 9.05844 15.6788C9.02853 15.6359 9.00762 15.6059 8.99594 15.5903L8.99307 15.5865C8.80435 15.3347 7.53991 13.6476 7.53991 11.9016C7.53991 10.259 8.34674 9.39809 8.71813 9.0018C8.74358 8.97464 8.76698 8.94967 8.78794 8.92678C9.11478 8.56978 9.50113 8.48053 9.73883 8.48053C9.97653 8.48053 10.2145 8.48273 10.4223 8.49317C10.4479 8.49445 10.4746 8.4943 10.5021 8.49413C10.7099 8.49292 10.969 8.4914 11.2246 9.10528C11.3229 9.34154 11.4668 9.6918 11.6185 10.0612C11.9253 10.8082 12.2643 11.6336 12.324 11.753C12.4132 11.9315 12.4726 12.1396 12.3537 12.3777C12.3359 12.4134 12.3194 12.4471 12.3036 12.4793C12.2143 12.6616 12.1487 12.7956 11.9971 12.9726C11.9376 13.0421 11.876 13.1171 11.8144 13.1921C11.6917 13.3415 11.5691 13.4909 11.4622 13.5973C11.2837 13.7751 11.0979 13.968 11.3059 14.325C11.5139 14.682 12.2296 15.8497 13.2896 16.7953C14.4292 17.8117 15.4196 18.2413 15.9216 18.459C16.0196 18.5015 16.099 18.536 16.1573 18.5651C16.5137 18.7437 16.7217 18.7138 16.9298 18.4759C17.1378 18.2379 17.8212 17.4346 18.0588 17.0777C18.2965 16.7208 18.5343 16.7803 18.8611 16.8992C19.1881 17.0183 20.9412 17.8809 21.2978 18.0594C21.3674 18.0942 21.4325 18.1257 21.4928 18.1548Z" fill="#FDFDFD"/>
</svg>
