<svg width="24" height="25" viewBox="0 0 24 25" fill="none" xmlns="http://www.w3.org/2000/svg">
<path d="M10.4143 10.1268C10.0911 10.3299 9.81185 10.5957 9.59314 10.9085C9.37443 11.2214 9.22066 11.5749 9.14094 11.9482C9.06122 12.3215 9.05716 12.707 9.129 13.0819C9.20083 13.4568 9.34711 13.8135 9.55918 14.1309C9.77125 14.4483 10.0448 14.7199 10.3637 14.9298C10.6825 15.1396 11.0403 15.2834 11.4156 15.3526C11.791 15.4218 12.1765 15.415 12.5492 15.3327C12.922 15.2503 13.2744 15.0941 13.5857 14.8732C13.9089 14.6701 14.1882 14.4043 14.4069 14.0915C14.6256 13.7786 14.7793 13.4251 14.8591 13.0518C14.9388 12.6785 14.9428 12.293 14.871 11.9181C14.7992 11.5432 14.6529 11.1865 14.4408 10.8691C14.2287 10.5517 13.9552 10.2801 13.6363 10.0702C13.3175 9.8604 12.9597 9.71663 12.5844 9.64742C12.209 9.57821 11.8235 9.58498 11.4508 9.66731C11.078 9.74965 10.7256 9.90589 10.4143 10.1268ZM18.0375 6.4625C17.7589 6.18393 17.4214 5.96429 17.0518 5.81964C16.0821 5.43929 13.9661 5.45536 12.6 5.47143C12.3804 5.47143 12.1768 5.47679 12 5.47679C11.8232 5.47679 11.6143 5.47679 11.3893 5.47143C10.0232 5.45536 7.91786 5.43393 6.94821 5.81964C6.57857 5.96429 6.24643 6.18393 5.9625 6.4625C5.67857 6.74107 5.46429 7.07857 5.31964 7.44821C4.93929 8.41786 4.96071 10.5393 4.97143 11.9054C4.97143 12.125 4.97679 12.3286 4.97679 12.5C4.97679 12.6714 4.97679 12.875 4.97143 13.0946C4.96071 14.4607 4.93929 16.5821 5.31964 17.5518C5.46429 17.9214 5.68393 18.2536 5.9625 18.5375C6.24107 18.8214 6.57857 19.0357 6.94821 19.1804C7.91786 19.5607 10.0339 19.5446 11.4 19.5286C11.6196 19.5286 11.8232 19.5232 12 19.5232C12.1768 19.5232 12.3857 19.5232 12.6107 19.5286C13.9768 19.5446 16.0821 19.5661 17.0518 19.1804C17.4214 19.0357 17.7536 18.8161 18.0375 18.5375C18.3214 18.2589 18.5357 17.9214 18.6804 17.5518C19.0661 16.5875 19.0446 14.4768 19.0286 13.1054C19.0286 12.8804 19.0232 12.6714 19.0232 12.4946C19.0232 12.3179 19.0232 12.1143 19.0286 11.8839C19.0446 10.5179 19.0661 8.40714 18.6804 7.4375C18.5357 7.06786 18.3161 6.73571 18.0375 6.45179V6.4625ZM14.4429 8.84643C15.4125 9.49464 16.0821 10.5018 16.3125 11.6429C16.5429 12.7839 16.3018 13.9732 15.6536 14.9429C15.3321 15.425 14.9196 15.8321 14.4429 16.1536C13.9661 16.475 13.425 16.6946 12.8571 16.8071C11.7161 17.0321 10.5268 16.7964 9.55714 16.1482C8.5875 15.5 7.91786 14.4929 7.6875 13.3518C7.45714 12.2107 7.69821 11.0214 8.34107 10.0518C8.98393 9.08214 9.99643 8.4125 11.1375 8.18214C12.2786 7.95179 13.4679 8.19286 14.4375 8.83571H14.4429V8.84643ZM16.0071 8.77679C15.8411 8.66429 15.7071 8.50357 15.6268 8.31607C15.5464 8.12857 15.5304 7.925 15.5679 7.72143C15.6054 7.51786 15.7071 7.34107 15.8464 7.19643C15.9857 7.05179 16.1732 6.95536 16.3714 6.91786C16.5696 6.88036 16.7786 6.89643 16.9661 6.97679C17.1536 7.05714 17.3143 7.18571 17.4268 7.35179C17.5393 7.51786 17.5982 7.71607 17.5982 7.91964C17.5982 8.05357 17.5714 8.1875 17.5232 8.31071C17.475 8.43393 17.3946 8.54643 17.3036 8.64286C17.2125 8.73929 17.0946 8.81429 16.9714 8.86786C16.8482 8.92143 16.7143 8.94821 16.5804 8.94821C16.3768 8.94821 16.1786 8.88929 16.0125 8.77679H16.0071ZM24 3.92857C24 2.0375 22.4625 0.5 20.5714 0.5H3.42857C1.5375 0.5 0 2.0375 0 3.92857V21.0714C0 22.9625 1.5375 24.5 3.42857 24.5H20.5714C22.4625 24.5 24 22.9625 24 21.0714V3.92857ZM19.125 19.625C18.1232 20.6268 16.9071 20.9429 15.5357 21.0125C14.1214 21.0929 9.87857 21.0929 8.46429 21.0125C7.09286 20.9429 5.87679 20.6268 4.875 19.625C3.87321 18.6232 3.55714 17.4071 3.49286 16.0357C3.4125 14.6214 3.4125 10.3786 3.49286 8.96429C3.5625 7.59286 3.87321 6.37679 4.875 5.375C5.87679 4.37321 7.09821 4.05714 8.46429 3.99286C9.87857 3.9125 14.1214 3.9125 15.5357 3.99286C16.9071 4.0625 18.1232 4.37321 19.125 5.375C20.1268 6.37679 20.4429 7.59286 20.5071 8.96429C20.5875 10.3732 20.5875 14.6107 20.5071 16.0304C20.4375 17.4018 20.1268 18.6179 19.125 19.6196V19.625Z" fill="black"/>
</svg>
