<svg width="120" height="40" viewBox="0 0 120 40" fill="none" xmlns="http://www.w3.org/2000/svg">
<path d="M110.135 0.00013H9.53468C9.16798 0.00013 8.80568 0.00013 8.43995 0.00213C8.1338 0.00413 7.83009 0.00994 7.521 0.01483C6.84951 0.0227318 6.17961 0.0818063 5.5171 0.19154C4.85552 0.303663 4.21467 0.515046 3.61622 0.81854C3.0185 1.1246 2.47235 1.5223 1.99757 1.9972C1.5203 2.47077 1.12246 3.01815 0.81935 3.61829C0.5154 4.21724 0.304641 4.85907 0.19435 5.52161C0.0830109 6.18332 0.0230984 6.85265 0.01515 7.52361C0.00587 7.83021 0.00489 8.13783 0 8.44447V31.5587C0.00489 31.8692 0.00587 32.17 0.01515 32.4806C0.0231008 33.1516 0.0830134 33.8209 0.19435 34.4825C0.304336 35.1455 0.515108 35.7877 0.81935 36.3868C1.12233 36.985 1.52022 37.5302 1.99757 38.0011C2.47054 38.4781 3.01705 38.8761 3.61622 39.1798C4.21467 39.4841 4.85545 39.6968 5.5171 39.8106C6.17972 39.9195 6.84956 39.9786 7.521 39.9874C7.83009 39.9942 8.1338 39.9981 8.43995 39.9981C8.80567 40.0001 9.168 40.0001 9.53468 40.0001H110.135C110.494 40.0001 110.859 40.0001 111.219 39.9981C111.523 39.9981 111.836 39.9942 112.141 39.9874C112.811 39.9791 113.479 39.92 114.141 39.8106C114.804 39.696 115.448 39.4834 116.049 39.1798C116.647 38.8759 117.193 38.478 117.666 38.0011C118.142 37.5284 118.541 36.9836 118.848 36.3868C119.15 35.7872 119.358 35.1451 119.467 34.4825C119.578 33.8208 119.64 33.1516 119.652 32.4806C119.656 32.17 119.656 31.8692 119.656 31.5587C119.664 31.1954 119.664 30.8341 119.664 30.4649V9.53626C119.664 9.17005 119.664 8.80677 119.656 8.44447C119.656 8.13783 119.656 7.83021 119.652 7.52357C119.64 6.85255 119.578 6.18337 119.467 5.52157C119.358 4.85941 119.149 4.21763 118.848 3.61825C118.23 2.41533 117.252 1.43616 116.049 0.81845C115.448 0.515697 114.804 0.30437 114.141 0.19145C113.48 0.0812328 112.811 0.0221378 112.141 0.01469C111.836 0.00981 111.523 0.00395 111.219 0.002C110.859 0 110.494 0 110.135 0V0.00013Z" fill="#A6A6A6"/>
<path d="M8.44487 39.1252C8.14019 39.1252 7.84287 39.1213 7.54058 39.1145C6.91436 39.1064 6.2896 39.0519 5.67144 38.9514C5.09503 38.8522 4.53664 38.6675 4.0147 38.4035C3.49754 38.1418 3.02585 37.7985 2.6177 37.3869C2.20364 36.9802 1.85891 36.5085 1.59719 35.9904C1.33258 35.469 1.14945 34.9101 1.05419 34.3332C0.951311 33.7134 0.895651 33.0866 0.887687 32.4582C0.881347 32.2473 0.873047 31.5451 0.873047 31.5451V8.44458C0.873047 8.44458 0.881887 7.75317 0.887737 7.55004C0.895363 6.92273 0.950699 6.2969 1.05327 5.67797C1.14871 5.09949 1.33197 4.53899 1.59673 4.01587C1.85749 3.49819 2.2003 3.0261 2.61187 2.61792C3.02297 2.20587 3.49617 1.86085 4.01421 1.59545C4.53495 1.33234 5.09228 1.14898 5.66753 1.05151C6.28772 0.95008 6.91465 0.89524 7.54304 0.887454L8.44536 0.875244H111.214L112.127 0.887944C112.75 0.895343 113.371 0.949694 113.985 1.05053C114.566 1.14922 115.13 1.33386 115.656 1.59838C116.694 2.13323 117.539 2.97941 118.071 4.01831C118.332 4.53782 118.512 5.09375 118.607 5.66723C118.71 6.29124 118.768 6.92198 118.78 7.55444C118.783 7.83764 118.783 8.14184 118.783 8.44458C118.791 8.81958 118.791 9.17651 118.791 9.53637V30.465C118.791 30.8283 118.791 31.1828 118.783 31.5402C118.783 31.8654 118.783 32.1633 118.779 32.4699C118.768 33.0911 118.711 33.7106 118.608 34.3234C118.515 34.9045 118.333 35.4678 118.068 35.9934C117.805 36.5059 117.462 36.9735 117.053 37.3791C116.644 37.7929 116.172 38.1382 115.653 38.4016C115.128 38.6676 114.566 38.853 113.985 38.9514C113.367 39.0524 112.742 39.1069 112.116 39.1145C111.823 39.1213 111.517 39.1252 111.219 39.1252L110.135 39.1272L8.44487 39.1252Z" fill="black"/>
<path d="M24.769 20.3013C24.7797 19.4666 25.0014 18.6483 25.4135 17.9223C25.8255 17.1964 26.4145 16.5864 27.1256 16.1492C26.6738 15.5041 26.0779 14.9731 25.385 14.5986C24.6922 14.224 23.9216 14.0162 23.1344 13.9916C21.4552 13.8153 19.8272 14.9964 18.9715 14.9964C18.0992 14.9964 16.7817 14.0091 15.363 14.0383C14.4453 14.0679 13.551 14.3348 12.7671 14.8128C11.9832 15.2909 11.3365 15.9638 10.8901 16.7661C8.95607 20.1145 10.3987 25.0356 12.2513 27.7422C13.1782 29.0676 14.2615 30.548 15.6789 30.4955C17.066 30.438 17.584 29.611 19.2583 29.611C20.9171 29.611 21.4031 30.4955 22.8493 30.4621C24.3377 30.438 25.2754 29.1309 26.1698 27.793C26.8358 26.8486 27.3483 25.8049 27.6882 24.7005C26.8235 24.3347 26.0856 23.7226 25.5665 22.9403C25.0474 22.158 24.77 21.2402 24.769 20.3013Z" fill="white"/>
<path d="M22.0376 12.2116C22.8491 11.2374 23.2489 9.98518 23.1521 8.72095C21.9123 8.85117 20.767 9.44373 19.9445 10.3806C19.5424 10.8382 19.2344 11.3707 19.0381 11.9474C18.8419 12.5242 18.7612 13.134 18.8008 13.7419C19.4209 13.7483 20.0344 13.6139 20.5951 13.3488C21.1558 13.0837 21.649 12.6949 22.0376 12.2116Z" fill="white"/>
<path d="M42.3022 27.1399H37.5688L36.4321 30.4964H34.4272L38.9106 18.0784H40.9936L45.477 30.4964H43.438L42.3022 27.1399ZM38.0591 25.5911H41.8111L39.9615 20.1438H39.9097L38.0591 25.5911Z" fill="white"/>
<path d="M55.1597 25.9697C55.1597 28.7832 53.6538 30.5908 51.3814 30.5908C50.8057 30.6209 50.2332 30.4883 49.7294 30.2082C49.2256 29.928 48.8109 29.5117 48.5327 29.0068H48.4897V33.4912H46.6313V21.4423H48.4302V22.9482H48.4644C48.7553 22.4457 49.1771 22.0316 49.6847 21.7497C50.1923 21.4679 50.7669 21.3289 51.3472 21.3476C53.645 21.3476 55.1597 23.164 55.1597 25.9697ZM53.2495 25.9697C53.2495 24.1367 52.3023 22.9316 50.857 22.9316C49.437 22.9316 48.482 24.1621 48.482 25.9697C48.482 27.7939 49.437 29.0156 50.857 29.0156C52.3023 29.0156 53.2495 27.8193 53.2495 25.9697Z" fill="white"/>
<path d="M65.1245 25.9697C65.1245 28.7832 63.6187 30.5908 61.3462 30.5908C60.7706 30.6209 60.1981 30.4883 59.6943 30.2081C59.1905 29.928 58.7758 29.5117 58.4976 29.0068H58.4546V33.4912H56.5962V21.4423H58.395V22.9482H58.4292C58.7201 22.4457 59.1419 22.0315 59.6495 21.7497C60.1571 21.4679 60.7317 21.3289 61.312 21.3476C63.6099 21.3476 65.1245 23.164 65.1245 25.9697ZM63.2144 25.9697C63.2144 24.1367 62.2671 22.9316 60.8218 22.9316C59.4019 22.9316 58.4468 24.1621 58.4468 25.9697C58.4468 27.7939 59.4019 29.0156 60.8218 29.0156C62.2671 29.0156 63.2144 27.8193 63.2144 25.9697H63.2144Z" fill="white"/>
<path d="M71.7105 27.0364C71.8482 28.2679 73.0445 29.0764 74.6792 29.0764C76.2456 29.0764 77.3726 28.2678 77.3726 27.1575C77.3726 26.1936 76.6929 25.6165 75.0835 25.221L73.4742 24.8333C71.1939 24.2825 70.1353 23.2161 70.1353 21.4856C70.1353 19.343 72.0025 17.8713 74.6538 17.8713C77.2778 17.8713 79.0767 19.343 79.1372 21.4856H77.2612C77.1489 20.2463 76.1245 19.4983 74.6274 19.4983C73.1304 19.4983 72.106 20.2551 72.106 21.3567C72.106 22.2346 72.7603 22.7512 74.3608 23.1467L75.729 23.4826C78.2769 24.0852 79.3355 25.1086 79.3355 26.925C79.3355 29.2483 77.4849 30.7033 74.5415 30.7033C71.7876 30.7033 69.9282 29.2824 69.8081 27.0363L71.7105 27.0364Z" fill="white"/>
<path d="M83.3462 19.3V21.4426H85.0679V22.9143H83.3462V27.9055C83.3462 28.6809 83.6909 29.0422 84.4477 29.0422C84.6521 29.0387 84.8562 29.0243 85.0591 28.9992V30.4621C84.7188 30.5257 84.3729 30.5545 84.0268 30.5481C82.1938 30.5481 81.479 29.8596 81.479 28.1037V22.9143H80.1626V21.4426H81.479V19.3H83.3462Z" fill="white"/>
<path d="M86.0649 25.97C86.0649 23.1213 87.7427 21.3313 90.3589 21.3313C92.9839 21.3313 94.6538 23.1213 94.6538 25.97C94.6538 28.8264 92.9927 30.6086 90.3589 30.6086C87.726 30.6086 86.0649 28.8264 86.0649 25.97ZM92.7602 25.97C92.7602 24.0159 91.8647 22.8625 90.3589 22.8625C88.853 22.8625 87.9585 24.0247 87.9585 25.97C87.9585 27.9319 88.853 29.0764 90.3589 29.0764C91.8647 29.0764 92.7602 27.9319 92.7602 25.97H92.7602Z" fill="white"/>
<path d="M96.186 21.4423H97.9585V22.9833H98.0015C98.1214 22.502 98.4034 22.0766 98.8 21.7788C99.1966 21.4809 99.6836 21.3286 100.179 21.3475C100.393 21.3468 100.607 21.37 100.816 21.4169V23.1551C100.546 23.0725 100.264 23.0346 99.981 23.0428C99.711 23.0319 99.4418 23.0795 99.192 23.1824C98.9421 23.2853 98.7175 23.441 98.5335 23.6389C98.3496 23.8368 98.2106 24.0721 98.1262 24.3288C98.0417 24.5855 98.0139 24.8574 98.0444 25.1258V30.496H96.186L96.186 21.4423Z" fill="white"/>
<path d="M109.384 27.8372C109.134 29.4807 107.534 30.6086 105.486 30.6086C102.852 30.6086 101.217 28.844 101.217 26.0129C101.217 23.1731 102.861 21.3313 105.408 21.3313C107.913 21.3313 109.488 23.052 109.488 25.7971V26.4338H103.093V26.5461C103.064 26.8793 103.105 27.215 103.216 27.5308C103.326 27.8467 103.502 28.1355 103.732 28.378C103.963 28.6206 104.242 28.8113 104.552 28.9376C104.861 29.0639 105.195 29.1229 105.529 29.1106C105.968 29.1517 106.409 29.05 106.785 28.8206C107.162 28.5911 107.455 28.2462 107.62 27.8371L109.384 27.8372ZM103.102 25.135H107.628C107.645 24.8354 107.6 24.5356 107.495 24.2544C107.39 23.9732 107.229 23.7166 107.02 23.5009C106.812 23.2851 106.561 23.1148 106.283 23.0006C106.006 22.8863 105.708 22.8307 105.408 22.8372C105.105 22.8354 104.805 22.8935 104.525 23.0082C104.245 23.123 103.99 23.292 103.776 23.5057C103.562 23.7193 103.392 23.9733 103.276 24.2529C103.16 24.5326 103.101 24.8324 103.102 25.135V25.135Z" fill="white"/>
<path d="M37.8262 8.73065C38.2158 8.70269 38.6067 8.76155 38.9709 8.90298C39.335 9.04441 39.6632 9.26489 39.9317 9.54852C40.2003 9.83214 40.4026 10.1718 40.524 10.5431C40.6454 10.9144 40.6829 11.308 40.6338 11.6955C40.6338 13.6017 39.6035 14.6975 37.8262 14.6975H35.6709V8.73065H37.8262ZM36.5976 13.8536H37.7226C38.0011 13.8703 38.2797 13.8246 38.5382 13.72C38.7967 13.6154 39.0287 13.4545 39.2172 13.2489C39.4057 13.0433 39.546 12.7983 39.6278 12.5317C39.7097 12.2651 39.7311 11.9836 39.6904 11.7076C39.7281 11.4328 39.7046 11.153 39.6215 10.8884C39.5383 10.6237 39.3977 10.3807 39.2096 10.1768C39.0216 9.97285 38.7907 9.81304 38.5337 9.70881C38.2766 9.60457 37.9996 9.55849 37.7226 9.57386H36.5976V13.8536Z" fill="white"/>
<path d="M41.6805 12.444C41.6521 12.1481 41.686 11.8496 41.7798 11.5675C41.8737 11.2854 42.0254 11.0261 42.2254 10.8061C42.4253 10.5861 42.669 10.4103 42.9409 10.2901C43.2127 10.1698 43.5067 10.1077 43.804 10.1077C44.1013 10.1077 44.3952 10.1698 44.6671 10.2901C44.939 10.4103 45.1827 10.5861 45.3826 10.8061C45.5825 11.0261 45.7343 11.2854 45.8281 11.5675C45.922 11.8496 45.9558 12.1481 45.9275 12.444C45.9564 12.7403 45.9229 13.0392 45.8293 13.3218C45.7357 13.6043 45.5841 13.8641 45.3841 14.0845C45.1841 14.3049 44.9402 14.4811 44.6681 14.6016C44.3959 14.7221 44.1016 14.7844 43.804 14.7844C43.5064 14.7844 43.212 14.7221 42.9399 14.6016C42.6678 14.4811 42.4239 14.3049 42.2239 14.0845C42.0239 13.8641 41.8722 13.6043 41.7786 13.3218C41.6851 13.0392 41.6516 12.7403 41.6805 12.444ZM45.0135 12.444C45.0135 11.468 44.575 10.8972 43.8055 10.8972C43.033 10.8972 42.5985 11.468 42.5985 12.4441C42.5985 13.4279 43.033 13.9943 43.8055 13.9943C44.575 13.9943 45.0135 13.424 45.0135 12.444H45.0135Z" fill="white"/>
<path d="M51.5732 14.6975H50.6514L49.7207 11.3811H49.6504L48.7236 14.6975H47.8105L46.5693 10.1946H47.4707L48.2773 13.6306H48.3438L49.2695 10.1946H50.1221L51.0479 13.6306H51.1182L51.9209 10.1946H52.8096L51.5732 14.6975Z" fill="white"/>
<path d="M53.8535 10.1941H54.709V10.9095H54.7754C54.888 10.6525 55.0781 10.4372 55.3189 10.2934C55.5598 10.1496 55.8395 10.0845 56.1191 10.1072C56.3382 10.0907 56.5582 10.1238 56.7628 10.2039C56.9674 10.284 57.1514 10.4091 57.3011 10.5699C57.4508 10.7308 57.5623 10.9232 57.6275 11.133C57.6927 11.3429 57.7099 11.5647 57.6777 11.782V14.697H56.7891V12.0052C56.7891 11.2815 56.4746 10.9217 55.8174 10.9217C55.6686 10.9147 55.5201 10.9401 55.3821 10.9959C55.244 11.0517 55.1197 11.1367 55.0175 11.2451C54.9154 11.3535 54.8379 11.4827 54.7904 11.6238C54.7429 11.765 54.7264 11.9147 54.7422 12.0628V14.6971H53.8535L53.8535 10.1941Z" fill="white"/>
<path d="M59.0938 8.43677H59.9824V14.6975H59.0938V8.43677Z" fill="white"/>
<path d="M61.2175 12.4441C61.1893 12.1482 61.2231 11.8496 61.317 11.5675C61.4109 11.2854 61.5626 11.0261 61.7626 10.8061C61.9626 10.5861 62.2063 10.4104 62.4782 10.2901C62.75 10.1698 63.044 10.1077 63.3413 10.1077C63.6386 10.1077 63.9326 10.1698 64.2045 10.2901C64.4764 10.4104 64.7201 10.5861 64.92 10.8061C65.12 11.0261 65.2718 11.2854 65.3656 11.5675C65.4595 11.8496 65.4934 12.1482 65.4651 12.4441C65.4939 12.7404 65.4604 13.0393 65.3668 13.3219C65.2732 13.6044 65.1215 13.8642 64.9215 14.0846C64.7215 14.305 64.4776 14.4811 64.2054 14.6017C63.9333 14.7222 63.639 14.7845 63.3413 14.7845C63.0437 14.7845 62.7493 14.7222 62.4772 14.6017C62.2051 14.4811 61.9612 14.305 61.7612 14.0846C61.5611 13.8642 61.4095 13.6044 61.3158 13.3219C61.2222 13.0393 61.1887 12.7404 61.2175 12.4441ZM64.5505 12.4441C64.5505 11.4681 64.1121 10.8973 63.3425 10.8973C62.5701 10.8973 62.1355 11.4681 62.1355 12.4441C62.1355 13.428 62.5701 13.9944 63.3425 13.9944C64.1121 13.9944 64.5505 13.4241 64.5505 12.4441H64.5505Z" fill="white"/>
<path d="M66.4009 13.4241C66.4009 12.6135 67.0044 12.1462 68.0757 12.0798L69.2954 12.0095V11.6208C69.2954 11.1453 68.981 10.8767 68.3735 10.8767C67.8774 10.8767 67.5337 11.0588 67.4351 11.3772H66.5747C66.6655 10.6038 67.3931 10.1077 68.4146 10.1077C69.5435 10.1077 70.1802 10.6697 70.1802 11.6208V14.6975H69.3247V14.0647H69.2544C69.1117 14.2917 68.9113 14.4767 68.6737 14.6009C68.436 14.7252 68.1697 14.7841 67.9019 14.7717C67.7128 14.7914 67.5218 14.7712 67.341 14.7125C67.1602 14.6538 66.9938 14.5579 66.8524 14.4309C66.711 14.3039 66.5977 14.1487 66.52 13.9753C66.4422 13.8019 66.4016 13.6141 66.4009 13.4241ZM69.2954 13.0393V12.6628L68.1958 12.7331C67.5757 12.7746 67.2944 12.9856 67.2944 13.3826C67.2944 13.7878 67.646 14.0237 68.1294 14.0237C68.2711 14.038 68.4142 14.0237 68.5502 13.9816C68.6862 13.9395 68.8123 13.8705 68.9211 13.7787C69.0299 13.6868 69.1191 13.574 69.1834 13.447C69.2477 13.32 69.2858 13.1813 69.2954 13.0393Z" fill="white"/>
<path d="M71.3481 12.4441C71.3481 11.0213 72.0796 10.1199 73.2173 10.1199C73.4987 10.1069 73.778 10.1743 74.0225 10.3142C74.267 10.4541 74.4667 10.6607 74.5981 10.9099H74.6646V8.43677H75.5532V14.6975H74.7017V13.9861H74.6314C74.4897 14.2336 74.2831 14.4376 74.0339 14.5761C73.7846 14.7146 73.5022 14.7822 73.2173 14.7717C72.0718 14.7718 71.3481 13.8704 71.3481 12.4441ZM72.2661 12.4441C72.2661 13.3992 72.7163 13.9739 73.4693 13.9739C74.2183 13.9739 74.6812 13.3909 74.6812 12.448C74.6812 11.5095 74.2134 10.9182 73.4693 10.9182C72.7212 10.9182 72.2661 11.4968 72.2661 12.4441H72.2661Z" fill="white"/>
<path d="M79.2298 12.444C79.2015 12.1481 79.2353 11.8496 79.3292 11.5675C79.423 11.2854 79.5748 11.0261 79.7747 10.8061C79.9746 10.5861 80.2183 10.4103 80.4902 10.2901C80.762 10.1698 81.056 10.1077 81.3533 10.1077C81.6506 10.1077 81.9446 10.1698 82.2164 10.2901C82.4883 10.4103 82.732 10.5861 82.9319 10.8061C83.1319 11.0261 83.2836 11.2854 83.3775 11.5675C83.4713 11.8496 83.5052 12.1481 83.4768 12.444C83.5057 12.7403 83.4722 13.0392 83.3786 13.3218C83.2851 13.6043 83.1334 13.8641 82.9334 14.0845C82.7334 14.3049 82.4895 14.4811 82.2174 14.6016C81.9453 14.7221 81.6509 14.7844 81.3533 14.7844C81.0557 14.7844 80.7613 14.7221 80.4892 14.6016C80.2171 14.4811 79.9732 14.3049 79.7732 14.0845C79.5732 13.8641 79.4216 13.6043 79.328 13.3218C79.2344 13.0392 79.2009 12.7403 79.2298 12.444ZM82.5628 12.444C82.5628 11.468 82.1243 10.8972 81.3548 10.8972C80.5823 10.8972 80.1478 11.468 80.1478 12.4441C80.1478 13.4279 80.5823 13.9943 81.3548 13.9943C82.1243 13.9943 82.5628 13.424 82.5628 12.444Z" fill="white"/>
<path d="M84.6694 10.1941H85.5249V10.9095H85.5913C85.704 10.6525 85.894 10.4372 86.1348 10.2934C86.3757 10.1496 86.6555 10.0845 86.9351 10.1072C87.1542 10.0907 87.3742 10.1238 87.5788 10.2039C87.7834 10.284 87.9673 10.4091 88.117 10.5699C88.2667 10.7308 88.3783 10.9232 88.4435 11.133C88.5087 11.3429 88.5258 11.5647 88.4937 11.782V14.697H87.605V12.0052C87.605 11.2815 87.2905 10.9217 86.6333 10.9217C86.4846 10.9147 86.336 10.9401 86.198 10.9959C86.0599 11.0517 85.9356 11.1367 85.8335 11.2451C85.7313 11.3535 85.6539 11.4827 85.6063 11.6238C85.5588 11.765 85.5423 11.9147 85.5581 12.0628V14.6971H84.6694V10.1941Z" fill="white"/>
<path d="M93.5151 9.07349V10.2151H94.4907V10.9636H93.5151V13.2791C93.5151 13.7507 93.7095 13.9573 94.1519 13.9573C94.2651 13.9569 94.3783 13.9501 94.4907 13.9368V14.677C94.3311 14.7055 94.1694 14.7207 94.0073 14.7224C93.019 14.7224 92.6255 14.3747 92.6255 13.5066V10.9636H91.9106V10.215H92.6255V9.07349H93.5151Z" fill="white"/>
<path d="M95.7046 8.43677H96.5854V10.9182H96.6558C96.7739 10.6589 96.9691 10.4423 97.2148 10.298C97.4605 10.1536 97.7447 10.0885 98.0288 10.1116C98.2467 10.0997 98.4646 10.1361 98.6669 10.2181C98.8692 10.3002 99.0508 10.4259 99.199 10.5862C99.3471 10.7465 99.458 10.9376 99.5238 11.1457C99.5896 11.3539 99.6086 11.5739 99.5795 11.7903V14.6975H98.69V12.0095C98.69 11.2903 98.355 10.926 97.7271 10.926C97.5743 10.9135 97.4207 10.9345 97.2769 10.9875C97.1332 11.0406 97.0027 11.1244 96.8947 11.2332C96.7867 11.3419 96.7038 11.4729 96.6517 11.6171C96.5997 11.7612 96.5797 11.915 96.5933 12.0676V14.6975H95.7046L95.7046 8.43677Z" fill="white"/>
<path d="M104.761 13.4818C104.641 13.8933 104.379 14.2493 104.022 14.4874C103.666 14.7256 103.237 14.8307 102.81 14.7845C102.514 14.7923 102.219 14.7355 101.946 14.618C101.674 14.5004 101.43 14.325 101.232 14.1039C101.034 13.8827 100.887 13.6212 100.8 13.3374C100.713 13.0535 100.69 12.7543 100.73 12.4603C100.691 12.1654 100.715 11.8655 100.801 11.5808C100.888 11.2961 101.035 11.0334 101.231 10.8103C101.428 10.5872 101.671 10.409 101.943 10.2878C102.214 10.1666 102.509 10.1052 102.806 10.1077C104.059 10.1077 104.815 10.9637 104.815 12.3777V12.6878H101.635V12.7376C101.621 12.9029 101.642 13.0692 101.696 13.226C101.751 13.3827 101.837 13.5264 101.95 13.6479C102.063 13.7693 102.2 13.8658 102.352 13.9312C102.504 13.9966 102.669 14.0295 102.835 14.0276C103.047 14.0532 103.263 14.0149 103.453 13.9177C103.644 13.8205 103.802 13.6687 103.906 13.4817L104.761 13.4818ZM101.635 12.0306H103.91C103.921 11.8795 103.9 11.7277 103.85 11.5849C103.799 11.4422 103.718 11.3117 103.614 11.2019C103.51 11.092 103.383 11.0052 103.243 10.9471C103.103 10.8889 102.953 10.8606 102.801 10.8641C102.648 10.8622 102.495 10.891 102.353 10.949C102.21 11.0069 102.081 11.0928 101.972 11.2015C101.864 11.3102 101.778 11.4396 101.72 11.582C101.662 11.7244 101.633 11.8769 101.635 12.0306H101.635Z" fill="white"/>
</svg>
