<svg width="463" height="432" viewBox="0 0 463 432" fill="none" xmlns="http://www.w3.org/2000/svg">
<g clip-path="url(#clip0_3_714)">
<path d="M208.629 12.6953C263.55 8.8275 313.808 29.3086 347.473 64.3526C400.937 88.3755 438.829 138.006 442.181 197.701C447.156 286.406 373.997 363.741 278.769 370.428C252.662 372.268 227.616 368.587 204.902 360.478C203.695 360.595 202.487 360.688 201.259 360.781C106.031 367.469 24.8145 300.992 19.8179 212.311C16.9865 161.655 39.6379 114.705 77.3001 82.5035C106.843 43.4986 154.103 16.5167 208.629 12.6953Z" fill="#D5F0FF"/>
<path d="M69.703 335.071C81.5192 335.071 92.0049 340.765 98.5668 349.555C102.251 347.944 106.317 347.047 110.589 347.047C113.09 347.047 115.517 347.356 117.842 347.933C114.192 342.964 112.033 336.83 112.033 330.188C112.033 313.615 125.472 300.177 142.045 300.177C155.518 300.177 166.917 309.057 170.715 321.285C174.541 315.271 180.458 310.708 187.443 308.623C189.27 293.803 201.903 282.33 217.22 282.33C233.794 282.33 247.232 295.768 247.232 312.341C247.232 315.397 246.775 318.344 245.924 321.125C246.998 321.005 248.094 320.948 249.197 320.948C250.596 320.948 251.966 321.045 253.309 321.228C257.792 310.303 268.54 302.604 281.082 302.604C297.655 302.604 311.093 316.042 311.093 332.616C311.093 333.455 311.053 334.289 310.985 335.117C313.058 335.22 315.086 335.5 317.056 335.934C317.387 328.384 323.612 322.37 331.242 322.37C339.089 322.37 345.446 328.726 345.446 336.573C348.718 335.597 352.179 335.071 355.771 335.071C370.849 335.071 383.755 344.34 389.118 357.487C392.476 355.785 396.268 354.826 400.289 354.826C413.973 354.826 425.064 365.917 425.064 379.601C425.064 393.279 413.973 404.37 400.289 404.37C392.905 404.37 386.274 401.131 381.734 396.003C375.183 402.822 365.971 407.071 355.771 407.071C346.885 407.071 338.752 403.85 332.47 398.516C326.194 403.85 318.061 407.071 309.174 407.071C297.09 407.071 286.399 401.12 279.871 391.988C274.56 401.011 264.748 407.071 253.52 407.071C245.227 407.071 237.706 403.764 232.2 398.396C225.907 403.804 217.717 407.071 208.768 407.071C200.121 407.071 192.188 404.021 185.981 398.938C179.773 404.021 171.84 407.071 163.193 407.071C152 407.071 141.999 401.965 135.397 393.952C129.995 401.868 120.897 407.071 110.589 407.071C103.193 407.071 96.4194 404.392 91.188 399.955C85.1915 404.426 77.7555 407.071 69.7028 407.071C49.8168 407.071 33.7003 390.954 33.7003 371.068C33.7003 351.188 49.817 335.071 69.703 335.071Z" fill="url(#paint0_linear_3_714)"/>
<path fill-rule="evenodd" clip-rule="evenodd" d="M151.705 40.5749C161.316 33.2861 173.248 28.9668 186.233 28.9668C217.764 28.9668 243.329 54.5317 243.329 86.0628C243.329 117.594 217.764 143.159 186.233 143.159C180.429 143.159 174.841 142.295 169.55 140.675C167.579 141.188 165.473 141.458 163.313 141.458C158.913 141.458 154.783 140.324 151.219 138.326C145.55 142.025 138.828 144.157 131.567 144.157C122.793 144.157 114.721 140.999 108.485 135.762C99.9548 142.754 89.0485 146.965 77.1703 146.965C49.9044 146.965 27.795 124.856 27.795 97.5899C27.795 72.6999 46.2062 52.1293 70.1514 48.7276C73.9579 28.9939 91.3161 14.0922 112.157 14.0922C130.001 14.0922 145.308 25.0253 151.705 40.5749Z" fill="#8DAFDC"/>
<path fill-rule="evenodd" clip-rule="evenodd" d="M159.281 40.5749C168.892 33.2861 180.824 28.9668 193.809 28.9668C225.34 28.9668 250.905 54.5317 250.905 86.0628C250.905 117.594 225.34 143.159 193.809 143.159C188.005 143.159 182.417 142.295 177.126 140.675C175.155 141.188 173.049 141.458 170.889 141.458C166.489 141.458 162.359 140.324 158.795 138.326C153.126 142.025 146.404 144.157 139.143 144.157C130.369 144.157 122.297 140.999 116.061 135.762C107.531 142.754 96.6242 146.965 84.7462 146.965C57.4805 146.965 35.371 124.856 35.371 97.5899C35.371 72.6999 53.7821 52.1293 77.7273 48.7276C81.5338 28.9939 98.892 14.0922 119.733 14.0922C137.577 14.0922 152.883 25.0253 159.281 40.5749Z" fill="white"/>
<path d="M61.3486 195.233L63.4106 201.943L70.1213 204.002L63.4106 206.064L61.3486 212.775L59.2898 206.064L52.5792 204.002L59.2898 201.943L61.3486 195.233Z" fill="white"/>
<path d="M400.649 204.004L401.955 208.256L406.208 209.561L401.955 210.867L400.649 215.12L399.344 210.867L395.092 209.561L399.344 208.256L400.649 204.004Z" fill="white"/>
<path d="M230.779 112.935L232.086 117.187L236.338 118.492L232.086 119.799L230.779 124.051L229.474 119.799L225.222 118.492L229.474 117.187L230.779 112.935Z" fill="white"/>
<path d="M272.612 53.5674L273.919 57.82L278.172 59.1246L273.919 60.4314L272.612 64.6838L271.308 60.4314L267.055 59.1246L271.308 57.82L272.612 53.5674Z" fill="white"/>
<path d="M231 419.77C336.153 419.77 421.397 412.704 421.397 403.987C421.397 395.27 336.153 388.203 231 388.203C125.847 388.203 40.6032 395.27 40.6032 403.987C40.6032 412.704 125.847 419.77 231 419.77Z" fill="#DFE6FF"/>
<path fill-rule="evenodd" clip-rule="evenodd" d="M355.264 97.8785C348.988 93.1084 341.15 90.2799 332.665 90.2799C312.008 90.2799 295.25 107.025 295.25 127.681C295.25 148.338 312.008 165.083 332.665 165.083C336.464 165.083 340.123 164.52 343.584 163.465C344.879 163.802 346.258 163.985 347.665 163.985C350.55 163.985 353.251 163.24 355.601 161.931C359.302 164.337 363.72 165.744 368.462 165.744C374.217 165.744 379.494 163.676 383.589 160.243C389.175 164.83 396.323 167.574 404.105 167.574C421.961 167.574 436.455 153.094 436.455 135.238C436.455 118.929 424.396 105.449 408.706 103.212C406.216 90.2944 394.846 80.5288 381.183 80.5288C369.49 80.5284 359.471 87.7048 355.264 97.8785Z" fill="#8DAFDC"/>
<path fill-rule="evenodd" clip-rule="evenodd" d="M351.263 97.8785C344.988 93.1084 337.15 90.2799 328.665 90.2799C308.008 90.2799 291.249 107.025 291.249 127.681C291.249 148.338 308.008 165.083 328.665 165.083C332.464 165.083 336.122 164.52 339.584 163.465C340.878 163.802 342.258 163.985 343.665 163.985C346.549 163.985 349.251 163.24 351.601 161.931C355.302 164.337 359.72 165.744 364.462 165.744C370.217 165.744 375.494 163.676 379.589 160.243C385.175 164.83 392.323 167.574 400.105 167.574C417.961 167.574 432.455 153.094 432.455 135.238C432.455 118.929 420.396 105.449 404.706 103.212C402.216 90.2944 390.846 80.5288 377.183 80.5288C365.489 80.5284 355.471 87.7048 351.263 97.8785Z" fill="white"/>
<path fill-rule="evenodd" clip-rule="evenodd" d="M157.121 84.3743H302.635C304.405 84.3743 305.846 85.8159 305.846 87.5801V96.1484C305.846 97.9184 304.405 99.36 302.635 99.36H157.121C155.357 99.36 153.909 97.9184 153.909 96.1484V87.5801C153.909 85.8159 155.357 84.3743 157.121 84.3743Z" fill="#84B2FE"/>
<path d="M307.78 195.404H151.975V284.721H307.78V195.404Z" fill="#84B2FE"/>
<path d="M307.78 290.71H151.975V380.026H307.78V290.71Z" fill="#84B2FE"/>
<path d="M307.78 100.169H151.975V189.485H307.78V100.169Z" fill="#84B2FE"/>
<path fill-rule="evenodd" clip-rule="evenodd" d="M148.207 279.528H311.549C313.319 279.528 314.76 280.969 314.76 282.734V291.308C314.76 293.072 313.319 294.514 311.549 294.514H148.207C146.437 294.514 144.995 293.072 144.995 291.308V282.734C144.995 280.97 146.437 279.528 148.207 279.528Z" fill="#2C7EFE"/>
<path fill-rule="evenodd" clip-rule="evenodd" d="M148.207 184.533H311.549C313.319 184.533 314.76 185.98 314.76 187.744V196.313C314.76 198.077 313.319 199.524 311.549 199.524H148.207C146.437 199.524 144.995 198.077 144.995 196.313V187.744C144.995 185.98 146.437 184.533 148.207 184.533Z" fill="#2C7EFE"/>
<path fill-rule="evenodd" clip-rule="evenodd" d="M148.207 94.6361H311.549C313.319 94.6361 314.76 96.0837 314.76 97.8477V106.416C314.76 108.18 313.319 109.628 311.549 109.628H148.207C146.437 109.628 144.995 108.18 144.995 106.416V97.8477C144.995 96.0837 146.437 94.6361 148.207 94.6361Z" fill="#2C7EFE"/>
<path fill-rule="evenodd" clip-rule="evenodd" d="M146.601 81.9421H313.155C314.039 81.9421 314.76 82.6631 314.76 83.5479V87.832C314.76 88.7168 314.039 89.4378 313.155 89.4378H146.601C145.716 89.4378 144.995 88.7168 144.995 87.832V83.5479C144.995 82.6629 145.716 81.9421 146.601 81.9421Z" fill="#2C7EFE"/>
<path d="M316.149 377.676H145.851V387.323H316.149V377.676Z" fill="#0643A3"/>
<path d="M325.527 385.418H136.474V395.071H325.527V385.418Z" fill="#84B2FE"/>
<path d="M334.657 393.436H127.343V403.082H334.657V393.436Z" fill="#0643A3"/>
<path fill-rule="evenodd" clip-rule="evenodd" d="M186.207 176.615H273.554C277.258 176.615 280.294 179.645 280.294 183.355V201.353C280.294 205.057 277.258 208.092 273.554 208.092H186.207C182.497 208.092 179.461 205.057 179.461 201.353V183.355C179.461 179.645 182.497 176.615 186.207 176.615Z" fill="white"/>
<path d="M229.277 335.638H205.418V376.522H229.277V335.638Z" fill="url(#paint1_linear_3_714)"/>
<path d="M254.343 335.638H230.478V376.522H254.343V335.638Z" fill="url(#paint2_linear_3_714)"/>
<path fill-rule="evenodd" clip-rule="evenodd" d="M205.43 344.569L195.895 338.761H229.881H263.861L254.326 344.569H233.467H205.43Z" fill="#0643A3"/>
<path d="M263.919 335.638H195.836V338.674H263.919V335.638Z" fill="#2C7EFE"/>
<path d="M239.547 117.274H217.515V139.302H239.547V117.274Z" fill="#15489D"/>
<path d="M237.909 119.02H229.622V127.307H237.909V119.02Z" fill="url(#paint3_linear_3_714)"/>
<path d="M227.44 119.02H219.152V127.307H227.44V119.02Z" fill="url(#paint4_linear_3_714)"/>
<path d="M237.909 129.269H229.622V137.557H237.909V129.269Z" fill="url(#paint5_linear_3_714)"/>
<path d="M227.44 129.269H219.152V137.557H227.44V129.269Z" fill="url(#paint6_linear_3_714)"/>
<path d="M200.747 117.274H178.715V139.302H200.747V117.274Z" fill="#15489D"/>
<path d="M199.11 119.02H190.822V127.307H199.11V119.02Z" fill="url(#paint7_linear_3_714)"/>
<path d="M188.64 119.02H180.353V127.307H188.64V119.02Z" fill="url(#paint8_linear_3_714)"/>
<path d="M199.11 129.269H190.822V137.557H199.11V129.269Z" fill="url(#paint9_linear_3_714)"/>
<path d="M188.64 129.269H180.353V137.557H188.64V129.269Z" fill="url(#paint10_linear_3_714)"/>
<path d="M279.901 117.274H257.869V139.302H279.901V117.274Z" fill="#15489D"/>
<path d="M278.263 119.02H269.976V127.307H278.263V119.02Z" fill="url(#paint11_linear_3_714)"/>
<path d="M267.794 119.02H259.507V127.307H267.794V119.02Z" fill="url(#paint12_linear_3_714)"/>
<path d="M278.263 129.269H269.976V137.557H278.263V129.269Z" fill="url(#paint13_linear_3_714)"/>
<path d="M267.794 129.269H259.507V137.557H267.794V129.269Z" fill="url(#paint14_linear_3_714)"/>
<path d="M239.547 149.312H217.515V171.341H239.547V149.312Z" fill="#15489D"/>
<path d="M237.909 151.058H229.622V159.345H237.909V151.058Z" fill="url(#paint15_linear_3_714)"/>
<path d="M227.44 151.058H219.152V159.345H227.44V151.058Z" fill="url(#paint16_linear_3_714)"/>
<path d="M237.909 161.308H229.622V169.595H237.909V161.308Z" fill="url(#paint17_linear_3_714)"/>
<path d="M227.44 161.308H219.152V169.595H227.44V161.308Z" fill="url(#paint18_linear_3_714)"/>
<path d="M200.747 149.312H178.715V171.341H200.747V149.312Z" fill="#15489D"/>
<path d="M199.11 151.058H190.822V159.345H199.11V151.058Z" fill="url(#paint19_linear_3_714)"/>
<path d="M188.64 151.058H180.353V159.345H188.64V151.058Z" fill="url(#paint20_linear_3_714)"/>
<path d="M199.11 161.308H190.822V169.595H199.11V161.308Z" fill="url(#paint21_linear_3_714)"/>
<path d="M188.64 161.308H180.353V169.595H188.64V161.308Z" fill="url(#paint22_linear_3_714)"/>
<path d="M279.901 149.312H257.869V171.341H279.901V149.312Z" fill="#15489D"/>
<path d="M278.263 151.058H269.976V159.345H278.263V151.058Z" fill="url(#paint23_linear_3_714)"/>
<path d="M267.794 151.058H259.507V159.345H267.794V151.058Z" fill="url(#paint24_linear_3_714)"/>
<path d="M278.263 161.308H269.976V169.595H278.263V161.308Z" fill="url(#paint25_linear_3_714)"/>
<path d="M267.794 161.308H259.507V169.595H267.794V161.308Z" fill="url(#paint26_linear_3_714)"/>
<path d="M239.547 213.155H217.515V235.184H239.547V213.155Z" fill="#15489D"/>
<path d="M237.909 214.901H229.622V223.188H237.909V214.901Z" fill="url(#paint27_linear_3_714)"/>
<path d="M227.44 214.901H219.152V223.188H227.44V214.901Z" fill="url(#paint28_linear_3_714)"/>
<path d="M237.909 225.151H229.622V233.438H237.909V225.151Z" fill="url(#paint29_linear_3_714)"/>
<path d="M227.44 225.151H219.152V233.438H227.44V225.151Z" fill="url(#paint30_linear_3_714)"/>
<path d="M200.747 213.155H178.715V235.184H200.747V213.155Z" fill="#15489D"/>
<path d="M199.11 214.901H190.822V223.188H199.11V214.901Z" fill="url(#paint31_linear_3_714)"/>
<path d="M188.64 214.901H180.353V223.188H188.64V214.901Z" fill="url(#paint32_linear_3_714)"/>
<path d="M199.11 225.151H190.822V233.438H199.11V225.151Z" fill="url(#paint33_linear_3_714)"/>
<path d="M188.64 225.151H180.353V233.438H188.64V225.151Z" fill="url(#paint34_linear_3_714)"/>
<path d="M279.901 213.155H257.869V235.184H279.901V213.155Z" fill="#15489D"/>
<path d="M278.263 214.901H269.976V223.188H278.263V214.901Z" fill="url(#paint35_linear_3_714)"/>
<path d="M267.794 214.901H259.507V223.188H267.794V214.901Z" fill="url(#paint36_linear_3_714)"/>
<path d="M278.263 225.151H269.976V233.438H278.263V225.151Z" fill="url(#paint37_linear_3_714)"/>
<path d="M267.794 225.151H259.507V233.438H267.794V225.151Z" fill="url(#paint38_linear_3_714)"/>
<path d="M239.547 245.194H217.515V267.223H239.547V245.194Z" fill="#15489D"/>
<path d="M237.909 246.94H229.622V255.227H237.909V246.94Z" fill="url(#paint39_linear_3_714)"/>
<path d="M227.44 246.94H219.152V255.227H227.44V246.94Z" fill="url(#paint40_linear_3_714)"/>
<path d="M237.909 257.189H229.622V265.477H237.909V257.189Z" fill="url(#paint41_linear_3_714)"/>
<path d="M227.44 257.189H219.152V265.477H227.44V257.189Z" fill="url(#paint42_linear_3_714)"/>
<path d="M200.747 245.194H178.715V267.223H200.747V245.194Z" fill="#15489D"/>
<path d="M199.11 246.94H190.822V255.227H199.11V246.94Z" fill="url(#paint43_linear_3_714)"/>
<path d="M188.64 246.94H180.353V255.227H188.64V246.94Z" fill="url(#paint44_linear_3_714)"/>
<path d="M199.11 257.189H190.822V265.477H199.11V257.189Z" fill="url(#paint45_linear_3_714)"/>
<path d="M188.64 257.189H180.353V265.477H188.64V257.189Z" fill="url(#paint46_linear_3_714)"/>
<path d="M279.901 245.194H257.869V267.223H279.901V245.194Z" fill="#15489D"/>
<path d="M278.263 246.94H269.976V255.227H278.263V246.94Z" fill="url(#paint47_linear_3_714)"/>
<path d="M267.794 246.94H259.507V255.227H267.794V246.94Z" fill="url(#paint48_linear_3_714)"/>
<path d="M278.263 257.189H269.976V265.477H278.263V257.189Z" fill="url(#paint49_linear_3_714)"/>
<path d="M267.794 257.189H259.507V265.477H267.794V257.189Z" fill="url(#paint50_linear_3_714)"/>
<path d="M239.547 299.826H217.515V321.854H239.547V299.826Z" fill="#15489D"/>
<path d="M237.909 301.572H229.622V309.859H237.909V301.572Z" fill="url(#paint51_linear_3_714)"/>
<path d="M227.44 301.572H219.152V309.859H227.44V301.572Z" fill="url(#paint52_linear_3_714)"/>
<path d="M237.909 311.821H229.622V320.109H237.909V311.821Z" fill="url(#paint53_linear_3_714)"/>
<path d="M227.44 311.821H219.152V320.109H227.44V311.821Z" fill="url(#paint54_linear_3_714)"/>
<path d="M200.747 299.826H178.715V321.854H200.747V299.826Z" fill="#15489D"/>
<path d="M199.11 301.572H190.822V309.859H199.11V301.572Z" fill="url(#paint55_linear_3_714)"/>
<path d="M188.64 301.572H180.353V309.859H188.64V301.572Z" fill="url(#paint56_linear_3_714)"/>
<path d="M199.11 311.821H190.822V320.109H199.11V311.821Z" fill="url(#paint57_linear_3_714)"/>
<path d="M188.64 311.821H180.353V320.109H188.64V311.821Z" fill="url(#paint58_linear_3_714)"/>
<path d="M279.901 299.826H257.869V321.854H279.901V299.826Z" fill="#15489D"/>
<path d="M278.263 301.572H269.976V309.859H278.263V301.572Z" fill="url(#paint59_linear_3_714)"/>
<path d="M267.794 301.572H259.507V309.859H267.794V301.572Z" fill="url(#paint60_linear_3_714)"/>
<path d="M278.263 311.821H269.976V320.109H278.263V311.821Z" fill="url(#paint61_linear_3_714)"/>
<path d="M267.794 311.821H259.507V320.109H267.794V311.821Z" fill="url(#paint62_linear_3_714)"/>
<path d="M294.349 343.906H272.317V365.935H294.349V343.906Z" fill="#15489D"/>
<path d="M292.712 345.652H284.425V353.939H292.712V345.652Z" fill="url(#paint63_linear_3_714)"/>
<path d="M282.242 345.652H273.955V353.939H282.242V345.652Z" fill="url(#paint64_linear_3_714)"/>
<path d="M292.712 355.902H284.425V364.189H292.712V355.902Z" fill="url(#paint65_linear_3_714)"/>
<path d="M282.242 355.902H273.955V364.189H282.242V355.902Z" fill="url(#paint66_linear_3_714)"/>
<path d="M187.929 343.906H165.897V365.935H187.929V343.906Z" fill="#15489D"/>
<path d="M186.291 345.652H178.004V353.939H186.291V345.652Z" fill="url(#paint67_linear_3_714)"/>
<path d="M175.822 345.652H167.534V353.939H175.822V345.652Z" fill="url(#paint68_linear_3_714)"/>
<path d="M186.291 355.902H178.004V364.189H186.291V355.902Z" fill="url(#paint69_linear_3_714)"/>
<path d="M175.822 355.902H167.534V364.189H175.822V355.902Z" fill="url(#paint70_linear_3_714)"/>
<path d="M189.023 198.194C188.08 197.681 187.341 196.972 186.806 196.068C186.271 195.164 186.004 194.143 186.004 193.007C186.004 191.871 186.274 190.851 186.814 189.946C187.355 189.042 188.097 188.333 189.039 187.821C189.983 187.308 191.038 187.051 192.208 187.051C193.156 187.051 194.022 187.217 194.805 187.548C195.588 187.878 196.25 188.358 196.79 188.987L195.401 190.294C194.562 189.39 193.531 188.937 192.307 188.937C191.513 188.937 190.801 189.111 190.172 189.459C189.544 189.806 189.053 190.289 188.7 190.906C188.347 191.524 188.171 192.224 188.171 193.007C188.171 193.79 188.347 194.491 188.7 195.108C189.053 195.726 189.544 196.208 190.172 196.556C190.801 196.903 191.512 197.077 192.307 197.077C193.531 197.077 194.562 196.619 195.401 195.704L196.79 197.027C196.25 197.656 195.585 198.136 194.797 198.467C194.008 198.798 193.139 198.963 192.191 198.963C191.022 198.963 189.966 198.706 189.023 198.194Z" fill="#0643A3"/>
<path d="M200.827 198.194C199.878 197.681 199.134 196.969 198.594 196.059C198.053 195.149 197.783 194.132 197.783 193.007C197.783 191.882 198.053 190.865 198.594 189.955C199.134 189.045 199.878 188.334 200.827 187.821C201.775 187.308 202.84 187.051 204.02 187.051C205.2 187.051 206.264 187.308 207.213 187.821C208.161 188.333 208.906 189.042 209.446 189.946C209.987 190.851 210.257 191.871 210.257 193.007C210.257 194.143 209.987 195.164 209.446 196.068C208.906 196.972 208.161 197.681 207.213 198.194C206.264 198.706 205.2 198.963 204.02 198.963C202.84 198.963 201.775 198.706 200.827 198.194ZM206.104 196.556C206.722 196.208 207.207 195.723 207.56 195.1C207.913 194.477 208.09 193.779 208.09 193.007C208.09 192.235 207.913 191.538 207.56 190.914C207.207 190.291 206.722 189.806 206.104 189.458C205.487 189.111 204.792 188.937 204.02 188.937C203.248 188.937 202.553 189.111 201.935 189.458C201.318 189.806 200.832 190.291 200.479 190.914C200.126 191.538 199.95 192.235 199.95 193.007C199.95 193.779 200.126 194.477 200.479 195.1C200.832 195.723 201.317 196.208 201.935 196.556C202.553 196.903 203.248 197.077 204.02 197.077C204.792 197.077 205.487 196.903 206.104 196.556Z" fill="#0643A3"/>
<path d="M223.178 198.798L223.161 191.121L219.356 197.474H218.396L214.591 191.221V198.798H212.54V187.217H214.31L218.909 194.893L223.426 187.217H225.196L225.212 198.798H223.178Z" fill="#0643A3"/>
<path d="M235.726 187.713C236.47 188.044 237.041 188.518 237.438 189.136C237.835 189.754 238.034 190.487 238.034 191.336C238.034 192.175 237.835 192.905 237.438 193.528C237.041 194.152 236.47 194.629 235.726 194.959C234.981 195.29 234.107 195.456 233.104 195.456H230.49V198.798H228.339V187.217H233.104C234.107 187.217 234.981 187.382 235.726 187.713ZM235.139 193.04C235.624 192.643 235.867 192.075 235.867 191.336C235.867 190.597 235.624 190.029 235.139 189.632C234.653 189.235 233.942 189.037 233.004 189.037H230.49V193.636H233.004C233.942 193.636 234.653 193.437 235.139 193.04Z" fill="#0643A3"/>
<path d="M247.116 196.117H241.326L240.184 198.797H237.967L243.179 187.217H245.296L250.524 198.797H248.274L247.116 196.117ZM246.405 194.43L244.221 189.367L242.054 194.43H246.405Z" fill="#0643A3"/>
<path d="M262.287 187.217V198.798H260.517L254.131 190.956V198.798H251.996V187.217H253.767L260.153 195.059V187.217H262.287Z" fill="#0643A3"/>
<path d="M270.393 194.711V198.797H268.243V194.744L263.693 187.217H265.993L269.384 192.858L272.809 187.217H274.926L270.393 194.711Z" fill="#0643A3"/>
<path fill-rule="evenodd" clip-rule="evenodd" d="M340.087 404.361L339.253 405.331C338.771 408.038 334.237 409.053 335.47 410.392L341.02 408.166L341.456 407.504L341.614 407.955C342.11 407.752 342.599 407.549 343.088 407.346C342.81 406.556 342.11 404.819 341.501 404.533L340.087 404.361Z" fill="#132C4F"/>
<path fill-rule="evenodd" clip-rule="evenodd" d="M340.809 402.586L338.583 403.203C338.801 403.917 339.027 404.624 339.252 405.331C339.839 405.925 340.749 404.797 341.501 404.534L340.809 402.586Z" fill="#B3CAD6"/>
<path fill-rule="evenodd" clip-rule="evenodd" d="M328.552 406.534L327.439 407.166C326.085 409.557 321.468 409 322.19 410.67L328.153 410.429L328.792 409.956V410.429C329.318 410.407 329.852 410.377 330.386 410.347C330.386 409.512 330.303 407.647 329.83 407.166L328.552 406.534Z" fill="#132C4F"/>
<path fill-rule="evenodd" clip-rule="evenodd" d="M329.83 405.098L327.521 404.94C327.491 405.684 327.469 406.421 327.439 407.166C327.8 407.925 329.033 407.166 329.83 407.166V405.098Z" fill="#B3CAD6"/>
<path fill-rule="evenodd" clip-rule="evenodd" d="M340.96 377.454L339.508 377.537V378.913H340.96V377.454Z" fill="#EC825C"/>
<path fill-rule="evenodd" clip-rule="evenodd" d="M332.078 364.7L329.815 361.79C329.115 364.106 327.476 368.009 327.717 368.739L330.303 378.913L332.078 377.297L330.95 368.573L332.078 364.7Z" fill="#EDEFEF"/>
<path fill-rule="evenodd" clip-rule="evenodd" d="M332.673 371.852L338.057 376.003C337.891 380.146 337.245 382.628 337.568 388.441L341.448 404.263L338.538 405.075L332.545 389.509L330.447 376.379L332.673 371.852Z" fill="#0C1A31"/>
<path fill-rule="evenodd" clip-rule="evenodd" d="M337.23 374.108C337.5 374.725 337.771 375.349 338.034 375.966C338.703 383.914 333.62 385.065 331.417 389.614L330.379 405.722L327.22 405.737L327.055 388.374L330.447 376.379L333.68 373.281L337.23 374.108Z" fill="#132C4F"/>
<path fill-rule="evenodd" clip-rule="evenodd" d="M334.733 359.88L332.544 359.97C331.635 360.58 329.897 360.903 329.815 361.79L330.462 376.326L338.057 376.003C337.944 371.108 337.839 366.204 337.733 361.309C337.41 360.339 335.733 360.354 334.733 359.88Z" fill="white"/>
<path fill-rule="evenodd" clip-rule="evenodd" d="M335.793 364.858L337.733 361.309C338.53 362.309 340.802 366.633 340.959 367.603L341.125 377.778H339.343L338.38 369.22L335.793 364.858Z" fill="white"/>
<path fill-rule="evenodd" clip-rule="evenodd" d="M334.71 355.729L332.507 356.715L332.545 359.971C332.545 361.061 333.898 361.031 334.733 359.881L334.71 355.729Z" fill="#E9665B"/>
<path fill-rule="evenodd" clip-rule="evenodd" d="M329.251 351.691C329.559 354.037 329.476 358.241 330.176 358.73C330.875 359.294 334.402 358.805 334.627 357.857C335.034 356.91 335.109 353.932 335.357 351.969L329.251 351.691Z" fill="#EC825C"/>
<path fill-rule="evenodd" clip-rule="evenodd" d="M334.154 352.375C333.282 351.781 330.228 353.045 329.349 352.586C327.597 351.759 323.995 352.022 324.1 350.097C324.34 348.488 330.063 350.119 332.936 349.991C333.311 349.954 333.281 350.435 333.454 350.661C334.424 350.849 335.974 350.691 336.049 351.608C336.117 352.202 335.35 354.436 334.996 355.849C334.259 354.797 334.853 352.834 334.154 352.375Z" fill="#1A164F"/>
<path fill-rule="evenodd" clip-rule="evenodd" d="M334.124 354.752L334.109 353.293C334.177 353.022 334.921 352.872 335.087 353.33C335.222 353.736 334.417 355.015 334.124 354.752Z" fill="#EC825C"/>
<path fill-rule="evenodd" clip-rule="evenodd" d="M338.44 379.928H342.163C342.531 379.928 342.832 380.229 342.832 380.598V383.132C342.832 383.433 342.636 383.681 342.373 383.771C342.373 383.741 342.373 383.711 342.373 383.673V381.102C342.373 380.733 342.133 380.425 341.832 380.425H338.779C338.47 380.425 338.23 380.733 338.23 381.102V383.673C338.23 383.711 338.23 383.741 338.23 383.771C337.967 383.681 337.771 383.433 337.771 383.132V380.598C337.771 380.229 338.072 379.928 338.44 379.928Z" fill="#707F85"/>
<path fill-rule="evenodd" clip-rule="evenodd" d="M334.229 382.079H346.374C346.825 382.079 347.201 382.455 347.201 382.906V390.133C347.201 390.584 346.825 390.953 346.374 390.953H334.229C333.778 390.953 333.409 390.584 333.409 390.133V382.906C333.409 382.455 333.778 382.079 334.229 382.079Z" fill="#B3CAD6"/>
<path fill-rule="evenodd" clip-rule="evenodd" d="M347.201 382.906V384.471C347.201 385.403 346.434 386.17 345.494 386.17H335.109C334.176 386.17 333.41 385.403 333.41 384.471V382.906C333.41 382.455 333.778 382.079 334.229 382.079H346.374C346.825 382.079 347.201 382.455 347.201 382.906Z" fill="#93A7B1"/>
<path fill-rule="evenodd" clip-rule="evenodd" d="M339.395 378.996C338.967 379.703 339.012 379.605 339.087 380.5C339.094 380.583 339.155 380.688 339.207 380.756C339.207 380.763 339.328 381.169 339.395 381.229C339.591 381.402 340.313 381.305 340.546 381.184C340.982 380.974 341.486 381.357 341.486 380.628C341.486 380.252 341.509 380.064 341.426 379.695C341.388 379.515 340.877 378.544 340.726 378.507C340.493 378.439 339.794 378.424 339.636 378.74C339.599 378.83 339.493 378.936 339.418 379.003L339.395 378.996Z" fill="#EC825C"/>
<path fill-rule="evenodd" clip-rule="evenodd" d="M340.305 385.215C340.651 385.215 340.937 385.501 340.937 385.847V386.742C340.937 387.095 340.651 387.381 340.305 387.381C339.952 387.381 339.666 387.095 339.666 386.742V385.847C339.666 385.501 339.952 385.215 340.305 385.215Z" fill="#707F85"/>
<path fill-rule="evenodd" clip-rule="evenodd" d="M97.8782 374.592L97.3086 374.09C96.4062 373.294 94.8039 373.617 93.742 374.814C92.6851 376.011 92.5595 377.647 93.4621 378.444L94.0317 378.945C94.9342 379.742 96.5413 379.418 97.5984 378.221C98.6552 377.024 98.7809 375.388 97.8782 374.592ZM97.4439 374.968L96.9903 374.563C96.2614 373.926 94.9729 374.187 94.1235 375.147C93.2692 376.112 93.1678 377.425 93.8966 378.067L94.3551 378.472C95.0791 379.114 96.3725 378.849 97.2219 377.888C98.0714 376.923 98.1728 375.61 97.4439 374.968Z" fill="#6167AE"/>
<path fill-rule="evenodd" clip-rule="evenodd" d="M101.85 381.378L90.0889 370.987C89.8331 370.76 89.4421 370.784 89.2153 371.04L83.1873 377.864C82.9605 378.12 82.9847 378.511 83.2403 378.738L95.0017 389.129C95.2576 389.35 95.6485 389.327 95.8754 389.071L101.903 382.246C102.13 381.995 102.106 381.6 101.85 381.378Z" fill="#7D80BC"/>
<path fill-rule="evenodd" clip-rule="evenodd" d="M86.3099 374.331L98.998 385.538L101.903 382.246C102.13 381.995 102.096 381.59 101.831 381.358L90.108 371.006C89.8425 370.77 89.4421 370.784 89.2153 371.04L86.3099 374.331Z" fill="#6167AE"/>
<path fill-rule="evenodd" clip-rule="evenodd" d="M93.1823 379.336C92.9409 379.129 92.5742 379.148 92.3619 379.389L91.6766 380.166C91.4643 380.403 91.4883 380.774 91.7248 380.982C91.9661 381.194 92.3329 381.17 92.5452 380.934L93.2305 380.156C93.443 379.915 93.419 379.549 93.1823 379.336Z" fill="#DBCDE4"/>
<path fill-rule="evenodd" clip-rule="evenodd" d="M99.8087 373.159L99.5868 373.994C99.3599 374.616 99.3406 375.881 98.9015 375.857C98.6168 375.823 98.9111 375.012 98.6216 374.718C97.8349 374.428 96.7925 376.532 96.1748 376.252C95.2433 375.852 94.8911 374.568 95.5764 373.883C95.9191 373.492 97.4682 373.178 98.7714 372.628L99.8087 373.159Z" fill="#F69668"/>
<path fill-rule="evenodd" clip-rule="evenodd" d="M130.793 365.639L131.025 364.776C131.261 364.129 131.281 362.816 131.734 362.84C132.033 362.879 131.729 363.714 132.029 364.023C132.844 364.322 133.93 362.136 134.572 362.43C135.533 362.845 135.904 364.177 135.19 364.891C134.838 365.297 133.226 365.625 131.869 366.19L130.793 365.639Z" fill="#F69668"/>
<path fill-rule="evenodd" clip-rule="evenodd" d="M96.0685 402.661L96.778 403.322C96.5415 405.542 98.2646 408.346 97.2317 408.491L94.3457 402.965C94.8717 402.632 95.3881 402.265 96.0685 402.661Z" fill="#15489D"/>
<path fill-rule="evenodd" clip-rule="evenodd" d="M99.051 401.049L96.9227 400.707L95.5761 402.594C95.5422 403.067 96.1215 403.631 96.7778 403.323L99.051 401.049Z" fill="#8DAFDB"/>
<path fill-rule="evenodd" clip-rule="evenodd" d="M113.032 391.855L113.588 392.604C112.984 394.659 114.133 397.603 113.134 397.565L111.358 391.851C111.908 391.624 112.458 391.368 113.032 391.855Z" fill="#15489D"/>
<path fill-rule="evenodd" clip-rule="evenodd" d="M116.126 390.847L114.172 390.157L112.579 391.706C112.468 392.15 112.917 392.782 113.588 392.603L116.126 390.847Z" fill="#8DAFDB"/>
<path fill-rule="evenodd" clip-rule="evenodd" d="M118.742 360.263L121.044 362.005C120.697 362.884 120.349 363.762 119.997 364.64C118.525 366.687 117.714 364.124 117.521 363.656L118.742 360.263Z" fill="#F69668"/>
<path fill-rule="evenodd" clip-rule="evenodd" d="M124.722 357.45C125.229 358.424 124.225 359.283 124.77 360.422C125.87 362.734 124.08 361.286 123.858 361.851C123.337 363.178 122.97 363.274 121.681 364.1C121.068 364.491 118.38 364.143 118.061 361.088C117.984 360.369 118.134 360.07 118.626 358.81C119.678 356.127 119.915 355.891 122.96 355.775C124.905 355.698 125.624 357.194 124.722 357.45Z" fill="#F8A981"/>
<path fill-rule="evenodd" clip-rule="evenodd" d="M120.856 362.58C121.445 362.879 121.807 363.279 122.656 363.217C121.551 364.109 121.083 363.086 120.856 362.58Z" fill="white"/>
<path fill-rule="evenodd" clip-rule="evenodd" d="M119.461 358.555C118.626 358.81 119.249 360.089 118.076 360.384C116.623 358.762 118.105 357.497 117.979 354.385L118.476 354.998C118.974 355.297 120.778 352.078 122.487 351.952L121.84 353.54C122.564 353.887 124.393 351.098 125.986 351.31C125.667 351.967 125.349 352.623 125.026 353.279C125.552 353.892 127.39 352.859 128.573 353.907L127.077 354.993C126.821 356.069 128.621 355.461 129.022 357.275C127.458 356.692 125.778 357.937 124.229 357.526L120.754 357.078C120.252 357.956 120.802 359.037 120.281 359.771C120.006 359.365 119.731 358.96 119.461 358.555Z" fill="#1A164F"/>
<path fill-rule="evenodd" clip-rule="evenodd" d="M107.704 380.2C106.927 381.474 107.207 382.531 107.41 383.68L105.021 390.494L95.9237 401.638L97.6467 403.322L107.695 392.632L112.97 384.37L121.16 384.64L113.737 390.248L115.277 392.13L126.126 385.06C126.797 384.659 127.145 383.028 125.996 382.386L114.514 379.529C112.246 379.751 109.973 379.978 107.704 380.2Z" fill="#15489D"/>
<path fill-rule="evenodd" clip-rule="evenodd" d="M117.574 362.869C118.409 363.009 119.886 364.471 120.272 365.205L120.248 367.99L125.668 370.499L130.86 365.109L132.294 366.117C130.412 368.709 127.979 372.975 126.647 373.892C126.159 374.385 121.681 371.962 119.195 370.997C118.525 373.656 117.854 376.315 117.178 378.974C115.687 380.828 113.983 381.957 112.231 382.835L104.388 379.022L109.268 374.742L112.772 368.192L105.132 368.062L99.8761 373.443L98.4089 372.705C100.185 370.104 102.719 365.485 103.747 364.906C104.427 364.288 111.333 364.626 115.127 364.491L117.574 362.869Z" fill="#4B76BA"/>
<path fill-rule="evenodd" clip-rule="evenodd" d="M117.058 363.212C118.008 363.752 118.641 364.365 119.432 365.171L120.257 367.001L120.272 365.205C119.886 364.472 118.409 363.009 117.574 362.869C117.405 362.98 117.231 363.096 117.058 363.212Z" fill="white"/>
<path fill-rule="evenodd" clip-rule="evenodd" d="M204.17 365.219L208.13 364.463C208.795 366.105 209.504 367.76 209.189 369.1C209.426 370.9 208.618 371.688 208.149 371.656C206.964 372.46 206.018 371.85 204.95 371.944L204.17 365.219Z" fill="#1B174F"/>
<path fill-rule="evenodd" clip-rule="evenodd" d="M201.267 365.837L197.307 365.081C196.642 366.724 195.936 368.378 196.252 369.718C196.015 371.515 196.823 372.306 197.292 372.275C198.473 373.078 199.423 372.468 200.487 372.562L201.267 365.837Z" fill="#1B174F"/>
<path fill-rule="evenodd" clip-rule="evenodd" d="M208.787 362.871C203.89 360.7 206.782 348.838 197.686 351.226C192.288 354.003 198.938 361.137 195.988 366.109L208.787 362.871Z" fill="#1B174F"/>
<path fill-rule="evenodd" clip-rule="evenodd" d="M180.336 368.457L179.887 368.765C178.559 368.367 177.31 368.572 175.979 367.866C175.711 367.72 175.585 368.118 175.679 368.248C175.427 368.229 175.175 368.205 174.923 368.182C174.545 368.185 174.47 368.528 174.966 368.674L176.369 369.072C176.156 369.214 175.943 369.355 175.731 369.497C175.47 369.651 175.793 369.931 176.117 369.872C176.755 369.675 177.247 369.706 177.779 369.777C178.138 370.049 178.622 370.561 178.851 370.596C179.229 370.742 180.32 370.009 181.344 370.415L180.336 368.457Z" fill="#F1AE8E"/>
<path fill-rule="evenodd" clip-rule="evenodd" d="M222.221 358.88L222.808 358.793C223.572 357.493 224.715 356.737 225.259 355.193C225.361 354.878 225.759 355.102 225.779 355.275C225.964 355.071 226.145 354.87 226.33 354.665C226.637 354.389 226.945 354.606 226.661 355.086L225.834 356.441C226.109 356.398 226.381 356.355 226.657 356.307C226.98 356.237 226.929 356.701 226.626 356.89C225.972 357.206 225.601 357.596 225.231 358.041C225.149 358.522 225.141 359.29 224.987 359.483C224.79 359.88 223.384 360.101 222.864 361.181L222.221 358.88Z" fill="#F1AE8E"/>
<path fill-rule="evenodd" clip-rule="evenodd" d="M200.747 399.934C199.805 400.88 198.82 401.616 198.328 402.849C198.084 403.586 198.328 404.488 198.493 405.312C198.493 405.804 197.918 405.883 197.674 405.966C196.85 404.571 196.358 403.094 195.866 401.534C195.704 401.041 196.768 399.812 196.851 398.087L195.212 399.072C195.094 399.032 194.881 398.579 195.046 398.417C195.783 397.76 196.441 397.267 197.343 396.775C198.084 396.531 198.777 396.574 199.478 396.613C199.9 397.72 200.325 398.827 200.747 399.934Z" fill="#1B174F"/>
<path fill-rule="evenodd" clip-rule="evenodd" d="M196.992 398.157C196.181 398.969 195.334 399.603 194.912 400.663C194.7 401.297 194.912 402.073 195.054 402.779C195.054 403.2 194.562 403.271 194.349 403.342C193.644 402.14 193.219 400.872 192.797 399.532C192.655 399.111 193.573 398.051 193.644 396.57L192.234 397.417C192.131 397.381 191.95 396.995 192.092 396.853C192.726 396.29 193.289 395.865 194.065 395.443C194.7 395.23 195.298 395.27 195.901 395.301C196.264 396.255 196.63 397.204 196.992 398.157Z" fill="#242C62"/>
<path fill-rule="evenodd" clip-rule="evenodd" d="M208.192 375.97C210.324 381.718 211.966 391.563 211.474 393.04C211.143 395.01 203.429 400.017 200.64 402.069C197.851 404.118 195.881 399.607 197.193 398.949C198.505 398.292 208.846 392.713 208.846 392.713L204.58 380.567L204.253 378.105L204.745 374.989L208.192 375.97Z" fill="#15489D"/>
<path fill-rule="evenodd" clip-rule="evenodd" d="M199.656 376.793C199.23 376.75 198.344 379.256 198.998 381.387C199.655 383.522 203.43 387.872 204.58 391.071C203.268 392.221 200.983 392.398 198.998 392.879C197.851 392.386 196.374 392.386 195.389 393.04C195.062 395.833 196.457 397.878 197.359 400.261C201.46 397.638 207.862 397.799 210.651 393.371C211.474 390.086 208.827 385.386 207.369 381.387L206.223 376.463C204.032 376.573 201.846 376.683 199.656 376.793Z" fill="#4B76BA"/>
<path fill-rule="evenodd" clip-rule="evenodd" d="M198.939 361.224C200.538 360.554 202.118 360.44 203.607 360.495C205.08 360.952 205.73 362.595 207.208 363.052C211.143 364.112 216.95 361.492 221.319 359.656L221.485 361.271L208.027 365.314C207.779 367.059 207.7 368.65 207.207 370.167C206.443 371.322 207.806 374.15 208.519 375.667C206.057 378.247 203.209 376.75 199.226 376.864C199.336 375.147 199.163 373.445 198.997 371.625C198.753 370.183 197.378 368.887 196.149 367.445C190.898 368.812 186.958 370.175 180.391 369.872C180.147 369.242 181.356 369.829 181.108 369.198C186.576 367.977 191.615 367.686 196.374 364.345C197.524 363.284 198.202 361.981 198.939 361.224Z" fill="white"/>
<path fill-rule="evenodd" clip-rule="evenodd" d="M198.686 362.02L199.258 361.094L202.118 362.351C201.98 362.788 201.846 363.226 201.708 363.663C200.885 362.753 200.038 362.367 198.686 362.02Z" fill="#8DAFDC"/>
<path fill-rule="evenodd" clip-rule="evenodd" d="M203.146 363.237L202.161 362.418L203.41 360.598L204.458 360.94C203.816 361.634 203.351 362.059 203.146 363.237Z" fill="#8DAFDC"/>
<path fill-rule="evenodd" clip-rule="evenodd" d="M199.671 360.948C201.889 366.511 202.957 372.554 203.185 378.353C201.314 378.542 199.573 378.353 197.954 378.046C198.064 376.182 198.446 374.433 198.285 372.464C198.036 370.904 197.378 369.426 196.149 367.866C190.898 369.344 186.958 370.821 180.391 370.494C180.147 369.812 179.903 369.127 179.654 368.441C185.122 367.126 190.732 366.885 195.491 363.273C196.642 362.122 197.725 361.634 198.938 361.138C199.305 361.019 199.458 360.976 199.671 360.948Z" fill="#EF6A9E"/>
<path fill-rule="evenodd" clip-rule="evenodd" d="M203.311 360.479C205.458 366.058 205.502 372.373 206.617 378.156C208.456 378.117 209.012 377.286 209.772 376.238C209.059 374.599 208.212 373.366 207.637 371.313C208.129 369.674 208.378 367.787 208.622 365.9L223.068 361.303L222.576 358.675C217.813 359.609 212.234 362.615 208.295 361.468C206.818 360.976 205.175 360.976 203.698 360.483L203.311 360.479Z" fill="#EF6A9E"/>
<path fill-rule="evenodd" clip-rule="evenodd" d="M202.693 365.14C202.783 365.14 202.854 365.065 202.854 364.975C202.854 364.884 202.783 364.809 202.693 364.809C202.602 364.809 202.527 364.884 202.527 364.975C202.527 365.065 202.602 365.14 202.693 365.14Z" fill="#8DAFDC"/>
<path d="M202.693 365.16C202.591 365.16 202.508 365.077 202.508 364.975C202.508 364.872 202.591 364.79 202.693 364.79C202.793 364.79 202.874 364.872 202.874 364.975C202.874 365.077 202.793 365.16 202.693 365.16ZM202.693 364.829C202.612 364.829 202.547 364.894 202.547 364.975C202.547 365.055 202.612 365.12 202.693 365.12C202.771 365.12 202.835 365.055 202.835 364.975C202.835 364.894 202.771 364.829 202.693 364.829Z" fill="#8DAFDC"/>
<path d="M202.693 365.238C202.548 365.238 202.43 365.12 202.43 364.975C202.43 364.829 202.548 364.711 202.693 364.711C202.836 364.711 202.952 364.83 202.952 364.975C202.952 365.12 202.836 365.238 202.693 365.238ZM202.693 364.907C202.656 364.907 202.625 364.938 202.625 364.975C202.625 365.011 202.656 365.042 202.693 365.042C202.729 365.042 202.757 365.013 202.757 364.975C202.757 364.936 202.729 364.907 202.693 364.907Z" fill="#8DAFDC"/>
<path d="M202.693 365.257C202.537 365.257 202.41 365.131 202.41 364.975C202.41 364.819 202.537 364.692 202.693 364.692C202.846 364.692 202.972 364.819 202.972 364.975C202.972 365.131 202.847 365.257 202.693 365.257ZM202.693 364.731C202.558 364.731 202.449 364.84 202.449 364.975C202.449 365.109 202.559 365.218 202.693 365.218C202.825 365.218 202.932 365.109 202.932 364.975C202.932 364.841 202.825 364.731 202.693 364.731ZM202.693 365.062C202.646 365.062 202.606 365.022 202.606 364.975C202.606 364.927 202.646 364.887 202.693 364.887C202.74 364.887 202.776 364.926 202.776 364.975C202.776 365.024 202.74 365.062 202.693 365.062ZM202.693 364.926C202.667 364.926 202.645 364.948 202.645 364.975C202.645 365.001 202.667 365.023 202.693 365.023C202.718 365.023 202.737 365.002 202.737 364.975C202.737 364.948 202.718 364.926 202.693 364.926Z" fill="#8DAFDC"/>
<path fill-rule="evenodd" clip-rule="evenodd" d="M203.623 368.595C203.713 368.595 203.784 368.52 203.784 368.43C203.784 368.339 203.713 368.264 203.623 368.264C203.532 368.264 203.457 368.339 203.457 368.43C203.457 368.52 203.532 368.595 203.623 368.595Z" fill="#8DAFDC"/>
<path d="M203.623 368.615C203.521 368.615 203.438 368.532 203.438 368.43C203.438 368.328 203.521 368.245 203.623 368.245C203.722 368.245 203.804 368.328 203.804 368.43C203.804 368.532 203.722 368.615 203.623 368.615ZM203.623 368.284C203.542 368.284 203.477 368.349 203.477 368.429C203.477 368.51 203.542 368.575 203.623 368.575C203.701 368.575 203.765 368.51 203.765 368.429C203.765 368.349 203.701 368.284 203.623 368.284Z" fill="#8DAFDC"/>
<path d="M203.623 368.693C203.478 368.693 203.359 368.575 203.359 368.43C203.359 368.284 203.477 368.167 203.623 368.167C203.766 368.167 203.882 368.285 203.882 368.43C203.882 368.575 203.766 368.693 203.623 368.693ZM203.623 368.362C203.586 368.362 203.555 368.393 203.555 368.43C203.555 368.466 203.586 368.497 203.623 368.497C203.658 368.497 203.686 368.468 203.686 368.43C203.686 368.392 203.658 368.362 203.623 368.362Z" fill="#8DAFDC"/>
<path d="M203.623 368.712C203.467 368.712 203.34 368.586 203.34 368.43C203.34 368.274 203.467 368.147 203.623 368.147C203.776 368.147 203.901 368.274 203.901 368.43C203.901 368.586 203.776 368.712 203.623 368.712ZM203.623 368.186C203.488 368.186 203.379 368.295 203.379 368.429C203.379 368.564 203.488 368.673 203.623 368.673C203.755 368.673 203.862 368.564 203.862 368.429C203.862 368.295 203.755 368.186 203.623 368.186ZM203.623 368.517C203.575 368.517 203.535 368.477 203.535 368.43C203.535 368.382 203.575 368.342 203.623 368.342C203.669 368.342 203.706 368.381 203.706 368.43C203.706 368.479 203.669 368.517 203.623 368.517ZM203.623 368.381C203.596 368.381 203.574 368.403 203.574 368.429C203.574 368.455 203.596 368.478 203.623 368.478C203.647 368.478 203.667 368.456 203.667 368.429C203.667 368.403 203.647 368.381 203.623 368.381Z" fill="#8DAFDC"/>
<path fill-rule="evenodd" clip-rule="evenodd" d="M204.316 372.129C204.407 372.129 204.477 372.058 204.477 371.967C204.477 371.877 204.407 371.802 204.316 371.802C204.225 371.802 204.151 371.877 204.151 371.967C204.151 372.058 204.225 372.129 204.316 372.129Z" fill="#8DAFDC"/>
<path d="M204.316 372.148C204.214 372.148 204.131 372.067 204.131 371.967C204.131 371.865 204.214 371.782 204.316 371.782C204.416 371.782 204.497 371.865 204.497 371.967C204.497 372.069 204.417 372.148 204.316 372.148ZM204.316 371.821C204.235 371.821 204.17 371.887 204.17 371.967C204.17 372.046 204.235 372.109 204.316 372.109C204.396 372.109 204.458 372.047 204.458 371.967C204.458 371.887 204.394 371.821 204.316 371.821Z" fill="#8DAFDC"/>
<path d="M204.316 372.227C204.171 372.227 204.053 372.11 204.053 371.967C204.053 371.822 204.171 371.704 204.316 371.704C204.459 371.704 204.575 371.822 204.575 371.967C204.575 372.113 204.461 372.227 204.316 372.227ZM204.316 371.9C204.279 371.9 204.248 371.931 204.248 371.967C204.248 372.003 204.278 372.031 204.316 372.031C204.352 372.031 204.38 372.004 204.38 371.967C204.38 371.929 204.352 371.9 204.316 371.9Z" fill="#8DAFDC"/>
<path d="M204.316 372.246C204.16 372.246 204.033 372.121 204.033 371.967C204.033 371.812 204.16 371.685 204.316 371.685C204.47 371.685 204.595 371.811 204.595 371.967C204.595 372.124 204.472 372.246 204.316 372.246ZM204.316 371.724C204.182 371.724 204.072 371.833 204.072 371.967C204.072 372.099 204.182 372.207 204.316 372.207C204.45 372.207 204.556 372.102 204.556 371.967C204.556 371.833 204.448 371.724 204.316 371.724ZM204.316 372.051C204.267 372.051 204.229 372.014 204.229 371.967C204.229 371.92 204.269 371.88 204.316 371.88C204.363 371.88 204.399 371.918 204.399 371.967C204.399 372.015 204.364 372.051 204.316 372.051ZM204.316 371.919C204.29 371.919 204.268 371.941 204.268 371.967C204.268 371.992 204.289 372.011 204.316 372.011C204.342 372.011 204.36 371.993 204.36 371.967C204.36 371.94 204.341 371.919 204.316 371.919Z" fill="#8DAFDC"/>
<path fill-rule="evenodd" clip-rule="evenodd" d="M204.674 375.588C204.765 375.588 204.84 375.513 204.84 375.422C204.84 375.332 204.765 375.261 204.674 375.261C204.584 375.261 204.509 375.332 204.509 375.422C204.509 375.513 204.584 375.588 204.674 375.588Z" fill="#8DAFDC"/>
<path d="M204.674 375.607C204.572 375.607 204.489 375.524 204.489 375.422C204.489 375.323 204.572 375.241 204.674 375.241C204.776 375.241 204.859 375.323 204.859 375.422C204.859 375.524 204.776 375.607 204.674 375.607ZM204.674 375.28C204.594 375.28 204.529 375.344 204.529 375.422C204.529 375.503 204.594 375.568 204.674 375.568C204.755 375.568 204.82 375.503 204.82 375.422C204.82 375.344 204.755 375.28 204.674 375.28Z" fill="#8DAFDC"/>
<path d="M204.674 375.685C204.529 375.685 204.411 375.567 204.411 375.422C204.411 375.279 204.529 375.163 204.674 375.163C204.819 375.163 204.937 375.279 204.937 375.422C204.937 375.567 204.82 375.685 204.674 375.685ZM204.674 375.359C204.636 375.359 204.607 375.387 204.607 375.422C204.607 375.459 204.638 375.49 204.674 375.49C204.711 375.49 204.742 375.459 204.742 375.422C204.742 375.387 204.712 375.359 204.674 375.359Z" fill="#8DAFDC"/>
<path d="M204.674 375.705C204.519 375.705 204.392 375.578 204.392 375.422C204.392 375.269 204.518 375.144 204.674 375.144C204.83 375.144 204.957 375.269 204.957 375.422C204.957 375.578 204.83 375.705 204.674 375.705ZM204.674 375.183C204.54 375.183 204.431 375.29 204.431 375.422C204.431 375.557 204.54 375.666 204.674 375.666C204.809 375.666 204.918 375.557 204.918 375.422C204.918 375.29 204.809 375.183 204.674 375.183ZM204.674 375.51C204.627 375.51 204.587 375.47 204.587 375.422C204.587 375.376 204.625 375.339 204.674 375.339C204.723 375.339 204.762 375.376 204.762 375.422C204.762 375.47 204.722 375.51 204.674 375.51ZM204.674 375.378C204.647 375.378 204.626 375.398 204.626 375.422C204.626 375.448 204.648 375.47 204.674 375.47C204.701 375.47 204.723 375.448 204.723 375.422C204.723 375.398 204.701 375.378 204.674 375.378Z" fill="#8DAFDC"/>
<path fill-rule="evenodd" clip-rule="evenodd" d="M199.388 357.891C199.588 359.038 199.533 359.861 199.986 361.33C200.711 361.988 201.412 362.217 202.153 362.3C202.736 361.827 203.11 361.299 203.158 360.554C202.937 359.79 202.791 358.151 202.724 357.009L199.388 357.891Z" fill="#EC825C"/>
<path fill-rule="evenodd" clip-rule="evenodd" d="M196.839 354.09C197.91 357.608 196.89 358.931 200.002 360.464C201.987 361.126 203.118 359.956 203.67 358.628C204.017 357.115 203.059 354.499 201.48 352.612C199.9 352.356 197.962 352.305 196.839 354.09Z" fill="#F1AE8E"/>
<path fill-rule="evenodd" clip-rule="evenodd" d="M196.384 353.789C196.465 353.935 196.546 354.082 196.623 354.229C198.623 353.858 201.8 354.964 202.619 353.115L199.665 351.424L196.384 353.789Z" fill="#1B174F"/>
<path fill-rule="evenodd" clip-rule="evenodd" d="M203.438 357.43C203.276 356.989 203.111 356.548 202.949 356.107C202.898 355.716 203.497 355.197 203.93 355.618C204.32 356.205 203.78 357.383 203.438 357.43Z" fill="#F1AE8E"/>
<path fill-rule="evenodd" clip-rule="evenodd" d="M199.419 361.096L198.58 362.562L199.38 363.495L199.581 367.64L202.405 370.898C201.834 367.549 200.94 364.22 199.671 361.049C199.584 361.061 199.506 361.077 199.419 361.096Z" fill="#EE4F88"/>
<path fill-rule="evenodd" clip-rule="evenodd" d="M205.293 368.896L206.353 366.033L204.651 362.779L205.017 361.782L203.504 360.584H203.311C204.336 363.231 204.883 366.048 205.293 368.896Z" fill="#EE4F88"/>
<path fill-rule="evenodd" clip-rule="evenodd" d="M198.249 375.001L198.513 374.713L200.554 371.885L199.214 374.241C199.837 373.878 200.459 373.52 201.082 373.157C200.108 374.063 198.781 374.761 198.162 375.876C198.194 375.588 198.222 375.296 198.249 375.001Z" fill="#EE4F88"/>
<path fill-rule="evenodd" clip-rule="evenodd" d="M207.657 371.38L206.652 370.723L206.999 371.416L205.884 371.124L208.019 372.476C207.889 372.137 207.771 371.774 207.657 371.38Z" fill="#EE4F88"/>
</g>
<defs>
<linearGradient id="paint0_linear_3_714" x1="33.7004" y1="344.7" x2="425.064" y2="344.7" gradientUnits="userSpaceOnUse">
<stop stop-color="#42C5A0"/>
<stop offset="1" stop-color="#0EBAA0"/>
</linearGradient>
<linearGradient id="paint1_linear_3_714" x1="205.418" y1="356.08" x2="229.277" y2="356.08" gradientUnits="userSpaceOnUse">
<stop stop-color="#62CBEC"/>
<stop offset="1" stop-color="#D5F0FF"/>
</linearGradient>
<linearGradient id="paint2_linear_3_714" x1="230.478" y1="356.08" x2="254.343" y2="356.08" gradientUnits="userSpaceOnUse">
<stop stop-color="#62CBEC"/>
<stop offset="1" stop-color="#D5F0FF"/>
</linearGradient>
<linearGradient id="paint3_linear_3_714" x1="229.622" y1="123.163" x2="237.909" y2="123.163" gradientUnits="userSpaceOnUse">
<stop stop-color="#C6E8F3"/>
<stop offset="1" stop-color="#8AD5F2"/>
</linearGradient>
<linearGradient id="paint4_linear_3_714" x1="219.152" y1="123.163" x2="227.439" y2="123.163" gradientUnits="userSpaceOnUse">
<stop stop-color="#C6E8F3"/>
<stop offset="1" stop-color="#8AD5F2"/>
</linearGradient>
<linearGradient id="paint5_linear_3_714" x1="229.622" y1="133.413" x2="237.909" y2="133.413" gradientUnits="userSpaceOnUse">
<stop stop-color="#C6E8F3"/>
<stop offset="1" stop-color="#8AD5F2"/>
</linearGradient>
<linearGradient id="paint6_linear_3_714" x1="219.152" y1="133.413" x2="227.439" y2="133.413" gradientUnits="userSpaceOnUse">
<stop stop-color="#C6E8F3"/>
<stop offset="1" stop-color="#8AD5F2"/>
</linearGradient>
<linearGradient id="paint7_linear_3_714" x1="190.822" y1="123.163" x2="199.109" y2="123.163" gradientUnits="userSpaceOnUse">
<stop stop-color="#C6E8F3"/>
<stop offset="1" stop-color="#8AD5F2"/>
</linearGradient>
<linearGradient id="paint8_linear_3_714" x1="180.353" y1="123.163" x2="188.64" y2="123.163" gradientUnits="userSpaceOnUse">
<stop stop-color="#C6E8F3"/>
<stop offset="1" stop-color="#8AD5F2"/>
</linearGradient>
<linearGradient id="paint9_linear_3_714" x1="190.822" y1="133.413" x2="199.109" y2="133.413" gradientUnits="userSpaceOnUse">
<stop stop-color="#C6E8F3"/>
<stop offset="1" stop-color="#8AD5F2"/>
</linearGradient>
<linearGradient id="paint10_linear_3_714" x1="180.353" y1="133.413" x2="188.64" y2="133.413" gradientUnits="userSpaceOnUse">
<stop stop-color="#C6E8F3"/>
<stop offset="1" stop-color="#8AD5F2"/>
</linearGradient>
<linearGradient id="paint11_linear_3_714" x1="269.976" y1="123.163" x2="278.263" y2="123.163" gradientUnits="userSpaceOnUse">
<stop stop-color="#C6E8F3"/>
<stop offset="1" stop-color="#8AD5F2"/>
</linearGradient>
<linearGradient id="paint12_linear_3_714" x1="259.507" y1="123.163" x2="267.794" y2="123.163" gradientUnits="userSpaceOnUse">
<stop stop-color="#C6E8F3"/>
<stop offset="1" stop-color="#8AD5F2"/>
</linearGradient>
<linearGradient id="paint13_linear_3_714" x1="269.976" y1="133.413" x2="278.263" y2="133.413" gradientUnits="userSpaceOnUse">
<stop stop-color="#C6E8F3"/>
<stop offset="1" stop-color="#8AD5F2"/>
</linearGradient>
<linearGradient id="paint14_linear_3_714" x1="259.507" y1="133.413" x2="267.794" y2="133.413" gradientUnits="userSpaceOnUse">
<stop stop-color="#C6E8F3"/>
<stop offset="1" stop-color="#8AD5F2"/>
</linearGradient>
<linearGradient id="paint15_linear_3_714" x1="229.622" y1="155.202" x2="237.909" y2="155.202" gradientUnits="userSpaceOnUse">
<stop stop-color="#C6E8F3"/>
<stop offset="1" stop-color="#8AD5F2"/>
</linearGradient>
<linearGradient id="paint16_linear_3_714" x1="219.152" y1="155.202" x2="227.439" y2="155.202" gradientUnits="userSpaceOnUse">
<stop stop-color="#C6E8F3"/>
<stop offset="1" stop-color="#8AD5F2"/>
</linearGradient>
<linearGradient id="paint17_linear_3_714" x1="229.622" y1="165.451" x2="237.909" y2="165.451" gradientUnits="userSpaceOnUse">
<stop stop-color="#C6E8F3"/>
<stop offset="1" stop-color="#8AD5F2"/>
</linearGradient>
<linearGradient id="paint18_linear_3_714" x1="219.152" y1="165.451" x2="227.439" y2="165.451" gradientUnits="userSpaceOnUse">
<stop stop-color="#C6E8F3"/>
<stop offset="1" stop-color="#8AD5F2"/>
</linearGradient>
<linearGradient id="paint19_linear_3_714" x1="190.822" y1="155.202" x2="199.109" y2="155.202" gradientUnits="userSpaceOnUse">
<stop stop-color="#C6E8F3"/>
<stop offset="1" stop-color="#8AD5F2"/>
</linearGradient>
<linearGradient id="paint20_linear_3_714" x1="180.353" y1="155.202" x2="188.64" y2="155.202" gradientUnits="userSpaceOnUse">
<stop stop-color="#C6E8F3"/>
<stop offset="1" stop-color="#8AD5F2"/>
</linearGradient>
<linearGradient id="paint21_linear_3_714" x1="190.822" y1="165.451" x2="199.109" y2="165.451" gradientUnits="userSpaceOnUse">
<stop stop-color="#C6E8F3"/>
<stop offset="1" stop-color="#8AD5F2"/>
</linearGradient>
<linearGradient id="paint22_linear_3_714" x1="180.353" y1="165.451" x2="188.64" y2="165.451" gradientUnits="userSpaceOnUse">
<stop stop-color="#C6E8F3"/>
<stop offset="1" stop-color="#8AD5F2"/>
</linearGradient>
<linearGradient id="paint23_linear_3_714" x1="269.976" y1="155.202" x2="278.263" y2="155.202" gradientUnits="userSpaceOnUse">
<stop stop-color="#C6E8F3"/>
<stop offset="1" stop-color="#8AD5F2"/>
</linearGradient>
<linearGradient id="paint24_linear_3_714" x1="259.507" y1="155.202" x2="267.794" y2="155.202" gradientUnits="userSpaceOnUse">
<stop stop-color="#C6E8F3"/>
<stop offset="1" stop-color="#8AD5F2"/>
</linearGradient>
<linearGradient id="paint25_linear_3_714" x1="269.976" y1="165.451" x2="278.263" y2="165.451" gradientUnits="userSpaceOnUse">
<stop stop-color="#C6E8F3"/>
<stop offset="1" stop-color="#8AD5F2"/>
</linearGradient>
<linearGradient id="paint26_linear_3_714" x1="259.507" y1="165.451" x2="267.794" y2="165.451" gradientUnits="userSpaceOnUse">
<stop stop-color="#C6E8F3"/>
<stop offset="1" stop-color="#8AD5F2"/>
</linearGradient>
<linearGradient id="paint27_linear_3_714" x1="229.622" y1="219.045" x2="237.909" y2="219.045" gradientUnits="userSpaceOnUse">
<stop stop-color="#C6E8F3"/>
<stop offset="1" stop-color="#8AD5F2"/>
</linearGradient>
<linearGradient id="paint28_linear_3_714" x1="219.152" y1="219.045" x2="227.439" y2="219.045" gradientUnits="userSpaceOnUse">
<stop stop-color="#C6E8F3"/>
<stop offset="1" stop-color="#8AD5F2"/>
</linearGradient>
<linearGradient id="paint29_linear_3_714" x1="229.622" y1="229.295" x2="237.909" y2="229.295" gradientUnits="userSpaceOnUse">
<stop stop-color="#C6E8F3"/>
<stop offset="1" stop-color="#8AD5F2"/>
</linearGradient>
<linearGradient id="paint30_linear_3_714" x1="219.152" y1="229.295" x2="227.439" y2="229.295" gradientUnits="userSpaceOnUse">
<stop stop-color="#C6E8F3"/>
<stop offset="1" stop-color="#8AD5F2"/>
</linearGradient>
<linearGradient id="paint31_linear_3_714" x1="190.822" y1="219.045" x2="199.109" y2="219.045" gradientUnits="userSpaceOnUse">
<stop stop-color="#C6E8F3"/>
<stop offset="1" stop-color="#8AD5F2"/>
</linearGradient>
<linearGradient id="paint32_linear_3_714" x1="180.353" y1="219.045" x2="188.64" y2="219.045" gradientUnits="userSpaceOnUse">
<stop stop-color="#C6E8F3"/>
<stop offset="1" stop-color="#8AD5F2"/>
</linearGradient>
<linearGradient id="paint33_linear_3_714" x1="190.822" y1="229.295" x2="199.109" y2="229.295" gradientUnits="userSpaceOnUse">
<stop stop-color="#C6E8F3"/>
<stop offset="1" stop-color="#8AD5F2"/>
</linearGradient>
<linearGradient id="paint34_linear_3_714" x1="180.353" y1="229.295" x2="188.64" y2="229.295" gradientUnits="userSpaceOnUse">
<stop stop-color="#C6E8F3"/>
<stop offset="1" stop-color="#8AD5F2"/>
</linearGradient>
<linearGradient id="paint35_linear_3_714" x1="269.976" y1="219.045" x2="278.263" y2="219.045" gradientUnits="userSpaceOnUse">
<stop stop-color="#C6E8F3"/>
<stop offset="1" stop-color="#8AD5F2"/>
</linearGradient>
<linearGradient id="paint36_linear_3_714" x1="259.507" y1="219.045" x2="267.794" y2="219.045" gradientUnits="userSpaceOnUse">
<stop stop-color="#C6E8F3"/>
<stop offset="1" stop-color="#8AD5F2"/>
</linearGradient>
<linearGradient id="paint37_linear_3_714" x1="269.976" y1="229.295" x2="278.263" y2="229.295" gradientUnits="userSpaceOnUse">
<stop stop-color="#C6E8F3"/>
<stop offset="1" stop-color="#8AD5F2"/>
</linearGradient>
<linearGradient id="paint38_linear_3_714" x1="259.507" y1="229.295" x2="267.794" y2="229.295" gradientUnits="userSpaceOnUse">
<stop stop-color="#C6E8F3"/>
<stop offset="1" stop-color="#8AD5F2"/>
</linearGradient>
<linearGradient id="paint39_linear_3_714" x1="229.622" y1="251.083" x2="237.909" y2="251.083" gradientUnits="userSpaceOnUse">
<stop stop-color="#C6E8F3"/>
<stop offset="1" stop-color="#8AD5F2"/>
</linearGradient>
<linearGradient id="paint40_linear_3_714" x1="219.152" y1="251.083" x2="227.439" y2="251.083" gradientUnits="userSpaceOnUse">
<stop stop-color="#C6E8F3"/>
<stop offset="1" stop-color="#8AD5F2"/>
</linearGradient>
<linearGradient id="paint41_linear_3_714" x1="229.622" y1="261.333" x2="237.909" y2="261.333" gradientUnits="userSpaceOnUse">
<stop stop-color="#C6E8F3"/>
<stop offset="1" stop-color="#8AD5F2"/>
</linearGradient>
<linearGradient id="paint42_linear_3_714" x1="219.152" y1="261.333" x2="227.439" y2="261.333" gradientUnits="userSpaceOnUse">
<stop stop-color="#C6E8F3"/>
<stop offset="1" stop-color="#8AD5F2"/>
</linearGradient>
<linearGradient id="paint43_linear_3_714" x1="190.822" y1="251.083" x2="199.109" y2="251.083" gradientUnits="userSpaceOnUse">
<stop stop-color="#C6E8F3"/>
<stop offset="1" stop-color="#8AD5F2"/>
</linearGradient>
<linearGradient id="paint44_linear_3_714" x1="180.353" y1="251.083" x2="188.64" y2="251.083" gradientUnits="userSpaceOnUse">
<stop stop-color="#C6E8F3"/>
<stop offset="1" stop-color="#8AD5F2"/>
</linearGradient>
<linearGradient id="paint45_linear_3_714" x1="190.822" y1="261.333" x2="199.109" y2="261.333" gradientUnits="userSpaceOnUse">
<stop stop-color="#C6E8F3"/>
<stop offset="1" stop-color="#8AD5F2"/>
</linearGradient>
<linearGradient id="paint46_linear_3_714" x1="180.353" y1="261.333" x2="188.64" y2="261.333" gradientUnits="userSpaceOnUse">
<stop stop-color="#C6E8F3"/>
<stop offset="1" stop-color="#8AD5F2"/>
</linearGradient>
<linearGradient id="paint47_linear_3_714" x1="269.976" y1="251.083" x2="278.263" y2="251.083" gradientUnits="userSpaceOnUse">
<stop stop-color="#C6E8F3"/>
<stop offset="1" stop-color="#8AD5F2"/>
</linearGradient>
<linearGradient id="paint48_linear_3_714" x1="259.507" y1="251.083" x2="267.794" y2="251.083" gradientUnits="userSpaceOnUse">
<stop stop-color="#C6E8F3"/>
<stop offset="1" stop-color="#8AD5F2"/>
</linearGradient>
<linearGradient id="paint49_linear_3_714" x1="269.976" y1="261.333" x2="278.263" y2="261.333" gradientUnits="userSpaceOnUse">
<stop stop-color="#C6E8F3"/>
<stop offset="1" stop-color="#8AD5F2"/>
</linearGradient>
<linearGradient id="paint50_linear_3_714" x1="259.507" y1="261.333" x2="267.794" y2="261.333" gradientUnits="userSpaceOnUse">
<stop stop-color="#C6E8F3"/>
<stop offset="1" stop-color="#8AD5F2"/>
</linearGradient>
<linearGradient id="paint51_linear_3_714" x1="229.622" y1="305.715" x2="237.909" y2="305.715" gradientUnits="userSpaceOnUse">
<stop stop-color="#C6E8F3"/>
<stop offset="1" stop-color="#8AD5F2"/>
</linearGradient>
<linearGradient id="paint52_linear_3_714" x1="219.152" y1="305.715" x2="227.439" y2="305.715" gradientUnits="userSpaceOnUse">
<stop stop-color="#C6E8F3"/>
<stop offset="1" stop-color="#8AD5F2"/>
</linearGradient>
<linearGradient id="paint53_linear_3_714" x1="229.622" y1="315.965" x2="237.909" y2="315.965" gradientUnits="userSpaceOnUse">
<stop stop-color="#C6E8F3"/>
<stop offset="1" stop-color="#8AD5F2"/>
</linearGradient>
<linearGradient id="paint54_linear_3_714" x1="219.152" y1="315.965" x2="227.439" y2="315.965" gradientUnits="userSpaceOnUse">
<stop stop-color="#C6E8F3"/>
<stop offset="1" stop-color="#8AD5F2"/>
</linearGradient>
<linearGradient id="paint55_linear_3_714" x1="190.822" y1="305.715" x2="199.109" y2="305.715" gradientUnits="userSpaceOnUse">
<stop stop-color="#C6E8F3"/>
<stop offset="1" stop-color="#8AD5F2"/>
</linearGradient>
<linearGradient id="paint56_linear_3_714" x1="180.353" y1="305.715" x2="188.64" y2="305.715" gradientUnits="userSpaceOnUse">
<stop stop-color="#C6E8F3"/>
<stop offset="1" stop-color="#8AD5F2"/>
</linearGradient>
<linearGradient id="paint57_linear_3_714" x1="190.822" y1="315.965" x2="199.109" y2="315.965" gradientUnits="userSpaceOnUse">
<stop stop-color="#C6E8F3"/>
<stop offset="1" stop-color="#8AD5F2"/>
</linearGradient>
<linearGradient id="paint58_linear_3_714" x1="180.353" y1="315.965" x2="188.64" y2="315.965" gradientUnits="userSpaceOnUse">
<stop stop-color="#C6E8F3"/>
<stop offset="1" stop-color="#8AD5F2"/>
</linearGradient>
<linearGradient id="paint59_linear_3_714" x1="269.976" y1="305.715" x2="278.263" y2="305.715" gradientUnits="userSpaceOnUse">
<stop stop-color="#C6E8F3"/>
<stop offset="1" stop-color="#8AD5F2"/>
</linearGradient>
<linearGradient id="paint60_linear_3_714" x1="259.507" y1="305.715" x2="267.794" y2="305.715" gradientUnits="userSpaceOnUse">
<stop stop-color="#C6E8F3"/>
<stop offset="1" stop-color="#8AD5F2"/>
</linearGradient>
<linearGradient id="paint61_linear_3_714" x1="269.976" y1="315.965" x2="278.263" y2="315.965" gradientUnits="userSpaceOnUse">
<stop stop-color="#C6E8F3"/>
<stop offset="1" stop-color="#8AD5F2"/>
</linearGradient>
<linearGradient id="paint62_linear_3_714" x1="259.507" y1="315.965" x2="267.794" y2="315.965" gradientUnits="userSpaceOnUse">
<stop stop-color="#C6E8F3"/>
<stop offset="1" stop-color="#8AD5F2"/>
</linearGradient>
<linearGradient id="paint63_linear_3_714" x1="284.425" y1="349.796" x2="292.712" y2="349.796" gradientUnits="userSpaceOnUse">
<stop stop-color="#C6E8F3"/>
<stop offset="1" stop-color="#8AD5F2"/>
</linearGradient>
<linearGradient id="paint64_linear_3_714" x1="273.955" y1="349.796" x2="282.242" y2="349.796" gradientUnits="userSpaceOnUse">
<stop stop-color="#C6E8F3"/>
<stop offset="1" stop-color="#8AD5F2"/>
</linearGradient>
<linearGradient id="paint65_linear_3_714" x1="284.425" y1="360.046" x2="292.712" y2="360.046" gradientUnits="userSpaceOnUse">
<stop stop-color="#C6E8F3"/>
<stop offset="1" stop-color="#8AD5F2"/>
</linearGradient>
<linearGradient id="paint66_linear_3_714" x1="273.955" y1="360.046" x2="282.242" y2="360.046" gradientUnits="userSpaceOnUse">
<stop stop-color="#C6E8F3"/>
<stop offset="1" stop-color="#8AD5F2"/>
</linearGradient>
<linearGradient id="paint67_linear_3_714" x1="178.004" y1="349.796" x2="186.291" y2="349.796" gradientUnits="userSpaceOnUse">
<stop stop-color="#C6E8F3"/>
<stop offset="1" stop-color="#8AD5F2"/>
</linearGradient>
<linearGradient id="paint68_linear_3_714" x1="167.534" y1="349.796" x2="175.821" y2="349.796" gradientUnits="userSpaceOnUse">
<stop stop-color="#C6E8F3"/>
<stop offset="1" stop-color="#8AD5F2"/>
</linearGradient>
<linearGradient id="paint69_linear_3_714" x1="178.004" y1="360.046" x2="186.291" y2="360.046" gradientUnits="userSpaceOnUse">
<stop stop-color="#C6E8F3"/>
<stop offset="1" stop-color="#8AD5F2"/>
</linearGradient>
<linearGradient id="paint70_linear_3_714" x1="167.534" y1="360.046" x2="175.821" y2="360.046" gradientUnits="userSpaceOnUse">
<stop stop-color="#C6E8F3"/>
<stop offset="1" stop-color="#8AD5F2"/>
</linearGradient>
<clipPath id="clip0_3_714">
<rect width="463" height="432" fill="white"/>
</clipPath>
</defs>
</svg>
