<svg width="463" height="432" viewBox="0 0 463 432" fill="none" xmlns="http://www.w3.org/2000/svg">
<g clip-path="url(#clip0_3_962)">
<path d="M96.054 294.322H80.7013V325.907H96.054V294.322Z" fill="#DCEAF9"/>
<path d="M306.907 205.751V191.946H302.709V168.21H280.204V191.946H259.162V159.412L235.942 150.638V178.376H230.648V141.436L207.428 149.117V204.603H178.064V237.376H167.09V245.632H141.889V231.416H127.419V192.784H109.543V264.098H91.6687V326.154H109.543H124.864H127.419H141.889H150.067H163.168H167.09H178.064H188.369H207.428H213.264H224.877H230.648H235.942H248.097H256.37H259.162H280.204H302.334H302.709H306.907H324.839V205.751H306.907Z" fill="#D5E7F7"/>
<path d="M226.561 151.927H210.898V157.655H226.561V151.927Z" fill="#C4D9ED"/>
<path d="M226.561 162.685H210.898V168.413H226.561V162.685Z" fill="#C4D9ED"/>
<path d="M226.561 172.363H210.898V178.09H226.561V172.363Z" fill="#C4D9ED"/>
<path d="M127.748 218.811H109.543V227.651H127.748V218.811Z" fill="#C4D9ED"/>
<path d="M127.575 245.943H109.543V254.782H127.575V245.943Z" fill="#C4D9ED"/>
<path d="M127.575 259.296H109.543V268.135H127.575V259.296Z" fill="#C4D9ED"/>
<path d="M127.282 273.266H109.25V282.105H127.282V273.266Z" fill="#C4D9ED"/>
<path d="M127.282 286.945H109.25V295.784H127.282V286.945Z" fill="#C4D9ED"/>
<path d="M127.282 300.915H109.25V309.754H127.282V300.915Z" fill="#C4D9ED"/>
<path d="M255.475 172.363H239V178.09H255.475V172.363Z" fill="#C4D9ED"/>
<path d="M255.475 162.773H239V168.5H255.475V162.773Z" fill="#C4D9ED"/>
<path d="M255.475 183.499H210.499V189.226H255.475V183.499Z" fill="#C4D9ED"/>
<path d="M255.475 192.109H210.499V197.837H255.475V192.109Z" fill="#C4D9ED"/>
<path d="M255.475 200.663H210.499V206.169H255.475V200.663Z" fill="#C4D9ED"/>
<path d="M127.575 232.59H109.543V241.43H127.575V232.59Z" fill="#C4D9ED"/>
<path d="M186.495 209.974H182.559V215.512H186.495V209.974Z" fill="#C4D9ED"/>
<path d="M193.857 209.974H189.92V215.512H193.857V209.974Z" fill="#C4D9ED"/>
<path d="M201.053 209.974H197.116V215.512H201.053V209.974Z" fill="#C4D9ED"/>
<path d="M207.876 209.974H203.939V215.512H207.876V209.974Z" fill="#C4D9ED"/>
<path d="M214.829 209.974H210.892V215.512H214.829V209.974Z" fill="#C4D9ED"/>
<path d="M221.863 209.974H217.926V215.512H221.863V209.974Z" fill="#C4D9ED"/>
<path d="M229.225 209.974H225.288V215.512H229.225V209.974Z" fill="#C4D9ED"/>
<path d="M236.421 209.974H232.484V215.512H236.421V209.974Z" fill="#C4D9ED"/>
<path d="M243.244 209.974H239.307V215.512H243.244V209.974Z" fill="#C4D9ED"/>
<path d="M250.196 209.974H246.26V215.512H250.196V209.974Z" fill="#C4D9ED"/>
<path d="M257.442 209.974H253.505V215.512H257.442V209.974Z" fill="#C4D9ED"/>
<path d="M264.804 209.974H260.867V215.512H264.804V209.974Z" fill="#C4D9ED"/>
<path d="M272 209.974H268.063V215.512H272V209.974Z" fill="#C4D9ED"/>
<path d="M278.823 209.974H274.886V215.512H278.823V209.974Z" fill="#C4D9ED"/>
<path d="M285.777 209.974H281.841V215.512H285.777V209.974Z" fill="#C4D9ED"/>
<path d="M300.171 209.974H296.234V215.512H300.171V209.974Z" fill="#C4D9ED"/>
<path d="M307.367 209.974H303.43V215.512H307.367V209.974Z" fill="#C4D9ED"/>
<path d="M314.19 209.974H310.254V215.512H314.19V209.974Z" fill="#C4D9ED"/>
<path d="M321.143 209.974H317.206V215.512H321.143V209.974Z" fill="#C4D9ED"/>
<path d="M186.495 219.749H182.559V225.287H186.495V219.749Z" fill="#C4D9ED"/>
<path d="M193.857 219.749H189.92V225.287H193.857V219.749Z" fill="#C4D9ED"/>
<path d="M201.053 219.749H197.116V225.287H201.053V219.749Z" fill="#C4D9ED"/>
<path d="M207.876 219.749H203.939V225.287H207.876V219.749Z" fill="#C4D9ED"/>
<path d="M214.829 219.749H210.892V225.287H214.829V219.749Z" fill="#C4D9ED"/>
<path d="M221.863 219.749H217.926V225.287H221.863V219.749Z" fill="#C4D9ED"/>
<path d="M229.225 219.749H225.288V225.287H229.225V219.749Z" fill="#C4D9ED"/>
<path d="M236.421 219.749H232.484V225.287H236.421V219.749Z" fill="#C4D9ED"/>
<path d="M243.244 219.749H239.307V225.287H243.244V219.749Z" fill="#C4D9ED"/>
<path d="M250.196 219.749H246.26V225.287H250.196V219.749Z" fill="#C4D9ED"/>
<path d="M257.442 219.749H253.505V225.287H257.442V219.749Z" fill="#C4D9ED"/>
<path d="M264.804 219.749H260.867V225.287H264.804V219.749Z" fill="#C4D9ED"/>
<path d="M272 219.749H268.063V225.287H272V219.749Z" fill="#C4D9ED"/>
<path d="M278.823 219.749H274.886V225.287H278.823V219.749Z" fill="#C4D9ED"/>
<path d="M285.777 219.749H281.841V225.287H285.777V219.749Z" fill="#C4D9ED"/>
<path d="M292.81 219.749H288.873V225.287H292.81V219.749Z" fill="#C4D9ED"/>
<path d="M300.171 219.749H296.234V225.287H300.171V219.749Z" fill="#C4D9ED"/>
<path d="M307.367 219.749H303.43V225.287H307.367V219.749Z" fill="#C4D9ED"/>
<path d="M314.19 219.749H310.254V225.287H314.19V219.749Z" fill="#C4D9ED"/>
<path d="M321.143 219.749H317.206V225.287H321.143V219.749Z" fill="#C4D9ED"/>
<path d="M186.495 229.372H182.559V234.91H186.495V229.372Z" fill="#C4D9ED"/>
<path d="M193.857 229.372H189.92V234.91H193.857V229.372Z" fill="#C4D9ED"/>
<path d="M201.053 229.372H197.116V234.91H201.053V229.372Z" fill="#C4D9ED"/>
<path d="M207.876 229.372H203.939V234.91H207.876V229.372Z" fill="#C4D9ED"/>
<path d="M214.829 229.372H210.892V234.91H214.829V229.372Z" fill="#C4D9ED"/>
<path d="M221.863 229.372H217.926V234.91H221.863V229.372Z" fill="#C4D9ED"/>
<path d="M229.225 229.372H225.288V234.91H229.225V229.372Z" fill="#C4D9ED"/>
<path d="M236.421 229.372H232.484V234.91H236.421V229.372Z" fill="#C4D9ED"/>
<path d="M243.244 229.372H239.307V234.91H243.244V229.372Z" fill="#C4D9ED"/>
<path d="M250.196 229.372H246.26V234.91H250.196V229.372Z" fill="#C4D9ED"/>
<path d="M257.442 229.372H253.505V234.91H257.442V229.372Z" fill="#C4D9ED"/>
<path d="M264.804 229.372H260.867V234.91H264.804V229.372Z" fill="#C4D9ED"/>
<path d="M272 229.372H268.063V234.91H272V229.372Z" fill="#C4D9ED"/>
<path d="M278.823 229.372H274.886V234.91H278.823V229.372Z" fill="#C4D9ED"/>
<path d="M285.777 229.372H281.841V234.91H285.777V229.372Z" fill="#C4D9ED"/>
<path d="M292.81 229.372H288.873V234.91H292.81V229.372Z" fill="#C4D9ED"/>
<path d="M300.171 229.372H296.234V234.91H300.171V229.372Z" fill="#C4D9ED"/>
<path d="M307.367 229.372H303.43V234.91H307.367V229.372Z" fill="#C4D9ED"/>
<path d="M314.19 229.372H310.254V234.91H314.19V229.372Z" fill="#C4D9ED"/>
<path d="M321.143 229.372H317.206V234.91H321.143V229.372Z" fill="#C4D9ED"/>
<path d="M186.495 239.599H182.559V245.137H186.495V239.599Z" fill="#C4D9ED"/>
<path d="M193.857 239.599H189.92V245.137H193.857V239.599Z" fill="#C4D9ED"/>
<path d="M201.053 239.599H197.116V245.137H201.053V239.599Z" fill="#C4D9ED"/>
<path d="M207.876 239.599H203.939V245.137H207.876V239.599Z" fill="#C4D9ED"/>
<path d="M214.829 239.599H210.892V245.137H214.829V239.599Z" fill="#C4D9ED"/>
<path d="M221.863 239.599H217.926V245.137H221.863V239.599Z" fill="#C4D9ED"/>
<path d="M229.225 239.599H225.288V245.137H229.225V239.599Z" fill="#C4D9ED"/>
<path d="M236.421 239.599H232.484V245.137H236.421V239.599Z" fill="#C4D9ED"/>
<path d="M243.244 239.599H239.307V245.137H243.244V239.599Z" fill="#C4D9ED"/>
<path d="M250.196 239.599H246.26V245.137H250.196V239.599Z" fill="#C4D9ED"/>
<path d="M257.442 239.599H253.505V245.137H257.442V239.599Z" fill="#C4D9ED"/>
<path d="M264.804 239.599H260.867V245.137H264.804V239.599Z" fill="#C4D9ED"/>
<path d="M272 239.599H268.063V245.137H272V239.599Z" fill="#C4D9ED"/>
<path d="M278.823 239.599H274.886V245.137H278.823V239.599Z" fill="#C4D9ED"/>
<path d="M285.777 239.599H281.841V245.137H285.777V239.599Z" fill="#C4D9ED"/>
<path d="M292.81 239.599H288.873V245.137H292.81V239.599Z" fill="#C4D9ED"/>
<path d="M300.171 239.599H296.234V245.137H300.171V239.599Z" fill="#C4D9ED"/>
<path d="M307.367 239.599H303.43V245.137H307.367V239.599Z" fill="#C4D9ED"/>
<path d="M314.19 239.599H310.254V245.137H314.19V239.599Z" fill="#C4D9ED"/>
<path d="M321.143 239.599H317.206V245.137H321.143V239.599Z" fill="#C4D9ED"/>
<path d="M186.495 249.372H182.559V254.91H186.495V249.372Z" fill="#C4D9ED"/>
<path d="M193.857 249.372H189.92V254.91H193.857V249.372Z" fill="#C4D9ED"/>
<path d="M201.053 249.372H197.116V254.91H201.053V249.372Z" fill="#C4D9ED"/>
<path d="M207.876 249.372H203.939V254.91H207.876V249.372Z" fill="#C4D9ED"/>
<path d="M214.829 249.372H210.892V254.91H214.829V249.372Z" fill="#C4D9ED"/>
<path d="M221.863 249.372H217.926V254.91H221.863V249.372Z" fill="#C4D9ED"/>
<path d="M229.225 249.372H225.288V254.91H229.225V249.372Z" fill="#C4D9ED"/>
<path d="M236.421 249.372H232.484V254.91H236.421V249.372Z" fill="#C4D9ED"/>
<path d="M243.244 249.372H239.307V254.91H243.244V249.372Z" fill="#C4D9ED"/>
<path d="M250.196 249.372H246.26V254.91H250.196V249.372Z" fill="#C4D9ED"/>
<path d="M257.442 249.372H253.505V254.91H257.442V249.372Z" fill="#C4D9ED"/>
<path d="M264.804 249.372H260.867V254.91H264.804V249.372Z" fill="#C4D9ED"/>
<path d="M272 249.372H268.063V254.91H272V249.372Z" fill="#C4D9ED"/>
<path d="M278.823 249.372H274.886V254.91H278.823V249.372Z" fill="#C4D9ED"/>
<path d="M285.777 249.372H281.841V254.91H285.777V249.372Z" fill="#C4D9ED"/>
<path d="M292.81 249.372H288.873V254.91H292.81V249.372Z" fill="#C4D9ED"/>
<path d="M300.171 249.372H296.234V254.91H300.171V249.372Z" fill="#C4D9ED"/>
<path d="M314.19 249.372H310.254V254.91H314.19V249.372Z" fill="#C4D9ED"/>
<path d="M307.367 249.372H303.43V254.91H307.367V249.372Z" fill="#C4D9ED"/>
<path d="M321.143 249.372H317.206V254.91H321.143V249.372Z" fill="#C4D9ED"/>
<path d="M186.495 258.997H182.559V264.535H186.495V258.997Z" fill="#C4D9ED"/>
<path d="M193.857 258.997H189.92V264.535H193.857V258.997Z" fill="#C4D9ED"/>
<path d="M201.053 258.997H197.116V264.535H201.053V258.997Z" fill="#C4D9ED"/>
<path d="M207.876 258.997H203.939V264.535H207.876V258.997Z" fill="#C4D9ED"/>
<path d="M214.829 258.997H210.892V264.535H214.829V258.997Z" fill="#C4D9ED"/>
<path d="M221.863 258.997H217.926V264.535H221.863V258.997Z" fill="#C4D9ED"/>
<path d="M229.225 258.997H225.288V264.535H229.225V258.997Z" fill="#C4D9ED"/>
<path d="M236.421 258.997H232.484V264.535H236.421V258.997Z" fill="#C4D9ED"/>
<path d="M243.244 258.997H239.307V264.535H243.244V258.997Z" fill="#C4D9ED"/>
<path d="M250.196 258.997H246.26V264.535H250.196V258.997Z" fill="#C4D9ED"/>
<path d="M257.442 258.997H253.505V264.535H257.442V258.997Z" fill="#C4D9ED"/>
<path d="M264.804 258.997H260.867V264.535H264.804V258.997Z" fill="#C4D9ED"/>
<path d="M272 258.997H268.063V264.535H272V258.997Z" fill="#C4D9ED"/>
<path d="M278.823 258.997H274.886V264.535H278.823V258.997Z" fill="#C4D9ED"/>
<path d="M285.777 258.997H281.841V264.535H285.777V258.997Z" fill="#C4D9ED"/>
<path d="M292.81 258.997H288.873V264.535H292.81V258.997Z" fill="#C4D9ED"/>
<path d="M300.171 258.997H296.234V264.535H300.171V258.997Z" fill="#C4D9ED"/>
<path d="M314.19 258.997H310.254V264.535H314.19V258.997Z" fill="#C4D9ED"/>
<path d="M321.143 258.997H317.206V264.535H321.143V258.997Z" fill="#C4D9ED"/>
<path d="M362.896 248.048H354.139V307.193H362.896V248.048Z" fill="#C4D9ED"/>
<path d="M354.139 284.006H344.738V325.087H354.139V284.006Z" fill="#ADC9E0"/>
<path d="M148.291 231.39V219.87H148.766V231.39H155.26V245.609H141.887V231.39H148.291Z" fill="#C4D9ED"/>
<path d="M109.543 201.64V192.8H113.306V188.953H113.781V192.8H127.499H127.75H130.343V188.953H130.818V192.8H134.147V231.428H127.499V214.784H109.543V205.946H127.499V201.64H109.543Z" fill="#C4D9ED"/>
<path d="M303.927 256.655V306.513H354.139V248.048L303.927 256.655Z" fill="#D5E7F7"/>
<path d="M366.569 283.853H303.927V325.909H366.569V283.853Z" fill="#D5E7F7"/>
<path d="M366.569 258.961H303.927V272.631H366.569V258.961Z" fill="#C4D9ED"/>
<path d="M311.41 295.255H308.193V299.782H311.41V295.255Z" fill="#C4D9ED"/>
<path d="M317.426 295.255H314.208V299.782H317.426V295.255Z" fill="#C4D9ED"/>
<path d="M323.308 295.255H320.091V299.782H323.308V295.255Z" fill="#C4D9ED"/>
<path d="M328.883 295.255H325.666V299.782H328.883V295.255Z" fill="#C4D9ED"/>
<path d="M334.566 295.255H331.349V299.782H334.566V295.255Z" fill="#C4D9ED"/>
<path d="M340.315 295.255H337.098V299.782H340.315V295.255Z" fill="#C4D9ED"/>
<path d="M346.331 295.255H343.114V299.782H346.331V295.255Z" fill="#C4D9ED"/>
<path d="M352.213 295.255H348.996V299.782H352.213V295.255Z" fill="#C4D9ED"/>
<path d="M357.791 295.255H354.573V299.782H357.791V295.255Z" fill="#C4D9ED"/>
<path d="M363.474 295.255H360.256V299.782H363.474V295.255Z" fill="#C4D9ED"/>
<path d="M311.41 303.245H308.193V307.772H311.41V303.245Z" fill="#C4D9ED"/>
<path d="M317.426 303.245H314.208V307.772H317.426V303.245Z" fill="#C4D9ED"/>
<path d="M323.308 303.245H320.091V307.772H323.308V303.245Z" fill="#C4D9ED"/>
<path d="M328.883 303.245H325.666V307.772H328.883V303.245Z" fill="#C4D9ED"/>
<path d="M334.566 303.245H331.349V307.772H334.566V303.245Z" fill="#C4D9ED"/>
<path d="M340.315 303.245H337.098V307.772H340.315V303.245Z" fill="#C4D9ED"/>
<path d="M346.331 303.245H343.114V307.772H346.331V303.245Z" fill="#C4D9ED"/>
<path d="M352.213 303.245H348.996V307.772H352.213V303.245Z" fill="#C4D9ED"/>
<path d="M357.791 303.245H354.573V307.772H357.791V303.245Z" fill="#C4D9ED"/>
<path d="M363.474 303.245H360.256V307.772H363.474V303.245Z" fill="#C4D9ED"/>
<path d="M311.41 279.158H308.193V283.685H311.41V279.158Z" fill="#C4D9ED"/>
<path d="M317.426 279.158H314.208V283.685H317.426V279.158Z" fill="#C4D9ED"/>
<path d="M323.308 279.158H320.091V283.685H323.308V279.158Z" fill="#C4D9ED"/>
<path d="M328.883 279.158H325.666V283.685H328.883V279.158Z" fill="#C4D9ED"/>
<path d="M334.566 279.158H331.349V283.685H334.566V279.158Z" fill="#C4D9ED"/>
<path d="M340.315 279.158H337.098V283.685H340.315V279.158Z" fill="#C4D9ED"/>
<path d="M346.331 279.158H343.114V283.685H346.331V279.158Z" fill="#C4D9ED"/>
<path d="M352.213 279.158H348.996V283.685H352.213V279.158Z" fill="#C4D9ED"/>
<path d="M311.41 287.148H308.193V291.675H311.41V287.148Z" fill="#C4D9ED"/>
<path d="M317.426 287.148H314.208V291.675H317.426V287.148Z" fill="#C4D9ED"/>
<path d="M323.308 287.148H320.091V291.675H323.308V287.148Z" fill="#C4D9ED"/>
<path d="M328.883 287.148H325.666V291.675H328.883V287.148Z" fill="#C4D9ED"/>
<path d="M334.566 287.148H331.349V291.675H334.566V287.148Z" fill="#C4D9ED"/>
<path d="M340.315 287.148H337.098V291.675H340.315V287.148Z" fill="#C4D9ED"/>
<path d="M346.331 287.148H343.114V291.675H346.331V287.148Z" fill="#C4D9ED"/>
<path d="M352.213 287.148H348.996V291.675H352.213V287.148Z" fill="#C4D9ED"/>
<path d="M357.791 287.148H354.573V291.675H357.791V287.148Z" fill="#C4D9ED"/>
<path d="M363.474 287.148H360.256V291.675H363.474V287.148Z" fill="#C4D9ED"/>
<path d="M311.41 311.109H308.193V315.637H311.41V311.109Z" fill="#C4D9ED"/>
<path d="M317.426 311.109H314.208V315.637H317.426V311.109Z" fill="#C4D9ED"/>
<path d="M323.308 311.109H320.091V315.637H323.308V311.109Z" fill="#C4D9ED"/>
<path d="M328.883 311.109H325.666V315.637H328.883V311.109Z" fill="#C4D9ED"/>
<path d="M334.566 311.109H331.349V315.637H334.566V311.109Z" fill="#C4D9ED"/>
<path d="M340.315 311.109H337.098V315.637H340.315V311.109Z" fill="#C4D9ED"/>
<path d="M346.331 311.109H343.114V315.637H346.331V311.109Z" fill="#C4D9ED"/>
<path d="M352.213 311.109H348.996V315.637H352.213V311.109Z" fill="#C4D9ED"/>
<path d="M357.791 311.109H354.573V315.637H357.791V311.109Z" fill="#C4D9ED"/>
<path d="M363.474 311.109H360.256V315.637H363.474V311.109Z" fill="#C4D9ED"/>
<path d="M311.41 318.114H308.193V322.642H311.41V318.114Z" fill="#C4D9ED"/>
<path d="M317.426 318.114H314.208V322.642H317.426V318.114Z" fill="#C4D9ED"/>
<path d="M323.308 318.114H320.091V322.642H323.308V318.114Z" fill="#C4D9ED"/>
<path d="M328.883 318.114H325.666V322.642H328.883V318.114Z" fill="#C4D9ED"/>
<path d="M334.566 318.114H331.349V322.642H334.566V318.114Z" fill="#C4D9ED"/>
<path d="M340.315 318.114H337.098V322.642H340.315V318.114Z" fill="#C4D9ED"/>
<path d="M346.331 318.114H343.114V322.642H346.331V318.114Z" fill="#C4D9ED"/>
<path d="M352.213 318.114H348.996V322.642H352.213V318.114Z" fill="#C4D9ED"/>
<path d="M357.791 318.114H354.573V322.642H357.791V318.114Z" fill="#C4D9ED"/>
<path d="M363.474 318.114H360.256V322.642H363.474V318.114Z" fill="#C4D9ED"/>
<path d="M350.772 238.66H349.843V250.514H350.772V238.66Z" fill="#D5E7F7"/>
<path d="M311.408 262.802H308.705V267.471H311.408V262.802Z" fill="#D5E7F7"/>
<path d="M338.248 262.802H335.545V267.471H338.248V262.802Z" fill="#D5E7F7"/>
<path d="M359.599 262.802H356.896V267.471H359.599V262.802Z" fill="#D5E7F7"/>
<path d="M139.036 325.907H229.185V273.264H139.036V325.907Z" fill="#C4D9ED"/>
<path d="M170.092 275.67H151.281V259.296L170.092 266.486V275.67Z" fill="#C4D9ED"/>
<path d="M262.806 325.909H305.856V279.158L262.806 294.037V325.909Z" fill="#C4D9ED"/>
<path d="M263.942 297.03H304.718V295.586H263.942V297.03Z" fill="#D5E7F7"/>
<path d="M263.942 301.671H304.718V300.226H263.942V301.671Z" fill="#D5E7F7"/>
<path d="M263.942 306.316H304.718V304.871H263.942V306.316Z" fill="#D5E7F7"/>
<path d="M263.942 310.96H304.718V309.515H263.942V310.96Z" fill="#D5E7F7"/>
<path d="M263.942 315.603H304.718V314.158H263.942V315.603Z" fill="#D5E7F7"/>
<path d="M263.942 320.246H304.718V318.801H263.942V320.246Z" fill="#D5E7F7"/>
<path d="M147.661 273.264H151.279V259.294H147.661V273.264Z" fill="#C4D9ED"/>
<path d="M299.51 191.288H302.005V170.16H299.51V191.288Z" fill="#C4D9ED"/>
<path d="M294.55 191.288H297.044V170.16H294.55V191.288Z" fill="#C4D9ED"/>
<path d="M289.656 191.288H292.15V170.16H289.656V191.288Z" fill="#C4D9ED"/>
<path d="M284.589 191.288H287.085V170.16H284.589V191.288Z" fill="#C4D9ED"/>
<path opacity="0.74" d="M434.018 327.979C437.731 321.05 441.204 311.718 443.496 304.204C453.381 271.811 454.21 236.546 438.82 206.167C427.844 184.49 406.119 163.034 384.864 153.197C346.59 135.524 315.141 154.934 296.83 153.627C276.7 152.188 268.073 113.871 223.719 92.0603C191.184 76.0646 140.882 72.3533 105.811 81.8774C69.4729 91.7538 34.9822 116.641 48.7063 164.926C52.0192 176.586 57.1979 188.092 62.9427 198.71C95.8008 259.447 18.8023 241.796 10.1014 301.392C9.00311 308.919 9.13068 317.675 10.8868 327.981H434.02L434.018 327.979Z" fill="#E5F2F3"/>
<path d="M341.222 146.224V239.696L389.303 155.402C387.812 154.608 386.333 153.876 384.864 153.195C369.021 145.88 354.312 144.923 341.222 146.224Z" fill="#EEFFFF"/>
<path d="M310.74 152.089L216.037 319.056H261.289L327.614 199.974L326.645 148.534L310.74 152.089Z" fill="#E7F7F7"/>
<path d="M113.896 176.675V235.599L204.224 84.4226C201.573 83.6505 198.842 82.7232 195.99 82.0685C189.005 80.4665 181.704 79.1491 174.087 78.2755L113.894 176.675H113.896Z" fill="#EEFFFF"/>
<path d="M332.392 147.344V320.859H112.278V80.2039C110.089 80.6775 107.932 81.2048 105.811 81.7839V327.316H324.454L337.102 322.644L338.862 320.861V146.391C336.655 146.66 334.498 146.984 332.396 147.346L332.392 147.344Z" fill="#C5DADD"/>
<path d="M369.511 295.544C369.491 295.542 369.462 295.54 369.424 295.536C369.454 295.538 369.482 295.542 369.511 295.544Z" fill="#CFE1E5"/>
<path d="M369.34 295.53C369.262 295.522 369.188 295.516 369.111 295.51C369.2 295.518 369.274 295.526 369.34 295.53Z" fill="#CFE1E5"/>
<path d="M215.084 212.76H165.251L152.095 181.815H201.928L215.084 212.76Z" fill="#D86713"/>
<path d="M215.947 212.76H166.114L152.958 181.815H202.791L215.947 212.76Z" fill="#F1A34F"/>
<path d="M214.117 211.566H167.81L155.585 182.81H201.892L214.117 211.566Z" fill="#D0E0F7"/>
<path d="M231.928 213.755H165.649L165.251 212.76H231.928V213.755Z" fill="#D86713"/>
<path d="M81.5525 213.771H362.981C365.561 213.771 367.654 215.86 367.654 218.435V322.91C367.654 325.485 365.559 327.577 362.979 327.577H81.5525C78.9731 327.577 76.8781 325.485 76.8781 322.91V218.435C76.8781 215.86 78.9711 213.771 81.5505 213.771H81.5525Z" fill="#9FC1F4"/>
<path d="M95.8467 225.219H345.872C348.193 225.219 350.076 227.1 350.076 229.416V323.382C350.076 325.698 348.193 327.577 345.874 327.577H95.8467C93.5264 327.577 91.6427 325.696 91.6427 323.38V229.414C91.6427 227.098 93.5264 225.219 95.8447 225.219H95.8467Z" fill="#719DD3"/>
<path d="M254.689 151.297C254.867 150.769 254.975 150.19 254.994 149.551C255.222 142.081 256.922 137.122 249.266 136.455C241.609 135.79 240.032 138.594 239.349 141.07C238.665 143.545 239.642 156.138 242.759 156.475C242.759 156.475 243.762 156.52 245.189 156.405C245.255 157.225 245.373 158.646 245.5 160.212C245.749 163.203 246.042 166.709 246.128 167.513L254.598 167.097L259.073 161.533C259.073 161.533 255.953 157.762 254.687 151.295L254.689 151.297Z" fill="#E49963"/>
<path d="M271.166 247.615C269.502 250.432 267.578 253.073 265.593 255.575C259.461 263.302 252.788 269.672 251.626 275.693C251.394 276.893 251.028 278.187 250.547 279.548C250.063 280.927 249.463 282.378 248.769 283.878C246.168 289.52 242.277 295.842 238.392 301.587C231.676 311.521 225.362 319.81 225.362 319.81L213.782 319.318C214.247 318.16 219.296 304.443 226.053 287.681C228.798 280.877 231.714 273.638 234.529 266.659C234.904 265.725 235.278 264.798 235.649 263.879C236.51 261.742 237.357 259.64 238.183 257.592C244.527 241.853 249.581 229.32 249.581 229.32C249.581 229.32 274.938 219.731 277.571 225.945C279.742 231.068 277.974 236.088 271.164 247.617L271.166 247.615Z" fill="#163560"/>
<path d="M225.001 318.047C225.001 318.047 224.409 327.587 222.559 327.724C222.314 327.742 213.182 327.742 213.182 327.742L201.527 327.674C201.527 327.674 201.603 324.87 205.012 324.277C208.418 323.684 214.121 321.294 216.186 316.799C218.357 312.069 225.003 318.047 225.003 318.047H225.001Z" fill="#163560"/>
<path d="M251.817 290.455C251.817 290.455 259.872 295.623 259.091 297.301C258.987 297.524 254.536 305.484 254.536 305.484L248.795 315.611C248.795 315.611 246.381 314.178 247.523 310.919C248.666 307.659 249.355 301.524 246.429 297.534C243.351 293.335 251.819 290.457 251.819 290.457L251.817 290.455Z" fill="#163560"/>
<path d="M244.214 159.469C244.4 159.402 255.664 156.711 256.848 157.171C258.032 157.631 258.624 159.995 258.624 159.995L240.268 163.147C240.268 163.147 241.846 160.323 244.214 159.469Z" fill="#C65447"/>
<path d="M240.493 140.413C240.493 140.413 243.459 148.678 245.115 147.852C246.772 147.024 248.289 146.336 248.703 148.954C249.118 151.571 247.462 155.153 252.981 154.19C258.501 153.225 262.607 137.285 260.432 135.042C254.153 128.567 231.87 132.77 240.493 140.415V140.413Z" fill="#163560"/>
<path d="M240.475 225.052C240.475 225.052 209.092 244.56 205.538 257.861C201.986 271.162 247.876 299.538 247.876 299.538C247.876 299.538 252.909 295.104 253.798 291.852C253.798 291.852 233.056 267.041 228.555 261.481C225.792 258.066 269.414 249.656 274.744 241.38C280.073 233.104 278.165 226.141 278.165 226.141L240.473 225.052H240.475Z" fill="#1C468A"/>
<path d="M199.598 209.773C199.598 209.773 195.784 206.193 193.969 206.569C192.153 206.947 188.379 209.379 187.779 210.071C187.179 210.766 186.639 211.896 188.16 212.167C189.681 212.437 189.761 212.477 189.761 212.477C189.761 212.477 192.858 211.452 193.442 211.631C194.026 211.811 196.052 213.823 197.704 212.915C199.356 212.008 199.596 209.773 199.596 209.773H199.598Z" fill="#E49963"/>
<path d="M278.165 226.14C275.135 229.715 249.355 228.783 241.803 225.766C241.234 225.54 240.784 225.301 240.473 225.054C236.032 221.506 246.054 218.391 234.848 191.355C234.842 191.341 234.836 191.329 234.832 191.315C227.787 171.302 237.06 165.493 240.316 162.538C240.316 162.538 256.055 157.762 264.644 160.419C275.797 163.867 281.422 222.296 278.165 226.138V226.14Z" fill="#80BDCC"/>
<path d="M251.058 212.873C250.549 216.555 247.581 225.635 241.803 225.766C241.234 225.54 240.784 225.301 240.473 225.054C236.032 221.506 246.054 218.391 234.848 191.355C234.842 191.341 234.836 191.329 234.832 191.316C236.706 190.03 239.741 188.575 241.713 190.802C244.741 194.217 251.582 209.062 251.058 212.873Z" fill="#5F9AA8"/>
<path d="M240.268 163.147C240.268 163.147 235.585 165.652 232.254 173.787C228.81 182.205 224.237 201.07 222.979 201.892C221.722 202.712 202.819 205.689 197.19 207.874C197.19 207.874 194.979 211.828 197.07 213.464C199.161 215.098 224.476 214.2 226.009 213.802C238.789 210.499 245.504 185.326 247.029 181.457C248.554 177.588 240.268 163.149 240.268 163.149V163.147Z" fill="#80BDCC"/>
<path d="M272.36 318.295V304.966H285.995C286.525 304.966 286.96 304.533 286.96 304.001V300.375C286.96 299.844 286.525 299.41 285.995 299.41H272.36V256.456C272.36 255.047 271.204 253.893 269.793 253.893H267.038C265.627 253.893 264.471 255.045 264.471 256.456V299.41H250.836C250.306 299.41 249.872 299.844 249.872 300.375V304.001C249.872 304.531 250.306 304.966 250.836 304.966H264.471V318.295C254.402 319.056 245.793 323.065 243.531 327.742H292.76C290.498 323.065 282.429 319.056 272.36 318.295Z" fill="#163560"/>
<path d="M300.987 250.184H235.846C234.539 250.184 233.478 251.242 233.478 252.548V265.554C233.478 266.86 234.539 267.918 235.846 267.918H300.987C302.294 267.918 303.355 266.86 303.355 265.554V252.548C303.355 251.242 302.294 250.184 300.987 250.184Z" fill="#EE9849"/>
<path d="M359.736 132.123C359.736 132.123 375.655 149.959 376.42 156.781C377.184 163.603 368.842 174.277 368.842 174.277L359.738 132.125L359.736 132.123Z" fill="#AA413E"/>
<path d="M352.913 319.786C352.913 319.786 352.574 325.796 351.593 328.383H331.688C332.025 327.523 332.806 326.417 334.62 326.068C337.738 325.469 342.956 323.059 344.844 318.526C346.831 313.758 352.911 319.786 352.911 319.786H352.913Z" fill="#163560"/>
<path d="M376.665 319.786C376.665 319.786 376.327 325.796 375.348 328.383H355.442C355.775 327.523 356.559 326.417 358.375 326.068C361.49 325.469 366.711 323.059 368.596 318.526C370.584 313.758 376.661 319.786 376.661 319.786H376.665Z" fill="#163560"/>
<path d="M341.102 216.411C341.102 216.411 343.891 236.037 354.296 270.874C364.702 305.711 366.119 320.797 366.119 320.797L377.281 320.453C377.281 320.453 377.377 282.38 372.581 264.86C367.787 247.342 371.547 201.703 371.547 201.703L341.102 216.409V216.411Z" fill="#163560"/>
<path d="M335.671 202.782C335.671 202.782 335.276 232.355 339.926 268.667C344.577 304.978 343 320.391 343 320.391L354.139 320.799C354.139 320.799 360.797 284.473 358.887 266.299C356.979 248.124 368.002 203.934 368.002 203.934L335.669 202.782H335.671Z" fill="#1C468A"/>
<path d="M357.234 133.574L351.3 137.854L342.723 136.095C342.841 135.333 343.409 132.177 343.923 129.317C343.955 129.148 343.985 128.979 344.015 128.816C344.457 126.382 344.838 124.292 344.838 124.292L352.849 120.404L355.835 118.953C355.827 119.005 355.604 121.654 355.572 122.04C355.012 128.907 357.234 133.574 357.234 133.574Z" fill="#FFB27D"/>
<path d="M372.286 206.432C370.564 215.076 341.894 216.103 334.505 208.254C333.663 207.359 333.623 203.198 333.94 197.586C334.56 186.623 336.552 170.132 336.629 161.706C336.667 157.637 337.176 153.476 337.853 149.697C339.292 141.643 341.489 135.323 341.489 135.323C341.489 135.323 355.492 130.342 358.112 131.19C370.735 135.269 374.008 197.785 372.286 206.432Z" fill="#C65447"/>
<path d="M333.938 197.588C334.558 186.625 336.023 170.092 336.101 161.666C336.139 157.597 337.174 153.478 337.851 149.699L346.275 148.063C346.275 148.063 354.512 185.071 333.94 197.588H333.938Z" fill="#AA413E"/>
<path d="M338.501 182.307C338.501 182.307 339.075 183.817 337.869 184.83C336.663 185.843 335.882 187.487 336.157 188.687C336.432 189.887 339.077 191.845 339.994 191.528C340.911 191.212 342.777 189.632 342.575 188.999C342.374 188.366 343.831 183.443 341.595 181.549C339.36 179.654 338.497 182.307 338.497 182.307H338.501Z" fill="#FFB27D"/>
<path d="M347.92 133.106C347.92 133.106 339.705 134.797 333.159 145.41C326.613 156.023 322.307 163.913 323.513 167.738C324.719 171.563 335.71 184.828 337.604 184.828C339.498 184.828 342.558 183.312 342.729 179.901C342.729 179.901 334.991 167.141 336.516 165.231C337.168 164.415 346.562 156.023 347.904 159.814C350.122 166.084 347.92 133.108 347.92 133.108V133.106Z" fill="#C65447"/>
<path d="M354.972 122.163C353.212 125.441 346.658 128.276 343.923 129.319C343.955 129.15 343.985 128.981 344.015 128.818C344.457 126.384 344.838 124.294 344.838 124.294L352.849 120.406C354.619 120.38 355.698 120.816 354.972 122.165V122.163Z" fill="#FCA56B"/>
<path d="M343.319 126.461C343.319 126.461 356.961 126.728 356.503 117.542C356.044 108.356 357.496 102.205 348.765 101.646C340.034 101.087 338.519 104.587 337.983 107.652C337.447 110.717 339.759 126.155 343.319 126.461Z" fill="#FFB27D"/>
<path d="M338.202 106.683C338.202 106.683 342.159 116.271 343.871 115.25C345.583 114.229 347.158 113.371 347.844 116.426C348.53 119.479 347.07 123.729 352.939 122.422C358.809 121.114 361.785 102.305 359.232 99.7457C351.862 92.3628 328.192 98.0044 338.2 106.685L338.202 106.683Z" fill="#163560"/>
<path d="M344.92 131.415C345.085 131.337 355.249 128.037 356.353 128.439C357.458 128.841 358.112 131.19 358.112 131.19L341.489 135.325C341.489 135.325 342.797 132.398 344.922 131.415H344.92Z" fill="#AA413E"/>
<path d="M132.654 185.403C132.654 185.403 127.77 189.029 126.817 188.808C125.864 188.589 130.387 184.894 130.387 184.894C128.685 184.078 123.397 184.589 123.397 184.589C123.397 184.589 122.187 189.073 121.317 188.627C120.448 188.179 122.581 184.872 122.581 184.872C120.686 184.759 118.361 186.163 118.361 186.163C115.18 188.673 118.571 192.621 118.571 192.621C118.571 192.621 117.917 194.573 115.908 196.35C115.908 196.35 113.037 198.47 112.838 202.255L113.358 202.3C113.358 202.3 114.183 198.774 115.684 197.107C115.742 197.047 115.828 196.959 115.932 196.854C116.177 196.627 116.348 196.458 116.462 196.332C117.209 195.616 118.24 194.703 118.738 194.615C118.738 194.615 118.714 194.523 118.716 194.366C118.722 194.446 118.73 194.527 118.738 194.615C118.908 196.611 122.787 198.354 125.175 198.712C127.561 199.071 126.823 198.092 126.002 196.639C125.181 195.186 122.577 194.537 121.983 193.869C121.389 193.2 122.617 193.198 124.054 193.855C125.492 194.51 125.689 196.259 127.995 197.361C130.301 198.464 133.772 194.643 133.772 194.643C131.934 194.549 129.309 192.557 129.404 191.946C129.5 191.337 133.86 192.999 134.605 193.079C135.351 193.158 137.047 192.233 137.31 189.234C137.573 186.237 132.65 185.399 132.65 185.399L132.654 185.403Z" fill="#82B378"/>
<path d="M106.716 187.654C106.716 187.654 112.11 184.639 109.593 180.546C109.593 180.546 107.579 178.032 105.421 177.385C105.421 177.385 106.571 183.489 105.421 183.632C104.271 183.775 104.629 176.739 104.629 176.739C104.629 176.739 98.9483 174.01 96.7178 174.225C96.7178 174.225 100.242 180.185 99.0918 180.042C97.9417 179.899 93.9849 173.867 93.9849 173.867C93.9849 173.867 88.1584 172.791 87.2235 176.237C86.2886 179.684 87.7996 181.407 88.6627 181.622C89.5258 181.837 95.0633 181.765 94.9198 182.484C94.7763 183.202 91.0368 184.35 88.9498 183.704C88.9498 183.704 91.2521 189.375 94.272 189.089C97.2919 188.802 98.2267 186.936 100.098 186.79C101.968 186.647 103.336 187.148 102.401 187.652C101.466 188.155 98.3005 187.817 96.7915 189.099C95.2806 190.38 94.0587 191.17 96.8633 191.745C99.6679 192.32 104.703 191.96 105.71 189.807L106.716 187.654Z" fill="#A8D29F"/>
<path d="M108.156 192.896C106.645 190.096 106.716 187.654 106.716 187.654C104.99 182.197 89.8866 177.314 89.8866 177.314C109.088 185.069 105.71 189.807 105.71 189.807C106.228 190.108 107.003 191.546 107.542 192.649C107.617 192.836 107.739 193.097 107.92 193.449C107.994 193.608 108.052 193.739 108.092 193.829C109.08 196.299 108.556 200.563 108.556 200.563L109.156 200.724C110.484 196.426 108.156 192.896 108.156 192.896Z" fill="#82B378"/>
<path d="M115.298 183.495C115.298 183.495 108.187 179.519 111.506 174.124C111.506 174.124 114.161 170.81 117.006 169.959C117.006 169.959 115.489 178.004 117.006 178.193C118.523 178.382 118.048 169.107 118.048 169.107C118.048 169.107 125.537 165.511 128.478 165.794C128.478 165.794 123.831 173.65 125.348 173.459C126.865 173.27 132.079 165.32 132.079 165.32C132.079 165.32 141.456 162.542 142.688 167.085C143.92 171.628 140.232 175.258 139.096 175.543C137.958 175.827 130.658 175.732 130.848 176.679C131.037 177.626 135.959 178.283 138.709 177.431C138.709 177.431 135.683 185.765 131.701 185.387C127.718 185.009 126.486 182.547 124.022 182.358C121.557 182.169 119.757 182.832 120.989 183.495C122.22 184.157 126.392 183.712 128.384 185.401C130.375 187.091 131.986 188.131 128.288 188.89C124.591 189.646 117.955 189.174 116.627 186.334L115.3 183.495H115.298Z" fill="#A8D29F"/>
<path d="M137.483 169.865C137.483 169.865 117.574 176.301 115.3 183.495C115.3 183.495 115.395 186.713 113.404 190.404C113.404 190.404 109.987 195.293 111.738 200.959L112.874 200.511C112.874 200.511 112.184 194.89 113.486 191.634C113.54 191.514 113.615 191.341 113.713 191.132C113.95 190.667 114.112 190.324 114.211 190.078C114.921 188.625 115.943 186.731 116.625 186.333C116.625 186.333 112.17 180.086 137.481 169.863L137.483 169.865Z" fill="#82B378"/>
<path d="M115.058 213.013C122.751 213.013 128.986 206.788 128.986 199.108H101.129C101.129 206.788 107.364 213.013 115.056 213.013H115.058Z" fill="#F1A34F"/>
<path d="M118.487 212.905C117.921 212.977 117.343 213.013 116.757 213.013C109.064 213.013 102.829 206.786 102.829 199.108H106.29C106.29 206.203 111.612 212.055 118.487 212.907V212.905Z" fill="#FFB973"/>
<path d="M127.461 212.055H102.656C101.707 212.055 100.938 212.823 100.938 213.771H129.179C129.179 212.823 128.41 212.055 127.461 212.055Z" fill="#F1A34F"/>
<path d="M129.089 199.106H100.886C100.768 199.106 100.673 199.202 100.673 199.319C100.673 199.437 100.768 199.532 100.886 199.532H129.089C129.207 199.532 129.303 199.437 129.303 199.319C129.303 199.202 129.207 199.106 129.089 199.106Z" fill="#D86713"/>
<path d="M452.018 328.645H0.00919923C-0.231994 328.645 -0.429337 328.399 -0.429337 328.098C-0.429337 327.798 -0.231994 327.551 0.00919923 327.551H452.018C452.259 327.551 452.456 327.798 452.456 328.098C452.456 328.399 452.259 328.645 452.018 328.645Z" fill="#2E3552"/>
</g>
<defs>
<clipPath id="clip0_3_962">
<rect width="463" height="432" fill="white"/>
</clipPath>
</defs>
</svg>
