<svg width="627" height="451" viewBox="0 0 627 451" fill="none" xmlns="http://www.w3.org/2000/svg">
<path fill-rule="evenodd" clip-rule="evenodd" d="M283.085 9.55092C295.82 -3.18364 316.433 -3.18364 329.145 9.55092L426.881 107.287C439.615 119.999 439.615 140.612 426.881 153.324L334.807 245.398C322.072 258.132 301.46 258.132 288.748 245.398L191.034 147.684C178.3 134.972 178.3 114.359 191.034 101.647L283.085 9.55092Z" fill="#00AAE1"/>
<path fill-rule="evenodd" clip-rule="evenodd" d="M304.874 43.3686C306.699 41.5438 309.653 41.5438 311.474 43.3686L325.479 57.3735C327.304 59.1951 327.304 62.1487 325.479 63.9703L312.286 77.1638C310.461 78.9886 307.507 78.9886 305.686 77.1638L291.684 63.1621C289.859 61.3405 289.859 58.3869 291.684 56.5653L304.874 43.3686Z" fill="white"/>
<path fill-rule="evenodd" clip-rule="evenodd" d="M330.883 69.9833C332.705 68.1586 335.658 68.1586 337.477 69.9833L351.485 83.9882C353.306 85.8098 353.306 88.7634 351.485 90.5818L338.288 103.779C336.467 105.603 333.51 105.603 331.691 103.779L317.686 89.7768C315.865 87.9553 315.865 85.0016 317.686 83.1769L330.883 69.9833Z" fill="white"/>
<path fill-rule="evenodd" clip-rule="evenodd" d="M278.872 70.4836C280.697 68.6589 283.651 68.6589 285.472 70.4836L299.474 84.4885C301.295 86.3101 301.295 89.2637 299.474 91.0885L286.28 104.279C284.459 106.104 281.505 106.104 279.684 104.279L265.679 90.2772C263.857 88.4556 263.857 85.5019 265.679 83.6772L278.872 70.4836Z" fill="white"/>
<path d="M249.741 128.698L250.934 126.632C251.335 126.908 251.896 127.158 252.614 127.389C253.333 127.62 254.17 127.735 255.129 127.735C256.607 127.735 257.656 127.514 258.271 127.068C258.894 126.616 259.208 125.991 259.208 125.195C259.208 124.795 259.121 124.298 258.951 123.707C258.778 123.117 258.413 122.319 257.848 121.309C257.29 120.302 256.437 118.98 255.283 117.345L257.348 115.985C258.929 118.185 260.035 120.051 260.67 121.591C261.312 123.13 261.632 124.381 261.632 125.337C261.632 126.158 261.43 126.94 261.029 127.684C260.635 128.422 259.968 129.028 259.028 129.506C258.085 129.987 256.787 130.224 255.129 130.224C254.032 130.224 253.015 130.089 252.076 129.826C251.133 129.554 250.357 129.179 249.741 128.698ZM255.167 113.266C254.737 113.266 254.378 113.121 254.09 112.829C253.807 112.541 253.666 112.194 253.666 111.79C253.666 111.399 253.807 111.053 254.09 110.751C254.378 110.453 254.737 110.302 255.167 110.302C255.558 110.302 255.902 110.453 256.193 110.751C256.482 111.053 256.63 111.399 256.63 111.79C256.63 112.194 256.482 112.541 256.193 112.829C255.902 113.121 255.558 113.266 255.167 113.266Z" fill="white"/>
<path d="M265.734 130.044L265.132 108.647H267.556L268.159 130.044H265.734Z" fill="white"/>
<path d="M271.837 136.933L271.299 134.483C272.536 134.319 273.672 134.085 274.698 133.777C275.731 133.47 276.616 133.033 277.353 132.469C278.097 131.911 278.649 131.154 279.008 130.198H277.084C276.186 130.198 275.352 130.073 274.582 129.826C273.813 129.57 273.191 129.166 272.722 128.608C272.261 128.043 272.03 127.312 272.03 126.414C272.03 125.321 272.248 124.281 272.684 123.297C273.12 122.306 273.717 121.501 274.48 120.885C275.24 120.263 276.099 119.949 277.058 119.949C278.434 119.949 279.576 120.552 280.483 121.758C281.397 122.963 281.856 124.817 281.856 127.312C281.856 127.46 281.856 127.601 281.856 127.735H284.55C284.967 127.735 285.271 127.851 285.461 128.082C285.647 128.313 285.743 128.588 285.743 128.903C285.743 129.23 285.602 129.528 285.319 129.801C285.044 130.064 284.691 130.198 284.255 130.198H281.497C280.477 134.072 277.257 136.317 271.837 136.933ZM278.226 127.735H279.483C279.508 127.54 279.521 127.338 279.521 127.133C279.521 125.782 279.268 124.657 278.764 123.759C278.267 122.854 277.616 122.399 276.815 122.399C276.394 122.399 276 122.563 275.634 122.886C275.266 123.204 274.971 123.63 274.749 124.169C274.525 124.708 274.416 125.298 274.416 125.94C274.416 126.642 274.73 127.116 275.365 127.363C275.997 127.614 276.949 127.735 278.226 127.735Z" fill="white"/>
<path d="M284.243 130.198L284.538 127.735H292.632C293.049 127.735 293.354 127.851 293.543 128.082C293.739 128.313 293.838 128.589 293.838 128.903C293.838 129.23 293.697 129.528 293.415 129.801C293.133 130.064 292.773 130.198 292.337 130.198H284.243Z" fill="white"/>
<path d="M292.33 130.198L292.6 127.735C294.659 127.735 296.656 127.434 298.59 126.825C300.531 126.219 302.301 125.356 303.901 124.233C303.122 123.55 302.169 122.999 301.04 122.579C299.912 122.162 298.667 121.95 297.308 121.95C296.801 121.95 296.361 121.976 295.986 122.027C295.608 122.078 295.152 122.165 294.614 122.284L294.126 120C295.245 119.667 296.307 119.5 297.308 119.5C298.34 119.5 299.277 119.625 300.117 119.872C300.954 120.122 301.72 120.424 302.413 120.783C303.106 121.142 303.754 121.501 304.363 121.86C304.969 122.219 305.562 122.527 306.146 122.784C306.726 123.034 307.326 123.156 307.942 123.156H308.57L308.776 125.311C308.16 125.311 307.56 125.382 306.98 125.516C307.365 126.414 307.903 127.011 308.596 127.299C309.295 127.591 310.334 127.735 311.713 127.735C312.13 127.735 312.435 127.851 312.624 128.082C312.82 128.313 312.919 128.589 312.919 128.903C312.919 129.23 312.778 129.528 312.496 129.801C312.214 130.064 311.854 130.198 311.418 130.198C310.341 130.198 309.372 130.102 308.519 129.916C307.672 129.721 306.948 129.339 306.351 128.775C305.751 128.204 305.312 127.347 305.03 126.209C304.276 126.568 303.503 126.975 302.708 127.428C301.919 127.873 301.047 128.306 300.091 128.723C299.132 129.143 298.026 129.493 296.769 129.775C295.512 130.057 294.03 130.198 292.33 130.198Z" fill="white"/>
<path d="M311.41 130.198L311.705 127.735H319.8C320.217 127.735 320.521 127.851 320.711 128.082C320.906 128.313 321.006 128.589 321.006 128.903C321.006 129.23 320.865 129.528 320.582 129.801C320.3 130.064 319.941 130.198 319.505 130.198H311.41Z" fill="white"/>
<path d="M319.497 130.198L319.792 127.735C320.793 127.735 321.569 127.665 322.127 127.517C322.691 127.363 323.118 127.075 323.41 126.645C323.698 126.219 323.936 125.593 324.115 124.772C324.295 123.951 324.513 122.883 324.77 121.565L327.104 122.014C326.982 122.553 326.848 123.175 326.694 123.874C326.546 124.577 326.476 125.167 326.476 125.645C326.476 125.946 326.495 126.222 326.54 126.478C326.581 126.735 326.732 126.953 326.989 127.133C327.245 127.312 327.681 127.46 328.297 127.569C328.919 127.681 329.814 127.735 330.978 127.735C331.395 127.735 331.7 127.851 331.889 128.082C332.075 128.313 332.171 128.589 332.171 128.903C332.171 129.23 332.03 129.528 331.748 129.801C331.472 130.064 331.113 130.198 330.67 130.198C329.368 130.198 328.355 130.125 327.63 129.98C326.902 129.826 326.363 129.605 326.014 129.313C325.661 129.025 325.411 128.659 325.257 128.223C324.673 129.038 323.955 129.57 323.102 129.826C322.255 130.073 321.053 130.198 319.497 130.198ZM327.502 118.474C327.082 118.474 326.726 118.329 326.437 118.038C326.145 117.749 326.001 117.403 326.001 116.998C326.001 116.607 326.145 116.261 326.437 115.959C326.726 115.661 327.082 115.51 327.502 115.51C327.893 115.51 328.236 115.661 328.528 115.959C328.817 116.261 328.964 116.607 328.964 116.998C328.964 117.403 328.817 117.749 328.528 118.038C328.236 118.329 327.893 118.474 327.502 118.474ZM323.397 118.474C322.967 118.474 322.608 118.329 322.319 118.038C322.037 117.749 321.896 117.403 321.896 116.998C321.896 116.607 322.037 116.261 322.319 115.959C322.608 115.661 322.967 115.51 323.397 115.51C323.788 115.51 324.131 115.661 324.423 115.959C324.712 116.261 324.859 116.607 324.859 116.998C324.859 117.403 324.712 117.749 324.423 118.038C324.131 118.329 323.788 118.474 323.397 118.474Z" fill="white"/>
<path d="M330.67 130.198L330.965 127.735H339.059C339.476 127.735 339.781 127.851 339.97 128.082C340.166 128.313 340.265 128.589 340.265 128.903C340.265 129.23 340.124 129.528 339.842 129.801C339.559 130.064 339.2 130.198 338.764 130.198H330.67Z" fill="white"/>
<path d="M338.757 130.198L339.052 127.735C339.693 127.735 340.213 127.694 340.617 127.607C341.018 127.514 341.351 127.283 341.618 126.914C341.89 126.549 342.147 125.965 342.387 125.17C342.625 124.368 342.904 123.246 343.221 121.809L345.466 122.438C345.344 122.951 345.203 123.56 345.043 124.259C344.889 124.961 344.812 125.59 344.812 126.145C344.812 126.651 344.998 127.043 345.376 127.325C345.761 127.601 346.447 127.735 347.442 127.735C348.048 127.735 348.538 127.691 348.917 127.594C349.292 127.492 349.603 127.254 349.853 126.876C350.11 126.491 350.334 125.885 350.533 125.054C350.729 124.227 350.937 123.072 351.162 121.591L353.445 122.014C353.384 122.373 353.307 122.816 353.214 123.335C353.128 123.849 353.054 124.362 352.996 124.875C352.935 125.388 352.906 125.811 352.906 126.145C352.906 126.427 352.97 126.693 353.099 126.94C353.227 127.19 353.483 127.386 353.868 127.53C354.26 127.668 354.846 127.735 355.626 127.735C356.488 127.735 357.178 127.569 357.691 127.235C358.211 126.895 358.474 126.203 358.474 125.157C358.474 124.423 358.297 123.477 357.948 122.322C357.595 121.161 357.204 120.01 356.767 118.871L359.192 117.973C359.429 118.634 359.67 119.368 359.91 120.18C360.148 120.985 360.35 121.79 360.513 122.591C360.674 123.387 360.757 124.086 360.757 124.682C360.757 126.539 360.295 127.925 359.372 128.839C358.454 129.746 357.197 130.198 355.6 130.198C354.497 130.198 353.628 130.051 352.996 129.762C352.371 129.474 351.918 129.018 351.636 128.403C351.155 129.14 350.584 129.621 349.917 129.852C349.25 130.083 348.304 130.198 347.082 130.198C346.662 130.198 346.216 130.147 345.748 130.044C345.286 129.942 344.853 129.749 344.453 129.467C344.049 129.179 343.737 128.742 343.516 128.159C343.003 129.041 342.362 129.602 341.592 129.839C340.822 130.077 339.876 130.198 338.757 130.198Z" fill="white"/>
<path d="M364.998 130.044L364.395 108.647H366.82L367.423 130.044H364.998Z" fill="white"/>
<path d="M238.044 157.52L245.715 140.023H246.254L254.336 158.662C254.634 159.348 254.919 159.855 255.195 160.188C255.468 160.515 255.753 160.727 256.055 160.83C256.353 160.926 256.76 160.971 257.273 160.971V161.51H248.833V160.971C249.551 160.971 250.09 160.843 250.449 160.586C250.808 160.323 250.988 159.97 250.988 159.534C250.988 159.149 250.853 158.681 250.59 158.123L249.038 154.583H240.738L239.032 158.508C238.827 158.912 238.724 159.271 238.724 159.585C238.724 160.509 239.462 160.971 240.943 160.971V161.51H235.017V160.971C235.511 160.913 235.915 160.766 236.223 160.535C236.537 160.304 236.819 159.97 237.069 159.534C237.316 159.092 237.64 158.418 238.044 157.52ZM248.563 153.454L244.907 145.09L241.251 153.454H248.563Z" fill="white"/>
<path d="M265.243 147.271C266.096 147.271 266.891 147.421 267.629 147.72C268.373 148.021 268.957 148.419 269.386 148.913C269.813 149.4 270.028 149.923 270.028 150.478C270.028 150.837 269.89 151.138 269.617 151.376C269.351 151.616 269.008 151.735 268.591 151.735C267.632 151.735 267.103 151.196 267 150.118C266.965 149.625 266.769 149.176 266.41 148.771C266.051 148.371 265.49 148.169 264.73 148.169C263.55 148.169 262.6 148.64 261.882 149.58C261.164 150.523 260.804 151.77 260.804 153.325C260.804 155.192 261.244 156.686 262.126 157.815C263.004 158.938 264.172 159.496 265.628 159.496C266.705 159.496 267.606 159.197 268.334 158.598C269.069 158.001 269.595 157.174 269.912 156.122L270.387 156.327C269.992 158.004 269.261 159.361 268.193 160.394C267.122 161.42 265.91 161.933 264.55 161.933C263.386 161.933 262.334 161.625 261.394 161.009C260.461 160.387 259.73 159.531 259.201 158.444C258.668 157.35 258.406 156.115 258.406 154.736C258.406 153.3 258.694 152.017 259.278 150.888C259.858 149.759 260.666 148.874 261.702 148.233C262.735 147.591 263.915 147.271 265.243 147.271Z" fill="white"/>
<path d="M278.952 147.271C279.548 147.271 280.11 147.348 280.632 147.502C281.152 147.649 281.691 147.893 282.249 148.233C282.932 147.995 283.506 147.675 283.968 147.271H284.468V164.652C284.468 165.429 284.539 166.006 284.686 166.384C284.84 166.769 285.071 167.019 285.379 167.141C285.693 167.26 286.152 167.321 286.751 167.321V167.859H279.491V167.321H279.799C280.379 167.321 280.818 167.257 281.12 167.128C281.418 167 281.639 166.743 281.787 166.359C281.941 165.98 282.018 165.413 282.018 164.652V159.265H281.954C281.277 160.105 280.533 160.759 279.722 161.227C278.907 161.696 278.105 161.933 277.31 161.933C276.29 161.933 275.373 161.632 274.552 161.035C273.731 160.439 273.083 159.611 272.615 158.559C272.144 157.507 271.909 156.346 271.909 155.07C271.909 153.633 272.217 152.322 272.833 151.132C273.455 149.945 274.308 149.002 275.386 148.31C276.47 147.617 277.66 147.271 278.952 147.271ZM274.462 154.134C274.462 155.853 274.873 157.235 275.694 158.277C276.515 159.313 277.592 159.829 278.926 159.829C279.6 159.829 280.164 159.714 280.62 159.483C281.072 159.252 281.537 158.89 282.018 158.392V151.35C282.018 150.497 281.736 149.759 281.171 149.144C280.613 148.521 279.786 148.207 278.683 148.207C277.39 148.207 276.364 148.771 275.604 149.9C274.841 151.029 274.462 152.44 274.462 154.134Z" fill="white"/>
<path d="M292.856 157.559C292.856 158.277 293.074 158.867 293.511 159.329C293.953 159.784 294.492 160.009 295.127 160.009C295.707 160.009 296.307 159.855 296.923 159.547C297.545 159.239 298.135 158.787 298.693 158.187V149.888C298.693 148.727 298.013 148.143 296.653 148.143H296.358V147.604H301.156V158.277C301.156 158.636 301.259 159.002 301.464 159.367C301.676 159.736 302.016 159.919 302.477 159.919C302.734 159.919 303.061 159.842 303.465 159.688V160.253L299.27 161.869H298.693V158.931H298.642C297.016 160.932 295.454 161.933 293.96 161.933C293.196 161.933 292.549 161.741 292.01 161.356C291.471 160.964 291.064 160.467 290.791 159.868C290.525 159.262 290.393 158.649 290.393 158.033V150.118C290.393 149.342 290.217 148.82 289.867 148.553C289.524 148.281 288.982 148.143 288.238 148.143H287.879V147.604H292.856V157.559Z" fill="white"/>
<path d="M307.954 139.933C308.39 139.933 308.755 140.084 309.057 140.382C309.355 140.683 309.506 141.043 309.506 141.46C309.506 141.905 309.355 142.277 309.057 142.576C308.755 142.877 308.39 143.025 307.954 143.025C307.534 143.025 307.174 142.877 306.876 142.576C306.575 142.277 306.427 141.905 306.427 141.46C306.427 141.043 306.575 140.683 306.876 140.382C307.174 140.084 307.534 139.933 307.954 139.933ZM309.262 158.392C309.262 159.377 309.419 160.047 309.737 160.406C310.061 160.766 310.583 160.955 311.302 160.971V161.51H304.567V160.971C305.388 160.971 305.965 160.785 306.299 160.406C306.639 160.022 306.812 159.329 306.812 158.328V151.081C306.812 150.542 306.69 150.106 306.453 149.772C306.212 149.432 305.84 149.259 305.337 149.259C305.122 149.259 304.926 149.307 304.747 149.4L304.567 148.861L308.723 147.271H309.262V158.392Z" fill="white"/>
<path d="M317.623 147.271C318.203 147.271 318.793 147.373 319.393 147.579C319.81 147.716 320.15 147.784 320.406 147.784C320.586 147.784 320.778 147.726 320.984 147.604H321.522V151.825H320.984C320.82 150.731 320.426 149.843 319.803 149.156C319.188 148.464 318.437 148.117 317.559 148.117C316.866 148.117 316.292 148.29 315.84 148.63C315.394 148.964 315.173 149.423 315.173 150.003C315.173 150.465 315.294 150.862 315.545 151.196C315.792 151.523 316.138 151.825 316.584 152.107C317.036 152.383 317.741 152.771 318.7 153.274C319.938 153.935 320.887 154.583 321.548 155.224C322.205 155.859 322.536 156.712 322.536 157.79C322.536 158.748 322.292 159.541 321.805 160.163C321.317 160.778 320.727 161.227 320.034 161.51C319.348 161.792 318.694 161.933 318.072 161.933C317.472 161.933 316.664 161.792 315.647 161.51C315.185 161.375 314.878 161.304 314.724 161.304C314.457 161.304 314.278 161.375 314.185 161.51H313.543V156.84H314.057C314.201 158.072 314.65 159.072 315.403 159.842C316.164 160.612 317.065 160.997 318.11 160.997C318.726 160.997 319.258 160.801 319.714 160.406C320.175 160.006 320.406 159.505 320.406 158.906C320.406 158.206 320.204 157.658 319.803 157.264C319.409 156.863 318.97 156.516 318.482 156.225C317.995 155.936 317.668 155.747 317.507 155.66C317.421 155.602 317.138 155.442 316.661 155.185C315.942 154.785 315.368 154.429 314.942 154.121C314.512 153.813 314.153 153.412 313.864 152.915C313.572 152.411 313.428 151.792 313.428 151.055C313.428 149.936 313.819 149.025 314.608 148.323C315.403 147.623 316.407 147.271 317.623 147.271Z" fill="white"/>
<path d="M327.603 139.933C328.039 139.933 328.404 140.084 328.706 140.382C329.004 140.683 329.155 141.043 329.155 141.46C329.155 141.905 329.004 142.277 328.706 142.576C328.404 142.877 328.039 143.025 327.603 143.025C327.183 143.025 326.823 142.877 326.525 142.576C326.224 142.277 326.076 141.905 326.076 141.46C326.076 141.043 326.224 140.683 326.525 140.382C326.823 140.084 327.183 139.933 327.603 139.933ZM328.911 158.392C328.911 159.377 329.068 160.047 329.386 160.406C329.71 160.766 330.232 160.955 330.951 160.971V161.51H324.216V160.971C325.037 160.971 325.614 160.785 325.948 160.406C326.288 160.022 326.461 159.329 326.461 158.328V151.081C326.461 150.542 326.339 150.106 326.102 149.772C325.861 149.432 325.489 149.259 324.986 149.259C324.771 149.259 324.575 149.307 324.396 149.4L324.216 148.861L328.372 147.271H328.911V158.392Z" fill="white"/>
<path d="M336.618 143.204H337.093V147.604H340.235V148.541H337.093V158.187C337.093 158.7 337.24 159.162 337.541 159.573C337.84 159.983 338.26 160.188 338.799 160.188C339.158 160.188 339.479 160.108 339.761 159.945C340.043 159.775 340.341 159.476 340.659 159.047H341.262C340.739 160.015 340.178 160.737 339.581 161.215C338.981 161.692 338.286 161.933 337.49 161.933C336.608 161.933 335.912 161.606 335.399 160.958C334.893 160.31 334.642 159.425 334.642 158.303V148.541H332.513V147.938C333.53 147.521 334.386 146.908 335.079 146.103C335.778 145.292 336.291 144.327 336.618 143.204Z" fill="white"/>
<path d="M345.694 139.933C346.13 139.933 346.496 140.084 346.797 140.382C347.095 140.683 347.246 141.043 347.246 141.46C347.246 141.905 347.095 142.277 346.797 142.576C346.496 142.877 346.13 143.025 345.694 143.025C345.274 143.025 344.915 142.877 344.616 142.576C344.315 142.277 344.167 141.905 344.167 141.46C344.167 141.043 344.315 140.683 344.616 140.382C344.915 140.084 345.274 139.933 345.694 139.933ZM347.002 158.392C347.002 159.377 347.16 160.047 347.477 160.406C347.801 160.766 348.324 160.955 349.042 160.971V161.51H342.307V160.971C343.128 160.971 343.706 160.785 344.039 160.406C344.379 160.022 344.552 159.329 344.552 158.328V151.081C344.552 150.542 344.43 150.106 344.193 149.772C343.953 149.432 343.581 149.259 343.077 149.259C342.862 149.259 342.667 149.307 342.487 149.4L342.307 148.861L346.464 147.271H347.002V158.392Z" fill="white"/>
<path d="M358.275 147.271C359.456 147.271 360.559 147.588 361.585 148.22C362.611 148.855 363.426 149.695 364.035 150.747C364.651 151.792 364.959 152.912 364.959 154.108C364.959 155.513 364.628 156.811 363.971 158.008C363.31 159.207 362.425 160.16 361.316 160.868C360.203 161.577 359.019 161.933 357.762 161.933C356.563 161.933 355.447 161.619 354.414 160.997C353.388 160.365 352.573 159.515 351.977 158.444C351.377 157.376 351.079 156.208 351.079 154.942C351.079 153.592 351.406 152.325 352.067 151.145C352.724 149.964 353.609 149.025 354.722 148.323C355.832 147.623 357.018 147.271 358.275 147.271ZM353.773 153.749C353.773 154.929 353.956 156.064 354.324 157.148C354.7 158.235 355.235 159.13 355.928 159.829C356.627 160.532 357.47 160.881 358.455 160.881C359.59 160.881 360.507 160.378 361.2 159.367C361.899 158.36 362.252 157.026 362.252 155.365C362.252 154.05 362.05 152.857 361.649 151.786C361.255 150.718 360.7 149.875 359.981 149.259C359.263 148.637 358.442 148.323 357.518 148.323C356.38 148.323 355.469 148.816 354.786 149.798C354.109 150.773 353.773 152.091 353.773 153.749Z" fill="white"/>
<path d="M371.628 150.208C372.67 149.099 373.52 148.332 374.181 147.912C374.838 147.485 375.566 147.271 376.361 147.271C377.24 147.271 377.952 147.508 378.491 147.976C379.029 148.448 379.418 149.025 379.658 149.708C379.895 150.385 380.017 151.052 380.017 151.709V158.328C380.017 159.355 380.174 160.044 380.492 160.394C380.816 160.737 381.367 160.929 382.147 160.971V161.51H375.13V160.971C375.771 160.971 376.262 160.904 376.605 160.766C376.945 160.621 377.189 160.365 377.336 159.996C377.49 159.63 377.567 159.072 377.567 158.328V151.594C377.567 150.952 377.355 150.369 376.939 149.836C376.518 149.307 375.938 149.041 375.194 149.041C374.578 149.041 373.988 149.208 373.424 149.541C372.866 149.868 372.269 150.372 371.628 151.055V158.328C371.628 159.374 371.798 160.07 372.141 160.419C372.481 160.772 373.071 160.955 373.911 160.971V161.51H367.01V160.971C367.632 160.913 368.094 160.804 368.395 160.65C368.693 160.49 368.899 160.236 369.011 159.893C369.12 159.553 369.178 159.06 369.178 158.418V150.965C369.178 150.503 369.075 150.106 368.87 149.772C368.671 149.432 368.35 149.259 367.908 149.259C367.709 149.259 367.526 149.294 367.356 149.362C367.183 149.432 367.067 149.474 367.01 149.49L366.804 148.925L371.115 147.271H371.628V150.208Z" fill="white"/>
<path fill-rule="evenodd" clip-rule="evenodd" d="M473.559 205.287C486.293 192.553 506.906 192.553 519.618 205.287L617.354 303.023C630.088 315.735 630.088 336.348 617.354 349.06L525.28 441.134C512.546 453.868 491.933 453.868 479.221 441.134L381.507 343.42C368.773 330.708 368.773 310.095 381.507 297.383L473.559 205.287Z" fill="#0ABEF8"/>
<path d="M484.175 297.642C495.825 297.642 505.269 288.198 505.269 276.549C505.269 264.899 495.825 255.455 484.175 255.455C472.525 255.455 463.081 264.899 463.081 276.549C463.081 288.198 472.525 297.642 484.175 297.642Z" fill="white"/>
<path d="M517.683 319.472C512.113 309.268 501.284 302.33 488.863 302.33H479.488C461.394 302.33 446.675 317.049 446.675 335.142V347.943C446.675 364.529 464.672 363.267 465.966 363.267H505.694C504.144 359.2 503.145 354.603 502.93 349.398C502.927 337.163 508.733 326.351 517.683 319.472Z" fill="white"/>
<path d="M540.425 316.392C522.332 316.392 507.613 331.112 507.613 349.205C509.415 392.735 571.442 392.723 573.238 349.205C573.238 331.112 558.518 316.392 540.425 316.392ZM556.831 352.418V363.267C556.831 364.562 555.783 365.611 554.488 365.611H526.363C525.067 365.611 524.019 364.562 524.019 363.267V352.418C522.228 350.879 520.981 348.437 521.258 345.901L523.669 334.652C523.9 333.571 524.854 332.799 525.96 332.799H554.89C555.996 332.799 556.95 333.571 557.181 334.652L559.592 345.901C559.87 348.436 558.621 350.88 556.831 352.418Z" fill="white"/>
<path d="M527.855 337.486L525.9 346.607C526.012 348.317 527.438 349.674 529.176 349.674C530.984 349.674 532.455 348.201 532.455 346.392C532.455 345.098 533.504 344.048 534.799 344.048C536.095 344.048 537.143 345.098 537.143 346.392C537.143 348.201 538.615 349.674 540.425 349.674C542.236 349.674 543.707 348.201 543.707 346.392C543.707 345.098 544.755 344.048 546.051 344.048C547.346 344.048 548.395 345.098 548.395 346.392C548.395 348.201 549.866 349.674 551.675 349.674C553.412 349.674 554.838 348.317 554.95 346.607L552.995 337.486H527.855Z" fill="white"/>
<path d="M534.799 352.032C533.273 353.547 531.011 354.551 528.706 354.314V360.924H552.144V354.314C549.839 354.551 547.576 353.547 546.051 352.032C543.226 355.091 537.625 355.092 534.799 352.032Z" fill="white"/>
<path fill-rule="evenodd" clip-rule="evenodd" d="M101.602 198.779C114.337 186.044 134.949 186.044 147.662 198.779L245.398 296.515C258.132 309.227 258.132 329.839 245.398 342.552L153.324 434.625C140.589 447.36 119.977 447.36 107.265 434.625L9.55092 336.912C-3.18364 324.2 -3.18364 303.587 9.55092 290.875L101.602 198.779Z" fill="#0082D2"/>
<path fill-rule="evenodd" clip-rule="evenodd" d="M98.3264 265.122C98.3264 276.698 107.71 286.081 119.286 286.081C130.862 286.081 140.246 276.698 140.246 265.122C140.246 253.549 130.862 244.165 119.286 244.165C107.71 244.165 98.3264 253.549 98.3264 265.122ZM167.453 313.072C181.044 313.072 192.062 324.089 192.062 337.681C192.062 351.272 181.045 362.29 167.453 362.29C153.862 362.29 142.844 351.272 142.844 337.681C142.844 324.09 153.862 313.072 167.453 313.072ZM160.74 348.318C162.251 349.744 163.684 350.822 165.77 351.19L165.816 353.072C165.838 354.019 166.624 354.769 167.572 354.747C168.52 354.725 169.27 353.939 169.248 352.991L169.203 351.159C172.805 350.45 175.792 347.503 175.792 343.698C175.792 339.216 171.738 336.067 167.453 336.067C165.067 336.067 162.56 334.46 162.56 331.882C162.56 329.309 165.069 327.689 167.453 327.689C168.601 327.689 171.241 328.659 171.889 329.646C172.41 330.437 173.473 330.657 174.265 330.137C175.056 329.617 175.276 328.553 174.756 327.762C173.643 326.069 171.091 324.907 169.143 324.47L169.091 322.291C169.068 321.343 168.282 320.593 167.335 320.615C166.387 320.637 165.637 321.424 165.659 322.372L165.708 324.426C162.101 325.13 159.114 328.074 159.114 331.882C159.114 336.364 163.168 339.513 167.453 339.513C169.839 339.513 172.347 341.12 172.347 343.698C172.347 346.277 169.839 347.884 167.453 347.884C165.455 347.884 164.494 347.135 163.095 345.816C162.404 345.165 161.316 345.198 160.666 345.89C160.015 346.58 160.049 347.668 160.74 348.318ZM148.425 358.293C142.875 353.167 139.398 345.83 139.398 337.681C139.398 327.366 144.968 318.352 153.262 313.478C150.139 309.947 146.475 306.906 142.398 304.486L119.286 339.681L96.1748 304.487C82.8628 312.389 73.9375 326.905 73.9375 343.507C73.9375 361.804 122.339 366.73 148.425 358.293ZM127.686 302.532L126.105 307.396C125.87 308.121 125.421 308.713 124.839 309.117L126.602 322.264L119.286 333.405L111.97 322.264L113.733 309.117C113.151 308.713 112.702 308.12 112.467 307.396L110.886 302.531C110.545 301.482 110.712 300.429 111.361 299.536C112.009 298.643 112.959 298.159 114.063 298.159H124.509C125.613 298.159 126.562 298.643 127.211 299.536C127.86 300.429 128.027 301.482 127.686 302.532Z" fill="white"/>
<path d="M191.517 241.5L237.517 195.5" stroke="#B7B7B7" stroke-width="3" stroke-miterlimit="9.43363" stroke-linecap="round" stroke-dasharray="6 6"/>
<path d="M426.517 246.5L380.517 200.5" stroke="#B7B7B7" stroke-width="3" stroke-miterlimit="9.43363" stroke-linecap="round" stroke-dasharray="6 6"/>
</svg>
