<svg width="358" height="387" viewBox="0 0 358 387" fill="none" xmlns="http://www.w3.org/2000/svg">
<g filter="url(#filter0_dd_124_527)">
<g clip-path="url(#clip0_124_527)">
<path d="M41.5103 50.5694C41.5103 43.8985 46.9181 38.4906 53.5891 38.4906H303.431C310.102 38.4906 315.51 43.8985 315.51 50.5694V329.412C315.51 336.083 310.102 341.491 303.431 341.491H53.5891C46.9181 341.491 41.5103 336.083 41.5103 329.412V50.5694Z" fill="white"/>
<rect width="273.785" height="144.946" transform="translate(41.5103 38.4906)" fill="#E7E7E7"/>
<path d="M279.405 56.2785C279.49 58.0224 280.079 59.8003 281.104 61.38C278.703 60.8477 276.874 58.7925 276.687 56.2785H279.405ZM281.104 50.3278C278.703 50.86 276.874 52.9153 276.687 55.4293H279.405C279.49 53.6854 280.079 51.9075 281.104 50.3278ZM282.445 50.1919H282.219L282.049 50.4354C280.973 51.9641 280.345 53.7193 280.254 55.4293H284.41C284.32 53.7193 283.691 51.9641 282.615 50.4354L282.445 50.1919ZM280.254 56.2785C280.345 57.9885 280.973 59.7437 282.049 61.2724L282.219 61.5159H282.445L282.615 61.2724C283.691 59.7437 284.32 57.9885 284.41 56.2785H280.254ZM285.259 56.2785C285.175 58.0224 284.586 59.8003 283.561 61.38C285.962 60.8477 287.79 58.7925 287.977 56.2785H285.259ZM287.977 55.4293C287.79 52.9153 285.962 50.86 283.561 50.3278C284.586 51.9075 285.175 53.6854 285.259 55.4293H287.977Z" fill="#A7A7A7"/>
<path d="M303.47 56.4654V59.2511C303.47 60.3835 302.904 60.9497 301.771 60.9497H300.26C300.166 60.9497 300.09 60.8738 300.09 60.7798V59.0371C300.09 58.4726 299.708 57.946 299.151 57.852C298.444 57.7331 297.825 58.2818 297.825 58.968V60.7798C297.825 60.8738 297.749 60.9497 297.655 60.9497H296.109C294.977 60.9497 294.411 60.3835 294.411 59.2511V56.4654C294.745 56.6239 295.113 56.7032 295.487 56.7032C296.132 56.7032 296.749 56.4767 297.225 56.103C297.7 56.4767 298.312 56.7032 298.94 56.7032C299.575 56.7032 300.186 56.4767 300.662 56.103C301.137 56.4767 301.754 56.7032 302.4 56.7032C302.768 56.7032 303.136 56.6239 303.47 56.4654ZM296.393 50.7581C294.977 50.7581 294.76 51.2224 294.527 51.9121L293.938 53.652C293.69 54.3846 293.941 55.2322 294.617 55.6229C294.871 55.7701 295.168 55.8539 295.486 55.8539C296.239 55.8539 296.98 55.384 297.216 54.7215C297.446 55.384 298.187 55.8539 298.94 55.8539C299.693 55.8539 300.434 55.384 300.664 54.7215C300.899 55.384 301.641 55.8539 302.394 55.8539C302.712 55.8539 303.009 55.7701 303.263 55.6229C303.939 55.2322 304.19 54.3846 303.942 53.652L303.353 51.9121C303.121 51.2224 302.904 50.7581 301.488 50.7581H296.393Z" fill="#A7A7A7"/>
<path fill-rule="evenodd" clip-rule="evenodd" d="M195.453 80.2676C195.453 78.0424 193.383 76.3957 191.215 76.8961L149.694 86.4779C148.124 86.8402 147.012 88.2381 147.012 89.8494V142.104H145.282C144.326 142.104 143.552 142.879 143.552 143.834C143.552 144.79 144.326 145.564 145.282 145.564H148.735H148.742H148.748H164.312V135.184C164.312 133.273 165.861 131.724 167.772 131.724H174.692C176.603 131.724 178.152 133.273 178.152 135.184V145.564H193.716H193.723H193.73H195.453V80.2676ZM159.122 97.1233C158.166 97.1233 157.392 97.8979 157.392 98.8533V102.313C157.392 103.269 158.166 104.043 159.122 104.043H162.582C163.537 104.043 164.312 103.269 164.312 102.313V98.8533C164.312 97.8979 163.537 97.1233 162.582 97.1233H159.122ZM157.392 109.234C157.392 108.278 158.166 107.504 159.122 107.504H162.582C163.537 107.504 164.312 108.278 164.312 109.234V112.694C164.312 113.649 163.537 114.424 162.582 114.424H159.122C158.166 114.424 157.392 113.649 157.392 112.694V109.234ZM159.122 117.884C158.166 117.884 157.392 118.659 157.392 119.614V123.074C157.392 124.029 158.166 124.804 159.122 124.804H162.582C163.537 124.804 164.312 124.029 164.312 123.074V119.614C164.312 118.659 163.537 117.884 162.582 117.884H159.122ZM167.772 98.8533C167.772 97.8979 168.547 97.1233 169.502 97.1233H172.962C173.918 97.1233 174.692 97.8979 174.692 98.8533V102.313C174.692 103.269 173.918 104.043 172.962 104.043H169.502C168.547 104.043 167.772 103.269 167.772 102.313V98.8533ZM169.502 107.504C168.547 107.504 167.772 108.278 167.772 109.234V112.694C167.772 113.649 168.547 114.424 169.502 114.424H172.962C173.918 114.424 174.692 113.649 174.692 112.694V109.234C174.692 108.278 173.918 107.504 172.962 107.504H169.502ZM167.772 119.614C167.772 118.659 168.547 117.884 169.502 117.884H172.962C173.918 117.884 174.692 118.659 174.692 119.614V123.074C174.692 124.029 173.918 124.804 172.962 124.804H169.502C168.547 124.804 167.772 124.029 167.772 123.074V119.614ZM179.882 97.1233C178.927 97.1233 178.152 97.8979 178.152 98.8533V102.313C178.152 103.269 178.927 104.043 179.882 104.043H183.342C184.298 104.043 185.073 103.269 185.073 102.313V98.8533C185.073 97.8979 184.298 97.1233 183.342 97.1233H179.882ZM178.152 109.234C178.152 108.278 178.927 107.504 179.882 107.504H183.342C184.298 107.504 185.073 108.278 185.073 109.234V112.694C185.073 113.649 184.298 114.424 183.342 114.424H179.882C178.927 114.424 178.152 113.649 178.152 112.694V109.234ZM179.882 117.884C178.927 117.884 178.152 118.659 178.152 119.614V123.074C178.152 124.029 178.927 124.804 179.882 124.804H183.342C184.298 124.804 185.073 124.029 185.073 123.074V119.614C185.073 118.659 184.298 117.884 183.342 117.884H179.882Z" fill="#C1C1C1"/>
<path d="M198.913 89.1339V145.564H207.558H207.563H207.568H211.023C211.978 145.564 212.753 144.79 212.753 143.834C212.753 142.879 211.978 142.104 211.023 142.104H209.293V96.4625C209.293 95.1519 208.552 93.9538 207.38 93.3677L198.913 89.1339Z" fill="#C1C1C1"/>
<path d="M174.692 145.564H167.772V135.184H174.692V145.564Z" fill="#C1C1C1"/>
<mask id="path-7-inside-1_124_527" fill="white">
<path d="M59.6284 292.146H297.177V323.098H59.6284V292.146Z"/>
</mask>
<path d="M59.6284 292.146V292.901H297.177V292.146V291.391H59.6284V292.146Z" fill="black" fill-opacity="0.1" mask="url(#path-7-inside-1_124_527)"/>
<rect width="142.681" height="18.8732" rx="6.03942" transform="matrix(-1 0 0 1 295.166 227.977)" fill="#D9D9D9"/>
<rect width="69.4534" height="18.8732" rx="6.03942" transform="matrix(-1 0 0 1 295.166 259.684)" fill="#D9D9D9"/>
<rect width="120.788" height="18.8732" rx="6.03942" transform="matrix(-1 0 0 1 273.273 200.8)" fill="#D9D9D9"/>
<path d="M289.364 202.481C292.515 202.481 295.078 205.044 295.078 208.194C295.078 211.544 291.966 213.6 289.907 214.96L289.551 215.196C289.495 215.234 289.429 215.253 289.365 215.253C289.3 215.253 289.235 215.234 289.179 215.196L288.822 214.96C286.763 213.6 283.652 211.544 283.652 208.194C283.65 205.044 286.214 202.481 289.364 202.481ZM289.364 209.875C290.293 209.875 291.045 209.123 291.045 208.194C291.045 207.266 290.293 206.514 289.364 206.514C288.436 206.514 287.684 207.266 287.684 208.194C287.684 209.123 288.436 209.875 289.364 209.875Z" fill="#D9D9D9"/>
<path d="M284.689 315.974C284.774 317.718 285.363 319.495 286.388 321.075C283.987 320.543 282.159 318.488 281.972 315.974H284.689ZM286.388 310.023C283.987 310.555 282.159 312.61 281.972 315.124H284.689C284.774 313.38 285.363 311.603 286.388 310.023ZM287.73 309.887H287.503L287.334 310.131C286.258 311.659 285.629 313.414 285.539 315.124H289.695C289.604 313.414 288.976 311.659 287.9 310.131L287.73 309.887ZM285.539 315.974C285.629 317.684 286.258 319.439 287.334 320.968L287.503 321.211H287.73L287.9 320.968C288.976 319.439 289.604 317.684 289.695 315.974H285.539ZM290.544 315.974C290.459 317.718 289.87 319.495 288.845 321.075C291.246 320.543 293.075 318.488 293.262 315.974H290.544ZM293.262 315.124C293.075 312.61 291.246 310.555 288.845 310.023C289.87 311.603 290.459 313.38 290.544 315.124H293.262Z" fill="#D9D9D9"/>
<rect width="56.6196" height="9.05913" rx="4.52957" transform="matrix(-1 0 0 1 279.312 311.019)" fill="#D9D9D9"/>
<path d="M207.642 315.549C207.642 316.408 206.943 317.106 206.085 317.106C205.226 317.106 204.528 316.408 204.528 315.549C204.528 315.351 204.568 315.164 204.636 314.99C204.745 315.077 204.878 315.137 205.029 315.137C205.384 315.137 205.672 314.849 205.672 314.494C205.672 314.342 205.612 314.21 205.525 314.1C205.7 314.033 205.887 313.992 206.085 313.992C206.943 313.992 207.642 314.69 207.642 315.549ZM210.949 316.385C210.255 317.548 208.694 319.512 206.085 319.512C203.475 319.512 201.914 317.548 201.22 316.385C200.912 315.87 200.912 315.228 201.22 314.713C201.914 313.55 203.475 311.586 206.085 311.586C208.694 311.586 210.255 313.55 210.949 314.713C211.257 315.228 211.257 315.87 210.949 316.385ZM208.491 315.549C208.491 314.222 207.412 313.143 206.085 313.143C204.757 313.143 203.678 314.222 203.678 315.549C203.678 316.876 204.757 317.955 206.085 317.955C207.412 317.955 208.491 316.876 208.491 315.549Z" fill="#D9D9D9"/>
<rect width="56.6196" height="9.05913" rx="4.52957" transform="matrix(-1 0 0 1 197.78 311.019)" fill="#D9D9D9"/>
<path d="M130.214 320.22H129.931V314.983C129.931 314.293 129.613 313.917 128.981 313.858C128.884 313.849 128.799 313.933 128.799 314.031V320.22H127.95V312.152C127.95 311.019 127.383 310.453 126.251 310.453H122.854C121.721 310.453 121.155 311.019 121.155 312.152V320.22H120.306V314.031C120.306 313.933 120.221 313.849 120.124 313.858C119.492 313.917 119.174 314.293 119.174 314.983V320.22H118.89C118.658 320.22 118.466 320.413 118.466 320.645C118.466 320.877 118.658 321.069 118.89 321.069H130.214C130.447 321.069 130.639 320.877 130.639 320.645C130.639 320.413 130.447 320.22 130.214 320.22ZM123.137 312.293H123.703C123.938 312.293 124.128 312.484 124.128 312.718C124.128 312.952 123.938 313.143 123.703 313.143H123.137C122.903 313.143 122.712 312.952 122.712 312.718C122.712 312.484 122.903 312.293 123.137 312.293ZM123.137 313.992H123.703C123.938 313.992 124.128 314.182 124.128 314.417C124.128 314.651 123.938 314.841 123.703 314.841H123.137C122.903 314.841 122.712 314.651 122.712 314.417C122.712 314.182 122.903 313.992 123.137 313.992ZM122.712 316.115C122.712 315.881 122.903 315.691 123.137 315.691H123.703C123.938 315.691 124.128 315.881 124.128 316.115C124.128 316.35 123.938 316.54 123.703 316.54H123.137C122.903 316.54 122.712 316.35 122.712 316.115ZM125.685 320.22H123.42V318.946C123.42 318.321 123.927 317.814 124.552 317.814C125.178 317.814 125.685 318.321 125.685 318.946V320.22ZM125.968 316.54H125.402C125.167 316.54 124.977 316.35 124.977 316.115C124.977 315.881 125.167 315.691 125.402 315.691H125.968C126.202 315.691 126.393 315.881 126.393 316.115C126.393 316.35 126.202 316.54 125.968 316.54ZM125.968 314.841H125.402C125.167 314.841 124.977 314.651 124.977 314.417C124.977 314.182 125.167 313.992 125.402 313.992H125.968C126.202 313.992 126.393 314.182 126.393 314.417C126.393 314.651 126.202 314.841 125.968 314.841ZM125.968 313.143H125.402C125.167 313.143 124.977 312.952 124.977 312.718C124.977 312.484 125.167 312.293 125.402 312.293H125.968C126.202 312.293 126.393 312.484 126.393 312.718C126.393 312.952 126.202 313.143 125.968 313.143Z" fill="#D9D9D9"/>
<rect width="56.6196" height="9.05913" rx="4.52957" transform="matrix(-1 0 0 1 116.248 311.019)" fill="#D9D9D9"/>
</g>
</g>
<defs>
<filter id="filter0_dd_124_527" x="-3.38554e-05" y="-6.67572e-06" width="357.021" height="386.021" filterUnits="userSpaceOnUse" color-interpolation-filters="sRGB">
<feFlood flood-opacity="0" result="BackgroundImageFix"/>
<feColorMatrix in="SourceAlpha" type="matrix" values="0 0 0 0 0 0 0 0 0 0 0 0 0 0 0 0 0 0 127 0" result="hardAlpha"/>
<feMorphology radius="3.01971" operator="erode" in="SourceAlpha" result="effect1_dropShadow_124_527"/>
<feOffset dy="3.01971"/>
<feGaussianBlur stdDeviation="22.265"/>
<feComposite in2="hardAlpha" operator="out"/>
<feColorMatrix type="matrix" values="0 0 0 0 0 0 0 0 0 0 0 0 0 0 0 0 0 0 0.5 0"/>
<feBlend mode="normal" in2="BackgroundImageFix" result="effect1_dropShadow_124_527"/>
<feColorMatrix in="SourceAlpha" type="matrix" values="0 0 0 0 0 0 0 0 0 0 0 0 0 0 0 0 0 0 127 0" result="hardAlpha"/>
<feMorphology radius="2.26478" operator="erode" in="SourceAlpha" result="effect2_dropShadow_124_527"/>
<feOffset dy="7.54928"/>
<feGaussianBlur stdDeviation="5.66196"/>
<feComposite in2="hardAlpha" operator="out"/>
<feColorMatrix type="matrix" values="0 0 0 0 0 0 0 0 0 0 0 0 0 0 0 0 0 0 0.1 0"/>
<feBlend mode="normal" in2="effect1_dropShadow_124_527" result="effect2_dropShadow_124_527"/>
<feBlend mode="normal" in="SourceGraphic" in2="effect2_dropShadow_124_527" result="shape"/>
</filter>
<clipPath id="clip0_124_527">
<path d="M41.5103 50.5694C41.5103 43.8985 46.9181 38.4906 53.5891 38.4906H303.431C310.102 38.4906 315.51 43.8985 315.51 50.5694V329.412C315.51 336.083 310.102 341.491 303.431 341.491H53.5891C46.9181 341.491 41.5103 336.083 41.5103 329.412V50.5694Z" fill="white"/>
</clipPath>
</defs>
</svg>
