<svg width="260" height="286" viewBox="0 0 260 286" fill="none" xmlns="http://www.w3.org/2000/svg">
<g opacity="0.22" filter="url(#filter0_dd_124_455)">
<g clip-path="url(#clip0_124_455)">
<path d="M8.06665 12.1C8.06665 6.15985 12.8821 1.34444 18.8222 1.34444H241.101C247.041 1.34444 251.857 6.15985 251.857 12.1V260.149C251.857 266.089 247.041 270.905 241.101 270.905H18.8222C12.8821 270.905 8.06665 266.089 8.06665 260.149V12.1Z" fill="white"/>
<rect width="243.79" height="129.066" transform="translate(8.06665 1.34444)" fill="#E7E7E7"/>
<path d="M219.898 17.1836C219.974 18.7364 220.498 20.3195 221.411 21.7261C219.273 21.2522 217.645 19.4221 217.478 17.1836H219.898ZM221.411 11.8848C219.273 12.3587 217.645 14.1889 217.478 16.4274H219.898C219.974 14.8745 220.498 13.2915 221.411 11.8848ZM222.606 11.7638H222.404L222.253 11.9806C221.295 13.3419 220.735 14.9048 220.655 16.4274H224.355C224.274 14.9048 223.715 13.3419 222.757 11.9806L222.606 11.7638ZM220.655 17.1836C220.735 18.7062 221.295 20.2691 222.253 21.6303L222.404 21.8471H222.606L222.757 21.6303C223.715 20.2691 224.274 18.7062 224.355 17.1836H220.655ZM225.111 17.1836C225.036 18.7364 224.511 20.3195 223.599 21.7261C225.736 21.2522 227.365 19.4221 227.531 17.1836H225.111ZM227.531 16.4274C227.365 14.1889 225.736 12.3587 223.599 11.8848C224.511 13.2915 225.036 14.8745 225.111 16.4274H227.531Z" fill="#A7A7A7"/>
<path d="M241.327 17.35V19.8305C241.327 20.8388 240.823 21.343 239.814 21.343H238.468C238.385 21.343 238.317 21.2754 238.317 21.1917V19.6399C238.317 19.1372 237.977 18.6684 237.481 18.5847C236.851 18.4788 236.3 18.9673 236.3 19.5784V21.1917C236.3 21.2754 236.233 21.343 236.149 21.343H234.773C233.764 21.343 233.26 20.8388 233.26 19.8305V17.35C233.558 17.4912 233.885 17.5617 234.218 17.5617C234.793 17.5617 235.342 17.3601 235.766 17.0273C236.189 17.3601 236.734 17.5617 237.294 17.5617C237.858 17.5617 238.403 17.3601 238.826 17.0273C239.25 17.3601 239.799 17.5617 240.374 17.5617C240.702 17.5617 241.029 17.4912 241.327 17.35ZM235.025 12.268C233.764 12.268 233.571 12.6814 233.364 13.2955L232.839 14.8448C232.618 15.4972 232.842 16.2519 233.444 16.5998C233.67 16.7309 233.935 16.8055 234.218 16.8055C234.888 16.8055 235.548 16.387 235.758 15.7972C235.963 16.387 236.622 16.8055 237.293 16.8055C237.964 16.8055 238.623 16.387 238.828 15.7972C239.038 16.387 239.698 16.8055 240.368 16.8055C240.652 16.8055 240.916 16.7309 241.142 16.5998C241.744 16.2519 241.968 15.4972 241.747 14.8448L241.222 13.2955C241.016 12.6814 240.823 12.268 239.562 12.268H235.025Z" fill="#A7A7A7"/>
<path fill-rule="evenodd" clip-rule="evenodd" d="M145.144 38.5445C145.144 36.5631 143.301 35.0968 141.37 35.5424L104.398 44.0744C103 44.397 102.009 45.6418 102.009 47.0765V93.6066H100.469C99.6182 93.6066 98.9285 94.2964 98.9285 95.1471C98.9285 95.9978 99.6182 96.6876 100.469 96.6876H103.544H103.55H103.556H117.415V87.4446C117.415 85.7429 118.794 84.3636 120.496 84.3636H126.658C128.359 84.3636 129.739 85.7429 129.739 87.4446V96.6876H143.597H143.603H143.609H145.144V38.5445ZM112.793 53.5535C111.942 53.5535 111.252 54.2432 111.252 55.094V58.175C111.252 59.0258 111.942 59.7155 112.793 59.7155H115.874C116.725 59.7155 117.415 59.0258 117.415 58.175V55.094C117.415 54.2432 116.725 53.5535 115.874 53.5535H112.793ZM111.252 64.337C111.252 63.4864 111.942 62.7965 112.793 62.7965H115.874C116.725 62.7965 117.415 63.4864 117.415 64.337V67.418C117.415 68.2687 116.725 68.9585 115.874 68.9585H112.793C111.942 68.9585 111.252 68.2687 111.252 67.418V64.337ZM112.793 72.0395C111.942 72.0395 111.252 72.7294 111.252 73.58V76.661C111.252 77.5117 111.942 78.2015 112.793 78.2015H115.874C116.725 78.2015 117.415 77.5117 117.415 76.661V73.58C117.415 72.7294 116.725 72.0395 115.874 72.0395H112.793ZM120.496 55.094C120.496 54.2432 121.185 53.5535 122.036 53.5535H125.117C125.968 53.5535 126.658 54.2432 126.658 55.094V58.175C126.658 59.0258 125.968 59.7155 125.117 59.7155H122.036C121.185 59.7155 120.496 59.0258 120.496 58.175V55.094ZM122.036 62.7965C121.185 62.7965 120.496 63.4864 120.496 64.337V67.418C120.496 68.2687 121.185 68.9585 122.036 68.9585H125.117C125.968 68.9585 126.658 68.2687 126.658 67.418V64.337C126.658 63.4864 125.968 62.7965 125.117 62.7965H122.036ZM120.496 73.58C120.496 72.7294 121.185 72.0395 122.036 72.0395H125.117C125.968 72.0395 126.658 72.7294 126.658 73.58V76.661C126.658 77.5117 125.968 78.2015 125.117 78.2015H122.036C121.185 78.2015 120.496 77.5117 120.496 76.661V73.58ZM131.279 53.5535C130.428 53.5535 129.739 54.2432 129.739 55.094V58.175C129.739 59.0258 130.428 59.7155 131.279 59.7155H134.36C135.211 59.7155 135.901 59.0258 135.901 58.175V55.094C135.901 54.2432 135.211 53.5535 134.36 53.5535H131.279ZM129.739 64.337C129.739 63.4864 130.428 62.7965 131.279 62.7965H134.36C135.211 62.7965 135.901 63.4864 135.901 64.337V67.418C135.901 68.2687 135.211 68.9585 134.36 68.9585H131.279C130.428 68.9585 129.739 68.2687 129.739 67.418V64.337ZM131.279 72.0395C130.428 72.0395 129.739 72.7294 129.739 73.58V76.661C129.739 77.5117 130.428 78.2015 131.279 78.2015H134.36C135.211 78.2015 135.901 77.5117 135.901 76.661V73.58C135.901 72.7294 135.211 72.0395 134.36 72.0395H131.279Z" fill="#C1C1C1"/>
<path d="M148.224 46.4394V96.6876H155.923H155.927H155.931H159.008C159.859 96.6876 160.548 95.9977 160.548 95.1471C160.548 94.2964 159.859 93.6066 159.008 93.6066H157.467V52.9651C157.467 51.7981 156.808 50.7312 155.764 50.2093L148.224 46.4394Z" fill="#C1C1C1"/>
<path d="M126.658 96.6876H120.496V87.4446H126.658V96.6876Z" fill="#C1C1C1"/>
<mask id="path-7-inside-1_124_455" fill="white">
<path d="M24.2 227.21H235.723V254.771H24.2V227.21Z"/>
</mask>
<path d="M24.2 227.21V227.883H235.723V227.21V226.538H24.2V227.21Z" fill="black" fill-opacity="0.1" mask="url(#path-7-inside-1_124_455)"/>
<rect width="127.05" height="16.8055" rx="5.37776" transform="matrix(-1 0 0 1 233.932 170.072)" fill="#D9D9D9"/>
<rect width="61.8442" height="16.8055" rx="5.37776" transform="matrix(-1 0 0 1 233.932 198.305)" fill="#D9D9D9"/>
<rect width="107.555" height="16.8055" rx="5.37776" transform="matrix(-1 0 0 1 214.438 145.872)" fill="#D9D9D9"/>
<path d="M227.883 147.552C231.034 147.552 233.597 150.115 233.597 153.266C233.597 156.616 230.485 158.671 228.426 160.031L228.07 160.268C228.013 160.306 227.948 160.324 227.883 160.324C227.819 160.324 227.754 160.306 227.697 160.268L227.341 160.031C225.282 158.671 222.17 156.616 222.17 153.266C222.169 150.115 224.732 147.552 227.883 147.552ZM227.883 154.947C228.811 154.947 229.563 154.194 229.563 153.266C229.563 152.338 228.811 151.586 227.883 151.586C226.954 151.586 226.202 152.338 226.202 153.266C226.202 154.194 226.954 154.947 227.883 154.947Z" fill="#D9D9D9"/>
<path d="M224.604 248.427C224.679 249.98 225.204 251.563 226.116 252.97C223.979 252.496 222.35 250.666 222.184 248.427H224.604ZM226.116 243.128C223.979 243.602 222.35 245.432 222.184 247.671H224.604C224.679 246.118 225.204 244.535 226.116 243.128ZM227.311 243.007H227.11L226.958 243.224C226 244.585 225.441 246.148 225.36 247.671H229.061C228.98 246.148 228.42 244.585 227.462 243.224L227.311 243.007ZM225.36 248.427C225.441 249.95 226 251.513 226.958 252.874L227.11 253.091H227.311L227.462 252.874C228.42 251.513 228.98 249.95 229.061 248.427H225.36ZM229.817 248.427C229.741 249.98 229.217 251.563 228.304 252.97C230.442 252.496 232.071 250.666 232.237 248.427H229.817ZM232.237 247.671C232.071 245.432 230.442 243.602 228.304 243.128C229.217 244.535 229.741 246.118 229.817 247.671H232.237Z" fill="#D9D9D9"/>
<rect width="50.4165" height="8.06664" rx="4.03332" transform="matrix(-1 0 0 1 219.816 244.016)" fill="#D9D9D9"/>
<path d="M155.997 248.049C155.997 248.814 155.376 249.436 154.611 249.436C153.846 249.436 153.224 248.814 153.224 248.049C153.224 247.873 153.261 247.706 153.321 247.551C153.418 247.629 153.536 247.682 153.671 247.682C153.987 247.682 154.244 247.425 154.244 247.109C154.244 246.975 154.19 246.857 154.113 246.759C154.268 246.699 154.435 246.663 154.611 246.663C155.376 246.663 155.997 247.284 155.997 248.049ZM158.943 248.794C158.324 249.829 156.934 251.578 154.611 251.578C152.287 251.578 150.898 249.829 150.279 248.794C150.005 248.335 150.005 247.763 150.279 247.304C150.898 246.269 152.287 244.52 154.611 244.52C156.934 244.52 158.324 246.269 158.943 247.304C159.217 247.763 159.217 248.335 158.943 248.794ZM156.753 248.049C156.753 246.868 155.793 245.906 154.611 245.906C153.429 245.906 152.468 246.868 152.468 248.049C152.468 249.23 153.429 250.192 154.611 250.192C155.793 250.192 156.753 249.23 156.753 248.049Z" fill="#D9D9D9"/>
<rect width="50.4165" height="8.06664" rx="4.03332" transform="matrix(-1 0 0 1 147.216 244.016)" fill="#D9D9D9"/>
<path d="M87.0527 252.208H86.8006V247.545C86.8006 246.931 86.5173 246.596 85.9547 246.544C85.868 246.536 85.7923 246.61 85.7923 246.697V252.208H85.0361V245.024C85.0361 244.016 84.5319 243.512 83.5236 243.512H80.4986C79.4903 243.512 78.9861 244.016 78.9861 245.024V252.208H78.2298V246.697C78.2298 246.61 78.1542 246.536 78.0675 246.544C77.5048 246.596 77.2215 246.931 77.2215 247.545V252.208H76.9694C76.7627 252.208 76.5913 252.38 76.5913 252.587C76.5913 252.793 76.7627 252.965 76.9694 252.965H87.0527C87.2594 252.965 87.4309 252.793 87.4309 252.587C87.4309 252.38 87.2594 252.208 87.0527 252.208ZM80.7507 245.15H81.2548C81.4636 245.15 81.633 245.32 81.633 245.528C81.633 245.737 81.4636 245.906 81.2548 245.906H80.7507C80.5419 245.906 80.3725 245.737 80.3725 245.528C80.3725 245.32 80.5419 245.15 80.7507 245.15ZM80.7507 246.663H81.2548C81.4636 246.663 81.633 246.832 81.633 247.041C81.633 247.249 81.4636 247.419 81.2548 247.419H80.7507C80.5419 247.419 80.3725 247.249 80.3725 247.041C80.3725 246.832 80.5419 246.663 80.7507 246.663ZM80.3725 248.553C80.3725 248.345 80.5419 248.175 80.7507 248.175H81.2548C81.4636 248.175 81.633 248.345 81.633 248.553C81.633 248.762 81.4636 248.931 81.2548 248.931H80.7507C80.5419 248.931 80.3725 248.762 80.3725 248.553ZM83.0194 252.208H81.0028V251.074C81.0028 250.517 81.4545 250.066 82.0111 250.066C82.5682 250.066 83.0194 250.517 83.0194 251.074V252.208ZM83.2715 248.931H82.7673C82.5586 248.931 82.3892 248.762 82.3892 248.553C82.3892 248.345 82.5586 248.175 82.7673 248.175H83.2715C83.4802 248.175 83.6496 248.345 83.6496 248.553C83.6496 248.762 83.4802 248.931 83.2715 248.931ZM83.2715 247.419H82.7673C82.5586 247.419 82.3892 247.249 82.3892 247.041C82.3892 246.832 82.5586 246.663 82.7673 246.663H83.2715C83.4802 246.663 83.6496 246.832 83.6496 247.041C83.6496 247.249 83.4802 247.419 83.2715 247.419ZM83.2715 245.906H82.7673C82.5586 245.906 82.3892 245.737 82.3892 245.528C82.3892 245.32 82.5586 245.15 82.7673 245.15H83.2715C83.4802 245.15 83.6496 245.32 83.6496 245.528C83.6496 245.737 83.4802 245.906 83.2715 245.906Z" fill="#D9D9D9"/>
<rect width="50.4165" height="8.06664" rx="4.03332" transform="matrix(-1 0 0 1 74.6167 244.016)" fill="#D9D9D9"/>
</g>
</g>
<defs>
<filter id="filter0_dd_124_455" x="1.3113e-05" y="-2.14577e-06" width="259.923" height="285.693" filterUnits="userSpaceOnUse" color-interpolation-filters="sRGB">
<feFlood flood-opacity="0" result="BackgroundImageFix"/>
<feColorMatrix in="SourceAlpha" type="matrix" values="0 0 0 0 0 0 0 0 0 0 0 0 0 0 0 0 0 0 127 0" result="hardAlpha"/>
<feMorphology radius="2.68888" operator="erode" in="SourceAlpha" result="effect1_dropShadow_124_455"/>
<feOffset dy="2.68888"/>
<feGaussianBlur stdDeviation="2.01666"/>
<feComposite in2="hardAlpha" operator="out"/>
<feColorMatrix type="matrix" values="0 0 0 0 0 0 0 0 0 0 0 0 0 0 0 0 0 0 0.1 0"/>
<feBlend mode="normal" in2="BackgroundImageFix" result="effect1_dropShadow_124_455"/>
<feColorMatrix in="SourceAlpha" type="matrix" values="0 0 0 0 0 0 0 0 0 0 0 0 0 0 0 0 0 0 127 0" result="hardAlpha"/>
<feMorphology radius="2.01666" operator="erode" in="SourceAlpha" result="effect2_dropShadow_124_455"/>
<feOffset dy="6.7222"/>
<feGaussianBlur stdDeviation="5.04165"/>
<feComposite in2="hardAlpha" operator="out"/>
<feColorMatrix type="matrix" values="0 0 0 0 0 0 0 0 0 0 0 0 0 0 0 0 0 0 0.1 0"/>
<feBlend mode="normal" in2="effect1_dropShadow_124_455" result="effect2_dropShadow_124_455"/>
<feBlend mode="normal" in="SourceGraphic" in2="effect2_dropShadow_124_455" result="shape"/>
</filter>
<clipPath id="clip0_124_455">
<path d="M8.06665 12.1C8.06665 6.15985 12.8821 1.34444 18.8222 1.34444H241.101C247.041 1.34444 251.857 6.15985 251.857 12.1V260.149C251.857 266.089 247.041 270.905 241.101 270.905H18.8222C12.8821 270.905 8.06665 266.089 8.06665 260.149V12.1Z" fill="white"/>
</clipPath>
</defs>
</svg>
