<svg width="14" height="14" viewBox="0 0 14 14" fill="none" xmlns="http://www.w3.org/2000/svg">
<path d="M6.45534 0.301031C6.62941 -0.100409 7.19871 -0.10041 7.37279 0.30103L8.96908 3.98221C9.04153 4.14929 9.19909 4.26376 9.38038 4.28104L13.3747 4.66165C13.8103 4.70316 13.9862 5.24459 13.6582 5.5342L10.6504 8.18991C10.5139 8.31044 10.4538 8.49567 10.4933 8.67342L11.3657 12.5898C11.4608 13.0169 11.0002 13.3516 10.6234 13.1291L7.16826 11.0892C7.01144 10.9967 6.81669 10.9967 6.65987 11.0892L3.2047 13.1291C2.8279 13.3516 2.36733 13.0169 2.46246 12.5898L3.33478 8.67342C3.37437 8.49567 3.31419 8.31044 3.17768 8.18991L0.169947 5.5342C-0.158052 5.24459 0.0178702 4.70316 0.453455 4.66165L4.44775 4.28104C4.62904 4.26376 4.7866 4.14929 4.85905 3.98221L6.45534 0.301031Z" fill="#FFC400"/>
</svg>
