<svg width="14" height="16" viewBox="0 0 14 16" fill="none" xmlns="http://www.w3.org/2000/svg">
<path d="M2.04893 2.05051C2.69895 1.40042 3.47066 0.884739 4.31999 0.532912C5.16931 0.181084 6.07962 0 6.99893 0C7.91825 0 8.82856 0.181084 9.67788 0.532912C10.5272 0.884739 11.2989 1.40042 11.9489 2.05051C13.2618 3.36409 13.9994 5.14529 13.9994 7.00251C13.9994 8.85972 13.2618 10.6409 11.9489 11.9545L10.8209 13.0685L8.38493 15.4385C8.03512 15.7771 7.57347 15.9759 7.08711 15.9975C6.60076 16.019 6.12333 15.8618 5.74494 15.5555L5.61294 15.4385L3.56993 13.4535L2.04993 11.9535C0.737333 10.64 0 8.85897 0 7.002C0 5.14504 0.736333 3.36405 2.04893 2.05051ZM11.2449 2.75551C10.6877 2.19765 10.026 1.75509 9.29758 1.45315C8.56919 1.1512 7.78843 0.995785 6.99994 0.995785C6.21144 0.995785 5.43068 1.1512 4.70229 1.45315C3.9739 1.75509 3.31217 2.19765 2.75493 2.75551C1.66052 3.85138 1.03141 5.32744 0.998803 6.87587C0.966198 8.4243 1.53262 9.92554 2.57993 11.0665L2.75493 11.2495L3.32493 11.8165L6.30693 14.7215L6.39993 14.8015C6.57303 14.9313 6.78357 15.0015 6.99994 15.0015C7.21631 15.0015 7.42684 14.9313 7.59993 14.8015L7.69293 14.7215L9.92293 12.5535L11.2449 11.2495L11.4209 11.0665C12.4678 9.92546 13.0339 8.42436 13.0011 6.87617C12.9683 5.32799 12.3392 3.8512 11.2449 2.75551ZM6.99893 4.24951C7.36007 4.24957 7.71766 4.32077 8.05128 4.45903C8.3849 4.59729 8.68802 4.79991 8.94333 5.05532C9.19865 5.31072 9.40116 5.61392 9.5393 5.94759C9.67743 6.28126 9.7485 6.63887 9.74844 7C9.74837 7.36114 9.67717 7.71873 9.53891 8.05235C9.40065 8.38597 9.19803 8.68909 8.94263 8.9444C8.68722 9.19972 8.38402 9.40223 8.05035 9.54037C7.71668 9.6785 7.35907 9.74957 6.99793 9.74951C6.26859 9.74951 5.56912 9.45977 5.05339 8.94405C4.53767 8.42832 4.24793 7.72885 4.24793 6.99951C4.24793 6.27016 4.53767 5.57069 5.05339 5.05496C5.56912 4.53924 6.26859 4.24951 6.99793 4.24951M6.99793 5.24951C6.53381 5.24951 6.08869 5.43388 5.7605 5.76207C5.43231 6.09026 5.24793 6.53538 5.24793 6.99951C5.24793 7.46363 5.43231 7.90875 5.7605 8.23694C6.08869 8.56513 6.53381 8.74951 6.99793 8.74951C7.46206 8.74951 7.90718 8.56513 8.23537 8.23694C8.56356 7.90875 8.74793 7.46363 8.74793 6.99951C8.74793 6.53538 8.56356 6.09026 8.23537 5.76207C7.90718 5.43388 7.46206 5.24951 6.99793 5.24951Z" fill="#F1A68E"/>
</svg>
