<svg width="16" height="16" viewBox="0 0 16 16" fill="none" xmlns="http://www.w3.org/2000/svg">
<path d="M4.36675 15.1663C5.12008 15.1663 5.91341 14.9863 6.73341 14.6397C7.53341 14.2997 8.34008 13.833 9.12675 13.2663C9.90675 12.693 10.6601 12.053 11.3734 11.353C12.0801 10.6397 12.7201 9.88634 13.2867 9.11301C13.8601 8.31301 14.3201 7.51301 14.6467 6.73967C14.9934 5.91301 15.1667 5.11301 15.1667 4.35967C15.1667 3.83967 15.0734 3.34634 14.8934 2.88634C14.7067 2.41301 14.4067 1.97301 14.0001 1.59301C13.4867 1.08634 12.9001 0.833008 12.2734 0.833008C12.0134 0.833008 11.7467 0.893008 11.5201 0.999674C11.2601 1.11967 11.0401 1.29967 10.8801 1.53967L9.33341 3.71967C9.19341 3.91301 9.08675 4.09967 9.01341 4.28634C8.92675 4.48634 8.88008 4.68634 8.88008 4.87967C8.88008 5.13301 8.95341 5.37967 9.09341 5.61301C9.19341 5.79301 9.34675 5.98634 9.54008 6.17967L9.99341 6.65301C9.98675 6.67301 9.98008 6.68634 9.97341 6.69967C9.89341 6.83967 9.73341 7.07967 9.42675 7.43967C9.10008 7.81301 8.79341 8.15301 8.48675 8.46634C8.09341 8.85301 7.76675 9.15967 7.46008 9.41301C7.08008 9.73301 6.83341 9.89301 6.68675 9.96634L6.70008 9.99967L6.21341 9.51967C6.00675 9.31301 5.80675 9.15967 5.61341 9.05967C5.24675 8.83301 4.78008 8.79301 4.31341 8.98634C4.14008 9.05967 3.95341 9.15967 3.75341 9.29967L1.54008 10.873C1.29341 11.0397 1.11341 11.253 1.00675 11.5063C0.906748 11.7597 0.860082 11.993 0.860082 12.2263C0.860082 12.5463 0.933415 12.8663 1.07341 13.1663C1.21341 13.4663 1.38675 13.7263 1.60675 13.9663C1.98675 14.3863 2.40008 14.6863 2.88008 14.8797C3.34008 15.0663 3.84008 15.1663 4.36675 15.1663ZM12.2734 1.83301C12.6401 1.83301 12.9801 1.99301 13.3067 2.31301C13.6134 2.59967 13.8267 2.91301 13.9601 3.25301C14.1001 3.59967 14.1667 3.96634 14.1667 4.35967C14.1667 4.97967 14.0201 5.65301 13.7267 6.34634C13.4267 7.05301 13.0067 7.78634 12.4734 8.51967C11.9401 9.25301 11.3334 9.96634 10.6667 10.6397C10.0001 11.2997 9.28008 11.913 8.54008 12.453C7.82008 12.9797 7.08008 13.4063 6.34675 13.713C5.20675 14.1997 4.14008 14.313 3.26008 13.9463C2.92008 13.8063 2.62008 13.593 2.34675 13.2863C2.19341 13.1197 2.07341 12.9397 1.97341 12.7263C1.89341 12.5597 1.85341 12.3863 1.85341 12.213C1.85341 12.1063 1.87341 11.9997 1.92675 11.8797C1.94675 11.8397 1.98675 11.7663 2.11341 11.6797L4.32675 10.1063C4.46008 10.013 4.58008 9.94634 4.69342 9.89967C4.84008 9.83967 4.90008 9.77967 5.12675 9.91967C5.26008 9.98634 5.38008 10.0863 5.51341 10.2197L6.02008 10.7197C6.28008 10.973 6.68008 11.033 6.98675 10.9197L7.16675 10.8397C7.44008 10.693 7.76008 10.4663 8.11341 10.1663C8.43341 9.89301 8.78008 9.57301 9.20008 9.15967C9.52675 8.82634 9.85341 8.47301 10.1934 8.07967C10.5067 7.71301 10.7334 7.39967 10.8734 7.13967L10.9534 6.93967C10.9934 6.78634 11.0067 6.69967 11.0067 6.60634C11.0067 6.36634 10.9201 6.15301 10.7534 5.98634L10.2534 5.46634C10.1201 5.33301 10.0201 5.20634 9.95341 5.09301C9.90008 5.00634 9.88008 4.93301 9.88008 4.86634C9.88008 4.81301 9.90008 4.73301 9.93341 4.65301C9.98008 4.54634 10.0534 4.42634 10.1467 4.29967L11.6934 2.11301C11.7601 2.01967 11.8401 1.95301 11.9401 1.90634C12.0467 1.85967 12.1601 1.83301 12.2734 1.83301ZM6.70008 10.0063L6.80675 10.4597L6.62675 9.99301C6.66008 9.98634 6.68675 9.99301 6.70008 10.0063Z" fill="#391462"/>
<path d="M3.66667 6.50033C3.94 6.50033 4.16667 6.27366 4.16667 6.00033C4.16667 5.76033 4.40667 5.26033 4.80667 4.83366C5.2 4.41366 5.63333 4.16699 6 4.16699C6.27333 4.16699 6.5 3.94033 6.5 3.66699C6.5 3.39366 6.27333 3.16699 6 3.16699C5.35333 3.16699 4.67333 3.51366 4.08 4.14699C3.52667 4.74033 3.16667 5.46699 3.16667 6.00033C3.16667 6.27366 3.39333 6.50033 3.66667 6.50033Z" fill="#391462"/>
<path d="M1.33333 6.49967C1.60667 6.49967 1.83333 6.27301 1.83333 5.99967C1.83333 3.69967 3.7 1.83301 6 1.83301C6.27333 1.83301 6.5 1.60634 6.5 1.33301C6.5 1.05967 6.27333 0.833008 6 0.833008C3.15333 0.833008 0.833334 3.15301 0.833334 5.99967C0.833334 6.27301 1.06 6.49967 1.33333 6.49967Z" fill="#391462"/>
</svg>
