<svg width="16" height="16" viewBox="0 0 16 16" fill="none" xmlns="http://www.w3.org/2000/svg">
<path d="M13.4329 13.8882H2.56707C1.91679 13.8874 1.29339 13.6287 0.833617 13.1688C0.373841 12.7089 0.115228 12.0855 0.114502 11.4352V4.5639C0.115228 3.91366 0.373856 3.29026 0.833645 2.83047C1.29343 2.37068 1.91683 2.11205 2.56707 2.11133H13.4329C14.0832 2.11205 14.7066 2.37067 15.1665 2.83044C15.6264 3.29022 15.8851 3.91362 15.8859 4.5639V11.4352C15.8852 12.0856 15.6265 12.7091 15.1667 13.169C14.7068 13.6288 14.0833 13.8875 13.4329 13.8882ZM2.56707 3.25419C2.21983 3.25455 1.88691 3.39265 1.64137 3.63819C1.39583 3.88373 1.25772 4.21665 1.25736 4.5639V11.4352C1.2576 11.7825 1.39565 12.1156 1.64121 12.3612C1.88676 12.6069 2.21975 12.745 2.56707 12.7454H13.4329C13.7803 12.745 14.1133 12.6069 14.3589 12.3612C14.6046 12.1156 14.7427 11.7826 14.7431 11.4352V4.5639C14.7426 4.21661 14.6044 3.88369 14.3588 3.63816C14.1132 3.39264 13.7802 3.25455 13.4329 3.25419H2.56707Z" fill="#391462"/>
<path d="M7.99307 9.53816C7.51362 9.54288 7.04657 9.38586 6.66735 9.09245L0.556267 4.2225C0.437753 4.128 0.361636 3.99028 0.344661 3.83965C0.327687 3.68902 0.371244 3.53782 0.465752 3.4193C0.56026 3.30079 0.697977 3.22467 0.848606 3.2077C0.999236 3.19072 1.15044 3.23428 1.26895 3.32879L7.37821 8.19873C7.55868 8.32674 7.7746 8.39523 7.99586 8.39466C8.21712 8.39408 8.43269 8.32447 8.61249 8.19553L14.6463 3.33108C14.7642 3.23596 14.9151 3.19158 15.0657 3.2077C15.2164 3.22382 15.3544 3.29911 15.4495 3.41702C15.5446 3.53493 15.589 3.68579 15.5729 3.83642C15.5568 3.98705 15.4815 4.1251 15.3636 4.22022L9.33158 9.08467C8.94975 9.38325 8.47775 9.54316 7.99307 9.53816Z" fill="#391462"/>
</svg>
