<svg width="22" height="22" viewBox="0 0 22 22" fill="none" xmlns="http://www.w3.org/2000/svg">
<path d="M15.9999 11.1836C17.0872 11.1834 18.1448 10.8288 19.0125 10.1735C19.8802 9.51814 20.5105 8.59784 20.8081 7.55203C21.1057 6.50622 21.0543 5.3919 20.6616 4.37795C20.2689 3.364 19.5564 2.50569 18.6321 1.93308C17.7078 1.36048 16.622 1.1048 15.5392 1.20478C14.4565 1.30477 13.4359 1.75498 12.6321 2.48718C11.8282 3.21938 11.285 4.19366 11.0846 5.26237C10.8843 6.33108 11.0378 7.43597 11.5219 8.4096C11.6131 8.58646 11.6369 8.79047 11.5889 8.9836L11.2909 10.0966C11.2614 10.2068 11.2614 10.3228 11.2909 10.433C11.3205 10.5432 11.3785 10.6437 11.4591 10.7243C11.5398 10.805 11.6403 10.863 11.7505 10.8926C11.8607 10.9221 11.9767 10.9221 12.0869 10.8926L13.1999 10.5946C13.393 10.5465 13.597 10.5704 13.7739 10.6616C14.4656 11.0052 15.2275 11.1839 15.9999 11.1836Z" fill="#263238" stroke="white"/>
<path d="M13.645 15.7259L14.1 15.2469L13.012 14.2129L12.557 14.6939L13.645 15.7259ZM15.599 15.0439L17.509 16.1449L18.258 14.8439L16.347 13.7439L15.599 15.0439ZM17.878 18.4239L16.458 19.9189L17.545 20.9529L18.965 19.4579L17.878 18.4239ZM15.603 20.3989C14.168 20.5399 10.423 20.4199 6.359 16.1419L5.272 17.1739C9.701 21.8369 13.926 22.0729 15.75 21.8919L15.603 20.3989ZM6.359 16.1419C2.483 12.0609 1.833 8.61789 1.752 7.10789L0.254001 7.18889C0.354001 9.03889 1.138 12.8219 5.272 17.1739L6.359 16.1419ZM7.735 9.50389L8.021 9.20189L6.934 8.16889L6.647 8.47089L7.735 9.50389ZM8.247 5.44189L6.986 3.65989L5.761 4.52589L7.021 6.30889L8.247 5.44189ZM2.717 3.27389L1.149 4.92789L2.237 5.96089L3.807 4.30789L2.717 3.27389ZM7.191 8.98689C7.01103 8.81343 6.82936 8.64176 6.646 8.47189L6.644 8.47389L6.641 8.47689L6.591 8.53489C6.49308 8.66471 6.41552 8.8087 6.361 8.96189C6.263 9.23689 6.211 9.60089 6.277 10.0549C6.407 10.9469 6.992 12.1459 8.519 13.7549L9.607 12.7209C8.179 11.2179 7.827 10.2929 7.761 9.83689C7.729 9.61689 7.761 9.50189 7.774 9.46489L7.782 9.44589C7.77126 9.46275 7.75887 9.4785 7.745 9.49289L7.74 9.49789L7.737 9.50089L7.736 9.50189C7.736 9.50189 7.734 9.50389 7.191 8.98689ZM8.519 13.7549C10.042 15.3589 11.192 15.9879 12.069 16.1309C12.52 16.2039 12.885 16.1449 13.161 16.0359C13.3141 15.9762 13.4563 15.8917 13.582 15.7859L13.618 15.7519L13.632 15.7379L13.642 15.7279C13.642 15.7259 13.645 15.7259 13.101 15.2089C12.557 14.6929 12.558 14.6919 12.558 14.6909L12.56 14.6899L12.562 14.6869L12.567 14.6819L12.577 14.6719L12.614 14.6399C12.624 14.6346 12.6227 14.6349 12.61 14.6409C12.59 14.6489 12.5 14.6809 12.31 14.6499C11.908 14.5839 11.04 14.2299 9.607 12.7209L8.519 13.7549ZM6.986 3.65989C5.972 2.22589 3.944 1.98289 2.718 3.27489L3.804 4.30789C4.327 3.75789 5.249 3.80089 5.761 4.52589L6.986 3.65989ZM1.752 7.10789C1.73 6.70789 1.905 6.30889 2.237 5.96089L1.149 4.92789C0.613001 5.49189 0.205001 6.27489 0.254001 7.18889L1.752 7.10789ZM16.457 19.9199C16.178 20.2139 15.887 20.3709 15.603 20.3989L15.75 21.8919C16.497 21.8189 17.102 21.4199 17.545 20.9529L16.457 19.9199ZM8.021 9.20289C8.99 8.18289 9.057 6.58989 8.247 5.44289L7.022 6.30889C7.444 6.90589 7.379 7.70089 6.934 8.16889L8.021 9.20289ZM17.509 16.1449C18.33 16.6179 18.491 17.7799 17.878 18.4249L18.965 19.4579C20.27 18.0839 19.89 15.7839 18.258 14.8439L17.509 16.1449ZM14.1 15.2469C14.485 14.8409 15.086 14.7499 15.599 15.0449L16.347 13.7449C15.248 13.1129 13.887 13.2949 13.012 14.2149L14.1 15.2469Z" fill="#263238"/>
</svg>
