<svg width="24" height="25" viewBox="0 0 24 25" fill="none" xmlns="http://www.w3.org/2000/svg">
<path fill-rule="evenodd" clip-rule="evenodd" d="M19 11.1838C19.5046 11.1837 19.9906 11.3742 20.3605 11.7173C20.7305 12.0604 20.9572 12.5307 20.995 13.0338L21 13.1838V19.1838C21.0002 19.6884 20.8096 20.1744 20.4665 20.5444C20.1234 20.9144 19.6532 21.141 19.15 21.1788L19 21.1838H15C14.4954 21.184 14.0094 20.9934 13.6395 20.6503C13.2695 20.3073 13.0428 19.837 13.005 19.3338L13 19.1838V13.1838C12.9998 12.6793 13.1904 12.1933 13.5335 11.8233C13.8766 11.4533 14.3468 11.2267 14.85 11.1888L15 11.1838H19ZM9 15.1838C9.53043 15.1838 10.0391 15.3946 10.4142 15.7696C10.7893 16.1447 11 16.6534 11 17.1838V19.1838C11 19.7143 10.7893 20.223 10.4142 20.5981C10.0391 20.9731 9.53043 21.1838 9 21.1838H5C4.46957 21.1838 3.96086 20.9731 3.58579 20.5981C3.21071 20.223 3 19.7143 3 19.1838V17.1838C3 16.6534 3.21071 16.1447 3.58579 15.7696C3.96086 15.3946 4.46957 15.1838 5 15.1838H9ZM19 13.1838H15V19.1838H19V13.1838ZM9 17.1838H5V19.1838H9V17.1838ZM9 3.18384C9.53043 3.18384 10.0391 3.39455 10.4142 3.76962C10.7893 4.1447 11 4.6534 11 5.18384V11.1838C11 11.7143 10.7893 12.223 10.4142 12.5981C10.0391 12.9731 9.53043 13.1838 9 13.1838H5C4.46957 13.1838 3.96086 12.9731 3.58579 12.5981C3.21071 12.223 3 11.7143 3 11.1838V5.18384C3 4.6534 3.21071 4.1447 3.58579 3.76962C3.96086 3.39455 4.46957 3.18384 5 3.18384H9ZM9 5.18384H5V11.1838H9V5.18384ZM19 3.18384C19.5304 3.18384 20.0391 3.39455 20.4142 3.76962C20.7893 4.1447 21 4.6534 21 5.18384V7.18384C21 7.71427 20.7893 8.22298 20.4142 8.59805C20.0391 8.97312 19.5304 9.18384 19 9.18384H15C14.4696 9.18384 13.9609 8.97312 13.5858 8.59805C13.2107 8.22298 13 7.71427 13 7.18384V5.18384C13 4.6534 13.2107 4.1447 13.5858 3.76962C13.9609 3.39455 14.4696 3.18384 15 3.18384H19ZM19 5.18384H15V7.18384H19V5.18384Z" fill="currentColor"/>
</svg>
