<svg width="22" height="17" viewBox="0 0 22 17" fill="none" xmlns="http://www.w3.org/2000/svg">
<path d="M13 9.18359C12.1667 9.18359 11.4583 8.89193 10.875 8.30859C10.2917 7.72526 10 7.01693 10 6.18359C10 5.35026 10.2917 4.64193 10.875 4.05859C11.4583 3.47526 12.1667 3.18359 13 3.18359C13.8333 3.18359 14.5417 3.47526 15.125 4.05859C15.7083 4.64193 16 5.35026 16 6.18359C16 7.01693 15.7083 7.72526 15.125 8.30859C14.5417 8.89193 13.8333 9.18359 13 9.18359ZM6 12.1836C5.45 12.1836 4.97933 11.9879 4.588 11.5966C4.19667 11.2053 4.00067 10.7343 4 10.1836V2.18359C4 1.63359 4.196 1.16293 4.588 0.771594C4.98 0.38026 5.45067 0.18426 6 0.183594H20C20.55 0.183594 21.021 0.379594 21.413 0.771594C21.805 1.16359 22.0007 1.63426 22 2.18359V10.1836C22 10.7336 21.8043 11.2046 21.413 11.5966C21.0217 11.9886 20.5507 12.1843 20 12.1836H6ZM8 10.1836H18C18 9.63359 18.196 9.16293 18.588 8.77159C18.98 8.38026 19.4507 8.18426 20 8.18359V4.18359C19.45 4.18359 18.9793 3.98793 18.588 3.59659C18.1967 3.20526 18.0007 2.73426 18 2.18359H8C8 2.73359 7.80433 3.20459 7.413 3.59659C7.02167 3.98859 6.55067 4.18426 6 4.18359V8.18359C6.55 8.18359 7.021 8.37959 7.413 8.77159C7.805 9.16359 8.00067 9.63426 8 10.1836ZM18 16.1836H2C1.45 16.1836 0.979333 15.9879 0.588 15.5966C0.196667 15.2053 0.000666667 14.7343 0 14.1836V4.18359C0 3.90026 0.096 3.66293 0.288 3.47159C0.48 3.28026 0.717333 3.18426 1 3.18359C1.28267 3.18293 1.52033 3.27893 1.713 3.47159C1.90567 3.66426 2.00133 3.90159 2 4.18359V14.1836H18C18.2833 14.1836 18.521 14.2796 18.713 14.4716C18.905 14.6636 19.0007 14.9009 19 15.1836C18.9993 15.4663 18.9033 15.7039 18.712 15.8966C18.5207 16.0893 18.2833 16.1849 18 16.1836Z" fill="#263238"/>
</svg>
