<svg width="18" height="18" viewBox="0 0 18 18" fill="none" xmlns="http://www.w3.org/2000/svg">
<path d="M9 5.25C9 5.25 9 5.25 8.43 4.5C7.77 3.63 6.795 3 5.625 3C3.7575 3 2.25 4.5075 2.25 6.375C2.25 7.0725 2.46 7.7175 2.82 8.25C3.4275 9.1575 9 15 9 15M9 5.25C9 5.25 9 5.25 9.57 4.5C10.23 3.63 11.205 3 12.375 3C14.2425 3 15.75 4.5075 15.75 6.375C15.75 7.0725 15.54 7.7175 15.18 8.25C14.5725 9.1575 9 15 9 15" stroke="#ABBFAB" stroke-width="2.33333" stroke-linecap="round" stroke-linejoin="round"/>
</svg>
