<svg width="18" height="18" viewBox="0 0 18 18" fill="none" xmlns="http://www.w3.org/2000/svg">
<path fill-rule="evenodd" clip-rule="evenodd" d="M5.4375 7.5C5.4375 6.55517 5.81283 5.64903 6.48093 4.98093C7.14903 4.31283 8.05517 3.9375 9 3.9375C9.94483 3.9375 10.851 4.31283 11.5191 4.98093C12.1872 5.64903 12.5625 6.55517 12.5625 7.5C12.5625 8.44483 12.1872 9.35097 11.5191 10.0191C10.851 10.6872 9.94483 11.0625 9 11.0625C8.05517 11.0625 7.14903 10.6872 6.48093 10.0191C5.81283 9.35097 5.4375 8.44483 5.4375 7.5ZM9 5.0625C8.35353 5.0625 7.73355 5.31931 7.27643 5.77643C6.81931 6.23355 6.5625 6.85353 6.5625 7.5C6.5625 8.14646 6.81931 8.76645 7.27643 9.22357C7.73355 9.68069 8.35353 9.9375 9 9.9375C9.64646 9.9375 10.2665 9.68069 10.7236 9.22357C11.1807 8.76645 11.4375 8.14646 11.4375 7.5C11.4375 6.85353 11.1807 6.23355 10.7236 5.77643C10.2665 5.31931 9.64646 5.0625 9 5.0625Z" fill="#ABBFAB"/>
<path fill-rule="evenodd" clip-rule="evenodd" d="M2.64298 6.64275C2.77152 5.08798 3.47984 3.63835 4.62741 2.5815C5.77497 1.52466 7.27791 0.937842 8.83798 0.9375H9.16198C10.7221 0.937842 12.225 1.52466 13.3726 2.5815C14.5201 3.63835 15.2285 5.08798 15.357 6.64275C15.5 8.37475 14.9649 10.0946 13.8645 11.4398L10.2697 15.8355C10.1159 16.0236 9.92217 16.1752 9.70258 16.2793C9.48298 16.3834 9.243 16.4374 8.99998 16.4374C8.75697 16.4374 8.51698 16.3834 8.29739 16.2793C8.07779 16.1752 7.88407 16.0236 7.73023 15.8355L4.13548 11.4398C3.03511 10.0946 2.50001 8.37475 2.64298 6.64275ZM8.83798 2.0625C7.56045 2.06304 6.32978 2.54374 5.39009 3.40924C4.4504 4.27474 3.87035 5.46181 3.76498 6.735C3.64594 8.17642 4.09124 9.60775 5.00698 10.7273L8.60173 15.1238C8.65006 15.1829 8.71093 15.2306 8.77993 15.2633C8.84894 15.296 8.92436 15.313 9.00073 15.313C9.07711 15.313 9.15253 15.296 9.22154 15.2633C9.29054 15.2306 9.35141 15.1829 9.39973 15.1238L12.9945 10.7273C13.9097 9.60753 14.3544 8.17622 14.235 6.735C14.1296 5.46168 13.5494 4.2745 12.6096 3.40898C11.6698 2.54346 10.4389 2.06285 9.16123 2.0625H8.83798Z" fill="#ABBFAB"/>
</svg>
