<svg width="24" height="25" viewBox="0 0 24 25" fill="none" xmlns="http://www.w3.org/2000/svg">
<path d="M10.45 13.1588L11.75 14.4588C11.9333 14.6422 12.1667 14.7338 12.45 14.7338C12.7333 14.7338 12.9667 14.6422 13.15 14.4588L16 11.6088V12.2088C16 12.4922 16.096 12.7255 16.288 12.9088C16.48 13.0922 16.7173 13.1838 17 13.1838C17.2827 13.1838 17.5203 13.0882 17.713 12.8968C17.9057 12.7055 18.0013 12.4678 18 12.1838V9.18384C18 8.9005 17.904 8.66317 17.712 8.47184C17.52 8.2805 17.2827 8.1845 17 8.18384H13.975C13.6917 8.18384 13.4583 8.27984 13.275 8.47184C13.0917 8.66384 13 8.90117 13 9.18384C13 9.4665 13.096 9.70417 13.288 9.89684C13.48 10.0895 13.7173 10.1852 14 10.1838H14.575L12.45 12.3338L11.15 11.0338C10.9667 10.8338 10.7333 10.7338 10.45 10.7338C10.1667 10.7338 9.93333 10.8338 9.75 11.0338L6.7 14.0838C6.5 14.2672 6.4 14.5005 6.4 14.7838C6.4 15.0672 6.5 15.3005 6.7 15.4838C6.88333 15.6838 7.11667 15.7838 7.4 15.7838C7.68333 15.7838 7.91667 15.6838 8.1 15.4838L10.45 13.1588ZM5 21.1838C4.45 21.1838 3.97933 20.9882 3.588 20.5968C3.19667 20.2055 3.00067 19.7345 3 19.1838V5.18384C3 4.63384 3.196 4.16317 3.588 3.77184C3.98 3.3805 4.45067 3.1845 5 3.18384H19C19.55 3.18384 20.021 3.37984 20.413 3.77184C20.805 4.16384 21.0007 4.6345 21 5.18384V19.1838C21 19.7338 20.8043 20.2048 20.413 20.5968C20.0217 20.9888 19.5507 21.1845 19 21.1838H5ZM5 19.1838H19V5.18384H5V19.1838Z" fill="currentColor"/>
</svg>
