<svg width="24" height="25" viewBox="0 0 24 25" fill="none" xmlns="http://www.w3.org/2000/svg">
<path d="M10.51 3.84946C10.6976 3.63996 10.9272 3.47237 11.184 3.35763C11.4407 3.2429 11.7188 3.18359 12 3.18359C12.2812 3.18359 12.5592 3.2429 12.816 3.35763C13.0727 3.47237 13.3024 3.63996 13.49 3.84946L14.19 4.63147C14.39 4.85496 14.6378 5.03059 14.9149 5.14536C15.1921 5.26013 15.4915 5.31109 15.791 5.29447L16.841 5.23647C17.1218 5.22098 17.4028 5.26491 17.6655 5.36539C17.9282 5.46586 18.1668 5.62062 18.3656 5.81956C18.5644 6.01849 18.7191 6.25713 18.8194 6.51989C18.9198 6.78265 18.9636 7.06363 18.948 7.34447L18.89 8.39347C18.8735 8.6928 18.9245 8.992 19.0393 9.26895C19.1541 9.5459 19.3296 9.79351 19.553 9.99347L20.335 10.6935C20.5446 10.8811 20.7124 11.1108 20.8272 11.3676C20.942 11.6245 21.0014 11.9026 21.0014 12.184C21.0014 12.4653 20.942 12.7435 20.8272 13.0003C20.7124 13.2572 20.5446 13.4869 20.335 13.6745L19.553 14.3745C19.3295 14.5745 19.1538 14.8223 19.0391 15.0994C18.9243 15.3766 18.8733 15.676 18.89 15.9755L18.948 17.0255C18.9634 17.3063 18.9195 17.5873 18.819 17.85C18.7186 18.1127 18.5638 18.3513 18.3649 18.5501C18.1659 18.7489 17.9273 18.9036 17.6645 19.0039C17.4018 19.1043 17.1208 19.1481 16.84 19.1325L15.791 19.0745C15.4916 19.058 15.1924 19.109 14.9155 19.2238C14.6385 19.3386 14.3909 19.5141 14.191 19.7375L13.491 20.5195C13.3034 20.7291 13.0737 20.8969 12.8168 21.0117C12.56 21.1265 12.2818 21.1859 12.0005 21.1859C11.7191 21.1859 11.4409 21.1265 11.1841 21.0117C10.9273 20.8969 10.6976 20.7291 10.51 20.5195L9.80997 19.7375C9.6099 19.514 9.36213 19.3383 9.085 19.2236C8.80786 19.1088 8.50846 19.0578 8.20896 19.0745L7.15897 19.1325C6.87812 19.1479 6.59717 19.104 6.33445 19.0035C6.07174 18.9031 5.83317 18.7483 5.63433 18.5494C5.43549 18.3504 5.28085 18.1118 5.1805 17.849C5.08015 17.5863 5.03635 17.3053 5.05196 17.0245L5.10997 15.9755C5.12643 15.6761 5.0754 15.3769 4.96064 15.1C4.84588 14.823 4.67033 14.5754 4.44696 14.3755L3.66496 13.6755C3.4553 13.4879 3.28756 13.2582 3.17273 13.0013C3.05789 12.7445 2.99854 12.4663 2.99854 12.185C2.99854 11.9036 3.05789 11.6255 3.17273 11.3686C3.28756 11.1118 3.4553 10.8821 3.66496 10.6945L4.44696 9.99447C4.67046 9.7944 4.84609 9.54663 4.96086 9.2695C5.07563 8.99236 5.12659 8.69296 5.10997 8.39347L5.05196 7.34347C5.03663 7.0627 5.08067 6.78186 5.18121 6.51927C5.28175 6.25667 5.43653 6.01823 5.63545 5.8195C5.83437 5.62077 6.07296 5.46621 6.33564 5.36592C6.59833 5.26563 6.87922 5.22186 7.15996 5.23747L8.20896 5.29547C8.5083 5.31193 8.8075 5.2609 9.08445 5.14614C9.3614 5.03138 9.60901 4.85583 9.80896 4.63247L10.51 3.84946Z" stroke="currentColor" stroke-width="1.66667"/>
<path d="M9.5 9.68359H9.51V9.69359H9.5V9.68359ZM14.5 14.6836H14.51V14.6936H14.5V14.6836Z" stroke="currentColor" stroke-width="2.5" stroke-linejoin="round"/>
<path d="M15 9.18359L9 15.1836" stroke="currentColor" stroke-width="1.66667" stroke-linecap="round" stroke-linejoin="round"/>
</svg>
