<svg width="20" height="21" viewBox="0 0 20 21" fill="none" xmlns="http://www.w3.org/2000/svg">
<path d="M8.50996 1.84946C8.69755 1.63996 8.92721 1.47237 9.18396 1.35763C9.4407 1.2429 9.71875 1.18359 9.99996 1.18359C10.2812 1.18359 10.5592 1.2429 10.816 1.35763C11.0727 1.47237 11.3024 1.63996 11.49 1.84946L12.19 2.63147C12.39 2.85496 12.6378 3.03059 12.9149 3.14536C13.1921 3.26013 13.4915 3.31109 13.791 3.29447L14.841 3.23647C15.1218 3.22098 15.4028 3.26491 15.6655 3.36539C15.9282 3.46586 16.1668 3.62062 16.3656 3.81956C16.5644 4.01849 16.7191 4.25713 16.8194 4.51989C16.9198 4.78265 16.9636 5.06363 16.948 5.34447L16.89 6.39347C16.8735 6.6928 16.9245 6.992 17.0393 7.26895C17.1541 7.5459 17.3296 7.79351 17.553 7.99347L18.335 8.69347C18.5446 8.88106 18.7124 9.11078 18.8272 9.36761C18.942 9.62445 19.0014 9.90263 19.0014 10.184C19.0014 10.4653 18.942 10.7435 18.8272 11.0003C18.7124 11.2572 18.5446 11.4869 18.335 11.6745L17.553 12.3745C17.3295 12.5745 17.1538 12.8223 17.0391 13.0994C16.9243 13.3766 16.8733 13.676 16.89 13.9755L16.948 15.0255C16.9634 15.3063 16.9195 15.5873 16.819 15.85C16.7186 16.1127 16.5638 16.3513 16.3649 16.5501C16.1659 16.7489 15.9273 16.9036 15.6645 17.0039C15.4018 17.1043 15.1208 17.1481 14.84 17.1325L13.791 17.0745C13.4916 17.058 13.1924 17.109 12.9155 17.2238C12.6385 17.3386 12.3909 17.5141 12.191 17.7375L11.491 18.5195C11.3034 18.7291 11.0737 18.8969 10.8168 19.0117C10.56 19.1265 10.2818 19.1859 10.0005 19.1859C9.71912 19.1859 9.44095 19.1265 9.18411 19.0117C8.92728 18.8969 8.69756 18.7291 8.50996 18.5195L7.80997 17.7375C7.6099 17.514 7.36213 17.3383 7.085 17.2236C6.80786 17.1088 6.50846 17.0578 6.20896 17.0745L5.15897 17.1325C4.87812 17.1479 4.59717 17.104 4.33445 17.0035C4.07174 16.9031 3.83317 16.7483 3.63433 16.5494C3.43549 16.3504 3.28085 16.1118 3.1805 15.849C3.08015 15.5863 3.03635 15.3053 3.05196 15.0245L3.10997 13.9755C3.12643 13.6761 3.0754 13.3769 2.96064 13.1C2.84588 12.823 2.67033 12.5754 2.44696 12.3755L1.66496 11.6755C1.4553 11.4879 1.28756 11.2582 1.17273 11.0013C1.05789 10.7445 0.998535 10.4663 0.998535 10.185C0.998535 9.90363 1.05789 9.62545 1.17273 9.36862C1.28756 9.11178 1.4553 8.88206 1.66496 8.69447L2.44696 7.99447C2.67046 7.7944 2.84609 7.54663 2.96086 7.2695C3.07563 6.99236 3.12659 6.69296 3.10997 6.39347L3.05196 5.34347C3.03663 5.0627 3.08067 4.78186 3.18121 4.51927C3.28175 4.25667 3.43653 4.01823 3.63545 3.8195C3.83437 3.62077 4.07296 3.46621 4.33564 3.36592C4.59833 3.26563 4.87922 3.22186 5.15996 3.23747L6.20896 3.29547C6.5083 3.31193 6.8075 3.2609 7.08445 3.14614C7.3614 3.03138 7.60901 2.85583 7.80896 2.63247L8.50996 1.84946Z" stroke="#263238" stroke-width="1.66667"/>
<path d="M7.5 7.68359H7.51V7.69359H7.5V7.68359ZM12.5 12.6836H12.51V12.6936H12.5V12.6836Z" stroke="#263238" stroke-width="2.5" stroke-linejoin="round"/>
<path d="M13 7.18359L7 13.1836" stroke="#263238" stroke-width="1.66667" stroke-linecap="round" stroke-linejoin="round"/>
</svg>
