<svg width="22" height="21" viewBox="0 0 22 21" fill="none" xmlns="http://www.w3.org/2000/svg">
<path d="M20.5835 1.93359H20.75C21.1625 1.93359 21.5 1.59609 21.5 1.18359C21.5 0.771094 21.1625 0.433594 20.75 0.433594H19.25C18.8375 0.433594 18.5 0.771094 18.5 1.18359C18.5 1.49484 18.692 1.76259 18.9627 1.87584L18.755 2.68359H2.9C1.58 2.68359 0.5 3.75759 0.5 5.12334L0.89 11.4946C1.0025 13.3823 2.78 14.3746 4.3775 14.5013L15.5015 15.3781C15.4805 15.7351 15.7288 16.0741 16.103 16.1618C16.532 16.2601 16.961 16.0171 17.0645 15.6068L17.8625 12.5063C18.6635 12.7568 19.2598 13.6231 19.2598 14.5973V14.6836C19.2598 15.8896 18.3568 16.9336 17.2835 16.9336H1.25C0.83975 16.9336 0.5 17.2201 0.5 17.6506C0.5 18.0811 0.83525 18.4336 1.2455 18.4336H3.125C2.82663 18.4336 2.54048 18.5521 2.3295 18.7631C2.11853 18.9741 2 19.2602 2 19.5586C2 19.857 2.11853 20.1431 2.3295 20.3541C2.54048 20.5651 2.82663 20.6836 3.125 20.6836C3.42337 20.6836 3.70952 20.5651 3.9205 20.3541C4.13147 20.1431 4.25 19.857 4.25 19.5586C4.25 19.2602 4.13147 18.9741 3.9205 18.7631C3.70952 18.5521 3.42337 18.4336 3.125 18.4336H16.625C16.3266 18.4336 16.0405 18.5521 15.8295 18.7631C15.6185 18.9741 15.5 19.2602 15.5 19.5586C15.5 19.857 15.6185 20.1431 15.8295 20.3541C16.0405 20.5651 16.3266 20.6836 16.625 20.6836C16.9234 20.6836 17.2095 20.5651 17.4205 20.3541C17.6315 20.1431 17.75 19.857 17.75 19.5586C17.75 19.2602 17.6315 18.9741 17.4205 18.7631C17.2095 18.5521 16.9234 18.4336 16.625 18.4336H17.3143C19.2073 18.4336 20.75 16.7506 20.75 14.6836V14.5973C20.75 12.8963 19.682 11.4623 18.2367 11.0513L20.5835 1.93359ZM15.212 10.1836H14V7.18359H15.9537L15.212 10.1836ZM16.139 6.43359H14V4.18884L15.4625 4.19034C16.0925 4.19034 16.55 4.77234 16.4 5.37684L16.139 6.43359ZM13.25 4.18809V6.43359H9.965V4.18359L13.25 4.18809ZM9.215 4.18284V6.43359H5.765V4.17909L9.215 4.18284ZM5.015 4.17834V6.43359H2.08325L2 5.07834C2 4.57884 2.405 4.17534 2.9075 4.17534L5.015 4.17834ZM2.12975 7.18359H5.015V10.1836H2.315L2.12975 7.18359ZM2.36075 10.9336H5.015V13.0561L4.505 13.0163C3.5 12.9338 2.45 12.3601 2.39 11.4046L2.36075 10.9336ZM5.765 13.1161V10.9336H9.215V13.3876L5.765 13.1161ZM9.965 13.4461V10.9336H13.25V13.6486C13.25 13.6681 13.2515 13.6871 13.2545 13.7056L9.965 13.4461ZM14 13.6336V10.9336H15.0267L14.5175 12.9938C14.4841 13.1322 14.4203 13.2613 14.3308 13.372C14.2413 13.4826 14.1283 13.572 14 13.6336ZM9.965 7.18359H13.25V10.1836H9.965V7.18359ZM5.765 7.18359H9.215V10.1836H5.765V7.18359Z" fill="#263238"/>
</svg>
