<svg width="16" height="18" viewBox="0 0 16 18" fill="none" xmlns="http://www.w3.org/2000/svg">
<path fill-rule="evenodd" clip-rule="evenodd" d="M14.1875 11.7236V6.15938L11.9375 6.96263V9.28126C11.9375 9.50503 11.8486 9.71964 11.6904 9.87788C11.5321 10.0361 11.3175 10.125 11.0938 10.125C10.87 10.125 10.6554 10.0361 10.4971 9.87788C10.3389 9.71964 10.25 9.50503 10.25 9.28126V7.56563L7.71875 8.47013V15.3191L13.0929 13.3031C13.4144 13.1825 13.6914 12.9666 13.887 12.6844C14.0826 12.4022 14.1874 12.067 14.1875 11.7236ZM11.6518 5.27288L13.4517 4.63051C13.3882 4.58819 13.3224 4.54914 13.2549 4.51351L9.68637 2.73038C9.47885 2.62663 9.25215 2.56678 9.02045 2.55459C8.78875 2.54239 8.55702 2.57811 8.33975 2.65951L7.28113 3.05663L11.4706 5.15138C11.5381 5.18513 11.5981 5.22563 11.6506 5.27288M5.1245 3.86438L9.48725 6.04688L6.93012 6.95926L2.6495 4.81838C2.7305 4.77113 2.81675 4.73026 2.90825 4.69576L5.1245 3.86438ZM6.03125 8.39701L1.8125 6.28763V11.9768C1.81251 12.2903 1.89988 12.5977 2.06481 12.8643C2.22974 13.131 2.46571 13.3465 2.74625 13.4865L6.03125 15.129V8.39701ZM0.125 6.27638C0.125 5.78588 0.23075 5.31338 0.42425 4.88588C0.458014 4.72851 0.536084 4.58408 0.64925 4.46963C1.034 3.86213 1.61113 3.38063 2.31425 3.11626L7.74913 1.08001C8.1836 0.917039 8.64701 0.845416 9.11041 0.869612C9.57381 0.893808 10.0272 1.0133 10.4424 1.22063L14.0109 3.00488C14.5711 3.28537 15.0423 3.71629 15.3715 4.24938C15.7007 4.78248 15.8751 5.39669 15.875 6.02326V11.7236C15.875 12.4107 15.6652 13.0814 15.2738 13.6461C14.8824 14.2108 14.328 14.6426 13.6846 14.8838L8.25313 16.92C7.81849 17.0831 7.35488 17.1548 6.89127 17.1306C6.42767 17.1064 5.97404 16.9869 5.55875 16.7794L1.99025 14.9951C1.42977 14.7148 0.958404 14.2839 0.628965 13.7508C0.299526 13.2177 0.125021 12.6034 0.125 11.9768V6.27638Z" fill="#ABBFAB"/>
</svg>
