<svg width="24" height="25" viewBox="0 0 24 25" fill="none" xmlns="http://www.w3.org/2000/svg">
<path fill-rule="evenodd" clip-rule="evenodd" d="M20.25 15.8153V8.39631L17.25 9.46731V12.5588C17.25 12.8572 17.1315 13.1433 16.9205 13.3543C16.7095 13.5653 16.4234 13.6838 16.125 13.6838C15.8266 13.6838 15.5405 13.5653 15.3295 13.3543C15.1185 13.1433 15 12.8572 15 12.5588V10.2713L11.625 11.4773V20.6093L18.7905 17.9213C19.2192 17.7605 19.5885 17.4727 19.8493 17.0964C20.1101 16.7201 20.2499 16.2731 20.25 15.8153ZM16.869 7.21431L19.269 6.35781C19.1842 6.30138 19.0966 6.24932 19.0065 6.20181L14.2485 3.82431C13.9718 3.68597 13.6695 3.60617 13.3606 3.58991C13.0517 3.57365 12.7427 3.62128 12.453 3.72981L11.0415 4.25931L16.6275 7.05231C16.7175 7.09731 16.7975 7.15131 16.8675 7.21431M8.166 5.33631L13.983 8.24631L10.5735 9.46281L4.866 6.60831C4.974 6.54531 5.089 6.49081 5.211 6.44481L8.166 5.33631ZM9.375 11.3798L3.75 8.56731V16.1528C3.75001 16.5709 3.86651 16.9807 4.08642 17.3362C4.30633 17.6918 4.62095 17.9791 4.995 18.1658L9.375 20.3558V11.3798ZM1.5 8.55231C1.5 7.89831 1.641 7.26831 1.899 6.69831C1.94402 6.48848 2.04811 6.29591 2.199 6.14331C2.712 5.33331 3.4815 4.69131 4.419 4.33881L11.6655 1.62381C12.2448 1.40652 12.8627 1.31102 13.4805 1.34328C14.0984 1.37554 14.703 1.53487 15.2565 1.81131L20.0145 4.19031C20.7615 4.56429 21.3897 5.13885 21.8287 5.84964C22.2677 6.56043 22.5001 7.37939 22.5 8.21481V15.8153C22.5 16.7314 22.2203 17.6257 21.6984 18.3786C21.1766 19.1315 20.4373 19.7073 19.5795 20.0288L12.3375 22.7438C11.758 22.9613 11.1398 23.0569 10.5217 23.0247C9.90356 22.9924 9.29872 22.833 8.745 22.5563L3.987 20.1773C3.23969 19.8035 2.61121 19.2291 2.17195 18.5183C1.7327 17.8074 1.50003 16.9884 1.5 16.1528V8.55231Z" fill="#263238"/>
</svg>
