<svg width="16" height="21" viewBox="0 0 16 21" fill="none" xmlns="http://www.w3.org/2000/svg">
<path d="M0 2.18359C0 1.65316 0.210714 1.14445 0.585786 0.76938C0.960859 0.394307 1.46957 0.183594 2 0.183594H10C10.2652 0.18365 10.5195 0.289044 10.707 0.476594L15.707 5.47659C15.8946 5.66409 15.9999 5.9184 16 6.18359V18.1836C16 18.714 15.7893 19.2227 15.4142 19.5978C15.0391 19.9729 14.5304 20.1836 14 20.1836H2C1.46957 20.1836 0.960859 19.9729 0.585786 19.5978C0.210714 19.2227 0 18.714 0 18.1836V2.18359ZM13.586 6.18359L10 2.59759V6.18359H13.586ZM8 2.18359H2V18.1836H14V8.18359H9C8.73478 8.18359 8.48043 8.07824 8.29289 7.8907C8.10536 7.70316 8 7.44881 8 7.18359V2.18359ZM4 11.1836C4 10.9184 4.10536 10.664 4.29289 10.4765C4.48043 10.289 4.73478 10.1836 5 10.1836H11C11.2652 10.1836 11.5196 10.289 11.7071 10.4765C11.8946 10.664 12 10.9184 12 11.1836C12 11.4488 11.8946 11.7032 11.7071 11.8907C11.5196 12.0782 11.2652 12.1836 11 12.1836H5C4.73478 12.1836 4.48043 12.0782 4.29289 11.8907C4.10536 11.7032 4 11.4488 4 11.1836ZM4 15.1836C4 14.9184 4.10536 14.664 4.29289 14.4765C4.48043 14.2889 4.73478 14.1836 5 14.1836H11C11.2652 14.1836 11.5196 14.2889 11.7071 14.4765C11.8946 14.664 12 14.9184 12 15.1836C12 15.4488 11.8946 15.7032 11.7071 15.8907C11.5196 16.0782 11.2652 16.1836 11 16.1836H5C4.73478 16.1836 4.48043 16.0782 4.29289 15.8907C4.10536 15.7032 4 15.4488 4 15.1836Z" fill="white"/>
</svg>
