<svg width="22" height="18" viewBox="0 0 22 18" fill="none" xmlns="http://www.w3.org/2000/svg">
<path d="M5.70406 10.7295C5.59918 10.625 5.51597 10.5008 5.45918 10.3641C5.4024 10.2273 5.37318 10.0807 5.37318 9.93266C5.37318 9.78459 5.4024 9.63798 5.45918 9.50124C5.51597 9.36449 5.59918 9.2403 5.70406 9.13578L7.95406 6.88578C8.16541 6.67444 8.45205 6.5557 8.75094 6.55571C9.04982 6.55571 9.33647 6.67444 9.54781 6.88578C9.75916 7.09713 9.87789 7.38377 9.87789 7.68266C9.87789 7.98154 9.75916 8.26819 9.54781 8.47953L9.21875 8.80859H14.375V6.93359C14.375 6.63523 14.4935 6.34908 14.7045 6.1381C14.9155 5.92712 15.2016 5.80859 15.5 5.80859C15.7984 5.80859 16.0845 5.92712 16.2955 6.1381C16.5065 6.34908 16.625 6.63523 16.625 6.93359V9.93359C16.625 10.232 16.5065 10.5181 16.2955 10.7291C16.0845 10.9401 15.7984 11.0586 15.5 11.0586H9.21875L9.54875 11.3877C9.76009 11.599 9.87883 11.8856 9.87883 12.1845C9.87883 12.4834 9.76009 12.7701 9.54875 12.9814C9.33741 13.1927 9.05076 13.3115 8.75187 13.3115C8.45299 13.3115 8.16634 13.1927 7.955 12.9814L5.70406 10.7295ZM21.125 2.43359V15.9336C21.125 16.4309 20.9275 16.9078 20.5758 17.2594C20.2242 17.611 19.7473 17.8086 19.25 17.8086H2.75C2.25272 17.8086 1.77581 17.611 1.42417 17.2594C1.07254 16.9078 0.875 16.4309 0.875 15.9336V2.43359C0.875 1.93631 1.07254 1.4594 1.42417 1.10777C1.77581 0.756138 2.25272 0.558594 2.75 0.558594H19.25C19.7473 0.558594 20.2242 0.756138 20.5758 1.10777C20.9275 1.4594 21.125 1.93631 21.125 2.43359ZM18.875 2.80859H3.125V15.5586H18.875V2.80859Z" fill="white"/>
</svg>
