<svg width="24" height="25" viewBox="0 0 24 25" fill="none" xmlns="http://www.w3.org/2000/svg">
<path d="M19 18.1838C19.55 18.1838 20 18.6338 20 19.1838C20 19.7338 19.55 20.1838 19 20.1838H12C11.45 20.1838 11 19.7338 11 19.1838C11 18.6338 11.45 18.1838 12 18.1838H19ZM19 16.1838H12C10.346 16.1838 9 17.5298 9 19.1838C9 20.8378 10.346 22.1838 12 22.1838H19C20.654 22.1838 22 20.8378 22 19.1838C22 17.5298 20.654 16.1838 19 16.1838ZM19 11.1838C19.55 11.1838 20 11.6338 20 12.1838C20 12.7338 19.55 13.1838 19 13.1838H12C11.45 13.1838 11 12.7338 11 12.1838C11 11.6338 11.45 11.1838 12 11.1838H19ZM19 9.18384H12C10.346 9.18384 9 10.5298 9 12.1838C9 13.8378 10.346 15.1838 12 15.1838H19C20.654 15.1838 22 13.8378 22 12.1838C22 10.5298 20.654 9.18384 19 9.18384ZM19 4.18384C19.55 4.18384 20 4.63384 20 5.18384C20 5.73384 19.55 6.18384 19 6.18384H12C11.45 6.18384 11 5.73384 11 5.18384C11 4.63384 11.45 4.18384 12 4.18384H19ZM19 2.18384H12C10.346 2.18384 9 3.52984 9 5.18384C9 6.83784 10.346 8.18384 12 8.18384H19C20.654 8.18384 22 6.83784 22 5.18384C22 3.52984 20.654 2.18384 19 2.18384ZM6 16.1838H4C3.46957 16.1838 2.96086 16.3946 2.58579 16.7696C2.21071 17.1447 2 17.6534 2 18.1838V20.1838C2 20.7143 2.21071 21.223 2.58579 21.5981C2.96086 21.9731 3.46957 22.1838 4 22.1838H6C6.53043 22.1838 7.03914 21.9731 7.41421 21.5981C7.78929 21.223 8 20.7143 8 20.1838V18.1838C8 17.6534 7.78929 17.1447 7.41421 16.7696C7.03914 16.3946 6.53043 16.1838 6 16.1838ZM6 20.1838H4V18.1838H6V20.1838ZM6 9.18384H4C3.46957 9.18384 2.96086 9.39455 2.58579 9.76962C2.21071 10.1447 2 10.6534 2 11.1838V13.1838C2 13.7143 2.21071 14.223 2.58579 14.5981C2.96086 14.9731 3.46957 15.1838 4 15.1838H6C6.53043 15.1838 7.03914 14.9731 7.41421 14.5981C7.78929 14.223 8 13.7143 8 13.1838V11.1838C8 10.6534 7.78929 10.1447 7.41421 9.76962C7.03914 9.39455 6.53043 9.18384 6 9.18384ZM6 13.1838H4V11.1838H6V13.1838ZM6 2.18384H4C3.46957 2.18384 2.96086 2.39455 2.58579 2.76962C2.21071 3.1447 2 3.6534 2 4.18384V6.18384C2 6.71427 2.21071 7.22298 2.58579 7.59805C2.96086 7.97312 3.46957 8.18384 4 8.18384H6C6.53043 8.18384 7.03914 7.97312 7.41421 7.59805C7.78929 7.22298 8 6.71427 8 6.18384V4.18384C8 3.6534 7.78929 3.1447 7.41421 2.76962C7.03914 2.39455 6.53043 2.18384 6 2.18384ZM6 6.18384H4V4.18384H6V6.18384Z" fill="currentColor"/>
</svg>
