<svg width="22" height="20" viewBox="0 0 22 20" fill="none" xmlns="http://www.w3.org/2000/svg">
<path d="M3.5 4.55859C3.5 3.46458 3.9346 2.41537 4.70818 1.64178C5.48177 0.868191 6.53098 0.433594 7.625 0.433594C8.71902 0.433594 9.76823 0.868191 10.5418 1.64178C11.3154 2.41537 11.75 3.46458 11.75 4.55859C11.75 5.65261 11.3154 6.70182 10.5418 7.47541C9.76823 8.249 8.71902 8.68359 7.625 8.68359C6.53098 8.68359 5.48177 8.249 4.70818 7.47541C3.9346 6.70182 3.5 5.65261 3.5 4.55859ZM13.25 6.80859C13.25 6.36538 13.3373 5.92651 13.5069 5.51704C13.6765 5.10756 13.9251 4.73551 14.2385 4.42211C14.5519 4.10871 14.924 3.86011 15.3334 3.6905C15.7429 3.52089 16.1818 3.43359 16.625 3.43359C17.0682 3.43359 17.5071 3.52089 17.9166 3.6905C18.326 3.86011 18.6981 4.10871 19.0115 4.42211C19.3249 4.73551 19.5735 5.10756 19.7431 5.51704C19.9127 5.92651 20 6.36538 20 6.80859C20 7.7037 19.6444 8.56214 19.0115 9.19508C18.3786 9.82801 17.5201 10.1836 16.625 10.1836C15.7299 10.1836 14.8715 9.82801 14.2385 9.19508C13.6056 8.56214 13.25 7.7037 13.25 6.80859ZM0.5 17.3086C0.5 15.4189 1.25067 13.6067 2.58686 12.2705C3.92306 10.9343 5.73533 10.1836 7.625 10.1836C9.51467 10.1836 11.3269 10.9343 12.6631 12.2705C13.9993 13.6067 14.75 15.4189 14.75 17.3086V17.3116L14.749 17.4306C14.7469 17.5578 14.7125 17.6823 14.6489 17.7925C14.5854 17.9027 14.495 17.995 14.386 18.0606C12.3451 19.2894 10.0072 19.9371 7.625 19.9336C5.153 19.9336 2.839 19.2496 0.865 18.0606C0.755851 17.9951 0.665167 17.9029 0.601487 17.7927C0.537806 17.6825 0.503225 17.5579 0.501 17.4306L0.5 17.3086ZM16.25 17.3116L16.249 17.4556C16.2434 17.7889 16.1638 18.1168 16.016 18.4156C16.2173 18.4276 16.4203 18.4336 16.625 18.4336C18.221 18.4336 19.732 18.0636 21.076 17.4046C21.1973 17.3453 21.3004 17.2544 21.3743 17.1414C21.4482 17.0284 21.4903 16.8975 21.496 16.7626L21.5 16.5586C21.5001 15.7364 21.2923 14.9276 20.8959 14.2073C20.4995 13.487 19.9274 12.8786 19.2327 12.4388C18.538 11.999 17.7434 11.7421 16.9228 11.6919C16.1021 11.6416 15.2821 11.7998 14.539 12.1516C15.6513 13.6406 16.2512 15.45 16.249 17.3086L16.25 17.3116Z" fill="#263238"/>
</svg>
