<svg width="16" height="21" viewBox="0 0 16 21" fill="none" xmlns="http://www.w3.org/2000/svg">
<path d="M8 0.183594C3.6 0.183594 0 3.78359 0 8.18359C0 13.5836 7 19.6836 7.3 19.9836C7.5 20.0836 7.8 20.1836 8 20.1836C8.2 20.1836 8.5 20.0836 8.7 19.9836C9 19.6836 16 13.5836 16 8.18359C16 3.78359 12.4 0.183594 8 0.183594ZM8 17.8836C5.9 15.8836 2 11.5836 2 8.18359C2 4.88359 4.7 2.18359 8 2.18359C11.3 2.18359 14 4.88359 14 8.18359C14 11.4836 10.1 15.8836 8 17.8836ZM8 4.18359C5.8 4.18359 4 5.98359 4 8.18359C4 10.3836 5.8 12.1836 8 12.1836C10.2 12.1836 12 10.3836 12 8.18359C12 5.98359 10.2 4.18359 8 4.18359ZM8 10.1836C6.9 10.1836 6 9.28359 6 8.18359C6 7.08359 6.9 6.18359 8 6.18359C9.1 6.18359 10 7.08359 10 8.18359C10 9.28359 9.1 10.1836 8 10.1836Z" fill="#263238"/>
</svg>
