<svg width="24" height="24" viewBox="0 0 24 24" fill="none" xmlns="http://www.w3.org/2000/svg">
<path d="M21.4769 9.08502L14.0648 2.98907C12.8678 2.00707 11.1329 2.00607 9.93586 2.98907L2.52387 9.08404C2.20487 9.34704 2.15784 9.81907 2.42084 10.1401C2.68384 10.4611 3.15687 10.5051 3.47687 10.2431L4.49982 9.40106V18.0001C4.49982 20.2901 5.70982 21.5001 7.99982 21.5001H15.9998C18.2898 21.5001 19.4998 20.2901 19.4998 18.0001V9.40204L20.5228 10.2441C20.6628 10.3591 20.8318 10.4151 20.9998 10.4151C21.2158 10.4151 21.4308 10.322 21.5788 10.142C21.8428 9.82003 21.7959 9.34802 21.4769 9.08502ZM14.4998 20.0001H9.49982V16.5001C9.49982 15.1191 10.6188 14.0001 11.9998 14.0001C13.3808 14.0001 14.4998 15.1191 14.4998 16.5001V20.0001Z" fill="white" fill-opacity="0.6"/>
</svg>
