<svg
  width="243"
  height="43"
  viewBox="0 0 243 43"
  fill="none"
  xmlns="http://www.w3.org/2000/svg"
>
  <path
    d="M242.5 40.8586H0.5V44.8586H242.5V40.8586Z"
    fill="#005B6C"
    fill-opacity="0.62"
    mask="url(#path-1-inside-1_1209_34741)"
  />
  <path
    d="M28.7611 25.2736L26.9461 28.3786H24.6661V28.2286L27.5011 24.0136L28.7611 25.2736ZM35.8261 25.8586C35.1761 25.8586 34.6361 25.7636 34.2061 25.5736C33.7861 25.3836 33.4311 25.0986 33.1411 24.7186C32.8511 24.3286 32.5811 23.8286 32.3311 23.2186L31.1161 20.0086L32.0161 20.2936C31.4361 20.3136 30.9311 20.4086 30.5011 20.5786C30.0711 20.7486 29.7111 20.9586 29.4211 21.2086C29.1411 21.4486 28.9311 21.7136 28.7911 22.0036C28.6611 22.2836 28.5961 22.5636 28.5961 22.8436C28.5961 23.2436 28.7011 23.5786 28.9111 23.8486C29.1211 24.1086 29.3911 24.3036 29.7211 24.4336C30.0611 24.5636 30.4111 24.6286 30.7711 24.6286C31.3011 24.6286 31.8011 24.5536 32.2711 24.4036C32.7411 24.2536 33.1211 24.0936 33.4111 23.9236L33.5911 24.0736L33.1861 25.8136C32.7261 26.0436 32.2511 26.2186 31.7611 26.3386C31.2811 26.4586 30.8361 26.5186 30.4261 26.5186C30.0961 26.5186 29.7511 26.4786 29.3911 26.3986C29.0411 26.3186 28.6961 26.1936 28.3561 26.0236C28.0261 25.8636 27.7261 25.6486 27.4561 25.3786C27.1861 25.1086 26.9711 24.7786 26.8111 24.3886C26.6611 23.9986 26.5861 23.5436 26.5861 23.0236C26.5861 22.2736 26.7511 21.6086 27.0811 21.0286C27.4211 20.4486 27.8711 19.9636 28.4311 19.5736C29.0011 19.1736 29.6311 18.8736 30.3211 18.6736C31.0111 18.4736 31.7161 18.3736 32.4361 18.3736L32.6911 18.5086L33.9661 22.1236C34.1961 22.7736 34.4811 23.2586 34.8211 23.5786C35.1611 23.8886 35.5961 24.0436 36.1261 24.0436V25.5586L35.8261 25.8586ZM49.3139 25.8586L50.8139 24.0436H54.8939L54.8789 25.5586L54.5789 25.8586H49.3139ZM35.8289 25.8586V24.3436L36.1289 24.0436H49.3139C49.9639 24.0436 50.4289 23.9486 50.7089 23.7586C50.9889 23.5686 51.1289 23.2636 51.1289 22.8436C51.1289 22.5136 51.0439 22.1736 50.8739 21.8236C50.7039 21.4636 50.4839 21.1486 50.2139 20.8786L51.1439 21.0586C50.7839 21.1386 50.4739 21.1986 50.2139 21.2386C49.9539 21.2786 49.6989 21.3086 49.4489 21.3286C49.2089 21.3386 48.9289 21.3436 48.6089 21.3436H38.7539C38.3839 21.3436 38.0589 21.2436 37.7789 21.0436C37.5089 20.8336 37.3539 20.4536 37.3139 19.9036L43.1789 14.4736H43.3289L44.1689 15.7786L39.4289 20.0986L39.0989 19.5286H48.8639C49.3039 19.5286 49.7439 19.5186 50.1839 19.4986C50.6239 19.4686 50.9939 19.4186 51.2939 19.3486H51.4739C51.7239 19.5786 51.9739 19.8686 52.2239 20.2186C52.4839 20.5686 52.7039 20.9536 52.8839 21.3736C53.0639 21.7836 53.1539 22.2136 53.1539 22.6636C53.1539 23.0836 53.0689 23.4836 52.8989 23.8636C52.7389 24.2336 52.4639 24.5586 52.0739 24.8386L51.3389 25.5586C51.0789 25.6586 50.7839 25.7336 50.4539 25.7836C50.1339 25.8336 49.7689 25.8586 49.3589 25.8586H35.8289ZM54.5936 25.8586V24.3436L54.8936 24.0436H62.2886L61.8086 24.2836C61.2886 24.0136 60.7236 23.6186 60.1136 23.0986C59.5036 22.5686 58.8636 21.9386 58.1936 21.2086C57.5236 20.4786 56.8336 19.6686 56.1236 18.7786L57.3836 17.2486H57.5336C58.6436 18.5686 59.6136 19.6686 60.4436 20.5486C61.2836 21.4186 62.0036 22.1136 62.6036 22.6336C63.2136 23.1436 63.7186 23.5086 64.1186 23.7286C64.5286 23.9386 64.8536 24.0436 65.0936 24.0436H65.4386V25.5586L65.1386 25.8586H54.5936ZM65.1328 24.0436H67.8478L67.1278 24.4036C67.0478 24.2736 66.9828 24.0736 66.9328 23.8036C66.8928 23.5236 66.8728 23.1986 66.8728 22.8286V18.2686L68.8378 18.0286H68.9728V24.8986L68.1178 24.0436H71.0278V25.5586L70.7278 25.8586H64.8328V24.3436L65.1328 24.0436ZM69.2128 16.5286C68.9228 16.5286 68.6778 16.4386 68.4778 16.2586C68.2778 16.0686 68.1778 15.8186 68.1778 15.5086C68.1778 15.1886 68.2778 14.9386 68.4778 14.7586C68.6778 14.5686 68.9228 14.4736 69.2128 14.4736C69.5028 14.4736 69.7428 14.5686 69.9328 14.7586C70.1328 14.9386 70.2328 15.1886 70.2328 15.5086C70.2328 15.8186 70.1328 16.0686 69.9328 16.2586C69.7428 16.4386 69.5028 16.5286 69.2128 16.5286ZM66.8128 16.8286C66.5228 16.8286 66.2778 16.7386 66.0778 16.5586C65.8878 16.3686 65.7928 16.1136 65.7928 15.7936C65.7928 15.4736 65.8878 15.2236 66.0778 15.0436C66.2778 14.8636 66.5228 14.7736 66.8128 14.7736C67.1028 14.7736 67.3428 14.8636 67.5328 15.0436C67.7328 15.2236 67.8328 15.4736 67.8328 15.7936C67.8328 16.1136 67.7328 16.3686 67.5328 16.5586C67.3428 16.7386 67.1028 16.8286 66.8128 16.8286ZM70.7215 25.8586V24.3436L71.0215 24.0436H73.7215L73.0015 24.4036C72.9215 24.2736 72.8565 24.0736 72.8065 23.8036C72.7665 23.5236 72.7465 23.1986 72.7465 22.8286V14.6836L74.7115 14.4586H74.8465V23.1586C74.8465 23.3586 74.8465 23.5986 74.8465 23.8786C74.8565 24.1586 74.8665 24.4336 74.8765 24.7036C74.8965 24.9736 74.9265 25.1986 74.9665 25.3786V25.4986C74.6665 25.6186 74.2965 25.7086 73.8565 25.7686C73.4165 25.8286 72.8815 25.8586 72.2515 25.8586H70.7215ZM77.4384 14.6836L79.6434 14.4586L79.6584 14.5786C79.6184 14.7586 79.5884 14.9836 79.5684 15.2536C79.5584 15.5236 79.5484 15.7986 79.5384 16.0786C79.5384 16.3586 79.5384 16.5986 79.5384 16.7986V25.8586H77.4384V14.6836ZM90.9023 23.0536L90.8873 24.4786C90.7473 24.6586 90.5473 24.8586 90.2873 25.0786C90.0273 25.2986 89.7123 25.4836 89.3423 25.6336C88.9723 25.7836 88.5573 25.8586 88.0973 25.8586C87.5773 25.8586 87.1023 25.7436 86.6723 25.5136C86.2523 25.2736 85.9173 24.9436 85.6673 24.5236C85.4273 24.1036 85.3073 23.6036 85.3073 23.0236C85.3073 22.6736 85.3523 22.3386 85.4423 22.0186C85.5423 21.6886 85.7123 21.3636 85.9523 21.0436C86.2023 20.7136 86.5523 20.3936 87.0023 20.0836C87.4623 19.7636 88.0473 19.4386 88.7573 19.1086C89.4773 18.7786 90.3473 18.4386 91.3673 18.0886L90.9023 19.9036C90.3823 20.0936 89.8973 20.2886 89.4473 20.4886C88.9973 20.6786 88.5673 20.8936 88.1573 21.1336C87.7473 21.3736 87.3373 21.6536 86.9273 21.9736L87.6773 21.1336C87.5373 21.3736 87.4323 21.6236 87.3623 21.8836C87.3023 22.1336 87.2723 22.3886 87.2723 22.6486C87.2723 23.1286 87.4123 23.4936 87.6923 23.7436C87.9723 23.9836 88.3123 24.1036 88.7123 24.1036C89.1023 24.1036 89.4773 24.0036 89.8373 23.8036C90.1973 23.6036 90.5523 23.3536 90.9023 23.0536ZM94.2023 25.8586H90.6473V23.9386L90.3473 24.3586V17.6386L92.2973 17.4136H92.4473V24.8986L91.5923 24.0436H94.5023V25.5586L94.2023 25.8586ZM90.2873 16.2886C90.5773 16.2886 90.8173 16.1986 91.0073 16.0186C91.2073 15.8286 91.3073 15.5786 91.3073 15.2686C91.3073 14.9486 91.2073 14.6986 91.0073 14.5186C90.8173 14.3286 90.5773 14.2336 90.2873 14.2336C89.9973 14.2336 89.7523 14.3286 89.5523 14.5186C89.3523 14.6986 89.2523 14.9486 89.2523 15.2686C89.2523 15.5786 89.3523 15.8286 89.5523 16.0186C89.7523 16.1986 89.9973 16.2886 90.2873 16.2886ZM87.8873 16.5886C88.1773 16.5886 88.4173 16.4986 88.6073 16.3186C88.8073 16.1286 88.9073 15.8736 88.9073 15.5536C88.9073 15.2336 88.8073 14.9836 88.6073 14.8036C88.4173 14.6236 88.1773 14.5336 87.8873 14.5336C87.5973 14.5336 87.3523 14.6236 87.1523 14.8036C86.9623 14.9836 86.8673 15.2336 86.8673 15.5536C86.8673 15.8736 86.9623 16.1286 87.1523 16.3186C87.3523 16.4986 87.5973 16.5886 87.8873 16.5886ZM93.8953 25.8586V24.3436L94.1953 24.0436H101.53L101.035 24.2836C100.515 24.0136 99.9503 23.6186 99.3403 23.0986C98.7303 22.5686 98.0903 21.9386 97.4203 21.2086C96.7503 20.4786 96.0603 19.6686 95.3503 18.7786L96.6253 17.2486H96.7603C97.8603 18.5586 98.8253 19.6536 99.6553 20.5336C100.495 21.4036 101.22 22.0936 101.83 22.6036C102.44 23.1136 102.955 23.4836 103.375 23.7136C103.805 23.9336 104.155 24.0436 104.425 24.0436H105.685V24.1786L105.085 25.8586H93.8953ZM106.696 22.4536C106.696 21.8936 106.801 21.3736 107.011 20.8936C107.221 20.4036 107.501 19.9736 107.851 19.6036C108.211 19.2236 108.616 18.9286 109.066 18.7186C109.526 18.5086 109.996 18.4036 110.476 18.4036C110.986 18.4036 111.486 18.5336 111.976 18.7936C112.466 19.0536 112.906 19.4186 113.296 19.8886C113.696 20.3586 114.011 20.9136 114.241 21.5536C114.471 22.1936 114.586 22.8886 114.586 23.6386C114.586 24.9386 114.396 26.0436 114.016 26.9536C113.646 27.8736 113.106 28.5686 112.396 29.0386C111.686 29.5186 110.826 29.7586 109.816 29.7586C109.206 29.7586 108.671 29.6986 108.211 29.5786C107.761 29.4586 107.406 29.3386 107.146 29.2186C106.886 29.0986 106.756 29.0386 106.756 29.0386L107.401 27.4186H107.551C107.951 27.6186 108.376 27.7636 108.826 27.8536C109.276 27.9436 109.676 27.9886 110.026 27.9886C110.496 27.9886 110.891 27.9486 111.211 27.8686C111.541 27.7986 111.846 27.6886 112.126 27.5386L111.496 28.0786C111.746 27.7786 111.946 27.4336 112.096 27.0436C112.246 26.6636 112.351 26.2186 112.411 25.7086C112.481 25.1886 112.516 24.5886 112.516 23.9086C112.516 23.4686 112.466 23.0336 112.366 22.6036C112.266 22.1636 112.106 21.7536 111.886 21.3736C111.676 20.9936 111.401 20.6536 111.061 20.3536C110.721 20.0536 110.306 19.8236 109.816 19.6636L110.911 19.5886C110.161 19.8286 109.601 20.1986 109.231 20.6986C108.871 21.1986 108.691 21.7236 108.691 22.2736C108.691 22.6036 108.781 22.9086 108.961 23.1886C109.141 23.4586 109.406 23.6736 109.756 23.8336C110.116 23.9936 110.556 24.0736 111.076 24.0736H112.921L113.146 24.0436H115.996V25.5586L115.696 25.8586H110.851C110.071 25.8586 109.366 25.7336 108.736 25.4836C108.106 25.2336 107.606 24.8536 107.236 24.3436C106.876 23.8336 106.696 23.2036 106.696 22.4536ZM115.699 24.0436H115.999C116.319 24.0436 116.569 24.0786 116.749 24.1486C116.939 24.2086 117.134 24.2936 117.334 24.4036V14.6836L119.494 14.4586L119.554 14.5786C119.514 14.7586 119.484 14.9836 119.464 15.2536C119.454 15.5236 119.444 15.7986 119.434 16.0786C119.434 16.3586 119.434 16.5986 119.434 16.7986V25.4236C119.714 25.3036 120.029 25.1486 120.379 24.9586C120.739 24.7586 121.099 24.5336 121.459 24.2836C121.829 24.0236 122.154 23.7486 122.434 23.4586V14.6836L124.594 14.4586L124.654 14.5786C124.624 14.7086 124.599 14.8986 124.579 15.1486C124.569 15.3886 124.559 15.6536 124.549 15.9436C124.539 16.2336 124.534 16.5186 124.534 16.7986V23.0236C124.534 23.4836 124.419 23.8886 124.189 24.2386C123.959 24.5786 123.619 24.9036 123.169 25.2136C122.729 25.5236 122.189 25.8486 121.549 26.1886C120.909 26.5286 120.179 26.9186 119.359 27.3586C119.089 27.1286 118.794 26.8986 118.474 26.6686C118.164 26.4386 117.799 26.2436 117.379 26.0836C116.959 25.9336 116.459 25.8586 115.879 25.8586H115.399V24.3436L115.699 24.0436ZM128.86 26.0986C129.36 26.7686 129.895 27.2336 130.465 27.4936C131.045 27.7536 131.585 27.8836 132.085 27.8836C132.365 27.8836 132.605 27.8436 132.805 27.7636C133.015 27.6836 133.25 27.5486 133.51 27.3586L132.88 28.0936C133.01 27.8836 133.12 27.5936 133.21 27.2236C133.31 26.8636 133.385 26.4536 133.435 25.9936C133.495 25.5336 133.525 25.0636 133.525 24.5836V14.6836L135.475 14.4586H135.625V24.2536C135.625 25.5036 135.435 26.5286 135.055 27.3286C134.675 28.1386 134.165 28.7386 133.525 29.1286C132.885 29.5286 132.17 29.7286 131.38 29.7286C130.97 29.7286 130.59 29.6636 130.24 29.5336C129.89 29.4136 129.57 29.2536 129.28 29.0536C129 28.8636 128.755 28.6636 128.545 28.4536C128.325 28.2436 128.15 28.0486 128.02 27.8686L128.725 26.0986H128.86ZM137.721 22.4536C137.721 21.8936 137.826 21.3736 138.036 20.8936C138.246 20.4036 138.526 19.9736 138.876 19.6036C139.236 19.2236 139.641 18.9286 140.091 18.7186C140.551 18.5086 141.021 18.4036 141.501 18.4036C142.011 18.4036 142.511 18.5336 143.001 18.7936C143.491 19.0536 143.931 19.4186 144.321 19.8886C144.721 20.3586 145.036 20.9136 145.266 21.5536C145.496 22.1936 145.611 22.8886 145.611 23.6386C145.611 24.9386 145.421 26.0436 145.041 26.9536C144.671 27.8736 144.131 28.5686 143.421 29.0386C142.711 29.5186 141.851 29.7586 140.841 29.7586C140.231 29.7586 139.696 29.6986 139.236 29.5786C138.786 29.4586 138.431 29.3386 138.171 29.2186C137.911 29.0986 137.781 29.0386 137.781 29.0386L138.426 27.4186H138.576C138.976 27.6186 139.401 27.7636 139.851 27.8536C140.301 27.9436 140.701 27.9886 141.051 27.9886C141.521 27.9886 141.916 27.9486 142.236 27.8686C142.566 27.7986 142.871 27.6886 143.151 27.5386L142.521 28.0786C142.771 27.7786 142.971 27.4336 143.121 27.0436C143.271 26.6636 143.376 26.2186 143.436 25.7086C143.506 25.1886 143.541 24.5886 143.541 23.9086C143.541 23.4686 143.491 23.0336 143.391 22.6036C143.291 22.1636 143.131 21.7536 142.911 21.3736C142.701 20.9936 142.426 20.6536 142.086 20.3536C141.746 20.0536 141.331 19.8236 140.841 19.6636L141.936 19.5886C141.186 19.8286 140.626 20.1986 140.256 20.6986C139.896 21.1986 139.716 21.7236 139.716 22.2736C139.716 22.6036 139.806 22.9086 139.986 23.1886C140.166 23.4586 140.431 23.6736 140.781 23.8336C141.141 23.9936 141.581 24.0736 142.101 24.0736H143.946L144.171 24.0436H147.021V25.5586L146.721 25.8586H141.876C141.096 25.8586 140.391 25.7336 139.761 25.4836C139.131 25.2336 138.631 24.8536 138.261 24.3436C137.901 23.8336 137.721 23.2036 137.721 22.4536ZM146.425 25.8586V24.3436L146.725 24.0436H154.06L153.565 24.2836C153.045 24.0136 152.48 23.6186 151.87 23.0986C151.26 22.5686 150.62 21.9386 149.95 21.2086C149.28 20.4786 148.59 19.6686 147.88 18.7786L149.155 17.2486H149.29C150.39 18.5586 151.355 19.6536 152.185 20.5336C153.025 21.4036 153.75 22.0936 154.36 22.6036C154.97 23.1136 155.485 23.4836 155.905 23.7136C156.335 23.9336 156.685 24.0436 156.955 24.0436H158.215V24.1786L157.615 25.8586H146.425ZM154.09 19.0036C153.8 19.0036 153.555 18.9136 153.355 18.7336C153.165 18.5536 153.07 18.3036 153.07 17.9836C153.07 17.6636 153.165 17.4136 153.355 17.2336C153.555 17.0536 153.8 16.9636 154.09 16.9636C154.38 16.9636 154.62 17.0536 154.81 17.2336C155.01 17.4136 155.11 17.6636 155.11 17.9836C155.11 18.3036 155.01 18.5536 154.81 18.7336C154.62 18.9136 154.38 19.0036 154.09 19.0036ZM158.955 25.7086L159.6 24.0436H165.27C165.62 24.0436 165.905 23.9986 166.125 23.9086C166.355 23.8186 166.525 23.6886 166.635 23.5186C166.755 23.3386 166.815 23.1236 166.815 22.8736C166.815 22.5336 166.73 22.1836 166.56 21.8236C166.4 21.4636 166.18 21.1486 165.9 20.8786L166.845 21.0136C166.475 21.0936 166.16 21.1536 165.9 21.1936C165.64 21.2336 165.39 21.2636 165.15 21.2836C164.91 21.2936 164.625 21.2986 164.295 21.2986H163.74C163.4 21.2986 163.035 21.2886 162.645 21.2686C162.255 21.2386 161.87 21.1886 161.49 21.1186C161.11 21.0486 160.74 20.9486 160.38 20.8186L160.875 19.1536H161.025C161.465 19.3036 161.96 19.4036 162.51 19.4536C163.06 19.5036 163.585 19.5286 164.085 19.5286H164.565C165.005 19.5286 165.44 19.5186 165.87 19.4986C166.31 19.4686 166.68 19.4186 166.98 19.3486H167.16C167.42 19.5986 167.68 19.9086 167.94 20.2786C168.2 20.6486 168.42 21.0536 168.6 21.4936C168.78 21.9336 168.87 22.3886 168.87 22.8586C168.87 23.2786 168.805 23.6686 168.675 24.0286C168.545 24.3886 168.34 24.7086 168.06 24.9886C167.78 25.2586 167.415 25.4736 166.965 25.6336C166.515 25.7836 165.97 25.8586 165.33 25.8586H158.955V25.7086ZM179.999 25.8586V24.0436H182.549V25.5586L182.249 25.8586H179.999ZM173.669 26.0986C174.169 26.7686 174.704 27.2336 175.274 27.4936C175.854 27.7536 176.394 27.8836 176.894 27.8836C177.174 27.8836 177.414 27.8436 177.614 27.7636C177.824 27.6836 178.059 27.5486 178.319 27.3586L177.689 28.0936C177.819 27.8836 177.929 27.5936 178.019 27.2236C178.119 26.8636 178.194 26.4536 178.244 25.9936C178.304 25.5336 178.334 25.0636 178.334 24.5836V14.6836L180.284 14.4586H180.434V24.2536C180.434 25.5036 180.244 26.5286 179.864 27.3286C179.484 28.1386 178.974 28.7386 178.334 29.1286C177.694 29.5286 176.979 29.7286 176.189 29.7286C175.779 29.7286 175.399 29.6636 175.049 29.5336C174.699 29.4136 174.379 29.2536 174.089 29.0536C173.809 28.8636 173.564 28.6636 173.354 28.4536C173.134 28.2436 172.959 28.0486 172.829 27.8686L173.534 26.0986H173.669ZM182.555 24.0436H185.27L184.55 24.4036C184.47 24.2736 184.405 24.0736 184.355 23.8036C184.315 23.5236 184.295 23.1986 184.295 22.8286V18.2686L186.26 18.0286H186.395V24.8986L185.54 24.0436H188.45V25.5586L188.15 25.8586H182.255V24.3436L182.555 24.0436ZM184.865 28.0786C184.865 27.7586 184.965 27.5086 185.165 27.3286C185.365 27.1486 185.605 27.0586 185.885 27.0586C186.175 27.0586 186.42 27.1486 186.62 27.3286C186.82 27.5086 186.92 27.7586 186.92 28.0786C186.92 28.3986 186.82 28.6486 186.62 28.8286C186.42 29.0086 186.175 29.0986 185.885 29.0986C185.605 29.0986 185.365 29.0086 185.165 28.8286C184.965 28.6486 184.865 28.3986 184.865 28.0786ZM182.465 28.3636C182.465 28.0536 182.565 27.8036 182.765 27.6136C182.965 27.4336 183.21 27.3436 183.5 27.3436C183.78 27.3436 184.02 27.4336 184.22 27.6136C184.42 27.8036 184.52 28.0536 184.52 28.3636C184.52 28.6836 184.42 28.9336 184.22 29.1136C184.03 29.3036 183.785 29.3986 183.485 29.3986C183.205 29.3986 182.965 29.3036 182.765 29.1136C182.565 28.9336 182.465 28.6836 182.465 28.3636ZM188.143 25.8586V24.3436L188.443 24.0436H195.838L195.358 24.2836C194.838 24.0136 194.273 23.6186 193.663 23.0986C193.053 22.5686 192.413 21.9386 191.743 21.2086C191.073 20.4786 190.383 19.6686 189.673 18.7786L190.933 17.2486H191.083C192.193 18.5686 193.163 19.6686 193.993 20.5486C194.833 21.4186 195.553 22.1136 196.153 22.6336C196.763 23.1436 197.268 23.5086 197.668 23.7286C198.078 23.9386 198.403 24.0436 198.643 24.0436H198.988V25.5586L198.688 25.8586H188.143ZM191.743 28.3486C191.743 28.0286 191.843 27.7786 192.043 27.5986C192.243 27.4186 192.488 27.3286 192.778 27.3286C193.058 27.3286 193.298 27.4186 193.498 27.5986C193.698 27.7786 193.798 28.0286 193.798 28.3486C193.798 28.6686 193.698 28.9186 193.498 29.0986C193.308 29.2786 193.063 29.3686 192.763 29.3686C192.483 29.3686 192.243 29.2786 192.043 29.0986C191.843 28.9186 191.743 28.6686 191.743 28.3486ZM198.383 25.8586V24.3436L198.683 24.0436H201.323L200.603 24.4336C200.523 24.3236 200.468 24.1586 200.438 23.9386C200.418 23.7186 200.408 23.4586 200.408 23.1586V19.2886L202.373 19.0486H202.508V24.9436L201.653 24.0436H205.643L204.923 24.4336C204.843 24.2936 204.788 24.1136 204.758 23.8936C204.738 23.6736 204.728 23.4286 204.728 23.1586V18.7636L206.693 18.5386H206.828V24.9436L205.973 24.0436H210.008L209.288 24.4036C209.198 24.2536 209.133 24.0436 209.093 23.7736C209.063 23.5036 209.048 23.1886 209.048 22.8286V18.2836L211.013 18.0586H211.148V24.9436L210.293 24.0436H213.113V25.5586L212.933 25.8586H198.383ZM212.577 25.8586V24.3436L212.877 24.0436H215.577L214.857 24.4036C214.777 24.2736 214.712 24.0686 214.662 23.7886C214.622 23.5086 214.602 23.1836 214.602 22.8136V18.2686L216.567 18.0286H216.702V23.1586C216.702 23.3586 216.702 23.5986 216.702 23.8786C216.712 24.1586 216.722 24.4336 216.732 24.7036C216.752 24.9736 216.782 25.1986 216.822 25.3786V25.4986C216.522 25.6186 216.152 25.7086 215.712 25.7686C215.272 25.8286 214.737 25.8586 214.107 25.8586H212.577ZM216.897 16.5286C216.607 16.5286 216.362 16.4386 216.162 16.2586C215.962 16.0686 215.862 15.8186 215.862 15.5086C215.862 15.1886 215.962 14.9386 216.162 14.7586C216.362 14.5686 216.607 14.4736 216.897 14.4736C217.187 14.4736 217.427 14.5686 217.617 14.7586C217.817 14.9386 217.917 15.1886 217.917 15.5086C217.917 15.8186 217.817 16.0686 217.617 16.2586C217.427 16.4386 217.187 16.5286 216.897 16.5286ZM214.497 16.8286C214.207 16.8286 213.962 16.7386 213.762 16.5586C213.572 16.3686 213.477 16.1136 213.477 15.7936C213.477 15.4736 213.572 15.2236 213.762 15.0436C213.962 14.8636 214.207 14.7736 214.497 14.7736C214.787 14.7736 215.027 14.8636 215.217 15.0436C215.417 15.2236 215.517 15.4736 215.517 15.7936C215.517 16.1136 215.417 16.3686 215.217 16.5586C215.027 16.7386 214.787 16.8286 214.497 16.8286Z"
    fill="#005B6C"
    fill-opacity="0.62"
  />
</svg>