<svg width="400" height="83" viewBox="0 0 400 83" fill="none" xmlns="http://www.w3.org/2000/svg">
<path d="M47.5 25C46.9477 25 46.5 25.4477 46.5 26C46.5 26.5523 46.9477 27 47.5 27V26V25ZM47.5 26V27H48.5V26V25H47.5V26ZM50.5 26V27H52.5V26V25H50.5V26ZM54.5 26V27H56.5V26V25H54.5V26ZM58.5 26V27H60.5V26V25H58.5V26ZM62.5 26V27H64.5V26V25H62.5V26ZM66.5 26V27H68.5V26V25H66.5V26ZM70.5 26V27H72.5V26V25H70.5V26ZM74.5 26V27H76.5V26V25H74.5V26ZM78.5 26V27H80.5V26V25H78.5V26ZM82.5 26V27H84.5V26V25H82.5V26ZM86.5 26V27H88.5V26V25H86.5V26ZM90.5 26V27H92.5V26V25H90.5V26ZM94.5 26V27H96.5V26V25H94.5V26ZM98.5 26V27H100.5V26V25H98.5V26ZM102.5 26V27H104.5V26V25H102.5V26ZM106.5 26V27H108.5V26V25H106.5V26ZM110.5 26V27H112.5V26V25H110.5V26ZM114.5 26V27H116.5V26V25H114.5V26ZM118.5 26V27H120.5V26V25H118.5V26ZM122.5 26V27H124.5V26V25H122.5V26ZM126.5 26V27H128.5V26V25H126.5V26ZM130.5 26V27H132.5V26V25H130.5V26ZM134.5 26V27H136.5V26V25H134.5V26ZM138.5 26V27H140.5V26V25H138.5V26ZM142.5 26V27H144.5V26V25H142.5V26ZM146.5 26V27H148.5V26V25H146.5V26ZM150.5 26V27H152.5V26V25H150.5V26ZM154.5 26V27H156.5V26V25H154.5V26ZM158.5 26V27H160.5V26V25H158.5V26ZM162.5 26V27H164.5V26V25H162.5V26ZM166.5 26V27H168.5V26V25H166.5V26ZM170.5 26V27H172.5V26V25H170.5V26ZM174.5 26V27H176.5V26V25H174.5V26ZM178.5 26V27H180.5V26V25H178.5V26ZM182.5 26V27H184.5V26V25H182.5V26ZM186.5 26V27H188.5V26V25H186.5V26ZM190.5 26V27H192.5V26V25H190.5V26ZM194.5 26V27H196.5V26V25H194.5V26ZM198.5 26V27H200.5V26V25H198.5V26ZM202.5 26V27H204.5V26V25H202.5V26ZM206.5 26V27H208.5V26V25H206.5V26ZM210.5 26V27H212.5V26V25H210.5V26ZM214.5 26V27H216.5V26V25H214.5V26ZM218.5 26V27H220.5V26V25H218.5V26ZM222.5 26V27H223.5V26V25H222.5V26Z" fill="#C8C8C8"/>
<path d="M221.221 25.29C220.668 25.29 220.221 25.7378 220.221 26.29C220.221 26.8423 220.668 27.29 221.221 27.29L221.221 26.29L221.221 25.29ZM221.221 26.29L221.221 27.29L376.221 27.29L376.221 26.29L376.221 25.29L221.221 25.29L221.221 26.29Z" fill="#A2CDFF"/>
<rect x="27.5" width="48" height="48" rx="16" fill="#D9D9D9"/>
<path d="M47.9385 28.6621C48.3779 28.8496 48.832 28.9932 49.3008 29.0928C49.7754 29.1865 50.25 29.2334 50.7246 29.2334C50.9883 29.2334 51.2725 29.2012 51.5771 29.1367C51.8877 29.0723 52.1748 28.9697 52.4385 28.8291C52.7021 28.6826 52.9219 28.498 53.0977 28.2754C53.2793 28.0469 53.3701 27.7744 53.3701 27.458C53.3701 27.0068 53.2764 26.6494 53.0889 26.3857C52.9014 26.1221 52.6611 25.9229 52.3682 25.7881C52.0752 25.6533 51.7441 25.5684 51.375 25.5332C51.0059 25.498 50.6426 25.4805 50.2852 25.4805C50.127 25.4805 49.9688 25.4834 49.8105 25.4893C49.6582 25.4893 49.5117 25.4893 49.3711 25.4893V23.5117C49.4648 23.5117 49.5674 23.5146 49.6787 23.5205C49.79 23.5205 49.9102 23.5205 50.0391 23.5205C50.2559 23.5205 50.4873 23.5146 50.7334 23.5029C50.9854 23.4912 51.2314 23.4678 51.4717 23.4326C51.7178 23.3916 51.9521 23.3359 52.1748 23.2656C52.3975 23.1895 52.5938 23.0898 52.7637 22.9668C52.9336 22.8438 53.0684 22.6943 53.168 22.5186C53.2676 22.3369 53.3174 22.1172 53.3174 21.8594C53.3174 21.5312 53.2559 21.2617 53.1328 21.0508C53.0156 20.834 52.8574 20.6641 52.6582 20.541C52.459 20.4121 52.2275 20.3242 51.9639 20.2773C51.7061 20.2246 51.4365 20.1982 51.1553 20.1982C50.6572 20.1982 50.1709 20.2539 49.6963 20.3652C49.2275 20.4766 48.7734 20.6436 48.334 20.8662L48.1846 18.8535C48.7412 18.6309 49.3154 18.4697 49.9072 18.3701C50.5049 18.2705 51.1025 18.2207 51.7002 18.2207C52.2275 18.2207 52.7402 18.2764 53.2383 18.3877C53.7363 18.4932 54.1758 18.6719 54.5566 18.9238C54.9434 19.1758 55.2539 19.5098 55.4883 19.9258C55.7227 20.3359 55.8398 20.8428 55.8398 21.4463C55.8398 21.8389 55.7842 22.1934 55.6729 22.5098C55.5615 22.8262 55.4033 23.1074 55.1982 23.3535C54.9932 23.5996 54.7471 23.8135 54.46 23.9951C54.1729 24.1768 53.8506 24.3291 53.4932 24.4521V24.4873C53.8975 24.5459 54.249 24.6602 54.5479 24.8301C54.8525 25 55.1016 25.2168 55.2949 25.4805C55.4941 25.7383 55.6436 26.0371 55.7432 26.377C55.8428 26.7168 55.8926 27.083 55.8926 27.4756C55.8926 27.7803 55.8604 28.0791 55.7959 28.3721C55.7314 28.665 55.6318 28.9434 55.4971 29.207C55.3682 29.4648 55.2012 29.7021 54.9961 29.9189C54.7969 30.1299 54.5596 30.3115 54.2842 30.4639C54.167 30.5283 54.0469 30.5869 53.9238 30.6396C53.8008 30.6865 53.6777 30.7334 53.5547 30.7803C52.7578 31.0732 51.9346 31.2197 51.085 31.2197C50.5283 31.2197 49.9746 31.1875 49.4238 31.123C48.873 31.0586 48.3281 30.9502 47.7891 30.7979L47.9385 28.6621Z" fill="#757575"/>
<path opacity="0.4" d="M4.61449 70.4062C4.15876 70.4928 3.74405 70.5954 3.37035 70.7139C2.99665 70.8324 2.67536 70.9714 2.40648 71.1309C2.1376 71.2858 1.92797 71.4613 1.77758 71.6572C1.63174 71.8532 1.55883 72.0742 1.55883 72.3203C1.55883 72.5208 1.59984 72.6895 1.68187 72.8262C1.76846 72.9629 1.88012 73.0723 2.01683 73.1543C2.15355 73.2363 2.30622 73.2956 2.47484 73.332C2.64346 73.3685 2.81436 73.3867 2.98754 73.3867C3.31111 73.3867 3.60733 73.3457 3.87621 73.2637C4.14965 73.1816 4.39574 73.0677 4.61449 72.9219V70.4062ZM5.83812 72.8125C5.83812 72.9948 5.84724 73.1475 5.86547 73.2705C5.88825 73.3936 5.93155 73.4915 5.99535 73.5645C6.06371 73.6374 6.15713 73.6898 6.27562 73.7217C6.39411 73.7536 6.55134 73.7695 6.7473 73.7695H7.22582C7.38988 73.7695 7.51293 73.7969 7.59496 73.8516C7.67699 73.9062 7.71801 73.9997 7.71801 74.1318V74.6035C7.71801 74.6901 7.70433 74.7607 7.67699 74.8154C7.6542 74.8656 7.62002 74.9043 7.57445 74.9316C7.52888 74.959 7.47647 74.9772 7.41722 74.9863C7.35798 74.9954 7.29418 75 7.22582 75H6.43969C6.13435 75 5.87458 74.9727 5.66039 74.918C5.45075 74.8587 5.2753 74.7835 5.13402 74.6924C4.9973 74.5967 4.89021 74.4873 4.81273 74.3643C4.73982 74.2367 4.68513 74.1045 4.64867 73.9678C4.31143 74.1729 3.99014 74.3187 3.6848 74.4053C3.37946 74.4919 3.06957 74.5352 2.75512 74.5352C2.48168 74.5352 2.20596 74.4964 1.92797 74.4189C1.64997 74.3415 1.39704 74.2207 1.16918 74.0566C0.945871 73.888 0.7613 73.6738 0.615467 73.4141C0.474191 73.1543 0.403553 72.8421 0.403553 72.4775C0.403553 72.1357 0.474191 71.8304 0.615467 71.5615C0.756743 71.2881 0.941313 71.0443 1.16918 70.8301C1.4016 70.6159 1.66592 70.429 1.96215 70.2695C2.25837 70.11 2.56143 69.971 2.87133 69.8525C3.18578 69.7295 3.4934 69.6247 3.79418 69.5381C4.09496 69.4515 4.3684 69.374 4.61449 69.3057V68.5811H5.83812V72.8125ZM2.42015 66.9199C2.42015 66.8197 2.43838 66.7262 2.47484 66.6396C2.51586 66.5485 2.56827 66.471 2.63207 66.4072C2.69587 66.3389 2.77107 66.2865 2.85765 66.25C2.9488 66.209 3.0445 66.1885 3.14476 66.1885C3.24502 66.1885 3.33845 66.209 3.42504 66.25C3.51618 66.2865 3.59366 66.3389 3.65746 66.4072C3.72582 66.471 3.77823 66.5485 3.81469 66.6396C3.8557 66.7262 3.87621 66.8197 3.87621 66.9199C3.87621 67.0202 3.8557 67.1159 3.81469 67.207C3.77823 67.2936 3.72582 67.3688 3.65746 67.4326C3.59366 67.4964 3.51618 67.5488 3.42504 67.5898C3.33845 67.6263 3.24502 67.6445 3.14476 67.6445C2.93969 67.6445 2.76651 67.5762 2.62523 67.4395C2.48851 67.2982 2.42015 67.125 2.42015 66.9199ZM4.3684 66.9199C4.3684 66.8197 4.38663 66.7262 4.42308 66.6396C4.4641 66.5485 4.51651 66.471 4.58031 66.4072C4.64411 66.3389 4.71931 66.2865 4.8059 66.25C4.89704 66.209 4.99275 66.1885 5.09301 66.1885C5.19327 66.1885 5.28669 66.209 5.37328 66.25C5.46443 66.2865 5.5419 66.3389 5.6057 66.4072C5.67406 66.471 5.72647 66.5485 5.76293 66.6396C5.80394 66.7262 5.82445 66.8197 5.82445 66.9199C5.82445 67.0202 5.80394 67.1159 5.76293 67.207C5.72647 67.2936 5.67406 67.3688 5.6057 67.4326C5.5419 67.4964 5.46443 67.5488 5.37328 67.5898C5.28669 67.6263 5.19327 67.6445 5.09301 67.6445C4.88793 67.6445 4.71475 67.5762 4.57347 67.4395C4.43676 67.2982 4.3684 67.125 4.3684 66.9199ZM7.29582 75C7.13176 75 7.00871 74.9727 6.92668 74.918C6.84465 74.8633 6.80363 74.7699 6.80363 74.6377V74.166C6.80363 74.0794 6.8173 74.0111 6.84465 73.9609C6.86743 73.9062 6.90161 73.8652 6.94719 73.8379C6.99276 73.8105 7.04517 73.7923 7.10441 73.7832C7.16366 73.7741 7.22746 73.7695 7.29582 73.7695H9.54484V69.7158H10.7821V75H7.29582ZM9.4423 77.0508C9.4423 76.9505 9.46053 76.8548 9.49699 76.7637C9.53801 76.6771 9.59042 76.5996 9.65422 76.5312C9.71802 76.4674 9.79321 76.415 9.8798 76.374C9.97095 76.3376 10.0667 76.3193 10.1669 76.3193C10.2672 76.3193 10.3606 76.3376 10.4472 76.374C10.5383 76.415 10.6158 76.4674 10.6796 76.5312C10.748 76.5996 10.8004 76.6771 10.8368 76.7637C10.8779 76.8548 10.8984 76.9505 10.8984 77.0508C10.8984 77.151 10.8779 77.2445 10.8368 77.3311C10.8004 77.4222 10.748 77.4997 10.6796 77.5635C10.6158 77.6273 10.5383 77.6774 10.4472 77.7139C10.3606 77.7549 10.2672 77.7754 10.1669 77.7754C9.96183 77.7754 9.78866 77.7048 9.64738 77.5635C9.51066 77.4268 9.4423 77.2559 9.4423 77.0508ZM16.0953 75C15.5348 75 15.0608 74.9202 14.6734 74.7607C14.2906 74.6012 13.9807 74.3962 13.7437 74.1455C13.5068 73.8903 13.3359 73.6032 13.2311 73.2842C13.1262 72.9652 13.0738 72.6484 13.0738 72.334C13.0738 71.9375 13.1422 71.5661 13.2789 71.2197C13.4156 70.8734 13.6116 70.5726 13.8668 70.3174C14.122 70.0576 14.4273 69.8548 14.7828 69.709C15.1428 69.5632 15.5462 69.4902 15.9928 69.4902C16.1705 69.4902 16.3574 69.5085 16.5533 69.5449C16.7493 69.5768 16.9407 69.6383 17.1275 69.7295C17.3189 69.8161 17.499 69.9346 17.6676 70.085C17.8362 70.2354 17.9843 70.4268 18.1119 70.6592C18.2395 70.887 18.3398 71.1628 18.4127 71.4863C18.4902 71.8053 18.5289 72.1768 18.5289 72.6006V73.7695H20.0055C20.1695 73.7695 20.2926 73.7969 20.3746 73.8516C20.4566 73.9062 20.4977 73.9997 20.4977 74.1318V74.6035C20.4977 74.6901 20.484 74.7607 20.4566 74.8154C20.4339 74.8656 20.3997 74.9043 20.3541 74.9316C20.3085 74.959 20.2561 74.9772 20.1969 74.9863C20.1376 74.9954 20.0738 75 20.0055 75H18.44C18.3215 75.4967 18.1301 75.9183 17.8658 76.2646C17.6015 76.611 17.2779 76.8958 16.8951 77.1191C16.5169 77.347 16.0839 77.5225 15.5963 77.6455C15.1132 77.7731 14.596 77.8643 14.0445 77.9189L13.9146 76.7363C14.8443 76.6725 15.5895 76.4902 16.15 76.1895C16.7151 75.8932 17.0706 75.4967 17.2164 75H16.0953ZM17.3053 73.7695V72.9971C17.3053 72.5094 17.2597 72.113 17.1686 71.8076C17.082 71.4977 16.9658 71.2585 16.8199 71.0898C16.6786 70.9167 16.5146 70.8005 16.3277 70.7412C16.1454 70.6774 15.9609 70.6455 15.774 70.6455C15.5644 70.6455 15.3684 70.6842 15.1861 70.7617C15.0038 70.8392 14.8443 70.9486 14.7076 71.0898C14.5755 71.2311 14.4706 71.402 14.3932 71.6025C14.3157 71.7985 14.277 72.015 14.277 72.252C14.277 72.457 14.3089 72.653 14.3727 72.8398C14.441 73.0221 14.5481 73.1816 14.6939 73.3184C14.8398 73.4551 15.0266 73.5645 15.2545 73.6465C15.4824 73.7285 15.7604 73.7695 16.0885 73.7695H17.3053ZM25.469 70.8574C25.3779 70.8301 25.2731 70.805 25.1546 70.7822C25.0361 70.7549 24.913 70.7344 24.7854 70.7207C24.6624 70.7025 24.5393 70.6888 24.4163 70.6797C24.2932 70.666 24.1839 70.6592 24.0882 70.6592C23.9332 70.6592 23.7737 70.682 23.6096 70.7275C23.4456 70.7686 23.2952 70.8438 23.1585 70.9531C23.0218 71.0625 22.9078 71.2083 22.8167 71.3906C22.7301 71.5729 22.6868 71.8008 22.6868 72.0742C22.6868 72.3203 22.7301 72.5482 22.8167 72.7578C22.9033 72.9629 23.0263 73.1406 23.1858 73.291C23.3453 73.4414 23.5345 73.5599 23.7532 73.6465C23.9765 73.7285 24.2226 73.7695 24.4915 73.7695H26.1458V75H20.0823C19.9182 75 19.7952 74.9727 19.7132 74.918C19.6311 74.8633 19.5901 74.7699 19.5901 74.6377V74.166C19.5901 74.0794 19.6038 74.0111 19.6311 73.9609C19.6539 73.9062 19.6881 73.8652 19.7337 73.8379C19.7792 73.8105 19.8317 73.7923 19.8909 73.7832C19.9501 73.7741 20.0139 73.7695 20.0823 73.7695H21.9075C21.7845 73.5098 21.6933 73.2523 21.6341 72.9971C21.5748 72.7373 21.5452 72.4844 21.5452 72.2383C21.5452 71.8509 21.6113 71.4863 21.7434 71.1445C21.8756 70.7982 22.0602 70.4974 22.2971 70.2422C22.5387 69.9824 22.8258 69.7773 23.1585 69.627C23.4957 69.4766 23.8649 69.4014 24.2659 69.4014C24.3616 69.4014 24.471 69.4059 24.594 69.415C24.7171 69.4242 24.8424 69.4355 24.97 69.4492C25.0976 69.4629 25.2161 69.4811 25.3255 69.5039C25.4348 69.5221 25.5237 69.5449 25.5921 69.5723L25.469 70.8574ZM23.2268 67.2617C23.2268 67.1615 23.2451 67.068 23.2815 66.9814C23.3225 66.8903 23.3749 66.8128 23.4387 66.749C23.5025 66.6807 23.5777 66.6283 23.6643 66.5918C23.7555 66.5508 23.8512 66.5303 23.9514 66.5303C24.0517 66.5303 24.1451 66.5508 24.2317 66.5918C24.3229 66.6283 24.4003 66.6807 24.4641 66.749C24.5325 66.8128 24.5849 66.8903 24.6214 66.9814C24.6624 67.068 24.6829 67.1615 24.6829 67.2617C24.6829 67.362 24.6624 67.4577 24.6214 67.5488C24.5849 67.6354 24.5325 67.7106 24.4641 67.7744C24.4003 67.8382 24.3229 67.8906 24.2317 67.9316C24.1451 67.9681 24.0517 67.9863 23.9514 67.9863C23.7464 67.9863 23.5732 67.918 23.4319 67.7812C23.2952 67.64 23.2268 67.4668 23.2268 67.2617ZM26.7763 76.6816C27.264 76.6178 27.6513 76.5199 27.9384 76.3877C28.2301 76.2601 28.4511 76.0938 28.6015 75.8887C28.7519 75.6882 28.8499 75.4512 28.8955 75.1777C28.941 74.9043 28.9638 74.5944 28.9638 74.248V69.7158H30.1943V73.7695H31.8007C31.9648 73.7695 32.0879 73.7969 32.1699 73.8516C32.2519 73.9062 32.2929 73.9997 32.2929 74.1318V74.6035C32.2929 74.6901 32.2793 74.7607 32.2519 74.8154C32.2291 74.8656 32.1949 74.9043 32.1494 74.9316C32.1038 74.959 32.0514 74.9772 31.9921 74.9863C31.9329 74.9954 31.8691 75 31.8007 75H30.1259C30.0576 75.4785 29.9414 75.8818 29.7773 76.21C29.6178 76.5426 29.4036 76.8206 29.1347 77.0439C28.8704 77.2673 28.5514 77.4404 28.1777 77.5635C27.8086 77.6911 27.3824 77.7891 26.8994 77.8574L26.7763 76.6816ZM33.9762 74.0566C33.8805 74.2344 33.778 74.3848 33.6686 74.5078C33.5638 74.6263 33.4476 74.722 33.32 74.7949C33.1969 74.8678 33.0602 74.9202 32.9098 74.9521C32.7594 74.984 32.5908 75 32.4039 75H31.8707C31.7067 75 31.5836 74.9727 31.5016 74.918C31.4196 74.8633 31.3786 74.7699 31.3786 74.6377V74.166C31.3786 74.0794 31.3922 74.0111 31.4196 73.9609C31.4424 73.9062 31.4765 73.8652 31.5221 73.8379C31.5677 73.8105 31.6201 73.7923 31.6793 73.7832C31.7386 73.7741 31.8024 73.7695 31.8707 73.7695H32.192C32.4746 73.7695 32.7252 73.7057 32.944 73.5781C33.1673 73.446 33.3177 73.2386 33.3952 72.9561C33.5273 72.4684 33.6754 72.0492 33.8395 71.6982C34.0036 71.3428 34.1745 71.042 34.3522 70.7959C34.5345 70.5452 34.719 70.3447 34.9059 70.1943C35.0927 70.0394 35.2773 69.9186 35.4596 69.832C35.6419 69.7454 35.8151 69.6885 35.9791 69.6611C36.1478 69.6292 36.3027 69.6133 36.444 69.6133C36.7493 69.6133 37.0273 69.6566 37.278 69.7432C37.5286 69.8298 37.7519 69.9482 37.9479 70.0986C38.1439 70.2445 38.3148 70.4154 38.4606 70.6113C38.6064 70.8073 38.7272 71.0124 38.8229 71.2266C38.9186 71.4362 38.9892 71.6504 39.0348 71.8691C39.0804 72.0879 39.1032 72.2952 39.1032 72.4912C39.1032 72.7419 39.0576 73.0085 38.9664 73.291C39.1806 73.4505 39.4313 73.5713 39.7184 73.6533C40.0101 73.7308 40.361 73.7695 40.7711 73.7695H40.8258C40.9899 73.7695 41.1129 73.7969 41.195 73.8516C41.277 73.9062 41.318 73.9997 41.318 74.1318V74.6035C41.318 74.6901 41.3043 74.7607 41.277 74.8154C41.2542 74.8656 41.22 74.9043 41.1745 74.9316C41.1289 74.959 41.0765 74.9772 41.0172 74.9863C40.958 74.9954 40.8942 75 40.8258 75H40.7575C40.4749 75 40.2197 74.9772 39.9918 74.9316C39.7685 74.8861 39.568 74.8245 39.3903 74.7471C39.2125 74.665 39.053 74.5716 38.9118 74.4668C38.7705 74.3574 38.6429 74.2412 38.5289 74.1182C38.3102 74.3916 38.0299 74.6195 37.6881 74.8018C37.3509 74.9795 36.9407 75.0684 36.4577 75.0684C36.1614 75.0684 35.8834 75.0387 35.6237 74.9795C35.3685 74.9157 35.136 74.8359 34.9264 74.7402C34.7213 74.6445 34.5368 74.5374 34.3727 74.4189C34.2132 74.2959 34.081 74.1751 33.9762 74.0566ZM37.9957 72.6348C37.9957 72.4661 37.9638 72.2747 37.9 72.0605C37.8408 71.8464 37.7451 71.6436 37.6129 71.4521C37.4853 71.2607 37.3213 71.1012 37.1207 70.9736C36.9202 70.8415 36.681 70.7754 36.403 70.7754C36.1386 70.7754 35.8948 70.846 35.6715 70.9873C35.4528 71.1286 35.2591 71.3154 35.0905 71.5479C34.9218 71.7757 34.7806 72.0378 34.6666 72.334C34.5527 72.6302 34.4707 72.9355 34.4205 73.25C34.4661 73.3138 34.555 73.3822 34.6871 73.4551C34.8193 73.5234 34.972 73.5872 35.1452 73.6465C35.3229 73.7012 35.5097 73.7467 35.7057 73.7832C35.9062 73.8197 36.0976 73.8379 36.2799 73.8379C36.5397 73.8379 36.7744 73.8197 36.984 73.7832C37.1982 73.7467 37.3805 73.6852 37.5309 73.5986C37.6813 73.5075 37.7952 73.3844 37.8727 73.2295C37.9547 73.0745 37.9957 72.8763 37.9957 72.6348ZM40.8958 75C40.7318 75 40.6087 74.9727 40.5267 74.918C40.4446 74.8633 40.4036 74.7699 40.4036 74.6377V74.166C40.4036 74.0794 40.4173 74.0111 40.4446 73.9609C40.4674 73.9062 40.5016 73.8652 40.5472 73.8379C40.5928 73.8105 40.6452 73.7923 40.7044 73.7832C40.7637 73.7741 40.8275 73.7695 40.8958 73.7695H42.7552V65.1768H43.9857V75H40.8958ZM46.3799 65.1836H47.6104V75.0068H46.3799V65.1836ZM57.0882 70.4062C56.6325 70.4928 56.2178 70.5954 55.8441 70.7139C55.4704 70.8324 55.1491 70.9714 54.8802 71.1309C54.6114 71.2858 54.4017 71.4613 54.2513 71.6572C54.1055 71.8532 54.0326 72.0742 54.0326 72.3203C54.0326 72.5208 54.0736 72.6895 54.1556 72.8262C54.2422 72.9629 54.3539 73.0723 54.4906 73.1543C54.6273 73.2363 54.78 73.2956 54.9486 73.332C55.1172 73.3685 55.2881 73.3867 55.4613 73.3867C55.7849 73.3867 56.0811 73.3457 56.35 73.2637C56.6234 73.1816 56.8695 73.0677 57.0882 72.9219V70.4062ZM58.3119 72.8125C58.3119 72.9948 58.321 73.1475 58.3392 73.2705C58.362 73.3936 58.4053 73.4915 58.4691 73.5645C58.5375 73.6374 58.6309 73.6898 58.7494 73.7217C58.8679 73.7536 59.0251 73.7695 59.2211 73.7695H59.6996C59.8636 73.7695 59.9867 73.7969 60.0687 73.8516C60.1507 73.9062 60.1918 73.9997 60.1918 74.1318V74.6035C60.1918 74.6901 60.1781 74.7607 60.1507 74.8154C60.128 74.8656 60.0938 74.9043 60.0482 74.9316C60.0026 74.959 59.9502 74.9772 59.891 74.9863C59.8317 74.9954 59.7679 75 59.6996 75H58.9134C58.6081 75 58.3483 74.9727 58.1341 74.918C57.9245 74.8587 57.749 74.7835 57.6078 74.6924C57.4711 74.5967 57.364 74.4873 57.2865 74.3643C57.2136 74.2367 57.1589 74.1045 57.1224 73.9678C56.7852 74.1729 56.4639 74.3187 56.1586 74.4053C55.8532 74.4919 55.5433 74.5352 55.2289 74.5352C54.9554 74.5352 54.6797 74.4964 54.4017 74.4189C54.1237 74.3415 53.8708 74.2207 53.6429 74.0566C53.4196 73.888 53.2351 73.6738 53.0892 73.4141C52.9479 73.1543 52.8773 72.8421 52.8773 72.4775C52.8773 72.1357 52.9479 71.8304 53.0892 71.5615C53.2305 71.2881 53.4151 71.0443 53.6429 70.8301C53.8754 70.6159 54.1397 70.429 54.4359 70.2695C54.7321 70.11 55.0352 69.971 55.3451 69.8525C55.6595 69.7295 55.9671 69.6247 56.2679 69.5381C56.5687 69.4515 56.8421 69.374 57.0882 69.3057V68.5811H58.3119V72.8125ZM54.8939 66.9199C54.8939 66.8197 54.9121 66.7262 54.9486 66.6396C54.9896 66.5485 55.042 66.471 55.1058 66.4072C55.1696 66.3389 55.2448 66.2865 55.3314 66.25C55.4226 66.209 55.5183 66.1885 55.6185 66.1885C55.7188 66.1885 55.8122 66.209 55.8988 66.25C55.9899 66.2865 56.0674 66.3389 56.1312 66.4072C56.1996 66.471 56.252 66.5485 56.2884 66.6396C56.3295 66.7262 56.35 66.8197 56.35 66.9199C56.35 67.0202 56.3295 67.1159 56.2884 67.207C56.252 67.2936 56.1996 67.3688 56.1312 67.4326C56.0674 67.4964 55.9899 67.5488 55.8988 67.5898C55.8122 67.6263 55.7188 67.6445 55.6185 67.6445C55.4134 67.6445 55.2403 67.5762 55.099 67.4395C54.9623 67.2982 54.8939 67.125 54.8939 66.9199ZM56.8421 66.9199C56.8421 66.8197 56.8604 66.7262 56.8968 66.6396C56.9379 66.5485 56.9903 66.471 57.0541 66.4072C57.1179 66.3389 57.1931 66.2865 57.2796 66.25C57.3708 66.209 57.4665 66.1885 57.5668 66.1885C57.667 66.1885 57.7604 66.209 57.847 66.25C57.9382 66.2865 58.0157 66.3389 58.0795 66.4072C58.1478 66.471 58.2002 66.5485 58.2367 66.6396C58.2777 66.7262 58.2982 66.8197 58.2982 66.9199C58.2982 67.0202 58.2777 67.1159 58.2367 67.207C58.2002 67.2936 58.1478 67.3688 58.0795 67.4326C58.0157 67.4964 57.9382 67.5488 57.847 67.5898C57.7604 67.6263 57.667 67.6445 57.5668 67.6445C57.3617 67.6445 57.1885 67.5762 57.0472 67.4395C56.9105 67.2982 56.8421 67.125 56.8421 66.9199ZM59.7696 75C59.6055 75 59.4825 74.9727 59.4004 74.918C59.3184 74.8633 59.2774 74.7699 59.2774 74.6377V74.166C59.2774 74.0794 59.2911 74.0111 59.3184 73.9609C59.3412 73.9062 59.3754 73.8652 59.4209 73.8379C59.4665 73.8105 59.5189 73.7923 59.5782 73.7832C59.6374 73.7741 59.7012 73.7695 59.7696 73.7695H61.417C61.4808 73.5599 61.5651 73.332 61.67 73.0859C61.7748 72.8353 61.9001 72.5755 62.0459 72.3066V65.1768H63.2764V70.5908C63.4678 70.3949 63.6706 70.2126 63.8848 70.0439C64.099 69.8753 64.3246 69.7295 64.5616 69.6064C64.8031 69.4834 65.056 69.3877 65.3204 69.3193C65.5847 69.251 65.8604 69.2168 66.1475 69.2168C66.6716 69.2168 67.1182 69.3034 67.4873 69.4766C67.861 69.6497 68.1664 69.889 68.4034 70.1943C68.6449 70.4997 68.8204 70.8574 68.9297 71.2676C69.0437 71.6777 69.1006 72.1221 69.1006 72.6006V73.7695H70.502C70.6661 73.7695 70.7891 73.7969 70.8711 73.8516C70.9532 73.9062 70.9942 73.9997 70.9942 74.1318V74.6035C70.9942 74.6901 70.9805 74.7607 70.9532 74.8154C70.9304 74.8656 70.8962 74.9043 70.8506 74.9316C70.8051 74.959 70.7526 74.9772 70.6934 74.9863C70.6342 74.9954 70.5704 75 70.502 75H59.7696ZM67.8702 72.7373C67.8702 72.2952 67.82 71.9261 67.7198 71.6299C67.6241 71.3337 67.4919 71.0967 67.3233 70.9189C67.1547 70.7367 66.9564 70.609 66.7286 70.5361C66.5007 70.4587 66.2569 70.4199 65.9971 70.4199C65.7146 70.4199 65.4434 70.4701 65.1836 70.5703C64.9239 70.666 64.6801 70.7982 64.4522 70.9668C64.2243 71.1354 64.0124 71.3314 63.8164 71.5547C63.625 71.7734 63.4519 72.0081 63.2969 72.2588C63.142 72.5049 63.0075 72.7578 62.8936 73.0176C62.7797 73.2773 62.6908 73.528 62.627 73.7695H67.8702V72.7373ZM74.2839 73.3799C74.5209 73.5348 74.7829 73.6396 75.07 73.6943C75.3571 73.7445 75.6579 73.7695 75.9724 73.7695H76.4441C76.5899 73.7695 76.7038 73.7057 76.7859 73.5781C76.8724 73.4505 76.9157 73.2568 76.9157 72.9971V70.4609H78.153V73.2979C78.3809 73.4665 78.6475 73.5872 78.9529 73.6602C79.2582 73.7331 79.5886 73.7695 79.9441 73.7695H80.4157C80.5616 73.7695 80.6755 73.7057 80.7575 73.5781C80.8441 73.4505 80.8874 73.2568 80.8874 72.9971V69.7158H82.1247V73.25C82.3389 73.4232 82.5941 73.5531 82.8904 73.6396C83.1866 73.7262 83.5489 73.7695 83.9773 73.7695H84.032C84.196 73.7695 84.3191 73.7969 84.4011 73.8516C84.4831 73.9062 84.5241 73.9997 84.5241 74.1318V74.6035C84.5241 74.6901 84.5105 74.7607 84.4831 74.8154C84.4603 74.8656 84.4262 74.9043 84.3806 74.9316C84.335 74.959 84.2826 74.9772 84.2234 74.9863C84.1641 74.9954 84.1003 75 84.032 75H83.9636C83.4623 75 83.0476 74.9339 82.7195 74.8018C82.3959 74.665 82.1224 74.4919 81.8991 74.2822C81.7898 74.4827 81.6348 74.6536 81.4343 74.7949C81.2338 74.9316 80.9786 75 80.6687 75H79.9304C79.5704 75 79.2103 74.9499 78.8503 74.8496C78.4948 74.7493 78.1781 74.5739 77.9001 74.3232C77.7862 74.5146 77.6312 74.6764 77.4353 74.8086C77.2439 74.9362 76.9978 75 76.697 75H75.9587C75.7855 75 75.6101 74.9886 75.4323 74.9658C75.2592 74.943 75.0883 74.9089 74.9196 74.8633C74.751 74.8132 74.587 74.7493 74.4275 74.6719C74.2725 74.5944 74.1267 74.4987 73.99 74.3848C73.876 74.5579 73.7256 74.7038 73.5388 74.8223C73.3519 74.9408 73.115 75 72.8279 75H70.572C70.4079 75 70.2849 74.9727 70.2029 74.918C70.1208 74.8633 70.0798 74.7699 70.0798 74.6377V74.166C70.0798 74.0794 70.0935 74.0111 70.1208 73.9609C70.1436 73.9062 70.1778 73.8652 70.2234 73.8379C70.2689 73.8105 70.3213 73.7923 70.3806 73.7832C70.4398 73.7741 70.5036 73.7695 70.572 73.7695H72.5749C72.7208 73.7695 72.8347 73.7057 72.9167 73.5781C73.0033 73.4505 73.0466 73.2568 73.0466 72.9971V71.042H74.2839V73.3799ZM75.9109 67.2617C75.9109 67.1615 75.9291 67.068 75.9655 66.9814C76.0066 66.8903 76.059 66.8128 76.1228 66.749C76.1866 66.6807 76.2618 66.6283 76.3484 66.5918C76.4395 66.5508 76.5352 66.5303 76.6355 66.5303C76.7357 66.5303 76.8292 66.5508 76.9157 66.5918C77.0069 66.6283 77.0844 66.6807 77.1482 66.749C77.2165 66.8128 77.2689 66.8903 77.3054 66.9814C77.3464 67.068 77.3669 67.1615 77.3669 67.2617C77.3669 67.362 77.3464 67.4577 77.3054 67.5488C77.2689 67.6354 77.2165 67.7106 77.1482 67.7744C77.0844 67.8382 77.0069 67.8906 76.9157 67.9316C76.8292 67.9681 76.7357 67.9863 76.6355 67.9863C76.4304 67.9863 76.2572 67.918 76.1159 67.7812C75.9792 67.64 75.9109 67.4668 75.9109 67.2617ZM77.8591 67.2617C77.8591 67.1615 77.8773 67.068 77.9138 66.9814C77.9548 66.8903 78.0072 66.8128 78.071 66.749C78.1348 66.6807 78.21 66.6283 78.2966 66.5918C78.3877 66.5508 78.4834 66.5303 78.5837 66.5303C78.684 66.5303 78.7774 66.5508 78.864 66.5918C78.9551 66.6283 79.0326 66.6807 79.0964 66.749C79.1648 66.8128 79.2172 66.8903 79.2536 66.9814C79.2946 67.068 79.3152 67.1615 79.3152 67.2617C79.3152 67.362 79.2946 67.4577 79.2536 67.5488C79.2172 67.6354 79.1648 67.7106 79.0964 67.7744C79.0326 67.8382 78.9551 67.8906 78.864 67.9316C78.7774 67.9681 78.684 67.9863 78.5837 67.9863C78.3786 67.9863 78.2055 67.918 78.0642 67.7812C77.9275 67.64 77.8591 67.4668 77.8591 67.2617ZM76.8747 65.4297C76.8747 65.3294 76.893 65.236 76.9294 65.1494C76.9704 65.0583 77.0228 64.9808 77.0866 64.917C77.1504 64.8486 77.2256 64.7962 77.3122 64.7598C77.4034 64.7188 77.4991 64.6982 77.5993 64.6982C77.6996 64.6982 77.793 64.7188 77.8796 64.7598C77.9708 64.7962 78.0482 64.8486 78.112 64.917C78.1804 64.9808 78.2328 65.0583 78.2693 65.1494C78.3103 65.236 78.3308 65.3294 78.3308 65.4297C78.3308 65.5299 78.3103 65.6257 78.2693 65.7168C78.2328 65.8034 78.1804 65.8786 78.112 65.9424C78.0482 66.0062 77.9708 66.0586 77.8796 66.0996C77.793 66.1361 77.6996 66.1543 77.5993 66.1543C77.3943 66.1543 77.2211 66.0859 77.0798 65.9492C76.9431 65.8079 76.8747 65.6348 76.8747 65.4297ZM86.3031 67.2617C86.3031 67.1615 86.3213 67.068 86.3578 66.9814C86.3988 66.8903 86.4512 66.8128 86.515 66.749C86.5788 66.6807 86.654 66.6283 86.7406 66.5918C86.8318 66.5508 86.9275 66.5303 87.0277 66.5303C87.128 66.5303 87.2214 66.5508 87.308 66.5918C87.3991 66.6283 87.4766 66.6807 87.5404 66.749C87.6088 66.8128 87.6612 66.8903 87.6976 66.9814C87.7387 67.068 87.7592 67.1615 87.7592 67.2617C87.7592 67.362 87.7387 67.4577 87.6976 67.5488C87.6612 67.6354 87.6088 67.7106 87.5404 67.7744C87.4766 67.8382 87.3991 67.8906 87.308 67.9316C87.2214 67.9681 87.128 67.9863 87.0277 67.9863C86.8226 67.9863 86.6495 67.918 86.5082 67.7812C86.3715 67.64 86.3031 67.4668 86.3031 67.2617ZM84.1088 75C83.9447 75 83.8217 74.9727 83.7396 74.918C83.6576 74.8633 83.6166 74.7699 83.6166 74.6377V74.166C83.6166 74.0794 83.6303 74.0111 83.6576 73.9609C83.6804 73.9062 83.7146 73.8652 83.7601 73.8379C83.8057 73.8105 83.8581 73.7923 83.9174 73.7832C83.9766 73.7741 84.0404 73.7695 84.1088 73.7695H86.3578V69.7158H87.5951V75H84.1088ZM97.7345 65.1768V75H89.9483V73.7695H92.9766V67.8359H94.2071V73.7695H96.504V65.1768H97.7345ZM100.136 65.1836H101.366V75.0068H100.136V65.1836Z" fill="#0F1621"/>
<rect x="181.5" y="0.5" width="47" height="47" rx="15.5" fill="white"/>
<rect x="181.5" y="0.5" width="47" height="47" rx="15.5" stroke="#59A0F2"/>
<path d="M201.219 31V28.8906C201.477 28.6504 201.79 28.3633 202.159 28.0293C202.534 27.6895 202.921 27.3232 203.319 26.9307C203.724 26.5322 204.122 26.1162 204.515 25.6826C204.913 25.249 205.271 24.8125 205.587 24.373C205.903 23.9336 206.158 23.5029 206.352 23.0811C206.551 22.6592 206.65 22.2637 206.65 21.8945C206.65 21.5957 206.592 21.3408 206.475 21.1299C206.363 20.9131 206.214 20.7373 206.026 20.6025C205.839 20.4619 205.622 20.3594 205.376 20.2949C205.13 20.2305 204.872 20.1982 204.603 20.1982C204.063 20.1982 203.557 20.2949 203.082 20.4883C202.607 20.6816 202.147 20.9219 201.702 21.209L201.509 19.1172C202.089 18.8242 202.692 18.6016 203.319 18.4492C203.946 18.2969 204.585 18.2207 205.235 18.2207C205.839 18.2207 206.381 18.2939 206.861 18.4404C207.348 18.5869 207.761 18.8125 208.101 19.1172C208.446 19.416 208.71 19.7969 208.892 20.2598C209.079 20.7168 209.173 21.2617 209.173 21.8945C209.173 22.2402 209.129 22.583 209.041 22.9229C208.959 23.2627 208.845 23.5938 208.698 23.916C208.558 24.2383 208.391 24.5488 208.197 24.8477C208.004 25.1465 207.802 25.4277 207.591 25.6914C207.11 26.2832 206.606 26.8574 206.079 27.4141C205.552 27.9648 205.007 28.501 204.444 29.0225H209.568V31H201.219Z" fill="#757575"/>
<path d="M179.89 74.9316C179.89 74.8314 179.865 74.7311 179.815 74.6309C179.769 74.5306 179.706 74.4326 179.624 74.3369C179.546 74.2412 179.457 74.1501 179.357 74.0635C179.257 73.9769 179.157 73.8926 179.056 73.8105C178.892 73.6829 178.724 73.5462 178.55 73.4004C178.382 73.25 178.229 73.0882 178.092 72.915C177.956 72.7419 177.842 72.5573 177.751 72.3613C177.664 72.1654 177.621 71.9557 177.621 71.7324C177.621 71.3086 177.712 70.9486 177.894 70.6523C178.081 70.3561 178.318 70.1169 178.605 69.9346C178.892 69.7477 179.209 69.6133 179.555 69.5312C179.902 69.4447 180.237 69.4014 180.56 69.4014C180.793 69.4014 181.018 69.4196 181.237 69.4561C181.46 69.4925 181.658 69.5335 181.832 69.5791C182.037 69.6292 182.228 69.6862 182.406 69.75L182.003 71.2881C181.829 71.2106 181.656 71.14 181.483 71.0762C181.337 71.026 181.178 70.9782 181.004 70.9326C180.831 70.887 180.672 70.8643 180.526 70.8643C180.407 70.8643 180.282 70.8779 180.15 70.9053C180.018 70.9326 179.895 70.9782 179.781 71.042C179.667 71.1012 179.571 71.1833 179.494 71.2881C179.421 71.3883 179.384 71.516 179.384 71.6709C179.384 71.762 179.412 71.8577 179.466 71.958C179.521 72.0537 179.592 72.1494 179.678 72.2451C179.765 72.3408 179.861 72.4365 179.965 72.5322C180.075 72.6234 180.18 72.71 180.28 72.792C180.435 72.915 180.594 73.0518 180.758 73.2021C180.927 73.348 181.08 73.5007 181.216 73.6602C181.353 73.8197 181.465 73.986 181.551 74.1592C181.643 74.3278 181.688 74.4964 181.688 74.665C181.688 74.9202 181.64 75.18 181.545 75.4443C181.453 75.7132 181.319 75.9707 181.141 76.2168C180.963 76.4629 180.745 76.6953 180.485 76.9141C180.225 77.1328 179.927 77.3242 179.589 77.4883C179.257 77.6523 178.888 77.7799 178.482 77.8711C178.081 77.9668 177.648 78.0146 177.183 78.0146C176.559 78.0146 176.003 77.9554 175.515 77.8369C175.032 77.723 174.608 77.568 174.244 77.3721C173.884 77.1807 173.576 76.9574 173.321 76.7021C173.07 76.4469 172.867 76.1781 172.713 75.8955C172.558 75.6175 172.446 75.3327 172.378 75.041C172.309 74.7539 172.275 74.4805 172.275 74.2207C172.275 73.7103 172.364 73.209 172.542 72.7168C172.724 72.2201 172.963 71.7757 173.259 71.3838L174.695 72.1699C174.472 72.4479 174.308 72.7578 174.203 73.0996C174.098 73.4414 174.046 73.7786 174.046 74.1113C174.046 74.4395 174.105 74.7471 174.223 75.0342C174.346 75.3258 174.535 75.5788 174.791 75.793C175.046 76.0072 175.369 76.1758 175.761 76.2988C176.158 76.4219 176.627 76.4834 177.17 76.4834C177.539 76.4834 177.887 76.4424 178.215 76.3604C178.548 76.2829 178.838 76.1735 179.084 76.0322C179.33 75.891 179.526 75.7246 179.671 75.5332C179.817 75.3464 179.89 75.1458 179.89 74.9316ZM182.982 76.3057C183.378 76.2282 183.699 76.1302 183.946 76.0117C184.192 75.8932 184.381 75.7451 184.513 75.5674C184.65 75.3942 184.741 75.1891 184.786 74.9521C184.837 74.7106 184.862 74.4303 184.862 74.1113V69.3945H186.639V73.5029H188.013C188.141 73.5029 188.241 73.512 188.314 73.5303C188.387 73.5485 188.439 73.5781 188.471 73.6191C188.507 73.6602 188.528 73.7126 188.533 73.7764C188.542 73.8356 188.546 73.9085 188.546 73.9951V74.4736C188.546 74.5921 188.539 74.6855 188.526 74.7539C188.512 74.8223 188.485 74.8747 188.444 74.9111C188.403 74.9476 188.348 74.9727 188.28 74.9863C188.211 74.9954 188.122 75 188.013 75H186.543C186.47 75.4375 186.35 75.8158 186.181 76.1348C186.017 76.4538 185.798 76.7249 185.525 76.9482C185.251 77.1715 184.923 77.3538 184.54 77.4951C184.162 77.6364 183.72 77.7458 183.214 77.8232L182.982 76.3057ZM189.061 69.3672C189.38 69.276 189.699 69.194 190.018 69.1211C190.341 69.0482 190.701 69.0117 191.098 69.0117C191.494 69.0117 191.845 69.071 192.15 69.1895C192.46 69.3034 192.725 69.4652 192.943 69.6748C193.162 69.8799 193.338 70.126 193.47 70.4131C193.606 70.7002 193.702 71.0146 193.757 71.3564C193.798 71.639 193.841 71.9102 193.887 72.1699C193.932 72.4251 193.991 72.653 194.064 72.8535C194.137 73.0495 194.228 73.2067 194.338 73.3252C194.452 73.4437 194.595 73.5029 194.769 73.5029V75H188.028C187.919 75 187.83 74.9954 187.762 74.9863C187.693 74.9727 187.639 74.9476 187.598 74.9111C187.557 74.8747 187.529 74.8223 187.516 74.7539C187.502 74.6855 187.495 74.5921 187.495 74.4736V73.9951C187.495 73.9085 187.5 73.8356 187.509 73.7764C187.513 73.7126 187.534 73.6602 187.57 73.6191C187.602 73.5781 187.655 73.5485 187.728 73.5303C187.796 73.512 187.896 73.5029 188.028 73.5029H192.526C192.44 73.3525 192.376 73.2021 192.335 73.0518C192.294 72.9014 192.26 72.7396 192.232 72.5664C192.196 72.3112 192.15 72.056 192.096 71.8008C192.046 71.5456 191.968 71.3177 191.863 71.1172C191.758 70.9121 191.619 70.7458 191.446 70.6182C191.273 70.4906 191.045 70.4268 190.763 70.4268C190.571 70.4268 190.323 70.4518 190.018 70.502C189.717 70.5521 189.398 70.6432 189.061 70.7754V69.3672ZM190.093 66.8242C190.093 66.7012 190.116 66.5872 190.161 66.4824C190.207 66.3776 190.268 66.2865 190.346 66.209C190.428 66.127 190.521 66.0632 190.626 66.0176C190.731 65.972 190.845 65.9492 190.968 65.9492C191.091 65.9492 191.205 65.972 191.31 66.0176C191.414 66.0632 191.505 66.127 191.583 66.209C191.665 66.2865 191.729 66.3776 191.774 66.4824C191.82 66.5872 191.843 66.7012 191.843 66.8242C191.843 66.9473 191.82 67.0612 191.774 67.166C191.729 67.2708 191.665 67.3643 191.583 67.4463C191.505 67.5238 191.414 67.5853 191.31 67.6309C191.205 67.6764 191.091 67.6992 190.968 67.6992C190.845 67.6992 190.731 67.6764 190.626 67.6309C190.521 67.5853 190.428 67.5238 190.346 67.4463C190.268 67.3643 190.207 67.2708 190.161 67.166C190.116 67.0612 190.093 66.9473 190.093 66.8242ZM196.274 65.1836H198.051V75.0068H196.274V65.1836ZM212.916 73.5029V69.3945H214.693V75H206.812C206.269 75 205.795 74.9681 205.39 74.9043C204.989 74.8405 204.642 74.7516 204.351 74.6377C204.063 74.5192 203.826 74.3802 203.64 74.2207C203.453 74.0566 203.305 73.8766 203.195 73.6807C203.09 73.4847 203.018 73.2751 202.977 73.0518C202.931 72.8285 202.908 72.596 202.908 72.3545C202.908 72.2633 202.913 72.1562 202.922 72.0332C202.931 71.9102 202.945 71.7826 202.963 71.6504C202.977 71.5137 202.993 71.377 203.011 71.2402C203.029 71.1035 203.049 70.9759 203.072 70.8574L204.651 70.9941C204.619 71.1673 204.59 71.3405 204.563 71.5137C204.54 71.6868 204.528 71.86 204.528 72.0332C204.528 72.3021 204.563 72.5299 204.631 72.7168C204.704 72.8991 204.84 73.0495 205.041 73.168C205.242 73.2865 205.52 73.373 205.875 73.4277C206.235 73.4779 206.702 73.5029 207.276 73.5029H212.916ZM209.3 66.8242C209.3 66.7012 209.323 66.5872 209.368 66.4824C209.414 66.3776 209.475 66.2865 209.553 66.209C209.635 66.127 209.728 66.0632 209.833 66.0176C209.938 65.972 210.052 65.9492 210.175 65.9492C210.298 65.9492 210.412 65.972 210.517 66.0176C210.621 66.0632 210.713 66.127 210.79 66.209C210.872 66.2865 210.936 66.3776 210.981 66.4824C211.027 66.5872 211.05 66.7012 211.05 66.8242C211.05 66.9473 211.027 67.0612 210.981 67.166C210.936 67.2708 210.872 67.3643 210.79 67.4463C210.713 67.5238 210.621 67.5853 210.517 67.6309C210.412 67.6764 210.298 67.6992 210.175 67.6992C210.052 67.6992 209.938 67.6764 209.833 67.6309C209.728 67.5853 209.635 67.5238 209.553 67.4463C209.475 67.3643 209.414 67.2708 209.368 67.166C209.323 67.0612 209.3 66.9473 209.3 66.8242ZM207.249 66.8242C207.249 66.7012 207.272 66.5872 207.317 66.4824C207.363 66.3776 207.424 66.2865 207.502 66.209C207.584 66.127 207.677 66.0632 207.782 66.0176C207.887 65.972 208.001 65.9492 208.124 65.9492C208.247 65.9492 208.361 65.972 208.466 66.0176C208.571 66.0632 208.662 66.127 208.739 66.209C208.821 66.2865 208.885 66.3776 208.931 66.4824C208.976 66.5872 208.999 66.7012 208.999 66.8242C208.999 66.9473 208.976 67.0612 208.931 67.166C208.885 67.2708 208.821 67.3643 208.739 67.4463C208.662 67.5238 208.571 67.5853 208.466 67.6309C208.361 67.6764 208.247 67.6992 208.124 67.6992C208.001 67.6992 207.887 67.6764 207.782 67.6309C207.677 67.5853 207.584 67.5238 207.502 67.4463C207.424 67.3643 207.363 67.2708 207.317 67.166C207.272 67.0612 207.249 66.9473 207.249 66.8242ZM216.541 65.1836H218.318V72.3545C218.318 72.5824 218.334 72.7715 218.366 72.9219C218.402 73.0677 218.452 73.1839 218.516 73.2705C218.585 73.3571 218.669 73.4186 218.769 73.4551C218.874 73.487 218.995 73.5029 219.132 73.5029H219.466C219.594 73.5029 219.694 73.512 219.767 73.5303C219.84 73.5485 219.893 73.5781 219.924 73.6191C219.961 73.6602 219.981 73.7126 219.986 73.7764C219.995 73.8356 220 73.9085 220 73.9951V74.4736C220 74.5921 219.993 74.6855 219.979 74.7539C219.966 74.8223 219.938 74.8747 219.897 74.9111C219.856 74.9476 219.801 74.9727 219.733 74.9863C219.665 74.9954 219.576 75 219.466 75H218.701C218.318 75 217.99 74.9453 217.716 74.8359C217.448 74.7266 217.224 74.5739 217.047 74.3779C216.873 74.1774 216.746 73.9382 216.664 73.6602C216.582 73.3776 216.541 73.0677 216.541 72.7305V65.1836ZM221.245 66.8242C221.245 66.7012 221.268 66.5872 221.314 66.4824C221.359 66.3776 221.421 66.2865 221.498 66.209C221.58 66.127 221.674 66.0632 221.779 66.0176C221.883 65.972 221.997 65.9492 222.12 65.9492C222.244 65.9492 222.357 65.972 222.462 66.0176C222.567 66.0632 222.658 66.127 222.736 66.209C222.818 66.2865 222.882 66.3776 222.927 66.4824C222.973 66.5872 222.995 66.7012 222.995 66.8242C222.995 66.9473 222.973 67.0612 222.927 67.166C222.882 67.2708 222.818 67.3643 222.736 67.4463C222.658 67.5238 222.567 67.5853 222.462 67.6309C222.357 67.6764 222.244 67.6992 222.12 67.6992C221.997 67.6992 221.883 67.6764 221.779 67.6309C221.674 67.5853 221.58 67.5238 221.498 67.4463C221.421 67.3643 221.359 67.2708 221.314 67.166C221.268 67.0612 221.245 66.9473 221.245 66.8242ZM219.509 75C219.4 75 219.311 74.9954 219.243 74.9863C219.174 74.9727 219.119 74.9476 219.078 74.9111C219.037 74.8747 219.01 74.8223 218.996 74.7539C218.983 74.6855 218.976 74.5921 218.976 74.4736V73.9951C218.976 73.9085 218.98 73.8356 218.99 73.7764C218.994 73.7126 219.015 73.6602 219.051 73.6191C219.083 73.5781 219.135 73.5485 219.208 73.5303C219.277 73.512 219.377 73.5029 219.509 73.5029H221.259V69.3945H223.043V75H219.509ZM225.294 65.1836H227.071V72.3545C227.071 72.5824 227.087 72.7715 227.119 72.9219C227.156 73.0677 227.206 73.1839 227.27 73.2705C227.338 73.3571 227.422 73.4186 227.523 73.4551C227.627 73.487 227.748 73.5029 227.885 73.5029H228.22C228.347 73.5029 228.448 73.512 228.521 73.5303C228.593 73.5485 228.646 73.5781 228.678 73.6191C228.714 73.6602 228.735 73.7126 228.739 73.7764C228.748 73.8356 228.753 73.9085 228.753 73.9951V74.4736C228.753 74.5921 228.746 74.6855 228.732 74.7539C228.719 74.8223 228.691 74.8747 228.65 74.9111C228.609 74.9476 228.555 74.9727 228.486 74.9863C228.418 74.9954 228.329 75 228.22 75H227.454C227.071 75 226.743 74.9453 226.47 74.8359C226.201 74.7266 225.978 74.5739 225.8 74.3779C225.627 74.1774 225.499 73.9382 225.417 73.6602C225.335 73.3776 225.294 73.0677 225.294 72.7305V65.1836ZM231.66 72.751C231.66 72.833 231.655 72.915 231.646 72.9971C231.642 73.0745 231.635 73.152 231.626 73.2295C231.849 73.3206 232.088 73.389 232.343 73.4346C232.603 73.4801 232.872 73.5029 233.15 73.5029H233.205C233.332 73.5029 233.433 73.512 233.506 73.5303C233.579 73.5485 233.631 73.5781 233.663 73.6191C233.699 73.6602 233.72 73.7126 233.724 73.7764C233.733 73.8356 233.738 73.9085 233.738 73.9951V74.4736C233.738 74.5921 233.731 74.6855 233.718 74.7539C233.704 74.8223 233.676 74.8747 233.635 74.9111C233.594 74.9476 233.54 74.9727 233.471 74.9863C233.403 74.9954 233.314 75 233.205 75H233.13C232.674 75 232.284 74.9499 231.961 74.8496C231.642 74.7448 231.359 74.6081 231.113 74.4395C230.954 74.6126 230.753 74.7493 230.511 74.8496C230.274 74.9499 229.985 75 229.643 75H228.262C228.153 75 228.064 74.9954 227.996 74.9863C227.927 74.9727 227.873 74.9476 227.832 74.9111C227.791 74.8747 227.763 74.8223 227.75 74.7539C227.736 74.6855 227.729 74.5921 227.729 74.4736V73.9951C227.729 73.9085 227.734 73.8356 227.743 73.7764C227.747 73.7126 227.768 73.6602 227.804 73.6191C227.836 73.5781 227.889 73.5485 227.962 73.5303C228.03 73.512 228.13 73.5029 228.262 73.5029H229.035C229.185 73.5029 229.313 73.487 229.418 73.4551C229.527 73.4232 229.614 73.3708 229.677 73.2979C229.746 73.2204 229.796 73.1178 229.828 72.9902C229.86 72.8626 229.876 72.7031 229.876 72.5117V69.4014H231.66V72.751ZM230.805 76.9619C230.805 76.8389 230.828 76.7249 230.874 76.6201C230.919 76.5153 230.981 76.4219 231.058 76.3398C231.14 76.2624 231.234 76.2008 231.339 76.1553C231.443 76.1097 231.557 76.0869 231.68 76.0869C231.803 76.0869 231.917 76.1097 232.022 76.1553C232.127 76.2008 232.218 76.2624 232.296 76.3398C232.378 76.4219 232.441 76.5153 232.487 76.6201C232.533 76.7249 232.555 76.8389 232.555 76.9619C232.555 77.085 232.533 77.1989 232.487 77.3037C232.441 77.4085 232.378 77.4997 232.296 77.5771C232.218 77.6592 232.127 77.723 232.022 77.7686C231.917 77.8141 231.803 77.8369 231.68 77.8369C231.557 77.8369 231.443 77.8141 231.339 77.7686C231.234 77.723 231.14 77.6592 231.058 77.5771C230.981 77.4997 230.919 77.4085 230.874 77.3037C230.828 77.1989 230.805 77.085 230.805 76.9619ZM228.755 76.9619C228.755 76.8389 228.777 76.7249 228.823 76.6201C228.869 76.5153 228.93 76.4219 229.008 76.3398C229.09 76.2624 229.183 76.2008 229.288 76.1553C229.393 76.1097 229.507 76.0869 229.63 76.0869C229.753 76.0869 229.867 76.1097 229.971 76.1553C230.076 76.2008 230.167 76.2624 230.245 76.3398C230.327 76.4219 230.391 76.5153 230.436 76.6201C230.482 76.7249 230.505 76.8389 230.505 76.9619C230.505 77.085 230.482 77.1989 230.436 77.3037C230.391 77.4085 230.327 77.4997 230.245 77.5771C230.167 77.6592 230.076 77.723 229.971 77.7686C229.867 77.8141 229.753 77.8369 229.63 77.8369C229.507 77.8369 229.393 77.8141 229.288 77.7686C229.183 77.723 229.09 77.6592 229.008 77.5771C228.93 77.4997 228.869 77.4085 228.823 77.3037C228.777 77.1989 228.755 77.085 228.755 76.9619ZM233.227 75C233.118 75 233.029 74.9954 232.96 74.9863C232.892 74.9727 232.837 74.9476 232.796 74.9111C232.755 74.8747 232.728 74.8223 232.714 74.7539C232.701 74.6855 232.694 74.5921 232.694 74.4736V73.9951C232.694 73.9085 232.698 73.8356 232.707 73.7764C232.712 73.7126 232.732 73.6602 232.769 73.6191C232.801 73.5781 232.853 73.5485 232.926 73.5303C232.995 73.512 233.095 73.5029 233.227 73.5029H234.977V69.3945H236.761V75H233.227ZM235.312 76.9619C235.312 76.8389 235.335 76.7249 235.38 76.6201C235.426 76.5153 235.487 76.4219 235.565 76.3398C235.647 76.2624 235.74 76.2008 235.845 76.1553C235.95 76.1097 236.064 76.0869 236.187 76.0869C236.31 76.0869 236.424 76.1097 236.529 76.1553C236.634 76.2008 236.725 76.2624 236.802 76.3398C236.884 76.4219 236.948 76.5153 236.994 76.6201C237.039 76.7249 237.062 76.8389 237.062 76.9619C237.062 77.085 237.039 77.1989 236.994 77.3037C236.948 77.4085 236.884 77.4997 236.802 77.5771C236.725 77.6592 236.634 77.723 236.529 77.7686C236.424 77.8141 236.31 77.8369 236.187 77.8369C236.064 77.8369 235.95 77.8141 235.845 77.7686C235.74 77.723 235.647 77.6592 235.565 77.5771C235.487 77.4997 235.426 77.4085 235.38 77.3037C235.335 77.1989 235.312 77.085 235.312 76.9619Z" fill="#0F1621"/>
<rect x="329.5" width="48" height="48" rx="16" fill="#59A0F2"/>
<path d="M350.25 30.2292C350.249 30.2292 350.248 30.2292 350.247 30.2292C350.03 30.2281 349.823 30.1414 349.671 29.9865L345.337 25.586C345.022 25.2664 345.026 24.7519 345.346 24.4366C345.666 24.1224 346.181 24.1257 346.495 24.4453L350.253 28.2629L360.508 18.0081C360.826 17.6907 361.34 17.6907 361.658 18.0081C361.975 18.3255 361.975 18.8401 361.658 19.1575L350.824 29.9909C350.673 30.1436 350.466 30.2292 350.25 30.2292Z" fill="white"/>
<path opacity="0.4" d="M314.231 65.1768H315.454V73.7764C315.454 74.3779 315.363 74.9316 315.181 75.4375C315.003 75.9479 314.739 76.3877 314.388 76.7568C314.037 77.126 313.602 77.4131 313.082 77.6182C312.567 77.8278 311.972 77.9326 311.298 77.9326C310.651 77.9326 310.088 77.8324 309.609 77.6318C309.135 77.4359 308.741 77.1715 308.427 76.8389C308.112 76.5062 307.878 76.1211 307.723 75.6836C307.568 75.2507 307.49 74.7949 307.49 74.3164C307.49 74.0885 307.509 73.8561 307.545 73.6191C307.586 73.3776 307.638 73.1429 307.702 72.915C307.766 72.6826 307.841 72.4639 307.928 72.2588C308.019 72.0537 308.117 71.8691 308.222 71.7051L309.261 72.2861C309.188 72.4046 309.122 72.5391 309.063 72.6895C309.003 72.8353 308.953 72.9902 308.912 73.1543C308.871 73.3184 308.839 73.487 308.816 73.6602C308.794 73.8288 308.782 73.9951 308.782 74.1592C308.782 74.5146 308.839 74.8473 308.953 75.1572C309.067 75.4717 309.233 75.7428 309.452 75.9707C309.676 76.2031 309.949 76.3854 310.273 76.5176C310.601 76.6543 310.974 76.7227 311.394 76.7227C311.845 76.7227 312.246 76.6543 312.597 76.5176C312.948 76.3854 313.244 76.1917 313.485 75.9365C313.727 75.6859 313.912 75.3783 314.039 75.0137C314.167 74.6491 314.231 74.2367 314.231 73.7764V65.1768ZM317.855 65.1836H319.086V75.0068H317.855V65.1836ZM324.413 75C323.852 75 323.378 74.9202 322.991 74.7607C322.608 74.6012 322.298 74.3962 322.061 74.1455C321.824 73.8903 321.653 73.6032 321.548 73.2842C321.443 72.9652 321.391 72.6484 321.391 72.334C321.391 71.9375 321.459 71.5661 321.596 71.2197C321.733 70.8734 321.929 70.5726 322.184 70.3174C322.439 70.0576 322.745 69.8548 323.1 69.709C323.46 69.5632 323.863 69.4902 324.31 69.4902C324.488 69.4902 324.675 69.5085 324.871 69.5449C325.067 69.5768 325.258 69.6383 325.445 69.7295C325.636 69.8161 325.816 69.9346 325.985 70.085C326.153 70.2354 326.302 70.4268 326.429 70.6592C326.557 70.887 326.657 71.1628 326.73 71.4863C326.807 71.8053 326.846 72.1768 326.846 72.6006V73.7695H328.323C328.487 73.7695 328.61 73.7969 328.692 73.8516C328.774 73.9062 328.815 73.9997 328.815 74.1318V74.6035C328.815 74.6901 328.801 74.7607 328.774 74.8154C328.751 74.8656 328.717 74.9043 328.671 74.9316C328.626 74.959 328.573 74.9772 328.514 74.9863C328.455 74.9954 328.391 75 328.323 75H326.757C326.639 75.4967 326.447 75.9183 326.183 76.2646C325.919 76.611 325.595 76.8958 325.212 77.1191C324.834 77.347 324.401 77.5225 323.914 77.6455C323.43 77.7731 322.913 77.8643 322.362 77.9189L322.232 76.7363C323.162 76.6725 323.907 76.4902 324.467 76.1895C325.032 75.8932 325.388 75.4967 325.534 75H324.413ZM325.622 73.7695V72.9971C325.622 72.5094 325.577 72.113 325.486 71.8076C325.399 71.4977 325.283 71.2585 325.137 71.0898C324.996 70.9167 324.832 70.8005 324.645 70.7412C324.463 70.6774 324.278 70.6455 324.091 70.6455C323.882 70.6455 323.686 70.6842 323.503 70.7617C323.321 70.8392 323.162 70.9486 323.025 71.0898C322.893 71.2311 322.788 71.402 322.71 71.6025C322.633 71.7985 322.594 72.015 322.594 72.252C322.594 72.457 322.626 72.653 322.69 72.8398C322.758 73.0221 322.865 73.1816 323.011 73.3184C323.157 73.4551 323.344 73.5645 323.572 73.6465C323.8 73.7285 324.078 73.7695 324.406 73.7695H325.622ZM329.678 69.6406C329.947 69.5632 330.218 69.4948 330.491 69.4355C330.769 69.3717 331.081 69.3398 331.428 69.3398C331.779 69.3398 332.089 69.3945 332.358 69.5039C332.631 69.6133 332.863 69.766 333.055 69.9619C333.251 70.1579 333.408 70.3926 333.526 70.666C333.65 70.9349 333.736 71.2288 333.786 71.5479C333.832 71.8395 333.877 72.1198 333.923 72.3887C333.969 72.6576 334.026 72.8945 334.094 73.0996C334.167 73.3047 334.256 73.4688 334.36 73.5918C334.47 73.7103 334.609 73.7695 334.777 73.7695H335.413C335.577 73.7695 335.7 73.7969 335.782 73.8516C335.864 73.9062 335.905 73.9997 335.905 74.1318V74.6035C335.905 74.6901 335.892 74.7607 335.864 74.8154C335.842 74.8656 335.807 74.9043 335.762 74.9316C335.716 74.959 335.664 74.9772 335.605 74.9863C335.545 74.9954 335.482 75 335.413 75H328.4C328.235 75 328.112 74.9727 328.03 74.918C327.948 74.8633 327.907 74.7699 327.907 74.6377V74.166C327.907 74.0794 327.921 74.0111 327.948 73.9609C327.971 73.9062 328.005 73.8652 328.051 73.8379C328.096 73.8105 328.149 73.7923 328.208 73.7832C328.267 73.7741 328.331 73.7695 328.4 73.7695H333.26C333.164 73.6738 333.084 73.5439 333.021 73.3799C332.961 73.2158 332.911 72.9902 332.87 72.7031C332.834 72.4342 332.786 72.1676 332.727 71.9033C332.672 71.639 332.581 71.402 332.453 71.1924C332.33 70.9782 332.159 70.8073 331.941 70.6797C331.726 70.5475 331.442 70.4814 331.086 70.4814C330.986 70.4814 330.872 70.4906 330.744 70.5088C330.617 70.5225 330.487 70.543 330.355 70.5703C330.222 70.5931 330.097 70.6204 329.979 70.6523C329.86 70.6842 329.76 70.7184 329.678 70.7549V69.6406ZM330.813 77.0508C330.813 76.9505 330.831 76.8548 330.867 76.7637C330.908 76.6771 330.961 76.5996 331.025 76.5312C331.088 76.4674 331.164 76.415 331.25 76.374C331.341 76.3376 331.437 76.3193 331.537 76.3193C331.637 76.3193 331.731 76.3376 331.817 76.374C331.909 76.415 331.986 76.4674 332.05 76.5312C332.118 76.5996 332.171 76.6771 332.207 76.7637C332.248 76.8548 332.269 76.9505 332.269 77.0508C332.269 77.151 332.248 77.2445 332.207 77.3311C332.171 77.4222 332.118 77.4997 332.05 77.5635C331.986 77.6273 331.909 77.6774 331.817 77.7139C331.731 77.7549 331.637 77.7754 331.537 77.7754C331.332 77.7754 331.159 77.7048 331.018 77.5635C330.881 77.4268 330.813 77.2559 330.813 77.0508ZM335.483 75C335.319 75 335.196 74.9727 335.114 74.918C335.032 74.8633 334.991 74.7699 334.991 74.6377V74.166C334.991 74.0794 335.005 74.0111 335.032 73.9609C335.055 73.9062 335.089 73.8652 335.135 73.8379C335.18 73.8105 335.233 73.7923 335.292 73.7832C335.351 73.7741 335.415 73.7695 335.483 73.7695H337.343V65.1768H338.573V75H335.483ZM340.967 65.1836H342.198V75.0068H340.967V65.1836ZM354.205 73.7764C354.205 73.6488 354.194 73.4915 354.171 73.3047C354.148 73.1133 354.116 72.9128 354.075 72.7031C354.034 72.4935 353.982 72.2816 353.918 72.0674C353.854 71.8532 353.781 71.6572 353.699 71.4795L354.909 71.1377C354.959 71.2744 355.009 71.4271 355.059 71.5957C355.11 71.7643 355.155 71.9421 355.196 72.1289C355.242 72.3112 355.283 72.5003 355.319 72.6963C355.356 72.8877 355.383 73.0768 355.401 73.2637C355.615 73.4368 355.868 73.5645 356.16 73.6465C356.456 73.7285 356.814 73.7695 357.233 73.7695H357.288C357.452 73.7695 357.575 73.7969 357.657 73.8516C357.739 73.9062 357.78 73.9997 357.78 74.1318V74.6035C357.78 74.6901 357.766 74.7607 357.739 74.8154C357.716 74.8656 357.682 74.9043 357.637 74.9316C357.591 74.959 357.539 74.9772 357.479 74.9863C357.42 74.9954 357.356 75 357.288 75H357.22C356.796 75 356.436 74.9521 356.139 74.8564C355.848 74.7607 355.595 74.6331 355.381 74.4736C355.317 74.984 355.18 75.4512 354.971 75.875C354.761 76.2988 354.483 76.6634 354.137 76.9688C353.795 77.2741 353.382 77.5111 352.899 77.6797C352.421 77.8483 351.878 77.9326 351.272 77.9326C350.625 77.9326 350.062 77.8324 349.584 77.6318C349.11 77.4359 348.716 77.1715 348.401 76.8389C348.087 76.5062 347.852 76.1211 347.697 75.6836C347.542 75.2507 347.465 74.7949 347.465 74.3164C347.465 74.0885 347.483 73.8561 347.519 73.6191C347.56 73.3776 347.613 73.1429 347.677 72.915C347.74 72.6826 347.816 72.4639 347.902 72.2588C347.993 72.0537 348.091 71.8691 348.196 71.7051L349.235 72.2861C349.162 72.4046 349.096 72.5391 349.037 72.6895C348.978 72.8353 348.928 72.9902 348.887 73.1543C348.846 73.3184 348.814 73.487 348.791 73.6602C348.768 73.8288 348.757 73.9951 348.757 74.1592C348.757 74.5146 348.814 74.8473 348.928 75.1572C349.042 75.4717 349.208 75.7428 349.427 75.9707C349.65 76.2031 349.923 76.3854 350.247 76.5176C350.575 76.6543 350.949 76.7227 351.368 76.7227C351.819 76.7227 352.22 76.6543 352.571 76.5176C352.922 76.3854 353.218 76.1917 353.46 75.9365C353.701 75.6859 353.886 75.3783 354.014 75.0137C354.141 74.6491 354.205 74.2367 354.205 73.7764ZM351.471 68.6357C351.471 68.5355 351.489 68.4421 351.525 68.3555C351.566 68.2643 351.619 68.1868 351.682 68.123C351.746 68.0547 351.821 68.0023 351.908 67.9658C351.999 67.9248 352.095 67.9043 352.195 67.9043C352.295 67.9043 352.389 67.9248 352.475 67.9658C352.567 68.0023 352.644 68.0547 352.708 68.123C352.776 68.1868 352.829 68.2643 352.865 68.3555C352.906 68.4421 352.927 68.5355 352.927 68.6357C352.927 68.736 352.906 68.8317 352.865 68.9229C352.829 69.0094 352.776 69.0846 352.708 69.1484C352.644 69.2122 352.567 69.2646 352.475 69.3057C352.389 69.3421 352.295 69.3604 352.195 69.3604C351.99 69.3604 351.817 69.292 351.676 69.1553C351.539 69.014 351.471 68.8408 351.471 68.6357ZM359.47 74.0566C359.375 74.2344 359.272 74.3848 359.163 74.5078C359.058 74.6263 358.942 74.722 358.814 74.7949C358.691 74.8678 358.554 74.9202 358.404 74.9521C358.253 74.984 358.085 75 357.898 75H357.365C357.201 75 357.078 74.9727 356.996 74.918C356.914 74.8633 356.873 74.7699 356.873 74.6377V74.166C356.873 74.0794 356.886 74.0111 356.914 73.9609C356.936 73.9062 356.971 73.8652 357.016 73.8379C357.062 73.8105 357.114 73.7923 357.173 73.7832C357.233 73.7741 357.296 73.7695 357.365 73.7695H357.686C357.969 73.7695 358.219 73.7057 358.438 73.5781C358.661 73.446 358.812 73.2386 358.889 72.9561C359.021 72.4684 359.169 72.0492 359.334 71.6982C359.498 71.3428 359.668 71.042 359.846 70.7959C360.029 70.5452 360.213 70.3447 360.4 70.1943C360.587 70.0394 360.771 69.9186 360.954 69.832C361.136 69.7454 361.309 69.6885 361.473 69.6611C361.642 69.6292 361.797 69.6133 361.938 69.6133C362.243 69.6133 362.521 69.6566 362.772 69.7432C363.023 69.8298 363.246 69.9482 363.442 70.0986C363.638 70.2445 363.809 70.4154 363.955 70.6113C364.1 70.8073 364.221 71.0124 364.317 71.2266C364.413 71.4362 364.483 71.6504 364.529 71.8691C364.574 72.0879 364.597 72.2952 364.597 72.4912C364.597 72.6689 364.574 72.8581 364.529 73.0586C364.483 73.2546 364.415 73.4482 364.324 73.6396C364.233 73.8265 364.114 74.0065 363.968 74.1797C363.827 74.3529 363.658 74.5055 363.462 74.6377C363.266 74.7699 363.043 74.8747 362.792 74.9521C362.542 75.0296 362.262 75.0684 361.952 75.0684C361.655 75.0684 361.377 75.0387 361.118 74.9795C360.862 74.9157 360.63 74.8359 360.42 74.7402C360.215 74.6445 360.031 74.5374 359.867 74.4189C359.707 74.2959 359.575 74.1751 359.47 74.0566ZM363.49 72.6348C363.49 72.4661 363.458 72.2747 363.394 72.0605C363.335 71.8464 363.239 71.6436 363.107 71.4521C362.979 71.2607 362.815 71.1012 362.615 70.9736C362.414 70.8415 362.175 70.7754 361.897 70.7754C361.633 70.7754 361.389 70.846 361.166 70.9873C360.947 71.1286 360.753 71.3154 360.584 71.5479C360.416 71.7757 360.275 72.0378 360.161 72.334C360.047 72.6302 359.965 72.9355 359.915 73.25C359.96 73.3138 360.049 73.3822 360.181 73.4551C360.313 73.5234 360.466 73.5872 360.639 73.6465C360.817 73.7012 361.004 73.7467 361.2 73.7832C361.4 73.8197 361.592 73.8379 361.774 73.8379C362.034 73.8379 362.268 73.8197 362.478 73.7832C362.692 73.7467 362.875 73.6852 363.025 73.5986C363.175 73.5075 363.289 73.3844 363.367 73.2295C363.449 73.0745 363.49 72.8763 363.49 72.6348ZM375.818 75C375.299 75 374.859 74.9202 374.499 74.7607C374.143 74.6012 373.854 74.3962 373.631 74.1455C373.407 73.8903 373.246 73.6032 373.145 73.2842C373.045 72.9652 372.995 72.6484 372.995 72.334C372.995 71.9375 373.063 71.5661 373.2 71.2197C373.337 70.8734 373.533 70.5726 373.788 70.3174C374.043 70.0576 374.349 69.8548 374.704 69.709C375.064 69.5632 375.467 69.4902 375.914 69.4902C376.096 69.4902 376.283 69.5085 376.474 69.5449C376.67 69.5768 376.862 69.6383 377.049 69.7295C377.24 69.8161 377.42 69.9346 377.589 70.085C377.757 70.2354 377.905 70.4268 378.033 70.6592C378.161 70.887 378.261 71.1628 378.334 71.4863C378.411 71.8053 378.45 72.1768 378.45 72.6006V73.7695H379.858C380.022 73.7695 380.145 73.7969 380.227 73.8516C380.309 73.9062 380.35 73.9997 380.35 74.1318V74.6035C380.35 74.6901 380.337 74.7607 380.309 74.8154C380.287 74.8656 380.252 74.9043 380.207 74.9316C380.161 74.959 380.109 74.9772 380.05 74.9863C379.99 74.9954 379.927 75 379.858 75H378.45C378.391 75.7018 378.238 76.3125 377.992 76.832C377.746 77.3561 377.42 77.7891 377.015 78.1309C376.609 78.4772 376.133 78.7347 375.586 78.9033C375.039 79.0719 374.435 79.1562 373.774 79.1562C373.072 79.1562 372.455 79.0674 371.922 78.8896C371.393 78.7119 370.951 78.4635 370.596 78.1445C370.24 77.8255 369.971 77.445 369.789 77.0029C369.611 76.5609 369.522 76.0732 369.522 75.54C369.522 75.3122 369.541 75.0798 369.577 74.8428C369.618 74.6012 369.67 74.3665 369.734 74.1387C369.798 73.9062 369.873 73.6875 369.96 73.4824C370.051 73.2773 370.149 73.0928 370.254 72.9287L371.293 73.5098C371.22 73.6283 371.154 73.7627 371.095 73.9131C371.035 74.0589 370.985 74.2139 370.944 74.3779C370.903 74.542 370.871 74.7106 370.849 74.8838C370.826 75.0524 370.814 75.2188 370.814 75.3828C370.814 75.7611 370.878 76.1051 371.006 76.415C371.138 76.7295 371.332 77.0007 371.587 77.2285C371.842 77.4564 372.159 77.6318 372.537 77.7549C372.92 77.8825 373.364 77.9463 373.87 77.9463C374.344 77.9463 374.786 77.8848 375.196 77.7617C375.606 77.6432 375.962 77.4632 376.263 77.2217C376.563 76.9801 376.798 76.6748 376.967 76.3057C377.14 75.9365 377.226 75.5013 377.226 75H375.818ZM377.226 73.7695V72.9971C377.226 72.5094 377.181 72.113 377.09 71.8076C377.003 71.4977 376.887 71.2585 376.741 71.0898C376.6 70.9167 376.436 70.8005 376.249 70.7412C376.067 70.6774 375.882 70.6455 375.695 70.6455C375.486 70.6455 375.29 70.6842 375.107 70.7617C374.925 70.8392 374.766 70.9486 374.629 71.0898C374.497 71.2311 374.392 71.402 374.314 71.6025C374.237 71.7985 374.198 72.015 374.198 72.252C374.198 72.457 374.232 72.653 374.301 72.8398C374.369 73.0221 374.476 73.1816 374.622 73.3184C374.772 73.4551 374.964 73.5645 375.196 73.6465C375.429 73.7285 375.709 73.7695 376.037 73.7695H377.226ZM374.068 67.2617C374.068 67.1615 374.086 67.068 374.123 66.9814C374.164 66.8903 374.216 66.8128 374.28 66.749C374.344 66.6807 374.419 66.6283 374.506 66.5918C374.597 66.5508 374.693 66.5303 374.793 66.5303C374.893 66.5303 374.987 66.5508 375.073 66.5918C375.164 66.6283 375.242 66.6807 375.306 66.749C375.374 66.8128 375.426 66.8903 375.463 66.9814C375.504 67.068 375.524 67.1615 375.524 67.2617C375.524 67.362 375.504 67.4577 375.463 67.5488C375.426 67.6354 375.374 67.7106 375.306 67.7744C375.242 67.8382 375.164 67.8906 375.073 67.9316C374.987 67.9681 374.893 67.9863 374.793 67.9863C374.588 67.9863 374.415 67.918 374.273 67.7812C374.137 67.64 374.068 67.4668 374.068 67.2617ZM376.016 67.2617C376.016 67.1615 376.035 67.068 376.071 66.9814C376.112 66.8903 376.165 66.8128 376.228 66.749C376.292 66.6807 376.367 66.6283 376.454 66.5918C376.545 66.5508 376.641 66.5303 376.741 66.5303C376.841 66.5303 376.935 66.5508 377.021 66.5918C377.113 66.6283 377.19 66.6807 377.254 66.749C377.322 66.8128 377.375 66.8903 377.411 66.9814C377.452 67.068 377.473 67.1615 377.473 67.2617C377.473 67.362 377.452 67.4577 377.411 67.5488C377.375 67.6354 377.322 67.7106 377.254 67.7744C377.19 67.8382 377.113 67.8906 377.021 67.9316C376.935 67.9681 376.841 67.9863 376.741 67.9863C376.536 67.9863 376.363 67.918 376.222 67.7812C376.085 67.64 376.016 67.4668 376.016 67.2617ZM382.082 67.2617C382.082 67.1615 382.1 67.068 382.136 66.9814C382.177 66.8903 382.23 66.8128 382.294 66.749C382.357 66.6807 382.433 66.6283 382.519 66.5918C382.61 66.5508 382.706 66.5303 382.806 66.5303C382.906 66.5303 383 66.5508 383.086 66.5918C383.178 66.6283 383.255 66.6807 383.319 66.749C383.387 66.8128 383.44 66.8903 383.476 66.9814C383.517 67.068 383.538 67.1615 383.538 67.2617C383.538 67.362 383.517 67.4577 383.476 67.5488C383.44 67.6354 383.387 67.7106 383.319 67.7744C383.255 67.8382 383.178 67.8906 383.086 67.9316C383 67.9681 382.906 67.9863 382.806 67.9863C382.601 67.9863 382.428 67.918 382.287 67.7812C382.15 67.64 382.082 67.4668 382.082 67.2617ZM384.03 67.2617C384.03 67.1615 384.048 67.068 384.085 66.9814C384.126 66.8903 384.178 66.8128 384.242 66.749C384.306 66.6807 384.381 66.6283 384.467 66.5918C384.558 66.5508 384.654 66.5303 384.754 66.5303C384.855 66.5303 384.948 66.5508 385.035 66.5918C385.126 66.6283 385.203 66.6807 385.267 66.749C385.336 66.8128 385.388 66.8903 385.424 66.9814C385.465 67.068 385.486 67.1615 385.486 67.2617C385.486 67.362 385.465 67.4577 385.424 67.5488C385.388 67.6354 385.336 67.7106 385.267 67.7744C385.203 67.8382 385.126 67.8906 385.035 67.9316C384.948 67.9681 384.855 67.9863 384.754 67.9863C384.549 67.9863 384.376 67.918 384.235 67.7812C384.098 67.64 384.03 67.4668 384.03 67.2617ZM387.038 75C386.5 75 386.01 74.9818 385.568 74.9453C385.13 74.9089 384.727 74.8519 384.358 74.7744C384.098 74.82 383.818 74.8564 383.517 74.8838C383.216 74.9111 382.906 74.9339 382.587 74.9521C382.268 74.9704 381.943 74.984 381.61 74.9932C381.282 74.9977 380.958 75 380.639 75H379.928C379.764 75 379.641 74.9727 379.559 74.918C379.477 74.8633 379.436 74.7699 379.436 74.6377V74.166C379.436 74.0794 379.45 74.0111 379.477 73.9609C379.5 73.9062 379.534 73.8652 379.58 73.8379C379.625 73.8105 379.678 73.7923 379.737 73.7832C379.796 73.7741 379.86 73.7695 379.928 73.7695H381.836L381.829 73.7422C381.706 73.6374 381.601 73.5166 381.514 73.3799C381.428 73.2432 381.355 73.1019 381.295 72.9561C381.236 72.8102 381.193 72.6667 381.166 72.5254C381.138 72.3841 381.125 72.2565 381.125 72.1426C381.125 71.7826 381.193 71.4408 381.33 71.1172C381.466 70.7891 381.66 70.502 381.911 70.2559C382.166 70.0098 382.476 69.8161 382.84 69.6748C383.205 69.529 383.613 69.4561 384.064 69.4561C384.461 69.4561 384.809 69.5199 385.11 69.6475C385.415 69.7751 385.67 69.9482 385.876 70.167C386.085 70.3857 386.242 70.6432 386.347 70.9395C386.452 71.2311 386.504 71.5433 386.504 71.876C386.504 72.0765 386.486 72.2702 386.45 72.457C386.418 72.6393 386.377 72.8125 386.327 72.9766C386.277 73.1406 386.222 73.291 386.163 73.4277C386.108 73.5599 386.06 73.6738 386.019 73.7695H387.776C387.94 73.7695 388.063 73.7969 388.145 73.8516C388.227 73.9062 388.268 73.9997 388.268 74.1318V74.6035C388.268 74.6901 388.254 74.7607 388.227 74.8154C388.204 74.8656 388.17 74.9043 388.125 74.9316C388.079 74.959 388.027 74.9772 387.967 74.9863C387.908 74.9954 387.844 75 387.776 75H387.038ZM382.28 71.999C382.28 72.2679 382.332 72.5117 382.437 72.7305C382.542 72.9447 382.685 73.1292 382.868 73.2842C383.05 73.4391 383.262 73.5599 383.503 73.6465C383.75 73.7285 384.012 73.7695 384.29 73.7695H384.72C384.775 73.6921 384.834 73.5941 384.898 73.4756C384.962 73.3571 385.019 73.2272 385.069 73.0859C385.124 72.9401 385.169 72.7852 385.206 72.6211C385.242 72.4525 385.26 72.2793 385.26 72.1016C385.26 71.8509 385.219 71.6299 385.137 71.4385C385.06 71.2471 384.955 71.0876 384.823 70.96C384.691 70.8278 384.538 70.7298 384.365 70.666C384.192 70.5977 384.012 70.5635 383.825 70.5635C383.638 70.5635 383.451 70.5931 383.264 70.6523C383.082 70.707 382.918 70.7936 382.772 70.9121C382.626 71.026 382.508 71.1742 382.417 71.3564C382.325 71.5387 382.28 71.7529 382.28 71.999ZM389.124 69.6406C389.393 69.5632 389.664 69.4948 389.938 69.4355C390.216 69.3717 390.528 69.3398 390.874 69.3398C391.225 69.3398 391.535 69.3945 391.804 69.5039C392.077 69.6133 392.31 69.766 392.501 69.9619C392.697 70.1579 392.854 70.3926 392.973 70.666C393.096 70.9349 393.183 71.2288 393.233 71.5479C393.278 71.8395 393.324 72.1198 393.369 72.3887C393.415 72.6576 393.472 72.8945 393.54 73.0996C393.613 73.3047 393.702 73.4688 393.807 73.5918C393.916 73.7103 394.055 73.7695 394.224 73.7695H394.86C395.024 73.7695 395.147 73.7969 395.229 73.8516C395.311 73.9062 395.352 73.9997 395.352 74.1318V74.6035C395.352 74.6901 395.338 74.7607 395.311 74.8154C395.288 74.8656 395.254 74.9043 395.208 74.9316C395.163 74.959 395.11 74.9772 395.051 74.9863C394.992 74.9954 394.928 75 394.86 75H387.846C387.682 75 387.559 74.9727 387.477 74.918C387.395 74.8633 387.354 74.7699 387.354 74.6377V74.166C387.354 74.0794 387.367 74.0111 387.395 73.9609C387.418 73.9062 387.452 73.8652 387.497 73.8379C387.543 73.8105 387.595 73.7923 387.655 73.7832C387.714 73.7741 387.778 73.7695 387.846 73.7695H392.706C392.611 73.6738 392.531 73.5439 392.467 73.3799C392.408 73.2158 392.358 72.9902 392.317 72.7031C392.28 72.4342 392.232 72.1676 392.173 71.9033C392.118 71.639 392.027 71.402 391.9 71.1924C391.777 70.9782 391.606 70.8073 391.387 70.6797C391.173 70.5475 390.888 70.4814 390.532 70.4814C390.432 70.4814 390.318 70.4906 390.191 70.5088C390.063 70.5225 389.933 70.543 389.801 70.5703C389.669 70.5931 389.544 70.6204 389.425 70.6523C389.307 70.6842 389.206 70.7184 389.124 70.7549V69.6406ZM394.93 75C394.766 75 394.643 74.9727 394.56 74.918C394.478 74.8633 394.437 74.7699 394.437 74.6377V74.166C394.437 74.0794 394.451 74.0111 394.478 73.9609C394.501 73.9062 394.535 73.8652 394.581 73.8379C394.627 73.8105 394.679 73.7923 394.738 73.7832C394.797 73.7741 394.861 73.7695 394.93 73.7695H397.179V69.7158H398.416V75H394.93ZM395.962 67.2617C395.962 67.1615 395.98 67.068 396.017 66.9814C396.058 66.8903 396.11 66.8128 396.174 66.749C396.238 66.6807 396.313 66.6283 396.399 66.5918C396.49 66.5508 396.586 66.5303 396.686 66.5303C396.787 66.5303 396.88 66.5508 396.967 66.5918C397.058 66.6283 397.135 66.6807 397.199 66.749C397.268 66.8128 397.32 66.8903 397.356 66.9814C397.397 67.068 397.418 67.1615 397.418 67.2617C397.418 67.362 397.397 67.4577 397.356 67.5488C397.32 67.6354 397.268 67.7106 397.199 67.7744C397.135 67.8382 397.058 67.8906 396.967 67.9316C396.88 67.9681 396.787 67.9863 396.686 67.9863C396.481 67.9863 396.308 67.918 396.167 67.7812C396.03 67.64 395.962 67.4668 395.962 67.2617ZM397.91 67.2617C397.91 67.1615 397.928 67.068 397.965 66.9814C398.006 66.8903 398.058 66.8128 398.122 66.749C398.186 66.6807 398.261 66.6283 398.348 66.5918C398.439 66.5508 398.534 66.5303 398.635 66.5303C398.735 66.5303 398.828 66.5508 398.915 66.5918C399.006 66.6283 399.084 66.6807 399.147 66.749C399.216 66.8128 399.268 66.8903 399.305 66.9814C399.346 67.068 399.366 67.1615 399.366 67.2617C399.366 67.362 399.346 67.4577 399.305 67.5488C399.268 67.6354 399.216 67.7106 399.147 67.7744C399.084 67.8382 399.006 67.8906 398.915 67.9316C398.828 67.9681 398.735 67.9863 398.635 67.9863C398.43 67.9863 398.256 67.918 398.115 67.7812C397.978 67.64 397.91 67.4668 397.91 67.2617Z" fill="#0F1621"/>
</svg>
