<svg width="400" height="83" viewBox="0 0 400 83" fill="none" xmlns="http://www.w3.org/2000/svg">
<path d="M75.5 25C74.9477 25 74.5 25.4477 74.5 26C74.5 26.5523 74.9477 27 75.5 27V26V25ZM75.5 26V27H76.5078V26V25H75.5V26ZM78.5234 26V27H80.5391V26V25H78.5234V26ZM82.5547 26V27H84.5703V26V25H82.5547V26ZM86.5859 26V27H88.6016V26V25H86.5859V26ZM90.6172 26V27H92.6328V26V25H90.6172V26ZM94.6484 26V27H96.6641V26V25H94.6484V26ZM98.6797 26V27H100.695V26V25H98.6797V26ZM102.711 26V27H104.727V26V25H102.711V26ZM106.742 26V27H108.758V26V25H106.742V26ZM110.773 26V27H112.789V26V25H110.773V26ZM114.805 26V27H116.82V26V25H114.805V26ZM118.836 26V27H120.852V26V25H118.836V26ZM122.867 26V27H124.883V26V25H122.867V26ZM126.898 26V27H128.914V26V25H126.898V26ZM130.93 26V27H132.945V26V25H130.93V26ZM134.961 26V27H136.977V26V25H134.961V26ZM138.992 26V27H141.008V26V25H138.992V26ZM143.023 26V27H145.039V26V25H143.023V26ZM147.055 26V27H149.07V26V25H147.055V26ZM151.086 26V27H153.102V26V25H151.086V26ZM155.117 26V27H157.133V26V25H155.117V26ZM159.148 26V27H161.164V26V25H159.148V26ZM163.18 26V27H165.195V26V25H163.18V26ZM167.211 26V27H169.227V26V25H167.211V26ZM171.242 26V27H173.258V26V25H171.242V26ZM175.273 26V27H177.289V26V25H175.273V26ZM179.305 26V27H181.32V26V25H179.305V26ZM183.336 26V27H185.352V26V25H183.336V26ZM187.367 26V27H189.383V26V25H187.367V26ZM191.398 26V27H193.414V26V25H191.398V26ZM195.43 26V27H197.445V26V25H195.43V26ZM199.461 26V27H201.477V26V25H199.461V26ZM203.492 26V27H204.5V26V25H203.492V26Z" fill="#C8C8C8"/>
<path d="M215.5 25.2126C214.948 25.2126 214.5 25.6604 214.5 26.2126C214.5 26.7649 214.948 27.2126 215.5 27.2126V26.2126V25.2126ZM215.5 26.2126V27.2126H316.5V26.2126V25.2126H215.5V26.2126Z" fill="#A2CDFF"/>
<rect x="11" width="48" height="48" rx="16" fill="#D9D9D9"/>
<path d="M31.4385 28.6621C31.8779 28.8496 32.332 28.9932 32.8008 29.0928C33.2754 29.1865 33.75 29.2334 34.2246 29.2334C34.4883 29.2334 34.7725 29.2012 35.0771 29.1367C35.3877 29.0723 35.6748 28.9697 35.9385 28.8291C36.2021 28.6826 36.4219 28.498 36.5977 28.2754C36.7793 28.0469 36.8701 27.7744 36.8701 27.458C36.8701 27.0068 36.7764 26.6494 36.5889 26.3857C36.4014 26.1221 36.1611 25.9229 35.8682 25.7881C35.5752 25.6533 35.2441 25.5684 34.875 25.5332C34.5059 25.498 34.1426 25.4805 33.7852 25.4805C33.627 25.4805 33.4688 25.4834 33.3105 25.4893C33.1582 25.4893 33.0117 25.4893 32.8711 25.4893V23.5117C32.9648 23.5117 33.0674 23.5146 33.1787 23.5205C33.29 23.5205 33.4102 23.5205 33.5391 23.5205C33.7559 23.5205 33.9873 23.5146 34.2334 23.5029C34.4854 23.4912 34.7314 23.4678 34.9717 23.4326C35.2178 23.3916 35.4521 23.3359 35.6748 23.2656C35.8975 23.1895 36.0938 23.0898 36.2637 22.9668C36.4336 22.8438 36.5684 22.6943 36.668 22.5186C36.7676 22.3369 36.8174 22.1172 36.8174 21.8594C36.8174 21.5312 36.7559 21.2617 36.6328 21.0508C36.5156 20.834 36.3574 20.6641 36.1582 20.541C35.959 20.4121 35.7275 20.3242 35.4639 20.2773C35.2061 20.2246 34.9365 20.1982 34.6553 20.1982C34.1572 20.1982 33.6709 20.2539 33.1963 20.3652C32.7275 20.4766 32.2734 20.6436 31.834 20.8662L31.6846 18.8535C32.2412 18.6309 32.8154 18.4697 33.4072 18.3701C34.0049 18.2705 34.6025 18.2207 35.2002 18.2207C35.7275 18.2207 36.2402 18.2764 36.7383 18.3877C37.2363 18.4932 37.6758 18.6719 38.0566 18.9238C38.4434 19.1758 38.7539 19.5098 38.9883 19.9258C39.2227 20.3359 39.3398 20.8428 39.3398 21.4463C39.3398 21.8389 39.2842 22.1934 39.1729 22.5098C39.0615 22.8262 38.9033 23.1074 38.6982 23.3535C38.4932 23.5996 38.2471 23.8135 37.96 23.9951C37.6729 24.1768 37.3506 24.3291 36.9932 24.4521V24.4873C37.3975 24.5459 37.749 24.6602 38.0479 24.8301C38.3525 25 38.6016 25.2168 38.7949 25.4805C38.9941 25.7383 39.1436 26.0371 39.2432 26.377C39.3428 26.7168 39.3926 27.083 39.3926 27.4756C39.3926 27.7803 39.3604 28.0791 39.2959 28.3721C39.2314 28.665 39.1318 28.9434 38.9971 29.207C38.8682 29.4648 38.7012 29.7021 38.4961 29.9189C38.2969 30.1299 38.0596 30.3115 37.7842 30.4639C37.667 30.5283 37.5469 30.5869 37.4238 30.6396C37.3008 30.6865 37.1777 30.7334 37.0547 30.7803C36.2578 31.0732 35.4346 31.2197 34.585 31.2197C34.0283 31.2197 33.4746 31.1875 32.9238 31.123C32.373 31.0586 31.8281 30.9502 31.2891 30.7979L31.4385 28.6621Z" fill="#757575"/>
<path opacity="0.4" d="M-11.8855 70.4062C-12.3412 70.4928 -12.756 70.5954 -13.1297 70.7139C-13.5033 70.8324 -13.8246 70.9714 -14.0935 71.1309C-14.3624 71.2858 -14.572 71.4613 -14.7224 71.6572C-14.8683 71.8532 -14.9412 72.0742 -14.9412 72.3203C-14.9412 72.5208 -14.9002 72.6895 -14.8181 72.8262C-14.7315 72.9629 -14.6199 73.0723 -14.4832 73.1543C-14.3464 73.2363 -14.1938 73.2956 -14.0252 73.332C-13.8565 73.3685 -13.6856 73.3867 -13.5125 73.3867C-13.1889 73.3867 -12.8927 73.3457 -12.6238 73.2637C-12.3504 73.1816 -12.1043 73.0677 -11.8855 72.9219V70.4062ZM-10.6619 72.8125C-10.6619 72.9948 -10.6528 73.1475 -10.6345 73.2705C-10.6117 73.3936 -10.5685 73.4915 -10.5047 73.5645C-10.4363 73.6374 -10.3429 73.6898 -10.2244 73.7217C-10.1059 73.7536 -9.94866 73.7695 -9.7527 73.7695H-9.27418C-9.11012 73.7695 -8.98707 73.7969 -8.90504 73.8516C-8.82301 73.9062 -8.78199 73.9997 -8.78199 74.1318V74.6035C-8.78199 74.6901 -8.79567 74.7607 -8.82301 74.8154C-8.8458 74.8656 -8.87998 74.9043 -8.92555 74.9316C-8.97112 74.959 -9.02353 74.9772 -9.08278 74.9863C-9.14202 74.9954 -9.20582 75 -9.27418 75H-10.0603C-10.3657 75 -10.6254 74.9727 -10.8396 74.918C-11.0492 74.8587 -11.2247 74.7835 -11.366 74.6924C-11.5027 74.5967 -11.6098 74.4873 -11.6873 74.3643C-11.7602 74.2367 -11.8149 74.1045 -11.8513 73.9678C-12.1886 74.1729 -12.5099 74.3187 -12.8152 74.4053C-13.1205 74.4919 -13.4304 74.5352 -13.7449 74.5352C-14.0183 74.5352 -14.294 74.4964 -14.572 74.4189C-14.85 74.3415 -15.103 74.2207 -15.3308 74.0566C-15.5541 73.888 -15.7387 73.6738 -15.8845 73.4141C-16.0258 73.1543 -16.0964 72.8421 -16.0964 72.4775C-16.0964 72.1357 -16.0258 71.8304 -15.8845 71.5615C-15.7433 71.2881 -15.5587 71.0443 -15.3308 70.8301C-15.0984 70.6159 -14.8341 70.429 -14.5379 70.2695C-14.2416 70.11 -13.9386 69.971 -13.6287 69.8525C-13.3142 69.7295 -13.0066 69.6247 -12.7058 69.5381C-12.405 69.4515 -12.1316 69.374 -11.8855 69.3057V68.5811H-10.6619V72.8125ZM-14.0798 66.9199C-14.0798 66.8197 -14.0616 66.7262 -14.0252 66.6396C-13.9841 66.5485 -13.9317 66.471 -13.8679 66.4072C-13.8041 66.3389 -13.7289 66.2865 -13.6423 66.25C-13.5512 66.209 -13.4555 66.1885 -13.3552 66.1885C-13.255 66.1885 -13.1616 66.209 -13.075 66.25C-12.9838 66.2865 -12.9063 66.3389 -12.8425 66.4072C-12.7742 66.471 -12.7218 66.5485 -12.6853 66.6396C-12.6443 66.7262 -12.6238 66.8197 -12.6238 66.9199C-12.6238 67.0202 -12.6443 67.1159 -12.6853 67.207C-12.7218 67.2936 -12.7742 67.3688 -12.8425 67.4326C-12.9063 67.4964 -12.9838 67.5488 -13.075 67.5898C-13.1616 67.6263 -13.255 67.6445 -13.3552 67.6445C-13.5603 67.6445 -13.7335 67.5762 -13.8748 67.4395C-14.0115 67.2982 -14.0798 67.125 -14.0798 66.9199ZM-12.1316 66.9199C-12.1316 66.8197 -12.1134 66.7262 -12.0769 66.6396C-12.0359 66.5485 -11.9835 66.471 -11.9197 66.4072C-11.8559 66.3389 -11.7807 66.2865 -11.6941 66.25C-11.603 66.209 -11.5073 66.1885 -11.407 66.1885C-11.3067 66.1885 -11.2133 66.209 -11.1267 66.25C-11.0356 66.2865 -10.9581 66.3389 -10.8943 66.4072C-10.8259 66.471 -10.7735 66.5485 -10.7371 66.6396C-10.6961 66.7262 -10.6755 66.8197 -10.6755 66.9199C-10.6755 67.0202 -10.6961 67.1159 -10.7371 67.207C-10.7735 67.2936 -10.8259 67.3688 -10.8943 67.4326C-10.9581 67.4964 -11.0356 67.5488 -11.1267 67.5898C-11.2133 67.6263 -11.3067 67.6445 -11.407 67.6445C-11.6121 67.6445 -11.7852 67.5762 -11.9265 67.4395C-12.0632 67.2982 -12.1316 67.125 -12.1316 66.9199ZM-9.20418 75C-9.36824 75 -9.49129 74.9727 -9.57332 74.918C-9.65535 74.8633 -9.69637 74.7699 -9.69637 74.6377V74.166C-9.69637 74.0794 -9.6827 74.0111 -9.65535 73.9609C-9.63257 73.9062 -9.59839 73.8652 -9.55281 73.8379C-9.50724 73.8105 -9.45483 73.7923 -9.39559 73.7832C-9.33634 73.7741 -9.27254 73.7695 -9.20418 73.7695H-6.95516V69.7158H-5.71785V75H-9.20418ZM-7.0577 77.0508C-7.0577 76.9505 -7.03947 76.8548 -7.00301 76.7637C-6.96199 76.6771 -6.90958 76.5996 -6.84578 76.5312C-6.78198 76.4674 -6.70679 76.415 -6.6202 76.374C-6.52905 76.3376 -6.43335 76.3193 -6.33309 76.3193C-6.23283 76.3193 -6.1394 76.3376 -6.05281 76.374C-5.96167 76.415 -5.88419 76.4674 -5.82039 76.5312C-5.75203 76.5996 -5.69962 76.6771 -5.66317 76.7637C-5.62215 76.8548 -5.60164 76.9505 -5.60164 77.0508C-5.60164 77.151 -5.62215 77.2445 -5.66317 77.3311C-5.69962 77.4222 -5.75203 77.4997 -5.82039 77.5635C-5.88419 77.6273 -5.96167 77.6774 -6.05281 77.7139C-6.1394 77.7549 -6.23283 77.7754 -6.33309 77.7754C-6.53817 77.7754 -6.71134 77.7048 -6.85262 77.5635C-6.98934 77.4268 -7.0577 77.2559 -7.0577 77.0508ZM-0.404689 75C-0.965236 75 -1.43919 74.9202 -1.82656 74.7607C-2.20938 74.6012 -2.51927 74.3962 -2.75625 74.1455C-2.99323 73.8903 -3.16413 73.6032 -3.26895 73.2842C-3.37376 72.9652 -3.42617 72.6484 -3.42617 72.334C-3.42617 71.9375 -3.35781 71.5661 -3.2211 71.2197C-3.08438 70.8734 -2.88841 70.5726 -2.6332 70.3174C-2.378 70.0576 -2.07266 69.8548 -1.71719 69.709C-1.35716 69.5632 -0.953842 69.4902 -0.507228 69.4902C-0.329494 69.4902 -0.142645 69.5085 0.053319 69.5449C0.249283 69.5768 0.440689 69.6383 0.627538 69.7295C0.818944 69.8161 0.998957 69.9346 1.16758 70.085C1.3362 70.2354 1.48431 70.4268 1.61191 70.6592C1.73952 70.887 1.83978 71.1628 1.91269 71.4863C1.99017 71.8053 2.0289 72.1768 2.0289 72.6006V73.7695H3.50547C3.66953 73.7695 3.79258 73.7969 3.87461 73.8516C3.95664 73.9062 3.99765 73.9997 3.99765 74.1318V74.6035C3.99765 74.6901 3.98398 74.7607 3.95664 74.8154C3.93385 74.8656 3.89967 74.9043 3.8541 74.9316C3.80853 74.959 3.75612 74.9772 3.69687 74.9863C3.63763 74.9954 3.57383 75 3.50547 75H1.94004C1.82155 75.4967 1.63014 75.9183 1.36582 76.2646C1.1015 76.611 0.777928 76.8958 0.395116 77.1191C0.0168606 77.347 -0.416082 77.5225 -0.903712 77.6455C-1.38679 77.7731 -1.90404 77.8643 -2.45547 77.9189L-2.58535 76.7363C-1.65567 76.6725 -0.910548 76.4902 -0.350001 76.1895C0.215103 75.8932 0.570572 75.4967 0.716405 75H-0.404689ZM0.805272 73.7695V72.9971C0.805272 72.5094 0.759699 72.113 0.668553 71.8076C0.581965 71.4977 0.465754 71.2585 0.319921 71.0898C0.178644 70.9167 0.014582 70.8005 -0.172267 70.7412C-0.354559 70.6774 -0.539129 70.6455 -0.725978 70.6455C-0.935613 70.6455 -1.13158 70.6842 -1.31387 70.7617C-1.49616 70.8392 -1.65567 70.9486 -1.79238 71.0898C-1.92455 71.2311 -2.02936 71.402 -2.10684 71.6025C-2.18431 71.7985 -2.22305 72.015 -2.22305 72.252C-2.22305 72.457 -2.19115 72.653 -2.12735 72.8398C-2.05899 73.0221 -1.95189 73.1816 -1.80606 73.3184C-1.66022 73.4551 -1.47337 73.5645 -1.24551 73.6465C-1.01764 73.7285 -0.73965 73.7695 -0.411525 73.7695H0.805272ZM8.96902 70.8574C8.87788 70.8301 8.77306 70.805 8.65457 70.7822C8.53608 70.7549 8.41303 70.7344 8.28543 70.7207C8.16238 70.7025 8.03933 70.6888 7.91629 70.6797C7.79324 70.666 7.68386 70.6592 7.58816 70.6592C7.43321 70.6592 7.27371 70.682 7.10965 70.7275C6.94558 70.7686 6.79519 70.8438 6.65847 70.9531C6.52176 71.0625 6.40782 71.2083 6.31668 71.3906C6.23009 71.5729 6.18679 71.8008 6.18679 72.0742C6.18679 72.3203 6.23009 72.5482 6.31668 72.7578C6.40327 72.9629 6.52631 73.1406 6.68582 73.291C6.84532 73.4414 7.03445 73.5599 7.2532 73.6465C7.47651 73.7285 7.7226 73.7695 7.99148 73.7695H9.64578V75H3.5823C3.41824 75 3.29519 74.9727 3.21316 74.918C3.13113 74.8633 3.09011 74.7699 3.09011 74.6377V74.166C3.09011 74.0794 3.10379 74.0111 3.13113 73.9609C3.15392 73.9062 3.1881 73.8652 3.23367 73.8379C3.27924 73.8105 3.33165 73.7923 3.3909 73.7832C3.45014 73.7741 3.51394 73.7695 3.5823 73.7695H5.4075C5.28445 73.5098 5.1933 73.2523 5.13406 72.9971C5.07482 72.7373 5.04519 72.4844 5.04519 72.2383C5.04519 71.8509 5.11127 71.4863 5.24343 71.1445C5.3756 70.7982 5.56017 70.4974 5.79715 70.2422C6.03868 69.9824 6.32579 69.7773 6.65847 69.627C6.99571 69.4766 7.36485 69.4014 7.7659 69.4014C7.8616 69.4014 7.97097 69.4059 8.09402 69.415C8.21707 69.4242 8.34239 69.4355 8.47 69.4492C8.5976 69.4629 8.71609 69.4811 8.82547 69.5039C8.93484 69.5221 9.02371 69.5449 9.09207 69.5723L8.96902 70.8574ZM6.72683 67.2617C6.72683 67.1615 6.74506 67.068 6.78152 66.9814C6.82254 66.8903 6.87495 66.8128 6.93875 66.749C7.00255 66.6807 7.07774 66.6283 7.16433 66.5918C7.25548 66.5508 7.35118 66.5303 7.45144 66.5303C7.5517 66.5303 7.64513 66.5508 7.73172 66.5918C7.82286 66.6283 7.90034 66.6807 7.96414 66.749C8.0325 66.8128 8.08491 66.8903 8.12136 66.9814C8.16238 67.068 8.18289 67.1615 8.18289 67.2617C8.18289 67.362 8.16238 67.4577 8.12136 67.5488C8.08491 67.6354 8.0325 67.7106 7.96414 67.7744C7.90034 67.8382 7.82286 67.8906 7.73172 67.9316C7.64513 67.9681 7.5517 67.9863 7.45144 67.9863C7.24636 67.9863 7.07319 67.918 6.93191 67.7812C6.79519 67.64 6.72683 67.4668 6.72683 67.2617ZM10.2763 76.6816C10.764 76.6178 11.1513 76.5199 11.4384 76.3877C11.7301 76.2601 11.9511 76.0938 12.1015 75.8887C12.2519 75.6882 12.3499 75.4512 12.3955 75.1777C12.441 74.9043 12.4638 74.5944 12.4638 74.248V69.7158H13.6943V73.7695H15.3007C15.4648 73.7695 15.5879 73.7969 15.6699 73.8516C15.7519 73.9062 15.7929 73.9997 15.7929 74.1318V74.6035C15.7929 74.6901 15.7793 74.7607 15.7519 74.8154C15.7291 74.8656 15.6949 74.9043 15.6494 74.9316C15.6038 74.959 15.5514 74.9772 15.4921 74.9863C15.4329 74.9954 15.3691 75 15.3007 75H13.6259C13.5576 75.4785 13.4414 75.8818 13.2773 76.21C13.1178 76.5426 12.9036 76.8206 12.6347 77.0439C12.3704 77.2673 12.0514 77.4404 11.6777 77.5635C11.3086 77.6911 10.8824 77.7891 10.3994 77.8574L10.2763 76.6816ZM17.4762 74.0566C17.3805 74.2344 17.278 74.3848 17.1686 74.5078C17.0638 74.6263 16.9476 74.722 16.82 74.7949C16.6969 74.8678 16.5602 74.9202 16.4098 74.9521C16.2594 74.984 16.0908 75 15.9039 75H15.3707C15.2067 75 15.0836 74.9727 15.0016 74.918C14.9196 74.8633 14.8786 74.7699 14.8786 74.6377V74.166C14.8786 74.0794 14.8922 74.0111 14.9196 73.9609C14.9424 73.9062 14.9765 73.8652 15.0221 73.8379C15.0677 73.8105 15.1201 73.7923 15.1793 73.7832C15.2386 73.7741 15.3024 73.7695 15.3707 73.7695H15.692C15.9746 73.7695 16.2252 73.7057 16.444 73.5781C16.6673 73.446 16.8177 73.2386 16.8952 72.9561C17.0273 72.4684 17.1754 72.0492 17.3395 71.6982C17.5036 71.3428 17.6745 71.042 17.8522 70.7959C18.0345 70.5452 18.219 70.3447 18.4059 70.1943C18.5927 70.0394 18.7773 69.9186 18.9596 69.832C19.1419 69.7454 19.3151 69.6885 19.4791 69.6611C19.6478 69.6292 19.8027 69.6133 19.944 69.6133C20.2493 69.6133 20.5273 69.6566 20.778 69.7432C21.0286 69.8298 21.2519 69.9482 21.4479 70.0986C21.6439 70.2445 21.8148 70.4154 21.9606 70.6113C22.1064 70.8073 22.2272 71.0124 22.3229 71.2266C22.4186 71.4362 22.4892 71.6504 22.5348 71.8691C22.5804 72.0879 22.6032 72.2952 22.6032 72.4912C22.6032 72.7419 22.5576 73.0085 22.4664 73.291C22.6806 73.4505 22.9313 73.5713 23.2184 73.6533C23.5101 73.7308 23.861 73.7695 24.2711 73.7695H24.3258C24.4899 73.7695 24.6129 73.7969 24.695 73.8516C24.777 73.9062 24.818 73.9997 24.818 74.1318V74.6035C24.818 74.6901 24.8043 74.7607 24.777 74.8154C24.7542 74.8656 24.72 74.9043 24.6745 74.9316C24.6289 74.959 24.5765 74.9772 24.5172 74.9863C24.458 74.9954 24.3942 75 24.3258 75H24.2575C23.9749 75 23.7197 74.9772 23.4918 74.9316C23.2685 74.8861 23.068 74.8245 22.8903 74.7471C22.7125 74.665 22.553 74.5716 22.4118 74.4668C22.2705 74.3574 22.1429 74.2412 22.0289 74.1182C21.8102 74.3916 21.5299 74.6195 21.1881 74.8018C20.8509 74.9795 20.4407 75.0684 19.9577 75.0684C19.6614 75.0684 19.3834 75.0387 19.1237 74.9795C18.8685 74.9157 18.636 74.8359 18.4264 74.7402C18.2213 74.6445 18.0368 74.5374 17.8727 74.4189C17.7132 74.2959 17.581 74.1751 17.4762 74.0566ZM21.4957 72.6348C21.4957 72.4661 21.4638 72.2747 21.4 72.0605C21.3408 71.8464 21.2451 71.6436 21.1129 71.4521C20.9853 71.2607 20.8213 71.1012 20.6207 70.9736C20.4202 70.8415 20.181 70.7754 19.903 70.7754C19.6386 70.7754 19.3948 70.846 19.1715 70.9873C18.9528 71.1286 18.7591 71.3154 18.5905 71.5479C18.4218 71.7757 18.2806 72.0378 18.1666 72.334C18.0527 72.6302 17.9707 72.9355 17.9205 73.25C17.9661 73.3138 18.055 73.3822 18.1871 73.4551C18.3193 73.5234 18.472 73.5872 18.6452 73.6465C18.8229 73.7012 19.0097 73.7467 19.2057 73.7832C19.4062 73.8197 19.5976 73.8379 19.7799 73.8379C20.0397 73.8379 20.2744 73.8197 20.484 73.7832C20.6982 73.7467 20.8805 73.6852 21.0309 73.5986C21.1813 73.5075 21.2952 73.3844 21.3727 73.2295C21.4547 73.0745 21.4957 72.8763 21.4957 72.6348ZM24.3958 75C24.2318 75 24.1087 74.9727 24.0267 74.918C23.9446 74.8633 23.9036 74.7699 23.9036 74.6377V74.166C23.9036 74.0794 23.9173 74.0111 23.9446 73.9609C23.9674 73.9062 24.0016 73.8652 24.0472 73.8379C24.0928 73.8105 24.1452 73.7923 24.2044 73.7832C24.2637 73.7741 24.3275 73.7695 24.3958 73.7695H26.2552V65.1768H27.4857V75H24.3958ZM29.8799 65.1836H31.1104V75.0068H29.8799V65.1836ZM40.5882 70.4062C40.1325 70.4928 39.7178 70.5954 39.3441 70.7139C38.9704 70.8324 38.6491 70.9714 38.3802 71.1309C38.1114 71.2858 37.9017 71.4613 37.7513 71.6572C37.6055 71.8532 37.5326 72.0742 37.5326 72.3203C37.5326 72.5208 37.5736 72.6895 37.6556 72.8262C37.7422 72.9629 37.8539 73.0723 37.9906 73.1543C38.1273 73.2363 38.28 73.2956 38.4486 73.332C38.6172 73.3685 38.7881 73.3867 38.9613 73.3867C39.2849 73.3867 39.5811 73.3457 39.85 73.2637C40.1234 73.1816 40.3695 73.0677 40.5882 72.9219V70.4062ZM41.8119 72.8125C41.8119 72.9948 41.821 73.1475 41.8392 73.2705C41.862 73.3936 41.9053 73.4915 41.9691 73.5645C42.0375 73.6374 42.1309 73.6898 42.2494 73.7217C42.3679 73.7536 42.5251 73.7695 42.7211 73.7695H43.1996C43.3636 73.7695 43.4867 73.7969 43.5687 73.8516C43.6507 73.9062 43.6918 73.9997 43.6918 74.1318V74.6035C43.6918 74.6901 43.6781 74.7607 43.6507 74.8154C43.628 74.8656 43.5938 74.9043 43.5482 74.9316C43.5026 74.959 43.4502 74.9772 43.391 74.9863C43.3317 74.9954 43.2679 75 43.1996 75H42.4134C42.1081 75 41.8483 74.9727 41.6341 74.918C41.4245 74.8587 41.249 74.7835 41.1078 74.6924C40.9711 74.5967 40.864 74.4873 40.7865 74.3643C40.7136 74.2367 40.6589 74.1045 40.6224 73.9678C40.2852 74.1729 39.9639 74.3187 39.6586 74.4053C39.3532 74.4919 39.0433 74.5352 38.7289 74.5352C38.4554 74.5352 38.1797 74.4964 37.9017 74.4189C37.6237 74.3415 37.3708 74.2207 37.1429 74.0566C36.9196 73.888 36.7351 73.6738 36.5892 73.4141C36.4479 73.1543 36.3773 72.8421 36.3773 72.4775C36.3773 72.1357 36.4479 71.8304 36.5892 71.5615C36.7305 71.2881 36.9151 71.0443 37.1429 70.8301C37.3754 70.6159 37.6397 70.429 37.9359 70.2695C38.2321 70.11 38.5352 69.971 38.8451 69.8525C39.1595 69.7295 39.4671 69.6247 39.7679 69.5381C40.0687 69.4515 40.3421 69.374 40.5882 69.3057V68.5811H41.8119V72.8125ZM38.3939 66.9199C38.3939 66.8197 38.4121 66.7262 38.4486 66.6396C38.4896 66.5485 38.542 66.471 38.6058 66.4072C38.6696 66.3389 38.7448 66.2865 38.8314 66.25C38.9226 66.209 39.0183 66.1885 39.1185 66.1885C39.2188 66.1885 39.3122 66.209 39.3988 66.25C39.4899 66.2865 39.5674 66.3389 39.6312 66.4072C39.6996 66.471 39.752 66.5485 39.7884 66.6396C39.8295 66.7262 39.85 66.8197 39.85 66.9199C39.85 67.0202 39.8295 67.1159 39.7884 67.207C39.752 67.2936 39.6996 67.3688 39.6312 67.4326C39.5674 67.4964 39.4899 67.5488 39.3988 67.5898C39.3122 67.6263 39.2188 67.6445 39.1185 67.6445C38.9134 67.6445 38.7403 67.5762 38.599 67.4395C38.4623 67.2982 38.3939 67.125 38.3939 66.9199ZM40.3421 66.9199C40.3421 66.8197 40.3604 66.7262 40.3968 66.6396C40.4379 66.5485 40.4903 66.471 40.5541 66.4072C40.6179 66.3389 40.6931 66.2865 40.7796 66.25C40.8708 66.209 40.9665 66.1885 41.0668 66.1885C41.167 66.1885 41.2604 66.209 41.347 66.25C41.4382 66.2865 41.5157 66.3389 41.5795 66.4072C41.6478 66.471 41.7002 66.5485 41.7367 66.6396C41.7777 66.7262 41.7982 66.8197 41.7982 66.9199C41.7982 67.0202 41.7777 67.1159 41.7367 67.207C41.7002 67.2936 41.6478 67.3688 41.5795 67.4326C41.5157 67.4964 41.4382 67.5488 41.347 67.5898C41.2604 67.6263 41.167 67.6445 41.0668 67.6445C40.8617 67.6445 40.6885 67.5762 40.5472 67.4395C40.4105 67.2982 40.3421 67.125 40.3421 66.9199ZM43.2696 75C43.1055 75 42.9825 74.9727 42.9004 74.918C42.8184 74.8633 42.7774 74.7699 42.7774 74.6377V74.166C42.7774 74.0794 42.7911 74.0111 42.8184 73.9609C42.8412 73.9062 42.8754 73.8652 42.9209 73.8379C42.9665 73.8105 43.0189 73.7923 43.0782 73.7832C43.1374 73.7741 43.2012 73.7695 43.2696 73.7695H44.917C44.9808 73.5599 45.0651 73.332 45.17 73.0859C45.2748 72.8353 45.4001 72.5755 45.5459 72.3066V65.1768H46.7764V70.5908C46.9678 70.3949 47.1706 70.2126 47.3848 70.0439C47.599 69.8753 47.8246 69.7295 48.0616 69.6064C48.3031 69.4834 48.556 69.3877 48.8204 69.3193C49.0847 69.251 49.3604 69.2168 49.6475 69.2168C50.1716 69.2168 50.6182 69.3034 50.9873 69.4766C51.361 69.6497 51.6664 69.889 51.9034 70.1943C52.1449 70.4997 52.3204 70.8574 52.4297 71.2676C52.5437 71.6777 52.6006 72.1221 52.6006 72.6006V73.7695H54.002C54.1661 73.7695 54.2891 73.7969 54.3711 73.8516C54.4532 73.9062 54.4942 73.9997 54.4942 74.1318V74.6035C54.4942 74.6901 54.4805 74.7607 54.4532 74.8154C54.4304 74.8656 54.3962 74.9043 54.3506 74.9316C54.3051 74.959 54.2526 74.9772 54.1934 74.9863C54.1342 74.9954 54.0704 75 54.002 75H43.2696ZM51.3702 72.7373C51.3702 72.2952 51.32 71.9261 51.2198 71.6299C51.1241 71.3337 50.9919 71.0967 50.8233 70.9189C50.6547 70.7367 50.4564 70.609 50.2286 70.5361C50.0007 70.4587 49.7569 70.4199 49.4971 70.4199C49.2146 70.4199 48.9434 70.4701 48.6836 70.5703C48.4239 70.666 48.1801 70.7982 47.9522 70.9668C47.7243 71.1354 47.5124 71.3314 47.3164 71.5547C47.125 71.7734 46.9519 72.0081 46.7969 72.2588C46.642 72.5049 46.5075 72.7578 46.3936 73.0176C46.2797 73.2773 46.1908 73.528 46.127 73.7695H51.3702V72.7373ZM57.7839 73.3799C58.0209 73.5348 58.2829 73.6396 58.57 73.6943C58.8571 73.7445 59.1579 73.7695 59.4724 73.7695H59.9441C60.0899 73.7695 60.2038 73.7057 60.2859 73.5781C60.3724 73.4505 60.4157 73.2568 60.4157 72.9971V70.4609H61.653V73.2979C61.8809 73.4665 62.1475 73.5872 62.4529 73.6602C62.7582 73.7331 63.0886 73.7695 63.4441 73.7695H63.9157C64.0616 73.7695 64.1755 73.7057 64.2575 73.5781C64.3441 73.4505 64.3874 73.2568 64.3874 72.9971V69.7158H65.6247V73.25C65.8389 73.4232 66.0941 73.5531 66.3904 73.6396C66.6866 73.7262 67.0489 73.7695 67.4773 73.7695H67.532C67.696 73.7695 67.8191 73.7969 67.9011 73.8516C67.9831 73.9062 68.0241 73.9997 68.0241 74.1318V74.6035C68.0241 74.6901 68.0105 74.7607 67.9831 74.8154C67.9603 74.8656 67.9262 74.9043 67.8806 74.9316C67.835 74.959 67.7826 74.9772 67.7234 74.9863C67.6641 74.9954 67.6003 75 67.532 75H67.4636C66.9623 75 66.5476 74.9339 66.2195 74.8018C65.8959 74.665 65.6224 74.4919 65.3991 74.2822C65.2898 74.4827 65.1348 74.6536 64.9343 74.7949C64.7338 74.9316 64.4786 75 64.1687 75H63.4304C63.0704 75 62.7103 74.9499 62.3503 74.8496C61.9948 74.7493 61.6781 74.5739 61.4001 74.3232C61.2862 74.5146 61.1312 74.6764 60.9353 74.8086C60.7439 74.9362 60.4978 75 60.197 75H59.4587C59.2855 75 59.1101 74.9886 58.9323 74.9658C58.7592 74.943 58.5883 74.9089 58.4196 74.8633C58.251 74.8132 58.087 74.7493 57.9275 74.6719C57.7725 74.5944 57.6267 74.4987 57.49 74.3848C57.376 74.5579 57.2256 74.7038 57.0388 74.8223C56.8519 74.9408 56.615 75 56.3279 75H54.072C53.9079 75 53.7849 74.9727 53.7029 74.918C53.6208 74.8633 53.5798 74.7699 53.5798 74.6377V74.166C53.5798 74.0794 53.5935 74.0111 53.6208 73.9609C53.6436 73.9062 53.6778 73.8652 53.7234 73.8379C53.7689 73.8105 53.8213 73.7923 53.8806 73.7832C53.9398 73.7741 54.0036 73.7695 54.072 73.7695H56.0749C56.2208 73.7695 56.3347 73.7057 56.4167 73.5781C56.5033 73.4505 56.5466 73.2568 56.5466 72.9971V71.042H57.7839V73.3799ZM59.4109 67.2617C59.4109 67.1615 59.4291 67.068 59.4655 66.9814C59.5066 66.8903 59.559 66.8128 59.6228 66.749C59.6866 66.6807 59.7618 66.6283 59.8484 66.5918C59.9395 66.5508 60.0352 66.5303 60.1355 66.5303C60.2357 66.5303 60.3292 66.5508 60.4157 66.5918C60.5069 66.6283 60.5844 66.6807 60.6482 66.749C60.7165 66.8128 60.7689 66.8903 60.8054 66.9814C60.8464 67.068 60.8669 67.1615 60.8669 67.2617C60.8669 67.362 60.8464 67.4577 60.8054 67.5488C60.7689 67.6354 60.7165 67.7106 60.6482 67.7744C60.5844 67.8382 60.5069 67.8906 60.4157 67.9316C60.3292 67.9681 60.2357 67.9863 60.1355 67.9863C59.9304 67.9863 59.7572 67.918 59.6159 67.7812C59.4792 67.64 59.4109 67.4668 59.4109 67.2617ZM61.3591 67.2617C61.3591 67.1615 61.3773 67.068 61.4138 66.9814C61.4548 66.8903 61.5072 66.8128 61.571 66.749C61.6348 66.6807 61.71 66.6283 61.7966 66.5918C61.8877 66.5508 61.9834 66.5303 62.0837 66.5303C62.184 66.5303 62.2774 66.5508 62.364 66.5918C62.4551 66.6283 62.5326 66.6807 62.5964 66.749C62.6648 66.8128 62.7172 66.8903 62.7536 66.9814C62.7946 67.068 62.8152 67.1615 62.8152 67.2617C62.8152 67.362 62.7946 67.4577 62.7536 67.5488C62.7172 67.6354 62.6648 67.7106 62.5964 67.7744C62.5326 67.8382 62.4551 67.8906 62.364 67.9316C62.2774 67.9681 62.184 67.9863 62.0837 67.9863C61.8786 67.9863 61.7055 67.918 61.5642 67.7812C61.4275 67.64 61.3591 67.4668 61.3591 67.2617ZM60.3747 65.4297C60.3747 65.3294 60.393 65.236 60.4294 65.1494C60.4704 65.0583 60.5228 64.9808 60.5866 64.917C60.6504 64.8486 60.7256 64.7962 60.8122 64.7598C60.9034 64.7188 60.9991 64.6982 61.0993 64.6982C61.1996 64.6982 61.293 64.7188 61.3796 64.7598C61.4708 64.7962 61.5482 64.8486 61.612 64.917C61.6804 64.9808 61.7328 65.0583 61.7693 65.1494C61.8103 65.236 61.8308 65.3294 61.8308 65.4297C61.8308 65.5299 61.8103 65.6257 61.7693 65.7168C61.7328 65.8034 61.6804 65.8786 61.612 65.9424C61.5482 66.0062 61.4708 66.0586 61.3796 66.0996C61.293 66.1361 61.1996 66.1543 61.0993 66.1543C60.8943 66.1543 60.7211 66.0859 60.5798 65.9492C60.4431 65.8079 60.3747 65.6348 60.3747 65.4297ZM69.8031 67.2617C69.8031 67.1615 69.8213 67.068 69.8578 66.9814C69.8988 66.8903 69.9512 66.8128 70.015 66.749C70.0788 66.6807 70.154 66.6283 70.2406 66.5918C70.3318 66.5508 70.4275 66.5303 70.5277 66.5303C70.628 66.5303 70.7214 66.5508 70.808 66.5918C70.8991 66.6283 70.9766 66.6807 71.0404 66.749C71.1088 66.8128 71.1612 66.8903 71.1976 66.9814C71.2387 67.068 71.2592 67.1615 71.2592 67.2617C71.2592 67.362 71.2387 67.4577 71.1976 67.5488C71.1612 67.6354 71.1088 67.7106 71.0404 67.7744C70.9766 67.8382 70.8991 67.8906 70.808 67.9316C70.7214 67.9681 70.628 67.9863 70.5277 67.9863C70.3226 67.9863 70.1495 67.918 70.0082 67.7812C69.8715 67.64 69.8031 67.4668 69.8031 67.2617ZM67.6088 75C67.4447 75 67.3217 74.9727 67.2396 74.918C67.1576 74.8633 67.1166 74.7699 67.1166 74.6377V74.166C67.1166 74.0794 67.1303 74.0111 67.1576 73.9609C67.1804 73.9062 67.2146 73.8652 67.2601 73.8379C67.3057 73.8105 67.3581 73.7923 67.4174 73.7832C67.4766 73.7741 67.5404 73.7695 67.6088 73.7695H69.8578V69.7158H71.0951V75H67.6088ZM81.2345 65.1768V75H73.4483V73.7695H76.4766V67.8359H77.7071V73.7695H80.004V65.1768H81.2345ZM83.6355 65.1836H84.866V75.0068H83.6355V65.1836Z" fill="#0F1621"/>
<rect x="176.5" y="0.5" width="47" height="47" rx="15.5" fill="white"/>
<rect x="176.5" y="0.5" width="47" height="47" rx="15.5" stroke="#59A0F2"/>
<path d="M196.219 31V28.8906C196.477 28.6504 196.79 28.3633 197.159 28.0293C197.534 27.6895 197.921 27.3232 198.319 26.9307C198.724 26.5322 199.122 26.1162 199.515 25.6826C199.913 25.249 200.271 24.8125 200.587 24.373C200.903 23.9336 201.158 23.5029 201.352 23.0811C201.551 22.6592 201.65 22.2637 201.65 21.8945C201.65 21.5957 201.592 21.3408 201.475 21.1299C201.363 20.9131 201.214 20.7373 201.026 20.6025C200.839 20.4619 200.622 20.3594 200.376 20.2949C200.13 20.2305 199.872 20.1982 199.603 20.1982C199.063 20.1982 198.557 20.2949 198.082 20.4883C197.607 20.6816 197.147 20.9219 196.702 21.209L196.509 19.1172C197.089 18.8242 197.692 18.6016 198.319 18.4492C198.946 18.2969 199.585 18.2207 200.235 18.2207C200.839 18.2207 201.381 18.2939 201.861 18.4404C202.348 18.5869 202.761 18.8125 203.101 19.1172C203.446 19.416 203.71 19.7969 203.892 20.2598C204.079 20.7168 204.173 21.2617 204.173 21.8945C204.173 22.2402 204.129 22.583 204.041 22.9229C203.959 23.2627 203.845 23.5938 203.698 23.916C203.558 24.2383 203.391 24.5488 203.197 24.8477C203.004 25.1465 202.802 25.4277 202.591 25.6914C202.11 26.2832 201.606 26.8574 201.079 27.4141C200.552 27.9648 200.007 28.501 199.444 29.0225H204.568V31H196.219Z" fill="#757575"/>
<path d="M174.89 74.9316C174.89 74.8314 174.865 74.7311 174.815 74.6309C174.769 74.5306 174.706 74.4326 174.624 74.3369C174.546 74.2412 174.457 74.1501 174.357 74.0635C174.257 73.9769 174.157 73.8926 174.056 73.8105C173.892 73.6829 173.724 73.5462 173.55 73.4004C173.382 73.25 173.229 73.0882 173.092 72.915C172.956 72.7419 172.842 72.5573 172.751 72.3613C172.664 72.1654 172.621 71.9557 172.621 71.7324C172.621 71.3086 172.712 70.9486 172.894 70.6523C173.081 70.3561 173.318 70.1169 173.605 69.9346C173.892 69.7477 174.209 69.6133 174.555 69.5312C174.902 69.4447 175.237 69.4014 175.56 69.4014C175.793 69.4014 176.018 69.4196 176.237 69.4561C176.46 69.4925 176.658 69.5335 176.832 69.5791C177.037 69.6292 177.228 69.6862 177.406 69.75L177.003 71.2881C176.829 71.2106 176.656 71.14 176.483 71.0762C176.337 71.026 176.178 70.9782 176.004 70.9326C175.831 70.887 175.672 70.8643 175.526 70.8643C175.407 70.8643 175.282 70.8779 175.15 70.9053C175.018 70.9326 174.895 70.9782 174.781 71.042C174.667 71.1012 174.571 71.1833 174.494 71.2881C174.421 71.3883 174.384 71.516 174.384 71.6709C174.384 71.762 174.412 71.8577 174.466 71.958C174.521 72.0537 174.592 72.1494 174.678 72.2451C174.765 72.3408 174.861 72.4365 174.965 72.5322C175.075 72.6234 175.18 72.71 175.28 72.792C175.435 72.915 175.594 73.0518 175.758 73.2021C175.927 73.348 176.08 73.5007 176.216 73.6602C176.353 73.8197 176.465 73.986 176.551 74.1592C176.643 74.3278 176.688 74.4964 176.688 74.665C176.688 74.9202 176.64 75.18 176.545 75.4443C176.453 75.7132 176.319 75.9707 176.141 76.2168C175.963 76.4629 175.745 76.6953 175.485 76.9141C175.225 77.1328 174.927 77.3242 174.589 77.4883C174.257 77.6523 173.888 77.7799 173.482 77.8711C173.081 77.9668 172.648 78.0146 172.183 78.0146C171.559 78.0146 171.003 77.9554 170.515 77.8369C170.032 77.723 169.608 77.568 169.244 77.3721C168.884 77.1807 168.576 76.9574 168.321 76.7021C168.07 76.4469 167.867 76.1781 167.713 75.8955C167.558 75.6175 167.446 75.3327 167.378 75.041C167.309 74.7539 167.275 74.4805 167.275 74.2207C167.275 73.7103 167.364 73.209 167.542 72.7168C167.724 72.2201 167.963 71.7757 168.259 71.3838L169.695 72.1699C169.472 72.4479 169.308 72.7578 169.203 73.0996C169.098 73.4414 169.046 73.7786 169.046 74.1113C169.046 74.4395 169.105 74.7471 169.223 75.0342C169.346 75.3258 169.535 75.5788 169.791 75.793C170.046 76.0072 170.369 76.1758 170.761 76.2988C171.158 76.4219 171.627 76.4834 172.17 76.4834C172.539 76.4834 172.887 76.4424 173.215 76.3604C173.548 76.2829 173.838 76.1735 174.084 76.0322C174.33 75.891 174.526 75.7246 174.671 75.5332C174.817 75.3464 174.89 75.1458 174.89 74.9316ZM177.982 76.3057C178.378 76.2282 178.699 76.1302 178.946 76.0117C179.192 75.8932 179.381 75.7451 179.513 75.5674C179.65 75.3942 179.741 75.1891 179.786 74.9521C179.837 74.7106 179.862 74.4303 179.862 74.1113V69.3945H181.639V73.5029H183.013C183.141 73.5029 183.241 73.512 183.314 73.5303C183.387 73.5485 183.439 73.5781 183.471 73.6191C183.507 73.6602 183.528 73.7126 183.533 73.7764C183.542 73.8356 183.546 73.9085 183.546 73.9951V74.4736C183.546 74.5921 183.539 74.6855 183.526 74.7539C183.512 74.8223 183.485 74.8747 183.444 74.9111C183.403 74.9476 183.348 74.9727 183.28 74.9863C183.211 74.9954 183.122 75 183.013 75H181.543C181.47 75.4375 181.35 75.8158 181.181 76.1348C181.017 76.4538 180.798 76.7249 180.525 76.9482C180.251 77.1715 179.923 77.3538 179.54 77.4951C179.162 77.6364 178.72 77.7458 178.214 77.8232L177.982 76.3057ZM184.061 69.3672C184.38 69.276 184.699 69.194 185.018 69.1211C185.341 69.0482 185.701 69.0117 186.098 69.0117C186.494 69.0117 186.845 69.071 187.15 69.1895C187.46 69.3034 187.725 69.4652 187.943 69.6748C188.162 69.8799 188.338 70.126 188.47 70.4131C188.606 70.7002 188.702 71.0146 188.757 71.3564C188.798 71.639 188.841 71.9102 188.887 72.1699C188.932 72.4251 188.991 72.653 189.064 72.8535C189.137 73.0495 189.228 73.2067 189.338 73.3252C189.452 73.4437 189.595 73.5029 189.769 73.5029V75H183.028C182.919 75 182.83 74.9954 182.762 74.9863C182.693 74.9727 182.639 74.9476 182.598 74.9111C182.557 74.8747 182.529 74.8223 182.516 74.7539C182.502 74.6855 182.495 74.5921 182.495 74.4736V73.9951C182.495 73.9085 182.5 73.8356 182.509 73.7764C182.513 73.7126 182.534 73.6602 182.57 73.6191C182.602 73.5781 182.655 73.5485 182.728 73.5303C182.796 73.512 182.896 73.5029 183.028 73.5029H187.526C187.44 73.3525 187.376 73.2021 187.335 73.0518C187.294 72.9014 187.26 72.7396 187.232 72.5664C187.196 72.3112 187.15 72.056 187.096 71.8008C187.046 71.5456 186.968 71.3177 186.863 71.1172C186.758 70.9121 186.619 70.7458 186.446 70.6182C186.273 70.4906 186.045 70.4268 185.763 70.4268C185.571 70.4268 185.323 70.4518 185.018 70.502C184.717 70.5521 184.398 70.6432 184.061 70.7754V69.3672ZM185.093 66.8242C185.093 66.7012 185.116 66.5872 185.161 66.4824C185.207 66.3776 185.268 66.2865 185.346 66.209C185.428 66.127 185.521 66.0632 185.626 66.0176C185.731 65.972 185.845 65.9492 185.968 65.9492C186.091 65.9492 186.205 65.972 186.31 66.0176C186.414 66.0632 186.505 66.127 186.583 66.209C186.665 66.2865 186.729 66.3776 186.774 66.4824C186.82 66.5872 186.843 66.7012 186.843 66.8242C186.843 66.9473 186.82 67.0612 186.774 67.166C186.729 67.2708 186.665 67.3643 186.583 67.4463C186.505 67.5238 186.414 67.5853 186.31 67.6309C186.205 67.6764 186.091 67.6992 185.968 67.6992C185.845 67.6992 185.731 67.6764 185.626 67.6309C185.521 67.5853 185.428 67.5238 185.346 67.4463C185.268 67.3643 185.207 67.2708 185.161 67.166C185.116 67.0612 185.093 66.9473 185.093 66.8242ZM191.274 65.1836H193.051V75.0068H191.274V65.1836ZM207.916 73.5029V69.3945H209.693V75H201.812C201.269 75 200.795 74.9681 200.39 74.9043C199.989 74.8405 199.642 74.7516 199.351 74.6377C199.063 74.5192 198.826 74.3802 198.64 74.2207C198.453 74.0566 198.305 73.8766 198.195 73.6807C198.09 73.4847 198.018 73.2751 197.977 73.0518C197.931 72.8285 197.908 72.596 197.908 72.3545C197.908 72.2633 197.913 72.1562 197.922 72.0332C197.931 71.9102 197.945 71.7826 197.963 71.6504C197.977 71.5137 197.993 71.377 198.011 71.2402C198.029 71.1035 198.049 70.9759 198.072 70.8574L199.651 70.9941C199.619 71.1673 199.59 71.3405 199.563 71.5137C199.54 71.6868 199.528 71.86 199.528 72.0332C199.528 72.3021 199.563 72.5299 199.631 72.7168C199.704 72.8991 199.84 73.0495 200.041 73.168C200.242 73.2865 200.52 73.373 200.875 73.4277C201.235 73.4779 201.702 73.5029 202.276 73.5029H207.916ZM204.3 66.8242C204.3 66.7012 204.323 66.5872 204.368 66.4824C204.414 66.3776 204.475 66.2865 204.553 66.209C204.635 66.127 204.728 66.0632 204.833 66.0176C204.938 65.972 205.052 65.9492 205.175 65.9492C205.298 65.9492 205.412 65.972 205.517 66.0176C205.621 66.0632 205.713 66.127 205.79 66.209C205.872 66.2865 205.936 66.3776 205.981 66.4824C206.027 66.5872 206.05 66.7012 206.05 66.8242C206.05 66.9473 206.027 67.0612 205.981 67.166C205.936 67.2708 205.872 67.3643 205.79 67.4463C205.713 67.5238 205.621 67.5853 205.517 67.6309C205.412 67.6764 205.298 67.6992 205.175 67.6992C205.052 67.6992 204.938 67.6764 204.833 67.6309C204.728 67.5853 204.635 67.5238 204.553 67.4463C204.475 67.3643 204.414 67.2708 204.368 67.166C204.323 67.0612 204.3 66.9473 204.3 66.8242ZM202.249 66.8242C202.249 66.7012 202.272 66.5872 202.317 66.4824C202.363 66.3776 202.424 66.2865 202.502 66.209C202.584 66.127 202.677 66.0632 202.782 66.0176C202.887 65.972 203.001 65.9492 203.124 65.9492C203.247 65.9492 203.361 65.972 203.466 66.0176C203.571 66.0632 203.662 66.127 203.739 66.209C203.821 66.2865 203.885 66.3776 203.931 66.4824C203.976 66.5872 203.999 66.7012 203.999 66.8242C203.999 66.9473 203.976 67.0612 203.931 67.166C203.885 67.2708 203.821 67.3643 203.739 67.4463C203.662 67.5238 203.571 67.5853 203.466 67.6309C203.361 67.6764 203.247 67.6992 203.124 67.6992C203.001 67.6992 202.887 67.6764 202.782 67.6309C202.677 67.5853 202.584 67.5238 202.502 67.4463C202.424 67.3643 202.363 67.2708 202.317 67.166C202.272 67.0612 202.249 66.9473 202.249 66.8242ZM211.541 65.1836H213.318V72.3545C213.318 72.5824 213.334 72.7715 213.366 72.9219C213.402 73.0677 213.452 73.1839 213.516 73.2705C213.585 73.3571 213.669 73.4186 213.769 73.4551C213.874 73.487 213.995 73.5029 214.132 73.5029H214.466C214.594 73.5029 214.694 73.512 214.767 73.5303C214.84 73.5485 214.893 73.5781 214.924 73.6191C214.961 73.6602 214.981 73.7126 214.986 73.7764C214.995 73.8356 215 73.9085 215 73.9951V74.4736C215 74.5921 214.993 74.6855 214.979 74.7539C214.966 74.8223 214.938 74.8747 214.897 74.9111C214.856 74.9476 214.801 74.9727 214.733 74.9863C214.665 74.9954 214.576 75 214.466 75H213.701C213.318 75 212.99 74.9453 212.716 74.8359C212.448 74.7266 212.224 74.5739 212.047 74.3779C211.873 74.1774 211.746 73.9382 211.664 73.6602C211.582 73.3776 211.541 73.0677 211.541 72.7305V65.1836ZM216.245 66.8242C216.245 66.7012 216.268 66.5872 216.314 66.4824C216.359 66.3776 216.421 66.2865 216.498 66.209C216.58 66.127 216.674 66.0632 216.779 66.0176C216.883 65.972 216.997 65.9492 217.12 65.9492C217.244 65.9492 217.357 65.972 217.462 66.0176C217.567 66.0632 217.658 66.127 217.736 66.209C217.818 66.2865 217.882 66.3776 217.927 66.4824C217.973 66.5872 217.995 66.7012 217.995 66.8242C217.995 66.9473 217.973 67.0612 217.927 67.166C217.882 67.2708 217.818 67.3643 217.736 67.4463C217.658 67.5238 217.567 67.5853 217.462 67.6309C217.357 67.6764 217.244 67.6992 217.12 67.6992C216.997 67.6992 216.883 67.6764 216.779 67.6309C216.674 67.5853 216.58 67.5238 216.498 67.4463C216.421 67.3643 216.359 67.2708 216.314 67.166C216.268 67.0612 216.245 66.9473 216.245 66.8242ZM214.509 75C214.4 75 214.311 74.9954 214.243 74.9863C214.174 74.9727 214.119 74.9476 214.078 74.9111C214.037 74.8747 214.01 74.8223 213.996 74.7539C213.983 74.6855 213.976 74.5921 213.976 74.4736V73.9951C213.976 73.9085 213.98 73.8356 213.99 73.7764C213.994 73.7126 214.015 73.6602 214.051 73.6191C214.083 73.5781 214.135 73.5485 214.208 73.5303C214.277 73.512 214.377 73.5029 214.509 73.5029H216.259V69.3945H218.043V75H214.509ZM220.294 65.1836H222.071V72.3545C222.071 72.5824 222.087 72.7715 222.119 72.9219C222.156 73.0677 222.206 73.1839 222.27 73.2705C222.338 73.3571 222.422 73.4186 222.523 73.4551C222.627 73.487 222.748 73.5029 222.885 73.5029H223.22C223.347 73.5029 223.448 73.512 223.521 73.5303C223.593 73.5485 223.646 73.5781 223.678 73.6191C223.714 73.6602 223.735 73.7126 223.739 73.7764C223.748 73.8356 223.753 73.9085 223.753 73.9951V74.4736C223.753 74.5921 223.746 74.6855 223.732 74.7539C223.719 74.8223 223.691 74.8747 223.65 74.9111C223.609 74.9476 223.555 74.9727 223.486 74.9863C223.418 74.9954 223.329 75 223.22 75H222.454C222.071 75 221.743 74.9453 221.47 74.8359C221.201 74.7266 220.978 74.5739 220.8 74.3779C220.627 74.1774 220.499 73.9382 220.417 73.6602C220.335 73.3776 220.294 73.0677 220.294 72.7305V65.1836ZM226.66 72.751C226.66 72.833 226.655 72.915 226.646 72.9971C226.642 73.0745 226.635 73.152 226.626 73.2295C226.849 73.3206 227.088 73.389 227.343 73.4346C227.603 73.4801 227.872 73.5029 228.15 73.5029H228.205C228.332 73.5029 228.433 73.512 228.506 73.5303C228.579 73.5485 228.631 73.5781 228.663 73.6191C228.699 73.6602 228.72 73.7126 228.724 73.7764C228.733 73.8356 228.738 73.9085 228.738 73.9951V74.4736C228.738 74.5921 228.731 74.6855 228.718 74.7539C228.704 74.8223 228.676 74.8747 228.635 74.9111C228.594 74.9476 228.54 74.9727 228.471 74.9863C228.403 74.9954 228.314 75 228.205 75H228.13C227.674 75 227.284 74.9499 226.961 74.8496C226.642 74.7448 226.359 74.6081 226.113 74.4395C225.954 74.6126 225.753 74.7493 225.511 74.8496C225.274 74.9499 224.985 75 224.643 75H223.262C223.153 75 223.064 74.9954 222.996 74.9863C222.927 74.9727 222.873 74.9476 222.832 74.9111C222.791 74.8747 222.763 74.8223 222.75 74.7539C222.736 74.6855 222.729 74.5921 222.729 74.4736V73.9951C222.729 73.9085 222.734 73.8356 222.743 73.7764C222.747 73.7126 222.768 73.6602 222.804 73.6191C222.836 73.5781 222.889 73.5485 222.962 73.5303C223.03 73.512 223.13 73.5029 223.262 73.5029H224.035C224.185 73.5029 224.313 73.487 224.418 73.4551C224.527 73.4232 224.614 73.3708 224.677 73.2979C224.746 73.2204 224.796 73.1178 224.828 72.9902C224.86 72.8626 224.876 72.7031 224.876 72.5117V69.4014H226.66V72.751ZM225.805 76.9619C225.805 76.8389 225.828 76.7249 225.874 76.6201C225.919 76.5153 225.981 76.4219 226.058 76.3398C226.14 76.2624 226.234 76.2008 226.339 76.1553C226.443 76.1097 226.557 76.0869 226.68 76.0869C226.803 76.0869 226.917 76.1097 227.022 76.1553C227.127 76.2008 227.218 76.2624 227.296 76.3398C227.378 76.4219 227.441 76.5153 227.487 76.6201C227.533 76.7249 227.555 76.8389 227.555 76.9619C227.555 77.085 227.533 77.1989 227.487 77.3037C227.441 77.4085 227.378 77.4997 227.296 77.5771C227.218 77.6592 227.127 77.723 227.022 77.7686C226.917 77.8141 226.803 77.8369 226.68 77.8369C226.557 77.8369 226.443 77.8141 226.339 77.7686C226.234 77.723 226.14 77.6592 226.058 77.5771C225.981 77.4997 225.919 77.4085 225.874 77.3037C225.828 77.1989 225.805 77.085 225.805 76.9619ZM223.755 76.9619C223.755 76.8389 223.777 76.7249 223.823 76.6201C223.869 76.5153 223.93 76.4219 224.008 76.3398C224.09 76.2624 224.183 76.2008 224.288 76.1553C224.393 76.1097 224.507 76.0869 224.63 76.0869C224.753 76.0869 224.867 76.1097 224.971 76.1553C225.076 76.2008 225.167 76.2624 225.245 76.3398C225.327 76.4219 225.391 76.5153 225.436 76.6201C225.482 76.7249 225.505 76.8389 225.505 76.9619C225.505 77.085 225.482 77.1989 225.436 77.3037C225.391 77.4085 225.327 77.4997 225.245 77.5771C225.167 77.6592 225.076 77.723 224.971 77.7686C224.867 77.8141 224.753 77.8369 224.63 77.8369C224.507 77.8369 224.393 77.8141 224.288 77.7686C224.183 77.723 224.09 77.6592 224.008 77.5771C223.93 77.4997 223.869 77.4085 223.823 77.3037C223.777 77.1989 223.755 77.085 223.755 76.9619ZM228.227 75C228.118 75 228.029 74.9954 227.96 74.9863C227.892 74.9727 227.837 74.9476 227.796 74.9111C227.755 74.8747 227.728 74.8223 227.714 74.7539C227.701 74.6855 227.694 74.5921 227.694 74.4736V73.9951C227.694 73.9085 227.698 73.8356 227.707 73.7764C227.712 73.7126 227.732 73.6602 227.769 73.6191C227.801 73.5781 227.853 73.5485 227.926 73.5303C227.995 73.512 228.095 73.5029 228.227 73.5029H229.977V69.3945H231.761V75H228.227ZM230.312 76.9619C230.312 76.8389 230.335 76.7249 230.38 76.6201C230.426 76.5153 230.487 76.4219 230.565 76.3398C230.647 76.2624 230.74 76.2008 230.845 76.1553C230.95 76.1097 231.064 76.0869 231.187 76.0869C231.31 76.0869 231.424 76.1097 231.529 76.1553C231.634 76.2008 231.725 76.2624 231.802 76.3398C231.884 76.4219 231.948 76.5153 231.994 76.6201C232.039 76.7249 232.062 76.8389 232.062 76.9619C232.062 77.085 232.039 77.1989 231.994 77.3037C231.948 77.4085 231.884 77.4997 231.802 77.5771C231.725 77.6592 231.634 77.723 231.529 77.7686C231.424 77.8141 231.31 77.8369 231.187 77.8369C231.064 77.8369 230.95 77.8141 230.845 77.7686C230.74 77.723 230.647 77.6592 230.565 77.5771C230.487 77.4997 230.426 77.4085 230.38 77.3037C230.335 77.1989 230.312 77.085 230.312 76.9619Z" fill="#0F1621"/>
<rect x="341" width="48" height="48" rx="16" fill="#59A0F2"/>
<path d="M361.75 30.2292C361.749 30.2292 361.748 30.2292 361.747 30.2292C361.53 30.2281 361.323 30.1414 361.171 29.9865L356.837 25.586C356.522 25.2664 356.526 24.7519 356.846 24.4366C357.166 24.1224 357.681 24.1257 357.995 24.4453L361.753 28.2629L372.008 18.0081C372.326 17.6907 372.84 17.6907 373.158 18.0081C373.475 18.3255 373.475 18.8401 373.158 19.1575L362.324 29.9909C362.173 30.1436 361.966 30.2292 361.75 30.2292Z" fill="white"/>
<path opacity="0.4" d="M325.731 65.1768H326.954V73.7764C326.954 74.3779 326.863 74.9316 326.681 75.4375C326.503 75.9479 326.239 76.3877 325.888 76.7568C325.537 77.126 325.102 77.4131 324.582 77.6182C324.067 77.8278 323.472 77.9326 322.798 77.9326C322.151 77.9326 321.588 77.8324 321.109 77.6318C320.635 77.4359 320.241 77.1715 319.927 76.8389C319.612 76.5062 319.378 76.1211 319.223 75.6836C319.068 75.2507 318.99 74.7949 318.99 74.3164C318.99 74.0885 319.009 73.8561 319.045 73.6191C319.086 73.3776 319.138 73.1429 319.202 72.915C319.266 72.6826 319.341 72.4639 319.428 72.2588C319.519 72.0537 319.617 71.8691 319.722 71.7051L320.761 72.2861C320.688 72.4046 320.622 72.5391 320.563 72.6895C320.503 72.8353 320.453 72.9902 320.412 73.1543C320.371 73.3184 320.339 73.487 320.316 73.6602C320.294 73.8288 320.282 73.9951 320.282 74.1592C320.282 74.5146 320.339 74.8473 320.453 75.1572C320.567 75.4717 320.733 75.7428 320.952 75.9707C321.176 76.2031 321.449 76.3854 321.773 76.5176C322.101 76.6543 322.474 76.7227 322.894 76.7227C323.345 76.7227 323.746 76.6543 324.097 76.5176C324.448 76.3854 324.744 76.1917 324.985 75.9365C325.227 75.6859 325.412 75.3783 325.539 75.0137C325.667 74.6491 325.731 74.2367 325.731 73.7764V65.1768ZM329.355 65.1836H330.586V75.0068H329.355V65.1836ZM335.913 75C335.352 75 334.878 74.9202 334.491 74.7607C334.108 74.6012 333.798 74.3962 333.561 74.1455C333.324 73.8903 333.153 73.6032 333.048 73.2842C332.943 72.9652 332.891 72.6484 332.891 72.334C332.891 71.9375 332.959 71.5661 333.096 71.2197C333.233 70.8734 333.429 70.5726 333.684 70.3174C333.939 70.0576 334.245 69.8548 334.6 69.709C334.96 69.5632 335.363 69.4902 335.81 69.4902C335.988 69.4902 336.175 69.5085 336.371 69.5449C336.567 69.5768 336.758 69.6383 336.945 69.7295C337.136 69.8161 337.316 69.9346 337.485 70.085C337.653 70.2354 337.802 70.4268 337.929 70.6592C338.057 70.887 338.157 71.1628 338.23 71.4863C338.307 71.8053 338.346 72.1768 338.346 72.6006V73.7695H339.823C339.987 73.7695 340.11 73.7969 340.192 73.8516C340.274 73.9062 340.315 73.9997 340.315 74.1318V74.6035C340.315 74.6901 340.301 74.7607 340.274 74.8154C340.251 74.8656 340.217 74.9043 340.171 74.9316C340.126 74.959 340.073 74.9772 340.014 74.9863C339.955 74.9954 339.891 75 339.823 75H338.257C338.139 75.4967 337.947 75.9183 337.683 76.2646C337.419 76.611 337.095 76.8958 336.712 77.1191C336.334 77.347 335.901 77.5225 335.414 77.6455C334.93 77.7731 334.413 77.8643 333.862 77.9189L333.732 76.7363C334.662 76.6725 335.407 76.4902 335.967 76.1895C336.532 75.8932 336.888 75.4967 337.034 75H335.913ZM337.122 73.7695V72.9971C337.122 72.5094 337.077 72.113 336.986 71.8076C336.899 71.4977 336.783 71.2585 336.637 71.0898C336.496 70.9167 336.332 70.8005 336.145 70.7412C335.963 70.6774 335.778 70.6455 335.591 70.6455C335.382 70.6455 335.186 70.6842 335.003 70.7617C334.821 70.8392 334.662 70.9486 334.525 71.0898C334.393 71.2311 334.288 71.402 334.21 71.6025C334.133 71.7985 334.094 72.015 334.094 72.252C334.094 72.457 334.126 72.653 334.19 72.8398C334.258 73.0221 334.365 73.1816 334.511 73.3184C334.657 73.4551 334.844 73.5645 335.072 73.6465C335.3 73.7285 335.578 73.7695 335.906 73.7695H337.122ZM341.178 69.6406C341.447 69.5632 341.718 69.4948 341.991 69.4355C342.269 69.3717 342.581 69.3398 342.928 69.3398C343.279 69.3398 343.589 69.3945 343.858 69.5039C344.131 69.6133 344.363 69.766 344.555 69.9619C344.751 70.1579 344.908 70.3926 345.026 70.666C345.15 70.9349 345.236 71.2288 345.286 71.5479C345.332 71.8395 345.377 72.1198 345.423 72.3887C345.469 72.6576 345.526 72.8945 345.594 73.0996C345.667 73.3047 345.756 73.4688 345.86 73.5918C345.97 73.7103 346.109 73.7695 346.277 73.7695H346.913C347.077 73.7695 347.2 73.7969 347.282 73.8516C347.364 73.9062 347.405 73.9997 347.405 74.1318V74.6035C347.405 74.6901 347.392 74.7607 347.364 74.8154C347.342 74.8656 347.307 74.9043 347.262 74.9316C347.216 74.959 347.164 74.9772 347.105 74.9863C347.045 74.9954 346.982 75 346.913 75H339.9C339.735 75 339.612 74.9727 339.53 74.918C339.448 74.8633 339.407 74.7699 339.407 74.6377V74.166C339.407 74.0794 339.421 74.0111 339.448 73.9609C339.471 73.9062 339.505 73.8652 339.551 73.8379C339.596 73.8105 339.649 73.7923 339.708 73.7832C339.767 73.7741 339.831 73.7695 339.9 73.7695H344.76C344.664 73.6738 344.584 73.5439 344.521 73.3799C344.461 73.2158 344.411 72.9902 344.37 72.7031C344.334 72.4342 344.286 72.1676 344.227 71.9033C344.172 71.639 344.081 71.402 343.953 71.1924C343.83 70.9782 343.659 70.8073 343.441 70.6797C343.226 70.5475 342.942 70.4814 342.586 70.4814C342.486 70.4814 342.372 70.4906 342.244 70.5088C342.117 70.5225 341.987 70.543 341.855 70.5703C341.722 70.5931 341.597 70.6204 341.479 70.6523C341.36 70.6842 341.26 70.7184 341.178 70.7549V69.6406ZM342.313 77.0508C342.313 76.9505 342.331 76.8548 342.367 76.7637C342.408 76.6771 342.461 76.5996 342.525 76.5312C342.588 76.4674 342.664 76.415 342.75 76.374C342.841 76.3376 342.937 76.3193 343.037 76.3193C343.137 76.3193 343.231 76.3376 343.317 76.374C343.409 76.415 343.486 76.4674 343.55 76.5312C343.618 76.5996 343.671 76.6771 343.707 76.7637C343.748 76.8548 343.769 76.9505 343.769 77.0508C343.769 77.151 343.748 77.2445 343.707 77.3311C343.671 77.4222 343.618 77.4997 343.55 77.5635C343.486 77.6273 343.409 77.6774 343.317 77.7139C343.231 77.7549 343.137 77.7754 343.037 77.7754C342.832 77.7754 342.659 77.7048 342.518 77.5635C342.381 77.4268 342.313 77.2559 342.313 77.0508ZM346.983 75C346.819 75 346.696 74.9727 346.614 74.918C346.532 74.8633 346.491 74.7699 346.491 74.6377V74.166C346.491 74.0794 346.505 74.0111 346.532 73.9609C346.555 73.9062 346.589 73.8652 346.635 73.8379C346.68 73.8105 346.733 73.7923 346.792 73.7832C346.851 73.7741 346.915 73.7695 346.983 73.7695H348.843V65.1768H350.073V75H346.983ZM352.467 65.1836H353.698V75.0068H352.467V65.1836ZM365.705 73.7764C365.705 73.6488 365.694 73.4915 365.671 73.3047C365.648 73.1133 365.616 72.9128 365.575 72.7031C365.534 72.4935 365.482 72.2816 365.418 72.0674C365.354 71.8532 365.281 71.6572 365.199 71.4795L366.409 71.1377C366.459 71.2744 366.509 71.4271 366.559 71.5957C366.61 71.7643 366.655 71.9421 366.696 72.1289C366.742 72.3112 366.783 72.5003 366.819 72.6963C366.856 72.8877 366.883 73.0768 366.901 73.2637C367.115 73.4368 367.368 73.5645 367.66 73.6465C367.956 73.7285 368.314 73.7695 368.733 73.7695H368.788C368.952 73.7695 369.075 73.7969 369.157 73.8516C369.239 73.9062 369.28 73.9997 369.28 74.1318V74.6035C369.28 74.6901 369.266 74.7607 369.239 74.8154C369.216 74.8656 369.182 74.9043 369.137 74.9316C369.091 74.959 369.039 74.9772 368.979 74.9863C368.92 74.9954 368.856 75 368.788 75H368.72C368.296 75 367.936 74.9521 367.639 74.8564C367.348 74.7607 367.095 74.6331 366.881 74.4736C366.817 74.984 366.68 75.4512 366.471 75.875C366.261 76.2988 365.983 76.6634 365.637 76.9688C365.295 77.2741 364.882 77.5111 364.399 77.6797C363.921 77.8483 363.378 77.9326 362.772 77.9326C362.125 77.9326 361.562 77.8324 361.084 77.6318C360.61 77.4359 360.216 77.1715 359.901 76.8389C359.587 76.5062 359.352 76.1211 359.197 75.6836C359.042 75.2507 358.965 74.7949 358.965 74.3164C358.965 74.0885 358.983 73.8561 359.019 73.6191C359.06 73.3776 359.113 73.1429 359.177 72.915C359.24 72.6826 359.316 72.4639 359.402 72.2588C359.493 72.0537 359.591 71.8691 359.696 71.7051L360.735 72.2861C360.662 72.4046 360.596 72.5391 360.537 72.6895C360.478 72.8353 360.428 72.9902 360.387 73.1543C360.346 73.3184 360.314 73.487 360.291 73.6602C360.268 73.8288 360.257 73.9951 360.257 74.1592C360.257 74.5146 360.314 74.8473 360.428 75.1572C360.542 75.4717 360.708 75.7428 360.927 75.9707C361.15 76.2031 361.423 76.3854 361.747 76.5176C362.075 76.6543 362.449 76.7227 362.868 76.7227C363.319 76.7227 363.72 76.6543 364.071 76.5176C364.422 76.3854 364.718 76.1917 364.96 75.9365C365.201 75.6859 365.386 75.3783 365.514 75.0137C365.641 74.6491 365.705 74.2367 365.705 73.7764ZM362.971 68.6357C362.971 68.5355 362.989 68.4421 363.025 68.3555C363.066 68.2643 363.119 68.1868 363.182 68.123C363.246 68.0547 363.321 68.0023 363.408 67.9658C363.499 67.9248 363.595 67.9043 363.695 67.9043C363.795 67.9043 363.889 67.9248 363.975 67.9658C364.067 68.0023 364.144 68.0547 364.208 68.123C364.276 68.1868 364.329 68.2643 364.365 68.3555C364.406 68.4421 364.427 68.5355 364.427 68.6357C364.427 68.736 364.406 68.8317 364.365 68.9229C364.329 69.0094 364.276 69.0846 364.208 69.1484C364.144 69.2122 364.067 69.2646 363.975 69.3057C363.889 69.3421 363.795 69.3604 363.695 69.3604C363.49 69.3604 363.317 69.292 363.176 69.1553C363.039 69.014 362.971 68.8408 362.971 68.6357ZM370.97 74.0566C370.875 74.2344 370.772 74.3848 370.663 74.5078C370.558 74.6263 370.442 74.722 370.314 74.7949C370.191 74.8678 370.054 74.9202 369.904 74.9521C369.753 74.984 369.585 75 369.398 75H368.865C368.701 75 368.578 74.9727 368.496 74.918C368.414 74.8633 368.373 74.7699 368.373 74.6377V74.166C368.373 74.0794 368.386 74.0111 368.414 73.9609C368.436 73.9062 368.471 73.8652 368.516 73.8379C368.562 73.8105 368.614 73.7923 368.673 73.7832C368.733 73.7741 368.796 73.7695 368.865 73.7695H369.186C369.469 73.7695 369.719 73.7057 369.938 73.5781C370.161 73.446 370.312 73.2386 370.389 72.9561C370.521 72.4684 370.669 72.0492 370.834 71.6982C370.998 71.3428 371.168 71.042 371.346 70.7959C371.529 70.5452 371.713 70.3447 371.9 70.1943C372.087 70.0394 372.271 69.9186 372.454 69.832C372.636 69.7454 372.809 69.6885 372.973 69.6611C373.142 69.6292 373.297 69.6133 373.438 69.6133C373.743 69.6133 374.021 69.6566 374.272 69.7432C374.523 69.8298 374.746 69.9482 374.942 70.0986C375.138 70.2445 375.309 70.4154 375.455 70.6113C375.6 70.8073 375.721 71.0124 375.817 71.2266C375.913 71.4362 375.983 71.6504 376.029 71.8691C376.074 72.0879 376.097 72.2952 376.097 72.4912C376.097 72.6689 376.074 72.8581 376.029 73.0586C375.983 73.2546 375.915 73.4482 375.824 73.6396C375.733 73.8265 375.614 74.0065 375.468 74.1797C375.327 74.3529 375.158 74.5055 374.962 74.6377C374.766 74.7699 374.543 74.8747 374.292 74.9521C374.042 75.0296 373.762 75.0684 373.452 75.0684C373.155 75.0684 372.877 75.0387 372.618 74.9795C372.362 74.9157 372.13 74.8359 371.92 74.7402C371.715 74.6445 371.531 74.5374 371.367 74.4189C371.207 74.2959 371.075 74.1751 370.97 74.0566ZM374.99 72.6348C374.99 72.4661 374.958 72.2747 374.894 72.0605C374.835 71.8464 374.739 71.6436 374.607 71.4521C374.479 71.2607 374.315 71.1012 374.115 70.9736C373.914 70.8415 373.675 70.7754 373.397 70.7754C373.133 70.7754 372.889 70.846 372.666 70.9873C372.447 71.1286 372.253 71.3154 372.084 71.5479C371.916 71.7757 371.775 72.0378 371.661 72.334C371.547 72.6302 371.465 72.9355 371.415 73.25C371.46 73.3138 371.549 73.3822 371.681 73.4551C371.813 73.5234 371.966 73.5872 372.139 73.6465C372.317 73.7012 372.504 73.7467 372.7 73.7832C372.9 73.8197 373.092 73.8379 373.274 73.8379C373.534 73.8379 373.768 73.8197 373.978 73.7832C374.192 73.7467 374.375 73.6852 374.525 73.5986C374.675 73.5075 374.789 73.3844 374.867 73.2295C374.949 73.0745 374.99 72.8763 374.99 72.6348ZM387.318 75C386.799 75 386.359 74.9202 385.999 74.7607C385.643 74.6012 385.354 74.3962 385.131 74.1455C384.907 73.8903 384.746 73.6032 384.645 73.2842C384.545 72.9652 384.495 72.6484 384.495 72.334C384.495 71.9375 384.563 71.5661 384.7 71.2197C384.837 70.8734 385.033 70.5726 385.288 70.3174C385.543 70.0576 385.849 69.8548 386.204 69.709C386.564 69.5632 386.967 69.4902 387.414 69.4902C387.596 69.4902 387.783 69.5085 387.974 69.5449C388.17 69.5768 388.362 69.6383 388.549 69.7295C388.74 69.8161 388.92 69.9346 389.089 70.085C389.257 70.2354 389.405 70.4268 389.533 70.6592C389.661 70.887 389.761 71.1628 389.834 71.4863C389.911 71.8053 389.95 72.1768 389.95 72.6006V73.7695H391.358C391.522 73.7695 391.645 73.7969 391.727 73.8516C391.809 73.9062 391.85 73.9997 391.85 74.1318V74.6035C391.85 74.6901 391.837 74.7607 391.809 74.8154C391.787 74.8656 391.752 74.9043 391.707 74.9316C391.661 74.959 391.609 74.9772 391.55 74.9863C391.49 74.9954 391.427 75 391.358 75H389.95C389.891 75.7018 389.738 76.3125 389.492 76.832C389.246 77.3561 388.92 77.7891 388.515 78.1309C388.109 78.4772 387.633 78.7347 387.086 78.9033C386.539 79.0719 385.935 79.1562 385.274 79.1562C384.572 79.1562 383.955 79.0674 383.422 78.8896C382.893 78.7119 382.451 78.4635 382.096 78.1445C381.74 77.8255 381.471 77.445 381.289 77.0029C381.111 76.5609 381.022 76.0732 381.022 75.54C381.022 75.3122 381.041 75.0798 381.077 74.8428C381.118 74.6012 381.17 74.3665 381.234 74.1387C381.298 73.9062 381.373 73.6875 381.46 73.4824C381.551 73.2773 381.649 73.0928 381.754 72.9287L382.793 73.5098C382.72 73.6283 382.654 73.7627 382.595 73.9131C382.535 74.0589 382.485 74.2139 382.444 74.3779C382.403 74.542 382.371 74.7106 382.349 74.8838C382.326 75.0524 382.314 75.2188 382.314 75.3828C382.314 75.7611 382.378 76.1051 382.506 76.415C382.638 76.7295 382.832 77.0007 383.087 77.2285C383.342 77.4564 383.659 77.6318 384.037 77.7549C384.42 77.8825 384.864 77.9463 385.37 77.9463C385.844 77.9463 386.286 77.8848 386.696 77.7617C387.106 77.6432 387.462 77.4632 387.763 77.2217C388.063 76.9801 388.298 76.6748 388.467 76.3057C388.64 75.9365 388.726 75.5013 388.726 75H387.318ZM388.726 73.7695V72.9971C388.726 72.5094 388.681 72.113 388.59 71.8076C388.503 71.4977 388.387 71.2585 388.241 71.0898C388.1 70.9167 387.936 70.8005 387.749 70.7412C387.567 70.6774 387.382 70.6455 387.195 70.6455C386.986 70.6455 386.79 70.6842 386.607 70.7617C386.425 70.8392 386.266 70.9486 386.129 71.0898C385.997 71.2311 385.892 71.402 385.814 71.6025C385.737 71.7985 385.698 72.015 385.698 72.252C385.698 72.457 385.732 72.653 385.801 72.8398C385.869 73.0221 385.976 73.1816 386.122 73.3184C386.272 73.4551 386.464 73.5645 386.696 73.6465C386.929 73.7285 387.209 73.7695 387.537 73.7695H388.726ZM385.568 67.2617C385.568 67.1615 385.586 67.068 385.623 66.9814C385.664 66.8903 385.716 66.8128 385.78 66.749C385.844 66.6807 385.919 66.6283 386.006 66.5918C386.097 66.5508 386.193 66.5303 386.293 66.5303C386.393 66.5303 386.487 66.5508 386.573 66.5918C386.664 66.6283 386.742 66.6807 386.806 66.749C386.874 66.8128 386.926 66.8903 386.963 66.9814C387.004 67.068 387.024 67.1615 387.024 67.2617C387.024 67.362 387.004 67.4577 386.963 67.5488C386.926 67.6354 386.874 67.7106 386.806 67.7744C386.742 67.8382 386.664 67.8906 386.573 67.9316C386.487 67.9681 386.393 67.9863 386.293 67.9863C386.088 67.9863 385.915 67.918 385.773 67.7812C385.637 67.64 385.568 67.4668 385.568 67.2617ZM387.516 67.2617C387.516 67.1615 387.535 67.068 387.571 66.9814C387.612 66.8903 387.665 66.8128 387.728 66.749C387.792 66.6807 387.867 66.6283 387.954 66.5918C388.045 66.5508 388.141 66.5303 388.241 66.5303C388.341 66.5303 388.435 66.5508 388.521 66.5918C388.613 66.6283 388.69 66.6807 388.754 66.749C388.822 66.8128 388.875 66.8903 388.911 66.9814C388.952 67.068 388.973 67.1615 388.973 67.2617C388.973 67.362 388.952 67.4577 388.911 67.5488C388.875 67.6354 388.822 67.7106 388.754 67.7744C388.69 67.8382 388.613 67.8906 388.521 67.9316C388.435 67.9681 388.341 67.9863 388.241 67.9863C388.036 67.9863 387.863 67.918 387.722 67.7812C387.585 67.64 387.516 67.4668 387.516 67.2617ZM393.582 67.2617C393.582 67.1615 393.6 67.068 393.636 66.9814C393.677 66.8903 393.73 66.8128 393.794 66.749C393.857 66.6807 393.933 66.6283 394.019 66.5918C394.11 66.5508 394.206 66.5303 394.306 66.5303C394.406 66.5303 394.5 66.5508 394.586 66.5918C394.678 66.6283 394.755 66.6807 394.819 66.749C394.887 66.8128 394.94 66.8903 394.976 66.9814C395.017 67.068 395.038 67.1615 395.038 67.2617C395.038 67.362 395.017 67.4577 394.976 67.5488C394.94 67.6354 394.887 67.7106 394.819 67.7744C394.755 67.8382 394.678 67.8906 394.586 67.9316C394.5 67.9681 394.406 67.9863 394.306 67.9863C394.101 67.9863 393.928 67.918 393.787 67.7812C393.65 67.64 393.582 67.4668 393.582 67.2617ZM395.53 67.2617C395.53 67.1615 395.548 67.068 395.585 66.9814C395.626 66.8903 395.678 66.8128 395.742 66.749C395.806 66.6807 395.881 66.6283 395.967 66.5918C396.058 66.5508 396.154 66.5303 396.254 66.5303C396.355 66.5303 396.448 66.5508 396.535 66.5918C396.626 66.6283 396.703 66.6807 396.767 66.749C396.836 66.8128 396.888 66.8903 396.924 66.9814C396.965 67.068 396.986 67.1615 396.986 67.2617C396.986 67.362 396.965 67.4577 396.924 67.5488C396.888 67.6354 396.836 67.7106 396.767 67.7744C396.703 67.8382 396.626 67.8906 396.535 67.9316C396.448 67.9681 396.355 67.9863 396.254 67.9863C396.049 67.9863 395.876 67.918 395.735 67.7812C395.598 67.64 395.53 67.4668 395.53 67.2617ZM398.538 75C398 75 397.51 74.9818 397.068 74.9453C396.63 74.9089 396.227 74.8519 395.858 74.7744C395.598 74.82 395.318 74.8564 395.017 74.8838C394.716 74.9111 394.406 74.9339 394.087 74.9521C393.768 74.9704 393.443 74.984 393.11 74.9932C392.782 74.9977 392.458 75 392.139 75H391.428C391.264 75 391.141 74.9727 391.059 74.918C390.977 74.8633 390.936 74.7699 390.936 74.6377V74.166C390.936 74.0794 390.95 74.0111 390.977 73.9609C391 73.9062 391.034 73.8652 391.08 73.8379C391.125 73.8105 391.178 73.7923 391.237 73.7832C391.296 73.7741 391.36 73.7695 391.428 73.7695H393.336L393.329 73.7422C393.206 73.6374 393.101 73.5166 393.014 73.3799C392.928 73.2432 392.855 73.1019 392.795 72.9561C392.736 72.8102 392.693 72.6667 392.666 72.5254C392.638 72.3841 392.625 72.2565 392.625 72.1426C392.625 71.7826 392.693 71.4408 392.83 71.1172C392.966 70.7891 393.16 70.502 393.411 70.2559C393.666 70.0098 393.976 69.8161 394.34 69.6748C394.705 69.529 395.113 69.4561 395.564 69.4561C395.961 69.4561 396.309 69.5199 396.61 69.6475C396.915 69.7751 397.17 69.9482 397.376 70.167C397.585 70.3857 397.742 70.6432 397.847 70.9395C397.952 71.2311 398.004 71.5433 398.004 71.876C398.004 72.0765 397.986 72.2702 397.95 72.457C397.918 72.6393 397.877 72.8125 397.827 72.9766C397.777 73.1406 397.722 73.291 397.663 73.4277C397.608 73.5599 397.56 73.6738 397.519 73.7695H399.276C399.44 73.7695 399.563 73.7969 399.645 73.8516C399.727 73.9062 399.768 73.9997 399.768 74.1318V74.6035C399.768 74.6901 399.754 74.7607 399.727 74.8154C399.704 74.8656 399.67 74.9043 399.625 74.9316C399.579 74.959 399.527 74.9772 399.467 74.9863C399.408 74.9954 399.344 75 399.276 75H398.538ZM393.78 71.999C393.78 72.2679 393.832 72.5117 393.937 72.7305C394.042 72.9447 394.185 73.1292 394.368 73.2842C394.55 73.4391 394.762 73.5599 395.003 73.6465C395.25 73.7285 395.512 73.7695 395.79 73.7695H396.22C396.275 73.6921 396.334 73.5941 396.398 73.4756C396.462 73.3571 396.519 73.2272 396.569 73.0859C396.624 72.9401 396.669 72.7852 396.706 72.6211C396.742 72.4525 396.76 72.2793 396.76 72.1016C396.76 71.8509 396.719 71.6299 396.637 71.4385C396.56 71.2471 396.455 71.0876 396.323 70.96C396.191 70.8278 396.038 70.7298 395.865 70.666C395.692 70.5977 395.512 70.5635 395.325 70.5635C395.138 70.5635 394.951 70.5931 394.764 70.6523C394.582 70.707 394.418 70.7936 394.272 70.9121C394.126 71.026 394.008 71.1742 393.917 71.3564C393.825 71.5387 393.78 71.7529 393.78 71.999ZM400.624 69.6406C400.893 69.5632 401.164 69.4948 401.438 69.4355C401.716 69.3717 402.028 69.3398 402.374 69.3398C402.725 69.3398 403.035 69.3945 403.304 69.5039C403.577 69.6133 403.81 69.766 404.001 69.9619C404.197 70.1579 404.354 70.3926 404.473 70.666C404.596 70.9349 404.683 71.2288 404.733 71.5479C404.778 71.8395 404.824 72.1198 404.869 72.3887C404.915 72.6576 404.972 72.8945 405.04 73.0996C405.113 73.3047 405.202 73.4688 405.307 73.5918C405.416 73.7103 405.555 73.7695 405.724 73.7695H406.36C406.524 73.7695 406.647 73.7969 406.729 73.8516C406.811 73.9062 406.852 73.9997 406.852 74.1318V74.6035C406.852 74.6901 406.838 74.7607 406.811 74.8154C406.788 74.8656 406.754 74.9043 406.708 74.9316C406.663 74.959 406.61 74.9772 406.551 74.9863C406.492 74.9954 406.428 75 406.36 75H399.346C399.182 75 399.059 74.9727 398.977 74.918C398.895 74.8633 398.854 74.7699 398.854 74.6377V74.166C398.854 74.0794 398.867 74.0111 398.895 73.9609C398.918 73.9062 398.952 73.8652 398.997 73.8379C399.043 73.8105 399.095 73.7923 399.155 73.7832C399.214 73.7741 399.278 73.7695 399.346 73.7695H404.206C404.111 73.6738 404.031 73.5439 403.967 73.3799C403.908 73.2158 403.858 72.9902 403.817 72.7031C403.78 72.4342 403.732 72.1676 403.673 71.9033C403.618 71.639 403.527 71.402 403.4 71.1924C403.277 70.9782 403.106 70.8073 402.887 70.6797C402.673 70.5475 402.388 70.4814 402.032 70.4814C401.932 70.4814 401.818 70.4906 401.691 70.5088C401.563 70.5225 401.433 70.543 401.301 70.5703C401.169 70.5931 401.044 70.6204 400.925 70.6523C400.807 70.6842 400.706 70.7184 400.624 70.7549V69.6406ZM406.43 75C406.266 75 406.143 74.9727 406.06 74.918C405.978 74.8633 405.937 74.7699 405.937 74.6377V74.166C405.937 74.0794 405.951 74.0111 405.978 73.9609C406.001 73.9062 406.035 73.8652 406.081 73.8379C406.127 73.8105 406.179 73.7923 406.238 73.7832C406.297 73.7741 406.361 73.7695 406.43 73.7695H408.679V69.7158H409.916V75H406.43ZM407.462 67.2617C407.462 67.1615 407.48 67.068 407.517 66.9814C407.558 66.8903 407.61 66.8128 407.674 66.749C407.738 66.6807 407.813 66.6283 407.899 66.5918C407.99 66.5508 408.086 66.5303 408.186 66.5303C408.287 66.5303 408.38 66.5508 408.467 66.5918C408.558 66.6283 408.635 66.6807 408.699 66.749C408.768 66.8128 408.82 66.8903 408.856 66.9814C408.897 67.068 408.918 67.1615 408.918 67.2617C408.918 67.362 408.897 67.4577 408.856 67.5488C408.82 67.6354 408.768 67.7106 408.699 67.7744C408.635 67.8382 408.558 67.8906 408.467 67.9316C408.38 67.9681 408.287 67.9863 408.186 67.9863C407.981 67.9863 407.808 67.918 407.667 67.7812C407.53 67.64 407.462 67.4668 407.462 67.2617ZM409.41 67.2617C409.41 67.1615 409.428 67.068 409.465 66.9814C409.506 66.8903 409.558 66.8128 409.622 66.749C409.686 66.6807 409.761 66.6283 409.848 66.5918C409.939 66.5508 410.034 66.5303 410.135 66.5303C410.235 66.5303 410.328 66.5508 410.415 66.5918C410.506 66.6283 410.584 66.6807 410.647 66.749C410.716 66.8128 410.768 66.8903 410.805 66.9814C410.846 67.068 410.866 67.1615 410.866 67.2617C410.866 67.362 410.846 67.4577 410.805 67.5488C410.768 67.6354 410.716 67.7106 410.647 67.7744C410.584 67.8382 410.506 67.8906 410.415 67.9316C410.328 67.9681 410.235 67.9863 410.135 67.9863C409.93 67.9863 409.756 67.918 409.615 67.7812C409.478 67.64 409.41 67.4668 409.41 67.2617Z" fill="#0F1621"/>
</svg>
