<svg width="550" height="83" viewBox="0 0 550 83" fill="none" xmlns="http://www.w3.org/2000/svg">
<path d="M75.2207 24.29C74.6684 24.29 74.2207 24.7378 74.2207 25.29C74.2207 25.8423 74.6684 26.29 75.2207 26.29V25.29V24.29ZM75.2207 25.29V26.29H499.221V25.29V24.29H75.2207V25.29Z" fill="#A2CDFF"/>
<path d="M43 0.5H61C69.0081 0.5 75.5 6.99187 75.5 15V33C75.5 41.0081 69.0081 47.5 61 47.5H43C34.9919 47.5 28.5 41.0081 28.5 33V15C28.5 6.99187 34.9919 0.5 43 0.5Z" fill="white"/>
<path d="M43 0.5H61C69.0081 0.5 75.5 6.99187 75.5 15V33C75.5 41.0081 69.0081 47.5 61 47.5H43C34.9919 47.5 28.5 41.0081 28.5 33V15C28.5 6.99187 34.9919 0.5 43 0.5Z" stroke="#59A0F2"/>
<path d="M48.4385 28.6621C48.8779 28.8496 49.332 28.9932 49.8008 29.0928C50.2754 29.1865 50.75 29.2334 51.2246 29.2334C51.4883 29.2334 51.7725 29.2012 52.0771 29.1367C52.3877 29.0723 52.6748 28.9697 52.9385 28.8291C53.2021 28.6826 53.4219 28.498 53.5977 28.2754C53.7793 28.0469 53.8701 27.7744 53.8701 27.458C53.8701 27.0068 53.7764 26.6494 53.5889 26.3857C53.4014 26.1221 53.1611 25.9229 52.8682 25.7881C52.5752 25.6533 52.2441 25.5684 51.875 25.5332C51.5059 25.498 51.1426 25.4805 50.7852 25.4805C50.627 25.4805 50.4688 25.4834 50.3105 25.4893C50.1582 25.4893 50.0117 25.4893 49.8711 25.4893V23.5117C49.9648 23.5117 50.0674 23.5146 50.1787 23.5205C50.29 23.5205 50.4102 23.5205 50.5391 23.5205C50.7559 23.5205 50.9873 23.5146 51.2334 23.5029C51.4854 23.4912 51.7314 23.4678 51.9717 23.4326C52.2178 23.3916 52.4521 23.3359 52.6748 23.2656C52.8975 23.1895 53.0938 23.0898 53.2637 22.9668C53.4336 22.8438 53.5684 22.6943 53.668 22.5186C53.7676 22.3369 53.8174 22.1172 53.8174 21.8594C53.8174 21.5312 53.7559 21.2617 53.6328 21.0508C53.5156 20.834 53.3574 20.6641 53.1582 20.541C52.959 20.4121 52.7275 20.3242 52.4639 20.2773C52.2061 20.2246 51.9365 20.1982 51.6553 20.1982C51.1572 20.1982 50.6709 20.2539 50.1963 20.3652C49.7275 20.4766 49.2734 20.6436 48.834 20.8662L48.6846 18.8535C49.2412 18.6309 49.8154 18.4697 50.4072 18.3701C51.0049 18.2705 51.6025 18.2207 52.2002 18.2207C52.7275 18.2207 53.2402 18.2764 53.7383 18.3877C54.2363 18.4932 54.6758 18.6719 55.0566 18.9238C55.4434 19.1758 55.7539 19.5098 55.9883 19.9258C56.2227 20.3359 56.3398 20.8428 56.3398 21.4463C56.3398 21.8389 56.2842 22.1934 56.1729 22.5098C56.0615 22.8262 55.9033 23.1074 55.6982 23.3535C55.4932 23.5996 55.2471 23.8135 54.96 23.9951C54.6729 24.1768 54.3506 24.3291 53.9932 24.4521V24.4873C54.3975 24.5459 54.749 24.6602 55.0479 24.8301C55.3525 25 55.6016 25.2168 55.7949 25.4805C55.9941 25.7383 56.1436 26.0371 56.2432 26.377C56.3428 26.7168 56.3926 27.083 56.3926 27.4756C56.3926 27.7803 56.3604 28.0791 56.2959 28.3721C56.2314 28.665 56.1318 28.9434 55.9971 29.207C55.8682 29.4648 55.7012 29.7021 55.4961 29.9189C55.2969 30.1299 55.0596 30.3115 54.7842 30.4639C54.667 30.5283 54.5469 30.5869 54.4238 30.6396C54.3008 30.6865 54.1777 30.7334 54.0547 30.7803C53.2578 31.0732 52.4346 31.2197 51.585 31.2197C51.0283 31.2197 50.4746 31.1875 49.9238 31.123C49.373 31.0586 48.8281 30.9502 48.2891 30.7979L48.4385 28.6621Z" fill="#757575"/>
<path d="M4.44457 70.3994C4.05264 70.4814 3.69945 70.5794 3.385 70.6934C3.07055 70.8027 2.79939 70.9303 2.57152 71.0762C2.34821 71.2174 2.17504 71.3792 2.05199 71.5615C1.9335 71.7393 1.87426 71.9375 1.87426 72.1562C1.87426 72.334 1.90844 72.4844 1.9768 72.6074C2.04971 72.7305 2.14086 72.8307 2.25023 72.9082C2.36416 72.9811 2.49177 73.0335 2.63305 73.0654C2.77432 73.0973 2.9156 73.1133 3.05687 73.1133C3.31664 73.1133 3.56729 73.0768 3.80883 73.0039C4.05036 72.931 4.26228 72.8353 4.44457 72.7168V70.3994ZM6.20824 72.6553C6.20824 72.8193 6.21508 72.9561 6.22875 73.0654C6.24698 73.1702 6.27888 73.2568 6.32445 73.3252C6.37458 73.389 6.44066 73.4346 6.52269 73.4619C6.60928 73.4893 6.72321 73.5029 6.86449 73.5029H7.35668C7.48428 73.5029 7.58454 73.512 7.65746 73.5303C7.73038 73.5485 7.78278 73.5781 7.81469 73.6191C7.85114 73.6602 7.87165 73.7126 7.87621 73.7764C7.88532 73.8356 7.88988 73.9085 7.88988 73.9951V74.4736C7.88988 74.5921 7.88305 74.6855 7.86937 74.7539C7.8557 74.8223 7.82836 74.8747 7.78734 74.9111C7.74633 74.9476 7.69164 74.9727 7.62328 74.9863C7.55492 74.9954 7.46605 75 7.35668 75H6.55687C6.24698 75 5.98038 74.9772 5.75707 74.9316C5.53376 74.8815 5.34236 74.8177 5.18285 74.7402C5.0279 74.6582 4.9003 74.5648 4.80004 74.46C4.69978 74.3506 4.62002 74.2344 4.56078 74.1113C4.26456 74.2663 3.97745 74.3757 3.69945 74.4395C3.42146 74.5033 3.12979 74.5352 2.82445 74.5352C2.51911 74.5352 2.20922 74.4941 1.89476 74.4121C1.58031 74.3255 1.29548 74.1934 1.04027 74.0156C0.785063 73.8379 0.575428 73.61 0.411366 73.332C0.25186 73.0495 0.172108 72.7122 0.172108 72.3203C0.172108 71.974 0.240467 71.6618 0.377186 71.3838C0.513905 71.1012 0.696196 70.8483 0.924061 70.625C1.15648 70.4017 1.41853 70.2035 1.71019 70.0303C2.00642 69.8571 2.31176 69.7067 2.62621 69.5791C2.94522 69.4469 3.26195 69.3353 3.5764 69.2441C3.89086 69.153 4.18025 69.0755 4.44457 69.0117V68.2393H6.20824V72.6553ZM4.34887 66.4688C4.34887 66.3457 4.37165 66.2318 4.41722 66.127C4.4628 66.0221 4.52432 65.931 4.6018 65.8535C4.68383 65.7715 4.77725 65.7077 4.88207 65.6621C4.98689 65.6165 5.10082 65.5938 5.22387 65.5938C5.34691 65.5938 5.46084 65.6165 5.56566 65.6621C5.67048 65.7077 5.76163 65.7715 5.8391 65.8535C5.92113 65.931 5.98493 66.0221 6.03051 66.127C6.07608 66.2318 6.09887 66.3457 6.09887 66.4688C6.09887 66.5918 6.07608 66.7057 6.03051 66.8105C5.98493 66.9154 5.92113 67.0088 5.8391 67.0908C5.76163 67.1683 5.67048 67.2298 5.56566 67.2754C5.46084 67.321 5.34691 67.3438 5.22387 67.3438C5.10082 67.3438 4.98689 67.321 4.88207 67.2754C4.77725 67.2298 4.68383 67.1683 4.6018 67.0908C4.52432 67.0088 4.4628 66.9154 4.41722 66.8105C4.37165 66.7057 4.34887 66.5918 4.34887 66.4688ZM2.29808 66.4688C2.29808 66.3457 2.32087 66.2318 2.36644 66.127C2.41202 66.0221 2.47354 65.931 2.55101 65.8535C2.63305 65.7715 2.72647 65.7077 2.83129 65.6621C2.93611 65.6165 3.05004 65.5938 3.17308 65.5938C3.29613 65.5938 3.41006 65.6165 3.51488 65.6621C3.6197 65.7077 3.71084 65.7715 3.78832 65.8535C3.87035 65.931 3.93415 66.0221 3.97972 66.127C4.0253 66.2318 4.04808 66.3457 4.04808 66.4688C4.04808 66.5918 4.0253 66.7057 3.97972 66.8105C3.93415 66.9154 3.87035 67.0088 3.78832 67.0908C3.71084 67.1683 3.6197 67.2298 3.51488 67.2754C3.41006 67.321 3.29613 67.3438 3.17308 67.3438C3.05004 67.3438 2.93611 67.321 2.83129 67.2754C2.72647 67.2298 2.63305 67.1683 2.55101 67.0908C2.47354 67.0088 2.41202 66.9154 2.36644 66.8105C2.32087 66.7057 2.29808 66.5918 2.29808 66.4688ZM7.37883 75C7.26945 75 7.18058 74.9954 7.11223 74.9863C7.04387 74.9727 6.98918 74.9476 6.94816 74.9111C6.90715 74.8747 6.8798 74.8223 6.86613 74.7539C6.85246 74.6855 6.84562 74.5921 6.84562 74.4736V73.9951C6.84562 73.9085 6.85018 73.8356 6.8593 73.7764C6.86385 73.7126 6.88436 73.6602 6.92082 73.6191C6.95272 73.5781 7.00513 73.5485 7.07805 73.5303C7.1464 73.512 7.24667 73.5029 7.37883 73.5029H9.12883V69.3945H10.913V75H7.37883ZM9.46379 76.9619C9.46379 76.8389 9.48657 76.7249 9.53215 76.6201C9.57772 76.5153 9.63924 76.4219 9.71672 76.3398C9.79875 76.2624 9.89217 76.2008 9.99699 76.1553C10.1018 76.1097 10.2157 76.0869 10.3388 76.0869C10.4618 76.0869 10.5758 76.1097 10.6806 76.1553C10.7854 76.2008 10.8765 76.2624 10.954 76.3398C11.0361 76.4219 11.0999 76.5153 11.1454 76.6201C11.191 76.7249 11.2138 76.8389 11.2138 76.9619C11.2138 77.085 11.191 77.1989 11.1454 77.3037C11.0999 77.4085 11.0361 77.4997 10.954 77.5771C10.8765 77.6592 10.7854 77.723 10.6806 77.7686C10.5758 77.8141 10.4618 77.8369 10.3388 77.8369C10.2157 77.8369 10.1018 77.8141 9.99699 77.7686C9.89217 77.723 9.79875 77.6592 9.71672 77.5771C9.63924 77.4997 9.57772 77.4085 9.53215 77.3037C9.48657 77.1989 9.46379 77.085 9.46379 76.9619ZM16.0211 75C15.4059 75 14.8863 74.918 14.4625 74.7539C14.0387 74.5853 13.6946 74.3688 13.4303 74.1045C13.1705 73.8402 12.9814 73.5462 12.8629 73.2227C12.749 72.8991 12.692 72.5824 12.692 72.2725C12.692 71.8577 12.7672 71.4635 12.9176 71.0898C13.0725 70.7116 13.289 70.3812 13.567 70.0986C13.8495 69.8115 14.1891 69.5837 14.5855 69.415C14.982 69.2464 15.4264 69.1621 15.9186 69.1621C16.1191 69.1621 16.3287 69.1803 16.5475 69.2168C16.7662 69.2533 16.9804 69.3193 17.19 69.415C17.3997 69.5062 17.5979 69.6315 17.7848 69.791C17.9716 69.9505 18.1357 70.1533 18.277 70.3994C18.4228 70.641 18.5367 70.9303 18.6187 71.2676C18.7053 71.6048 18.7486 71.9967 18.7486 72.4434V73.5029H19.9859C20.1135 73.5029 20.2138 73.512 20.2867 73.5303C20.3596 73.5485 20.412 73.5781 20.4439 73.6191C20.4804 73.6602 20.5009 73.7126 20.5055 73.7764C20.5146 73.8356 20.5191 73.9085 20.5191 73.9951V74.4736C20.5191 74.5921 20.5123 74.6855 20.4986 74.7539C20.485 74.8223 20.4576 74.8747 20.4166 74.9111C20.3756 74.9476 20.3209 74.9727 20.2525 74.9863C20.1842 74.9954 20.0953 75 19.9859 75H18.6393C18.4752 75.4375 18.2337 75.8271 17.9146 76.1689C17.6002 76.5107 17.2265 76.807 16.7936 77.0576C16.3652 77.3083 15.8867 77.5111 15.358 77.666C14.8339 77.821 14.2802 77.9281 13.6969 77.9873L13.5328 76.5244C13.9521 76.4971 14.3395 76.4378 14.6949 76.3467C15.0504 76.2555 15.3671 76.1416 15.6451 76.0049C15.9277 75.8682 16.1692 75.7132 16.3697 75.54C16.5748 75.3714 16.7343 75.1914 16.8482 75H16.0211ZM16.985 73.5029V72.8467C16.985 72.3773 16.9462 71.9967 16.8687 71.7051C16.7958 71.4089 16.6979 71.1787 16.5748 71.0146C16.4563 70.846 16.3196 70.7321 16.1646 70.6729C16.0097 70.6136 15.8525 70.584 15.693 70.584C15.5198 70.584 15.3512 70.6204 15.1871 70.6934C15.0276 70.7663 14.8863 70.8688 14.7633 71.001C14.6402 71.1331 14.54 71.2926 14.4625 71.4795C14.3896 71.6618 14.3531 71.8646 14.3531 72.0879C14.3531 72.5254 14.4853 72.8717 14.7496 73.127C15.0185 73.3776 15.44 73.5029 16.0143 73.5029H16.985ZM25.6819 70.8643C25.609 70.8415 25.5156 70.8164 25.4016 70.7891C25.2923 70.7572 25.1715 70.7275 25.0393 70.7002C24.9117 70.6729 24.7773 70.6501 24.636 70.6318C24.4947 70.6136 24.358 70.6045 24.2259 70.6045C24.08 70.6045 23.9296 70.625 23.7747 70.666C23.6197 70.707 23.4762 70.7777 23.344 70.8779C23.2164 70.9736 23.1116 71.1058 23.0296 71.2744C22.9475 71.443 22.9065 71.6549 22.9065 71.9102C22.9065 72.1426 22.943 72.3568 23.0159 72.5527C23.0934 72.7441 23.2005 72.9105 23.3372 73.0518C23.4785 73.193 23.6448 73.3047 23.8362 73.3867C24.0276 73.4642 24.2395 73.5029 24.472 73.5029H26.4134V75H20.0012C19.8919 75 19.803 74.9954 19.7346 74.9863C19.6663 74.9727 19.6116 74.9476 19.5706 74.9111C19.5296 74.8747 19.5022 74.8223 19.4886 74.7539C19.4749 74.6855 19.468 74.5921 19.468 74.4736V73.9951C19.468 73.9085 19.4726 73.8356 19.4817 73.7764C19.4863 73.7126 19.5068 73.6602 19.5432 73.6191C19.5751 73.5781 19.6275 73.5485 19.7005 73.5303C19.7688 73.512 19.8691 73.5029 20.0012 73.5029H21.5188C21.4778 73.3936 21.4391 73.2773 21.4026 73.1543C21.3662 73.0267 21.3343 72.8991 21.3069 72.7715C21.2796 72.6439 21.2568 72.5208 21.2386 72.4023C21.2249 72.2839 21.218 72.1745 21.218 72.0742C21.218 71.6686 21.291 71.2835 21.4368 70.9189C21.5872 70.5544 21.7945 70.2354 22.0589 69.9619C22.3277 69.6885 22.6468 69.472 23.0159 69.3125C23.3896 69.153 23.7998 69.0732 24.2464 69.0732C24.3512 69.0732 24.4765 69.0801 24.6223 69.0938C24.7682 69.1029 24.9186 69.1188 25.0735 69.1416C25.2285 69.1598 25.3766 69.1849 25.5178 69.2168C25.6591 69.2441 25.7753 69.276 25.8665 69.3125L25.6819 70.8643ZM23.0979 66.8242C23.0979 66.7012 23.1207 66.5872 23.1663 66.4824C23.2119 66.3776 23.2734 66.2865 23.3509 66.209C23.4329 66.127 23.5263 66.0632 23.6311 66.0176C23.7359 65.972 23.8499 65.9492 23.9729 65.9492C24.096 65.9492 24.2099 65.972 24.3147 66.0176C24.4195 66.0632 24.5107 66.127 24.5882 66.209C24.6702 66.2865 24.734 66.3776 24.7796 66.4824C24.8251 66.5872 24.8479 66.7012 24.8479 66.8242C24.8479 66.9473 24.8251 67.0612 24.7796 67.166C24.734 67.2708 24.6702 67.3643 24.5882 67.4463C24.5107 67.5238 24.4195 67.5853 24.3147 67.6309C24.2099 67.6764 24.096 67.6992 23.9729 67.6992C23.8499 67.6992 23.7359 67.6764 23.6311 67.6309C23.5263 67.5853 23.4329 67.5238 23.3509 67.4463C23.2734 67.3643 23.2119 67.2708 23.1663 67.166C23.1207 67.0612 23.0979 66.9473 23.0979 66.8242ZM26.9892 76.3057C27.3857 76.2282 27.707 76.1302 27.9531 76.0117C28.1992 75.8932 28.3883 75.7451 28.5205 75.5674C28.6572 75.3942 28.7483 75.1891 28.7939 74.9521C28.844 74.7106 28.8691 74.4303 28.8691 74.1113V69.3945H30.6464V73.5029H32.0205C32.1481 73.5029 32.2483 73.512 32.3212 73.5303C32.3942 73.5485 32.4466 73.5781 32.4785 73.6191C32.5149 73.6602 32.5354 73.7126 32.54 73.7764C32.5491 73.8356 32.5537 73.9085 32.5537 73.9951V74.4736C32.5537 74.5921 32.5468 74.6855 32.5332 74.7539C32.5195 74.8223 32.4921 74.8747 32.4511 74.9111C32.4101 74.9476 32.3554 74.9727 32.2871 74.9863C32.2187 74.9954 32.1298 75 32.0205 75H30.5507C30.4778 75.4375 30.3571 75.8158 30.1884 76.1348C30.0244 76.4538 29.8056 76.7249 29.5322 76.9482C29.2587 77.1715 28.9306 77.3538 28.5478 77.4951C28.1696 77.6364 27.7275 77.7458 27.2216 77.8232L26.9892 76.3057ZM36.8346 75.0752C36.511 75.0752 36.2217 75.0479 35.9664 74.9932C35.7158 74.9385 35.4879 74.8678 35.2829 74.7812C35.0823 74.6901 34.9046 74.5898 34.7496 74.4805C34.5993 74.3665 34.4625 74.2549 34.3395 74.1455C33.9385 74.7152 33.3506 75 32.5758 75H32.0358C31.9264 75 31.8375 74.9954 31.7692 74.9863C31.7008 74.9727 31.6461 74.9476 31.6051 74.9111C31.5641 74.8747 31.5368 74.8223 31.5231 74.7539C31.5094 74.6855 31.5026 74.5921 31.5026 74.4736V73.9951C31.5026 73.9085 31.5071 73.8356 31.5163 73.7764C31.5208 73.7126 31.5413 73.6602 31.5778 73.6191C31.6097 73.5781 31.6621 73.5485 31.735 73.5303C31.8034 73.512 31.9036 73.5029 32.0358 73.5029H32.3639C32.5872 73.5029 32.7832 73.4437 32.9518 73.3252C33.1204 73.2067 33.2435 73.0221 33.3209 72.7715C33.5442 72.0286 33.7995 71.4294 34.0866 70.9736C34.3737 70.5133 34.6699 70.1602 34.9752 69.9141C35.2806 69.6634 35.5791 69.4971 35.8707 69.415C36.167 69.3285 36.4336 69.2852 36.6705 69.2852C37.0078 69.2852 37.3154 69.3307 37.5934 69.4219C37.8714 69.5085 38.1198 69.627 38.3385 69.7773C38.5618 69.9277 38.7532 70.1032 38.9127 70.3037C39.0768 70.5042 39.2112 70.7184 39.3161 70.9463C39.4254 71.1696 39.5052 71.402 39.5553 71.6436C39.61 71.8805 39.6373 72.1107 39.6373 72.334C39.6373 72.4661 39.6282 72.5983 39.61 72.7305C39.5918 72.8626 39.5644 72.9925 39.528 73.1201C39.7695 73.2523 40.0384 73.3503 40.3346 73.4141C40.6354 73.4733 40.9498 73.5029 41.278 73.5029H41.3327C41.4603 73.5029 41.5605 73.512 41.6334 73.5303C41.7064 73.5485 41.7588 73.5781 41.7907 73.6191C41.8271 73.6602 41.8476 73.7126 41.8522 73.7764C41.8613 73.8356 41.8659 73.9085 41.8659 73.9951V74.4736C41.8659 74.5921 41.859 74.6855 41.8454 74.7539C41.8317 74.8223 41.8043 74.8747 41.7633 74.9111C41.7223 74.9476 41.6676 74.9727 41.5993 74.9863C41.5309 74.9954 41.442 75 41.3327 75H41.2575C40.984 75 40.7334 74.9818 40.5055 74.9453C40.2776 74.9043 40.068 74.8473 39.8766 74.7744C39.6898 74.7015 39.5189 74.6172 39.3639 74.5215C39.2135 74.4258 39.0745 74.3187 38.9469 74.2002C38.7054 74.4645 38.4092 74.6764 38.0582 74.8359C37.7073 74.9954 37.2995 75.0752 36.8346 75.0752ZM37.983 72.3135C37.983 72.154 37.9534 71.9831 37.8942 71.8008C37.8349 71.6139 37.7461 71.4408 37.6276 71.2812C37.5091 71.1217 37.361 70.9896 37.1832 70.8848C37.0101 70.7754 36.8095 70.7207 36.5817 70.7207C36.3629 70.7207 36.1601 70.7891 35.9733 70.9258C35.791 71.0579 35.6269 71.2334 35.4811 71.4521C35.3398 71.6709 35.2145 71.9215 35.1051 72.2041C35.0003 72.4867 34.9183 72.776 34.859 73.0723C34.9183 73.1315 35.0094 73.193 35.1325 73.2568C35.2555 73.3206 35.3945 73.3799 35.5495 73.4346C35.7044 73.4847 35.8639 73.528 36.028 73.5645C36.1966 73.5964 36.3561 73.6123 36.5065 73.6123C36.7298 73.6123 36.9326 73.5895 37.1149 73.5439C37.2972 73.4938 37.4521 73.4186 37.5797 73.3184C37.7119 73.2135 37.8121 73.0791 37.8805 72.915C37.9489 72.751 37.983 72.5505 37.983 72.3135ZM41.348 75C41.2386 75 41.1497 74.9954 41.0814 74.9863C41.013 74.9727 40.9583 74.9476 40.9173 74.9111C40.8763 74.8747 40.8489 74.8223 40.8353 74.7539C40.8216 74.6855 40.8148 74.5921 40.8148 74.4736V73.9951C40.8148 73.9085 40.8193 73.8356 40.8284 73.7764C40.833 73.7126 40.8535 73.6602 40.89 73.6191C40.9219 73.5781 40.9743 73.5485 41.0472 73.5303C41.1155 73.512 41.2158 73.5029 41.348 73.5029H42.9749V65.1768H44.7523V75H41.348ZM46.5996 65.1836H48.377V75.0068H46.5996V65.1836ZM57.5062 70.3994C57.1143 70.4814 56.7611 70.5794 56.4466 70.6934C56.1322 70.8027 55.861 70.9303 55.6332 71.0762C55.4099 71.2174 55.2367 71.3792 55.1136 71.5615C54.9951 71.7393 54.9359 71.9375 54.9359 72.1562C54.9359 72.334 54.9701 72.4844 55.0384 72.6074C55.1114 72.7305 55.2025 72.8307 55.3119 72.9082C55.4258 72.9811 55.5534 73.0335 55.6947 73.0654C55.836 73.0973 55.9772 73.1133 56.1185 73.1133C56.3783 73.1133 56.6289 73.0768 56.8705 73.0039C57.112 72.931 57.3239 72.8353 57.5062 72.7168V70.3994ZM59.2699 72.6553C59.2699 72.8193 59.2767 72.9561 59.2904 73.0654C59.3086 73.1702 59.3405 73.2568 59.3861 73.3252C59.4362 73.389 59.5023 73.4346 59.5843 73.4619C59.6709 73.4893 59.7849 73.5029 59.9261 73.5029H60.4183C60.5459 73.5029 60.6462 73.512 60.7191 73.5303C60.792 73.5485 60.8444 73.5781 60.8763 73.6191C60.9128 73.6602 60.9333 73.7126 60.9379 73.7764C60.947 73.8356 60.9515 73.9085 60.9515 73.9951V74.4736C60.9515 74.5921 60.9447 74.6855 60.931 74.7539C60.9173 74.8223 60.89 74.8747 60.849 74.9111C60.808 74.9476 60.7533 74.9727 60.6849 74.9863C60.6166 74.9954 60.5277 75 60.4183 75H59.6185C59.3086 75 59.042 74.9772 58.8187 74.9316C58.5954 74.8815 58.404 74.8177 58.2445 74.7402C58.0895 74.6582 57.9619 74.5648 57.8617 74.46C57.7614 74.3506 57.6817 74.2344 57.6224 74.1113C57.3262 74.2663 57.0391 74.3757 56.7611 74.4395C56.4831 74.5033 56.1914 74.5352 55.8861 74.5352C55.5808 74.5352 55.2709 74.4941 54.9564 74.4121C54.642 74.3255 54.3571 74.1934 54.1019 74.0156C53.8467 73.8379 53.6371 73.61 53.473 73.332C53.3135 73.0495 53.2337 72.7122 53.2337 72.3203C53.2337 71.974 53.3021 71.6618 53.4388 71.3838C53.5755 71.1012 53.7578 70.8483 53.9857 70.625C54.2181 70.4017 54.4802 70.2035 54.7718 70.0303C55.0681 69.8571 55.3734 69.7067 55.6879 69.5791C56.0069 69.4469 56.3236 69.3353 56.638 69.2441C56.9525 69.153 57.2419 69.0755 57.5062 69.0117V68.2393H59.2699V72.6553ZM57.4105 66.4688C57.4105 66.3457 57.4333 66.2318 57.4789 66.127C57.5244 66.0221 57.586 65.931 57.6634 65.8535C57.7455 65.7715 57.8389 65.7077 57.9437 65.6621C58.0485 65.6165 58.1625 65.5938 58.2855 65.5938C58.4086 65.5938 58.5225 65.6165 58.6273 65.6621C58.7321 65.7077 58.8233 65.7715 58.9007 65.8535C58.9828 65.931 59.0466 66.0221 59.0921 66.127C59.1377 66.2318 59.1605 66.3457 59.1605 66.4688C59.1605 66.5918 59.1377 66.7057 59.0921 66.8105C59.0466 66.9154 58.9828 67.0088 58.9007 67.0908C58.8233 67.1683 58.7321 67.2298 58.6273 67.2754C58.5225 67.321 58.4086 67.3438 58.2855 67.3438C58.1625 67.3438 58.0485 67.321 57.9437 67.2754C57.8389 67.2298 57.7455 67.1683 57.6634 67.0908C57.586 67.0088 57.5244 66.9154 57.4789 66.8105C57.4333 66.7057 57.4105 66.5918 57.4105 66.4688ZM55.3597 66.4688C55.3597 66.3457 55.3825 66.2318 55.4281 66.127C55.4737 66.0221 55.5352 65.931 55.6127 65.8535C55.6947 65.7715 55.7881 65.7077 55.8929 65.6621C55.9977 65.6165 56.1117 65.5938 56.2347 65.5938C56.3578 65.5938 56.4717 65.6165 56.5765 65.6621C56.6813 65.7077 56.7725 65.7715 56.85 65.8535C56.932 65.931 56.9958 66.0221 57.0414 66.127C57.0869 66.2318 57.1097 66.3457 57.1097 66.4688C57.1097 66.5918 57.0869 66.7057 57.0414 66.8105C56.9958 66.9154 56.932 67.0088 56.85 67.0908C56.7725 67.1683 56.6813 67.2298 56.5765 67.2754C56.4717 67.321 56.3578 67.3438 56.2347 67.3438C56.1117 67.3438 55.9977 67.321 55.8929 67.2754C55.7881 67.2298 55.6947 67.1683 55.6127 67.0908C55.5352 67.0088 55.4737 66.9154 55.4281 66.8105C55.3825 66.7057 55.3597 66.5918 55.3597 66.4688ZM60.4405 75C60.3311 75 60.2422 74.9954 60.1739 74.9863C60.1055 74.9727 60.0508 74.9476 60.0098 74.9111C59.9688 74.8747 59.9414 74.8223 59.9278 74.7539C59.9141 74.6855 59.9073 74.5921 59.9073 74.4736V73.9951C59.9073 73.9085 59.9118 73.8356 59.9209 73.7764C59.9255 73.7126 59.946 73.6602 59.9825 73.6191C60.0144 73.5781 60.0668 73.5485 60.1397 73.5303C60.208 73.512 60.3083 73.5029 60.4405 73.5029H61.8965C61.9694 73.3161 62.0537 73.1178 62.1495 72.9082C62.2497 72.6986 62.3614 72.4821 62.4844 72.2588V65.1836H64.2618V70.0234C64.6537 69.6862 65.0843 69.4128 65.5537 69.2031C66.0277 68.9935 66.545 68.8887 67.1055 68.8887C67.6296 68.8887 68.083 68.9798 68.4659 69.1621C68.8532 69.3444 69.1722 69.5951 69.4229 69.9141C69.6781 70.2331 69.8672 70.609 69.9903 71.042C70.1133 71.4749 70.1748 71.9421 70.1748 72.4434V73.5029H71.337C71.4646 73.5029 71.5648 73.512 71.6377 73.5303C71.7107 73.5485 71.7631 73.5781 71.795 73.6191C71.8314 73.6602 71.8519 73.7126 71.8565 73.7764C71.8656 73.8356 71.8702 73.9085 71.8702 73.9951V74.4736C71.8702 74.5921 71.8633 74.6855 71.8496 74.7539C71.836 74.8223 71.8086 74.8747 71.7676 74.9111C71.7266 74.9476 71.6719 74.9727 71.6036 74.9863C71.5352 74.9954 71.4463 75 71.337 75H60.4405ZM68.418 72.5869C68.418 72.1631 68.3747 71.8076 68.2881 71.5205C68.2015 71.2334 68.0853 71.0055 67.9395 70.8369C67.7937 70.6637 67.6205 70.5407 67.42 70.4678C67.2194 70.3949 67.0075 70.3584 66.7842 70.3584C66.4789 70.3584 66.169 70.4427 65.8545 70.6113C65.5446 70.7799 65.2484 71.0078 64.9659 71.2949C64.6879 71.582 64.4327 71.917 64.2002 72.2998C63.9678 72.6781 63.7764 73.0791 63.626 73.5029H68.418V72.5869ZM80.8884 73.5029C81.0388 73.5029 81.1664 73.487 81.2712 73.4551C81.3806 73.4232 81.4672 73.3708 81.531 73.2979C81.5993 73.2204 81.6495 73.1178 81.6814 72.9902C81.7133 72.8626 81.7292 72.7031 81.7292 72.5117V69.4014H83.5134V72.751C83.5134 72.833 83.5088 72.915 83.4997 72.9971C83.4952 73.0745 83.4883 73.152 83.4792 73.2295C83.7025 73.3206 83.9418 73.389 84.197 73.4346C84.4568 73.4801 84.7256 73.5029 85.0036 73.5029H85.0583C85.1859 73.5029 85.2862 73.512 85.3591 73.5303C85.432 73.5485 85.4844 73.5781 85.5163 73.6191C85.5528 73.6602 85.5733 73.7126 85.5779 73.7764C85.587 73.8356 85.5915 73.9085 85.5915 73.9951V74.4736C85.5915 74.5921 85.5847 74.6855 85.571 74.7539C85.5573 74.8223 85.53 74.8747 85.489 74.9111C85.448 74.9476 85.3933 74.9727 85.3249 74.9863C85.2566 74.9954 85.1677 75 85.0583 75H84.9831C84.5274 75 84.1377 74.9499 83.8142 74.8496C83.4952 74.7448 83.2126 74.6081 82.9665 74.4395C82.807 74.6126 82.6065 74.7493 82.365 74.8496C82.128 74.9499 81.8386 75 81.4968 75H81.196C80.7448 75 80.337 74.9362 79.9724 74.8086C79.6124 74.681 79.2979 74.5146 79.029 74.3096C78.8695 74.5192 78.6622 74.6878 78.407 74.8154C78.1563 74.9385 77.8373 75 77.4499 75H77.1491C76.6934 75 76.281 74.9362 75.9118 74.8086C75.5473 74.6764 75.2305 74.5055 74.9616 74.2959C74.8021 74.5101 74.5948 74.681 74.3396 74.8086C74.0844 74.9362 73.7631 75 73.3757 75H71.3523C71.2429 75 71.154 74.9954 71.0857 74.9863C71.0173 74.9727 70.9626 74.9476 70.9216 74.9111C70.8806 74.8747 70.8532 74.8223 70.8396 74.7539C70.8259 74.6855 70.8191 74.5921 70.8191 74.4736V73.9951C70.8191 73.9085 70.8236 73.8356 70.8327 73.7764C70.8373 73.7126 70.8578 73.6602 70.8943 73.6191C70.9262 73.5781 70.9786 73.5485 71.0515 73.5303C71.1198 73.512 71.2201 73.5029 71.3523 73.5029H72.7673C72.9177 73.5029 73.0453 73.487 73.1501 73.4551C73.2595 73.4232 73.3461 73.3708 73.4099 73.2979C73.4782 73.2204 73.5284 73.1178 73.5603 72.9902C73.5922 72.8626 73.6081 72.7031 73.6081 72.5117V70.7549H75.3923V72.751C75.3923 72.8057 75.3923 72.8604 75.3923 72.915C75.3923 72.9652 75.3877 73.0176 75.3786 73.0723C75.6293 73.2135 75.8777 73.3206 76.1237 73.3936C76.3698 73.4665 76.6091 73.5029 76.8415 73.5029C76.9919 73.5029 77.1195 73.487 77.2243 73.4551C77.3337 73.4232 77.4203 73.3708 77.4841 73.2979C77.5525 73.2204 77.6026 73.1178 77.6345 72.9902C77.6664 72.8626 77.6823 72.7031 77.6823 72.5117V70.1396H79.4665V72.751C79.4665 72.8057 79.4642 72.8626 79.4597 72.9219C79.4597 72.9766 79.4574 73.0312 79.4529 73.0859C79.6989 73.2227 79.9428 73.3275 80.1843 73.4004C80.4258 73.4688 80.6605 73.5029 80.8884 73.5029ZM78.612 66.8242C78.612 66.7012 78.6348 66.5872 78.6804 66.4824C78.726 66.3776 78.7875 66.2865 78.865 66.209C78.947 66.127 79.0404 66.0632 79.1452 66.0176C79.2501 65.972 79.364 65.9492 79.487 65.9492C79.6101 65.9492 79.724 65.972 79.8288 66.0176C79.9336 66.0632 80.0248 66.127 80.1023 66.209C80.1843 66.2865 80.2481 66.3776 80.2937 66.4824C80.3392 66.5872 80.362 66.7012 80.362 66.8242C80.362 66.9473 80.3392 67.0612 80.2937 67.166C80.2481 67.2708 80.1843 67.3643 80.1023 67.4463C80.0248 67.5238 79.9336 67.5853 79.8288 67.6309C79.724 67.6764 79.6101 67.6992 79.487 67.6992C79.364 67.6992 79.2501 67.6764 79.1452 67.6309C79.0404 67.5853 78.947 67.5238 78.865 67.4463C78.7875 67.3643 78.726 67.2708 78.6804 67.166C78.6348 67.0612 78.612 66.9473 78.612 66.8242ZM76.5612 66.8242C76.5612 66.7012 76.584 66.5872 76.6296 66.4824C76.6752 66.3776 76.7367 66.2865 76.8142 66.209C76.8962 66.127 76.9896 66.0632 77.0945 66.0176C77.1993 65.972 77.3132 65.9492 77.4362 65.9492C77.5593 65.9492 77.6732 65.972 77.778 66.0176C77.8829 66.0632 77.974 66.127 78.0515 66.209C78.1335 66.2865 78.1973 66.3776 78.2429 66.4824C78.2885 66.5872 78.3112 66.7012 78.3112 66.8242C78.3112 66.9473 78.2885 67.0612 78.2429 67.166C78.1973 67.2708 78.1335 67.3643 78.0515 67.4463C77.974 67.5238 77.8829 67.5853 77.778 67.6309C77.6732 67.6764 77.5593 67.6992 77.4362 67.6992C77.3132 67.6992 77.1993 67.6764 77.0945 67.6309C76.9896 67.5853 76.8962 67.5238 76.8142 67.4463C76.7367 67.3643 76.6752 67.2708 76.6296 67.166C76.584 67.0612 76.5612 66.9473 76.5612 66.8242ZM77.5935 64.9785C77.5935 64.8555 77.6163 64.7415 77.6618 64.6367C77.7074 64.5319 77.7689 64.4408 77.8464 64.3633C77.9284 64.2812 78.0219 64.2174 78.1267 64.1719C78.2315 64.1263 78.3454 64.1035 78.4685 64.1035C78.5915 64.1035 78.7055 64.1263 78.8103 64.1719C78.9151 64.2174 79.0062 64.2812 79.0837 64.3633C79.1657 64.4408 79.2295 64.5319 79.2751 64.6367C79.3207 64.7415 79.3435 64.8555 79.3435 64.9785C79.3435 65.1016 79.3207 65.2155 79.2751 65.3203C79.2295 65.4251 79.1657 65.5186 79.0837 65.6006C79.0062 65.6781 78.9151 65.7396 78.8103 65.7852C78.7055 65.8307 78.5915 65.8535 78.4685 65.8535C78.3454 65.8535 78.2315 65.8307 78.1267 65.7852C78.0219 65.7396 77.9284 65.6781 77.8464 65.6006C77.7689 65.5186 77.7074 65.4251 77.6618 65.3203C77.6163 65.2155 77.5935 65.1016 77.5935 64.9785ZM86.8168 66.8242C86.8168 66.7012 86.8396 66.5872 86.8851 66.4824C86.9307 66.3776 86.9922 66.2865 87.0697 66.209C87.1517 66.127 87.2452 66.0632 87.35 66.0176C87.4548 65.972 87.5687 65.9492 87.6918 65.9492C87.8148 65.9492 87.9288 65.972 88.0336 66.0176C88.1384 66.0632 88.2295 66.127 88.307 66.209C88.3891 66.2865 88.4529 66.3776 88.4984 66.4824C88.544 66.5872 88.5668 66.7012 88.5668 66.8242C88.5668 66.9473 88.544 67.0612 88.4984 67.166C88.4529 67.2708 88.3891 67.3643 88.307 67.4463C88.2295 67.5238 88.1384 67.5853 88.0336 67.6309C87.9288 67.6764 87.8148 67.6992 87.6918 67.6992C87.5687 67.6992 87.4548 67.6764 87.35 67.6309C87.2452 67.5853 87.1517 67.5238 87.0697 67.4463C86.9922 67.3643 86.9307 67.2708 86.8851 67.166C86.8396 67.0612 86.8168 66.9473 86.8168 66.8242ZM85.0805 75C84.9711 75 84.8822 74.9954 84.8139 74.9863C84.7455 74.9727 84.6908 74.9476 84.6498 74.9111C84.6088 74.8747 84.5814 74.8223 84.5678 74.7539C84.5541 74.6855 84.5473 74.5921 84.5473 74.4736V73.9951C84.5473 73.9085 84.5518 73.8356 84.5609 73.7764C84.5655 73.7126 84.586 73.6602 84.6225 73.6191C84.6544 73.5781 84.7068 73.5485 84.7797 73.5303C84.848 73.512 84.9483 73.5029 85.0805 73.5029H86.8305V69.3945H88.6146V75H85.0805ZM99.2393 65.1768V75H90.8175V73.5029H93.88V67.4873H95.6641V73.5029H97.462V65.1768H99.2393ZM101.094 65.1836H102.871V75.0068H101.094V65.1836Z" fill="#0F1621"/>
<path d="M271.5 0.5H289.5C297.508 0.5 304 6.99187 304 15V33C304 41.0081 297.508 47.5 289.5 47.5H271.5C263.492 47.5 257 41.0081 257 33V15C257 6.99187 263.492 0.5 271.5 0.5Z" fill="#59A0F2"/>
<path d="M271.5 0.5H289.5C297.508 0.5 304 6.99187 304 15V33C304 41.0081 297.508 47.5 289.5 47.5H271.5C263.492 47.5 257 41.0081 257 33V15C257 6.99187 263.492 0.5 271.5 0.5Z" stroke="#59A0F2"/>
<path d="M277.25 30.2292C277.249 30.2292 277.248 30.2292 277.247 30.2292C277.03 30.2281 276.823 30.1414 276.671 29.9865L272.337 25.586C272.022 25.2664 272.026 24.7519 272.346 24.4366C272.666 24.1224 273.181 24.1257 273.495 24.4453L277.253 28.2629L287.508 18.0081C287.826 17.6907 288.34 17.6907 288.658 18.0081C288.975 18.3255 288.975 18.8401 288.658 19.1575L277.824 29.9909C277.673 30.1436 277.466 30.2292 277.25 30.2292Z" fill="white"/>
<path opacity="0.4" d="M256.012 75.0547C256.012 74.8815 255.955 74.722 255.841 74.5762C255.732 74.4258 255.595 74.2799 255.431 74.1387C255.267 73.9974 255.087 73.8516 254.891 73.7012C254.695 73.5508 254.515 73.3867 254.351 73.209C254.187 73.0312 254.048 72.8376 253.934 72.6279C253.825 72.4137 253.77 72.1699 253.77 71.8965C253.77 71.5 253.852 71.165 254.016 70.8916C254.185 70.6136 254.397 70.388 254.652 70.2148C254.912 70.0417 255.197 69.9163 255.506 69.8389C255.816 69.7614 256.117 69.7227 256.409 69.7227C256.618 69.7227 256.814 69.7363 256.997 69.7637C257.184 69.791 257.348 69.8229 257.489 69.8594C257.653 69.9004 257.806 69.9437 257.947 69.9893L257.632 71.2061C257.514 71.1559 257.386 71.1081 257.25 71.0625C257.131 71.026 256.994 70.9941 256.839 70.9668C256.689 70.9349 256.534 70.9189 256.375 70.9189C256.233 70.9189 256.081 70.9349 255.917 70.9668C255.757 70.9941 255.609 71.0443 255.472 71.1172C255.336 71.1855 255.222 71.279 255.13 71.3975C255.039 71.516 254.994 71.6618 254.994 71.835C254.994 71.9945 255.048 72.1471 255.158 72.293C255.272 72.4342 255.413 72.5778 255.582 72.7236C255.75 72.8649 255.933 73.0107 256.129 73.1611C256.324 73.307 256.507 73.4642 256.675 73.6328C256.844 73.7969 256.983 73.9746 257.092 74.166C257.206 74.3574 257.263 74.5671 257.263 74.7949C257.263 75.0365 257.22 75.2826 257.133 75.5332C257.047 75.7839 256.919 76.0254 256.751 76.2578C256.587 76.4948 256.384 76.7181 256.142 76.9277C255.905 77.1374 255.632 77.3197 255.322 77.4746C255.012 77.6296 254.668 77.7503 254.29 77.8369C253.916 77.9281 253.513 77.9736 253.08 77.9736C252.501 77.9736 251.984 77.9189 251.528 77.8096C251.077 77.7002 250.68 77.5521 250.338 77.3652C250.001 77.1784 249.714 76.9619 249.477 76.7158C249.245 76.4743 249.056 76.2191 248.91 75.9502C248.764 75.6813 248.659 75.4102 248.595 75.1367C248.532 74.8633 248.5 74.6012 248.5 74.3506C248.5 73.8447 248.573 73.3708 248.718 72.9287C248.869 72.4821 249.06 72.097 249.293 71.7734L250.332 72.3545C250.127 72.6143 249.974 72.9128 249.874 73.25C249.773 73.5827 249.723 73.9154 249.723 74.248C249.723 74.5898 249.787 74.9089 249.915 75.2051C250.047 75.5059 250.25 75.7679 250.523 75.9912C250.796 76.2145 251.143 76.39 251.562 76.5176C251.986 76.6452 252.487 76.709 253.066 76.709C253.467 76.709 253.845 76.6657 254.201 76.5791C254.556 76.4925 254.868 76.374 255.137 76.2236C255.406 76.0732 255.618 75.8978 255.773 75.6973C255.933 75.4967 256.012 75.2826 256.012 75.0547ZM258.571 76.6816C259.058 76.6178 259.446 76.5199 259.733 76.3877C260.024 76.2601 260.245 76.0938 260.396 75.8887C260.546 75.6882 260.644 75.4512 260.69 75.1777C260.735 74.9043 260.758 74.5944 260.758 74.248V69.7158H261.989V73.7695H263.595C263.759 73.7695 263.882 73.7969 263.964 73.8516C264.046 73.9062 264.087 73.9997 264.087 74.1318V74.6035C264.087 74.6901 264.074 74.7607 264.046 74.8154C264.023 74.8656 263.989 74.9043 263.944 74.9316C263.898 74.959 263.846 74.9772 263.786 74.9863C263.727 74.9954 263.663 75 263.595 75H261.92C261.852 75.4785 261.736 75.8818 261.572 76.21C261.412 76.5426 261.198 76.8206 260.929 77.0439C260.665 77.2673 260.346 77.4404 259.972 77.5635C259.603 77.6911 259.177 77.7891 258.694 77.8574L258.571 76.6816ZM264.943 69.6406C265.212 69.5632 265.483 69.4948 265.757 69.4355C266.035 69.3717 266.347 69.3398 266.693 69.3398C267.044 69.3398 267.354 69.3945 267.623 69.5039C267.896 69.6133 268.129 69.766 268.32 69.9619C268.516 70.1579 268.673 70.3926 268.792 70.666C268.915 70.9349 269.002 71.2288 269.052 71.5479C269.097 71.8395 269.143 72.1198 269.188 72.3887C269.234 72.6576 269.291 72.8945 269.359 73.0996C269.432 73.3047 269.521 73.4688 269.626 73.5918C269.735 73.7103 269.874 73.7695 270.043 73.7695V75H263.665C263.501 75 263.378 74.9727 263.296 74.918C263.214 74.8633 263.173 74.7699 263.173 74.6377V74.166C263.173 74.0794 263.186 74.0111 263.214 73.9609C263.237 73.9062 263.271 73.8652 263.316 73.8379C263.362 73.8105 263.414 73.7923 263.474 73.7832C263.533 73.7741 263.597 73.7695 263.665 73.7695H268.525C268.43 73.6738 268.35 73.5439 268.286 73.3799C268.227 73.2158 268.177 72.9902 268.136 72.7031C268.099 72.4342 268.051 72.1676 267.992 71.9033C267.937 71.639 267.846 71.402 267.719 71.1924C267.596 70.9782 267.425 70.8073 267.206 70.6797C266.992 70.5475 266.707 70.4814 266.352 70.4814C266.251 70.4814 266.137 70.4906 266.01 70.5088C265.882 70.5225 265.752 70.543 265.62 70.5703C265.488 70.5931 265.363 70.6204 265.244 70.6523C265.126 70.6842 265.025 70.7184 264.943 70.7549V69.6406ZM265.811 67.2617C265.811 67.1615 265.83 67.068 265.866 66.9814C265.907 66.8903 265.96 66.8128 266.023 66.749C266.087 66.6807 266.162 66.6283 266.249 66.5918C266.34 66.5508 266.436 66.5303 266.536 66.5303C266.636 66.5303 266.73 66.5508 266.816 66.5918C266.908 66.6283 266.985 66.6807 267.049 66.749C267.117 66.8128 267.17 66.8903 267.206 66.9814C267.247 67.068 267.268 67.1615 267.268 67.2617C267.268 67.362 267.247 67.4577 267.206 67.5488C267.17 67.6354 267.117 67.7106 267.049 67.7744C266.985 67.8382 266.908 67.8906 266.816 67.9316C266.73 67.9681 266.636 67.9863 266.536 67.9863C266.331 67.9863 266.158 67.918 266.017 67.7812C265.88 67.64 265.811 67.4668 265.811 67.2617ZM272.034 65.1836H273.264V75.0068H272.034V65.1836ZM282.236 75C281.689 75 281.218 74.9704 280.821 74.9111C280.425 74.8519 280.09 74.7676 279.816 74.6582C279.543 74.5488 279.322 74.4189 279.153 74.2686C278.985 74.1136 278.855 73.945 278.764 73.7627C278.673 73.5804 278.611 73.3844 278.579 73.1748C278.547 72.9652 278.531 72.7464 278.531 72.5186C278.531 72.432 278.534 72.3317 278.538 72.2178C278.547 72.1038 278.559 71.9876 278.572 71.8691C278.586 71.7461 278.6 71.6253 278.613 71.5068C278.632 71.3838 278.65 71.2721 278.668 71.1719L279.83 71.2812C279.807 71.4408 279.785 71.6003 279.762 71.7598C279.739 71.9193 279.728 72.0788 279.728 72.2383C279.728 72.5117 279.762 72.7464 279.83 72.9424C279.898 73.1338 280.044 73.291 280.268 73.4141C280.495 73.5371 280.826 73.6283 281.259 73.6875C281.692 73.7422 282.273 73.7695 283.002 73.7695H288.525V69.7158H289.756V75H282.236ZM282.824 67.2617C282.824 67.1615 282.842 67.068 282.879 66.9814C282.92 66.8903 282.972 66.8128 283.036 66.749C283.1 66.6807 283.175 66.6283 283.262 66.5918C283.353 66.5508 283.449 66.5303 283.549 66.5303C283.649 66.5303 283.743 66.5508 283.829 66.5918C283.92 66.6283 283.998 66.6807 284.062 66.749C284.13 66.8128 284.182 66.8903 284.219 66.9814C284.26 67.068 284.28 67.1615 284.28 67.2617C284.28 67.362 284.26 67.4577 284.219 67.5488C284.182 67.6354 284.13 67.7106 284.062 67.7744C283.998 67.8382 283.92 67.8906 283.829 67.9316C283.743 67.9681 283.649 67.9863 283.549 67.9863C283.344 67.9863 283.171 67.918 283.029 67.7812C282.893 67.64 282.824 67.4668 282.824 67.2617ZM284.772 67.2617C284.772 67.1615 284.791 67.068 284.827 66.9814C284.868 66.8903 284.921 66.8128 284.984 66.749C285.048 66.6807 285.123 66.6283 285.21 66.5918C285.301 66.5508 285.397 66.5303 285.497 66.5303C285.597 66.5303 285.691 66.5508 285.777 66.5918C285.868 66.6283 285.946 66.6807 286.01 66.749C286.078 66.8128 286.131 66.8903 286.167 66.9814C286.208 67.068 286.229 67.1615 286.229 67.2617C286.229 67.362 286.208 67.4577 286.167 67.5488C286.131 67.6354 286.078 67.7106 286.01 67.7744C285.946 67.8382 285.868 67.8906 285.777 67.9316C285.691 67.9681 285.597 67.9863 285.497 67.9863C285.292 67.9863 285.119 67.918 284.978 67.7812C284.841 67.64 284.772 67.4668 284.772 67.2617ZM292.013 65.1836H293.244V72.5186C293.244 72.7646 293.253 72.9697 293.271 73.1338C293.294 73.2933 293.33 73.4209 293.381 73.5166C293.435 73.6077 293.506 73.6738 293.592 73.7148C293.684 73.7513 293.8 73.7695 293.941 73.7695H294.399C294.563 73.7695 294.686 73.7969 294.768 73.8516C294.85 73.9062 294.891 73.9997 294.891 74.1318V74.6035C294.891 74.6901 294.878 74.7607 294.85 74.8154C294.827 74.8656 294.793 74.9043 294.748 74.9316C294.702 74.959 294.65 74.9772 294.591 74.9863C294.531 74.9954 294.467 75 294.399 75H293.757C293.456 75 293.196 74.9499 292.977 74.8496C292.758 74.7493 292.576 74.6104 292.43 74.4326C292.289 74.2549 292.184 74.0452 292.116 73.8037C292.048 73.5622 292.013 73.3001 292.013 73.0176V65.1836ZM296.67 67.2617C296.67 67.1615 296.689 67.068 296.725 66.9814C296.766 66.8903 296.818 66.8128 296.882 66.749C296.946 66.6807 297.021 66.6283 297.108 66.5918C297.199 66.5508 297.295 66.5303 297.395 66.5303C297.495 66.5303 297.589 66.5508 297.675 66.5918C297.766 66.6283 297.844 66.6807 297.908 66.749C297.976 66.8128 298.028 66.8903 298.065 66.9814C298.106 67.068 298.126 67.1615 298.126 67.2617C298.126 67.362 298.106 67.4577 298.065 67.5488C298.028 67.6354 297.976 67.7106 297.908 67.7744C297.844 67.8382 297.766 67.8906 297.675 67.9316C297.589 67.9681 297.495 67.9863 297.395 67.9863C297.19 67.9863 297.017 67.918 296.875 67.7812C296.739 67.64 296.67 67.4668 296.67 67.2617ZM294.476 75C294.312 75 294.189 74.9727 294.107 74.918C294.025 74.8633 293.984 74.7699 293.984 74.6377V74.166C293.984 74.0794 293.997 74.0111 294.025 73.9609C294.048 73.9062 294.082 73.8652 294.127 73.8379C294.173 73.8105 294.225 73.7923 294.285 73.7832C294.344 73.7741 294.408 73.7695 294.476 73.7695H296.725V69.7158H297.962V75H294.476ZM300.384 65.1836H301.614V72.5186C301.614 72.7646 301.623 72.9697 301.642 73.1338C301.664 73.2933 301.701 73.4209 301.751 73.5166C301.806 73.6077 301.876 73.6738 301.963 73.7148C302.054 73.7513 302.17 73.7695 302.312 73.7695H302.77C302.934 73.7695 303.057 73.7969 303.139 73.8516C303.221 73.9062 303.262 73.9997 303.262 74.1318V74.6035C303.262 74.6901 303.248 74.7607 303.221 74.8154C303.198 74.8656 303.164 74.9043 303.118 74.9316C303.073 74.959 303.02 74.9772 302.961 74.9863C302.902 74.9954 302.838 75 302.77 75H302.127C301.826 75 301.566 74.9499 301.348 74.8496C301.129 74.7493 300.947 74.6104 300.801 74.4326C300.66 74.2549 300.555 74.0452 300.486 73.8037C300.418 73.5622 300.384 73.3001 300.384 73.0176V65.1836ZM305.936 73.3457C306.141 73.487 306.383 73.5941 306.661 73.667C306.943 73.7354 307.278 73.7695 307.666 73.7695H307.72C307.884 73.7695 308.008 73.7969 308.09 73.8516C308.172 73.9062 308.213 73.9997 308.213 74.1318V74.6035C308.213 74.6901 308.199 74.7607 308.172 74.8154C308.149 74.8656 308.115 74.9043 308.069 74.9316C308.023 74.959 307.971 74.9772 307.912 74.9863C307.853 74.9954 307.789 75 307.72 75H307.652C307.178 75 306.784 74.9385 306.469 74.8154C306.155 74.6924 305.886 74.5374 305.663 74.3506C305.549 74.5329 305.396 74.6878 305.205 74.8154C305.013 74.9385 304.772 75 304.48 75H302.846C302.682 75 302.559 74.9727 302.477 74.918C302.395 74.8633 302.354 74.7699 302.354 74.6377V74.166C302.354 74.0794 302.368 74.0111 302.395 73.9609C302.418 73.9062 302.452 73.8652 302.498 73.8379C302.543 73.8105 302.596 73.7923 302.655 73.7832C302.714 73.7741 302.778 73.7695 302.846 73.7695H304.227C304.373 73.7695 304.487 73.7057 304.569 73.5781C304.656 73.4505 304.699 73.2568 304.699 72.9971V69.7227H305.936V73.3457ZM303.537 77.0508C303.537 76.9505 303.555 76.8548 303.592 76.7637C303.633 76.6771 303.685 76.5996 303.749 76.5312C303.813 76.4674 303.888 76.415 303.974 76.374C304.065 76.3376 304.161 76.3193 304.261 76.3193C304.362 76.3193 304.455 76.3376 304.542 76.374C304.633 76.415 304.71 76.4674 304.774 76.5312C304.843 76.5996 304.895 76.6771 304.931 76.7637C304.972 76.8548 304.993 76.9505 304.993 77.0508C304.993 77.151 304.972 77.2445 304.931 77.3311C304.895 77.4222 304.843 77.4997 304.774 77.5635C304.71 77.6273 304.633 77.6774 304.542 77.7139C304.455 77.7549 304.362 77.7754 304.261 77.7754C304.056 77.7754 303.883 77.7048 303.742 77.5635C303.605 77.4268 303.537 77.2559 303.537 77.0508ZM305.485 77.0508C305.485 76.9505 305.503 76.8548 305.54 76.7637C305.581 76.6771 305.633 76.5996 305.697 76.5312C305.761 76.4674 305.836 76.415 305.923 76.374C306.014 76.3376 306.109 76.3193 306.21 76.3193C306.31 76.3193 306.403 76.3376 306.49 76.374C306.581 76.415 306.659 76.4674 306.722 76.5312C306.791 76.5996 306.843 76.6771 306.88 76.7637C306.921 76.8548 306.941 76.9505 306.941 77.0508C306.941 77.151 306.921 77.2445 306.88 77.3311C306.843 77.4222 306.791 77.4997 306.722 77.5635C306.659 77.6273 306.581 77.6774 306.49 77.7139C306.403 77.7549 306.31 77.7754 306.21 77.7754C306.005 77.7754 305.831 77.7048 305.69 77.5635C305.553 77.4268 305.485 77.2559 305.485 77.0508ZM307.797 75C307.633 75 307.51 74.9727 307.428 74.918C307.346 74.8633 307.305 74.7699 307.305 74.6377V74.166C307.305 74.0794 307.319 74.0111 307.346 73.9609C307.369 73.9062 307.403 73.8652 307.449 73.8379C307.494 73.8105 307.547 73.7923 307.606 73.7832C307.665 73.7741 307.729 73.7695 307.797 73.7695H310.046V69.7158H311.284V75H307.797ZM309.944 77.0508C309.944 76.9505 309.962 76.8548 309.998 76.7637C310.039 76.6771 310.092 76.5996 310.156 76.5312C310.219 76.4674 310.295 76.415 310.381 76.374C310.472 76.3376 310.568 76.3193 310.668 76.3193C310.769 76.3193 310.862 76.3376 310.949 76.374C311.04 76.415 311.117 76.4674 311.181 76.5312C311.249 76.5996 311.302 76.6771 311.338 76.7637C311.379 76.8548 311.4 76.9505 311.4 77.0508C311.4 77.151 311.379 77.2445 311.338 77.3311C311.302 77.4222 311.249 77.4997 311.181 77.5635C311.117 77.6273 311.04 77.6774 310.949 77.7139C310.862 77.7549 310.769 77.7754 310.668 77.7754C310.463 77.7754 310.29 77.7048 310.149 77.5635C310.012 77.4268 309.944 77.2559 309.944 77.0508Z" fill="#0F1621"/>
<path d="M494.5 0.5H512.5C520.508 0.5 527 6.99187 527 15V33C527 41.0081 520.508 47.5 512.5 47.5H494.5C486.492 47.5 480 41.0081 480 33V15C480 6.99187 486.492 0.5 494.5 0.5Z" fill="#59A0F2"/>
<path d="M494.5 0.5H512.5C520.508 0.5 527 6.99187 527 15V33C527 41.0081 520.508 47.5 512.5 47.5H494.5C486.492 47.5 480 41.0081 480 33V15C480 6.99187 486.492 0.5 494.5 0.5Z" stroke="#59A0F2"/>
<path d="M500.25 30.2292C500.249 30.2292 500.248 30.2292 500.247 30.2292C500.03 30.2281 499.823 30.1414 499.671 29.9865L495.337 25.586C495.022 25.2664 495.026 24.7519 495.346 24.4366C495.666 24.1224 496.181 24.1257 496.495 24.4453L500.253 28.2629L510.508 18.0081C510.826 17.6907 511.34 17.6907 511.658 18.0081C511.975 18.3255 511.975 18.8401 511.658 19.1575L500.824 29.9909C500.673 30.1436 500.466 30.2292 500.25 30.2292Z" fill="white"/>
<path opacity="0.4" d="M464.231 65.1768H465.454V73.7764C465.454 74.3779 465.363 74.9316 465.181 75.4375C465.003 75.9479 464.739 76.3877 464.388 76.7568C464.037 77.126 463.602 77.4131 463.082 77.6182C462.567 77.8278 461.972 77.9326 461.298 77.9326C460.651 77.9326 460.088 77.8324 459.609 77.6318C459.135 77.4359 458.741 77.1715 458.427 76.8389C458.112 76.5062 457.878 76.1211 457.723 75.6836C457.568 75.2507 457.49 74.7949 457.49 74.3164C457.49 74.0885 457.509 73.8561 457.545 73.6191C457.586 73.3776 457.638 73.1429 457.702 72.915C457.766 72.6826 457.841 72.4639 457.928 72.2588C458.019 72.0537 458.117 71.8691 458.222 71.7051L459.261 72.2861C459.188 72.4046 459.122 72.5391 459.063 72.6895C459.003 72.8353 458.953 72.9902 458.912 73.1543C458.871 73.3184 458.839 73.487 458.816 73.6602C458.794 73.8288 458.782 73.9951 458.782 74.1592C458.782 74.5146 458.839 74.8473 458.953 75.1572C459.067 75.4717 459.233 75.7428 459.452 75.9707C459.676 76.2031 459.949 76.3854 460.273 76.5176C460.601 76.6543 460.974 76.7227 461.394 76.7227C461.845 76.7227 462.246 76.6543 462.597 76.5176C462.948 76.3854 463.244 76.1917 463.485 75.9365C463.727 75.6859 463.912 75.3783 464.039 75.0137C464.167 74.6491 464.231 74.2367 464.231 73.7764V65.1768ZM467.855 65.1836H469.086V75.0068H467.855V65.1836ZM474.413 75C473.852 75 473.378 74.9202 472.991 74.7607C472.608 74.6012 472.298 74.3962 472.061 74.1455C471.824 73.8903 471.653 73.6032 471.548 73.2842C471.443 72.9652 471.391 72.6484 471.391 72.334C471.391 71.9375 471.459 71.5661 471.596 71.2197C471.733 70.8734 471.929 70.5726 472.184 70.3174C472.439 70.0576 472.745 69.8548 473.1 69.709C473.46 69.5632 473.863 69.4902 474.31 69.4902C474.488 69.4902 474.675 69.5085 474.871 69.5449C475.067 69.5768 475.258 69.6383 475.445 69.7295C475.636 69.8161 475.816 69.9346 475.985 70.085C476.153 70.2354 476.302 70.4268 476.429 70.6592C476.557 70.887 476.657 71.1628 476.73 71.4863C476.807 71.8053 476.846 72.1768 476.846 72.6006V73.7695H478.323C478.487 73.7695 478.61 73.7969 478.692 73.8516C478.774 73.9062 478.815 73.9997 478.815 74.1318V74.6035C478.815 74.6901 478.801 74.7607 478.774 74.8154C478.751 74.8656 478.717 74.9043 478.671 74.9316C478.626 74.959 478.573 74.9772 478.514 74.9863C478.455 74.9954 478.391 75 478.323 75H476.757C476.639 75.4967 476.447 75.9183 476.183 76.2646C475.919 76.611 475.595 76.8958 475.212 77.1191C474.834 77.347 474.401 77.5225 473.914 77.6455C473.43 77.7731 472.913 77.8643 472.362 77.9189L472.232 76.7363C473.162 76.6725 473.907 76.4902 474.467 76.1895C475.032 75.8932 475.388 75.4967 475.534 75H474.413ZM475.622 73.7695V72.9971C475.622 72.5094 475.577 72.113 475.486 71.8076C475.399 71.4977 475.283 71.2585 475.137 71.0898C474.996 70.9167 474.832 70.8005 474.645 70.7412C474.463 70.6774 474.278 70.6455 474.091 70.6455C473.882 70.6455 473.686 70.6842 473.503 70.7617C473.321 70.8392 473.162 70.9486 473.025 71.0898C472.893 71.2311 472.788 71.402 472.71 71.6025C472.633 71.7985 472.594 72.015 472.594 72.252C472.594 72.457 472.626 72.653 472.69 72.8398C472.758 73.0221 472.865 73.1816 473.011 73.3184C473.157 73.4551 473.344 73.5645 473.572 73.6465C473.8 73.7285 474.078 73.7695 474.406 73.7695H475.622ZM479.678 69.6406C479.947 69.5632 480.218 69.4948 480.491 69.4355C480.769 69.3717 481.081 69.3398 481.428 69.3398C481.779 69.3398 482.089 69.3945 482.358 69.5039C482.631 69.6133 482.863 69.766 483.055 69.9619C483.251 70.1579 483.408 70.3926 483.526 70.666C483.65 70.9349 483.736 71.2288 483.786 71.5479C483.832 71.8395 483.877 72.1198 483.923 72.3887C483.969 72.6576 484.026 72.8945 484.094 73.0996C484.167 73.3047 484.256 73.4688 484.36 73.5918C484.47 73.7103 484.609 73.7695 484.777 73.7695H485.413C485.577 73.7695 485.7 73.7969 485.782 73.8516C485.864 73.9062 485.905 73.9997 485.905 74.1318V74.6035C485.905 74.6901 485.892 74.7607 485.864 74.8154C485.842 74.8656 485.807 74.9043 485.762 74.9316C485.716 74.959 485.664 74.9772 485.605 74.9863C485.545 74.9954 485.482 75 485.413 75H478.4C478.235 75 478.112 74.9727 478.03 74.918C477.948 74.8633 477.907 74.7699 477.907 74.6377V74.166C477.907 74.0794 477.921 74.0111 477.948 73.9609C477.971 73.9062 478.005 73.8652 478.051 73.8379C478.096 73.8105 478.149 73.7923 478.208 73.7832C478.267 73.7741 478.331 73.7695 478.4 73.7695H483.26C483.164 73.6738 483.084 73.5439 483.021 73.3799C482.961 73.2158 482.911 72.9902 482.87 72.7031C482.834 72.4342 482.786 72.1676 482.727 71.9033C482.672 71.639 482.581 71.402 482.453 71.1924C482.33 70.9782 482.159 70.8073 481.941 70.6797C481.726 70.5475 481.442 70.4814 481.086 70.4814C480.986 70.4814 480.872 70.4906 480.744 70.5088C480.617 70.5225 480.487 70.543 480.355 70.5703C480.222 70.5931 480.097 70.6204 479.979 70.6523C479.86 70.6842 479.76 70.7184 479.678 70.7549V69.6406ZM480.813 77.0508C480.813 76.9505 480.831 76.8548 480.867 76.7637C480.908 76.6771 480.961 76.5996 481.025 76.5312C481.088 76.4674 481.164 76.415 481.25 76.374C481.341 76.3376 481.437 76.3193 481.537 76.3193C481.637 76.3193 481.731 76.3376 481.817 76.374C481.909 76.415 481.986 76.4674 482.05 76.5312C482.118 76.5996 482.171 76.6771 482.207 76.7637C482.248 76.8548 482.269 76.9505 482.269 77.0508C482.269 77.151 482.248 77.2445 482.207 77.3311C482.171 77.4222 482.118 77.4997 482.05 77.5635C481.986 77.6273 481.909 77.6774 481.817 77.7139C481.731 77.7549 481.637 77.7754 481.537 77.7754C481.332 77.7754 481.159 77.7048 481.018 77.5635C480.881 77.4268 480.813 77.2559 480.813 77.0508ZM485.483 75C485.319 75 485.196 74.9727 485.114 74.918C485.032 74.8633 484.991 74.7699 484.991 74.6377V74.166C484.991 74.0794 485.005 74.0111 485.032 73.9609C485.055 73.9062 485.089 73.8652 485.135 73.8379C485.18 73.8105 485.233 73.7923 485.292 73.7832C485.351 73.7741 485.415 73.7695 485.483 73.7695H487.343V65.1768H488.573V75H485.483ZM490.967 65.1836H492.198V75.0068H490.967V65.1836ZM504.205 73.7764C504.205 73.6488 504.194 73.4915 504.171 73.3047C504.148 73.1133 504.116 72.9128 504.075 72.7031C504.034 72.4935 503.982 72.2816 503.918 72.0674C503.854 71.8532 503.781 71.6572 503.699 71.4795L504.909 71.1377C504.959 71.2744 505.009 71.4271 505.059 71.5957C505.11 71.7643 505.155 71.9421 505.196 72.1289C505.242 72.3112 505.283 72.5003 505.319 72.6963C505.356 72.8877 505.383 73.0768 505.401 73.2637C505.615 73.4368 505.868 73.5645 506.16 73.6465C506.456 73.7285 506.814 73.7695 507.233 73.7695H507.288C507.452 73.7695 507.575 73.7969 507.657 73.8516C507.739 73.9062 507.78 73.9997 507.78 74.1318V74.6035C507.78 74.6901 507.766 74.7607 507.739 74.8154C507.716 74.8656 507.682 74.9043 507.637 74.9316C507.591 74.959 507.539 74.9772 507.479 74.9863C507.42 74.9954 507.356 75 507.288 75H507.22C506.796 75 506.436 74.9521 506.139 74.8564C505.848 74.7607 505.595 74.6331 505.381 74.4736C505.317 74.984 505.18 75.4512 504.971 75.875C504.761 76.2988 504.483 76.6634 504.137 76.9688C503.795 77.2741 503.382 77.5111 502.899 77.6797C502.421 77.8483 501.878 77.9326 501.272 77.9326C500.625 77.9326 500.062 77.8324 499.584 77.6318C499.11 77.4359 498.716 77.1715 498.401 76.8389C498.087 76.5062 497.852 76.1211 497.697 75.6836C497.542 75.2507 497.465 74.7949 497.465 74.3164C497.465 74.0885 497.483 73.8561 497.519 73.6191C497.56 73.3776 497.613 73.1429 497.677 72.915C497.74 72.6826 497.816 72.4639 497.902 72.2588C497.993 72.0537 498.091 71.8691 498.196 71.7051L499.235 72.2861C499.162 72.4046 499.096 72.5391 499.037 72.6895C498.978 72.8353 498.928 72.9902 498.887 73.1543C498.846 73.3184 498.814 73.487 498.791 73.6602C498.768 73.8288 498.757 73.9951 498.757 74.1592C498.757 74.5146 498.814 74.8473 498.928 75.1572C499.042 75.4717 499.208 75.7428 499.427 75.9707C499.65 76.2031 499.923 76.3854 500.247 76.5176C500.575 76.6543 500.949 76.7227 501.368 76.7227C501.819 76.7227 502.22 76.6543 502.571 76.5176C502.922 76.3854 503.218 76.1917 503.46 75.9365C503.701 75.6859 503.886 75.3783 504.014 75.0137C504.141 74.6491 504.205 74.2367 504.205 73.7764ZM501.471 68.6357C501.471 68.5355 501.489 68.4421 501.525 68.3555C501.566 68.2643 501.619 68.1868 501.682 68.123C501.746 68.0547 501.821 68.0023 501.908 67.9658C501.999 67.9248 502.095 67.9043 502.195 67.9043C502.295 67.9043 502.389 67.9248 502.475 67.9658C502.567 68.0023 502.644 68.0547 502.708 68.123C502.776 68.1868 502.829 68.2643 502.865 68.3555C502.906 68.4421 502.927 68.5355 502.927 68.6357C502.927 68.736 502.906 68.8317 502.865 68.9229C502.829 69.0094 502.776 69.0846 502.708 69.1484C502.644 69.2122 502.567 69.2646 502.475 69.3057C502.389 69.3421 502.295 69.3604 502.195 69.3604C501.99 69.3604 501.817 69.292 501.676 69.1553C501.539 69.014 501.471 68.8408 501.471 68.6357ZM509.47 74.0566C509.375 74.2344 509.272 74.3848 509.163 74.5078C509.058 74.6263 508.942 74.722 508.814 74.7949C508.691 74.8678 508.554 74.9202 508.404 74.9521C508.253 74.984 508.085 75 507.898 75H507.365C507.201 75 507.078 74.9727 506.996 74.918C506.914 74.8633 506.873 74.7699 506.873 74.6377V74.166C506.873 74.0794 506.886 74.0111 506.914 73.9609C506.936 73.9062 506.971 73.8652 507.016 73.8379C507.062 73.8105 507.114 73.7923 507.173 73.7832C507.233 73.7741 507.296 73.7695 507.365 73.7695H507.686C507.969 73.7695 508.219 73.7057 508.438 73.5781C508.661 73.446 508.812 73.2386 508.889 72.9561C509.021 72.4684 509.169 72.0492 509.334 71.6982C509.498 71.3428 509.668 71.042 509.846 70.7959C510.029 70.5452 510.213 70.3447 510.4 70.1943C510.587 70.0394 510.771 69.9186 510.954 69.832C511.136 69.7454 511.309 69.6885 511.473 69.6611C511.642 69.6292 511.797 69.6133 511.938 69.6133C512.243 69.6133 512.521 69.6566 512.772 69.7432C513.023 69.8298 513.246 69.9482 513.442 70.0986C513.638 70.2445 513.809 70.4154 513.955 70.6113C514.1 70.8073 514.221 71.0124 514.317 71.2266C514.413 71.4362 514.483 71.6504 514.529 71.8691C514.574 72.0879 514.597 72.2952 514.597 72.4912C514.597 72.6689 514.574 72.8581 514.529 73.0586C514.483 73.2546 514.415 73.4482 514.324 73.6396C514.233 73.8265 514.114 74.0065 513.968 74.1797C513.827 74.3529 513.658 74.5055 513.462 74.6377C513.266 74.7699 513.043 74.8747 512.792 74.9521C512.542 75.0296 512.262 75.0684 511.952 75.0684C511.655 75.0684 511.377 75.0387 511.118 74.9795C510.862 74.9157 510.63 74.8359 510.42 74.7402C510.215 74.6445 510.031 74.5374 509.867 74.4189C509.707 74.2959 509.575 74.1751 509.47 74.0566ZM513.49 72.6348C513.49 72.4661 513.458 72.2747 513.394 72.0605C513.335 71.8464 513.239 71.6436 513.107 71.4521C512.979 71.2607 512.815 71.1012 512.615 70.9736C512.414 70.8415 512.175 70.7754 511.897 70.7754C511.633 70.7754 511.389 70.846 511.166 70.9873C510.947 71.1286 510.753 71.3154 510.584 71.5479C510.416 71.7757 510.275 72.0378 510.161 72.334C510.047 72.6302 509.965 72.9355 509.915 73.25C509.96 73.3138 510.049 73.3822 510.181 73.4551C510.313 73.5234 510.466 73.5872 510.639 73.6465C510.817 73.7012 511.004 73.7467 511.2 73.7832C511.4 73.8197 511.592 73.8379 511.774 73.8379C512.034 73.8379 512.268 73.8197 512.478 73.7832C512.692 73.7467 512.875 73.6852 513.025 73.5986C513.175 73.5075 513.289 73.3844 513.367 73.2295C513.449 73.0745 513.49 72.8763 513.49 72.6348ZM525.818 75C525.299 75 524.859 74.9202 524.499 74.7607C524.143 74.6012 523.854 74.3962 523.631 74.1455C523.407 73.8903 523.246 73.6032 523.145 73.2842C523.045 72.9652 522.995 72.6484 522.995 72.334C522.995 71.9375 523.063 71.5661 523.2 71.2197C523.337 70.8734 523.533 70.5726 523.788 70.3174C524.043 70.0576 524.349 69.8548 524.704 69.709C525.064 69.5632 525.467 69.4902 525.914 69.4902C526.096 69.4902 526.283 69.5085 526.474 69.5449C526.67 69.5768 526.862 69.6383 527.049 69.7295C527.24 69.8161 527.42 69.9346 527.589 70.085C527.757 70.2354 527.905 70.4268 528.033 70.6592C528.161 70.887 528.261 71.1628 528.334 71.4863C528.411 71.8053 528.45 72.1768 528.45 72.6006V73.7695H529.858C530.022 73.7695 530.145 73.7969 530.227 73.8516C530.309 73.9062 530.35 73.9997 530.35 74.1318V74.6035C530.35 74.6901 530.337 74.7607 530.309 74.8154C530.287 74.8656 530.252 74.9043 530.207 74.9316C530.161 74.959 530.109 74.9772 530.05 74.9863C529.99 74.9954 529.927 75 529.858 75H528.45C528.391 75.7018 528.238 76.3125 527.992 76.832C527.746 77.3561 527.42 77.7891 527.015 78.1309C526.609 78.4772 526.133 78.7347 525.586 78.9033C525.039 79.0719 524.435 79.1562 523.774 79.1562C523.072 79.1562 522.455 79.0674 521.922 78.8896C521.393 78.7119 520.951 78.4635 520.596 78.1445C520.24 77.8255 519.971 77.445 519.789 77.0029C519.611 76.5609 519.522 76.0732 519.522 75.54C519.522 75.3122 519.541 75.0798 519.577 74.8428C519.618 74.6012 519.67 74.3665 519.734 74.1387C519.798 73.9062 519.873 73.6875 519.96 73.4824C520.051 73.2773 520.149 73.0928 520.254 72.9287L521.293 73.5098C521.22 73.6283 521.154 73.7627 521.095 73.9131C521.035 74.0589 520.985 74.2139 520.944 74.3779C520.903 74.542 520.871 74.7106 520.849 74.8838C520.826 75.0524 520.814 75.2188 520.814 75.3828C520.814 75.7611 520.878 76.1051 521.006 76.415C521.138 76.7295 521.332 77.0007 521.587 77.2285C521.842 77.4564 522.159 77.6318 522.537 77.7549C522.92 77.8825 523.364 77.9463 523.87 77.9463C524.344 77.9463 524.786 77.8848 525.196 77.7617C525.606 77.6432 525.962 77.4632 526.263 77.2217C526.563 76.9801 526.798 76.6748 526.967 76.3057C527.14 75.9365 527.226 75.5013 527.226 75H525.818ZM527.226 73.7695V72.9971C527.226 72.5094 527.181 72.113 527.09 71.8076C527.003 71.4977 526.887 71.2585 526.741 71.0898C526.6 70.9167 526.436 70.8005 526.249 70.7412C526.067 70.6774 525.882 70.6455 525.695 70.6455C525.486 70.6455 525.29 70.6842 525.107 70.7617C524.925 70.8392 524.766 70.9486 524.629 71.0898C524.497 71.2311 524.392 71.402 524.314 71.6025C524.237 71.7985 524.198 72.015 524.198 72.252C524.198 72.457 524.232 72.653 524.301 72.8398C524.369 73.0221 524.476 73.1816 524.622 73.3184C524.772 73.4551 524.964 73.5645 525.196 73.6465C525.429 73.7285 525.709 73.7695 526.037 73.7695H527.226ZM524.068 67.2617C524.068 67.1615 524.086 67.068 524.123 66.9814C524.164 66.8903 524.216 66.8128 524.28 66.749C524.344 66.6807 524.419 66.6283 524.506 66.5918C524.597 66.5508 524.693 66.5303 524.793 66.5303C524.893 66.5303 524.987 66.5508 525.073 66.5918C525.164 66.6283 525.242 66.6807 525.306 66.749C525.374 66.8128 525.426 66.8903 525.463 66.9814C525.504 67.068 525.524 67.1615 525.524 67.2617C525.524 67.362 525.504 67.4577 525.463 67.5488C525.426 67.6354 525.374 67.7106 525.306 67.7744C525.242 67.8382 525.164 67.8906 525.073 67.9316C524.987 67.9681 524.893 67.9863 524.793 67.9863C524.588 67.9863 524.415 67.918 524.273 67.7812C524.137 67.64 524.068 67.4668 524.068 67.2617ZM526.016 67.2617C526.016 67.1615 526.035 67.068 526.071 66.9814C526.112 66.8903 526.165 66.8128 526.228 66.749C526.292 66.6807 526.367 66.6283 526.454 66.5918C526.545 66.5508 526.641 66.5303 526.741 66.5303C526.841 66.5303 526.935 66.5508 527.021 66.5918C527.113 66.6283 527.19 66.6807 527.254 66.749C527.322 66.8128 527.375 66.8903 527.411 66.9814C527.452 67.068 527.473 67.1615 527.473 67.2617C527.473 67.362 527.452 67.4577 527.411 67.5488C527.375 67.6354 527.322 67.7106 527.254 67.7744C527.19 67.8382 527.113 67.8906 527.021 67.9316C526.935 67.9681 526.841 67.9863 526.741 67.9863C526.536 67.9863 526.363 67.918 526.222 67.7812C526.085 67.64 526.016 67.4668 526.016 67.2617ZM532.082 67.2617C532.082 67.1615 532.1 67.068 532.136 66.9814C532.177 66.8903 532.23 66.8128 532.294 66.749C532.357 66.6807 532.433 66.6283 532.519 66.5918C532.61 66.5508 532.706 66.5303 532.806 66.5303C532.906 66.5303 533 66.5508 533.086 66.5918C533.178 66.6283 533.255 66.6807 533.319 66.749C533.387 66.8128 533.44 66.8903 533.476 66.9814C533.517 67.068 533.538 67.1615 533.538 67.2617C533.538 67.362 533.517 67.4577 533.476 67.5488C533.44 67.6354 533.387 67.7106 533.319 67.7744C533.255 67.8382 533.178 67.8906 533.086 67.9316C533 67.9681 532.906 67.9863 532.806 67.9863C532.601 67.9863 532.428 67.918 532.287 67.7812C532.15 67.64 532.082 67.4668 532.082 67.2617ZM534.03 67.2617C534.03 67.1615 534.048 67.068 534.085 66.9814C534.126 66.8903 534.178 66.8128 534.242 66.749C534.306 66.6807 534.381 66.6283 534.467 66.5918C534.558 66.5508 534.654 66.5303 534.754 66.5303C534.855 66.5303 534.948 66.5508 535.035 66.5918C535.126 66.6283 535.203 66.6807 535.267 66.749C535.336 66.8128 535.388 66.8903 535.424 66.9814C535.465 67.068 535.486 67.1615 535.486 67.2617C535.486 67.362 535.465 67.4577 535.424 67.5488C535.388 67.6354 535.336 67.7106 535.267 67.7744C535.203 67.8382 535.126 67.8906 535.035 67.9316C534.948 67.9681 534.855 67.9863 534.754 67.9863C534.549 67.9863 534.376 67.918 534.235 67.7812C534.098 67.64 534.03 67.4668 534.03 67.2617ZM537.038 75C536.5 75 536.01 74.9818 535.568 74.9453C535.13 74.9089 534.727 74.8519 534.358 74.7744C534.098 74.82 533.818 74.8564 533.517 74.8838C533.216 74.9111 532.906 74.9339 532.587 74.9521C532.268 74.9704 531.943 74.984 531.61 74.9932C531.282 74.9977 530.958 75 530.639 75H529.928C529.764 75 529.641 74.9727 529.559 74.918C529.477 74.8633 529.436 74.7699 529.436 74.6377V74.166C529.436 74.0794 529.45 74.0111 529.477 73.9609C529.5 73.9062 529.534 73.8652 529.58 73.8379C529.625 73.8105 529.678 73.7923 529.737 73.7832C529.796 73.7741 529.86 73.7695 529.928 73.7695H531.836L531.829 73.7422C531.706 73.6374 531.601 73.5166 531.514 73.3799C531.428 73.2432 531.355 73.1019 531.295 72.9561C531.236 72.8102 531.193 72.6667 531.166 72.5254C531.138 72.3841 531.125 72.2565 531.125 72.1426C531.125 71.7826 531.193 71.4408 531.33 71.1172C531.466 70.7891 531.66 70.502 531.911 70.2559C532.166 70.0098 532.476 69.8161 532.84 69.6748C533.205 69.529 533.613 69.4561 534.064 69.4561C534.461 69.4561 534.809 69.5199 535.11 69.6475C535.415 69.7751 535.67 69.9482 535.876 70.167C536.085 70.3857 536.242 70.6432 536.347 70.9395C536.452 71.2311 536.504 71.5433 536.504 71.876C536.504 72.0765 536.486 72.2702 536.45 72.457C536.418 72.6393 536.377 72.8125 536.327 72.9766C536.277 73.1406 536.222 73.291 536.163 73.4277C536.108 73.5599 536.06 73.6738 536.019 73.7695H537.776C537.94 73.7695 538.063 73.7969 538.145 73.8516C538.227 73.9062 538.268 73.9997 538.268 74.1318V74.6035C538.268 74.6901 538.254 74.7607 538.227 74.8154C538.204 74.8656 538.17 74.9043 538.125 74.9316C538.079 74.959 538.027 74.9772 537.967 74.9863C537.908 74.9954 537.844 75 537.776 75H537.038ZM532.28 71.999C532.28 72.2679 532.332 72.5117 532.437 72.7305C532.542 72.9447 532.685 73.1292 532.868 73.2842C533.05 73.4391 533.262 73.5599 533.503 73.6465C533.75 73.7285 534.012 73.7695 534.29 73.7695H534.72C534.775 73.6921 534.834 73.5941 534.898 73.4756C534.962 73.3571 535.019 73.2272 535.069 73.0859C535.124 72.9401 535.169 72.7852 535.206 72.6211C535.242 72.4525 535.26 72.2793 535.26 72.1016C535.26 71.8509 535.219 71.6299 535.137 71.4385C535.06 71.2471 534.955 71.0876 534.823 70.96C534.691 70.8278 534.538 70.7298 534.365 70.666C534.192 70.5977 534.012 70.5635 533.825 70.5635C533.638 70.5635 533.451 70.5931 533.264 70.6523C533.082 70.707 532.918 70.7936 532.772 70.9121C532.626 71.026 532.508 71.1742 532.417 71.3564C532.325 71.5387 532.28 71.7529 532.28 71.999ZM539.124 69.6406C539.393 69.5632 539.664 69.4948 539.938 69.4355C540.216 69.3717 540.528 69.3398 540.874 69.3398C541.225 69.3398 541.535 69.3945 541.804 69.5039C542.077 69.6133 542.31 69.766 542.501 69.9619C542.697 70.1579 542.854 70.3926 542.973 70.666C543.096 70.9349 543.183 71.2288 543.233 71.5479C543.278 71.8395 543.324 72.1198 543.369 72.3887C543.415 72.6576 543.472 72.8945 543.54 73.0996C543.613 73.3047 543.702 73.4688 543.807 73.5918C543.916 73.7103 544.055 73.7695 544.224 73.7695H544.86C545.024 73.7695 545.147 73.7969 545.229 73.8516C545.311 73.9062 545.352 73.9997 545.352 74.1318V74.6035C545.352 74.6901 545.338 74.7607 545.311 74.8154C545.288 74.8656 545.254 74.9043 545.208 74.9316C545.163 74.959 545.11 74.9772 545.051 74.9863C544.992 74.9954 544.928 75 544.86 75H537.846C537.682 75 537.559 74.9727 537.477 74.918C537.395 74.8633 537.354 74.7699 537.354 74.6377V74.166C537.354 74.0794 537.367 74.0111 537.395 73.9609C537.418 73.9062 537.452 73.8652 537.497 73.8379C537.543 73.8105 537.595 73.7923 537.655 73.7832C537.714 73.7741 537.778 73.7695 537.846 73.7695H542.706C542.611 73.6738 542.531 73.5439 542.467 73.3799C542.408 73.2158 542.358 72.9902 542.317 72.7031C542.28 72.4342 542.232 72.1676 542.173 71.9033C542.118 71.639 542.027 71.402 541.9 71.1924C541.777 70.9782 541.606 70.8073 541.387 70.6797C541.173 70.5475 540.888 70.4814 540.532 70.4814C540.432 70.4814 540.318 70.4906 540.191 70.5088C540.063 70.5225 539.933 70.543 539.801 70.5703C539.669 70.5931 539.544 70.6204 539.425 70.6523C539.307 70.6842 539.206 70.7184 539.124 70.7549V69.6406ZM544.93 75C544.766 75 544.643 74.9727 544.56 74.918C544.478 74.8633 544.437 74.7699 544.437 74.6377V74.166C544.437 74.0794 544.451 74.0111 544.478 73.9609C544.501 73.9062 544.535 73.8652 544.581 73.8379C544.627 73.8105 544.679 73.7923 544.738 73.7832C544.797 73.7741 544.861 73.7695 544.93 73.7695H547.179V69.7158H548.416V75H544.93ZM545.962 67.2617C545.962 67.1615 545.98 67.068 546.017 66.9814C546.058 66.8903 546.11 66.8128 546.174 66.749C546.238 66.6807 546.313 66.6283 546.399 66.5918C546.49 66.5508 546.586 66.5303 546.686 66.5303C546.787 66.5303 546.88 66.5508 546.967 66.5918C547.058 66.6283 547.135 66.6807 547.199 66.749C547.268 66.8128 547.32 66.8903 547.356 66.9814C547.397 67.068 547.418 67.1615 547.418 67.2617C547.418 67.362 547.397 67.4577 547.356 67.5488C547.32 67.6354 547.268 67.7106 547.199 67.7744C547.135 67.8382 547.058 67.8906 546.967 67.9316C546.88 67.9681 546.787 67.9863 546.686 67.9863C546.481 67.9863 546.308 67.918 546.167 67.7812C546.03 67.64 545.962 67.4668 545.962 67.2617ZM547.91 67.2617C547.91 67.1615 547.928 67.068 547.965 66.9814C548.006 66.8903 548.058 66.8128 548.122 66.749C548.186 66.6807 548.261 66.6283 548.348 66.5918C548.439 66.5508 548.534 66.5303 548.635 66.5303C548.735 66.5303 548.828 66.5508 548.915 66.5918C549.006 66.6283 549.084 66.6807 549.147 66.749C549.216 66.8128 549.268 66.8903 549.305 66.9814C549.346 67.068 549.366 67.1615 549.366 67.2617C549.366 67.362 549.346 67.4577 549.305 67.5488C549.268 67.6354 549.216 67.7106 549.147 67.7744C549.084 67.8382 549.006 67.8906 548.915 67.9316C548.828 67.9681 548.735 67.9863 548.635 67.9863C548.43 67.9863 548.256 67.918 548.115 67.7812C547.978 67.64 547.91 67.4668 547.91 67.2617Z" fill="#0F1621"/>
</svg>
