<svg width="99" height="24" viewBox="0 0 99 24" fill="none" xmlns="http://www.w3.org/2000/svg">
<g clip-path="url(#clip0_7124_8351)">
<path d="M5.53711 8.43587L5.98565 7.65936C6.13637 7.76306 6.34738 7.8571 6.61747 7.94392C6.88756 8.03073 7.20227 8.07414 7.56279 8.07414C8.11865 8.07414 8.51293 7.99094 8.74444 7.82334C8.97835 7.65333 9.09652 7.41821 9.09652 7.11918C9.09652 6.96846 9.06396 6.78157 9.00006 6.5597C8.93495 6.33784 8.79749 6.03761 8.58528 5.65779C8.37547 5.27919 8.05474 4.78241 7.62067 4.16747L8.39718 3.65623C8.99162 4.48338 9.40761 5.18514 9.64635 5.7639C9.8875 6.34267 10.0081 6.81291 10.0081 7.17223C10.0081 7.48091 9.93211 7.77511 9.78139 8.05485C9.63308 8.33218 9.38228 8.56006 9.029 8.73972C8.6745 8.92059 8.18617 9.00981 7.56279 9.00981C7.15042 9.00981 6.76819 8.95917 6.4149 8.8603C6.06041 8.75781 5.76862 8.61673 5.53711 8.43587ZM7.57726 2.63374C7.41569 2.63374 7.28064 2.57948 7.17212 2.46976C7.06602 2.36124 7.01296 2.23102 7.01296 2.07909C7.01296 1.93199 7.06602 1.80177 7.17212 1.68843C7.28064 1.57629 7.41569 1.51962 7.57726 1.51962C7.72436 1.51962 7.85338 1.57629 7.9631 1.68843C8.07162 1.80177 8.12709 1.93199 8.12709 2.07909C8.12709 2.23102 8.07162 2.36124 7.9631 2.46976C7.85338 2.57948 7.72436 2.63374 7.57726 2.63374Z" fill="#505256"/>
<path d="M11.5509 8.94239L11.3242 0.897549H12.2358L12.4625 8.94239H11.5509Z" fill="#505256"/>
<path d="M13.8432 11.5323L13.6406 10.6111C14.106 10.5496 14.5329 10.4616 14.9187 10.3458C15.307 10.2301 15.6398 10.0661 15.9171 9.85387C16.1968 9.64406 16.4042 9.3595 16.5393 9.00019H15.8158C15.4782 9.00019 15.1647 8.95316 14.8753 8.86032C14.5859 8.76386 14.352 8.61193 14.176 8.40213C14.0024 8.18992 13.9155 7.915 13.9155 7.57739C13.9155 7.16622 13.9975 6.77556 14.1615 6.40539C14.3255 6.03281 14.5498 5.73016 14.8367 5.49865C15.1225 5.26474 15.4457 5.14657 15.8062 5.14657C16.3234 5.14657 16.7527 5.37326 17.0939 5.82662C17.4376 6.27999 17.61 6.97692 17.61 7.915C17.61 7.97047 17.61 8.02352 17.61 8.07416H18.6228C18.7796 8.07416 18.8941 8.11757 18.9653 8.20439C19.0352 8.2912 19.0714 8.3949 19.0714 8.51306C19.0714 8.63605 19.0183 8.74818 18.9122 8.85067C18.8085 8.94955 18.6759 9.00019 18.5119 9.00019H17.4749C17.0915 10.4567 15.8809 11.3008 13.8432 11.5323ZM16.2451 8.07416H16.7177C16.7274 8.00061 16.7322 7.92465 16.7322 7.84748C16.7322 7.33985 16.6369 6.91663 16.4476 6.57902C16.2607 6.23899 16.016 6.06777 15.7145 6.06777C15.5566 6.06777 15.4083 6.12927 15.2708 6.25105C15.1322 6.37042 15.0212 6.53079 14.938 6.73336C14.8536 6.93592 14.8126 7.15778 14.8126 7.39894C14.8126 7.663 14.9308 7.84145 15.1695 7.93429C15.4071 8.02834 15.7652 8.07416 16.2451 8.07416Z" fill="#505256"/>
<path d="M18.5078 9.00033L18.6187 8.07431H21.6621C21.8188 8.07431 21.9334 8.11771 22.0045 8.20453C22.0781 8.29134 22.1155 8.39504 22.1155 8.5132C22.1155 8.63619 22.0624 8.74833 21.9563 8.85082C21.8502 8.94969 21.7151 9.00033 21.5512 9.00033H18.5078Z" fill="#505256"/>
<path d="M21.5508 9.00029L21.6521 8.07427C22.4262 8.07427 23.1774 7.96093 23.9044 7.73183C24.6339 7.50394 25.2995 7.17959 25.9012 6.75758C25.6082 6.50075 25.2501 6.29336 24.8256 6.1354C24.4012 5.97865 23.9334 5.89907 23.4221 5.89907C23.2316 5.89907 23.0664 5.90872 22.9253 5.92801C22.7831 5.9473 22.6119 5.97986 22.4093 6.02447L22.226 5.16597C22.6468 5.04057 23.0459 4.97787 23.4221 4.97787C23.8104 4.97787 24.1625 5.0249 24.4784 5.11774C24.7931 5.21179 25.0813 5.32513 25.3417 5.46018C25.6021 5.59522 25.8457 5.73027 26.0748 5.86531C26.3027 6.00036 26.5258 6.11611 26.7452 6.21257C26.9634 6.30662 27.1889 6.35244 27.4204 6.35244H27.6568L27.7339 7.16271C27.5024 7.16271 27.2769 7.18924 27.0587 7.23988C27.2034 7.57749 27.406 7.80177 27.6664 7.91028C27.9293 8.02001 28.3199 8.07427 28.8384 8.07427C28.9952 8.07427 29.1097 8.11768 29.1808 8.20449C29.2544 8.29131 29.2918 8.395 29.2918 8.51317C29.2918 8.63615 29.2387 8.74829 29.1326 8.85078C29.0265 8.94965 28.8915 9.00029 28.7275 9.00029C28.3223 9.00029 27.9582 8.96412 27.6375 8.89419C27.3191 8.82063 27.0466 8.67715 26.8224 8.46493C26.5969 8.25031 26.4317 7.92837 26.3256 7.50033C26.0422 7.63537 25.7517 7.7885 25.4526 7.95851C25.156 8.12612 24.828 8.28889 24.4687 8.44564C24.1082 8.6036 23.6922 8.73503 23.2196 8.84113C22.7469 8.94724 22.1898 9.00029 21.5508 9.00029Z" fill="#505256"/>
<path d="M28.7227 9.00033L28.8336 8.07431H31.8769C32.0337 8.07431 32.1482 8.11771 32.2194 8.20453C32.2929 8.29134 32.3303 8.39504 32.3303 8.5132C32.3303 8.63619 32.2772 8.74833 32.1711 8.85082C32.065 8.94969 31.93 9.00033 31.766 9.00033H28.7227Z" fill="#505256"/>
<path d="M31.7637 9.00026L31.8746 8.07424C32.2508 8.07424 32.5426 8.04771 32.7524 7.99224C32.9646 7.93437 33.125 7.82585 33.2347 7.66428C33.3432 7.50391 33.4324 7.26879 33.5 6.96011C33.5675 6.65144 33.6495 6.24992 33.7459 5.75435L34.6237 5.92316C34.5779 6.12572 34.5273 6.35964 34.4694 6.6225C34.4139 6.88656 34.3874 7.10842 34.3874 7.28808C34.3874 7.40142 34.3946 7.50512 34.4115 7.60158C34.4272 7.69804 34.4839 7.78003 34.5803 7.84755C34.6768 7.91508 34.8408 7.97054 35.0723 8.01154C35.3062 8.05374 35.6426 8.07424 36.0803 8.07424C36.237 8.07424 36.3516 8.11764 36.4227 8.20446C36.4927 8.29127 36.5288 8.39497 36.5288 8.51313C36.5288 8.63612 36.4758 8.74826 36.3697 8.85075C36.266 8.94962 36.1309 9.00026 35.9645 9.00026C35.475 9.00026 35.094 8.97253 34.8215 8.91827C34.5478 8.86039 34.3452 8.7772 34.2138 8.66747C34.0811 8.55895 33.9871 8.4215 33.9292 8.25751C33.7098 8.56378 33.4397 8.76393 33.1189 8.86039C32.8006 8.95324 32.3485 9.00026 31.7637 9.00026ZM34.7733 4.592C34.6153 4.592 34.4815 4.53774 34.3729 4.42801C34.2632 4.31949 34.209 4.18927 34.209 4.03734C34.209 3.89024 34.2632 3.76002 34.3729 3.64668C34.4815 3.53454 34.6153 3.47787 34.7733 3.47787C34.9204 3.47787 35.0494 3.53454 35.1591 3.64668C35.2676 3.76002 35.3231 3.89024 35.3231 4.03734C35.3231 4.18927 35.2676 4.31949 35.1591 4.42801C35.0494 4.53774 34.9204 4.592 34.7733 4.592ZM33.2299 4.592C33.0683 4.592 32.9333 4.53774 32.8247 4.42801C32.7186 4.31949 32.6656 4.18927 32.6656 4.03734C32.6656 3.89024 32.7186 3.76002 32.8247 3.64668C32.9333 3.53454 33.0683 3.47787 33.2299 3.47787C33.377 3.47787 33.506 3.53454 33.6157 3.64668C33.7242 3.76002 33.7797 3.89024 33.7797 4.03734C33.7797 4.18927 33.7242 4.31949 33.6157 4.42801C33.506 4.53774 33.377 4.592 33.2299 4.592Z" fill="#505256"/>
<path d="M35.9648 9.00033L36.0758 8.07431H39.1191C39.2759 8.07431 39.3904 8.11771 39.4616 8.20453C39.5351 8.29134 39.5725 8.39504 39.5725 8.5132C39.5725 8.63619 39.5194 8.74833 39.4133 8.85082C39.3072 8.94969 39.1722 9.00033 39.0082 9.00033H35.9648Z" fill="#505256"/>
<path d="M39.0039 9.00026L39.1148 8.07424C39.356 8.07424 39.5513 8.05856 39.7032 8.02601C39.854 7.99104 39.9794 7.90422 40.0794 7.76556C40.1819 7.6281 40.2784 7.40866 40.3688 7.10963C40.4581 6.80819 40.563 6.38617 40.6823 5.84599L41.5264 6.08232C41.4805 6.27524 41.4275 6.50433 41.3672 6.76719C41.3093 7.03125 41.2804 7.26758 41.2804 7.47618C41.2804 7.66669 41.3503 7.81379 41.4926 7.9199C41.6373 8.02359 41.8953 8.07424 42.2691 8.07424C42.497 8.07424 42.6815 8.05736 42.8238 8.02118C42.9648 7.9826 43.0818 7.89337 43.1758 7.75109C43.2723 7.6064 43.3567 7.37851 43.4315 7.06622C43.505 6.75513 43.5834 6.32106 43.6678 5.764L44.5263 5.92316C44.5034 6.0582 44.4744 6.2246 44.4395 6.41993C44.4069 6.61285 44.3792 6.80577 44.3575 6.9987C44.3346 7.19162 44.3237 7.35078 44.3237 7.47618C44.3237 7.58229 44.3478 7.68236 44.3961 7.77521C44.4443 7.86926 44.5408 7.94281 44.6855 7.99707C44.8326 8.04892 45.0532 8.07424 45.3462 8.07424C45.6706 8.07424 45.9298 8.01154 46.1227 7.88614C46.3181 7.75833 46.4169 7.49788 46.4169 7.1048C46.4169 6.82868 46.3506 6.47298 46.2192 6.03891C46.0866 5.60242 45.9395 5.16956 45.7755 4.74151L46.687 4.4039C46.7762 4.65228 46.8667 4.9284 46.9571 5.23346C47.0463 5.53611 47.1223 5.83875 47.1838 6.14019C47.2441 6.43922 47.2754 6.70208 47.2754 6.92635C47.2754 7.62449 47.1018 8.14538 46.7545 8.48902C46.4097 8.83025 45.937 9.00026 45.3366 9.00026C44.9218 9.00026 44.595 8.9448 44.3575 8.83628C44.1224 8.72776 43.9524 8.55654 43.8462 8.32503C43.6654 8.60236 43.4508 8.78322 43.2 8.87004C42.9492 8.95685 42.5935 9.00026 42.1341 9.00026C41.9761 9.00026 41.8085 8.98097 41.6325 8.94239C41.4588 8.9038 41.2961 8.83145 41.1453 8.72535C40.9934 8.61683 40.8765 8.45285 40.7933 8.2334C40.6003 8.56498 40.3592 8.77599 40.0698 8.86522C39.7804 8.95444 39.4247 9.00026 39.0039 9.00026Z" fill="#505256"/>
<path d="M48.8712 8.94239L48.6445 0.897549H49.5561L49.7828 8.94239H48.8712Z" fill="#505256"/>
<path d="M1.13824 19.1446L4.02242 12.566H4.22499L7.26351 19.5739C7.37565 19.8319 7.48296 20.0224 7.58666 20.1478C7.68915 20.2708 7.79646 20.3504 7.9098 20.389C8.02194 20.4252 8.17507 20.442 8.36799 20.442V20.6446H5.19442V20.442C5.46451 20.442 5.66708 20.3938 5.80213 20.2974C5.93717 20.1985 6.0047 20.0658 6.0047 19.9019C6.0047 19.7572 5.95405 19.5811 5.85518 19.3713L5.27159 18.0402H2.15108L1.50961 19.516C1.43245 19.6679 1.39386 19.803 1.39386 19.9212C1.39386 20.2684 1.67119 20.442 2.22825 20.442V20.6446H0V20.442C0.185688 20.4203 0.337613 20.3649 0.453367 20.2781C0.571531 20.1912 0.677638 20.0658 0.771688 19.9019C0.864531 19.7355 0.986314 19.4823 1.13824 19.1446ZM5.09314 17.6157L3.71857 14.4711L2.344 17.6157H5.09314Z" fill="#505256"/>
<path d="M11.3637 15.2911C11.6844 15.2911 11.9834 15.3478 12.2607 15.4599C12.5405 15.5733 12.7599 15.7228 12.9215 15.9085C13.0819 16.0917 13.1627 16.2883 13.1627 16.4969C13.1627 16.6319 13.1108 16.7453 13.0083 16.8345C12.9082 16.9249 12.7792 16.9695 12.6225 16.9695C12.2619 16.9695 12.063 16.767 12.0244 16.3618C12.0111 16.1761 11.9376 16.0073 11.8026 15.8554C11.6675 15.7047 11.4565 15.6287 11.1707 15.6287C10.727 15.6287 10.3701 15.806 10.1 16.1593C9.82992 16.5137 9.69488 16.9828 9.69488 17.5676C9.69488 18.2693 9.86007 18.8312 10.1917 19.2556C10.522 19.6777 10.9609 19.8875 11.5083 19.8875C11.9135 19.8875 12.2523 19.7753 12.526 19.5499C12.8021 19.3256 12.9999 19.0145 13.1192 18.619L13.2977 18.6962C13.1494 19.3268 12.8745 19.8368 12.473 20.2251C12.0702 20.6109 11.6145 20.8038 11.1032 20.8038C10.6655 20.8038 10.27 20.6881 9.91674 20.4566C9.56586 20.2227 9.29095 19.9007 9.092 19.492C8.89184 19.0808 8.79297 18.6166 8.79297 18.0981C8.79297 17.5579 8.90149 17.0756 9.12094 16.6512C9.33918 16.2268 9.64303 15.894 10.0325 15.6528C10.4207 15.4117 10.8645 15.2911 11.3637 15.2911Z" fill="#505256"/>
<path d="M16.5189 15.2911C16.7432 15.2911 16.9542 15.32 17.1508 15.3779C17.3461 15.4334 17.5487 15.525 17.7585 15.6528C18.0153 15.5636 18.2311 15.443 18.4048 15.2911H18.5929V21.8263C18.5929 22.1181 18.6194 22.3352 18.6748 22.4774C18.7327 22.6221 18.8195 22.7162 18.9353 22.762C19.0535 22.8066 19.2259 22.8295 19.4514 22.8295V23.0321H16.7215V22.8295H16.8373C17.0555 22.8295 17.2207 22.8054 17.334 22.7572C17.4462 22.709 17.5294 22.6125 17.5848 22.4678C17.6427 22.3255 17.6717 22.1121 17.6717 21.8263V19.8007H17.6475C17.3931 20.1166 17.1134 20.3625 16.8083 20.5386C16.5021 20.7146 16.2006 20.8038 15.9016 20.8038C15.5182 20.8038 15.1733 20.6905 14.8646 20.4662C14.556 20.242 14.3124 19.9309 14.1364 19.5354C13.9591 19.1399 13.8711 18.7034 13.8711 18.2235C13.8711 17.6833 13.9868 17.1902 14.2184 16.7428C14.4523 16.2967 14.773 15.9422 15.1781 15.6818C15.5857 15.4213 16.033 15.2911 16.5189 15.2911ZM14.8309 17.8714C14.8309 18.5177 14.9852 19.0374 15.2939 19.4293C15.6026 19.8187 16.0077 20.0129 16.5093 20.0129C16.7625 20.0129 16.9747 19.9695 17.1459 19.8826C17.316 19.7958 17.4908 19.6596 17.6717 19.4727V16.8248C17.6717 16.5041 17.5655 16.2268 17.3533 15.9953C17.1435 15.7614 16.8324 15.6432 16.4177 15.6432C15.9317 15.6432 15.5459 15.8554 15.2601 16.2798C14.9732 16.7043 14.8309 17.2348 14.8309 17.8714Z" fill="#505256"/>
<path d="M21.7463 19.1593C21.7463 19.4294 21.8283 19.6512 21.9923 19.8249C22.1587 19.9961 22.3613 20.0805 22.6 20.0805C22.8183 20.0805 23.0437 20.0226 23.2752 19.9068C23.5092 19.7911 23.731 19.6211 23.9408 19.3956V16.2751C23.9408 15.8386 23.6852 15.6192 23.174 15.6192H23.063V15.4166H24.8669V19.4294C24.8669 19.5644 24.9054 19.7019 24.9826 19.8393C25.0622 19.978 25.19 20.0467 25.3636 20.0467C25.4601 20.0467 25.5831 20.0178 25.735 19.9599V20.1721L24.1579 20.7798H23.9408V19.6753H23.9215C23.3102 20.4277 22.723 20.8039 22.1611 20.8039C21.8742 20.8039 21.6306 20.7316 21.428 20.5869C21.2255 20.4398 21.0723 20.2529 20.9698 20.0274C20.8698 19.7995 20.8203 19.5692 20.8203 19.3377V16.3619C20.8203 16.0701 20.754 15.8736 20.6226 15.7735C20.4936 15.671 20.2898 15.6192 20.01 15.6192H19.875V15.4166H21.7463V19.1593Z" fill="#505256"/>
<path d="M27.4217 12.5323C27.5857 12.5323 27.7232 12.589 27.8365 12.7011C27.9486 12.8145 28.0053 12.9495 28.0053 13.1063C28.0053 13.2739 27.9486 13.4137 27.8365 13.5259C27.7232 13.6392 27.5857 13.6947 27.4217 13.6947C27.2638 13.6947 27.1287 13.6392 27.0166 13.5259C26.9032 13.4137 26.8478 13.2739 26.8478 13.1063C26.8478 12.9495 26.9032 12.8145 27.0166 12.7011C27.1287 12.589 27.2638 12.5323 27.4217 12.5323ZM27.9137 19.4727C27.9137 19.8429 27.9728 20.0949 28.0921 20.2299C28.2139 20.3649 28.4104 20.4361 28.6805 20.4421V20.6447H26.1484V20.4421C26.4571 20.4421 26.6741 20.3722 26.7995 20.2299C26.9274 20.0852 26.9925 19.8248 26.9925 19.4486V16.7235C26.9925 16.521 26.9467 16.357 26.8574 16.2316C26.767 16.1038 26.6271 16.0387 26.4378 16.0387C26.357 16.0387 26.2835 16.0568 26.216 16.0917L26.1484 15.8892L27.7111 15.2911H27.9137V19.4727Z" fill="#505256"/>
<path d="M31.0576 15.2911C31.2758 15.2911 31.4977 15.3297 31.7232 15.4069C31.8799 15.4587 32.0077 15.484 32.1042 15.484C32.1717 15.484 32.2441 15.4623 32.3212 15.4165H32.5238V17.0033H32.3212C32.2598 16.5921 32.1114 16.2581 31.8775 16.0001C31.646 15.7396 31.3639 15.6094 31.0335 15.6094C30.773 15.6094 30.5572 15.6745 30.3872 15.8023C30.2196 15.9277 30.1364 16.1002 30.1364 16.3184C30.1364 16.492 30.1822 16.6416 30.2763 16.767C30.3691 16.8899 30.4993 17.0033 30.6669 17.1094C30.837 17.2131 31.1022 17.359 31.4627 17.5483C31.9282 17.7967 32.2851 18.0402 32.5335 18.2814C32.7806 18.5201 32.9048 18.8409 32.9048 19.246C32.9048 19.6065 32.8132 19.9043 32.6299 20.1383C32.4466 20.3698 32.2248 20.5386 31.9643 20.6447C31.7063 20.7508 31.4603 20.8038 31.2264 20.8038C31.0009 20.8038 30.6971 20.7508 30.3149 20.6447C30.1412 20.594 30.0255 20.5675 29.9676 20.5675C29.8675 20.5675 29.8 20.594 29.765 20.6447H29.5239V18.8891H29.7168C29.7711 19.3521 29.9399 19.7283 30.2232 20.0177C30.509 20.3071 30.8478 20.4518 31.2409 20.4518C31.4724 20.4518 31.6725 20.3782 31.8438 20.2299C32.0174 20.0792 32.1042 19.8911 32.1042 19.6656C32.1042 19.4028 32.0282 19.1966 31.8775 19.0483C31.7292 18.8975 31.564 18.7673 31.3807 18.6576C31.1975 18.5491 31.0745 18.4779 31.0142 18.4454C30.9816 18.4237 30.8755 18.3634 30.6959 18.2669C30.4258 18.1162 30.21 17.9824 30.0496 17.8666C29.888 17.7509 29.753 17.6001 29.6445 17.4132C29.5347 17.2239 29.4805 16.9912 29.4805 16.7139C29.4805 16.2931 29.6276 15.9507 29.9242 15.6866C30.2232 15.4237 30.6006 15.2911 31.0576 15.2911Z" fill="#505256"/>
<path d="M34.8104 12.5323C34.9744 12.5323 35.1118 12.589 35.2252 12.7011C35.3373 12.8145 35.394 12.9495 35.394 13.1063C35.394 13.2739 35.3373 13.4137 35.2252 13.5259C35.1118 13.6392 34.9744 13.6947 34.8104 13.6947C34.6524 13.6947 34.5174 13.6392 34.4053 13.5259C34.2919 13.4137 34.2365 13.2739 34.2365 13.1063C34.2365 12.9495 34.2919 12.8145 34.4053 12.7011C34.5174 12.589 34.6524 12.5323 34.8104 12.5323ZM35.3023 19.4727C35.3023 19.8429 35.3614 20.0949 35.4808 20.2299C35.6026 20.3649 35.7991 20.4361 36.0692 20.4421V20.6447H33.5371V20.4421C33.8458 20.4421 34.0628 20.3722 34.1882 20.2299C34.316 20.0852 34.3811 19.8248 34.3811 19.4486V16.7235C34.3811 16.521 34.3353 16.357 34.2461 16.2316C34.1557 16.1038 34.0158 16.0387 33.8265 16.0387C33.7457 16.0387 33.6722 16.0568 33.6046 16.0917L33.5371 15.8892L35.0998 15.2911H35.3023V19.4727Z" fill="#505256"/>
<path d="M38.1996 13.7623H38.3781V15.4166H39.5597V15.7687H38.3781V19.3956C38.3781 19.5885 38.4335 19.7622 38.5469 19.9165C38.659 20.0708 38.817 20.148 39.0195 20.148C39.1546 20.148 39.2752 20.1179 39.3813 20.0564C39.4874 19.9925 39.5995 19.8803 39.7189 19.7188H39.9456C39.749 20.0829 39.538 20.3542 39.3137 20.5339C39.0883 20.7135 38.8266 20.8039 38.5276 20.8039C38.196 20.8039 37.9344 20.681 37.7414 20.4374C37.5509 20.1938 37.4569 19.861 37.4569 19.439V15.7687H36.6562V15.542C37.0385 15.3853 37.3604 15.155 37.6209 14.8523C37.8837 14.5472 38.0766 14.1843 38.1996 13.7623Z" fill="#505256"/>
<path d="M41.6131 12.5323C41.7771 12.5323 41.9146 12.589 42.0279 12.7011C42.14 12.8145 42.1967 12.9495 42.1967 13.1063C42.1967 13.2739 42.14 13.4137 42.0279 13.5259C41.9146 13.6392 41.7771 13.6947 41.6131 13.6947C41.4552 13.6947 41.3201 13.6392 41.208 13.5259C41.0947 13.4137 41.0392 13.2739 41.0392 13.1063C41.0392 12.9495 41.0947 12.8145 41.208 12.7011C41.3201 12.589 41.4552 12.5323 41.6131 12.5323ZM42.1051 19.4727C42.1051 19.8429 42.1642 20.0949 42.2835 20.2299C42.4053 20.3649 42.6019 20.4361 42.8719 20.4421V20.6447H40.3398V20.4421C40.6485 20.4421 40.8656 20.3722 40.991 20.2299C41.1188 20.0852 41.1839 19.8248 41.1839 19.4486V16.7235C41.1839 16.521 41.1381 16.357 41.0488 16.2316C40.9584 16.1038 40.8185 16.0387 40.6292 16.0387C40.5484 16.0387 40.4749 16.0568 40.4074 16.0917L40.3398 15.8892L41.9025 15.2911H42.1051V19.4727Z" fill="#505256"/>
<path d="M46.3424 15.2911C46.7862 15.2911 47.201 15.4105 47.5868 15.648C47.9726 15.8867 48.2789 16.2027 48.508 16.5981C48.7395 16.9912 48.8553 17.412 48.8553 17.8618C48.8553 18.3899 48.7311 18.8782 48.4839 19.328C48.2355 19.7789 47.9027 20.1371 47.4855 20.4035C47.0671 20.67 46.6222 20.8038 46.1495 20.8038C45.6986 20.8038 45.279 20.6857 44.8907 20.4518C44.5049 20.2142 44.1986 19.8947 43.9743 19.492C43.7489 19.0905 43.6367 18.6516 43.6367 18.1753C43.6367 17.6677 43.7597 17.1914 44.0081 16.7477C44.2553 16.3039 44.5881 15.9507 45.0065 15.6866C45.4237 15.4237 45.8698 15.2911 46.3424 15.2911ZM44.6496 17.7267C44.6496 18.1705 44.7183 18.5973 44.857 19.0049C44.998 19.4136 45.1994 19.75 45.4598 20.0129C45.7227 20.2769 46.0398 20.4084 46.41 20.4084C46.8368 20.4084 47.1817 20.2191 47.4421 19.8392C47.705 19.4606 47.8376 18.959 47.8376 18.3344C47.8376 17.8401 47.7616 17.3915 47.6109 16.9888C47.4626 16.5873 47.254 16.2702 46.9839 16.0387C46.7138 15.8048 46.4051 15.6866 46.0579 15.6866C45.6298 15.6866 45.2874 15.8723 45.0306 16.2412C44.7762 16.6078 44.6496 17.1034 44.6496 17.7267Z" fill="#505256"/>
<path d="M51.3642 16.3956C51.7561 15.9784 52.0756 15.6902 52.324 15.5323C52.5712 15.3719 52.8449 15.2911 53.144 15.2911C53.4743 15.2911 53.742 15.3803 53.9446 15.5564C54.1471 15.7336 54.293 15.9507 54.3835 16.2075C54.4727 16.4619 54.5185 16.7127 54.5185 16.9599V19.4486C54.5185 19.8344 54.5776 20.0937 54.697 20.2251C54.8188 20.3541 55.0261 20.4264 55.3191 20.4421V20.6447H52.6809V20.4421C52.9221 20.4421 53.1066 20.4168 53.2356 20.365C53.3634 20.3107 53.455 20.2142 53.5105 20.0756C53.5684 19.9381 53.5973 19.7283 53.5973 19.4486V16.9165C53.5973 16.6753 53.5177 16.4559 53.361 16.2557C53.203 16.0568 52.9848 15.9567 52.7051 15.9567C52.4735 15.9567 52.2517 16.0194 52.0395 16.1448C51.8297 16.2678 51.6054 16.4571 51.3642 16.7139V19.4486C51.3642 19.8417 51.4282 20.1033 51.5572 20.2347C51.685 20.3674 51.9068 20.4361 52.2228 20.4421V20.6447H49.628V20.4421C49.8619 20.4204 50.0355 20.3794 50.1488 20.3215C50.261 20.2613 50.3381 20.166 50.3803 20.037C50.4213 19.9092 50.443 19.7235 50.443 19.4823V16.6801C50.443 16.5065 50.4045 16.357 50.3273 16.2316C50.2525 16.1038 50.132 16.0387 49.9656 16.0387C49.8908 16.0387 49.8221 16.0519 49.7582 16.0773C49.6931 16.1038 49.6497 16.1195 49.628 16.1255L49.5508 15.9133L51.1713 15.2911H51.3642V16.3956Z" fill="#505256"/>
<path fill-rule="evenodd" clip-rule="evenodd" d="M80.5696 0.514403C81.2556 -0.171676 82.3661 -0.171676 83.051 0.514403L88.3166 5.77997C89.0027 6.46484 89.0027 7.57535 88.3166 8.26022L83.3561 13.2207C82.67 13.9068 81.5595 13.9068 80.8746 13.2207L75.6103 7.95637C74.9242 7.27149 74.9242 6.16099 75.6103 5.47611L80.5696 0.514403Z" fill="#505256"/>
<path fill-rule="evenodd" clip-rule="evenodd" d="M90.3484 10.521C91.0333 9.83492 92.1438 9.83492 92.8275 10.521L98.0942 15.7866C98.7791 16.4714 98.7791 17.5819 98.0942 18.2656L93.1325 23.2273C92.4476 23.9134 91.3359 23.9134 90.6523 23.2273L85.3867 17.963C84.7018 17.2781 84.7018 16.1676 85.3867 15.4815L90.3484 10.521Z" fill="#505256"/>
<path fill-rule="evenodd" clip-rule="evenodd" d="M70.7925 10.709C71.4786 10.0229 72.5891 10.0229 73.274 10.709L78.5383 15.9745C79.2232 16.6594 79.2232 17.7699 78.5383 18.456L73.5778 23.4153C72.893 24.1014 71.7824 24.1014 71.0976 23.4153L65.832 18.1509C65.1471 17.4661 65.1471 16.3556 65.832 15.6695L70.7925 10.709Z" fill="#505256"/>
</g>
<defs>
<clipPath id="clip0_7124_8351">
<rect width="98.6077" height="23.93" fill="white" transform="matrix(1 0 0 -1 0 23.93)"/>
</clipPath>
</defs>
</svg>
