<svg width="23" height="18" viewBox="0 0 23 18" fill="none" xmlns="http://www.w3.org/2000/svg">
<path fill-rule="evenodd" clip-rule="evenodd" d="M19.3206 9.28426C19.0073 9.77269 19.3622 9.92174 19.3622 9.92174C19.3622 9.92174 19.2484 10.153 19.4 10.3208C19.5509 10.49 20.0954 10.869 20.8145 10.5072C21.5337 10.145 21.9473 9.44841 22.2611 9.20192C22.5739 8.95439 22.8599 8.97765 22.8599 8.97765C22.8599 8.97765 20.6707 7.73442 19.3206 9.28426Z" fill="#5AC268"/>
<path fill-rule="evenodd" clip-rule="evenodd" d="M18.592 11.3477C18.568 11.4911 18.595 11.9178 19.0557 12.1426C19.5161 12.3674 20.0211 12.305 20.2664 12.3683C20.51 12.4307 20.6114 12.5859 20.6114 12.5859C20.6114 12.5859 20.3652 10.9813 19.0719 10.9009C18.7088 10.9333 18.7746 11.1715 18.7746 11.1715C18.7746 11.1715 18.6164 11.2048 18.592 11.3477Z" fill="#5AC268"/>
<path fill-rule="evenodd" clip-rule="evenodd" d="M15.9677 10.0631C14.6956 10.4702 14.841 12.1347 14.841 12.1347C14.841 12.1347 14.9041 11.9538 15.1325 11.8301C15.3615 11.7053 15.8808 11.6397 16.2861 11.2987C16.6917 10.9586 16.615 10.5263 16.5546 10.3895C16.4969 10.2519 16.3308 10.259 16.3308 10.259C16.3308 10.259 16.3387 10.004 15.9677 10.0631Z" fill="#5AC268"/>
<path fill-rule="evenodd" clip-rule="evenodd" d="M10.8991 2.43503C11.3459 2.71436 11.7239 2.50018 11.8326 2.39914C11.9408 2.29858 11.8813 2.14048 11.8813 2.14048C11.8813 2.14048 12.1206 2.06573 11.9448 1.72835C11.1553 0.635073 9.6543 1.31357 9.6543 1.31357C9.6543 1.31357 9.84238 1.31554 10.0321 1.49589C10.2228 1.67569 10.4512 2.15516 10.8991 2.43503Z" fill="#5AC268"/>
<path fill-rule="evenodd" clip-rule="evenodd" d="M11.9341 2.75268C10.6008 2.71278 10.2012 4.33334 10.2012 4.33334C10.2012 4.33334 10.3188 4.18378 10.5751 4.14285C10.8318 4.10143 11.3437 4.21301 11.8367 4.02673C12.3289 3.84087 12.3954 3.40527 12.3839 3.25732C12.373 3.10824 12.2131 3.05981 12.2131 3.05981C12.2131 3.05981 12.303 2.82082 11.9341 2.75268Z" fill="#5AC268"/>
<path fill-rule="evenodd" clip-rule="evenodd" d="M18.361 9.38824C20.016 8.174 19.8531 6.2889 19.4821 4.97438C18.7195 2.27924 15.2679 0.317639 11.3575 0.513468C13.9113 1.84711 13.3855 4.43347 13.5608 6.18612C13.7574 8.51398 15.464 9.78745 16.4795 9.90587C17.0416 7.75815 16.704 5.705 15.9194 3.53754C17.6657 6.1229 18.6172 12.7407 14.6289 15.6599L14.5489 15.7036C11.8528 15.9536 9.15366 15.8287 6.45149 15.3599V9.7083C6.45149 9.56978 6.52193 9.44114 6.63773 9.36822L11.4182 6.35663C11.545 6.27674 11.7053 6.27674 11.8322 6.35656L12.2608 6.62647C12.5339 6.79846 12.8801 6.57893 12.8529 6.25336C12.8526 6.25052 12.8524 6.24771 12.8521 6.24484C12.8215 5.93611 12.8099 5.62502 12.8028 5.3135C12.7998 5.17814 12.7299 5.05353 12.6168 4.98225L11.8322 4.48807C11.7053 4.40822 11.545 4.40822 11.4182 4.4881L2.67592 9.99472C2.49117 10.111 2.43423 10.3576 2.54861 10.5455L2.95686 11.2158C3.07112 11.4035 3.31335 11.4614 3.49797 11.3452L4.28983 10.8468C4.55177 10.6819 4.88989 10.8736 4.88989 11.1869V15.0506C3.46547 14.7343 2.04024 14.3247 0.614258 13.8249C6.69612 18.8128 16.1157 18.5988 22.2569 13.9387C20.959 14.4177 19.6604 14.8021 18.361 15.0965V9.38824Z" fill="black"/>
<path fill-rule="evenodd" clip-rule="evenodd" d="M10.9814 11.5444H10.2317C10.0207 11.5444 9.84961 11.7185 9.84961 11.9332V12.6968C9.84961 12.9115 10.0207 13.0856 10.2317 13.0856H10.9814C11.1924 13.0856 11.3635 12.9115 11.3635 12.6968V11.9332C11.3635 11.7185 11.1924 11.5444 10.9814 11.5444Z" fill="#5AC268"/>
<path fill-rule="evenodd" clip-rule="evenodd" d="M12.9111 11.5444H12.1616C11.9505 11.5444 11.7793 11.7185 11.7793 11.9332V12.6968C11.7793 12.9115 11.9505 13.0856 12.1616 13.0856H12.9111C13.1222 13.0856 13.2933 12.9115 13.2933 12.6968V11.9332C13.2933 11.7185 13.1222 11.5444 12.9111 11.5444Z" fill="#5AC268"/>
<path fill-rule="evenodd" clip-rule="evenodd" d="M13.2933 9.97128C13.2933 9.75653 13.1223 9.58252 12.9113 9.58252H12.1616C11.9505 9.58252 11.7793 9.75653 11.7793 9.97128V10.7338C11.7793 10.9485 11.9505 11.1226 12.1616 11.1226H12.9113C13.1223 11.1226 13.2933 10.9485 13.2933 10.7338V9.97128Z" fill="#5AC268"/>
<path fill-rule="evenodd" clip-rule="evenodd" d="M11.2229 9.97128C11.2229 9.75653 11.0518 9.58252 10.8407 9.58252H10.091C9.88004 9.58252 9.70898 9.75653 9.70898 9.97128V10.7338C9.70898 10.9485 9.88004 11.1226 10.091 11.1226H10.8407C11.0518 11.1226 11.2229 10.9485 11.2229 10.7338V9.97128Z" fill="#5AC268"/>
</svg>
