<svg width="148" height="118" viewBox="0 0 148 118" fill="none" xmlns="http://www.w3.org/2000/svg">
<path d="M2.81329 107.967L9.94187 91.7067H10.4425L17.9526 109.027C18.2297 109.665 18.495 110.136 18.7513 110.446C19.0046 110.75 19.2698 110.947 19.55 111.042C19.8271 111.131 20.2056 111.173 20.6824 111.173V111.674H12.8386V111.173C13.5062 111.173 14.0068 111.054 14.3406 110.816C14.6744 110.571 14.8413 110.243 14.8413 109.838C14.8413 109.48 14.7161 109.045 14.4717 108.527L13.0293 105.237H5.31663L3.73118 108.884C3.54045 109.26 3.44508 109.594 3.44508 109.886C3.44508 110.744 4.13052 111.173 5.50737 111.173V111.674H0V111.173C0.458948 111.12 0.834449 110.982 1.12055 110.768C1.4126 110.553 1.67486 110.243 1.90731 109.838C2.13679 109.427 2.43778 108.801 2.81329 107.967ZM12.5883 104.188L9.19086 96.4153L5.79346 104.188H12.5883Z" fill="black"/>
<path d="M28.0882 98.4419C28.881 98.4419 29.62 98.582 30.3055 98.8591C30.9969 99.1393 31.5393 99.5088 31.9386 99.9677C32.335 100.421 32.5347 100.907 32.5347 101.422C32.5347 101.756 32.4065 102.036 32.1532 102.257C31.9058 102.48 31.587 102.59 31.1995 102.59C30.3085 102.59 29.8167 102.09 29.7214 101.088C29.6886 100.629 29.5068 100.212 29.173 99.8366C28.8392 99.4641 28.3177 99.2763 27.6114 99.2763C26.5147 99.2763 25.6326 99.7144 24.965 100.588C24.2974 101.464 23.9637 102.623 23.9637 104.068C23.9637 105.803 24.372 107.192 25.1915 108.241C26.0081 109.284 27.0929 109.802 28.4459 109.802C29.4472 109.802 30.2846 109.525 30.9611 108.968C31.6436 108.414 32.1323 107.645 32.4274 106.667L32.8684 106.858C32.5019 108.417 31.8224 109.677 30.83 110.637C29.8346 111.59 28.7081 112.067 27.4445 112.067C26.3627 112.067 25.3852 111.781 24.512 111.209C23.6448 110.631 22.9653 109.835 22.4736 108.825C21.9789 107.809 21.7345 106.661 21.7345 105.38C21.7345 104.045 22.0027 102.853 22.5451 101.804C23.0845 100.755 23.8355 99.932 24.7981 99.3359C25.7577 98.7399 26.8544 98.4419 28.0882 98.4419Z" fill="black"/>
<path d="M40.828 98.4419C41.3823 98.4419 41.9039 98.5134 42.3896 98.6565C42.8724 98.7936 43.3731 99.02 43.8917 99.3359C44.5264 99.1154 45.0599 98.8174 45.489 98.4419H45.9539V114.594C45.9539 115.316 46.0195 115.852 46.1566 116.204C46.2996 116.561 46.5142 116.794 46.8003 116.907C47.0924 117.017 47.5185 117.074 48.0758 117.074V117.575H41.3287V117.074H41.6148C42.1542 117.074 42.5625 117.014 42.8426 116.895C43.1198 116.776 43.3254 116.538 43.4625 116.18C43.6056 115.828 43.6771 115.301 43.6771 114.594V109.588H43.6175C42.9887 110.369 42.2973 110.977 41.5433 111.412C40.7863 111.847 40.0413 112.067 39.3022 112.067C38.3545 112.067 37.5022 111.787 36.7392 111.233C35.9763 110.678 35.3743 109.91 34.9392 108.932C34.5011 107.955 34.2836 106.876 34.2836 105.69C34.2836 104.355 34.5697 103.136 35.1419 102.03C35.72 100.927 36.5127 100.051 37.5141 99.4075C38.5214 98.7638 39.627 98.4419 40.828 98.4419ZM36.6558 104.819C36.6558 106.417 37.0373 107.701 37.8002 108.67C38.5631 109.632 39.5644 110.112 40.8042 110.112C41.43 110.112 41.9545 110.005 42.3777 109.79C42.7979 109.576 43.2301 109.239 43.6771 108.777V102.233C43.6771 101.44 43.4148 100.755 42.8903 100.182C42.3718 99.6042 41.6029 99.3121 40.5777 99.3121C39.3767 99.3121 38.423 99.8366 37.7167 100.886C37.0075 101.935 36.6558 103.246 36.6558 104.819Z" fill="black"/>
<path d="M53.7489 108.002C53.7489 108.67 53.9515 109.218 54.3568 109.647C54.7681 110.07 55.2688 110.279 55.8589 110.279C56.3983 110.279 56.9556 110.136 57.5278 109.85C58.1059 109.564 58.6543 109.144 59.1728 108.586V100.874C59.1728 99.7948 58.541 99.2524 57.2774 99.2524H57.0032V98.7517H61.4616V108.67C61.4616 109.004 61.557 109.343 61.7477 109.683C61.9444 110.026 62.2603 110.196 62.6894 110.196C62.9278 110.196 63.2318 110.124 63.6073 109.981V110.506L59.7092 112.008H59.1728V109.278H59.1251C57.6142 111.137 56.1628 112.067 54.7741 112.067C54.0648 112.067 53.4628 111.888 52.9621 111.531C52.4615 111.167 52.083 110.705 51.8297 110.148C51.5823 109.585 51.4601 109.015 51.4601 108.443V101.088C51.4601 100.367 51.2962 99.8812 50.9714 99.6338C50.6525 99.3805 50.1488 99.2524 49.4574 99.2524H49.1237V98.7517H53.7489V108.002Z" fill="black"/>
<path d="M67.7784 91.6232C68.1837 91.6232 68.5234 91.7632 68.8035 92.0404C69.0807 92.3205 69.2208 92.6543 69.2208 93.0417C69.2208 93.456 69.0807 93.8017 68.8035 94.0788C68.5234 94.359 68.1837 94.4961 67.7784 94.4961C67.3879 94.4961 67.0542 94.359 66.777 94.0788C66.4969 93.8017 66.3598 93.456 66.3598 93.0417C66.3598 92.6543 66.4969 92.3205 66.777 92.0404C67.0542 91.7632 67.3879 91.6232 67.7784 91.6232ZM68.9943 108.777C68.9943 109.692 69.1403 110.315 69.4353 110.649C69.7363 110.982 70.2221 111.158 70.8897 111.173V111.674H64.6313V111.173C65.3942 111.173 65.9306 111 66.2406 110.649C66.5565 110.291 66.7174 109.647 66.7174 108.717V101.982C66.7174 101.482 66.6042 101.076 66.3836 100.766C66.1601 100.45 65.8144 100.29 65.3465 100.29C65.1469 100.29 64.9651 100.334 64.7982 100.421L64.6313 99.92L68.4936 98.4418H68.9943V108.777Z" fill="black"/>
<path d="M76.7639 98.4419C77.3033 98.4419 77.8516 98.5373 78.4089 98.728C78.7963 98.8561 79.1122 98.9187 79.3506 98.9187C79.5175 98.9187 79.6963 98.8651 79.8871 98.7518H80.3877V102.674H79.8871C79.7351 101.658 79.3685 100.832 78.7904 100.194C78.2182 99.5505 77.5208 99.2287 76.7043 99.2287C76.0605 99.2287 75.5271 99.3896 75.1069 99.7055C74.6926 100.015 74.487 100.442 74.487 100.981C74.487 101.41 74.6002 101.78 74.8327 102.09C75.0622 102.394 75.384 102.674 75.7983 102.936C76.2185 103.192 76.8741 103.553 77.7652 104.021C78.9155 104.635 79.7977 105.237 80.4116 105.833C81.0225 106.423 81.3295 107.216 81.3295 108.217C81.3295 109.108 81.103 109.844 80.65 110.422C80.197 110.994 79.6487 111.412 79.0049 111.674C78.3672 111.936 77.7592 112.067 77.1811 112.067C76.6238 112.067 75.8728 111.936 74.9281 111.674C74.4989 111.549 74.2128 111.483 74.0698 111.483C73.8224 111.483 73.6555 111.549 73.5691 111.674H72.9731V107.335H73.4499C73.584 108.479 74.0012 109.409 74.7016 110.124C75.4079 110.839 76.2453 111.197 77.2168 111.197C77.789 111.197 78.2837 111.015 78.7069 110.649C79.1361 110.276 79.3506 109.811 79.3506 109.254C79.3506 108.604 79.1629 108.095 78.7904 107.728C78.4238 107.356 78.0155 107.034 77.5625 106.763C77.1096 106.494 76.8056 106.319 76.6566 106.238C76.5761 106.184 76.3138 106.035 75.8698 105.797C75.2022 105.424 74.6688 105.094 74.2724 104.808C73.8731 104.521 73.5393 104.149 73.2711 103.687C72.9999 103.219 72.8658 102.644 72.8658 101.959C72.8658 100.918 73.2294 100.072 73.9625 99.4194C74.7016 98.7697 75.6344 98.4419 76.7639 98.4419Z" fill="black"/>
<path d="M86.0378 91.6232C86.4431 91.6232 86.7828 91.7632 87.0629 92.0404C87.3401 92.3205 87.4802 92.6543 87.4802 93.0417C87.4802 93.456 87.3401 93.8017 87.0629 94.0788C86.7828 94.359 86.4431 94.4961 86.0378 94.4961C85.6473 94.4961 85.3136 94.359 85.0364 94.0788C84.7563 93.8017 84.6192 93.456 84.6192 93.0417C84.6192 92.6543 84.7563 92.3205 85.0364 92.0404C85.3136 91.7632 85.6473 91.6232 86.0378 91.6232ZM87.2537 108.777C87.2537 109.692 87.3997 110.315 87.6947 110.649C87.9957 110.982 88.4815 111.158 89.1491 111.173V111.674H82.8907V111.173C83.6536 111.173 84.19 111 84.5 110.649C84.8159 110.291 84.9768 109.647 84.9768 108.717V101.982C84.9768 101.482 84.8636 101.076 84.643 100.766C84.4195 100.45 84.0738 100.29 83.6059 100.29C83.4063 100.29 83.2245 100.334 83.0576 100.421L82.8907 99.92L86.753 98.4418H87.2537V108.777Z" fill="black"/>
<path d="M94.4153 94.663H94.8563V98.7518H97.7769V99.622H94.8563V108.586C94.8563 109.063 94.9934 109.492 95.2736 109.874C95.5507 110.255 95.9411 110.446 96.4418 110.446C96.7756 110.446 97.0736 110.371 97.3358 110.219C97.5981 110.062 97.8753 109.784 98.1703 109.385H98.7306C98.2448 110.285 97.7233 110.956 97.169 111.4C96.6117 111.844 95.965 112.067 95.2259 112.067C94.4063 112.067 93.7596 111.763 93.2828 111.161C92.8119 110.559 92.5795 109.737 92.5795 108.694V99.622H90.6006V99.0617C91.5454 98.6743 92.3411 98.1051 92.9848 97.357C93.6345 96.6031 94.1113 95.706 94.4153 94.663Z" fill="black"/>
<path d="M102.85 91.6232C103.255 91.6232 103.595 91.7632 103.875 92.0404C104.152 92.3205 104.292 92.6543 104.292 93.0417C104.292 93.456 104.152 93.8017 103.875 94.0788C103.595 94.359 103.255 94.4961 102.85 94.4961C102.459 94.4961 102.126 94.359 101.848 94.0788C101.568 93.8017 101.431 93.456 101.431 93.0417C101.431 92.6543 101.568 92.3205 101.848 92.0404C102.126 91.7632 102.459 91.6232 102.85 91.6232ZM104.066 108.777C104.066 109.692 104.212 110.315 104.507 110.649C104.808 110.982 105.293 111.158 105.961 111.173V111.674H99.7026V111.173C100.466 111.173 101.002 111 101.312 110.649C101.628 110.291 101.789 109.647 101.789 108.717V101.982C101.789 101.482 101.676 101.076 101.455 100.766C101.231 100.45 100.886 100.29 100.418 100.29C100.218 100.29 100.036 100.334 99.8695 100.421L99.7026 99.92L103.565 98.4418H104.066V108.777Z" fill="black"/>
<path d="M114.541 98.4419C115.638 98.4419 116.663 98.7369 117.617 99.324C118.57 99.9141 119.327 100.695 119.894 101.672C120.466 102.644 120.752 103.684 120.752 104.796C120.752 106.101 120.445 107.308 119.834 108.42C119.22 109.534 118.398 110.419 117.366 111.078C116.332 111.736 115.233 112.067 114.064 112.067C112.95 112.067 111.913 111.775 110.953 111.197C109.999 110.61 109.242 109.82 108.688 108.825C108.131 107.832 107.854 106.748 107.854 105.57C107.854 104.316 108.158 103.139 108.772 102.042C109.383 100.945 110.205 100.072 111.239 99.4194C112.27 98.7697 113.373 98.4419 114.541 98.4419ZM110.357 104.462C110.357 105.559 110.527 106.614 110.87 107.621C111.218 108.631 111.716 109.463 112.36 110.112C113.009 110.765 113.793 111.09 114.708 111.09C115.763 111.09 116.615 110.622 117.259 109.683C117.909 108.747 118.237 107.508 118.237 105.964C118.237 104.742 118.049 103.633 117.676 102.638C117.31 101.646 116.794 100.862 116.127 100.29C115.459 99.7114 114.696 99.4194 113.838 99.4194C112.78 99.4194 111.934 99.8783 111.299 100.79C110.67 101.696 110.357 102.921 110.357 104.462Z" fill="black"/>
<path d="M126.949 101.172C127.918 100.141 128.708 99.4283 129.322 99.0379C129.933 98.6416 130.609 98.4419 131.348 98.4419C132.165 98.4419 132.826 98.6624 133.327 99.0975C133.828 99.5356 134.188 100.072 134.412 100.707C134.632 101.336 134.746 101.956 134.746 102.566V108.718C134.746 109.671 134.892 110.312 135.187 110.637C135.488 110.956 136 111.134 136.724 111.173V111.674H130.204V111.173C130.8 111.173 131.256 111.111 131.575 110.982C131.891 110.848 132.117 110.61 132.254 110.267C132.397 109.927 132.469 109.409 132.469 108.718V102.459C132.469 101.863 132.272 101.321 131.885 100.826C131.494 100.334 130.955 100.087 130.263 100.087C129.691 100.087 129.143 100.242 128.618 100.552C128.1 100.856 127.545 101.324 126.949 101.959V108.718C126.949 109.689 127.107 110.336 127.426 110.661C127.742 110.988 128.29 111.158 129.071 111.173V111.674H122.658V111.173C123.236 111.12 123.665 111.018 123.945 110.875C124.223 110.726 124.413 110.491 124.518 110.172C124.619 109.856 124.673 109.397 124.673 108.801V101.875C124.673 101.446 124.577 101.076 124.386 100.766C124.202 100.451 123.904 100.29 123.492 100.29C123.308 100.29 123.138 100.322 122.98 100.385C122.819 100.451 122.712 100.489 122.658 100.504L122.467 99.9797L126.473 98.4419H126.949V101.172Z" fill="black"/>
<path d="M142.564 98.4419C143.104 98.4419 143.652 98.5373 144.209 98.728C144.597 98.8561 144.913 98.9187 145.151 98.9187C145.318 98.9187 145.497 98.8651 145.688 98.7518H146.188V102.674H145.688C145.536 101.658 145.169 100.832 144.591 100.194C144.019 99.5505 143.321 99.2287 142.505 99.2287C141.861 99.2287 141.328 99.3896 140.907 99.7055C140.493 100.015 140.288 100.442 140.288 100.981C140.288 101.41 140.401 101.78 140.633 102.09C140.863 102.394 141.185 102.674 141.599 102.936C142.019 103.192 142.675 103.553 143.566 104.021C144.716 104.635 145.598 105.237 146.212 105.833C146.823 106.423 147.13 107.216 147.13 108.217C147.13 109.108 146.904 109.844 146.451 110.422C145.998 110.994 145.449 111.412 144.805 111.674C144.168 111.936 143.56 112.067 142.982 112.067C142.424 112.067 141.673 111.936 140.729 111.674C140.299 111.549 140.013 111.483 139.87 111.483C139.623 111.483 139.456 111.549 139.37 111.674H138.774V107.335H139.25C139.385 108.479 139.802 109.409 140.502 110.124C141.208 110.839 142.046 111.197 143.017 111.197C143.59 111.197 144.084 111.015 144.507 110.649C144.937 110.276 145.151 109.811 145.151 109.254C145.151 108.604 144.963 108.095 144.591 107.728C144.224 107.356 143.816 107.034 143.363 106.763C142.91 106.494 142.606 106.319 142.457 106.238C142.377 106.184 142.114 106.035 141.67 105.797C141.003 105.424 140.469 105.094 140.073 104.808C139.674 104.521 139.34 104.149 139.072 103.687C138.8 103.219 138.666 102.644 138.666 101.959C138.666 100.918 139.03 100.072 139.763 99.4194C140.502 98.7697 141.435 98.4419 142.564 98.4419Z" fill="black"/>
<path d="M21.4254 81.5727L22.534 79.6535C22.9065 79.9097 23.428 80.1422 24.0956 80.3568C24.7632 80.5713 25.541 80.6786 26.432 80.6786C27.8059 80.6786 28.7804 80.473 29.3526 80.0588C29.9308 79.6386 30.2228 79.0574 30.2228 78.3183C30.2228 77.9458 30.1424 77.4839 29.9844 76.9355C29.8235 76.3872 29.4838 75.6451 28.9592 74.7064C28.4407 73.7706 27.648 72.5428 26.5751 71.0229L28.4943 69.7593C29.9636 71.8037 30.9917 73.5381 31.5818 74.9686C32.1778 76.3991 32.4758 77.5614 32.4758 78.4495C32.4758 79.2124 32.2881 79.9395 31.9156 80.6309C31.549 81.3164 30.9291 81.8796 30.0559 82.3237C29.1798 82.7707 27.9728 82.9912 26.432 82.9912C25.4128 82.9912 24.4681 82.8661 23.5949 82.6217C22.7188 82.3684 21.9975 82.0197 21.4254 81.5727ZM26.4678 67.2321C26.0685 67.2321 25.7347 67.098 25.4665 66.8268C25.2042 66.5586 25.0731 66.2367 25.0731 65.8612C25.0731 65.4976 25.2042 65.1758 25.4665 64.8956C25.7347 64.6185 26.0685 64.4784 26.4678 64.4784C26.8314 64.4784 27.1503 64.6185 27.4215 64.8956C27.6897 65.1758 27.8268 65.4976 27.8268 65.8612C27.8268 66.2367 27.6897 66.5586 27.4215 66.8268C27.1503 67.098 26.8314 67.2321 26.4678 67.2321Z" fill="black"/>
<path d="M36.2878 82.8244L35.7275 62.9407H37.9806L38.5408 82.8244H36.2878Z" fill="black"/>
<path d="M41.9587 89.2259L41.4581 86.949C42.6084 86.797 43.6634 86.5795 44.6171 86.2934C45.5767 86.0073 46.3992 85.602 47.0846 85.0775C47.776 84.5589 48.2886 83.8556 48.6224 82.9675H46.8343C45.9999 82.9675 45.225 82.8513 44.5098 82.6218C43.7945 82.3834 43.2164 82.0079 42.7813 81.4893C42.3521 80.9648 42.1375 80.2854 42.1375 79.4509C42.1375 78.4347 42.3402 77.4691 42.7455 76.5542C43.1508 75.6333 43.7051 74.8853 44.4144 74.3131C45.1207 73.7349 45.9194 73.4429 46.8105 73.4429C48.089 73.4429 49.1499 74.0031 49.9933 75.1237C50.8426 76.2442 51.2688 77.9668 51.2688 80.2854C51.2688 80.4224 51.2688 80.5536 51.2688 80.6787H53.7722C54.1596 80.6787 54.4427 80.786 54.6185 81.0006C54.7914 81.2152 54.8808 81.4715 54.8808 81.7635C54.8808 82.0675 54.7497 82.3447 54.4874 82.598C54.2311 82.8423 53.9033 82.9675 53.498 82.9675H50.935C49.9873 86.5676 46.9952 88.6537 41.9587 89.2259ZM47.8952 80.6787H49.0635C49.0873 80.4969 49.0992 80.3092 49.0992 80.1185C49.0992 78.8638 48.8638 77.8178 48.3959 76.9833C47.934 76.1429 47.329 75.7197 46.584 75.7197C46.1936 75.7197 45.827 75.8717 45.4873 76.1727C45.1445 76.4678 44.8704 76.8641 44.6647 77.3648C44.4561 77.8655 44.3548 78.4138 44.3548 79.0098C44.3548 79.6625 44.6469 80.1036 45.2369 80.333C45.824 80.5655 46.7091 80.6787 47.8952 80.6787Z" fill="black"/>
<path d="M53.4872 82.9675L53.7614 80.6787H61.2834C61.6708 80.6787 61.9539 80.786 62.1298 81.0006C62.3115 81.2151 62.4039 81.4714 62.4039 81.7635C62.4039 82.0675 62.2728 82.3446 62.0105 82.5979C61.7483 82.8423 61.4145 82.9675 61.0092 82.9675H53.4872Z" fill="black"/>
<path d="M61.0026 82.9675L61.2529 80.6787C63.1662 80.6787 65.0228 80.3986 66.8199 79.8324C68.6229 79.2691 70.2679 78.4674 71.755 77.4244C71.0309 76.7896 70.1457 76.277 69.0967 75.8866C68.0477 75.4992 66.8914 75.3025 65.6278 75.3025C65.1569 75.3025 64.7486 75.3263 64.4 75.374C64.0483 75.4217 63.6251 75.5022 63.1244 75.6124L62.6715 73.4905C63.7115 73.1806 64.698 73.0256 65.6278 73.0256C66.5874 73.0256 67.4576 73.1419 68.2384 73.3713C69.0163 73.6038 69.7285 73.8839 70.3722 74.2177C71.016 74.5515 71.618 74.8853 72.1842 75.219C72.7474 75.5528 73.2988 75.8389 73.8412 76.0773C74.3806 76.3098 74.9379 76.423 75.5101 76.423H76.0942L76.2849 78.4257C75.7127 78.4257 75.1554 78.4913 74.616 78.6164C74.9736 79.4509 75.4743 80.0052 76.118 80.2734C76.7677 80.5446 77.7333 80.6787 79.0147 80.6787C79.4022 80.6787 79.6853 80.786 79.8611 81.0006C80.0429 81.2152 80.1353 81.4715 80.1353 81.7635C80.1353 82.0675 80.0042 82.3446 79.7419 82.598C79.4797 82.8423 79.1459 82.9675 78.7406 82.9675C77.7392 82.9675 76.8392 82.8781 76.0465 82.7052C75.2597 82.5235 74.5862 82.1688 74.0319 81.6443C73.4746 81.1138 73.0663 80.3181 72.8041 79.2602C72.1037 79.5939 71.3855 79.9724 70.6464 80.3926C69.9133 80.8069 69.1027 81.2092 68.2146 81.5966C67.3235 81.987 66.2954 82.3119 65.1271 82.5741C63.9589 82.8364 62.5821 82.9675 61.0026 82.9675Z" fill="black"/>
<path d="M78.733 82.9675L79.0072 80.6787H86.5292C86.9166 80.6787 87.1997 80.786 87.3755 81.0006C87.5573 81.2151 87.6497 81.4714 87.6497 81.7635C87.6497 82.0675 87.5186 82.3446 87.2563 82.5979C86.9941 82.8423 86.6603 82.9675 86.255 82.9675H78.733Z" fill="black"/>
<path d="M86.2484 82.9674L86.5225 80.6787C87.4523 80.6787 88.1735 80.6131 88.6921 80.476C89.2166 80.333 89.613 80.0648 89.8842 79.6654C90.1524 79.269 90.3729 78.6879 90.5398 77.925C90.7067 77.1621 90.9093 76.1697 91.1478 74.9448L93.3173 75.362C93.2041 75.8627 93.0789 76.4409 92.9359 77.0905C92.7988 77.7432 92.7332 78.2915 92.7332 78.7356C92.7332 79.0157 92.7511 79.272 92.7928 79.5104C92.8316 79.7489 92.9716 79.9515 93.21 80.1184C93.4485 80.2853 93.8538 80.4224 94.426 80.5237C95.0041 80.628 95.8356 80.6787 96.9174 80.6787C97.3048 80.6787 97.5879 80.786 97.7638 81.0005C97.9366 81.2151 98.026 81.4714 98.026 81.7635C98.026 82.0674 97.8949 82.3446 97.6326 82.5979C97.3763 82.8423 97.0426 82.9674 96.6313 82.9674C95.4213 82.9674 94.4796 82.8989 93.8061 82.7648C93.1296 82.6217 92.6289 82.4161 92.3041 82.1449C91.9763 81.8767 91.7438 81.537 91.6007 81.1317C91.0584 81.8886 90.3908 82.3833 89.5981 82.6217C88.8113 82.8512 87.6937 82.9674 86.2484 82.9674ZM93.6869 72.0719C93.2965 72.0719 92.9657 71.9378 92.6975 71.6666C92.4263 71.3984 92.2921 71.0765 92.2921 70.701C92.2921 70.3375 92.4263 70.0156 92.6975 69.7355C92.9657 69.4583 93.2965 69.3182 93.6869 69.3182C94.0505 69.3182 94.3693 69.4583 94.6405 69.7355C94.9087 70.0156 95.0458 70.3375 95.0458 70.701C95.0458 71.0765 94.9087 71.3984 94.6405 71.6666C94.3693 71.9378 94.0505 72.0719 93.6869 72.0719ZM89.8722 72.0719C89.4729 72.0719 89.1391 71.9378 88.8709 71.6666C88.6087 71.3984 88.4775 71.0765 88.4775 70.701C88.4775 70.3375 88.6087 70.0156 88.8709 69.7355C89.1391 69.4583 89.4729 69.3182 89.8722 69.3182C90.2358 69.3182 90.5547 69.4583 90.8259 69.7355C91.0941 70.0156 91.2312 70.3375 91.2312 70.701C91.2312 71.0765 91.0941 71.3984 90.8259 71.6666C90.5547 71.9378 90.2358 72.0719 89.8722 72.0719Z" fill="black"/>
<path d="M96.6305 82.9675L96.9047 80.6787H104.427C104.814 80.6787 105.097 80.786 105.273 81.0006C105.455 81.2151 105.547 81.4714 105.547 81.7635C105.547 82.0675 105.416 82.3446 105.154 82.5979C104.892 82.8423 104.558 82.9675 104.152 82.9675H96.6305Z" fill="black"/>
<path d="M104.146 82.9674L104.42 80.6786C105.016 80.6786 105.499 80.6398 105.874 80.5594C106.247 80.473 106.557 80.2584 106.804 79.9157C107.057 79.5759 107.296 79.0335 107.519 78.2944C107.74 77.5494 107.999 76.5063 108.294 75.1712L110.38 75.7553C110.267 76.2322 110.136 76.7984 109.987 77.4481C109.844 78.1007 109.772 78.6849 109.772 79.2004C109.772 79.6713 109.945 80.0349 110.297 80.2971C110.655 80.5534 111.292 80.6786 112.216 80.6786C112.779 80.6786 113.235 80.6369 113.587 80.5475C113.936 80.4521 114.225 80.2316 114.457 79.8799C114.696 79.5223 114.904 78.959 115.089 78.1872C115.271 77.4183 115.465 76.3454 115.673 74.9686L117.795 75.362C117.738 75.6957 117.667 76.107 117.58 76.5898C117.5 77.0666 117.431 77.5434 117.378 78.0203C117.321 78.4971 117.294 78.8905 117.294 79.2004C117.294 79.4627 117.354 79.71 117.473 79.9395C117.592 80.172 117.831 80.3538 118.188 80.4879C118.552 80.616 119.097 80.6786 119.822 80.6786C120.623 80.6786 121.264 80.5236 121.741 80.2137C122.224 79.8978 122.468 79.2541 122.468 78.2825C122.468 77.6001 122.304 76.7209 121.979 75.6481C121.651 74.5692 121.288 73.4993 120.882 72.4414L123.135 71.6069C123.356 72.2208 123.58 72.9033 123.803 73.6573C124.024 74.4053 124.211 75.1533 124.363 75.8984C124.512 76.6375 124.59 77.2871 124.59 77.8415C124.59 79.567 124.161 80.8544 123.302 81.7038C122.45 82.5472 121.282 82.9674 119.798 82.9674C118.773 82.9674 117.965 82.8303 117.378 82.5621C116.797 82.2938 116.376 81.8707 116.114 81.2985C115.667 81.9839 115.137 82.4309 114.517 82.6455C113.897 82.8601 113.018 82.9674 111.882 82.9674C111.492 82.9674 111.078 82.9197 110.643 82.8243C110.213 82.729 109.811 82.5501 109.439 82.2879C109.063 82.0197 108.774 81.6144 108.568 81.072C108.092 81.8915 107.496 82.4131 106.78 82.6336C106.065 82.8541 105.186 82.9674 104.146 82.9674Z" fill="black"/>
<path d="M128.531 82.8244L127.971 62.9407H130.224L130.784 82.8244H128.531Z" fill="black"/>
<path fill-rule="evenodd" clip-rule="evenodd" d="M73.0812 1.27179C74.7769 -0.42393 77.5217 -0.42393 79.2144 1.27179L92.2288 14.2862C93.9245 15.979 93.9245 18.7237 92.2288 20.4164L79.9684 32.6769C78.2727 34.3726 75.5279 34.3726 73.8352 32.6769L60.8237 19.6654C59.128 17.9727 59.128 15.228 60.8237 13.5352L73.0812 1.27179Z" fill="black"/>
<path fill-rule="evenodd" clip-rule="evenodd" d="M97.2504 26.0042C98.9432 24.3085 101.688 24.3085 103.378 26.0042L116.395 39.0186C118.088 40.7114 118.088 43.4561 116.395 45.1459L104.132 57.4093C102.439 59.105 99.6912 59.105 98.0015 57.4093L84.987 44.3979C83.2943 42.7051 83.2943 39.9604 84.987 38.2647L97.2504 26.0042Z" fill="black"/>
<path fill-rule="evenodd" clip-rule="evenodd" d="M48.9179 26.4692C50.6137 24.7735 53.3584 24.7735 55.0511 26.4692L68.0626 39.4836C69.7553 41.1763 69.7553 43.9211 68.0626 45.6168L55.8021 57.8743C54.1094 59.57 51.3647 59.57 49.6719 57.8743L36.6575 44.8628C34.9648 43.1701 34.9648 40.4253 36.6575 38.7296L48.9179 26.4692Z" fill="black"/>
</svg>
