<svg width="99" height="24" viewBox="0 0 99 24" fill="none" xmlns="http://www.w3.org/2000/svg">
<g clip-path="url(#clip0_46_652)">
<path d="M5.53625 8.43618L5.9848 7.65967C6.13552 7.76336 6.34653 7.85741 6.61662 7.94423C6.88671 8.03104 7.20141 8.07445 7.56194 8.07445C8.11779 8.07445 8.51208 7.99125 8.74358 7.82365C8.9775 7.65364 9.09566 7.41852 9.09566 7.11949C9.09566 6.96877 9.06311 6.78187 8.9992 6.56001C8.93409 6.33815 8.79664 6.03792 8.58442 5.6581C8.37462 5.27949 8.05389 4.78272 7.61981 4.16778L8.39632 3.65654C8.99076 4.48369 9.40675 5.18544 9.64549 5.76421C9.88664 6.34298 10.0072 6.81322 10.0072 7.17254C10.0072 7.48122 9.93126 7.77542 9.78054 8.05516C9.63223 8.33248 9.38143 8.56037 9.02814 8.74003C8.67365 8.9209 8.18531 9.01012 7.56194 9.01012C7.14956 9.01012 6.76734 8.95948 6.41405 8.86061C6.05956 8.75812 5.76776 8.61704 5.53625 8.43618ZM7.5764 2.63405C7.41483 2.63405 7.27979 2.57979 7.17127 2.47007C7.06516 2.36155 7.01211 2.23133 7.01211 2.0794C7.01211 1.9323 7.06516 1.80208 7.17127 1.68873C7.27979 1.5766 7.41483 1.51993 7.5764 1.51993C7.72351 1.51993 7.85252 1.5766 7.96225 1.68873C8.07077 1.80208 8.12623 1.9323 8.12623 2.0794C8.12623 2.23133 8.07077 2.36155 7.96225 2.47007C7.85252 2.57979 7.72351 2.63405 7.5764 2.63405Z" fill="#226EF2"/>
<path d="M11.5491 8.9426L11.3224 0.897751H12.2339L12.4606 8.9426H11.5491Z" fill="#226EF2"/>
<path d="M13.8433 11.5326L13.6407 10.6114C14.1062 10.5499 14.533 10.4619 14.9189 10.3461C15.3071 10.2304 15.6399 10.0664 15.9172 9.85417C16.197 9.64437 16.4044 9.35981 16.5394 9.00049H15.8159C15.4783 9.00049 15.1648 8.95347 14.8754 8.86062C14.5861 8.76416 14.3521 8.61224 14.1761 8.40244C14.0025 8.19022 13.9157 7.91531 13.9157 7.57769C13.9157 7.16653 13.9977 6.77586 14.1616 6.40569C14.3256 6.03311 14.5499 5.73047 14.8369 5.49896C15.1226 5.26504 15.4458 5.14688 15.8063 5.14688C16.3236 5.14688 16.7528 5.37356 17.094 5.82693C17.4377 6.28029 17.6101 6.97722 17.6101 7.91531C17.6101 7.97077 17.6101 8.02383 17.6101 8.07447H18.623C18.7797 8.07447 18.8943 8.11788 18.9654 8.20469C19.0353 8.2915 19.0715 8.3952 19.0715 8.51337C19.0715 8.63635 19.0184 8.74849 18.9123 8.85098C18.8086 8.94985 18.676 9.00049 18.512 9.00049H17.4751C17.0916 10.4571 15.8811 11.3011 13.8433 11.5326ZM16.2452 8.07447H16.7179C16.7275 8.00092 16.7323 7.92495 16.7323 7.84778C16.7323 7.34016 16.6371 6.91694 16.4478 6.57932C16.2609 6.2393 16.0161 6.06808 15.7147 6.06808C15.5567 6.06808 15.4084 6.12957 15.2709 6.25136C15.1323 6.37073 15.0213 6.53109 14.9381 6.73366C14.8537 6.93623 14.8127 7.15809 14.8127 7.39924C14.8127 7.6633 14.9309 7.84176 15.1697 7.9346C15.4072 8.02865 15.7653 8.07447 16.2452 8.07447Z" fill="#226EF2"/>
<path d="M18.5079 9.0005L18.6189 8.07448H21.6622C21.819 8.07448 21.9335 8.11789 22.0046 8.2047C22.0782 8.29152 22.1156 8.39521 22.1156 8.51338C22.1156 8.63636 22.0625 8.7485 21.9564 8.85099C21.8503 8.94986 21.7153 9.0005 21.5513 9.0005H18.5079Z" fill="#226EF2"/>
<path d="M21.549 9.0005L21.6502 8.07447C22.4243 8.07447 23.1755 7.96113 23.9026 7.73204C24.6321 7.50415 25.2977 7.1798 25.8993 6.75778C25.6063 6.50095 25.2482 6.29356 24.8238 6.13561C24.3994 5.97886 23.9315 5.89928 23.4203 5.89928C23.2298 5.89928 23.0646 5.90893 22.9235 5.92822C22.7812 5.94751 22.61 5.98007 22.4075 6.02468L22.2242 5.16618C22.645 5.04078 23.0441 4.97808 23.4203 4.97808C23.8085 4.97808 24.1606 5.0251 24.4765 5.11795C24.7912 5.21199 25.0794 5.32534 25.3399 5.46038C25.6003 5.59543 25.8439 5.73047 26.073 5.86552C26.3009 6.00056 26.5239 6.11632 26.7434 6.21278C26.9616 6.30683 27.1871 6.35265 27.4186 6.35265H27.6549L27.7321 7.16292C27.5006 7.16292 27.2751 7.18944 27.0569 7.24009C27.2016 7.5777 27.4041 7.80197 27.6646 7.91049C27.9274 8.02021 28.3181 8.07447 28.8366 8.07447C28.9933 8.07447 29.1079 8.11788 29.179 8.2047C29.2526 8.29151 29.2899 8.39521 29.2899 8.51337C29.2899 8.63636 29.2369 8.74849 29.1308 8.85098C29.0247 8.94986 28.8896 9.0005 28.7256 9.0005C28.3205 9.0005 27.9564 8.96433 27.6356 8.89439C27.3173 8.82084 27.0448 8.67735 26.8205 8.46514C26.5951 8.25051 26.4299 7.92858 26.3238 7.50053C26.0404 7.63558 25.7498 7.78871 25.4508 7.95872C25.1542 8.12632 24.8262 8.2891 24.4669 8.44585C24.1064 8.6038 23.6904 8.73523 23.2177 8.84134C22.7451 8.94745 22.188 9.0005 21.549 9.0005Z" fill="#226EF2"/>
<path d="M28.7218 9.0005L28.8327 8.07448H31.8761C32.0328 8.07448 32.1474 8.11789 32.2185 8.2047C32.2921 8.29152 32.3294 8.39521 32.3294 8.51338C32.3294 8.63636 32.2764 8.7485 32.1703 8.85099C32.0642 8.94986 31.9291 9.0005 31.7651 9.0005H28.7218Z" fill="#226EF2"/>
<path d="M31.7628 9.00048L31.8737 8.07446C32.2499 8.07446 32.5417 8.04793 32.7515 7.99247C32.9638 7.93459 33.1241 7.82607 33.2338 7.6645C33.3424 7.50413 33.4316 7.26901 33.4991 6.96033C33.5666 6.65166 33.6486 6.25014 33.7451 5.75457L34.6229 5.92338C34.5771 6.12595 34.5264 6.35986 34.4685 6.62272C34.4131 6.88678 34.3866 7.10864 34.3866 7.2883C34.3866 7.40164 34.3938 7.50534 34.4107 7.6018C34.4263 7.69826 34.483 7.78025 34.5795 7.84777C34.6759 7.9153 34.8399 7.97076 35.0714 8.01176C35.3053 8.05396 35.6418 8.07446 36.0794 8.07446C36.2362 8.07446 36.3507 8.11787 36.4219 8.20468C36.4918 8.29149 36.528 8.39519 36.528 8.51335C36.528 8.63634 36.4749 8.74848 36.3688 8.85097C36.2651 8.94984 36.1301 9.00048 35.9637 9.00048C35.4742 9.00048 35.0931 8.97275 34.8206 8.91849C34.5469 8.86061 34.3444 8.77742 34.2129 8.66769C34.0803 8.55917 33.9862 8.42172 33.9284 8.25773C33.7089 8.564 33.4388 8.76415 33.1181 8.86061C32.7998 8.95346 32.3476 9.00048 31.7628 9.00048ZM34.7724 4.59222C34.6144 4.59222 34.4806 4.53796 34.3721 4.42823C34.2624 4.31971 34.2081 4.18949 34.2081 4.03757C34.2081 3.89046 34.2624 3.76024 34.3721 3.6469C34.4806 3.53476 34.6144 3.47809 34.7724 3.47809C34.9195 3.47809 35.0485 3.53476 35.1582 3.6469C35.2668 3.76024 35.3222 3.89046 35.3222 4.03757C35.3222 4.18949 35.2668 4.31971 35.1582 4.42823C35.0485 4.53796 34.9195 4.59222 34.7724 4.59222ZM33.229 4.59222C33.0675 4.59222 32.9324 4.53796 32.8239 4.42823C32.7178 4.31971 32.6647 4.18949 32.6647 4.03757C32.6647 3.89046 32.7178 3.76024 32.8239 3.6469C32.9324 3.53476 33.0675 3.47809 33.229 3.47809C33.3761 3.47809 33.5051 3.53476 33.6149 3.6469C33.7234 3.76024 33.7789 3.89046 33.7789 4.03757C33.7789 4.18949 33.7234 4.31971 33.6149 4.42823C33.5051 4.53796 33.3761 4.59222 33.229 4.59222Z" fill="#226EF2"/>
<path d="M35.963 9.0005L36.0739 8.07448H39.1173C39.274 8.07448 39.3886 8.11789 39.4597 8.2047C39.5333 8.29152 39.5707 8.39521 39.5707 8.51338C39.5707 8.63636 39.5176 8.7485 39.4115 8.85099C39.3054 8.94986 39.1703 9.0005 39.0064 9.0005H35.963Z" fill="#226EF2"/>
<path d="M39.004 9.00048L39.115 8.07445C39.3561 8.07445 39.5514 8.05878 39.7034 8.02622C39.8541 7.99126 39.9795 7.90444 40.0796 7.76578C40.1821 7.62832 40.2785 7.40887 40.369 7.10984C40.4582 6.8084 40.5631 6.38639 40.6824 5.84621L41.5265 6.08253C41.4807 6.27546 41.4276 6.50455 41.3673 6.76741C41.3094 7.03147 41.2805 7.2678 41.2805 7.4764C41.2805 7.66691 41.3504 7.81401 41.4927 7.92012C41.6374 8.02381 41.8954 8.07445 42.2692 8.07445C42.4971 8.07445 42.6816 8.05757 42.8239 8.0214C42.965 7.98282 43.0819 7.89359 43.176 7.75131C43.2724 7.60662 43.3568 7.37873 43.4316 7.06644C43.5051 6.75535 43.5835 6.32128 43.6679 5.76421L44.5264 5.92337C44.5035 6.05842 44.4746 6.22481 44.4396 6.42015C44.407 6.61307 44.3793 6.80599 44.3576 6.99891C44.3347 7.19184 44.3239 7.351 44.3239 7.4764C44.3239 7.5825 44.348 7.68258 44.3962 7.77542C44.4444 7.86947 44.5409 7.94303 44.6856 7.99728C44.8327 8.04913 45.0533 8.07445 45.3463 8.07445C45.6707 8.07445 45.9299 8.01175 46.1228 7.88635C46.3182 7.75854 46.4171 7.4981 46.4171 7.10502C46.4171 6.8289 46.3507 6.4732 46.2193 6.03913C46.0867 5.60264 45.9396 5.16977 45.7756 4.74173L46.6871 4.40411C46.7764 4.6525 46.8668 4.92862 46.9572 5.23368C47.0465 5.53632 47.1224 5.83897 47.1839 6.14041C47.2442 6.43944 47.2756 6.7023 47.2756 6.92657C47.2756 7.6247 47.1019 8.14559 46.7547 8.48924C46.4098 8.83047 45.9372 9.00048 45.3367 9.00048C44.9219 9.00048 44.5951 8.94501 44.3576 8.8365C44.1225 8.72798 43.9525 8.55676 43.8464 8.32525C43.6655 8.60258 43.4509 8.78344 43.2001 8.87026C42.9493 8.95707 42.5936 9.00048 42.1342 9.00048C41.9762 9.00048 41.8086 8.98119 41.6326 8.9426C41.459 8.90402 41.2962 8.83167 41.1455 8.72557C40.9935 8.61705 40.8766 8.45306 40.7934 8.23361C40.6005 8.5652 40.3593 8.77621 40.0699 8.86543C39.7805 8.95466 39.4248 9.00048 39.004 9.00048Z" fill="#226EF2"/>
<path d="M48.8704 8.9426L48.6437 0.897751H49.5552L49.7819 8.9426H48.8704Z" fill="#226EF2"/>
<path d="M1.13824 19.145L4.02242 12.5664H4.22499L7.26351 19.5743C7.37565 19.8323 7.48296 20.0228 7.58666 20.1482C7.68915 20.2712 7.79646 20.3508 7.9098 20.3894C8.02194 20.4255 8.17507 20.4424 8.36799 20.4424V20.645H5.19442V20.4424C5.46451 20.4424 5.66708 20.3942 5.80213 20.2977C5.93717 20.1988 6.0047 20.0662 6.0047 19.9022C6.0047 19.7575 5.95405 19.5815 5.85518 19.3717L5.27159 18.0405H2.15108L1.50961 19.5164C1.43245 19.6683 1.39386 19.8034 1.39386 19.9215C1.39386 20.2688 1.67119 20.4424 2.22825 20.4424V20.645H0V20.4424C0.185688 20.4207 0.337613 20.3652 0.453367 20.2784C0.571531 20.1916 0.677638 20.0662 0.771688 19.9022C0.864531 19.7358 0.986314 19.4826 1.13824 19.145ZM5.09314 17.6161L3.71857 14.4715L2.344 17.6161H5.09314Z" fill="#226EF2"/>
<path d="M11.3646 15.2914C11.6854 15.2914 11.9844 15.3481 12.2617 15.4602C12.5415 15.5735 12.7609 15.7231 12.9225 15.9087C13.0828 16.092 13.1636 16.2886 13.1636 16.4972C13.1636 16.6322 13.1118 16.7455 13.0093 16.8348C12.9092 16.9252 12.7802 16.9698 12.6234 16.9698C12.2629 16.9698 12.064 16.7672 12.0254 16.3621C12.0121 16.1764 11.9386 16.0076 11.8035 15.8557C11.6685 15.705 11.4575 15.629 11.1717 15.629C10.728 15.629 10.3711 15.8063 10.101 16.1595C9.8309 16.514 9.69586 16.9831 9.69586 17.5679C9.69586 18.2696 9.86104 18.8315 10.1926 19.2559C10.523 19.678 10.9619 19.8878 11.5093 19.8878C11.9145 19.8878 12.2533 19.7756 12.527 19.5501C12.8031 19.3259 13.0008 19.0148 13.1202 18.6193L13.2987 18.6965C13.1504 19.3271 12.8755 19.8371 12.4739 20.2254C12.0712 20.6112 11.6154 20.8041 11.1042 20.8041C10.6665 20.8041 10.271 20.6884 9.91772 20.4569C9.56684 20.223 9.29193 19.901 9.09297 19.4923C8.89282 19.0811 8.79395 18.6169 8.79395 18.0984C8.79395 17.5582 8.90246 17.0759 9.12191 16.6515C9.34016 16.2271 9.64401 15.8943 10.0335 15.6531C10.4217 15.412 10.8654 15.2914 11.3646 15.2914Z" fill="#226EF2"/>
<path d="M16.5189 15.2914C16.7432 15.2914 16.9542 15.3203 17.1508 15.3782C17.3461 15.4337 17.5487 15.5253 17.7585 15.6531C18.0153 15.5639 18.2311 15.4433 18.4048 15.2914H18.5929V21.8266C18.5929 22.1184 18.6194 22.3355 18.6748 22.4777C18.7327 22.6224 18.8195 22.7165 18.9353 22.7623C19.0535 22.8069 19.2259 22.8298 19.4514 22.8298V23.0324H16.7215V22.8298H16.8373C17.0555 22.8298 17.2207 22.8057 17.334 22.7575C17.4462 22.7092 17.5294 22.6128 17.5848 22.4681C17.6427 22.3258 17.6717 22.1124 17.6717 21.8266V19.8009H17.6475C17.3931 20.1169 17.1134 20.3628 16.8083 20.5389C16.5021 20.7149 16.2006 20.8041 15.9016 20.8041C15.5182 20.8041 15.1733 20.6908 14.8646 20.4665C14.556 20.2423 14.3124 19.9312 14.1364 19.5357C13.9591 19.1402 13.8711 18.7037 13.8711 18.2238C13.8711 17.6836 13.9868 17.1905 14.2184 16.7431C14.4523 16.297 14.773 15.9425 15.1781 15.6821C15.5857 15.4216 16.033 15.2914 16.5189 15.2914ZM14.8309 17.8717C14.8309 18.518 14.9852 19.0377 15.2939 19.4296C15.6026 19.819 16.0077 20.0132 16.5093 20.0132C16.7625 20.0132 16.9747 19.9698 17.1459 19.8829C17.316 19.7961 17.4908 19.6599 17.6717 19.473V16.8251C17.6717 16.5044 17.5655 16.2271 17.3533 15.9956C17.1435 15.7616 16.8324 15.6435 16.4177 15.6435C15.9317 15.6435 15.5459 15.8557 15.2601 16.2801C14.9732 16.7046 14.8309 17.2351 14.8309 17.8717Z" fill="#226EF2"/>
<path d="M21.7463 19.1595C21.7463 19.4296 21.8283 19.6514 21.9923 19.8251C22.1587 19.9963 22.3613 20.0807 22.6 20.0807C22.8183 20.0807 23.0437 20.0228 23.2752 19.907C23.5092 19.7913 23.731 19.6213 23.9408 19.3958V16.2753C23.9408 15.8388 23.6852 15.6194 23.174 15.6194H23.063V15.4168H24.8669V19.4296C24.8669 19.5646 24.9054 19.7021 24.9826 19.8395C25.0622 19.9782 25.19 20.0469 25.3636 20.0469C25.4601 20.0469 25.5831 20.018 25.735 19.9601V20.1723L24.1579 20.78H23.9408V19.6755H23.9215C23.3102 20.4279 22.723 20.8041 22.1611 20.8041C21.8742 20.8041 21.6306 20.7318 21.428 20.5871C21.2255 20.44 21.0723 20.2531 20.9698 20.0276C20.8698 19.7997 20.8203 19.5694 20.8203 19.3379V16.3621C20.8203 16.0703 20.754 15.8738 20.6226 15.7737C20.4936 15.6712 20.2898 15.6194 20.01 15.6194H19.875V15.4168H21.7463V19.1595Z" fill="#226EF2"/>
<path d="M27.4227 12.5326C27.5867 12.5326 27.7241 12.5893 27.8375 12.7014C27.9496 12.8147 28.0063 12.9498 28.0063 13.1065C28.0063 13.2741 27.9496 13.414 27.8375 13.5261C27.7241 13.6395 27.5867 13.6949 27.4227 13.6949C27.2647 13.6949 27.1297 13.6395 27.0176 13.5261C26.9042 13.414 26.8488 13.2741 26.8488 13.1065C26.8488 12.9498 26.9042 12.8147 27.0176 12.7014C27.1297 12.5893 27.2647 12.5326 27.4227 12.5326ZM27.9146 19.473C27.9146 19.8431 27.9737 20.0951 28.0931 20.2302C28.2149 20.3652 28.4114 20.4364 28.6815 20.4424V20.645H26.1494V20.4424C26.4581 20.4424 26.6751 20.3725 26.8005 20.2302C26.9283 20.0855 26.9934 19.825 26.9934 19.4488V16.7238C26.9934 16.5213 26.9476 16.3573 26.8584 16.2319C26.768 16.1041 26.6281 16.0389 26.4388 16.0389C26.358 16.0389 26.2845 16.057 26.2169 16.092L26.1494 15.8894L27.7121 15.2914H27.9146V19.473Z" fill="#226EF2"/>
<path d="M31.0586 15.2914C31.2768 15.2914 31.4987 15.33 31.7242 15.4072C31.8809 15.459 32.0087 15.4843 32.1052 15.4843C32.1727 15.4843 32.2451 15.4626 32.3222 15.4168H32.5248V17.0036H32.3222C32.2607 16.5924 32.1124 16.2584 31.8785 16.0004C31.647 15.7399 31.3648 15.6097 31.0345 15.6097C30.774 15.6097 30.5582 15.6748 30.3882 15.8026C30.2206 15.928 30.1374 16.1005 30.1374 16.3187C30.1374 16.4923 30.1832 16.6419 30.2772 16.7672C30.3701 16.8902 30.5003 17.0036 30.6679 17.1097C30.8379 17.2134 31.1032 17.3593 31.4637 17.5486C31.9291 17.797 32.286 18.0405 32.5344 18.2817C32.7816 18.5204 32.9058 18.8412 32.9058 19.2463C32.9058 19.6068 32.8142 19.9046 32.6309 20.1386C32.4476 20.3701 32.2258 20.5389 31.9653 20.645C31.7073 20.7511 31.4613 20.8041 31.2274 20.8041C31.0019 20.8041 30.6981 20.7511 30.3158 20.645C30.1422 20.5943 30.0264 20.5678 29.9686 20.5678C29.8685 20.5678 29.801 20.5943 29.766 20.645H29.5249V18.8894H29.7178C29.772 19.3524 29.9408 19.7286 30.2242 20.018C30.51 20.3074 30.8488 20.4521 31.2419 20.4521C31.4734 20.4521 31.6735 20.3785 31.8447 20.2302C32.0184 20.0795 32.1052 19.8914 32.1052 19.6659C32.1052 19.403 32.0292 19.1969 31.8785 19.0486C31.7302 18.8978 31.565 18.7676 31.3817 18.6579C31.1985 18.5494 31.0755 18.4782 31.0152 18.4457C30.9826 18.424 30.8765 18.3637 30.6969 18.2672C30.4268 18.1165 30.2109 17.9827 30.0506 17.8669C29.889 17.7512 29.7539 17.6004 29.6454 17.4135C29.5357 17.2242 29.4814 16.9915 29.4814 16.7142C29.4814 16.2934 29.6285 15.9509 29.9252 15.6869C30.2242 15.424 30.6016 15.2914 31.0586 15.2914Z" fill="#226EF2"/>
<path d="M34.8104 12.5326C34.9744 12.5326 35.1118 12.5893 35.2252 12.7014C35.3373 12.8147 35.394 12.9498 35.394 13.1065C35.394 13.2741 35.3373 13.414 35.2252 13.5261C35.1118 13.6395 34.9744 13.6949 34.8104 13.6949C34.6524 13.6949 34.5174 13.6395 34.4053 13.5261C34.2919 13.414 34.2365 13.2741 34.2365 13.1065C34.2365 12.9498 34.2919 12.8147 34.4053 12.7014C34.5174 12.5893 34.6524 12.5326 34.8104 12.5326ZM35.3023 19.473C35.3023 19.8431 35.3614 20.0951 35.4808 20.2302C35.6026 20.3652 35.7991 20.4364 36.0692 20.4424V20.645H33.5371V20.4424C33.8458 20.4424 34.0628 20.3725 34.1882 20.2302C34.316 20.0855 34.3811 19.825 34.3811 19.4488V16.7238C34.3811 16.5213 34.3353 16.3573 34.2461 16.2319C34.1557 16.1041 34.0158 16.0389 33.8265 16.0389C33.7457 16.0389 33.6722 16.057 33.6046 16.092L33.5371 15.8894L35.0998 15.2914H35.3023V19.473Z" fill="#226EF2"/>
<path d="M38.1996 13.7625H38.3781V15.4168H39.5597V15.7689H38.3781V19.3958C38.3781 19.5887 38.4335 19.7623 38.5469 19.9167C38.659 20.071 38.817 20.1482 39.0195 20.1482C39.1546 20.1482 39.2752 20.118 39.3813 20.0565C39.4874 19.9926 39.5995 19.8805 39.7189 19.7189H39.9456C39.749 20.0831 39.538 20.3544 39.3137 20.534C39.0883 20.7137 38.8266 20.8041 38.5276 20.8041C38.196 20.8041 37.9344 20.6811 37.7414 20.4376C37.5509 20.194 37.4569 19.8612 37.4569 19.4392V15.7689H36.6562V15.5422C37.0385 15.3854 37.3604 15.1551 37.6209 14.8525C37.8837 14.5474 38.0766 14.1845 38.1996 13.7625Z" fill="#226EF2"/>
<path d="M41.6122 12.5326C41.7761 12.5326 41.9136 12.5893 42.0269 12.7014C42.1391 12.8147 42.1957 12.9498 42.1957 13.1065C42.1957 13.2741 42.1391 13.414 42.0269 13.5261C41.9136 13.6395 41.7761 13.6949 41.6122 13.6949C41.4542 13.6949 41.3192 13.6395 41.207 13.5261C41.0937 13.414 41.0382 13.2741 41.0382 13.1065C41.0382 12.9498 41.0937 12.8147 41.207 12.7014C41.3192 12.5893 41.4542 12.5326 41.6122 12.5326ZM42.1041 19.473C42.1041 19.8431 42.1632 20.0951 42.2826 20.2302C42.4043 20.3652 42.6009 20.4364 42.871 20.4424V20.645H40.3389V20.4424C40.6475 20.4424 40.8646 20.3725 40.99 20.2302C41.1178 20.0855 41.1829 19.825 41.1829 19.4488V16.7238C41.1829 16.5213 41.1371 16.3573 41.0479 16.2319C40.9574 16.1041 40.8176 16.0389 40.6283 16.0389C40.5475 16.0389 40.4739 16.057 40.4064 16.092L40.3389 15.8894L41.9015 15.2914H42.1041V19.473Z" fill="#226EF2"/>
<path d="M46.3424 15.2914C46.7862 15.2914 47.201 15.4108 47.5868 15.6483C47.9726 15.887 48.2789 16.203 48.508 16.5984C48.7395 16.9915 48.8553 17.4123 48.8553 17.8621C48.8553 18.3902 48.7311 18.8785 48.4839 19.3283C48.2355 19.7792 47.9027 20.1374 47.4855 20.4038C47.0671 20.6703 46.6222 20.8041 46.1495 20.8041C45.6986 20.8041 45.279 20.686 44.8907 20.4521C44.5049 20.2145 44.1986 19.895 43.9743 19.4923C43.7489 19.0908 43.6367 18.6519 43.6367 18.1756C43.6367 17.668 43.7597 17.1917 44.0081 16.748C44.2553 16.3042 44.5881 15.9509 45.0065 15.6869C45.4237 15.424 45.8698 15.2914 46.3424 15.2914ZM44.6496 17.727C44.6496 18.1708 44.7183 18.5976 44.857 19.0051C44.998 19.4139 45.1994 19.7503 45.4598 20.0132C45.7227 20.2772 46.0398 20.4087 46.41 20.4087C46.8368 20.4087 47.1817 20.2193 47.4421 19.8395C47.705 19.4609 47.8376 18.9593 47.8376 18.3347C47.8376 17.8404 47.7616 17.3918 47.6109 16.9891C47.4626 16.5876 47.254 16.2705 46.9839 16.039C46.7138 15.8051 46.4051 15.6869 46.0579 15.6869C45.6298 15.6869 45.2874 15.8726 45.0306 16.2415C44.7762 16.6081 44.6496 17.1037 44.6496 17.727Z" fill="#226EF2"/>
<path d="M51.3633 16.3959C51.7551 15.9787 52.0747 15.6905 52.3231 15.5325C52.5702 15.3722 52.8439 15.2914 53.143 15.2914C53.4734 15.2914 53.741 15.3806 53.9436 15.5567C54.1462 15.7339 54.2921 15.9509 54.3825 16.2078C54.4717 16.4622 54.5175 16.713 54.5175 16.9602V19.4489C54.5175 19.8347 54.5766 20.0939 54.696 20.2254C54.8178 20.3544 55.0252 20.4267 55.3182 20.4424V20.645H52.68V20.4424C52.9211 20.4424 53.1056 20.4171 53.2346 20.3652C53.3624 20.311 53.4541 20.2145 53.5095 20.0759C53.5674 19.9384 53.5963 19.7286 53.5963 19.4489V16.9168C53.5963 16.6756 53.5168 16.4562 53.36 16.256C53.2021 16.0571 52.9838 15.957 52.7041 15.957C52.4726 15.957 52.2507 16.0197 52.0385 16.1451C51.8287 16.2681 51.6044 16.4574 51.3633 16.7142V19.4489C51.3633 19.8419 51.4272 20.1036 51.5562 20.235C51.684 20.3677 51.9059 20.4364 52.2218 20.4424V20.645H49.627V20.4424C49.8609 20.4207 50.0345 20.3797 50.1479 20.3218C50.26 20.2615 50.3372 20.1663 50.3794 20.0373C50.4204 19.9095 50.4421 19.7238 50.4421 19.4826V16.6804C50.4421 16.5068 50.4035 16.3573 50.3263 16.2319C50.2516 16.1041 50.131 16.039 49.9646 16.039C49.8898 16.039 49.8211 16.0522 49.7572 16.0776C49.6921 16.1041 49.6487 16.1198 49.627 16.1258L49.5498 15.9136L51.1703 15.2914H51.3633V16.3959Z" fill="#226EF2"/>
<path fill-rule="evenodd" clip-rule="evenodd" d="M80.5686 0.514559C81.2547 -0.17152 82.3652 -0.17152 83.0501 0.514559L88.3157 5.78012C89.0017 6.465 89.0017 7.5755 88.3157 8.26038L83.3552 13.2209C82.6691 13.907 81.5586 13.907 80.8737 13.2209L75.6093 7.95652C74.9233 7.27165 74.9233 6.16114 75.6093 5.47627L80.5686 0.514559Z" fill="#226EF2"/>
<path fill-rule="evenodd" clip-rule="evenodd" d="M90.3474 10.5212C91.0322 9.83508 92.1428 9.83508 92.8264 10.5212L98.0932 15.7867C98.7781 16.4716 98.7781 17.5821 98.0932 18.2658L93.1315 23.2275C92.4466 23.9136 91.3349 23.9136 90.6512 23.2275L85.3857 17.9631C84.7008 17.2782 84.7008 16.1677 85.3857 15.4817L90.3474 10.5212Z" fill="#226EF2"/>
<path fill-rule="evenodd" clip-rule="evenodd" d="M70.7923 10.7093C71.4784 10.0232 72.5889 10.0232 73.2738 10.7093L78.5382 15.9748C79.223 16.6597 79.223 17.7702 78.5382 18.4563L73.5776 23.4156C72.8928 24.1017 71.7823 24.1017 71.0974 23.4156L65.8318 18.1512C65.147 17.4663 65.147 16.3558 65.8318 15.6698L70.7923 10.7093Z" fill="#226EF2"/>
</g>
<defs>
<clipPath id="clip0_46_652">
<rect width="98.6068" height="23.9301" fill="white" transform="matrix(1 0 0 -1 0 23.9301)"/>
</clipPath>
</defs>
</svg>
