<svg width="603" height="369" viewBox="0 0 603 369" fill="none" xmlns="http://www.w3.org/2000/svg">
<path d="M299.702 1.12094C300.064 1.01079 300.182 1.1288 300.056 1.47499L300.292 1.94706L299.112 3.83534L292.739 21.5379L291.559 26.2586L290.378 33.1036L289.906 42.309L290.142 42.545V46.7936L290.378 47.0297L290.85 52.9305L292.739 63.3161L296.043 75.5899L299.702 85.3853L299.82 84.5592L298.876 80.3106L297.932 71.8133L297.696 71.5773V69.453L297.459 69.2169L297.223 61.8999L296.987 61.6638V55.5269L297.223 55.2909L297.459 48.918L297.696 48.6819V47.0297L298.64 41.8369L300.764 34.2838L301.59 33.2216L302.416 33.5757V35.7L302.652 35.936V50.0981L302.888 50.3342L303.124 58.1233L303.36 58.3593V60.9557L303.596 61.1918L304.068 67.8007L304.304 68.0368L304.541 71.5773L304.777 71.8133L305.013 74.8818L306.429 81.9628V83.143L309.261 96.597L310.913 102.262L311.386 105.33L310.795 105.684L309.733 103.914L307.137 94.9447L305.485 88.0997L303.36 76.7701V75.3538L302.416 70.1611V68.5088L302.18 68.2728V66.6206L301.944 66.3845L301.472 59.0674L301.236 58.8314V55.999L301 55.763L300.646 40.3027L299.348 45.3774V46.7936L298.876 48.6819V50.8062L298.64 51.0423L298.404 63.3161L298.64 63.5521V67.0926L298.876 67.3287V69.925L299.112 70.1611L299.584 76.0619L299.82 76.298V77.7142L300.056 77.9502V79.3664L300.528 81.0187V82.4349L301 84.0871L301.944 91.1682L305.721 100.137L313.628 117.014L313.746 115.952L312.566 110.523L311.858 103.914L311.622 103.678L311.386 98.9573L311.149 98.7213V95.1807L310.913 94.9447V79.3664L311.149 79.1304V76.0619L311.386 75.8259V73.2295L311.622 72.9935L311.858 68.9809L312.802 64.0242V62.608L315.398 50.5702L313.746 49.154C310.677 45.3774 308.396 40.8141 306.901 35.464L305.721 29.3271L305.485 22.01L305.721 21.774V19.4136L306.429 15.401L308.081 9.97224L310.441 5.01551L312.212 2.53714L312.566 3.36327L311.622 5.48758L310.205 11.3884L309.969 14.929L309.733 15.165V23.1902L309.969 23.4262V25.5505L310.205 25.7866L310.441 28.619L311.386 32.8676C312.345 36.3924 313.604 39.6182 315.162 42.545L315.634 44.6693L315.044 45.0234L314.454 44.7873C312.377 41.3884 310.803 37.4152 309.733 32.8676L309.025 29.3271L308.789 25.3145L308.553 25.0785V17.9974L308.789 17.7614V15.6371L309.025 15.401L309.261 12.5686L310.441 7.61189H310.205C308.962 10.224 308.018 13.1351 307.373 16.3452V17.5253L306.901 19.1776V21.5379L306.665 21.774V26.4947L306.901 26.7307L307.137 30.9793L309.025 38.2964C310.677 42.7024 312.841 46.5969 315.516 49.9801L319.411 37.3523L321.181 33.4577L321.889 33.2216L322.715 33.8117L322.951 34.7559L321.299 39.0045L319.883 43.9612L318.939 47.9738V49.154L322.007 51.9864L326.964 58.8314L329.088 63.3161L330.858 69.0989C333.707 62.8991 337.247 57.3916 341.48 52.5765L343.604 51.3963L343.486 51.7504C341.031 57.4781 338.828 63.4577 336.877 69.689L334.517 78.4223L333.573 84.3232L334.517 87.3916L336.641 97.7771V98.9573L337.821 104.858V106.274L338.293 107.927V109.343L338.53 109.579L339.71 121.027L344.784 119.138C345.54 119.327 346.012 119.248 346.201 118.902H350.449C350.732 119.343 351.362 119.422 352.338 119.138L355.052 120.318L356.704 114.064L358.356 105.33L360.481 98.0132C361.881 94.5356 363.887 91.6638 366.5 89.3979C368.073 87.966 370.001 86.9431 372.282 86.3295L372.046 85.0313V80.5466L372.282 80.3106L372.518 74.6457L373.463 69.453L374.407 65.6764L376.767 59.5395L375.351 55.763L371.81 51.9864L371.338 50.5702L371.574 49.6261L373.699 46.7936L373.935 44.4333L373.227 41.3648V38.0604C373.463 37.0375 373.974 36.2901 374.761 35.818L376.413 35.1099H377.593L378.891 35.936L379.127 36.6442L378.537 36.9982C378.286 36.2272 377.577 35.9124 376.413 36.0541L374.643 37.3523L374.171 38.7685V40.1847L374.879 43.2531V46.7936C374.533 48.021 373.903 48.9652 372.991 49.6261L372.755 51.0423C374.863 52.5529 376.397 54.6379 377.357 57.2972L377.711 56.4711L377.947 52.4585L378.655 50.4522C379.363 50.1847 379.6 50.46 379.363 51.2783L379.6 51.9864L378.183 57.8873L377.947 63.08L377.711 63.6701C377.113 63.4341 376.877 63.5521 377.003 64.0242L376.059 66.3845L374.171 75.3538L373.935 78.8944L373.699 79.1304L373.463 85.8574L374.879 85.6213C374.942 84.0321 375.257 82.6945 375.823 81.6088C376.452 81.3885 376.61 81.8212 376.295 82.907L375.823 85.5033L376.295 85.2673L377.239 82.4349L377.003 81.2547L377.947 77.8322L377.475 77.7142V76.0619L378.183 72.5214V69.2169L377.947 68.9809L377.711 64.7323L378.301 63.6701C378.773 63.8117 378.891 63.5364 378.655 62.844L378.891 62.608V57.6512L379.127 57.4152V54.9368L379.6 55.0549V57.6512L379.836 57.8873V70.1611L379.363 70.8692L379.127 73.9376H379.363L380.544 68.0368L380.78 62.1359L381.016 61.8999L381.724 52.6945L382.196 50.3342V48.2099L382.432 47.9738L382.904 43.6072L383.376 43.7252V45.8495L383.14 46.0855V49.39L382.904 49.6261V52.2224L382.668 52.4585V55.0549L382.432 55.2909V57.8873L382.196 58.1233L381.96 62.1359H382.196C383.124 58.8157 384.777 56.2193 387.153 54.3468V49.154L387.625 46.2036L388.097 46.3216V53.4026L388.451 53.5206L388.923 53.2846L388.687 53.7567C388.215 53.678 388.097 54.1894 388.333 55.2909L388.569 55.5269V57.4152C388.333 57.8873 388.097 57.8873 387.861 57.4152L387.271 54.9368C384.769 56.9982 383.234 60.0273 382.668 64.0242L383.14 63.7881L386.563 59.6575L389.395 57.7693V58.0053C387.334 59.091 385.642 60.5466 384.32 62.3719L381.724 67.0926C381.236 67.9424 381 69.0438 381.016 70.3971H381.252C383.644 64.9998 386.987 60.5545 391.283 57.0611L392.581 55.999L392.345 53.8747L393.644 52.3405L394.706 51.9864L394.47 51.1603L393.644 50.9242V51.3963L392.345 51.1603V52.1044H391.991L391.401 51.0423C391.716 49.3113 391.519 48.0918 390.811 47.3837L389.985 47.0297L389.749 46.5576V43.9612C390.158 42.246 390.984 40.9478 392.227 40.0667L397.302 38.1784C397.837 37.5175 397.994 36.3766 397.774 34.7559C397.208 34.4569 396.972 33.8275 397.066 32.8676L400.725 31.0973L402.023 30.0352C403.03 29.3113 403.423 27.9738 403.203 26.0226L402.495 24.3704L404.855 22.01L406.507 10.4443C406.193 10.7118 405.878 10.5545 405.563 9.97224L404.501 8.67405L402.731 10.2083C402.857 10.8062 402.739 11.1603 402.377 11.2704C402.015 10.8456 401.386 10.6882 400.489 10.7984L398.246 12.5686L397.774 13.9848V18.1154C396.751 17.9266 396.043 18.1233 395.65 18.7055C395.729 19.1776 395.217 19.2956 394.116 19.0596H393.644L392.227 19.2956L389.749 21.3019C388.616 23.4734 387.16 25.3224 385.382 26.8487L382.55 28.0289L381.96 28.619L381.724 30.9793L381.96 31.2154V33.5757L380.662 35.346L379.718 35.582L379.363 34.8739L380.78 34.2838L381.016 33.8117V28.619L382.078 27.3208L384.438 26.3766L386.208 24.8424C387.357 22.6866 388.813 20.8377 390.575 19.2956L392.699 18.1154H395.06L395.65 18.3515L396.24 17.4073C397.074 17.6906 397.349 17.4152 397.066 16.5812L396.83 16.3452V14.4569C397.05 13.1036 397.562 12.0415 398.364 11.2704L399.78 10.3263H401.905L402.259 9.97224L403.321 8.43801L404.737 7.96594L405.799 8.67405L406.625 10.0903C406.484 9.24053 406.641 8.68978 407.098 8.43801L407.924 8.08396L408.986 6.78577C409.851 5.99899 411.268 5.76295 413.234 6.07766L417.719 8.20198L421.496 8.43801C422.943 9.03597 424.045 9.9801 424.8 11.2704L426.57 12.0965L426.806 12.5686V16.3452L428.223 22.01V24.0163L427.515 23.6622L426.334 19.8857L425.862 14.4569C425.516 14.2681 425.437 13.796 425.626 13.0407L425.272 12.6866C424.139 12.4034 423.313 11.8133 422.794 10.9164L421.26 9.14611C420.127 8.62684 418.632 8.46948 416.775 8.67405L412.29 7.0218H410.166C409.269 7.22637 408.6 7.6591 408.16 8.31999L407.806 10.0903L407.452 9.97224L406.271 21.1839C406.743 20.9951 406.901 21.1918 406.743 21.774L405.445 23.3082L403.911 24.6064L404.619 27.6748C404.304 29.5631 403.478 30.94 402.141 31.8054L398.718 33.4577C399.238 34.2287 399.395 35.4482 399.19 37.1162C398.939 38.2177 398.427 39.0438 397.656 39.5946L395.296 39.8306L393.053 41.8369C392.471 42.5135 392.314 43.615 392.581 45.1414L395.65 50.5702L395.414 51.2783L395.65 51.5143V53.0486C394.328 52.844 393.463 53.198 393.053 54.1107L393.29 55.999L394.706 58.3593L395.532 60.6017L395.65 60.0116L395.414 59.0674L396.24 58.4774L396.83 59.5395L397.184 63.1981L397.538 62.3719C397.176 62.1674 397.098 61.6953 397.302 60.9557H397.538L397.656 61.7818C397.782 61.357 398.175 61.1996 398.836 61.3098L399.19 61.4278C399.301 60.1217 399.655 59.0596 400.253 58.2413L401.079 58.5954L400.843 61.1918L400.607 61.4278V64.7323L401.669 67.6827L401.787 63.9062C402.259 63.7173 402.416 63.914 402.259 64.4962L402.613 65.3224L402.967 63.7881L402.731 63.3161L406.035 49.154V48.2099L407.806 42.191L407.924 42.7811L407.452 44.4333L407.924 44.5513L408.042 43.8432L408.16 44.4333L407.924 45.0234C407.499 44.8503 407.341 44.9683 407.452 45.3774L404.147 60.0116H404.383L405.209 58.0053L405.327 58.3593L404.147 62.3719H404.383L406.271 58.3593L406.035 57.8873C409.529 53.4341 413.345 49.3035 417.483 45.4955L416.893 46.3216C413.887 50.7118 410.544 54.7637 406.862 58.4774C406.515 58.3672 406.397 58.4852 406.507 58.8314L403.911 65.6764L403.203 69.2169L402.495 70.3971V72.0494L402.967 71.8133L404.147 68.2728L406.862 62.49L406.98 63.08L405.799 66.1485H406.035L408.75 60.6017L408.868 61.1918L406.507 67.3287L406.98 67.0926L409.222 63.6701L409.34 64.0242V64.4962L407.924 68.0368L408.396 67.8007L411.346 63.4341L411.228 63.7881L408.16 70.0431L410.52 68.3908L414.533 60.9557L417.247 58.0053L420.788 56.5891L422.322 55.5269L423.62 53.0486L423.738 53.8747C423.408 55.4325 422.66 56.5733 421.496 57.2972C419.576 57.9738 418.042 59.036 416.893 60.4837L412.644 69.2169L408.278 74.0556L406.035 75.2358C405.957 76.3058 405.603 77.1713 404.973 77.8322L404.265 78.0682L403.321 76.8881L400.017 76.18C399.56 76.8251 398.695 77.0612 397.42 76.8881L396.004 75.9439H395.532H393.88L391.519 76.652C389.332 77.6119 387.483 78.9101 385.972 80.5466L383.376 84.5592L381.016 90.6961L383.848 91.2862C383.612 90.6882 383.73 90.4522 384.202 90.5781L384.91 90.342L385.736 90.9321L386.327 91.9943C387.365 91.8999 388.034 92.1752 388.333 92.8204L386.327 92.9384L385.854 92.7024C385.382 92.9384 385.382 93.1745 385.854 93.4105H386.208V94.3546L384.32 94.7087L387.271 94.8267L387.507 94.5907H389.513C389.796 95.2988 389.521 95.5348 388.687 95.2988L387.271 95.7708H381.842C381.653 95.4247 381.181 95.346 380.426 95.5348L380.072 95.1807C379.977 94.7559 380.41 94.6379 381.37 94.8267V94.5907L379.836 93.8826C375.555 104.898 371.464 116.188 367.562 127.754L365.437 135.779L364.729 140.735L367.916 145.81L375.705 144.63L376.295 144.04L377.711 141.68V140.381L373.581 140.617V140.381L374.171 140.027L373.227 139.555L373.581 138.965L376.531 138.729V137.431L377.711 133.418L380.662 127.399L380.544 127.754C378.923 131.137 377.664 134.795 376.767 138.729C377.491 138.934 377.963 138.816 378.183 138.375V137.431L379.482 133.064L379.6 133.654C378.97 135.118 378.655 136.809 378.655 138.729L379.6 138.375C380.182 134.473 381.244 131.05 382.786 128.108L382.904 128.462C381.566 131.42 380.701 134.764 380.308 138.493H381.488V138.139L382.432 133.654L383.612 130.35C384.541 128.21 385.799 126.4 387.389 124.921L394.116 112.293L394.234 112.647L389.277 122.797L389.749 122.561C391.952 119.886 393.762 116.817 395.178 113.355L396.83 106.982L397.538 100.846L397.302 100.374H397.538L398.01 101.79L400.253 104.032L402.967 106.274L404.855 109.579L405.327 111.703V114.064L404.383 117.368L401.905 120.318L401.787 119.964C403.644 118.123 404.509 115.291 404.383 111.467L403.675 108.871L402.967 107.691L398.128 102.38L398.01 103.678V104.15L397.774 108.399L396.122 113.827C394.706 117.447 392.739 120.515 390.221 123.033L391.401 123.505L390.693 124.921C389.041 126.337 387.625 127.99 386.445 129.878C384.997 132.443 383.974 135.433 383.376 138.847L384.084 142.978L394.234 140.853L394.352 140.381H396.004L398.718 139.673L398.246 138.375L394.942 133.418L394.234 130.822V128.698L395.06 126.691L395.178 127.045L394.706 127.754V130.822C395.792 134.3 397.483 137.171 399.78 139.437L410.756 136.251L409.694 135.661L407.57 135.425L407.216 135.071L406.98 133.89C408.191 132.584 408.742 130.617 408.632 127.99C408.191 125.362 407.05 123.434 405.209 122.207L403.675 121.499C403.486 121.027 403.683 120.869 404.265 121.027L406.862 122.443L405.563 120.909L404.619 119.728L405.209 119.61L410.048 123.505L410.52 124.567C409.135 124.347 408.073 123.717 407.334 122.679L408.396 123.977C409.371 125.204 410.079 126.699 410.52 128.462V132.002L410.048 133.182L413.707 135.189H414.887L426.216 131.412L438.136 126.809L437.192 126.573L446.043 122.915L449.702 121.853L447.696 121.735L443.683 120.554C442.314 119.894 441.173 118.989 440.26 117.84L440.378 117.486L443.919 119.846L445.807 120.554L448.64 121.263H451.236C453.376 120.492 455.225 119.429 456.783 118.076L456.429 117.486L453.596 118.43H450.528L445.571 117.25L436.602 112.765L432.825 111.349L427.397 110.405H423.148L419.253 111.113L419.961 113.119L421.378 115.362L425.98 113.946L428.341 113.709V113.946L422.204 116.07L418.663 117.958L417.365 119.02C417.538 119.54 417.42 119.736 417.011 119.61L416.657 119.492L417.719 120.791L420.315 122.207L425.744 123.859L429.403 126.337L428.577 125.747L426.924 124.803L422.204 123.623L418.663 122.207L416.185 120.2C416.311 119.854 416.193 119.736 415.831 119.846L415.477 119.964L415.713 119.256L414.179 117.25L412.408 115.716L411.11 114.182L406.035 117.604C405.91 118.013 406.106 118.131 406.625 117.958C408.356 118.666 409.733 119.728 410.756 121.145L411.464 122.089L412.172 124.567C411.747 124.74 411.59 124.622 411.7 124.213L410.048 121.381L408.278 119.61L404.855 117.368L406.862 115.126C409.426 112.577 412.652 110.688 416.539 109.461L422.204 108.281H429.049L433.533 109.225L436.838 110.405L446.279 115.126L449.584 116.07L452.888 116.306L456.193 115.598L457.963 114.536C457.853 114.189 457.971 114.071 458.317 114.182C458.553 114.575 458.789 114.496 459.025 113.946L460.441 113.473H461.622C462.251 113.867 462.566 114.575 462.566 115.598L481.921 104.976C486.909 100.004 492.377 95.5977 498.325 91.7582L504.698 84.0871L523.109 64.7323L531.606 55.2909L541.283 43.4892L547.302 34.6379L547.42 34.9919L544.352 43.0171C542.322 47.5175 539.961 51.6874 537.271 55.5269C531.826 63.3003 525.729 70.4207 518.978 76.8881L511.071 84.0871L511.661 84.2051L518.978 81.3727L524.643 79.9565L528.183 79.7205L528.419 79.4844H535.736L542.817 80.9007L548.364 83.143L546.83 83.261L544.47 82.7889H537.861L537.625 83.025H535.028L531.724 83.7331H530.308L525.351 84.9132L514.965 88.6898L507.176 92.4664L496.201 100.374L496.791 100.492L500.095 99.3114L512.605 96.4789L517.09 96.0069L517.326 95.7708H519.45L519.686 95.5348L527.475 95.2988L527.711 95.5348H531.252L531.488 95.7708L536.445 96.2429L544.352 98.4852L535.028 98.6033L534.792 98.8393H531.488L531.252 99.0753H528.891L528.655 99.3114L523.699 99.7834L509.773 102.616L495.02 106.51L496.083 106.628L499.387 105.684L511.189 103.56L517.09 103.088L517.326 102.852H520.394L520.63 102.616H527.947L528.183 102.852H531.016L531.252 103.088L534.32 103.324L540.221 104.74C543.888 105.873 547.153 107.407 550.017 109.343L549.662 109.461L546.594 108.517H545.414L542.345 107.809H540.693L540.457 107.573L528.655 107.337L528.419 107.573H524.407L524.171 107.809H522.046L521.81 108.045H519.686L519.45 108.281L513.785 108.753L510.717 109.461H509.301L507.648 109.933H506.232L504.58 110.405H503.164L502.928 110.641L499.859 110.877L494.666 111.821H492.778L492.542 112.057L487.821 112.293L487.585 112.529H481.212L480.976 112.765H478.852L478.616 112.529H476.728L472.125 115.244L472.951 115.362L480.74 113.709L487.349 113.001L487.585 112.765H489.474L489.71 112.529H491.834L492.07 112.293L498.679 112.057L498.915 111.821H511.661L511.897 112.057H514.729L514.965 112.293H517.09L517.326 112.529L522.282 113.001L531.37 115.008L530.544 115.362H518.506L518.27 115.598H514.021L513.785 115.834L507.648 116.07L507.412 116.306L502.456 116.542L502.22 116.778H500.095L499.859 117.014L492.306 117.722L492.07 117.958L486.877 118.43L485.225 118.902L478.97 119.728L479.324 120.082L483.337 120.318L492.778 122.443L498.915 124.331L505.524 126.927L517.326 133.3C520.898 135.787 524.242 138.501 527.357 141.444L527.003 141.326L513.549 134.717L506.468 131.884L493.958 128.108L482.865 125.747L474.84 125.039L472.715 124.567H468.939L468.703 124.331H457.373L457.137 124.567H454.777L451.708 125.511H450.764L445.453 127.99L455.721 128.58L455.957 128.344H459.261L459.497 128.108H472.951L473.187 128.344H476.728L476.964 128.58L481.448 128.816L481.685 129.052L486.405 129.524L487.821 129.996L492.778 130.704L502.456 133.3L509.065 135.661C518.836 139.658 527.294 144.968 534.438 151.593L534.084 151.475L529.127 148.643L521.81 145.102L507.884 139.909C505.76 139.595 503.872 139.044 502.22 138.257L492.778 136.133H491.598L490.182 135.661L483.101 134.717L482.865 134.481L475.312 133.772V134.008C489.867 139.437 501.865 147.423 511.307 157.966L510.953 157.848L496.555 149.115L486.641 144.158L476.492 139.909L468.467 137.077L457.373 134.008L450.056 132.592H446.987L446.751 132.828H433.297L431.527 133.418L441.087 134.008L441.323 134.244H442.975L451 135.661L459.969 138.021L468.231 140.853C483.935 146.864 498.136 154.378 510.835 163.395L510.481 163.277L467.05 146.046L455.013 142.034L450.056 140.853V141.089C465.949 145.968 478.813 153.875 488.648 164.811C491.433 167.927 493.872 171.388 495.965 175.196L494.312 173.78L489.946 169.178C484.753 164.457 479.009 160.287 472.715 156.668C466.987 153.348 460.85 150.436 454.304 147.934L442.739 144.158L429.285 141.089L422.676 140.381L422.44 140.145H420.079L419.843 139.909L412.762 139.673L407.924 141.208L420.315 142.978L429.757 144.866L442.267 148.407L452.416 152.183L459.497 155.488L471.063 162.569C475.768 165.889 480.056 169.626 483.927 173.78C486.806 176.723 489.324 180.027 491.48 183.694L486.169 178.619C482.471 175.315 478.459 172.325 474.131 169.65L474.84 170.594L479.206 174.724L480.858 176.849L480.032 176.259L474.367 172.246L465.87 167.997L450.528 162.333L441.323 159.736V159.972C450.119 163.45 458.223 167.62 465.634 172.482L476.256 180.507L482.039 186.29L484.163 189.123L483.101 188.296C480.315 185.81 477.247 183.607 473.895 181.687L465.87 176.967L456.193 172.01L445.807 167.289L432.353 161.861L418.663 157.14V157.376L431.409 163.749C436.649 166.691 441.606 169.917 446.279 173.426L454.068 177.203L467.05 184.756C475.076 189.949 482.275 195.968 488.648 202.813L487.821 202.222L476.256 194.433L463.038 187.116L465.28 189.595C470.457 194.803 475.02 200.625 478.97 207.061L478.262 206.589C475.587 203.206 472.637 200.098 469.411 197.266C462.188 190.562 454.399 184.425 446.043 178.855L433.297 173.19L394.352 157.612L373.817 148.643L373.581 148.879H372.164L370.512 149.351L365.319 149.823L364.021 150.177L373.345 153.835L380.662 155.488L392.227 159.5L399.308 162.569L406.153 166.109L414.651 169.414L430.937 176.967C438.931 181.089 446.484 185.653 453.596 190.657C459.23 194.622 464.462 198.989 469.293 203.757C472.487 206.935 475.319 210.476 477.79 214.378L476.61 213.434L473.659 210.248C468.419 205.417 462.676 201.089 456.429 197.266L443.211 189.241L436.838 185.936L437.782 187.116C443.164 191.255 448.16 195.779 452.77 200.688L452.652 201.042C440.205 192.246 427.223 183.985 413.707 176.259L414.415 177.203C419.466 180.885 424.068 185.016 428.223 189.595L437.074 200.57C444.895 205.574 452.094 211.2 458.671 217.447L458.081 217.093L451.708 213.08L435.186 203.875L414.415 190.893L414.297 191.247L419.017 195.968L427.515 206.825L426.216 205.763L417.955 198.21L405.681 188.296L393.172 179.563L378.065 170.358L368.388 165.165L357.766 160.208L343.604 154.543L342.188 154.307L336.287 152.183H328.97V152.419H329.914L336.287 154.071V153.835L334.517 153.009L334.871 152.891L346.673 156.668L356.114 160.916C366.5 166.03 376.256 171.774 385.382 178.147C403.887 191.506 421 206.259 436.72 222.403L447.814 233.969L446.987 233.379L436.366 225.354C424.58 215.267 412.542 205.433 400.253 195.85L400.135 196.204L406.271 203.993L410.992 211.782L411.818 212.608C417.326 217.093 422.558 221.853 427.515 226.888L431.291 231.137L430.701 230.783C424.564 225.905 418.191 221.263 411.582 216.857L389.395 199.862L389.985 200.688L394.234 206.117L401.079 216.975L399.662 215.794L393.762 208.949L380.426 195.613L368.388 185.228L357.766 176.967L347.145 169.65L334.871 162.097L325.194 156.904L313.628 151.475L309.143 151.239L308.907 151.003H307.019L306.783 150.767L299.466 150.059V150.295L307.727 152.419L317.168 156.196L321.417 158.32L321.181 157.848L312.33 152.301L312.684 152.183L325.43 158.084L335.815 164.221L345.729 171.066C358.459 180.444 370.221 190.791 381.016 202.104C387.64 208.776 394.013 215.7 400.135 222.876L418.663 245.889H426.452L426.688 246.125L430.937 246.597L436.602 248.249C442.692 250.735 447.766 254.237 451.826 258.753C453.809 260.94 455.54 263.379 457.019 266.07L460.087 273.151L461.504 279.76L461.74 287.313L461.504 287.549V289.673L461.268 289.909L461.031 292.742L458.907 299.587C456.657 304.811 453.628 309.256 449.82 312.923C447.286 315.346 444.415 317.431 441.205 319.178L441.795 319.532L455.013 321.184L460.913 322.364H462.33L462.566 322.6L476.492 324.724L483.101 326.141H484.281L505.052 330.389L526.059 335.582H527.003L548.954 341.483L572.086 348.328L591.205 354.701L601 358.359L600.41 358.477L590.969 355.645L573.03 351.16L571.142 350.452H570.197L557.688 347.148H556.744L553.675 346.204H552.731L528.183 340.539L507.884 336.526L490.418 333.694L489.002 333.222H487.585L481.685 332.042H480.268L478.616 331.569H477.2L476.964 331.333H475.548L475.312 331.097H473.895L472.243 330.625L468.939 330.389L468.703 330.153H467.286L467.05 329.917H465.634L458.789 328.737H457.137L456.901 328.501L451.472 328.029L449.348 327.557H447.459L447.223 327.321H445.335L445.099 327.085H443.211L441.087 326.613H439.198L438.962 326.377H437.074L436.838 326.141L432.589 325.905L432.353 325.669H430.229L429.993 325.433H427.869L427.633 325.197H425.508L422.912 324.724H420.552L420.315 324.488H417.719L417.483 324.252H414.887L414.651 324.016H412.054L411.818 323.78L402.377 323.308L402.141 323.072L390.339 322.6L390.103 322.364H386.09L385.854 322.128H381.37L381.134 321.892H374.761L374.525 321.656L355.878 321.42L355.642 321.184H333.219L332.983 321.42H321.889L321.653 321.656H314.572L314.336 321.892L302.298 322.128L302.062 322.364L286.248 323.072L286.012 323.308H282.943L282.707 323.544H280.111L279.875 323.78L268.309 324.488L268.073 324.724L260.992 325.197L260.756 325.433H258.632L258.396 325.669H256.271L253.675 326.141H251.315L251.079 326.377H249.426L249.19 326.613H247.538L243.526 327.321H241.637L241.401 327.557L234.084 328.265L233.848 328.501L220.866 330.153L219.214 330.625L216.146 330.861L202.928 333.222H201.511L169.883 339.359L161.386 341.483L158.317 341.955L154.304 343.135H153.36L134.714 347.856L106.389 356.117L86.0905 362.962L73.5806 367.919V367.683L85.8544 361.782L108.75 352.577L122.676 347.62L141.795 341.483L162.566 335.582L182.629 330.625L202.456 326.377H203.636L214.965 324.016L227.357 322.01L223.935 320.712L217.09 316.935C214.242 314.905 211.684 312.584 209.419 309.972C206.177 306.133 203.659 301.569 201.865 296.282L200.449 289.437L200.213 283.772L200.449 283.536V280.232L200.685 279.996L200.921 277.163L201.865 273.387L203.282 269.61C205.485 264.418 208.514 260.051 212.369 256.51C214.619 254.355 217.137 252.466 219.922 250.846L226.767 247.777L231.016 246.597L235.264 246.125L235.5 245.889H243.053L243.29 246.125L247.538 246.597L254.383 248.721C259.356 250.987 263.644 253.938 267.247 257.573C271.149 261.538 274.139 266.416 276.216 272.207L277.633 277.4V278.816L278.105 280.704V288.965L276.688 296.046C275.744 298.957 274.564 301.632 273.148 304.071C270.929 307.911 268.215 311.255 265.005 314.103L260.638 317.289L262.172 317.407L262.408 317.171H264.297L266.657 316.699L279.167 315.755L279.403 315.519H281.999L282.235 315.283H284.596L284.832 315.047L298.286 314.339L298.522 314.103H301.826L302.062 313.867H306.547L306.783 313.631L317.404 313.395L317.64 313.159H327.554L327.79 312.923H357.294L357.53 313.159L372.637 313.395L372.873 313.631H377.593L377.829 313.867H382.55L382.786 314.103H387.507L387.743 314.339H390.811L391.047 314.575L397.656 314.811L396.476 313.395L393.998 311.152C390.866 307.754 388.349 303.741 386.445 299.115L384.32 291.798V290.381L383.848 288.493V281.176L384.084 280.94L384.556 276.691L385.5 273.151L386.681 269.846L388.805 265.598C391.039 261.617 393.832 258.194 397.184 255.33C400.378 252.545 404.076 250.263 408.278 248.485L414.651 246.597L418.545 246.007L412.762 240.696L374.525 202.695L374.407 203.049C378.608 208.289 382.227 214.111 385.264 220.515L384.556 220.043C378.262 211.546 371.299 203.717 363.667 196.558C356.429 189.791 348.954 183.261 341.244 176.967L329.678 168.233L317.404 160.208L317.64 160.68L325.43 166.109L336.287 175.078C343.148 181.121 349.718 187.455 355.996 194.079L373.227 212.49L392.345 234.441L398.718 241.05L398.128 240.696L392.935 237.156L385.854 230.783L362.841 208.241L355.17 200.334L355.052 200.688C361.598 208.934 366.791 218.532 370.63 229.484L370.158 229.248C365.957 221.491 361.157 214.331 355.76 207.769C350.268 200.909 344.407 194.418 338.175 188.296L329.914 180.743L334.635 185.7L336.169 186.998C345.044 196.377 353.148 206.526 360.481 217.447L369.45 232.553L377.003 249.547H376.767L368.506 235.621L356.468 218.391C346.177 204.921 334.965 192.372 322.833 180.743L305.839 165.401L292.621 154.779L283.887 148.407L281.291 146.754L277.987 146.046H276.334L275.862 145.574L273.148 145.102C273.352 145.826 273.234 146.298 272.794 146.518L271.968 146.636L273.974 147.934L279.167 149.587L287.192 153.363L295.689 158.556C303.998 164.331 311.511 170.901 318.231 178.265C327.105 187.958 334.973 198.658 341.834 210.366C347.577 219.964 352.298 230.586 355.996 242.23H355.76C352.282 235.086 348.506 228.241 344.43 221.695C340.197 214.756 335.713 208.068 330.976 201.632C323.046 190.68 314.273 180.57 304.659 171.302L294.273 162.097L288.372 157.848L289.316 159.028C294.194 162.883 298.718 167.093 302.888 171.656C308.254 177.384 313.211 183.521 317.758 190.067C321.803 195.936 325.579 202.073 329.088 208.477C332.88 215.464 336.264 222.86 339.238 230.665C341.551 236.77 343.518 243.222 345.138 250.019H344.902L338.766 235.857C334.328 226.526 329.529 217.557 324.367 208.949C320.009 201.743 315.367 194.819 310.441 188.178C305.626 181.743 300.473 175.645 294.981 169.886L294.863 170.24C302.935 180.342 309.859 191.593 315.634 203.993L320.119 214.378L324.131 225.708L326.728 234.913V235.857L328.38 242.466H328.144L323.423 230.193L318.703 219.571L310.441 203.049L303.596 191.247C295.319 177.337 285.524 164.945 274.21 154.071C270.402 150.484 266.311 147.179 261.936 144.158L253.203 138.965L248.954 137.549V137.785C259.938 144.425 269.576 152.411 277.869 161.743C288.081 172.852 296.814 185.44 304.068 199.508L309.733 211.782L314.454 225L316.814 233.969L318.467 242.938H318.231L315.162 233.733L309.261 219.571L302.652 206.117L295.335 193.371C285.359 177.069 273.754 162.396 260.52 149.351C255.925 144.74 251.047 140.413 245.886 136.369C239.592 134.166 233.612 131.648 227.947 128.816L228.183 129.288L230.78 131.176L237.625 134.717L244.234 139.201C250.969 144.347 257.223 149.972 262.998 156.078C274.832 168.32 285.06 182.167 293.683 197.62C296.594 202.813 299.033 208.477 301 214.614L302.888 222.167V223.348L303.36 225L303.596 229.484H303.36L302.416 225L300.764 220.279L295.099 208.005C289.576 198.029 283.4 188.706 276.57 180.035L276.452 180.389C283.675 190.712 289.812 202.12 294.863 214.614L297.932 223.348L300.292 232.081L301.708 239.162L302.416 245.535H302.18L300.528 238.69L297.459 229.721L292.739 218.391C288.034 208.226 282.762 198.627 276.924 189.595C262.668 167.58 246.264 147.714 227.711 129.996L224.643 127.163L201.983 115.834L190.418 108.989L191.008 109.815C190.898 110.224 191.055 110.342 191.48 110.169V110.641H192.07L195.138 112.529L201.983 117.722C206.358 121.388 210.489 125.283 214.375 129.406C226.193 141.9 236.028 156.377 243.88 172.836L248.836 185.11L252.141 196.676L253.321 203.285L253.557 207.061L253.793 207.297L254.029 214.614L253.675 215.204L252.613 208.713L251.197 203.049L246.712 189.831C242.873 180.374 238.467 171.483 233.494 163.159C222.605 144.779 209.82 128.296 195.138 113.709L195.02 114.064C201.252 120.421 206.917 127.344 212.015 134.835C218.781 144.669 224.839 155.212 230.19 166.463L237.035 182.278L241.991 196.676L245.06 208.713L246.712 217.683L247.184 221.931H246.948L245.532 216.503L241.991 205.881L237.979 195.259L230.898 178.737L221.81 160.444L221.692 161.034L226.177 171.656L229.718 182.514L231.842 190.775L233.258 198.328L233.73 203.521L233.966 203.757L234.202 212.726H233.966L233.494 208.949L231.37 199.744L226.413 183.93C221.834 171.672 216.641 160.027 210.835 148.997C205.233 138.548 199.096 128.635 192.424 119.256C187.105 111.829 181.165 105.023 174.603 98.8393L170.237 95.1807L170.591 95.2988L171.535 95.7708L171.063 95.0627L166.814 91.9943L168.113 93.5285C173.84 99.9959 179.19 106.841 184.163 114.064C190.913 123.914 197.129 134.3 202.81 145.22C208.978 157.069 214.721 169.343 220.04 182.042L227.121 200.452L232.078 215.558H231.842L215.083 180.389L203.754 157.494L192.188 135.543L184.753 122.679L184.635 123.033L188.648 130.822L193.604 142.388L197.853 154.425L201.393 167.171L203.99 180.153V181.569L204.698 185.11V186.998L204.934 187.234V189.123L205.17 189.359L205.406 195.495L205.642 195.732V211.546H205.406L204.698 203.993L204.462 203.757V202.34L204.226 202.104V200.688L203.518 197.62L202.81 191.955L199.505 176.377L195.493 161.979L191.244 149.469L187.939 140.971C182.935 128.902 177.271 117.494 170.945 106.746L159.851 89.0439L154.186 81.0187L152.18 79.0124L152.062 79.3664L162.212 94.0006L169.529 106.51L177.318 123.269L180.15 131.058L183.455 140.971L187.231 156.314L188.175 163.631L188.411 163.867L189.12 171.184L189.356 171.42V173.78L189.592 174.016L189.828 186.998L189.474 188.296L187.231 173.544L183.219 156.078L182.511 154.425L179.678 144.04L173.895 127.872L173.777 128.698L176.61 138.847V139.791L178.262 145.692L180.622 156.786L186.523 181.097L190.064 193.843L193.604 204.465H193.368L190.536 199.036L186.759 190.539L181.094 174.724L176.138 157.258L166.932 120.2L163.392 108.399L159.615 97.5411L157.963 94.0006L150.646 81.9628L142.739 70.9872L137.546 66.7386L137.664 67.0926L145.453 77.0061L151.118 86.2114L156.783 98.2492L161.976 112.883L165.988 127.99L169.293 144.276V145.456L170.945 154.189V155.606L171.417 157.258L172.361 165.283L172.597 165.519V167.171L172.833 167.407L173.541 174.488L173.777 174.724V176.613L174.249 178.737V180.625L174.721 182.75L175.43 190.303H175.194L170.709 173.308L161.268 128.462L156.311 109.343L153.242 99.6654L149.466 89.5159C147.294 84.213 144.816 79.2169 142.031 74.5277L141.913 74.8818L145.217 81.7268L148.522 90.4601L151.118 99.1933L153.95 111.939L154.895 119.02L155.131 119.256L155.839 126.809L156.075 127.045V128.934L156.311 129.17V131.294L156.547 131.53V134.126L156.783 134.363L157.019 141.444L157.255 141.68V148.053L157.491 148.289V160.562L157.255 160.798L157.019 170.948L156.783 171.184V174.252L156.547 174.488V177.321L156.311 177.557L155.957 182.632L152.77 139.083L152.534 138.847L151.826 130.35L151.59 130.114L151.354 126.573L151.118 126.337L149.702 115.244L149.23 113.827V112.647L147.341 102.97L144.273 90.6961L140.732 80.0745L136.366 70.0431L136.248 70.6331L137.664 74.6457L139.788 82.907L142.385 97.069L143.329 105.566L143.565 105.802V107.455L143.801 107.691V109.579L144.037 109.815V111.939L144.273 112.175V114.3L144.509 114.536V116.66L144.745 116.896L144.981 121.617L145.217 121.853V123.977L145.453 124.213L145.689 128.934L145.925 129.17V131.294L146.161 131.53V133.654L146.397 133.89V136.015L146.633 136.251L147.341 144.748L147.577 144.984V146.636L147.814 146.872V148.525L148.05 148.761L148.994 157.258L151.118 168.115H150.882L147.105 158.438L144.509 148.761L143.329 143.096V141.916L141.913 134.599V133.182L141.677 132.946L140.969 125.865L140.732 125.629L140.024 117.132L139.788 116.896V114.772L139.552 114.536V112.411L139.316 112.175L139.08 107.455L138.844 107.219L138.608 102.262L138.372 102.026V99.9014L137.9 97.3051V94.9447L137.428 92.5844V90.4601L137.192 90.224L136.956 86.2114L136.72 85.9754V84.3232L136.484 84.0871V82.4349L136.248 82.1988L135.304 74.1737L133.415 64.4962L130.701 59.6575L130.583 60.4837L130.819 60.7197L131.055 64.4962L131.291 64.7323V74.8818L131.055 75.1178V77.0061L130.819 77.2421L130.347 81.4907L129.875 82.907L134.36 92.5844L135.776 97.069L139.08 114.3L140.732 127.99H140.496L140.024 123.741L136.956 108.399L132.707 92.3483L130.111 84.0871L129.757 83.7331C128.655 88.6898 127.042 93.1351 124.918 97.069L122.558 100.846L119.017 105.212L116.067 107.573L116.185 107.219L120.906 96.3609L124.918 83.143L127.279 70.3971L127.751 64.4962L127.987 64.2602V61.6638L128.223 61.4278V56.9431L128.459 56.7071L127.987 55.763L125.862 52.4585L118.427 45.0234L107.806 36.2901L99.7805 31.3334L89.395 26.3766L81.3698 23.7803L73.3446 22.3641H70.2762L67.9158 21.892H65.3194L65.0834 21.656H62.487L62.251 21.4199H59.6546L59.4186 21.1839H56.8222L56.5862 20.9478H53.9898L53.7537 20.7118H51.1574L50.9213 20.4758H48.3249L48.0889 20.2397H45.4925L45.2565 20.0037H42.6601L42.4241 19.7677H40.0637L39.8277 19.5316H37.2313L36.9953 19.2956H34.3989L34.1629 19.0596H31.5665L31.3304 18.8235H28.7341L28.498 18.5875H25.9017L25.6656 18.3515H23.0692L22.8332 18.1154H20.2368L20.0008 17.8794H17.4044L17.1684 17.6434L7.25492 16.9353C5.13061 16.3845 3.5177 15.3224 2.41621 13.7488C1.47207 12.5686 1 10.9164 1 8.79206L1.94414 5.48758L4.18647 3.00921C5.71282 1.62448 8.15185 1.15241 11.5035 1.59301L11.7396 1.82904H14.336L14.572 2.06508H16.9323L17.1684 2.30111H19.7648L20.0008 2.53714H22.5972L22.8332 2.77318H25.4296L25.6656 3.00921H28.262L28.498 3.24525H31.0944L31.3304 3.48128H33.9268L34.1629 3.71732H36.7592L36.9953 3.95335H39.5917L39.8277 4.18939H42.188L42.4241 4.42542H45.0205L45.2565 4.66146H47.8529L48.0889 4.89749H50.6853L50.9213 5.13353H53.5177L53.7537 5.36956H56.3501L56.5862 5.6056H59.1825L59.4186 5.84163L70.2762 6.54973L70.5122 6.78577H72.6365L72.8725 7.0218L78.3013 7.72991C84.8474 9.20906 90.6695 11.412 95.7679 14.3389C101.26 17.4231 106.098 21.1603 110.284 25.5505L114.769 30.7433L119.961 38.7685L122.794 42.0729C129.702 49.7991 136.901 57.2342 144.391 64.3782L158.553 77.8322L171.771 89.1619C181.275 96.8881 191.346 104.048 201.983 110.641L202.101 110.287L200.213 105.094L199.977 102.734L200.449 102.262C200.229 100.547 200.308 99.1304 200.685 98.0132L201.865 96.1249V95.4168L198.561 86.2114L197.617 82.1988V81.0187L198.443 79.9565L199.859 79.7205L200.921 80.1926L201.039 80.6646L201.157 80.0745L199.269 74.1737L198.325 69.453L198.797 68.3908L200.803 67.9187H203.046L199.741 61.1918L200.803 59.8936C201.496 59.2641 202.597 59.0281 204.108 59.1855L205.76 59.8936L208.238 61.7818L210.245 64.6143L210.363 63.7881L210.127 63.5521V60.7197L210.835 57.8873L211.543 56.353C211.873 56.1013 212.463 56.0226 213.313 56.117L224.407 71.4593L225.233 68.8629L226.531 68.6269L238.097 81.8448L238.687 79.7205L237.979 79.3664L237.743 78.1863L238.687 77.8322L238.451 78.4223L238.923 78.6583L238.687 76.7701L228.065 56.5891L230.426 56.353L235.5 66.5025L235.618 65.9125L234.202 63.08L230.898 54.3468L227.593 43.4892L225.941 34.9919V28.855L226.177 28.619L226.413 26.0226L227.357 22.9541C228.333 20.4679 229.788 18.4616 231.724 16.9353L235.736 15.283H239.749C243.053 16.0698 245.807 17.4073 248.01 19.2956C253.329 23.4183 258.246 27.9423 262.762 32.8676C271.165 42.0887 278.679 52.1988 285.304 63.1981L285.422 62.3719L284.714 59.5395L284.242 53.8747L284.005 53.6386L283.769 44.6693L284.005 44.4333V40.8928L284.242 40.6567V38.5324L284.478 38.2964L284.95 33.5757C285.894 28.6977 287.153 24.1343 288.726 19.8857L292.267 11.8605L294.627 7.61189L297.223 3.5993L299.702 1.12094ZM296.515 8.43801C293.211 13.4734 290.614 19.2169 288.726 25.6685L286.366 35.818V37.4703L285.894 39.3586V41.7189L285.658 41.9549V45.9675L285.422 46.2036V49.9801L285.658 50.2161L285.894 56.353L286.13 56.5891L286.366 59.8936L287.31 64.8503L294.863 79.9565H295.099L292.267 70.7512L290.614 63.6701L289.67 58.4774L289.434 55.1729L289.198 54.9368L288.962 49.7441L288.726 49.508L288.962 38.8865L289.198 38.6504V36.0541L289.434 35.818V34.1658L289.67 33.9298L290.142 29.6811L292.503 20.0037L294.627 13.6308L296.515 9.14611V8.43801ZM236.563 17.8794C234.832 18.1941 233.494 18.9022 232.55 20.0037L233.258 20.2397L233.494 20.9478L233.258 21.656L233.022 21.4199V20.9478C233.179 20.4758 232.943 20.3184 232.314 20.4758L231.134 25.1965V30.8613L231.842 34.1658L231.37 35.1099L232.314 38.6504V39.1225L230.662 34.4018L230.19 31.8054V29.6811L229.954 29.4451V26.6127L230.426 24.2523V23.0722L229.009 26.6127L228.773 29.4451L228.537 29.6811V34.1658L228.773 34.4018V36.5261L229.482 40.3027C230.74 45.8102 232.393 51.0816 234.438 56.117V55.881C234.596 55.4089 234.989 55.2516 235.618 55.4089L237.035 61.5458L236.799 62.2539L238.451 66.7386L238.923 66.9746L238.687 66.5025L238.923 61.5458L239.395 59.8936L239.159 59.4215L239.631 59.1855L239.867 59.6575L240.103 61.7818L241.519 65.7944L242.463 70.5151L241.519 70.2791L240.575 66.2665V65.0863H240.339L240.811 71.9313L240.103 72.1674C239.946 70.9085 239.474 69.8857 238.687 69.0989L236.327 66.9746L235.618 66.7386L240.575 77.3601C240.732 78.3043 240.575 79.0124 240.103 79.4844C243.88 80.1139 246.948 81.6088 249.308 83.9691C253.085 87.903 256.389 92.309 259.222 97.187L259.458 95.7708C259.615 94.6693 259.458 93.9612 258.986 93.6465L258.042 93.8826L255.445 90.8141L251.197 82.0808L250.961 84.6772L250.725 84.9132L249.544 82.5529V79.9565L249.072 78.3043L245.532 71.4593V70.9872L247.892 74.9998L248.364 75.2358L248.128 72.6394L237.743 51.8684V51.3963L245.06 64.3782L247.42 69.0989L247.892 69.335L247.656 68.1548L247.892 67.2106L245.532 62.962V62.49L252.849 74.5277H252.613C251.039 72.6394 249.702 70.5151 248.6 68.1548L248.128 67.9187L248.836 71.6953L253.321 79.4844C253.164 79.7992 253.4 79.8778 254.029 79.7205V81.1367L260.166 91.9943L260.402 91.5222C260.245 90.8928 260.402 90.6568 260.874 90.8141L260.638 92.2303V93.4105L265.359 101.908C265.201 102.222 265.437 102.301 266.067 102.144L266.303 102.852L266.775 103.088L266.539 100.492L265.595 99.0753L265.831 98.6033C268.349 102.852 271.181 106.864 274.328 110.641L275.272 111.349L275.508 111.113C276.452 113.159 277.79 114.89 279.521 116.306L279.285 116.778L278.577 116.306L272.204 108.989L267.719 102.38L267.247 102.144L268.427 105.684L273.62 113.473L274.092 113.237L276.688 116.778L276.924 116.306L281.881 126.455L285.186 132.12V132.592L282.353 129.052L279.285 122.679L275.744 117.722L275.272 116.542L274.8 116.306L275.508 118.194V119.138L274.564 118.43L272.44 114.654L271.968 114.418L277.16 124.095L278.577 127.399V127.636L273.384 121.027L272.912 120.791L278.341 132.12L279.285 134.953L284.005 143.214C284.478 143.843 285.264 144.079 286.366 143.922L284.242 140.145V139.673L286.602 143.686L287.782 144.394H288.962L286.838 140.145H287.31L281.409 129.996L278.577 124.331V123.859C282.668 130.153 286.445 136.841 289.906 143.922L290.142 144.158L287.782 140.617L287.31 140.381L289.198 144.394L290.378 144.866L299.348 146.046L299.584 146.282L302.888 146.518L303.124 146.754H304.777L305.013 146.99L312.094 147.462L312.33 147.698L322.007 148.171C322.322 145.81 322.086 143.922 321.299 142.506L321.535 142.034L319.647 136.605L316.342 129.052L315.162 128.108L315.398 129.524L320.355 139.909L320.591 140.145L319.647 138.965C318.703 137.549 317.365 136.526 315.634 135.897C315.634 132.907 314.769 130.625 313.038 129.052C313.195 128.58 313.038 128.422 312.566 128.58L311.386 130.704C310.441 131.805 309.183 132.592 307.609 133.064V133.3C308.71 133.458 309.419 133.222 309.733 132.592L309.969 132.828L308.553 134.008L308.789 134.244C309.104 133.772 309.733 133.615 310.677 133.772L310.441 134.953L307.609 137.313L305.013 138.257L302.416 138.729H298.876L294.863 137.785L294.155 137.077L290.614 134.717C288.884 133.458 287.782 131.569 287.31 129.052C286.523 129.209 286.051 129.052 285.894 128.58C286.208 126.691 286.917 125.275 288.018 124.331C289.906 121.813 292.267 119.846 295.099 118.43L301 116.542H305.249L293.683 91.7582L292.739 92.2303L292.503 93.4105L291.795 92.2303L291.559 91.9943L292.739 90.8141L293.211 91.0501L288.726 81.1367C286.995 82.5529 285.028 83.6544 282.825 84.4412L282.353 85.1493C281.566 86.2508 280.465 87.0376 279.049 87.5096L275.036 88.4538C269.529 88.6111 265.28 87.5096 262.29 85.1493C261.189 84.5199 260.481 83.5757 260.166 82.3169L260.874 80.1926L262.054 79.2484L261.582 77.1241C261.425 76.0226 261.661 75.3932 262.29 75.2358C265.437 71.4593 269.922 69.0202 275.744 67.9187H280.229L282.117 68.3908L282.353 69.335H277.869L272.912 70.2791C271.024 73.2689 268.978 76.0226 266.775 78.5403L267.011 79.0124L263.47 79.2484L262.762 80.6646C262.92 80.9793 262.841 81.058 262.526 80.9007C262.212 80.5859 261.976 80.6646 261.818 81.1367L262.054 82.3169L265.831 84.6772L271.024 86.0934H273.62C269.529 85.6213 266.303 84.3625 263.943 82.3169C263.156 82.1595 262.841 81.6874 262.998 80.9007C263.785 80.7433 264.415 80.9793 264.887 81.6088L266.775 80.6646L267.955 79.4844L267.483 79.0124L267.719 78.0682C269.607 75.7079 272.046 74.0556 275.036 73.1115L276.924 70.5151L277.869 70.0431L276.688 72.4034V72.6394L279.757 71.4593L279.993 72.1674H283.061L284.005 72.6394C284.478 72.4821 284.556 72.7181 284.242 73.3475C283.297 73.6623 282.117 73.7409 280.701 73.5836L276.452 75.4719C274.879 77.0454 273.62 78.855 272.676 80.9007C272.518 81.5301 271.968 81.7661 271.024 81.6088V80.6646L270.079 81.3727H269.371L267.955 83.025L272.204 83.9691H276.216L280.937 83.025C281.409 82.7103 281.33 82.4742 280.701 82.3169V81.6088L281.645 79.9565C282.432 78.855 283.533 77.9896 284.95 77.3601L285.894 75.9439C285.264 73.1115 284.163 70.9085 282.589 69.335L283.061 68.6269L284.005 69.335C284.163 69.6497 284.32 69.6497 284.478 69.335V68.1548L281.409 62.962C281.566 62.49 281.488 62.3326 281.173 62.49C278.97 60.6017 277.082 58.4774 275.508 56.117L270.788 48.7999L268.899 44.5513L264.651 39.1225L261.11 40.5387L255.917 41.9549L252.141 42.663H250.489L250.253 42.8991H247.892L247.656 43.1351H244.588L244.352 42.8991L239.867 42.663C239.395 42.5057 239.159 42.191 239.159 41.7189C239.474 40.9321 240.339 40.6961 241.755 41.0108L244.352 34.8739V34.4018C242.306 35.818 241.047 37.785 240.575 40.3027L239.867 40.0667C240.024 37.3916 240.732 35.4246 241.991 34.1658C243.722 31.8054 246.24 30.3106 249.544 29.6811H253.085L253.557 29.9172L254.029 30.8613L253.557 31.0973C251.983 30.94 250.803 31.0187 250.017 31.3334V32.9856L249.072 36.2901L250.253 36.0541L251.669 32.9856C251.826 32.5135 252.22 32.3562 252.849 32.5135C252.692 33.143 252.849 33.615 253.321 33.9298L252.849 33.4577L251.905 36.0541L254.737 36.2901L254.029 35.1099L253.793 34.4018L255.917 36.9982V37.4703H253.793L253.557 37.2342L251.197 37.4703L250.253 39.3586H249.544V37.9423H249.072L248.128 39.5946C247.971 40.0667 247.577 40.224 246.948 40.0667L246.24 39.1225L244.588 40.3027L244.116 41.0108H247.656L247.892 40.7748H250.017L250.253 40.5387L253.085 40.3027L257.334 39.3586L262.762 37.4703V37.2342L258.278 32.2775C254.029 27.7142 249.387 23.6229 244.352 20.0037L240.103 18.1154L236.563 17.8794ZM318.703 50.4522L318.467 51.6324L319.411 52.5765L322.715 59.8936L324.84 66.9746L325.312 70.2791L325.784 70.5151L326.492 66.0305L328.144 66.5025L328.38 66.7386C326.492 59.9722 323.266 54.5434 318.703 50.4522ZM318.231 53.2846L317.286 58.0053L317.05 62.49L316.814 62.726V66.2665L316.578 66.5025V78.0682L316.814 78.3043V82.0808L317.05 82.3169V84.9132L317.286 85.1493V87.2736L317.994 91.2862V92.9384L319.411 100.964L322.007 111.585V112.529L324.84 122.679L333.337 148.171C333.494 148.485 333.966 148.564 334.753 148.407L332.865 141.326L331.212 133.536L330.504 127.636L330.268 127.399V125.747L330.032 125.511L329.796 121.027L329.56 120.791V117.486L329.324 117.25V101.908L329.56 101.672V98.6033L329.796 98.3672L330.032 93.8826L330.268 93.6465V91.9943L330.504 91.7582V90.106L331.212 87.0376V85.8574L332.865 78.0682L334.753 71.2232L336.877 64.8503L339.71 58.4774V58.0053C336.563 61.9392 333.887 66.4239 331.685 71.4593L331.448 72.1674V78.3043L330.976 79.4844L330.504 79.2484L330.268 75.7079L328.144 80.9007L326.492 86.8015L324.84 95.2988L324.603 99.0753L324.367 99.3114V102.144L324.131 102.38L324.367 113.237L324.603 113.473L325.312 120.082L326.964 126.927V127.399L325.548 123.623L324.367 118.194L323.895 113.709L323.659 113.473V111.349L323.423 111.113V107.337L323.187 107.101V100.728L323.423 100.492L323.659 94.5907L323.895 94.3546L324.367 89.6339L326.02 82.3169L325.076 82.0808C325.233 80.9793 325.154 80.5073 324.84 80.6646L324.131 79.9565L324.84 76.416L324.603 71.6953L322.951 64.3782C321.85 60.1296 320.276 56.4317 318.231 53.2846ZM393.053 56.353L387.625 62.0179L384.556 66.2665L382.432 70.2791L381.488 71.4593L381.016 71.2232L380.78 74.2917L380.544 74.7638L381.96 74.9998C382.275 75.3145 382.353 75.9439 382.196 76.8881L383.376 77.3601C383.691 75.7866 384.399 74.5277 385.5 73.5836C385.343 73.1115 385.5 72.9542 385.972 73.1115L390.929 67.2106V66.0305C388.254 68.7055 385.894 71.774 383.848 75.2358L382.668 75.7079L383.612 73.5836L388.333 67.9187L390.221 66.2665L391.165 64.8503V63.1981C388.175 66.0305 385.658 69.2563 383.612 72.8755L382.432 74.0556H381.724V73.3475L383.848 70.2791L391.873 61.3098L391.637 60.8377C391.48 60.3656 391.716 60.2083 392.345 60.3656L392.817 61.3098C392.66 61.7818 392.817 61.9392 393.29 61.7818L393.762 62.726V65.3224L393.998 65.5584C394.312 67.604 394.155 69.2563 393.526 70.5151L393.762 71.9313L394.706 69.0989L394.942 66.5025L395.178 66.2665L394.942 61.3098L394.234 58.9494L393.053 56.353ZM404.147 60.1296L403.911 60.8377H404.147V60.1296ZM213.195 60.6017L212.723 61.0737V64.1422L213.667 66.9746V68.1548L214.139 69.0989L215.083 68.6269H216.028L220.276 74.5277L237.035 100.964L250.253 123.151L257.806 136.841L259.93 137.313L260.166 137.549L249.072 117.25L233.022 90.8141L232.55 90.342V90.106L224.289 77.3601L223.817 76.8881L223.109 76.416L222.873 75.2358L213.195 60.6017ZM202.574 61.5458L205.406 67.6827L207.294 68.6269C207.452 69.4136 207.294 69.8857 206.822 70.0431L237.035 128.344L237.271 128.58L235.146 127.636L234.438 127.872L244.116 131.884H244.352L212.723 73.5836V73.1115H211.779L212.015 72.1674L207.766 64.6143C206.665 62.726 204.934 61.7032 202.574 61.5458ZM404.147 62.49L403.911 63.1981H404.147V62.49ZM314.69 67.2106L314.218 68.1548L313.746 74.2917L313.51 74.5277L313.274 82.5529L313.038 82.7889V90.342L313.51 91.7582L314.218 91.2862V88.6898L314.454 87.9817L315.398 87.7457L315.162 83.497L314.926 83.261V80.1926L314.69 79.9565V74.5277L314.454 74.2917V68.8629L314.69 68.6269V67.2106ZM203.99 70.5151L201.865 70.9872L204.226 79.7205L208.71 90.8141L215.555 104.268L226.649 124.095L227.357 124.567L233.966 127.636H234.438L233.966 127.399L204.698 70.9872L203.99 70.5151ZM214.847 70.7512L214.139 70.9872L215.319 74.0556L247.656 133.3L253.321 135.189C241.677 113.001 229.009 91.6796 215.319 71.2232C215.477 70.7512 215.319 70.5938 214.847 70.7512ZM271.024 70.9872C268.821 71.9313 267.011 73.1115 265.595 74.5277L263.234 77.1241V78.5403V78.7763L265.595 78.5403L266.303 77.1241L271.26 71.2232L271.024 70.9872ZM226.413 72.1674L225.941 73.5836V74.0556C231.134 81.4514 236.09 89.1619 240.811 97.187L241.283 97.4231L240.339 92.7024L241.519 91.7582L242.463 91.9943L242.699 92.4664L243.88 96.4789L244.116 99.0753L244.352 99.3114L244.116 101.2L243.644 101.672L247.42 108.045H247.656C247.814 107.258 247.735 106.786 247.42 106.628V97.8951L240.103 87.9817L239.867 91.2862L238.687 90.8141C237.743 89.3979 237.349 87.4309 237.507 84.9132L227.357 72.8755L226.413 72.1674ZM148.758 75.9439L149.938 77.3601L149.702 76.416L148.758 75.9439ZM250.489 77.1241L250.253 78.3043L250.961 81.3727L253.557 83.7331L250.489 77.1241ZM201.393 80.6646L201.157 81.3727H201.393V80.6646ZM201.629 81.3727L201.393 82.0808H201.629V81.3727ZM201.865 82.0808L201.629 82.7889H201.865V82.0808ZM240.811 82.0808L240.103 83.261V83.7331C242.778 86.7228 245.138 90.106 247.184 93.8826L247.892 94.3546L243.88 83.497L240.811 82.0808ZM202.101 82.7889L201.865 83.7331L204.698 92.4664L206.114 96.0069L207.53 98.3672L209.183 100.019L207.53 99.0753L209.655 104.504L216.264 118.666C217.522 119.925 219.253 120.869 221.456 121.499L221.692 121.735L211.071 102.852L205.642 91.9943L202.101 82.7889ZM379.836 84.2051L378.655 85.8574L379.836 86.0934L380.072 86.8015L379.836 87.2736L378.183 86.8015L377.475 87.0376L377.003 86.8015C375.587 86.6442 374.485 86.8015 373.699 87.2736C373.069 87.1162 372.912 87.3523 373.227 87.9817C372.597 88.1391 372.361 87.9817 372.518 87.5096C370.945 87.9817 369.607 88.7685 368.506 89.87C366.775 91.2862 365.359 92.9384 364.257 94.8267L362.841 97.6591L361.189 103.324L362.369 103.56H364.729L364.965 103.796L368.506 104.032L369.45 104.268L369.922 104.976C370.079 105.763 369.922 106.235 369.45 106.392L364.965 105.92L360.717 104.976L360.481 107.337L360.953 107.101L361.661 107.573H362.841L364.257 106.628L365.437 106.864L365.91 108.281L365.201 108.753L363.549 108.989L361.897 110.169L360.717 109.933L360.245 109.225L359.065 114.654L358.12 117.722V118.666L353.4 134.008L351.747 140.381L350.803 145.574V147.226C350.489 147.384 350.567 147.541 351.039 147.698L351.511 147.462H354.108L354.344 147.226L360.953 146.754L361.425 146.518L361.897 140.617L363.785 131.884L367.09 121.735L372.046 109.225C372.204 108.753 372.046 108.595 371.574 108.753L371.81 105.684L372.991 101.436L376.295 91.2862L376.767 90.5781V90.106H375.587L372.991 99.7834L370.63 105.212C370.788 105.527 370.63 105.606 370.158 105.448L370.866 101.908L371.338 100.964V100.255L370.394 102.144L369.922 102.38C370.079 100.649 370.473 99.3114 371.102 98.3672V97.6591L370.158 99.5474C369.843 100.177 369.529 100.255 369.214 99.7834L369.686 98.6033C369.843 97.9738 369.686 97.7378 369.214 97.8951C369.529 96.0069 370.237 94.4333 371.338 93.1745C371.496 92.545 371.338 92.309 370.866 92.4664L370.63 91.9943L370.866 91.0501C371.338 89.9486 372.204 89.3192 373.463 89.1619L374.171 88.2177L375.115 88.9258L377.003 89.1619L377.475 87.9817C377.947 87.8243 378.105 88.1391 377.947 88.9258V89.3979C377.79 89.87 377.947 90.0273 378.419 89.87L376.767 94.1186L373.699 103.796L373.935 104.504L380.78 86.3295C380.937 85.7 380.858 85.464 380.544 85.6213C379.914 85.464 379.678 84.9919 379.836 84.2051ZM245.768 84.9132L249.78 94.3546L250.017 96.4789L249.308 96.715L254.265 103.796L255.209 104.268L255.445 105.448L260.638 113.001L267.955 125.039L273.856 135.897L274.328 136.133L269.371 124.095L265.359 118.194L258.514 109.225L256.153 105.448V104.504C256.311 104.032 256.704 103.875 257.334 104.032C259.537 106.078 261.504 108.438 263.234 111.113L263.943 111.585L260.638 105.448L260.166 104.976L258.986 103.796L258.278 101.672L256.389 98.3672L250.489 89.87L249.544 89.1619L255.209 100.964L256.153 101.436L256.389 101.672C256.547 101.2 256.389 101.042 255.917 101.2C255.603 100.57 255.917 100.334 256.862 100.492L257.57 101.672L257.098 102.852C255.996 103.009 255.288 102.852 254.973 102.38L253.793 101.2L248.128 87.2736L245.768 84.9132ZM297.459 85.8574L297.223 86.5655H297.459V85.8574ZM161.031 87.2736V87.9817L163.156 90.5781L164.1 91.2862L162.212 88.4538L161.031 87.2736ZM374.879 90.342L373.699 92.9384L373.935 93.4105L375.115 90.5781L374.879 90.342ZM373.935 90.8141L373.699 91.5222H373.935V90.8141ZM164.336 91.2862L164.1 91.7582L164.808 92.2303L164.336 91.2862ZM165.28 92.4664L165.044 92.9384L165.516 93.1745L165.28 92.4664ZM373.699 93.4105L373.463 94.1186H373.699V93.4105ZM382.904 94.8267V95.0627H383.376L382.904 94.8267ZM260.638 98.3672L260.402 99.5474L260.874 99.7834C261.031 98.9966 260.953 98.5246 260.638 98.3672ZM203.046 98.6033L202.574 99.3114V101.672L203.754 105.448L208.474 114.654L210.599 115.598L203.046 98.6033ZM261.11 99.7834V100.728L261.582 100.964L261.11 99.7834ZM249.308 100.255L249.072 102.38L249.308 102.616V108.989L249.072 109.697L248.6 109.933C254.265 119.374 259.694 129.052 264.887 138.965L265.831 139.201C265.516 138.414 265.437 137.234 265.595 135.661L265.359 135.425L264.887 124.803L261.818 119.61H261.582L261.818 124.095L262.054 124.331V126.927L261.818 127.399L260.874 127.636L260.402 126.691C260.717 125.747 260.638 125.196 260.166 125.039L259.694 116.07L256.625 111.349L256.153 111.113C256.625 111.585 256.704 112.529 256.389 113.946L256.625 114.182V117.486L256.153 117.958L255.209 116.778L254.973 112.293L254.737 112.057V108.517L249.308 100.255ZM313.982 100.728L313.746 102.852L313.982 103.088L314.218 106.628L314.454 106.864L315.398 113.946H315.634C315.477 112.687 315.634 112.136 316.106 112.293L316.578 113.946H316.814L314.69 106.392L313.982 100.728ZM181.566 101.672L182.511 103.324L183.219 104.032L182.983 104.268L184.871 105.684V105.212L188.175 107.573H188.411L183.691 103.088L181.566 101.672ZM334.989 101.672C334.674 102.301 334.674 102.773 334.989 103.088V107.101H335.697L335.225 102.616L334.989 101.672ZM494.312 106.628V106.864H495.02L494.312 106.628ZM493.368 106.864V107.101H494.076L493.368 106.864ZM186.995 107.573L186.759 108.045L188.175 109.225L186.995 107.573ZM188.411 109.225L188.175 109.697L198.089 122.207L207.53 136.133C211.779 142.742 215.792 149.665 219.568 156.904L220.04 157.14C212.015 138.572 201.472 122.6 188.411 109.225ZM489.12 109.933V110.169H490.3L489.12 109.933ZM486.995 110.169L484.871 110.641L479.206 111.113L478.97 111.585L488.884 110.405L486.995 110.169ZM417.837 111.349L414.769 112.529L415.713 113.001C416.972 113.946 417.758 115.362 418.073 117.25L421.142 115.834L419.489 113.709L418.781 111.821C418.624 111.349 418.309 111.192 417.837 111.349ZM414.061 112.765L411.464 114.182L415.241 117.014L415.477 116.542C415.477 117.486 415.87 118.115 416.657 118.43L417.837 117.722L416.185 114.654L414.061 112.765ZM317.05 113.946L316.814 114.654H317.05V113.946ZM317.522 115.126L317.286 115.834H317.522V115.126ZM460.323 115.126L461.031 116.07C461.346 115.126 461.11 114.811 460.323 115.126ZM317.758 115.834L317.522 116.542L318.939 120.082L321.299 127.872L327.908 144.63H328.144L319.175 118.902L317.758 115.834ZM459.143 116.07L457.963 117.014C457.491 116.857 457.334 117.014 457.491 117.486L459.379 116.542C459.537 116.07 459.458 115.912 459.143 116.07ZM304.541 117.25L301.944 117.722L297.459 119.374L292.975 124.803L290.614 130.232L289.67 129.996C290.142 127.321 291.087 125.196 292.503 123.623L294.863 121.027L292.975 122.207C290.772 123.938 289.041 126.141 287.782 128.816L289.67 131.412L293.447 134.244L295.099 134.953L297.459 135.425L300.292 135.189L302.888 134.008C301 133.851 299.662 133.222 298.876 132.12C298.404 131.963 298.246 131.491 298.404 130.704L300.056 129.996H301.944L306.193 129.052L311.386 127.163L308.553 123.623L305.721 117.722C305.878 117.25 305.485 117.093 304.541 117.25ZM347.499 120.318L345.847 120.554L343.486 125.511L342.07 130.468L341.362 130.232C341.991 126.613 343.25 123.623 345.138 121.263V120.791L342.778 121.499L339.946 123.151C340.418 123.623 340.496 124.488 340.182 125.747L340.418 125.983V128.344L340.654 128.58L340.89 134.481L341.126 134.717L341.598 147.934C341.755 148.249 342.149 148.328 342.778 148.171L343.25 147.698L344.902 142.506L347.499 136.369L350.567 130.704L351.039 130.468V131.176L348.443 137.077L344.902 147.462L345.138 147.934H347.735L347.971 147.698L348.679 142.27L350.567 134.481L354.816 120.791L354.108 121.027L351.983 120.554C347.892 125.905 344.902 132.278 343.014 139.673L342.306 139.909V138.729C342.778 137.47 343.093 136.133 343.25 134.717L344.666 130.468C346.24 126.691 348.207 123.466 350.567 120.791V120.318H347.499ZM337.585 121.971L335.225 123.387L335.697 125.983L335.225 128.108C335.068 128.422 334.517 128.501 333.573 128.344L332.865 127.636H332.629L332.865 130.704L334.281 138.021L337.113 147.934L337.349 148.171H339.238L338.766 135.189L338.53 134.953L338.293 128.816L338.057 128.58L337.821 123.623L337.585 121.971ZM173.777 127.163L173.541 127.872H173.777V127.163ZM266.775 128.108L267.011 130.704L267.483 136.841L267.719 137.077V139.437L267.955 139.909L271.732 140.853L271.968 140.617C271.81 139.516 271.968 138.808 272.44 138.493L266.775 128.108ZM423.266 136.369L421.614 137.077H429.403L429.639 137.313H432.471L432.707 137.549H434.36L431.291 136.841L423.266 136.369ZM434.832 137.549V137.785H436.012L434.832 137.549ZM447.814 140.145V140.381H448.286L447.814 140.145ZM448.758 140.381V140.617H449.23L448.758 140.381ZM449.466 140.617V140.853H449.938L449.466 140.617ZM273.62 140.853C273.305 141.326 273.384 141.483 273.856 141.326L273.62 140.853ZM364.729 142.034C364.257 143.135 364.1 144.551 364.257 146.282C364.729 145.968 365.516 145.889 366.618 146.046L364.729 142.034ZM402.023 142.742L400.135 143.45L390.221 145.574L389.513 146.046L391.165 146.282L396.83 146.518L397.066 146.754H399.426L399.662 146.99L408.632 147.698L408.868 147.934L414.297 148.407L419.017 149.351L421.85 149.587L438.136 153.127L445.925 155.724H446.397L441.441 153.599L428.223 149.351L426.57 149.115L423.266 147.934L415.477 146.046L411.936 144.866L404.383 143.214L403.439 142.742H402.023ZM265.359 142.978V143.214L271.496 146.282L271.26 146.046L271.496 144.866L271.26 144.394L265.359 142.978ZM384.792 146.754V146.99L387.153 147.462H388.097L386.445 146.754H384.792ZM285.658 147.698L285.894 148.171L287.074 148.879L294.863 151.711L303.596 155.96L315.162 163.041H315.398L307.137 156.196L297.459 149.587L294.391 149.351L285.658 147.698ZM376.059 148.407L376.531 148.879L388.333 151.947L406.035 157.612H406.507C401.157 155.094 395.493 152.97 389.513 151.239L379.363 148.643L376.059 148.407ZM361.897 150.295L361.661 150.531L355.052 151.239L360.245 152.183H364.493L364.729 152.419H365.91L361.897 150.295ZM318.939 151.711L319.411 152.183C322.715 152.813 325.705 153.835 328.38 155.252H328.852L326.492 153.599L326.256 153.127L336.877 157.612L344.43 161.624C350.882 165.244 357.176 169.178 363.313 173.426C377.003 183.182 390.221 193.568 402.967 204.583L403.675 205.291L400.135 201.278C388.175 188.847 374.643 178.068 359.537 168.942C351.197 163.906 342.463 159.422 333.337 155.488L324.131 151.947L318.939 151.711ZM343.722 151.711L342.778 152.183L350.331 153.835H350.803L346.791 151.711H343.722ZM347.499 151.711V151.947L348.207 152.183L358.828 155.252L367.798 158.792L384.084 166.581C399.662 175.078 414.533 184.441 428.695 194.669H428.931C417.916 184.599 405.642 175.944 392.109 168.706C384.556 164.772 376.688 161.231 368.506 158.084L354.58 153.363L348.679 151.711H347.499ZM337.349 154.307V154.543L347.735 159.736L365.673 170.594L384.32 183.576L398.718 194.669L399.426 195.377L395.414 190.657C387.389 182.002 378.262 174.528 368.034 168.233C358.907 162.411 348.679 157.769 337.349 154.307ZM446.633 155.724V155.96H447.105L446.633 155.724ZM287.546 157.14L288.018 157.848H288.254L287.546 157.14ZM406.743 157.612V157.848H407.216L406.743 157.612ZM316.814 159.736L317.05 160.208H317.286L316.814 159.736ZM276.216 179.327L275.98 179.799L276.452 180.035L276.216 179.327ZM237.743 254.15L237.507 254.386H235.146L232.55 254.858L227.357 256.51C224.682 257.612 222.322 259.028 220.276 260.759C217.286 263.119 214.769 266.03 212.723 269.492L209.891 275.865L208.71 281.766V287.903L209.655 293.096C211.071 297.659 213.195 301.593 216.028 304.898C219.017 308.359 222.873 311.113 227.593 313.159L233.022 314.811L235.618 315.047L235.854 315.283H239.159L239.395 315.519L239.631 315.283H242.699L242.935 315.047L245.768 314.811L250.489 313.395C254.265 311.821 257.57 309.697 260.402 307.022C262.762 304.661 264.808 301.986 266.539 298.997L268.899 292.86L269.607 289.319V287.195L269.843 286.959L269.607 280.586L268.663 276.101C267.404 271.853 265.516 268.312 262.998 265.48C260.166 261.861 256.625 259.028 252.377 256.982L245.06 254.622L241.283 254.386L241.047 254.15H237.743ZM421.378 254.15L421.142 254.386L417.129 254.622L411.464 256.274C407.845 257.848 404.777 259.815 402.259 262.175C398.954 265.008 396.358 268.627 394.47 273.033L393.053 277.281L392.345 281.058V283.654L392.109 283.89L392.581 290.263L394.234 296.164L397.066 301.593L401.079 306.55L406.271 310.562L411.228 313.159L414.533 314.339L419.489 315.283H426.334L431.999 314.103C435.933 312.687 439.395 310.798 442.385 308.438C445.847 305.606 448.6 302.065 450.646 297.816L452.77 291.444L453.006 288.847L453.242 288.611V285.071L453.478 284.835L453.242 284.599V281.058L452.77 278.462L451.118 273.033C449.702 269.571 447.814 266.66 445.453 264.3C442.621 260.995 439.08 258.399 434.832 256.51L428.695 254.622L424.682 254.386L424.446 254.15H421.378Z" fill="currentColor" stroke="currentColor"/>
<path d="M416.775 15.7551L416.893 19.4137L415.713 24.3704L412.408 33.1037L411.7 35.9361L411.464 39.2406L411.7 39.4766V41.955C411.228 42.1595 411.071 41.9628 411.228 41.3649H410.992L408.16 52.4585L409.34 51.5144L415.005 43.9613L416.539 42.427L416.657 43.0171L413.588 47.2658L408.632 52.4585V52.8126C408.049 52.5765 407.813 52.6945 407.924 53.1666L407.688 53.7567L407.215 53.6387V51.7504L409.576 43.9613L410.992 40.8928V36.6442L411.464 34.2838L415.713 22.01L416.775 15.7551Z" fill="currentColor" stroke="currentColor"/>
<path d="M235.028 19.0596L235.146 19.6497H234.91L235.028 19.0596Z" fill="currentColor" stroke="currentColor"/>
<path d="M234.792 20.0034L234.91 22.0097L234.674 22.2457V28.1466L234.91 28.3826V30.743L235.146 30.979V32.8673L235.618 35.5817C235.194 35.7548 235.036 35.6368 235.146 35.2277L234.792 34.6376L234.674 35.6997L238.215 44.197L243.644 52.9302L247.42 59.7752L248.6 62.8437L248.01 62.9617L247.066 61.7815L246.948 62.1356C249.324 65.6604 251.448 69.4369 253.321 73.4653H253.085L243.408 56.4708L243.88 56.7068L245.178 58.9491L245.296 58.5951L240.693 50.2158L240.575 50.5699L241.519 53.6384L241.047 53.4023L238.687 48.2096L234.438 36.6439L233.966 34.5195L234.202 34.0475C232.786 32.2379 232.235 29.5628 232.55 26.0223L233.494 22.1277C233.966 21.9389 234.124 22.1356 233.966 22.7178L233.258 25.0782V29.0908L234.084 32.7493L234.202 30.979L233.966 30.743V23.662L234.792 20.0034ZM246.004 59.8933L245.768 60.3653L246.24 60.6014L246.004 59.8933ZM246.712 61.0734L246.476 61.5455L246.948 61.7815L246.712 61.0734Z" fill="currentColor" stroke="currentColor"/>
<path d="M414.179 23.7803L414.061 24.1343C413.179 26.7936 412.039 29.1933 410.638 31.3334L410.52 30.9793L414.179 23.7803Z" fill="currentColor" stroke="currentColor"/>
<path d="M426.216 26.8484L427.751 30.5069L428.931 36.1718C428.726 36.9271 428.805 37.3991 429.167 37.588V43.4888L428.695 45.3771L427.751 47.0294L424.918 50.3338L424.564 52.1041C424.139 51.9153 424.021 51.4039 424.21 50.5699L426.571 47.2654L427.279 45.6131L427.987 42.7807V39.0042L426.807 32.1592L426.335 30.979L426.216 26.8484Z" fill="currentColor" stroke="currentColor"/>
<path d="M424.092 29.6812L424.446 30.5073C423.628 31.593 422.605 32.3405 421.378 32.7496C421.834 31.6166 422.581 30.6725 423.62 29.9172L424.092 29.6812Z" fill="currentColor" stroke="currentColor"/>
<path d="M265.241 42.8989C267.664 48.2648 270.614 53.1035 274.092 57.4151H273.856C270.016 53.3553 267.145 48.5166 265.241 42.8989Z" fill="currentColor" stroke="currentColor"/>
<path d="M240.221 43.6074L242.227 46.3218L248.364 59.3037L248.01 59.4217L246.24 56.7073L241.047 46.5579L240.103 44.1975L240.221 43.6074Z" fill="currentColor" stroke="currentColor"/>
<path d="M263.116 45.0229C267.082 49.5548 270.74 54.3935 274.092 59.5391L273.148 58.831L263.116 45.0229Z" fill="currentColor" stroke="currentColor"/>
<path d="M385.382 47.1473C386.138 47.0372 386.571 47.2339 386.681 47.7374C386.917 48.4298 386.799 48.7052 386.327 48.5635L386.209 47.9735C386.334 47.6273 386.216 47.5093 385.855 47.6194L385.028 48.9176L384.32 53.1662L383.494 54.9365L383.14 54.8185V53.1662L384.32 48.4455L385.382 47.1473Z" fill="currentColor" stroke="currentColor"/>
<path d="M397.892 51.1604L398.01 52.4586L397.774 52.6946L397.656 55.173L397.538 52.4586L397.892 51.1604Z" fill="currentColor" stroke="currentColor"/>
<path d="M397.42 55.6445L397.538 57.6508H397.302L397.42 55.6445Z" fill="currentColor" stroke="currentColor"/>
<path d="M397.184 58.0054L397.302 58.8315H397.066L397.184 58.0054Z" fill="currentColor" stroke="currentColor"/>
<path d="M248.246 60.3657L254.737 71.1053L254.029 70.6332L248.246 60.3657Z" fill="currentColor" stroke="currentColor"/>
<path d="M244.233 60.6016L244.469 61.0736" stroke="currentColor"/>
<path d="M251.315 60.6016L255.445 68.5087L254.973 68.2727L251.315 60.6016Z" fill="currentColor" stroke="currentColor"/>
<path d="M244.706 61.3101L245.296 62.1362L244.824 61.9001L244.706 61.3101Z" fill="currentColor" stroke="currentColor"/>
<path d="M404.029 78.3042C406.767 78.3199 408.695 79.1461 409.812 80.7826L410.756 82.1988L411.464 84.7952V92.3483L411.228 92.5843L410.992 98.0131L410.756 98.2491L409.812 105.566L408.16 112.175L407.098 113.945L406.271 113.591V112.175L406.743 110.995L408.868 99.6653L409.104 95.6527L409.34 95.4167V92.1122L409.576 91.8762V87.1555L409.812 86.9195L409.104 82.9069L407.334 80.9006L405.209 79.9564L403.675 79.7204C403.486 78.9966 403.604 78.5245 404.029 78.3042Z" fill="currentColor" stroke="currentColor"/>
<path d="M401.669 82.7886L402.731 82.9066L398.01 84.7949L400.488 84.9129L400.724 84.6769H404.973V84.9129L400.96 85.621H399.072L398.836 85.857H396.24C396.004 85.4636 395.768 85.5423 395.532 86.0931L392.227 87.7453H391.401C391.291 87.0057 391.566 86.5337 392.227 86.3291C395.028 84.8027 398.175 83.6226 401.669 82.7886Z" fill="currentColor" stroke="currentColor"/>
<path d="M404.029 94.8267L407.451 96.1249L406.625 96.2429L405.091 96.0068L404.855 97.187L403.793 97.423L402.967 96.833L403.085 95.5348L403.439 96.2429L404.147 96.1249L403.675 95.1807L404.029 94.8267Z" fill="currentColor" stroke="currentColor"/>
<path d="M268.309 98.6035L274.092 106.983L279.993 114.064L279.403 113.71L277.161 111.703L272.44 105.803L269.372 101.082L268.191 98.9576L268.309 98.6035Z" fill="currentColor" stroke="currentColor"/>
<path d="M277.751 99.0754C279.01 101.75 280.701 103.993 282.825 105.802L281.763 104.976L280.465 103.914C279.112 102.561 278.207 100.948 277.751 99.0754Z" fill="currentColor" stroke="currentColor"/>
<path d="M271.142 99.3115L279.285 109.343L281.409 112.884L280.229 111.939L273.148 102.498L271.142 99.3115Z" fill="currentColor" stroke="currentColor"/>
<path d="M274.918 100.019L281.173 107.69L282.117 109.342L281.173 108.634L274.918 100.019Z" fill="currentColor" stroke="currentColor"/>
<path d="M395.532 103.088L395.65 104.858L395.414 105.094L395.178 108.162L394.824 108.752L394.706 107.69L395.532 103.088Z" fill="currentColor" stroke="currentColor"/>
<path d="M392.228 108.988L392.346 109.342L383.022 127.871H382.55C382.204 127.997 382.086 127.879 382.196 127.517L383.376 124.685L387.625 116.777L383.494 116.541L381.842 116.069H379.01L378.774 116.305L374.997 116.541L374.407 116.305C374.234 115.88 374.352 115.723 374.761 115.833L376.413 115.361L381.488 115.125C381.693 114.653 381.496 114.496 380.898 114.653C380.394 114.464 380.198 114.071 380.308 113.473L375.115 112.529L375.469 111.585L381.37 112.765L381.134 112.293L377.357 110.641L374.879 110.404L374.997 109.696H378.301C380.646 110.263 382.495 111.325 383.848 112.883C383.738 113.245 383.856 113.363 384.202 113.237L384.674 113.709L386.563 113.945L387.507 114.653L389.041 114.889L392.228 108.988Z" fill="currentColor" stroke="currentColor"/>
<path d="M394.588 109.697L394.942 109.815L385.736 126.337L383.966 128.816L383.848 128.462L387.625 121.38L394.588 109.697Z" fill="currentColor" stroke="currentColor"/>
<path d="M434.714 113.945L435.54 114.063L434.714 114.181V113.945Z" fill="currentColor" stroke="currentColor"/>
<path d="M299.23 114.182L300.056 114.3C294.47 116.188 289.985 119.178 286.602 123.269L285.54 124.567L284.714 124.213L284.95 123.033L286.72 121.027L291.441 117.25L295.925 115.126L299.23 114.182Z" fill="currentColor" stroke="currentColor"/>
<path d="M435.894 114.182L438.136 114.772L437.546 114.89L435.894 114.418V114.182Z" fill="currentColor" stroke="currentColor"/>
<path d="M415.359 115.598L415.477 116.188H415.241L415.359 115.598Z" fill="currentColor" stroke="currentColor"/>
<path d="M202.456 116.542C211.645 123.088 220.024 130.444 227.593 138.611C241.079 152.977 252.644 169.264 262.29 187.47C267.688 197.494 272.408 208.194 276.452 219.571L281.173 235.149L284.006 248.839H283.77L281.173 240.578L277.869 231.608L268.427 209.657C263.219 198.658 257.554 188.115 251.433 178.029C244.887 167.265 237.806 157.037 230.19 147.344L216.5 131.058L202.456 116.542Z" fill="currentColor" stroke="currentColor"/>
<path d="M408.042 116.542C410.134 117.36 411.826 118.579 413.116 120.2L414.297 121.852L414.533 122.796H414.297L411.346 119.374L407.924 117.014L408.042 116.542Z" fill="currentColor" stroke="currentColor"/>
<path d="M280.465 119.374C280.984 119.17 281.141 119.445 280.937 120.201C281.739 123.647 283.077 126.558 284.95 128.934L283.297 127.518L281.645 124.685C280.937 123.127 280.544 121.357 280.465 119.374Z" fill="currentColor" stroke="currentColor"/>
<path d="M207.884 119.846C214.178 122.836 219.922 126.376 225.115 130.468C230.89 135 236.279 139.917 241.283 145.22C256.011 161.018 268.285 179.272 278.104 199.98L283.533 212.49L286.13 219.807L288.018 226.416L290.142 237.982L290.378 243.41L290.614 243.646V247.187H290.378L289.906 243.174L287.782 234.205L283.533 221.695L279.757 212.962C275.98 205.015 271.967 197.305 267.719 189.83C261.724 179.382 255.193 169.469 248.128 160.09C240.905 150.476 232.998 141.546 224.406 133.3L215.437 125.511L208.12 120.318L207.884 119.846Z" fill="currentColor" stroke="currentColor"/>
<path d="M303.479 120.083H305.839L305.957 120.555C301.645 121.625 298.184 123.631 295.571 126.573C294.391 128.037 293.526 129.728 292.975 131.648L297.814 131.412L298.168 132.12L294.981 132.828H291.913L291.559 132.238L292.503 129.642C292.314 128.43 292.472 127.565 292.975 127.046L296.162 123.623L299.702 121.263L303.479 120.083Z" fill="currentColor" stroke="currentColor"/>
<path d="M366.5 120.554L367.326 120.672L364.965 122.561L365.909 123.269C365.988 123.898 365.791 124.252 365.319 124.331L363.431 124.803H360.835L360.245 123.977L360.835 123.151L366.5 120.554Z" fill="currentColor" stroke="currentColor"/>
<path d="M441.795 122.207H444.391L444.509 122.679H442.031L439.906 123.151L435.186 125.275L435.304 124.921C435.193 124.575 435.311 124.457 435.658 124.567L438.254 123.151L441.795 122.207Z" fill="currentColor" stroke="currentColor"/>
<path d="M395.768 125.747L395.296 126.455" stroke="currentColor"/>
<path d="M278.931 126.691L288.018 143.567L287.31 143.095L278.931 126.691Z" fill="currentColor" stroke="currentColor"/>
<path d="M429.993 127.163L430.583 127.989H430.347L429.993 127.163Z" fill="currentColor" stroke="currentColor"/>
<path d="M140.85 128.58L140.968 129.406H140.732L140.85 128.58Z" fill="currentColor" stroke="currentColor"/>
<path d="M375.941 129.052L375.705 129.524" stroke="currentColor"/>
<path d="M141.086 130.468L141.204 131.058H140.968L141.086 130.468Z" fill="currentColor" stroke="currentColor"/>
<path d="M374.525 131.648L374.643 132.002L374.289 132.592L374.171 132.238L374.525 131.648Z" fill="currentColor" stroke="currentColor"/>
<path d="M374.997 132.592L373.935 133.89C373.478 134.929 373.282 136.227 373.345 137.785C372.951 137.25 372.833 136.424 372.991 135.307L374.053 132.828H374.525L374.997 132.592Z" fill="currentColor" stroke="currentColor"/>
<path d="M359.419 138.965L359.773 139.555L359.064 140.735C359.93 140.656 360.481 140.892 360.717 141.443L360.127 142.269L358.474 142.505C357.577 142.317 356.909 141.884 356.468 141.207C356.311 140.499 356.429 140.066 356.822 139.909L358.238 140.145L358.828 139.201L359.419 138.965Z" fill="currentColor" stroke="currentColor"/>
<path d="M142.739 145.81L142.857 146.636H142.621L142.739 145.81Z" fill="currentColor" stroke="currentColor"/>
<path d="M142.975 147.935L144.745 164.103L144.981 164.339L145.689 170.712L146.633 175.197V178.029L146.397 178.265V179.917L145.807 182.868L143.093 178.973V174.488L143.329 174.252V154.898L143.093 154.662L142.975 147.935Z" fill="currentColor" stroke="currentColor"/>
</svg>
