<svg width="220" height="135" viewBox="0 0 220 135" fill="none" xmlns="http://www.w3.org/2000/svg">
<path d="M109.524 0.0146669C109.657 -0.0258417 109.7 0.0175604 109.654 0.144873L109.74 0.318481L109.308 1.01291L106.971 7.52322L106.538 9.25931L106.105 11.7766L105.932 15.162L106.019 15.2488V16.8113L106.105 16.8981L106.279 19.0682L106.971 22.8876L108.183 27.4014L109.524 31.0037L109.567 30.6999L109.221 29.1374L108.875 26.0125L108.788 25.9257V25.1445L108.702 25.0577L108.615 22.3667L108.529 22.2799V20.023L108.615 19.9362L108.702 17.5925L108.788 17.5057V16.8981L109.135 14.9884L109.913 12.2106L110.216 11.82L110.519 11.9502V12.7315L110.606 12.8183V18.0265L110.692 18.1133L110.779 20.9779L110.865 21.0647V22.0195L110.952 22.1063L111.125 24.5368L111.212 24.6236L111.298 25.9257L111.385 26.0125L111.471 27.141L111.991 29.7451V30.1791L113.029 35.1269L113.635 37.2102L113.808 38.3387L113.592 38.4689L113.202 37.8179L112.25 34.5193L111.644 32.002L110.865 27.8354V27.3146L110.519 25.4049V24.7972L110.433 24.7104V24.1028L110.346 24.016L110.173 21.3251L110.087 21.2383V20.1966L110 20.1098L109.87 14.4241L109.394 16.2904V16.8113L109.221 17.5057V18.2869L109.135 18.3737L109.048 22.8876L109.135 22.9744V24.2764L109.221 24.3632V25.3181L109.308 25.4049L109.481 27.575L109.567 27.6618V28.1826L109.654 28.2694V28.7902L109.827 29.3979V29.9187L110 30.5263L110.346 33.1304L111.731 36.429L114.63 42.6355L114.673 42.2449L114.241 40.2484L113.981 37.8179L113.895 37.7311L113.808 35.995L113.721 35.9082V34.6061L113.635 34.5193V28.7902L113.721 28.7034V27.575L113.808 27.4882V26.5333L113.895 26.4465L113.981 24.9708L114.327 23.148V22.6271L115.279 18.2001L114.673 17.6793C113.548 16.2904 112.712 14.6122 112.164 12.6447L111.731 10.3878L111.644 7.69683L111.731 7.61003V6.74199L111.991 5.26632L112.596 3.26982L113.462 1.44693L114.111 0.535492L114.241 0.839306L113.895 1.62054L113.375 3.79065L113.289 5.09271L113.202 5.17951V8.13085L113.289 8.21766V8.99889L113.375 9.0857L113.462 10.1273L113.808 11.6898C114.16 12.9861 114.622 14.1724 115.193 15.2488L115.366 16.03L115.149 16.1602L114.933 16.0734C114.172 14.8234 113.595 13.3622 113.202 11.6898L112.943 10.3878L112.856 8.91209L112.769 8.82528V6.22116L112.856 6.13436V5.35312L112.943 5.26632L113.029 4.22467L113.462 2.40178H113.375C112.919 3.36241 112.573 4.433 112.337 5.61353V6.04755L112.164 6.65518V7.52322L112.077 7.61003V9.34611L112.164 9.43291L112.25 10.9954L112.943 13.6863C113.548 15.3067 114.342 16.7389 115.323 17.9831L116.751 13.3391L117.4 11.9068L117.659 11.82L117.962 12.037L118.049 12.3843L117.443 13.9467L116.924 15.7696L116.577 17.2453V17.6793L117.703 18.721L119.52 21.2383L120.299 22.8876L120.948 25.0143C121.992 22.7342 123.291 20.7088 124.843 18.938L125.622 18.5039L125.578 18.6341C124.678 20.7406 123.87 22.9396 123.155 25.2313L122.29 28.443L121.943 30.6131L122.29 31.7416L123.068 35.561V35.995L123.501 38.1651V38.6859L123.674 39.2935V39.8144L123.761 39.9012L124.194 44.1112L126.054 43.4167C126.331 43.4862 126.504 43.4572 126.574 43.3299H128.131C128.235 43.492 128.466 43.5209 128.824 43.4167L129.819 43.8507L130.425 41.5504L131.031 38.3387L131.81 35.6478C132.323 34.3688 133.059 33.3127 134.017 32.4794C134.593 31.9528 135.3 31.5766 136.137 31.351L136.05 30.8735V29.2243L136.137 29.1374L136.223 27.0541L136.57 25.1445L136.916 23.7556L137.781 21.4987L137.262 20.1098L135.964 18.721L135.791 18.2001L135.877 17.8529L136.656 16.8113L136.743 15.9432L136.483 14.8148V13.5995C136.57 13.2234 136.757 12.9485 137.046 12.7749L137.651 12.5145H138.084L138.56 12.8183L138.647 13.0787L138.43 13.2089C138.338 12.9253 138.078 12.8096 137.651 12.8617L137.002 13.3391L136.829 13.8599V14.3807L137.089 15.5092V16.8113C136.962 17.2626 136.731 17.6099 136.397 17.8529L136.31 18.3737C137.083 18.9293 137.646 19.6961 137.998 20.674L138.127 20.3702L138.214 18.8946L138.474 18.1567C138.733 18.0583 138.82 18.1596 138.733 18.4605L138.82 18.721L138.301 20.8911L138.214 22.8007L138.127 23.0178C137.908 22.931 137.822 22.9744 137.868 23.148L137.522 24.016L136.829 27.3146L136.743 28.6166L136.656 28.7034L136.57 31.1773L137.089 31.0905C137.112 30.5061 137.227 30.0142 137.435 29.6149C137.666 29.5339 137.724 29.693 137.608 30.0923L137.435 31.0471L137.608 30.9603L137.954 29.9187L137.868 29.4847L138.214 28.226L138.041 28.1826V27.575L138.301 26.2729V25.0577L138.214 24.9708L138.127 23.4084L138.344 23.0178C138.517 23.0698 138.56 22.9686 138.474 22.7139L138.56 22.6271V20.8043L138.647 20.7174V19.806L138.82 19.8494V20.8043L138.906 20.8911V25.4049L138.733 25.6653L138.647 26.7937H138.733L139.166 24.6236L139.253 22.4535L139.339 22.3667L139.599 18.9814L139.772 18.1133V17.3321L139.858 17.2453L140.031 15.6394L140.205 15.6828V16.464L140.118 16.5508V17.7661L140.031 17.8529V18.8078L139.945 18.8946V19.8494L139.858 19.9362V20.8911L139.772 20.9779L139.685 22.4535H139.772C140.112 21.2325 140.718 20.2776 141.589 19.589V17.6793L141.762 16.5943L141.935 16.6377V19.2418L142.065 19.2852L142.238 19.1984L142.152 19.372C141.979 19.3431 141.935 19.5311 142.022 19.9362L142.109 20.023V20.7174C142.022 20.8911 141.935 20.8911 141.849 20.7174L141.633 19.806C140.715 20.5641 140.153 21.6781 139.945 23.148L140.118 23.0612L141.373 21.5421L142.411 20.8477V20.9345C141.656 21.3338 141.035 21.8691 140.551 22.5403L139.599 24.2764C139.42 24.5889 139.333 24.994 139.339 25.4917H139.426C140.303 23.5068 141.529 21.8719 143.104 20.5872L143.58 20.1966L143.493 19.4154L143.969 18.8512L144.359 18.721L144.272 18.4171L143.969 18.3303V18.5039L143.493 18.4171V18.7644H143.363L143.147 18.3737C143.263 17.7372 143.19 17.2887 142.931 17.0283L142.628 16.8981L142.541 16.7245V15.7696C142.691 15.1388 142.994 14.6614 143.45 14.3373L145.311 13.6429C145.507 13.3999 145.565 12.9803 145.484 12.3843C145.276 12.2743 145.19 12.0428 145.224 11.6898L146.566 11.0388L147.042 10.6482C147.411 10.382 147.555 9.89008 147.474 9.1725L147.215 8.56487L148.08 7.69683L148.686 3.44343C148.571 3.54181 148.455 3.48394 148.34 3.26982L147.95 2.7924L147.301 3.35663C147.347 3.57653 147.304 3.70674 147.172 3.74724C147.039 3.591 146.808 3.53313 146.479 3.57364L145.657 4.22467L145.484 4.74549V6.26456C145.109 6.19512 144.849 6.26746 144.705 6.48157C144.734 6.65518 144.546 6.69858 144.142 6.61178H143.969L143.45 6.69858L142.541 7.43642C142.126 8.23502 141.592 8.91498 140.94 9.47632L139.902 9.91034L139.685 10.1273L139.599 10.9954L139.685 11.0822V11.9502L139.209 12.6013L138.863 12.6881L138.733 12.4277L139.253 12.2106L139.339 12.037V10.1273L139.729 9.64992L140.594 9.30271L141.243 8.73848C141.664 7.94567 142.198 7.2657 142.844 6.69858L143.623 6.26456H144.489L144.705 6.35137L144.921 6.00415C145.227 6.10832 145.328 6.00704 145.224 5.70034L145.138 5.61353V4.9191C145.218 4.42142 145.406 4.0308 145.7 3.74724L146.22 3.40003H146.998L147.128 3.26982L147.518 2.70559L148.037 2.53199L148.426 2.7924L148.729 3.31322C148.677 3.00073 148.735 2.79819 148.902 2.70559L149.205 2.57539L149.595 2.09797C149.912 1.80862 150.431 1.72181 151.153 1.83755L152.797 2.61879L154.182 2.70559C154.713 2.9255 155.116 3.27271 155.393 3.74724L156.042 4.05106L156.129 4.22467V5.61353L156.648 7.69683V8.43467L156.389 8.30446L155.956 6.91559L155.783 4.9191C155.656 4.84966 155.627 4.67605 155.696 4.39827L155.566 4.26807C155.151 4.1639 154.848 3.94689 154.658 3.61704L154.095 2.96601C153.68 2.77504 153.132 2.71717 152.451 2.7924L150.806 2.18477H150.028C149.699 2.26 149.453 2.41914 149.292 2.66219L149.162 3.31322L149.032 3.26982L148.6 7.39302C148.773 7.32357 148.83 7.39591 148.773 7.61003L148.297 8.17425L147.734 8.65168L147.994 9.78013C147.878 10.4746 147.575 10.9809 147.085 11.2992L145.83 11.9068C146.02 12.1904 146.078 12.6389 146.003 13.2523C145.911 13.6574 145.723 13.9612 145.441 14.1637L144.575 14.2505L143.753 14.9884C143.539 15.2372 143.482 15.6423 143.58 16.2036L144.705 18.2001L144.618 18.4605L144.705 18.5473V19.1116C144.22 19.0363 143.903 19.1665 143.753 19.5022L143.839 20.1966L144.359 21.0647L144.662 21.8893L144.705 21.6723L144.618 21.3251L144.921 21.1081L145.138 21.4987L145.268 22.8442L145.397 22.5403C145.265 22.4651 145.236 22.2915 145.311 22.0195H145.397L145.441 22.3233C145.487 22.1671 145.631 22.1092 145.873 22.1497L146.003 22.1931C146.044 21.7128 146.173 21.3222 146.393 21.0213L146.696 21.1515L146.609 22.1063L146.522 22.1931V23.4084L146.912 24.4934L146.955 23.1046C147.128 23.0351 147.186 23.1075 147.128 23.3216L147.258 23.6254L147.388 23.0612L147.301 22.8876L148.513 17.6793V17.3321L149.162 15.1186L149.205 15.3356L149.032 15.9432L149.205 15.9866L149.249 15.7262L149.292 15.9432L149.205 16.1602C149.05 16.0966 148.992 16.14 149.032 16.2904L147.821 21.6723H147.907L148.21 20.9345L148.253 21.0647L147.821 22.5403H147.907L148.6 21.0647L148.513 20.8911C149.794 19.2534 151.193 17.7343 152.71 16.3338L152.494 16.6377C151.392 18.2522 150.166 19.7423 148.816 21.1081C148.689 21.0676 148.646 21.111 148.686 21.2383L147.734 23.7556L147.474 25.0577L147.215 25.4917V26.0993L147.388 26.0125L147.821 24.7104L148.816 22.5837L148.859 22.8007L148.426 23.9292H148.513L149.508 21.8893L149.552 22.1063L148.686 24.3632L148.859 24.2764L149.681 23.0178L149.725 23.148V23.3216L149.205 24.6236L149.378 24.5368L150.46 22.931L150.417 23.0612L149.292 25.3615L150.157 24.7538L151.629 22.0195L152.624 20.9345L153.922 20.4136L154.485 20.023L154.961 19.1116L155.004 19.4154C154.883 19.9883 154.609 20.4078 154.182 20.674C153.478 20.9229 152.915 21.3135 152.494 21.8459L150.936 25.0577L149.335 26.8371L148.513 27.2712C148.484 27.6647 148.354 27.983 148.124 28.226L147.864 28.3128L147.518 27.8788L146.306 27.6184C146.139 27.8556 145.821 27.9424 145.354 27.8788L144.835 27.5316H144.662H144.056L143.19 27.792C142.388 28.145 141.71 28.6224 141.157 29.2243L140.205 30.6999L139.339 32.9568L140.378 33.1738C140.291 32.9539 140.334 32.8671 140.507 32.9134L140.767 32.8266L141.07 33.0436L141.286 33.4343C141.667 33.3995 141.912 33.5008 142.022 33.7381L141.286 33.7815L141.113 33.6947C140.94 33.7815 140.94 33.8683 141.113 33.9551H141.243V34.3023L140.551 34.4325L141.633 34.4759L141.719 34.3891H142.455C142.559 34.6495 142.458 34.7363 142.152 34.6495L141.633 34.8231H139.642C139.573 34.6958 139.4 34.6669 139.123 34.7363L138.993 34.6061C138.958 34.4499 139.117 34.4065 139.469 34.4759V34.3891L138.906 34.1287C137.337 38.1795 135.837 42.3317 134.406 46.5851L133.627 49.5364L133.367 51.3593L134.536 53.2256L137.392 52.7916L137.608 52.5746L138.127 51.7065V51.2291L136.613 51.3159V51.2291L136.829 51.0989L136.483 50.9253L136.613 50.7083L137.695 50.6215V50.144L138.127 48.6684L139.209 46.4549L139.166 46.5851C138.572 47.8293 138.11 49.1747 137.781 50.6215C138.047 50.6967 138.22 50.6533 138.301 50.4913V50.144L138.777 48.5382L138.82 48.7552C138.589 49.2934 138.474 49.9155 138.474 50.6215L138.82 50.4913C139.033 49.0561 139.423 47.7974 139.988 46.7153L140.031 46.8455C139.541 47.9334 139.224 49.1632 139.079 50.5347H139.512V50.4045L139.858 48.7552L140.291 47.5399C140.632 46.7529 141.093 46.0874 141.676 45.5434L144.142 40.8994L144.186 41.0296L142.368 44.7622L142.541 44.6754C143.349 43.6916 144.013 42.5632 144.532 41.29L145.138 38.9463L145.397 36.6894L145.311 36.5158H145.397L145.57 37.0366L146.393 37.8613L147.388 38.6859L148.08 39.9012L148.253 40.6824V41.5504L147.907 42.7657L146.998 43.8507L146.955 43.7205C147.636 43.0435 147.953 42.0018 147.907 40.5956L147.648 39.6407L147.388 39.2067L145.614 37.2536L145.57 37.7311V37.9047L145.484 39.4671L144.878 41.4636C144.359 42.7946 143.638 43.9231 142.714 44.849L143.147 45.0226L142.887 45.5434C142.282 46.0642 141.762 46.6719 141.33 47.3663C140.799 48.3096 140.424 49.4091 140.205 50.6649L140.464 52.1839L144.186 51.4027L144.229 51.2291H144.835L145.83 50.9687L145.657 50.4913L144.445 48.6684L144.186 47.7135V46.9323L144.489 46.1945L144.532 46.3247L144.359 46.5851V47.7135C144.757 48.9924 145.377 50.0486 146.22 50.8819L150.244 49.71L149.854 49.493L149.076 49.4062L148.946 49.276L148.859 48.842C149.303 48.3617 149.505 47.6383 149.465 46.6719C149.303 45.7055 148.885 44.9966 148.21 44.5452L147.648 44.2848C147.578 44.1112 147.65 44.0533 147.864 44.1112L148.816 44.632L148.34 44.0678L147.994 43.6337L148.21 43.5903L149.984 45.0226L150.157 45.4132C149.65 45.3322 149.26 45.1007 148.989 44.7188L149.378 45.1962C149.736 45.6476 149.996 46.1973 150.157 46.8455V48.1475L149.984 48.5816L151.326 49.3194H151.758L155.913 47.9305L160.283 46.2379L159.937 46.1511L163.183 44.8056L164.524 44.415L163.788 44.3716L162.317 43.9375C161.815 43.6945 161.397 43.3617 161.062 42.9393L161.105 42.8091L162.404 43.6771L163.096 43.9375L164.135 44.198H165.087C165.871 43.9144 166.549 43.5238 167.12 43.0261L166.991 42.8091L165.952 43.1563H164.827L163.009 42.7223L159.721 41.073L158.336 40.5522L156.345 40.205H154.788L153.36 40.4654L153.619 41.2032L154.138 42.0279L155.826 41.507L156.692 41.4202V41.507L154.441 42.2883L153.143 42.9827L152.667 43.3733C152.731 43.5643 152.687 43.6366 152.537 43.5903L152.408 43.5469L152.797 44.0244L153.749 44.5452L155.74 45.1528L157.081 46.0642L156.778 45.8472L156.172 45.5L154.441 45.066L153.143 44.5452L152.234 43.8073C152.281 43.68 152.237 43.6366 152.105 43.6771L151.975 43.7205L152.061 43.4601L151.499 42.7223L150.85 42.1581L150.374 41.5938L148.513 42.8525C148.467 43.003 148.539 43.0464 148.729 42.9827C149.364 43.2431 149.869 43.6337 150.244 44.1546L150.504 44.5018L150.763 45.4132C150.607 45.4769 150.55 45.4335 150.59 45.283L149.984 44.2414L149.335 43.5903L148.08 42.7657L148.816 41.9411C149.756 41.0036 150.939 40.3091 152.364 39.8578L154.441 39.4237H156.951L158.596 39.771L159.807 40.205L163.269 41.9411L164.481 42.2883L165.692 42.3751L166.904 42.1147L167.553 41.724C167.513 41.5967 167.556 41.5533 167.683 41.5938C167.769 41.7385 167.856 41.7096 167.943 41.507L168.462 41.3334H168.895C169.125 41.4781 169.241 41.7385 169.241 42.1147L176.338 38.2085C178.167 36.3798 180.172 34.7595 182.352 33.3474L184.689 30.5263L191.44 23.4084L194.555 19.9362L198.104 15.596L200.311 12.3409L200.354 12.4711L199.229 15.4224C198.485 17.0775 197.619 18.611 196.633 20.023C194.636 22.8818 192.4 25.5004 189.925 27.8788L187.026 30.5263L187.242 30.5697L189.925 29.5281L192.002 29.0072L193.301 28.9204L193.387 28.8336H196.07L198.666 29.3545L200.7 30.1791L200.138 30.2225L199.272 30.0489H196.849L196.762 30.1357H195.81L194.599 30.3961H194.079L192.262 30.8301L188.454 32.219L185.598 33.6079L181.574 36.5158L181.79 36.5592L183.002 36.1252L187.589 35.0835L189.233 34.9099L189.319 34.8231H190.098L190.185 34.7363L193.041 34.6495L193.127 34.7363H194.426L194.512 34.8231L196.33 34.9967L199.229 35.8214L195.81 35.8648L195.724 35.9516H194.512L194.426 36.0384H193.56L193.474 36.1252L191.656 36.2988L186.55 37.3404L181.141 38.7727L181.53 38.8161L182.742 38.4689L187.069 37.6877L189.233 37.514L189.319 37.4272H190.445L190.531 37.3404H193.214L193.301 37.4272H194.339L194.426 37.514L195.551 37.6008L197.714 38.1217C199.059 38.5383 200.256 39.1026 201.306 39.8144L201.176 39.8578L200.051 39.5105H199.618L198.493 39.2501H197.887L197.801 39.1633L193.474 39.0765L193.387 39.1633H191.916L191.829 39.2501H191.05L190.964 39.3369H190.185L190.098 39.4237L188.021 39.5973L186.896 39.8578H186.377L185.771 40.0314H185.252L184.646 40.205H184.127L184.04 40.2918L182.915 40.3786L181.011 40.7258H180.319L180.232 40.8126L178.501 40.8994L178.415 40.9862H176.078L175.991 41.073H175.212L175.126 40.9862H174.434L172.746 41.9845L173.049 42.0279L175.905 41.4202L178.328 41.1598L178.415 41.073H179.107L179.194 40.9862H179.972L180.059 40.8994L182.482 40.8126L182.569 40.7258H187.242L187.329 40.8126H188.367L188.454 40.8994H189.233L189.319 40.9862L191.137 41.1598L194.469 41.8977L194.166 42.0279H189.752L189.666 42.1147H188.108L188.021 42.2015L185.771 42.2883L185.684 42.3751L183.867 42.4619L183.78 42.5487H183.002L182.915 42.6355L180.146 42.8959L180.059 42.9827L178.155 43.1563L177.549 43.3299L175.256 43.6337L175.386 43.7639L176.857 43.8507L180.319 44.632L182.569 45.3264L184.992 46.2813L189.319 48.625C190.629 49.5393 191.855 50.5376 192.998 51.6197L192.868 51.5763L187.935 49.1458L185.338 48.1041L180.751 46.7153L176.684 45.8472L173.741 45.5868L172.962 45.4132H171.577L171.491 45.3264H167.337L167.25 45.4132H166.385L165.26 45.7604H164.913L162.966 46.6719L166.731 46.8889L166.817 46.8021H168.029L168.116 46.7153H173.049L173.135 46.8021H174.434L174.52 46.8889L176.164 46.9757L176.251 47.0625L177.982 47.2361L178.501 47.4097L180.319 47.6701L183.867 48.625L186.29 49.493C189.873 50.9629 192.975 52.916 195.594 55.3523L195.464 55.3089L193.647 54.2672L190.964 52.9652L185.858 51.0555C185.079 50.9397 184.386 50.7372 183.78 50.4479L180.319 49.6666H179.886L179.367 49.493L176.77 49.1458L176.684 49.059L173.914 48.7986V48.8854C179.251 50.8819 183.651 53.8187 187.113 57.696L186.983 57.6526L181.703 54.4408L178.068 52.618L174.347 51.0555L171.404 50.0138L167.337 48.8854L164.654 48.3646H163.529L163.442 48.4514H158.509L157.86 48.6684L161.365 48.8854L161.452 48.9722H162.057L165 49.493L168.289 50.361L171.318 51.4027C177.076 53.6133 182.283 56.3766 186.939 59.6925L186.81 59.6491L170.885 53.3124L166.471 51.8367L164.654 51.4027V51.4895C170.481 53.2835 175.198 56.1914 178.804 60.2133C179.825 61.3591 180.72 62.6323 181.487 64.0327L180.881 63.5119L179.28 61.8192C177.376 60.0831 175.27 58.5496 172.962 57.2186C170.862 55.9975 168.612 54.9269 166.212 54.0068L161.971 52.618L157.038 51.4895L154.614 51.2291L154.528 51.1423H153.662L153.576 51.0555L150.98 50.9687L149.205 51.5329L153.749 52.1839L157.211 52.8784L161.798 54.1804L165.519 55.5693L168.116 56.7846L172.356 59.3887C174.082 60.6097 175.654 61.9841 177.073 63.5119C178.129 64.594 179.052 65.8093 179.843 67.1576L177.895 65.2914C176.539 64.0761 175.068 62.9766 173.482 61.9928L173.741 62.34L175.342 63.8591L175.948 64.6403L175.645 64.4233L173.568 62.9476L170.452 61.3852L164.827 59.3019L161.452 58.347V58.4338C164.677 59.7127 167.648 61.2463 170.366 63.0345L174.26 65.9858L176.381 68.1125L177.16 69.1541L176.77 68.8503C175.749 67.936 174.624 67.1258 173.395 66.4198L170.452 64.6837L166.904 62.8608L163.096 61.1248L158.163 59.1283L153.143 57.3922V57.479L157.817 59.8227C159.738 60.9049 161.555 62.0912 163.269 63.3817L166.125 64.7705L170.885 67.5483C173.828 69.458 176.467 71.6715 178.804 74.1888L178.501 73.9718L174.26 71.1072L169.414 68.4163L170.236 69.3278C172.134 71.2432 173.807 73.3844 175.256 75.7513L174.996 75.5776C174.015 74.3335 172.933 73.1905 171.751 72.1489C169.102 69.6836 166.246 67.4267 163.183 65.3782L158.509 63.2949L144.229 57.5658L136.699 54.2672L136.613 54.354H136.094L135.488 54.5276L133.584 54.7013L133.108 54.8315L136.526 56.1769L139.209 56.7846L143.45 58.2602L146.046 59.3887L148.556 60.6907L151.672 61.906L157.644 64.6837C160.575 66.1999 163.344 67.8781 165.952 69.7184C168.018 71.1767 169.936 72.7826 171.707 74.536C172.879 75.705 173.917 77.007 174.823 78.4422L174.39 78.095L173.308 76.9231C171.387 75.1465 169.281 73.5551 166.991 72.1489L162.144 69.1975L159.807 67.9823L160.153 68.4163C162.127 69.9383 163.959 71.602 165.649 73.4075L165.606 73.5378C161.042 70.3028 156.282 67.2647 151.326 64.4233L151.585 64.7705C153.437 66.1247 155.125 67.6438 156.648 69.3278L159.894 73.3641C162.761 75.2044 165.401 77.2732 167.813 79.5706L167.596 79.4404L165.26 77.9648L159.201 74.5794L151.585 69.8052L151.542 69.9354L153.273 71.6715L156.389 75.6645L155.913 75.2738L152.884 72.4961L148.383 68.8503L143.796 65.6386L138.257 62.2532L134.709 60.3435L130.814 58.5206L125.622 56.4373L125.102 56.3505L122.939 55.5693H120.256V55.6561H120.602L122.939 56.2637V56.1769L122.29 55.8731L122.419 55.8297L126.747 57.2186L130.208 58.7811C134.017 60.6618 137.594 62.774 140.94 65.1178C147.725 70.0309 154 75.4561 159.764 81.3935L163.832 85.6469L163.529 85.4299L159.634 82.4786C155.313 78.7691 150.899 75.1523 146.393 71.6281L146.349 71.7583L148.6 74.6228L150.33 77.4873L150.633 77.7912C152.653 79.4404 154.571 81.191 156.389 83.0428L157.773 84.6053L157.557 84.4751C155.307 82.6811 152.97 80.974 150.547 79.3536L142.411 73.1037L142.628 73.4075L144.186 75.404L146.696 79.397L146.176 78.963L144.013 76.4457L139.123 71.5413L134.709 67.7219L130.814 64.6837L126.92 61.9928L122.419 59.2151L118.871 57.3054L114.63 55.3089L112.986 55.2221L112.899 55.1353H112.207L112.12 55.0485L109.437 54.7881V54.8749L112.467 55.6561L115.928 57.045L117.486 57.8262L117.4 57.6526L114.154 55.6127L114.284 55.5693L118.958 57.7394L122.766 59.9963L126.4 62.5136C131.068 65.9626 135.381 69.7676 139.339 73.9284C141.768 76.382 144.105 78.9283 146.349 81.5671L153.143 90.0305H155.999L156.086 90.1173L157.644 90.2909L159.721 90.8986C161.954 91.8129 163.814 93.1005 165.303 94.7614C166.03 95.5657 166.665 96.4627 167.207 97.4523L168.332 100.056L168.851 102.487L168.938 105.265L168.851 105.351V106.133L168.765 106.219L168.678 107.261L167.899 109.778C167.074 111.7 165.964 113.335 164.567 114.683C163.638 115.574 162.585 116.341 161.408 116.983L161.625 117.113L166.471 117.721L168.635 118.155H169.154L169.241 118.242L174.347 119.023L176.77 119.544H177.203L184.819 121.106L192.522 123.016H192.868L200.917 125.186L209.398 127.704L216.408 130.047L220 131.393L219.784 131.436L216.322 130.394L209.744 128.745L209.052 128.485H208.706L204.119 127.269H203.773L202.648 126.922H202.301L193.301 124.839L185.858 123.363L179.453 122.322L178.934 122.148H178.415L176.251 121.714H175.732L175.126 121.54H174.607L174.52 121.454H174.001L173.914 121.367H173.395L172.789 121.193L171.577 121.106L171.491 121.02H170.972L170.885 120.933H170.366L167.856 120.499H167.25L167.164 120.412L165.173 120.238L164.394 120.065H163.702L163.615 119.978H162.923L162.836 119.891H162.144L161.365 119.718H160.673L160.586 119.631H159.894L159.807 119.544L158.249 119.457L158.163 119.37H157.384L157.297 119.284H156.518L156.432 119.197H155.653L154.701 119.023H153.836L153.749 118.936H152.797L152.71 118.849H151.758L151.672 118.763H150.72L150.633 118.676L147.172 118.502L147.085 118.415L142.758 118.242L142.671 118.155H141.2L141.113 118.068H139.469L139.382 117.981H137.046L136.959 117.895L130.122 117.808L130.035 117.721H121.814L121.727 117.808H117.659L117.573 117.895H114.976L114.89 117.981L110.476 118.068L110.389 118.155L104.591 118.415L104.504 118.502H103.379L103.293 118.589H102.341L102.254 118.676L98.0134 118.936L97.9268 119.023L95.3304 119.197L95.2439 119.284H94.465L94.3784 119.37H93.5995L92.6475 119.544H91.7821L91.6955 119.631H91.0897L91.0031 119.718H90.3973L88.926 119.978H88.2337L88.1471 120.065L85.4642 120.325L85.3777 120.412L80.6176 121.02L80.0118 121.193L78.8867 121.28L74.0401 122.148H73.5209L61.9237 124.405L58.808 125.186L57.6829 125.36L56.2116 125.794H55.8655L49.0283 127.53L38.6428 130.568L31.1998 133.085L26.6129 134.908V134.821L31.1133 132.651L39.5083 129.266L44.6145 127.443L51.6247 125.186L59.2408 123.016L66.5972 121.193L73.867 119.631H74.2998L78.454 118.763L82.9976 118.025L81.7427 117.547L79.2329 116.159C78.1886 115.412 77.251 114.558 76.4201 113.598C75.2316 112.186 74.3084 110.508 73.6507 108.563L73.1314 106.046L73.0448 103.963L73.1314 103.876V102.661L73.2179 102.574L73.3045 101.532L73.6507 100.143L74.1699 98.7543C74.9777 96.8447 76.0884 95.2388 77.502 93.9367C78.327 93.1439 79.2502 92.4495 80.2714 91.8534L82.7813 90.725L84.3391 90.2909L85.8969 90.1173L85.9835 90.0305H88.753L88.8395 90.1173L90.3973 90.2909L92.9072 91.0722C94.7304 91.9055 96.3027 92.9906 97.6239 94.3273C99.0548 95.7856 100.151 97.5796 100.913 99.7092L101.432 101.619V102.14L101.605 102.834V105.872L101.086 108.476C100.74 109.547 100.307 110.531 99.7876 111.428C98.974 112.84 97.9788 114.069 96.8017 115.117L95.2006 116.289L95.7632 116.332L95.8497 116.245H96.5421L97.4076 116.072L101.994 115.725L102.081 115.638H103.033L103.12 115.551H103.985L104.072 115.464L109.005 115.204L109.091 115.117H110.303L110.389 115.03H112.034L112.12 114.943L116.015 114.857L116.101 114.77H119.736L119.823 114.683H130.641L130.728 114.77L136.267 114.857L136.353 114.943H138.084L138.171 115.03H139.902L139.988 115.117H141.719L141.806 115.204H142.931L143.017 115.291L145.441 115.377L145.008 114.857L144.099 114.032C142.951 112.782 142.028 111.306 141.33 109.605L140.551 106.914V106.393L140.378 105.699V103.008L140.464 102.921L140.637 101.358L140.983 100.056L141.416 98.8411L142.195 97.2787C143.014 95.8146 144.039 94.5559 145.268 93.5027C146.439 92.4784 147.795 91.6393 149.335 90.9854L151.672 90.2909L153.1 90.0739L150.98 88.1208L136.959 74.1454L136.916 74.2756C138.456 76.2026 139.783 78.3438 140.897 80.6991L140.637 80.5255C138.329 77.4005 135.776 74.5215 132.978 71.8885C130.324 69.4001 127.583 66.9985 124.756 64.6837L120.515 61.472L116.015 58.5206L116.101 58.6942L118.958 60.6907L122.939 63.9893C125.454 66.2115 127.863 68.5407 130.165 70.977L136.483 77.7477L143.493 85.8205L145.83 88.251L145.614 88.1208L143.71 86.8188L141.113 84.4751L132.675 76.1853L129.862 73.2773L129.819 73.4075C132.219 76.4399 134.123 79.9699 135.531 83.9976L135.358 83.9108C133.817 81.0579 132.058 78.4248 130.079 76.0117C128.065 73.4886 125.916 71.1014 123.631 68.8503L120.602 66.0726L122.333 67.8955L122.895 68.3729C126.149 71.8219 129.121 75.5545 131.81 79.5706L135.098 85.1261L137.868 91.376H137.781L134.752 86.2546L130.338 79.9179C126.565 74.9642 122.454 70.3491 118.006 66.0726L111.774 60.4303L106.928 56.5241L103.725 54.1804L102.773 53.5728L101.562 53.3124H100.956L100.783 53.1388L99.7876 52.9652C99.8626 53.2314 99.8193 53.405 99.6577 53.486L99.3548 53.5294L100.09 54.0068L101.994 54.6145L104.937 56.0033L108.053 57.913C111.099 60.0368 113.854 62.4529 116.318 65.1612C119.572 68.7259 122.457 72.661 124.972 76.9665C127.078 80.4965 128.809 84.4027 130.165 88.6851H130.079C128.804 86.0578 127.419 83.5405 125.924 81.1331C124.372 78.5811 122.728 76.1216 120.991 73.7548C118.083 69.7271 114.867 66.0089 111.341 62.6004L107.533 59.2151L105.37 57.6526L105.716 58.0866C107.505 59.5044 109.163 61.0524 110.692 62.7306C112.66 64.8371 114.477 67.094 116.145 69.5014C117.628 71.6599 119.012 73.9168 120.299 76.2721C121.689 78.8415 122.93 81.5613 124.02 84.4317C124.869 86.677 125.59 89.0496 126.184 91.5496H126.098L123.847 86.3414C122.22 82.9097 120.461 79.6111 118.568 76.4457C116.97 73.7953 115.268 71.249 113.462 68.8069C111.696 66.4401 109.807 64.1976 107.793 62.0796L107.75 62.2098C110.71 65.925 113.248 70.0627 115.366 74.6228L117.01 78.4422L118.482 82.6088L119.434 85.9941V86.3414L120.039 88.7719H119.953L118.222 84.2581L116.491 80.3519L113.462 74.2756L110.952 69.9354C107.917 64.8197 104.325 60.2625 100.177 56.2637C98.7807 54.9443 97.2806 53.729 95.6766 52.618L92.4744 50.7083L90.9166 50.1874V50.2742C94.9439 52.7163 98.4778 55.6532 101.518 59.0849C105.263 63.1704 108.465 67.8 111.125 72.9735L113.202 77.4873L114.933 82.3484L115.799 85.6469L116.404 88.9455H116.318L115.193 85.5601L113.029 80.3519L110.606 75.404L107.923 70.7166C104.265 64.7213 100.01 59.325 95.1574 54.5276C93.4726 52.8321 91.684 51.2407 89.7915 49.7534C87.4836 48.9433 85.2911 48.0173 83.214 46.9757L83.3006 47.1493L84.2526 47.8437L86.7624 49.1458L89.1857 50.7951C91.6551 52.6874 93.9486 54.7562 96.0661 57.0016C100.405 61.5038 104.155 66.5963 107.317 72.2791C108.384 74.1888 109.279 76.2721 110 78.529L110.692 81.3067V81.7407L110.865 82.3484L110.952 83.9976H110.865L110.519 82.3484L109.913 80.6123L107.836 76.0985C105.811 72.4296 103.547 69.0008 101.042 65.8122L100.999 65.9424C103.648 69.7386 105.898 73.9342 107.75 78.529L108.875 81.7407L109.74 84.9525L110.26 87.5566L110.519 89.9003H110.433L109.827 87.383L108.702 84.0844L106.971 79.9179C105.246 76.1795 103.313 72.6495 101.172 69.3278C95.9449 61.2318 89.93 53.9258 83.1275 47.4097L82.0024 46.3681L73.6939 42.2015L69.4532 39.6841L69.6695 39.988C69.6292 40.1384 69.6869 40.1818 69.8426 40.1182V40.2918H70.059L71.1841 40.9862L73.6939 42.8959C75.2979 44.2443 76.8125 45.6765 78.2376 47.1927C82.5707 51.7875 86.1768 57.1115 89.0559 63.1647L90.8733 67.6785L92.085 71.9319L92.5177 74.3624L92.6042 75.7513L92.6908 75.8381L92.7773 78.529L92.6475 78.746L92.2581 76.3589L91.7388 74.2756L90.0944 69.4146C88.6866 65.9366 87.0711 62.667 85.2478 59.6057C81.2552 52.8465 76.5673 46.7847 71.1841 41.4202L71.1408 41.5504C73.4257 43.8884 75.5028 46.4346 77.3721 49.1892C79.8531 52.806 82.0745 56.6833 84.0362 60.8209L86.546 66.6368L88.3635 71.9319L89.4886 76.3589L90.0944 79.6574L90.2675 81.2199H90.181L89.6617 79.2234L88.3635 75.3172L86.8922 71.411L84.2958 65.3348L80.9638 58.6074L80.9205 58.8245L82.5649 62.7306L83.8631 66.7236L84.642 69.7618L85.1613 72.5395L85.3344 74.4492L85.4209 74.536L85.5075 77.8346H85.4209L85.2478 76.4457L84.4689 73.0603L82.6515 67.2445C80.9725 62.7364 79.0685 58.4541 76.9394 54.3974C74.8854 50.5549 72.6352 46.9091 70.1888 43.4601C68.2387 40.7287 66.0606 38.2258 63.6546 35.9516L62.0535 34.6061L62.1833 34.6495L62.5295 34.8231L62.3564 34.5627L60.7986 33.4343L61.2746 33.9985C63.3748 36.3769 65.3365 38.8942 67.1597 41.5504C69.6349 45.1731 71.914 48.9924 73.9968 53.0086C76.2586 57.3661 78.3645 61.88 80.3147 66.55L82.9111 73.3207L84.7286 78.8762H84.642L78.4972 65.9424L74.343 57.5224L70.1023 49.4496L67.3761 44.7188L67.3328 44.849L68.8041 47.7135L70.6216 51.9669L72.1794 56.3939L73.4776 61.0814L74.4296 65.8556V66.3764L74.6892 67.6785V68.3729L74.7758 68.4597V69.1541L74.8623 69.2409L74.9489 71.4979L75.0354 71.5847V77.4005H74.9489L74.6892 74.6228L74.6027 74.536V74.0152L74.5161 73.9284V73.4075L74.2565 72.2791L73.9968 70.1958L72.7852 64.4667L71.3139 59.1717L69.7561 54.5711L68.5445 51.4461C66.7097 47.0075 64.6326 42.812 62.3131 38.8595L58.2455 32.3492L56.1684 29.3979L55.4327 28.66L55.3895 28.7902L59.1109 34.1721L61.7939 38.7727L64.6499 44.9358L65.6884 47.8003L66.9001 51.4461L68.2848 57.0884L68.631 59.7793L68.7175 59.8661L68.9772 62.557L69.0637 62.6438V63.5119L69.1503 63.5987L69.2368 68.3729L69.107 68.8503L68.2848 63.4251L66.8135 57.0016L66.5539 56.3939L65.5153 52.5746L63.395 46.6285L63.3517 46.9323L64.3902 50.6649V51.0121L64.9961 53.1822L65.8615 57.262L68.0252 66.2028L69.3234 70.8902L70.6216 74.7964H70.535L69.4965 72.7999L68.1117 69.675L66.0346 63.8591L64.2171 57.4356L60.8419 43.8073L59.5437 39.4671L58.1589 35.4741L57.5531 34.1721L54.8702 29.7451L51.9709 25.7087L50.0669 24.1462L50.1101 24.2764L52.9662 27.9222L55.0433 31.3076L57.1204 35.7346L59.0244 41.1164L60.4957 46.6719L61.7073 52.6614V53.0954L62.3131 56.3071V56.828L62.4862 57.4356L62.8324 60.3869L62.919 60.4737V61.0814L63.0055 61.1682L63.2651 63.7723L63.3517 63.8591V64.5535L63.5248 65.3348V66.0292L63.6979 66.8104L63.9575 69.5882H63.871L62.2266 63.3383L58.7648 46.8455L56.9473 39.8144L55.8222 36.2554L54.4375 32.5228C53.6412 30.5726 52.7325 28.7353 51.7113 27.0107L51.668 27.141L52.8796 29.6583L54.0913 32.87L55.0433 36.0818L56.0818 40.7692L56.428 43.3733L56.5146 43.4601L56.7742 46.2379L56.8607 46.3247V47.0191L56.9473 47.1059V47.8871L57.0338 47.9739V48.9288L57.1204 49.0156L57.2069 51.6197L57.2935 51.7065V54.0502L57.38 54.137V58.6508L57.2935 58.7376L57.2069 62.4702L57.1204 62.557V63.6855L57.0338 63.7723V64.8139L56.9473 64.9007L56.8175 66.767L55.6491 50.7517L55.5625 50.6649L55.3029 47.5399L55.2164 47.4531L55.1298 46.1511L55.0433 46.0642L54.524 41.9845L54.3509 41.4636V41.0296L53.6585 37.4706L52.5334 32.9568L51.2352 29.0506L49.6341 25.3615L49.5909 25.5785L50.1101 27.0541L50.8891 30.0923L51.8411 35.3005L52.1873 38.4255L52.2738 38.5123V39.1199L52.3603 39.2067V39.9012L52.4469 39.988V40.7692L52.5334 40.856V41.6372L52.62 41.724V42.5053L52.7065 42.5921L52.7931 44.3282L52.8796 44.415V45.1962L52.9662 45.283L53.0527 47.0191L53.1393 47.1059V47.8871L53.2258 47.9739V48.7552L53.3124 48.842V49.6232L53.3989 49.71L53.6585 52.835L53.7451 52.9218V53.5294L53.8316 53.6162V54.2238L53.9182 54.3106L54.2644 57.4356L55.0433 61.4286H54.9567L53.572 57.8696L52.62 54.3106L52.1873 52.2273V51.7933L51.668 49.1024V48.5816L51.5814 48.4948L51.3218 45.8906L51.2352 45.8038L50.9756 42.6789L50.8891 42.5921V41.8108L50.8025 41.724V40.9428L50.716 40.856L50.6294 39.1199L50.5429 39.0331L50.4563 37.2102L50.3698 37.1234V36.3422L50.1967 35.3873V34.5193L50.0236 33.6513V32.87L49.9371 32.7832L49.8505 31.3076L49.764 31.2207V30.6131L49.6774 30.5263V29.9187L49.5909 29.8319L49.2447 26.8805L48.5523 23.3216L47.557 21.5421L47.5138 21.8459L47.6003 21.9327L47.6869 23.3216L47.7734 23.4084V27.141L47.6869 27.2278V27.9222L47.6003 28.009L47.4272 29.5715L47.2541 30.0923L48.8985 33.6513L49.4178 35.3005L50.6294 41.6372L51.2352 46.6719H51.1487L50.9756 45.1094L49.8505 39.4671L48.2927 33.5645L47.3407 30.5263L47.2109 30.3961C46.807 32.219 46.2156 33.8538 45.4367 35.3005L44.5712 36.6894L43.273 38.2953L42.1912 39.1633L42.2345 39.0331L43.9654 35.0401L45.4367 30.1791L46.3021 25.4917L46.4752 23.3216L46.5618 23.2348V22.2799L46.6483 22.1931V20.5438L46.7349 20.457L46.5618 20.1098L45.7828 18.8946L43.0566 16.1602L39.1621 12.9485L36.2195 11.1256L32.4115 9.30271L29.4689 8.34786L26.5264 7.82704H25.4013L24.5358 7.65343H23.5838L23.4972 7.56663H22.5452L22.4587 7.47982H21.5067L21.4201 7.39302H20.4681L20.3816 7.30621H19.4296L19.343 7.21941H18.391L18.3045 7.1326H17.3525L17.2659 7.0458H16.3139L16.2274 6.959H15.2754L15.1888 6.87219H14.3234L14.2368 6.78539H13.2848L13.1983 6.69858H12.2463L12.1597 6.61178H11.2077L11.1212 6.52498H10.1692L10.0826 6.43817H9.13061L9.04406 6.35137H8.09205L8.00551 6.26456H7.0535L6.96696 6.17776H6.01495L5.9284 6.09096L2.29347 5.83054C1.51456 5.628 0.923158 5.23738 0.519276 4.65869C0.173092 4.22467 0 3.61704 0 2.8358L0.346184 1.62054L1.16837 0.7091C1.72804 0.199849 2.62234 0.0262408 3.8513 0.188275L3.93784 0.275079H4.88985L4.9764 0.361883H5.84186L5.9284 0.448687H6.88041L6.96696 0.535492H7.91896L8.00551 0.622296H8.95751L9.04406 0.7091H9.99607L10.0826 0.795904H11.0346L11.1212 0.882708H12.0732L12.1597 0.969512H13.1117L13.1983 1.05632H14.1503L14.2368 1.14312H15.1023L15.1888 1.22992H16.1408L16.2274 1.31673H17.1794L17.2659 1.40353H18.2179L18.3045 1.49034H19.2565L19.343 1.57714H20.295L20.3816 1.66395H21.3336L21.4201 1.75075L25.4013 2.01116L25.4878 2.09797H26.2667L26.3533 2.18477L28.3438 2.44518C30.744 2.98915 32.8788 3.79933 34.7482 4.8757C36.7619 6.00994 38.5361 7.38434 40.0708 8.99889L41.7152 10.9086L43.6192 13.8599L44.6577 15.0752C47.1907 17.9166 49.8303 20.6509 52.5767 23.2782L57.7695 28.226L62.6161 32.3926C66.101 35.234 69.7936 37.8671 73.6939 40.2918L73.7372 40.1616L73.0448 38.2519L72.9583 37.3838L73.1314 37.2102C73.0506 36.5795 73.0795 36.0586 73.2179 35.6478L73.6507 34.9533V34.6929L72.439 31.3076L72.0928 29.8319V29.3979L72.3958 29.0072L72.915 28.9204L73.3045 29.094L73.3478 29.2677L73.391 29.0506L72.6987 26.8805L72.3525 25.1445L72.5256 24.7538L73.2612 24.5802H74.0834L72.8718 22.1063L73.2612 21.6289C73.5151 21.3974 73.919 21.3106 74.4729 21.3685L75.0787 21.6289L75.9874 22.3233L76.7231 23.365L76.7663 23.0612L76.6798 22.9744V21.9327L76.9394 20.8911L77.1991 20.3268C77.3202 20.2342 77.5366 20.2053 77.8482 20.24L81.9158 25.8823L82.2187 24.9274L82.6947 24.8406L86.9355 29.7017L87.1518 28.9204L86.8922 28.7902L86.8057 28.3562L87.1518 28.226L87.0653 28.443L87.2384 28.5298L87.1518 27.8354L83.2573 20.4136L84.1227 20.3268L85.9835 24.0594L86.0267 23.8424L85.5075 22.8007L84.2958 19.589L83.0842 15.596L82.4784 12.4711V10.2142L82.5649 10.1273L82.6515 9.1725L82.9976 8.04405C83.3554 7.12971 83.8891 6.39188 84.5987 5.83054L86.07 5.22291H87.5413C88.753 5.51226 89.7627 6.00415 90.5704 6.69858C92.5206 8.21476 94.3236 9.87851 95.9795 11.6898C99.0606 15.081 101.816 18.7991 104.245 22.8442L104.288 22.5403L104.028 21.4987L103.855 19.4154L103.769 19.3286L103.682 16.03L103.769 15.9432V14.6412L103.855 14.5544V13.7731L103.942 13.6863L104.115 11.9502C104.461 10.1563 104.923 8.47807 105.5 6.91559L106.798 3.96425L107.663 2.40178L108.615 0.92611L109.524 0.0146669ZM108.356 2.70559C107.144 4.55742 106.192 6.66965 105.5 9.0423L104.634 12.7749V13.3825L104.461 14.0769V14.945L104.375 15.0318V16.5074L104.288 16.5943V17.9831L104.375 18.0699L104.461 20.3268L104.548 20.4136L104.634 21.6289L104.98 23.4518L107.75 29.0072H107.836L106.798 25.6219L106.192 23.0178L105.846 21.1081L105.759 19.8928L105.673 19.806L105.586 17.8963L105.5 17.8095L105.586 13.9033L105.673 13.8165V12.8617L105.759 12.7749V12.1672L105.846 12.0804L106.019 10.518L106.884 6.959L107.663 4.61528L108.356 2.96601V2.70559ZM86.3729 6.17776C85.7383 6.2935 85.2478 6.55391 84.9016 6.959L85.1613 7.0458L85.2478 7.30621L85.1613 7.56663L85.0747 7.47982V7.30621C85.1324 7.1326 85.0459 7.07474 84.8151 7.1326L84.3824 8.86869V10.952L84.642 12.1672L84.4689 12.5145L84.8151 13.8165V13.9901L84.2093 12.254L84.0362 11.2992V10.518L83.9496 10.4312V9.38951L84.1227 8.52147V8.08745L83.6035 9.38951L83.5169 10.4312L83.4304 10.518V12.1672L83.5169 12.254V13.0353L83.7766 14.4241C84.2381 16.4496 84.844 18.3882 85.594 20.24V20.1532C85.6517 19.9796 85.796 19.9217 86.0267 19.9796L86.546 22.2365L86.4595 22.4969L87.0653 24.1462L87.2384 24.233L87.1518 24.0594L87.2384 22.2365L87.4115 21.6289L87.3249 21.4553L87.498 21.3685L87.5846 21.5421L87.6711 22.3233L88.1904 23.799L88.5366 25.5351L88.1904 25.4483L87.8442 23.9726V23.5386H87.7577L87.9308 26.0559L87.6711 26.1427C87.6134 25.6798 87.4403 25.3036 87.1518 25.0143L86.2864 24.233L86.0267 24.1462L87.8442 28.0524C87.9019 28.3996 87.8442 28.66 87.6711 28.8336C89.0559 29.0651 90.181 29.6149 91.0464 30.4829C92.4312 31.9296 93.6428 33.55 94.6814 35.3439L94.7679 34.8231C94.8256 34.418 94.7679 34.1576 94.5948 34.0419L94.2486 34.1287L93.2966 33.0002L91.7388 29.7885L91.6522 30.7433L91.5657 30.8301L91.133 29.9621V29.0072L90.9599 28.3996L89.6617 25.8823V25.7087L90.5271 27.1844L90.7002 27.2712L90.6137 26.3163L86.8057 18.6776V18.5039L89.4886 23.2782L90.354 25.0143L90.5271 25.1011L90.4406 24.667L90.5271 24.3198L89.6617 22.7573V22.5837L92.3446 27.0107H92.2581C91.6811 26.3163 91.1907 25.5351 90.7868 24.667L90.6137 24.5802L90.8733 25.9691L92.5177 28.8336C92.46 28.9494 92.5465 28.9783 92.7773 28.9204V29.4413L95.0275 33.4343L95.1141 33.2606C95.0564 33.0292 95.1141 32.9424 95.2872 33.0002L95.2006 33.5211V33.9551L96.9315 37.08C96.8739 37.1958 96.9604 37.2247 97.1912 37.1668L97.2777 37.4272L97.4508 37.514L97.3643 36.5592L97.0181 36.0384L97.1046 35.8648C98.0278 37.4272 99.0664 38.9029 100.22 40.2918L100.566 40.5522L100.653 40.4654C100.999 41.2177 101.49 41.8543 102.124 42.3751L102.038 42.5487L101.778 42.3751L99.4414 39.6841L97.797 37.2536L97.6239 37.1668L98.0566 38.4689L99.9607 41.3334L100.134 41.2466L101.086 42.5487L101.172 42.3751L102.99 46.1077L104.201 48.1909V48.3646L103.163 47.0625L102.038 44.7188L100.74 42.8959L100.566 42.4619L100.393 42.3751L100.653 43.0695V43.4167L100.307 43.1563L99.5279 41.7674L99.3548 41.6806L101.259 45.2396L101.778 46.4549V46.5417L99.8741 44.1112L99.701 44.0244L101.692 48.1909L102.038 49.2326L103.769 52.2707C103.942 52.5022 104.23 52.589 104.634 52.5312L103.855 51.1423V50.9687L104.721 52.4444L105.153 52.7048H105.586L104.807 51.1423H104.98L102.817 47.4097L101.778 45.3264V45.1528C103.278 47.4676 104.663 49.927 105.932 52.5312L106.019 52.618L105.153 51.3159L104.98 51.2291L105.673 52.7048L106.105 52.8784L109.394 53.3124L109.481 53.3992L110.692 53.486L110.779 53.5728H111.385L111.471 53.6596L114.068 53.8332L114.154 53.92L117.703 54.0936C117.818 53.2256 117.731 52.5312 117.443 52.0103L117.53 51.8367L116.837 49.8402L115.625 47.0625L115.193 46.7153L115.279 47.2361L117.097 51.0555L117.183 51.1423L116.837 50.7083C116.491 50.1874 116.001 49.8113 115.366 49.5798C115.366 48.4803 115.049 47.6412 114.414 47.0625C114.472 46.8889 114.414 46.831 114.241 46.8889L113.808 47.6701C113.462 48.0752 113 48.3646 112.423 48.5382V48.625C112.827 48.6828 113.087 48.596 113.202 48.3646L113.289 48.4514L112.769 48.8854L112.856 48.9722C112.971 48.7986 113.202 48.7407 113.548 48.7986L113.462 49.2326L112.423 50.1006L111.471 50.4479L110.519 50.6215H109.221L107.75 50.2742L107.49 50.0138L106.192 49.1458C105.557 48.6828 105.153 47.9884 104.98 47.0625C104.692 47.1204 104.519 47.0625 104.461 46.8889C104.576 46.1945 104.836 45.6736 105.24 45.3264C105.932 44.4005 106.798 43.6771 107.836 43.1563L110 42.4619H111.558L107.317 33.3474L106.971 33.5211L106.884 33.9551L106.625 33.5211L106.538 33.4343L106.971 33.0002L107.144 33.087L105.5 29.4413C104.865 29.9621 104.144 30.3672 103.336 30.6565L103.163 30.9169C102.874 31.322 102.47 31.6114 101.951 31.785L100.48 32.1322C98.4605 32.1901 96.9027 31.785 95.8064 30.9169C95.4026 30.6855 95.1429 30.3382 95.0275 29.8753L95.2872 29.094L95.7199 28.7468L95.5468 27.9656C95.4891 27.5605 95.5757 27.329 95.8064 27.2712C96.9604 25.8823 98.6048 24.9853 100.74 24.5802H102.384L103.076 24.7538L103.163 25.1011H101.518L99.701 25.4483C99.0087 26.5478 98.2586 27.5605 97.4508 28.4864L97.5374 28.66L96.2392 28.7468L95.9795 29.2677C96.0372 29.3834 96.0084 29.4123 95.893 29.3545C95.7776 29.2387 95.6911 29.2677 95.6334 29.4413L95.7199 29.8753L97.1046 30.7433L99.0087 31.2641H99.9607C98.4605 31.0905 97.2777 30.6276 96.4123 29.8753C96.1238 29.8174 96.0084 29.6438 96.0661 29.3545C96.3546 29.2966 96.5854 29.3834 96.7585 29.6149L97.4508 29.2677L97.8836 28.8336L97.7105 28.66L97.797 28.3128C98.4894 27.4448 99.3837 26.8371 100.48 26.4899L101.172 25.5351L101.518 25.3615L101.086 26.2295V26.3163L102.211 25.8823L102.297 26.1427H103.423L103.769 26.3163C103.942 26.2584 103.971 26.3452 103.855 26.5767C103.509 26.6925 103.076 26.7214 102.557 26.6635L100.999 27.358C100.422 27.9367 99.9607 28.6022 99.6145 29.3545C99.5568 29.5859 99.3548 29.6727 99.0087 29.6149V29.2677L98.6625 29.5281H98.4028L97.8836 30.1357L99.4414 30.4829H100.913L102.644 30.1357C102.817 30.02 102.788 29.9332 102.557 29.8753V29.6149L102.903 29.0072C103.192 28.6022 103.596 28.2839 104.115 28.0524L104.461 27.5316C104.23 26.4899 103.826 25.6798 103.249 25.1011L103.423 24.8406L103.769 25.1011C103.826 25.2168 103.884 25.2168 103.942 25.1011V24.667L102.817 22.7573C102.874 22.5837 102.846 22.5259 102.73 22.5837C101.922 21.8893 101.23 21.1081 100.653 20.24L98.9221 17.5491L98.2297 15.9866L96.6719 13.9901L95.3737 14.511L93.4697 15.0318L92.085 15.2922H91.4791L91.3926 15.379H90.5271L90.4406 15.4658H89.3155L89.229 15.379L87.5846 15.2922C87.4115 15.2343 87.3249 15.1186 87.3249 14.945C87.4403 14.6556 87.7577 14.5688 88.2769 14.6846L89.229 12.4277V12.254C88.4789 12.7749 88.0173 13.4982 87.8442 14.4241L87.5846 14.3373C87.6423 13.3536 87.9019 12.6302 88.3635 12.1672C88.9982 11.2992 89.9213 10.7494 91.133 10.518H92.4312L92.6042 10.6048L92.7773 10.952L92.6042 11.0388C92.0273 10.9809 91.5945 11.0099 91.3061 11.1256V11.7332L90.9599 12.9485L91.3926 12.8617L91.9119 11.7332C91.9696 11.5596 92.1138 11.5017 92.3446 11.5596C92.2869 11.7911 92.3446 11.9647 92.5177 12.0804L92.3446 11.9068L91.9984 12.8617L93.037 12.9485L92.7773 12.5145L92.6908 12.254L93.4697 13.2089V13.3825H92.6908L92.6042 13.2957L91.7388 13.3825L91.3926 14.0769H91.133V13.5561H90.9599L90.6137 14.1637C90.556 14.3373 90.4118 14.3952 90.181 14.3373L89.9213 13.9901L89.3155 14.4241L89.1424 14.6846H90.4406L90.5271 14.5978H91.3061L91.3926 14.511L92.4312 14.4241L93.989 14.0769L95.9795 13.3825V13.2957L94.3352 11.4728C92.7773 9.7946 91.0753 8.28999 89.229 6.959L87.6711 6.26456L86.3729 6.17776ZM116.491 18.1567L116.404 18.5907L116.751 18.938L117.962 21.6289L118.741 24.233L118.914 25.4483L119.087 25.5351L119.347 23.8858L119.953 24.0594L120.039 24.1462C119.347 21.6578 118.164 19.6613 116.491 18.1567ZM116.318 19.1984L115.972 20.9345L115.885 22.5837L115.799 22.6705V23.9726L115.712 24.0594V28.3128L115.799 28.3996V29.7885L115.885 29.8753V30.8301L115.972 30.9169V31.6982L116.231 33.1738V33.7815L116.751 36.7328L117.703 40.639V40.9862L118.741 44.7188L121.857 54.0936C121.915 54.2094 122.088 54.2383 122.376 54.1804L121.684 51.5763L121.078 48.7118L120.818 46.5417L120.732 46.4549V45.8472L120.645 45.7604L120.559 44.1112L120.472 44.0244V42.8091L120.386 42.7223V37.08L120.472 36.9932V35.8648L120.559 35.778L120.645 34.1287L120.732 34.0419V33.4343L120.818 33.3474V32.7398L121.078 31.6114V31.1773L121.684 28.3128L122.376 25.7955L123.155 23.4518L124.194 21.1081V20.9345C123.04 22.3812 122.059 24.0305 121.251 25.8823L121.164 26.1427V28.3996L120.991 28.8336L120.818 28.7468L120.732 27.4448L119.953 29.3545L119.347 31.5246L118.741 34.6495L118.655 36.0384L118.568 36.1252V37.1668L118.482 37.2536L118.568 41.2466L118.655 41.3334L118.914 43.7639L119.52 46.2813V46.4549L119.001 45.066L118.568 43.0695L118.395 41.4202L118.308 41.3334V40.5522L118.222 40.4654V39.0765L118.135 38.9897V36.646L118.222 36.5592L118.308 34.3891L118.395 34.3023L118.568 32.5662L119.174 29.8753L118.828 29.7885C118.885 29.3834 118.857 29.2098 118.741 29.2677L118.482 29.0072L118.741 27.7052L118.655 25.9691L118.049 23.2782C117.645 21.7157 117.068 20.3558 116.318 19.1984ZM143.753 20.3268L141.762 22.4101L140.637 23.9726L139.858 25.4483L139.512 25.8823L139.339 25.7955L139.253 26.9239L139.166 27.0976L139.685 27.1844C139.801 27.3001 139.83 27.5316 139.772 27.8788L140.205 28.0524C140.32 27.4737 140.58 27.0107 140.983 26.6635C140.926 26.4899 140.983 26.4321 141.157 26.4899L142.974 24.3198V23.8858C141.993 24.8696 141.128 25.998 140.378 27.2712L139.945 27.4448L140.291 26.6635L142.022 24.5802L142.714 23.9726L143.061 23.4518V22.8442C141.964 23.8858 141.041 25.0721 140.291 26.4031L139.858 26.8371H139.599V26.5767L140.378 25.4483L143.32 22.1497L143.234 21.9761C143.176 21.8025 143.263 21.7446 143.493 21.8025L143.666 22.1497C143.609 22.3233 143.666 22.3812 143.839 22.3233L144.013 22.6705V23.6254L144.099 23.7122C144.215 24.4645 144.157 25.0721 143.926 25.5351L144.013 26.0559L144.359 25.0143L144.445 24.0594L144.532 23.9726L144.445 22.1497L144.186 21.2817L143.753 20.3268ZM147.821 21.7157L147.734 21.9761H147.821V21.7157ZM77.8049 21.8893L77.6318 22.0629V23.1914L77.978 24.233V24.667L78.1511 25.0143L78.4972 24.8406H78.8434L80.4013 27.0107L86.546 36.7328L91.3926 44.8924L94.1621 49.927L94.941 50.1006L95.0275 50.1874L90.9599 42.7223L85.0747 33.0002L84.9016 32.8266V32.7398L81.8725 28.0524L81.6994 27.8788L81.4398 27.7052L81.3533 27.2712L77.8049 21.8893ZM73.9103 22.2365L74.9489 24.4934L75.6412 24.8406C75.6989 25.13 75.6412 25.3036 75.4681 25.3615L86.546 46.8021L86.6326 46.8889L85.8537 46.5417L85.594 46.6285L89.1424 48.1041H89.229L77.6318 26.6635V26.4899H77.2856L77.3721 26.1427L75.8143 23.365C75.4104 22.6705 74.7758 22.2944 73.9103 22.2365ZM147.821 22.5837L147.734 22.8442H147.821V22.5837ZM115.02 24.3198L114.847 24.667L114.673 26.9239L114.587 27.0107L114.5 29.9621L114.414 30.0489V32.8266L114.587 33.3474L114.847 33.1738V32.219L114.933 31.9586L115.279 31.8718L115.193 30.3093L115.106 30.2225V29.094L115.02 29.0072V27.0107L114.933 26.9239V24.9274L115.02 24.8406V24.3198ZM74.4296 25.5351L73.6507 25.7087L74.5161 28.9204L76.1605 33.0002L78.6703 37.9481L82.738 45.2396L82.9976 45.4132L85.4209 46.5417H85.594L85.4209 46.4549L74.6892 25.7087L74.4296 25.5351ZM78.4107 25.6219L78.1511 25.7087L78.5838 26.8371L90.4406 48.625L92.5177 49.3194C88.2481 41.1598 83.6035 33.3185 78.5838 25.7955C78.6415 25.6219 78.5838 25.564 78.4107 25.6219ZM99.0087 25.7087C98.2009 26.0559 97.5374 26.4899 97.0181 27.0107L96.1526 27.9656V28.4864V28.5732L97.0181 28.4864L97.2777 27.9656L99.0952 25.7955L99.0087 25.7087ZM82.6515 26.1427L82.4784 26.6635V26.8371C84.3824 29.557 86.1998 32.3926 87.9308 35.3439L88.1039 35.4307L87.7577 33.6947L88.1904 33.3474L88.5366 33.4343L88.6231 33.6079L89.0559 35.0835L89.1424 36.0384L89.229 36.1252L89.1424 36.8196L88.9693 36.9932L90.354 39.3369H90.4406C90.4983 39.0476 90.4694 38.874 90.354 38.8161V35.6044L87.6711 31.9586L87.5846 33.1738L87.1518 33.0002C86.8057 32.4794 86.6614 31.756 86.7191 30.8301L82.9976 26.4031L82.6515 26.1427ZM54.1778 27.5316L54.6105 28.0524L54.524 27.7052L54.1778 27.5316ZM91.4791 27.9656L91.3926 28.3996L91.6522 29.5281L92.6042 30.3961L91.4791 27.9656ZM73.4776 29.2677L73.391 29.5281H73.4776V29.2677ZM73.5641 29.5281L73.4776 29.7885H73.5641V29.5281ZM73.6507 29.7885L73.5641 30.0489H73.6507V29.7885ZM87.9308 29.7885L87.6711 30.2225V30.3961C88.652 31.4956 89.5174 32.7398 90.2675 34.1287L90.5271 34.3023L89.0559 30.3093L87.9308 29.7885ZM73.7372 30.0489L73.6507 30.3961L74.6892 33.6079L75.2085 34.9099L75.7278 35.778L76.3336 36.3856L75.7278 36.0384L76.5067 38.0349L78.93 43.2431C79.3916 43.7061 80.0262 44.0533 80.834 44.2848L80.9205 44.3716L77.026 37.4272L75.0354 33.4343L73.7372 30.0489ZM138.906 30.5697L138.474 31.1773L138.906 31.2641L138.993 31.5246L138.906 31.6982L138.301 31.5246L138.041 31.6114L137.868 31.5246C137.349 31.4667 136.945 31.5246 136.656 31.6982C136.425 31.6403 136.368 31.7271 136.483 31.9586C136.252 32.0165 136.166 31.9586 136.223 31.785C135.646 31.9586 135.156 32.2479 134.752 32.653C134.117 33.1738 133.598 33.7815 133.194 34.4759L132.675 35.5176L132.069 37.6008L132.502 37.6877H133.367L133.454 37.7745L134.752 37.8613L135.098 37.9481L135.271 38.2085C135.329 38.4978 135.271 38.6714 135.098 38.7293L133.454 38.5557L131.896 38.2085L131.81 39.0765L131.983 38.9897L132.242 39.1633H132.675L133.194 38.8161L133.627 38.9029L133.8 39.4237L133.541 39.5973L132.935 39.6841L132.329 40.1182L131.896 40.0314L131.723 39.771L131.29 41.7674L130.944 42.8959V43.2431L129.213 48.8854L128.607 51.2291L128.261 53.1388V53.7464C128.146 53.8043 128.175 53.8622 128.348 53.92L128.521 53.8332H129.473L129.559 53.7464L131.983 53.5728L132.156 53.486L132.329 51.3159L133.021 48.1041L134.233 44.3716L136.05 39.771C136.108 39.5973 136.05 39.5395 135.877 39.5973L135.964 38.4689L136.397 36.9064L137.608 33.1738L137.781 32.9134V32.7398H137.349L136.397 36.2988L135.531 38.2953C135.589 38.411 135.531 38.44 135.358 38.3821L135.618 37.08L135.791 36.7328V36.4724L135.445 37.1668L135.271 37.2536C135.329 36.6171 135.473 36.1252 135.704 35.778V35.5176L135.358 36.212C135.243 36.4435 135.127 36.4724 135.012 36.2988L135.185 35.8648C135.243 35.6333 135.185 35.5465 135.012 35.6044C135.127 34.9099 135.387 34.3312 135.791 33.8683C135.848 33.6368 135.791 33.55 135.618 33.6079L135.531 33.4343L135.618 33.087C135.791 32.6819 136.108 32.4505 136.57 32.3926L136.829 32.0454L137.175 32.3058L137.868 32.3926L138.041 31.9586C138.214 31.9007 138.272 32.0165 138.214 32.3058V32.4794C138.156 32.653 138.214 32.7109 138.387 32.653L137.781 34.2155L136.656 37.7745L136.743 38.0349L139.253 31.351C139.31 31.1195 139.281 31.0327 139.166 31.0905C138.935 31.0327 138.849 30.8591 138.906 30.5697ZM89.7482 30.8301L91.2195 34.3023L91.3061 35.0835L91.0464 35.1703L92.8639 37.7745L93.2101 37.9481L93.2966 38.3821L95.2006 41.1598L97.8836 45.5868L100.047 49.5798L100.22 49.6666L98.4028 45.2396L96.9315 43.0695L94.4217 39.771L93.5563 38.3821V38.0349C93.614 37.8613 93.7582 37.8034 93.989 37.8613C94.7967 38.6136 95.518 39.4816 96.1526 40.4654L96.4123 40.639L95.2006 38.3821L95.0275 38.2085L94.5948 37.7745L94.3352 36.9932L93.6428 35.778L91.4791 32.653L91.133 32.3926L93.2101 36.7328L93.5563 36.9064L93.6428 36.9932C93.7005 36.8196 93.6428 36.7617 93.4697 36.8196C93.3543 36.5881 93.4697 36.5013 93.8159 36.5592L94.0755 36.9932L93.9024 37.4272C93.4986 37.4851 93.2389 37.4272 93.1235 37.2536L92.6908 36.8196L90.6137 31.6982L89.7482 30.8301ZM108.702 31.1773L108.615 31.4378H108.702V31.1773ZM58.6782 31.6982V31.9586L59.4571 32.9134L59.8033 33.1738L59.1109 32.1322L58.6782 31.6982ZM137.089 32.8266L136.656 33.7815L136.743 33.9551L137.175 32.9134L137.089 32.8266ZM136.743 33.0002L136.656 33.2606H136.743V33.0002ZM59.8899 33.1738L59.8033 33.3474L60.0629 33.5211L59.8899 33.1738ZM60.236 33.6079L60.1495 33.7815L60.3226 33.8683L60.236 33.6079ZM136.656 33.9551L136.57 34.2155H136.656V33.9551ZM140.031 34.4759V34.5627H140.205L140.031 34.4759ZM95.2006 35.778L95.1141 36.212L95.2872 36.2988C95.3449 36.0094 95.316 35.8358 95.2006 35.778ZM74.0834 35.8648L73.9103 36.1252V36.9932L74.343 38.3821L76.074 41.7674L76.8529 42.1147L74.0834 35.8648ZM95.3737 36.2988V36.646L95.5468 36.7328L95.3737 36.2988ZM91.0464 36.4724L90.9599 37.2536L91.0464 37.3404V39.6841L90.9599 39.9446L90.7868 40.0314C92.8639 43.5035 94.8544 47.0625 96.7585 50.7083L97.1046 50.7951C96.9893 50.5057 96.9604 50.0717 97.0181 49.493L96.9315 49.4062L96.7585 45.5L95.6334 43.5903H95.5468L95.6334 45.2396L95.7199 45.3264V46.2813L95.6334 46.4549L95.2872 46.5417L95.1141 46.1945C95.2295 45.8472 95.2006 45.6447 95.0275 45.5868L94.8544 42.2883L93.7293 40.5522L93.5563 40.4654C93.7293 40.639 93.7582 40.9862 93.6428 41.507L93.7293 41.5938V42.8091L93.5563 42.9827L93.2101 42.5487L93.1235 40.8994L93.037 40.8126V39.5105L91.0464 36.4724ZM114.76 36.646L114.673 37.4272L114.76 37.514L114.847 38.8161L114.933 38.9029L115.279 41.507H115.366C115.308 41.0441 115.366 40.8415 115.539 40.8994L115.712 41.507H115.799L115.02 38.7293L114.76 36.646ZM66.2077 36.9932L66.5539 37.6008L66.8135 37.8613L66.727 37.9481L67.4194 38.4689V38.2953L68.631 39.1633H68.7175L66.9866 37.514L66.2077 36.9932ZM122.463 36.9932C122.347 37.2247 122.347 37.3983 122.463 37.514V38.9897H122.722L122.549 37.3404L122.463 36.9932ZM180.881 38.8161V38.9029H181.141L180.881 38.8161ZM180.535 38.9029V38.9897H180.795L180.535 38.9029ZM68.1983 39.1633L68.1117 39.3369L68.631 39.771L68.1983 39.1633ZM68.7175 39.771L68.631 39.9446L72.2659 44.5452L75.7278 49.6666C77.2856 52.0971 78.7569 54.6434 80.1416 57.3054L80.3147 57.3922C77.3721 50.5636 73.5064 44.6899 68.7175 39.771ZM178.977 40.0314V40.1182H179.41L178.977 40.0314ZM178.198 40.1182L177.419 40.2918L175.342 40.4654L175.256 40.639L178.891 40.205L178.198 40.1182ZM152.84 40.5522L151.715 40.9862L152.061 41.1598C152.523 41.507 152.811 42.0279 152.927 42.7223L154.052 42.2015L153.446 41.4202L153.186 40.7258C153.129 40.5522 153.013 40.4943 152.84 40.5522ZM151.456 41.073L150.504 41.5938L151.888 42.6355L151.975 42.4619C151.975 42.8091 152.119 43.0406 152.408 43.1563L152.84 42.8959L152.234 41.7674L151.456 41.073ZM115.885 41.507L115.799 41.7674H115.885V41.507ZM116.058 41.9411L115.972 42.2015H116.058V41.9411ZM168.419 41.9411L168.678 42.2883C168.794 41.9411 168.707 41.8253 168.419 41.9411ZM116.145 42.2015L116.058 42.4619L116.577 43.7639L117.443 46.6285L119.866 52.7916H119.953L116.664 43.3299L116.145 42.2015ZM167.986 42.2883L167.553 42.6355C167.38 42.5776 167.322 42.6355 167.38 42.8091L168.072 42.4619C168.13 42.2883 168.101 42.2304 167.986 42.2883ZM111.298 42.7223L110.346 42.8959L108.702 43.5035L107.057 45.5L106.192 47.4965L105.846 47.4097C106.019 46.4259 106.365 45.6447 106.884 45.066L107.75 44.1112L107.057 44.5452C106.25 45.1817 105.615 45.9919 105.153 46.9757L105.846 47.9305L107.231 48.9722L107.836 49.2326L108.702 49.4062L109.74 49.3194L110.692 48.8854C110 48.8275 109.51 48.596 109.221 48.1909C109.048 48.1331 108.99 47.9595 109.048 47.6701L109.654 47.4097H110.346L111.904 47.0625L113.808 46.3681L112.769 45.066L111.731 42.8959C111.789 42.7223 111.644 42.6644 111.298 42.7223ZM127.05 43.8507L126.444 43.9375L125.578 45.7604L125.059 47.5833L124.799 47.4965C125.03 46.1655 125.492 45.066 126.184 44.198V44.0244L125.319 44.2848L124.28 44.8924C124.453 45.066 124.482 45.3843 124.367 45.8472L124.453 45.934V46.8021L124.54 46.8889L124.626 49.059L124.713 49.1458L124.886 54.0068C124.944 54.1226 125.088 54.1515 125.319 54.0936L125.492 53.92L126.098 52.0103L127.05 49.7534L128.175 47.6701L128.348 47.5833V47.8437L127.396 50.0138L126.098 53.8332L126.184 54.0068H127.136L127.223 53.92L127.482 51.9235L128.175 49.059L129.732 44.0244L129.473 44.1112L128.694 43.9375C127.194 45.9051 126.098 48.2488 125.405 50.9687L125.146 51.0555V50.6215C125.319 50.1585 125.434 49.6666 125.492 49.1458L126.011 47.5833C126.588 46.1945 127.309 45.0081 128.175 44.0244V43.8507H127.05ZM123.415 44.4584L122.549 44.9792L122.722 45.934L122.549 46.7153C122.491 46.831 122.29 46.86 121.943 46.8021L121.684 46.5417H121.597L121.684 47.6701L122.203 50.361L123.242 54.0068L123.328 54.0936H124.02L123.847 49.3194L123.761 49.2326L123.674 46.9757L123.588 46.8889L123.501 45.066L123.415 44.4584ZM63.3517 46.3681L63.2651 46.6285H63.3517V46.3681ZM97.4508 46.7153L97.5374 47.6701L97.7105 49.927L97.797 50.0138V50.8819L97.8836 51.0555L99.2683 51.4027L99.3548 51.3159C99.2971 50.9108 99.3548 50.6504 99.5279 50.5347L97.4508 46.7153ZM154.831 49.7534L154.225 50.0138H157.081L157.168 50.1006H158.206L158.293 50.1874H158.898L157.773 49.927L154.831 49.7534ZM159.072 50.1874V50.2742H159.504L159.072 50.1874ZM163.832 51.1423V51.2291H164.005L163.832 51.1423ZM164.178 51.2291V51.3159H164.351L164.178 51.2291ZM164.437 51.3159V51.4027H164.611L164.437 51.3159ZM99.9607 51.4027C99.8453 51.5763 99.8741 51.6342 100.047 51.5763L99.9607 51.4027ZM133.367 51.8367C133.194 52.2418 133.137 52.7626 133.194 53.3992C133.367 53.2835 133.656 53.2545 134.06 53.3124L133.367 51.8367ZM147.042 52.0971L146.349 52.3575L142.714 53.1388L142.455 53.3124L143.061 53.3992L145.138 53.486L145.224 53.5728H146.09L146.176 53.6596L149.465 53.92L149.552 54.0068L151.542 54.1804L153.273 54.5276L154.312 54.6145L160.283 55.9165L163.139 56.8714H163.312L161.495 56.0901L156.648 54.5276L156.042 54.4408L154.831 54.0068L151.975 53.3124L150.677 52.8784L147.907 52.2707L147.561 52.0971H147.042ZM96.9315 52.1839V52.2707L99.1817 53.3992L99.0952 53.3124L99.1817 52.8784L99.0952 52.7048L96.9315 52.1839ZM140.724 53.5728V53.6596L141.589 53.8332H141.935L141.33 53.5728H140.724ZM104.375 53.92L104.461 54.0936L104.894 54.354L107.75 55.3957L110.952 56.9582L115.193 59.5623H115.279L112.25 57.045L108.702 54.6145L107.577 54.5276L104.375 53.92ZM137.522 54.1804L137.695 54.354L142.022 55.4825L148.513 57.5658H148.686C146.724 56.6399 144.647 55.8586 142.455 55.2221L138.733 54.2672L137.522 54.1804ZM132.329 54.8749L132.242 54.9617L129.819 55.2221L131.723 55.5693H133.281L133.367 55.6561H133.8L132.329 54.8749ZM116.577 55.3957L116.751 55.5693C117.962 55.8008 119.058 56.1769 120.039 56.6978H120.212L119.347 56.0901L119.26 55.9165L123.155 57.5658L125.924 59.0415C128.29 60.3725 130.598 61.8192 132.848 63.3817C137.868 66.9696 142.714 70.789 147.388 74.8398L147.648 75.1002L146.349 73.6246C141.964 69.0529 137.002 65.0888 131.463 61.7324C128.405 59.8806 125.203 58.2313 121.857 56.7846L118.482 55.4825L116.577 55.3957ZM125.665 55.3957L125.319 55.5693L128.088 56.1769H128.261L126.79 55.3957H125.665ZM127.05 55.3957V55.4825L127.309 55.5693L131.204 56.6978L134.493 57.9998L140.464 60.8643C146.176 63.9893 151.629 67.4325 156.821 71.194H156.908C152.869 67.4904 148.369 64.3076 143.407 61.6456C140.637 60.1989 137.752 58.8968 134.752 57.7394L129.646 56.0033L127.482 55.3957H127.05ZM123.328 56.3505V56.4373L127.136 58.347L133.714 62.34L140.551 67.1142L145.83 71.194L146.09 71.4545L144.618 69.7184C141.676 66.5356 138.329 63.7868 134.579 61.472C131.233 59.3308 127.482 57.6237 123.328 56.3505ZM163.399 56.8714V56.9582H163.572L163.399 56.8714ZM105.067 57.3922L105.24 57.6526H105.327L105.067 57.3922ZM148.773 57.5658V57.6526H148.946L148.773 57.5658ZM115.799 58.347L115.885 58.5206H115.972L115.799 58.347ZM100.913 65.5518L100.826 65.7254L100.999 65.8122L100.913 65.5518ZM86.8057 93.0687L86.7191 93.1555H85.8537L84.9016 93.3291L82.9976 93.9367C82.0168 94.3418 81.1513 94.8626 80.4013 95.4992C79.305 96.3672 78.3819 97.4378 77.6318 98.7109L76.5932 101.055L76.1605 103.225V105.482L76.5067 107.391C77.026 109.07 77.8049 110.516 78.8434 111.732C79.9397 113.005 81.3533 114.017 83.0842 114.77L85.0747 115.377L86.0267 115.464L86.1133 115.551H87.3249L87.4115 115.638L87.498 115.551H88.6231L88.7097 115.464L89.7482 115.377L91.4791 114.857C92.8639 114.278 94.0755 113.497 95.1141 112.513C95.9795 111.645 96.7296 110.661 97.3643 109.561L98.2297 107.305L98.4894 106.002V105.221L98.5759 105.134L98.4894 102.791L98.1432 101.141C97.6816 99.579 96.9893 98.2769 96.0661 97.2353C95.0275 95.9043 93.7293 94.8626 92.1715 94.1103L89.4886 93.2423L88.1039 93.1555L88.0173 93.0687H86.8057ZM154.138 93.0687L154.052 93.1555L152.581 93.2423L150.504 93.8499C149.176 94.4286 148.051 95.152 147.128 96.02C145.917 97.0617 144.965 98.3927 144.272 100.013L143.753 101.575L143.493 102.964V103.919L143.407 104.006L143.58 106.35L144.186 108.52L145.224 110.516L146.696 112.339L148.6 113.815L150.417 114.77L151.629 115.204L153.446 115.551H155.956L158.033 115.117C159.475 114.596 160.745 113.902 161.841 113.034C163.11 111.992 164.12 110.69 164.87 109.127L165.649 106.784L165.736 105.829L165.822 105.742V104.44L165.909 104.353L165.822 104.266V102.964L165.649 102.009L165.043 100.013C164.524 98.7399 163.832 97.6693 162.966 96.8013C161.928 95.586 160.629 94.6311 159.072 93.9367L156.821 93.2423L155.35 93.1555L155.264 93.0687H154.138Z" fill="#ABBFAB"/>
<path d="M152.451 5.39648L152.494 6.74195L152.062 8.56484L150.85 11.7766L150.59 12.8182L150.504 14.0335L150.59 14.1203V15.0317C150.417 15.107 150.36 15.0346 150.417 14.8147H150.331L149.292 18.8945L149.725 18.5473L151.802 15.7696L152.365 15.2054L152.408 15.4224L151.283 16.9848L149.465 18.8945V19.0247C149.252 18.9379 149.165 18.9813 149.206 19.1549L149.119 19.372L148.946 19.3285V18.6341L149.812 15.7696L150.331 14.6411V13.0787L150.504 12.2106L152.062 7.69679L152.451 5.39648Z" fill="#ABBFAB"/>
<path d="M85.813 6.61182L85.8563 6.82855H85.7697L85.813 6.61182Z" fill="#ABBFAB"/>
<path d="M85.7266 6.9585L85.7699 7.69633L85.6833 7.78314V9.95324L85.7699 10.04V10.9081L85.8564 10.9949V11.6893L86.0295 12.6876C85.8737 12.7512 85.816 12.7078 85.8564 12.5574L85.7266 12.3404L85.6833 12.731L86.9815 15.8559L88.9721 19.0677L90.3568 21.585L90.7896 22.7134L90.5732 22.7568L90.227 22.3228L90.1837 22.453C91.055 23.7493 91.8339 25.1382 92.5205 26.6196H92.4339L88.8855 20.3697L89.0586 20.4565L89.5346 21.2812L89.5779 21.151L87.8903 18.0694L87.847 18.1996L88.1932 19.3281L88.0201 19.2413L87.1546 17.3316L85.5968 13.0782L85.4237 12.2969L85.5102 12.1233C84.991 11.4578 84.789 10.4741 84.9044 9.172L85.2506 7.73973C85.4237 7.67029 85.4814 7.74263 85.4237 7.95674L85.1641 8.82478V10.3005L85.467 11.6459L85.5102 10.9949L85.4237 10.9081V8.30396L85.7266 6.9585ZM89.8375 21.6284L89.751 21.802L89.9241 21.8888L89.8375 21.6284ZM90.0972 22.0624L90.0106 22.236L90.1837 22.3228L90.0972 22.0624Z" fill="#ABBFAB"/>
<path d="M151.5 8.3479L151.457 8.47811C151.134 9.4561 150.715 10.3386 150.202 11.1256L150.159 10.9954L151.5 8.3479Z" fill="#ABBFAB"/>
<path d="M155.913 9.47632L156.475 10.8218L156.908 12.9051C156.833 13.1829 156.862 13.3565 156.995 13.4259V15.596L156.821 16.2904L156.475 16.8981L155.437 18.1133L155.307 18.7644C155.151 18.6949 155.108 18.5068 155.177 18.2001L156.043 16.9849L156.302 16.3772L156.562 15.3356V13.9467L156.129 11.4294L155.956 10.9954L155.913 9.47632Z" fill="#ABBFAB"/>
<path d="M155.134 10.5181L155.264 10.8219C154.964 11.2212 154.589 11.4961 154.139 11.6465C154.306 11.2299 154.58 10.8826 154.961 10.6049L155.134 10.5181Z" fill="#ABBFAB"/>
<path d="M96.8884 15.3789C97.7769 17.3523 98.8587 19.1317 100.134 20.7174H100.047C98.6395 19.2243 97.5865 17.4448 96.8884 15.3789Z" fill="#ABBFAB"/>
<path d="M87.7146 15.6394L88.4502 16.6377L90.7004 21.4119L90.5706 21.4553L89.9215 20.457L88.0175 16.7245L87.6713 15.8564L87.7146 15.6394Z" fill="#ABBFAB"/>
<path d="M96.1098 16.1604C97.5638 17.827 98.9053 19.6065 100.134 21.4989L99.788 21.2384L96.1098 16.1604Z" fill="#ABBFAB"/>
<path d="M140.942 16.9411C141.219 16.9006 141.378 16.9729 141.418 17.1581C141.504 17.4127 141.461 17.514 141.288 17.4619L141.245 17.2449C141.291 17.1176 141.248 17.0742 141.115 17.1147L140.812 17.5921L140.552 19.1546L140.25 19.8056L140.12 19.7622V19.1546L140.552 17.4185L140.942 16.9411Z" fill="#ABBFAB"/>
<path d="M145.53 18.4165L145.573 18.8939L145.486 18.9807L145.443 19.8922L145.4 18.8939L145.53 18.4165Z" fill="#ABBFAB"/>
<path d="M145.357 20.0664L145.4 20.8033H145.314L145.357 20.0664Z" fill="#ABBFAB"/>
<path d="M145.268 20.9341L145.311 21.2375H145.224L145.268 20.9341Z" fill="#ABBFAB"/>
<path d="M90.6544 21.8025L93.0344 25.7521L92.7748 25.5785L90.6544 21.8025Z" fill="#ABBFAB"/>
<path d="M91.7821 21.8896L93.2966 24.7976L93.1235 24.7108L91.7821 21.8896Z" fill="#ABBFAB"/>
<path d="M89.3586 22.1501L89.5753 22.4536L89.402 22.3669L89.3586 22.1501Z" fill="#ABBFAB"/>
<path d="M147.78 28.3997C148.784 28.4054 149.491 28.7093 149.9 29.3111L150.246 29.8319L150.506 30.7868V33.5645L150.42 33.6513L150.333 35.6478L150.246 35.7346L149.9 38.4255L149.294 40.856L148.905 41.5071L148.602 41.3769V40.856L148.775 40.422L149.554 36.2554L149.641 34.7798L149.727 34.693V33.4777L149.814 33.3909V31.6548L149.9 31.568L149.641 30.0923L148.991 29.3545L148.213 29.0073L147.65 28.9205C147.581 28.6543 147.624 28.4807 147.78 28.3997Z" fill="#ABBFAB"/>
<path d="M146.912 30.0496L147.302 30.093L145.571 30.7874L146.48 30.8308L146.566 30.744H148.124V30.8308L146.653 31.0912H145.96L145.874 31.178H144.922C144.835 31.0333 144.749 31.0623 144.662 31.2648L143.45 31.8724H143.147C143.107 31.6005 143.208 31.4269 143.45 31.3516C144.477 30.7903 145.631 30.3563 146.912 30.0496Z" fill="#ABBFAB"/>
<path d="M147.777 34.4758L149.032 34.9533L148.729 34.9967L148.167 34.9099L148.08 35.3439L147.691 35.4307L147.388 35.2137L147.431 34.7362L147.561 34.9967L147.821 34.9533L147.648 34.606L147.777 34.4758Z" fill="#ABBFAB"/>
<path d="M98.0134 35.8652L100.134 38.9468L102.297 41.5509L102.081 41.4207L101.259 40.6829L99.5279 38.5128L98.4028 36.7767L97.9701 35.9954L98.0134 35.8652Z" fill="#ABBFAB"/>
<path d="M101.475 36.0376C101.937 37.0214 102.557 37.846 103.336 38.5115L102.947 38.2077L102.471 37.8171C101.974 37.3194 101.643 36.7262 101.475 36.0376Z" fill="#ABBFAB"/>
<path d="M99.0524 36.1257L102.038 39.8149L102.817 41.117L102.384 40.7698L99.788 37.2976L99.0524 36.1257Z" fill="#ABBFAB"/>
<path d="M100.435 36.3862L102.728 39.2074L103.075 39.815L102.728 39.5546L100.435 36.3862Z" fill="#ABBFAB"/>
<path d="M144.662 37.5142L144.705 38.1652L144.618 38.252L144.532 39.3804L144.402 39.5975L144.359 39.2068L144.662 37.5142Z" fill="#ABBFAB"/>
<path d="M143.45 39.6841L143.493 39.8143L140.075 46.6284H139.902C139.775 46.6747 139.732 46.6313 139.772 46.4982L140.205 45.4566L141.763 42.5486L140.248 42.4618L139.642 42.2882H138.604L138.517 42.375L137.132 42.4618L136.916 42.375C136.853 42.2188 136.896 42.1609 137.046 42.2014L137.652 42.0278L139.512 41.941C139.587 41.7674 139.515 41.7095 139.296 41.7674C139.111 41.6979 139.039 41.5533 139.08 41.3334L137.176 40.9861L137.305 40.6389L139.469 41.0729L139.383 40.8993L137.998 40.2917L137.089 40.2049L137.132 39.9445H138.344C139.204 40.1528 139.882 40.5434 140.378 41.1164C140.337 41.2494 140.381 41.2929 140.508 41.2466L140.681 41.4202L141.373 41.507L141.719 41.7674L142.282 41.8542L143.45 39.6841Z" fill="#ABBFAB"/>
<path d="M144.316 39.9446L144.446 39.988L141.07 46.0643L140.421 46.9757L140.378 46.8455L141.763 44.2414L144.316 39.9446Z" fill="#ABBFAB"/>
<path d="M159.028 41.5073L159.331 41.5507L159.028 41.594V41.5073Z" fill="#ABBFAB"/>
<path d="M109.354 41.594L109.657 41.6374C107.609 42.3318 105.965 43.4313 104.724 44.936L104.335 45.4134L104.032 45.2832L104.118 44.8491L104.767 44.1113L106.498 42.7224L108.143 41.9412L109.354 41.594Z" fill="#ABBFAB"/>
<path d="M159.458 41.594L160.28 41.811L160.064 41.8544L159.458 41.6808V41.594Z" fill="#ABBFAB"/>
<path d="M151.931 42.1145L151.974 42.3312H151.888L151.931 42.1145Z" fill="#ABBFAB"/>
<path d="M73.8676 42.4614C77.2371 44.8688 80.3095 47.5742 83.0847 50.5776C88.0294 55.8611 92.2701 61.8506 95.807 68.5461C97.786 72.2323 99.5169 76.1675 101 80.3514L102.731 86.0805L103.769 91.1151H103.683L102.731 88.077L101.519 84.7784L98.0572 76.7056C96.1474 72.6606 94.0703 68.7833 91.8259 65.0739C89.4257 61.1156 86.8293 57.3541 84.0367 53.7894L79.0171 47.7999L73.8676 42.4614Z" fill="#ABBFAB"/>
<path d="M149.248 42.4614C150.015 42.7623 150.636 43.2108 151.109 43.8069L151.541 44.4145L151.628 44.7617H151.541L150.46 43.5031L149.205 42.635L149.248 42.4614Z" fill="#ABBFAB"/>
<path d="M102.471 43.504C102.661 43.4288 102.719 43.5301 102.644 43.8078C102.938 45.0752 103.428 46.1458 104.115 47.0196L103.509 46.4988L102.903 45.4571C102.644 44.8842 102.499 44.2332 102.471 43.504Z" fill="#ABBFAB"/>
<path d="M75.857 43.6775C78.1649 44.777 80.2709 46.0791 82.1749 47.5837C84.2924 49.2503 86.2685 51.0587 88.1033 53.0089C93.5038 58.819 98.0042 65.5319 101.604 73.1475L103.595 77.7481L104.547 80.439L105.239 82.8695L106.018 87.1229L106.105 89.1194L106.191 89.2062V90.5083H106.105L105.932 89.0326L105.153 85.7341L103.595 81.1335L102.21 77.9217C100.826 74.9993 99.3543 72.1637 97.7964 69.4149C95.5982 65.5724 93.2037 61.9266 90.6131 58.4776C87.9648 54.9418 85.0655 51.6577 81.9152 48.6253L78.6265 45.7608L75.9436 43.8511L75.857 43.6775Z" fill="#ABBFAB"/>
<path d="M110.91 43.7639H111.776L111.819 43.9375C110.238 44.331 108.969 45.0689 108.011 46.151C107.578 46.6892 107.261 47.3113 107.059 48.0173L108.833 47.9305L108.963 48.1909L107.795 48.4513H106.669L106.54 48.2343L106.886 47.2795C106.817 46.8339 106.874 46.5156 107.059 46.3246L108.227 45.066L109.526 44.1979L110.91 43.7639Z" fill="#ABBFAB"/>
<path d="M134.015 43.938L134.318 43.9814L133.453 44.6758L133.799 44.9362C133.828 45.1677 133.756 45.2979 133.583 45.3269L132.89 45.5005H131.938L131.722 45.1966L131.938 44.8928L134.015 43.938Z" fill="#ABBFAB"/>
<path d="M161.623 44.5452H162.575L162.619 44.7188H161.71L160.931 44.8924L159.2 45.6736L159.243 45.5434C159.203 45.4161 159.246 45.3727 159.373 45.4132L160.325 44.8924L161.623 44.5452Z" fill="#ABBFAB"/>
<path d="M101.907 46.1953L105.239 52.4018L104.979 52.2282L101.907 46.1953Z" fill="#ABBFAB"/>
<path d="M157.298 46.3677L157.515 46.6711H157.428L157.298 46.3677Z" fill="#ABBFAB"/>
<path d="M51.279 46.8887L51.3224 47.1921H51.2357L51.279 46.8887Z" fill="#ABBFAB"/>
<path d="M51.365 47.5835L51.4083 47.8002H51.3216L51.365 47.5835Z" fill="#ABBFAB"/>
<path d="M136.96 48.0173L137.003 48.1474L136.873 48.3641L136.83 48.2341L136.96 48.0173Z" fill="#ABBFAB"/>
<path d="M137.132 48.3643L136.743 48.8417C136.575 49.2236 136.503 49.701 136.526 50.2739C136.382 50.0772 136.339 49.7734 136.397 49.3625L136.786 48.4511H136.959L137.132 48.3643Z" fill="#ABBFAB"/>
<path d="M131.42 50.7085L131.55 50.9255L131.29 51.3595C131.608 51.3306 131.81 51.4174 131.896 51.6199L131.68 51.9238L131.074 52.0106C130.745 51.9411 130.5 51.782 130.338 51.5331C130.281 51.2727 130.324 51.1136 130.468 51.0557L130.988 51.1425L131.204 50.7953L131.42 50.7085Z" fill="#ABBFAB"/>
<path d="M51.9711 53.2258L52.0144 53.5293H51.9277L51.9711 53.2258Z" fill="#ABBFAB"/>
<path d="M52.0577 54.0076L52.7068 59.9537L52.7934 60.0405L53.053 62.3842L53.3992 64.0334V65.0751L53.3126 65.1619V65.7695L53.0963 66.8546L52.101 65.4223V63.773L52.1875 63.6862V56.5683L52.101 56.4815L52.0577 54.0076Z" fill="#ABBFAB"/>
</svg>
