<svg width="40" height="40" viewBox="0 0 40 40" fill="none" xmlns="http://www.w3.org/2000/svg">
<path d="M13.3332 36.6666C14.2536 36.6666 14.9998 35.9204 14.9998 34.9999C14.9998 34.0794 14.2536 33.3333 13.3332 33.3333C12.4127 33.3333 11.6665 34.0794 11.6665 34.9999C11.6665 35.9204 12.4127 36.6666 13.3332 36.6666Z" stroke="#C19A6B" stroke-width="2.5" stroke-linecap="round" stroke-linejoin="round"/>
<path d="M31.6667 36.6666C32.5871 36.6666 33.3333 35.9204 33.3333 34.9999C33.3333 34.0794 32.5871 33.3333 31.6667 33.3333C30.7462 33.3333 30 34.0794 30 34.9999C30 35.9204 30.7462 36.6666 31.6667 36.6666Z" stroke="#C19A6B" stroke-width="2.5" stroke-linecap="round" stroke-linejoin="round"/>
<path d="M3.4165 3.41675H6.74984L11.1832 24.1167C11.3458 24.8748 11.7676 25.5525 12.376 26.0332C12.9844 26.5138 13.7413 26.7673 14.5165 26.7501H30.8165C31.5751 26.7489 32.3106 26.4889 32.9015 26.0131C33.4925 25.5374 33.9034 24.8743 34.0665 24.1334L36.8165 11.7501H8.53317" stroke="#C19A6B" stroke-width="2.5" stroke-linecap="round" stroke-linejoin="round"/>
</svg>
