<svg width="418" height="253" viewBox="0 0 418 253" fill="none" xmlns="http://www.w3.org/2000/svg">
<g clip-path="url(#clip0_4016_5853)">
<path d="M370.34 247.033H50.4243C43.1822 247.033 37.311 240.703 37.311 232.894V14.378C37.311 6.56979 43.1822 0.239746 50.4243 0.239746H370.34C377.583 0.239746 383.454 6.56979 383.454 14.378V232.894C383.455 240.703 377.583 247.033 370.34 247.033Z" fill="#455A64"/>
<path d="M382.781 252.688H39.8045C30.9564 252.688 23.7827 244.955 23.7827 235.414V231.094H398.802V235.414C398.803 244.955 391.629 252.688 382.781 252.688Z" fill="#455A64"/>
<path d="M373.195 10.0444H46.6021V218.457H373.195V10.0444Z" fill="#263238"/>
<path d="M176.26 228.78L180.913 236.761H246.397L250.718 228.78H176.26Z" fill="#263238"/>
<path d="M364.194 217.791H56.276C54.6484 217.791 53.3296 216.368 53.3296 214.615V20.278C53.3296 18.5242 54.6484 17.1013 56.276 17.1013H364.194C365.821 17.1013 367.141 18.5232 367.141 20.278V214.617C367.14 216.369 365.821 217.791 364.194 217.791Z" fill="#EBEBEB"/>
<path d="M366.804 218.085H52.9937L53.3294 32.0986H366.804V218.085Z" fill="#FAFAFA"/>
<path d="M79.0661 24.8512C79.0661 26.344 77.9444 27.5533 76.5599 27.5533C75.1754 27.5533 74.0537 26.343 74.0537 24.8512C74.0537 23.3585 75.1754 22.1492 76.5599 22.1492C77.9444 22.1492 79.0661 23.3585 79.0661 24.8512Z" fill="#263238"/>
<path d="M63.8771 24.8512C63.8771 26.344 62.7554 27.5533 61.3709 27.5533C59.9873 27.5533 58.8647 26.343 58.8647 24.8512C58.8647 23.3585 59.9873 22.1492 61.3709 22.1492C62.7554 22.1492 63.8771 23.3585 63.8771 24.8512Z" fill="#263238"/>
<path d="M71.1681 24.8512C71.1681 26.344 70.0464 27.5533 68.6619 27.5533C67.2774 27.5533 66.1558 26.343 66.1558 24.8512C66.1558 23.3585 67.2774 22.1492 68.6619 22.1492C70.0464 22.1492 71.1681 23.3585 71.1681 24.8512Z" fill="#263238"/>
<path d="M380.479 228.779C380.479 228.913 303.652 229.021 208.903 229.021C114.121 229.021 37.311 228.912 37.311 228.779C37.311 228.646 114.122 228.538 208.903 228.538C303.652 228.539 380.479 228.646 380.479 228.779Z" fill="#263238"/>
<path d="M139.565 106.201L279.758 105.265L283.664 193.574L138.502 192.325L139.565 106.201Z" fill="#447143"/>
<path d="M139.565 106.201L210.736 52.8428L279.759 105.264" fill="#447143"/>
<g opacity="0.3">
<path d="M139.565 106.201L210.736 52.8428L279.759 105.264" fill="black"/>
</g>
<path d="M138.502 192.325C138.323 192.178 149.546 180.824 163.57 166.963C177.593 153.101 189.09 142 189.269 142.156C189.448 142.312 178.225 153.657 164.201 167.519C150.178 181.38 138.681 192.481 138.502 192.325Z" fill="#ABBFAB"/>
<path d="M283.665 193.574C283.486 193.72 272.557 182.6 259.26 168.728C245.963 154.857 235.319 143.493 235.498 143.366C235.677 143.239 246.606 154.34 259.903 168.211C273.2 182.083 283.844 193.427 283.665 193.574Z" fill="#ABBFAB"/>
<g opacity="0.5">
<path d="M279.759 105.265L209.357 157.374L139.565 106.201" fill="black"/>
</g>
<path d="M146.63 111.03L146.419 73.2498L269.21 70.46L270.547 111.8L209.357 156.691L146.63 111.03Z" fill="#EEEEEE"/>
<path d="M211.073 143.113C206.765 143.123 202.504 142.289 198.569 140.665C194.634 139.041 191.115 136.664 188.242 133.69C185.369 130.716 183.208 127.212 181.901 123.409C180.594 119.606 180.17 115.59 180.657 111.625C181.569 104.166 185.641 97.3484 191.978 92.6716C198.314 87.9948 206.397 85.842 214.447 86.6867C222.497 87.5314 229.855 91.3044 234.903 97.1757C239.95 103.047 242.274 110.536 241.362 117.994C240.522 124.896 236.971 131.271 231.385 135.903C225.799 140.535 218.569 143.101 211.073 143.113ZM210.989 87.511C205.302 87.5166 199.738 89.0461 194.969 91.9151C190.199 94.784 186.427 98.87 184.106 103.68C181.786 108.491 181.017 113.82 181.892 119.026C182.767 124.233 185.249 129.093 189.038 133.022C192.827 136.951 197.761 139.781 203.246 141.17C208.732 142.56 214.534 142.45 219.953 140.853C225.372 139.256 230.178 136.241 233.79 132.172C237.401 128.102 239.666 123.151 240.309 117.916C240.749 114.35 240.425 110.738 239.357 107.287C238.289 103.836 236.497 100.614 234.084 97.8058C231.67 94.9973 228.683 92.6571 225.293 90.9191C221.903 89.181 218.176 88.0793 214.326 87.6768C213.219 87.5439 212.105 87.469 210.989 87.4525V87.511Z" fill="#447143"/>
<path d="M190.248 118.736L195.354 112.942L207.293 120.931L226.696 99.7437L232.55 104.514L207.588 131.163L190.248 118.736Z" fill="#447143"/>
<path d="M8.22701 168.34C9.42462 168.453 10.5912 168.861 11.6564 169.541C12.7215 170.22 13.6633 171.156 14.4248 172.293C15.9363 174.578 17.0004 177.256 17.5356 180.122C18.6942 185.609 17.9165 192.058 16.5992 197.488C11.7743 195.322 8.83806 188.97 7.50486 185.638C5.40985 180.364 4.23536 169.282 8.24288 168.34" fill="#238C3F"/>
<path d="M23.503 204.199C22.7855 202.811 22.3804 201.216 22.3289 199.576C22.2773 197.935 22.5811 196.306 23.2094 194.856C23.8591 193.422 24.7354 192.16 25.7871 191.145C26.8389 190.129 28.0452 189.38 29.3358 188.941C29.9099 188.663 30.5265 188.54 31.1431 188.582C31.7596 188.624 32.3613 188.829 32.9068 189.183C33.3671 189.617 33.724 190.193 33.9403 190.852C34.1567 191.512 34.2245 192.23 34.1368 192.932C33.9468 194.336 33.4567 195.653 32.7164 196.749C30.3357 200.634 27.455 203.84 23.503 204.199Z" fill="#238C3F"/>
<path d="M23.9473 222.488C23.8498 222.114 23.7781 221.73 23.7331 221.342C23.614 220.535 23.4553 219.486 23.2569 218.224C22.6507 214.782 22.498 211.244 22.8046 207.744C23.1571 204.209 24.2779 200.855 26.0503 198.031C26.5914 197.193 27.2121 196.437 27.8993 195.778C28.0828 195.597 28.2763 195.431 28.4786 195.283C28.5454 195.222 28.6172 195.17 28.6929 195.127C27.7941 196.055 26.9703 197.086 26.2328 198.206C24.5584 201.021 23.4937 204.309 23.1379 207.763C22.8363 211.224 22.9566 214.72 23.495 218.136C23.6617 219.457 23.7886 220.535 23.868 221.283C23.9253 221.681 23.9518 222.084 23.9473 222.488Z" fill="#ABBFAB"/>
<path d="M9.73486 176.684C9.80947 176.825 9.87323 176.975 9.92532 177.13L10.4094 178.461C10.83 179.607 11.4252 181.287 12.1394 183.366C13.5678 187.523 15.4724 193.302 17.4642 199.741C19.4561 206.181 21.1464 212.066 22.3209 216.35C22.9081 218.486 23.3763 220.235 23.6779 221.42C23.8207 221.993 23.9397 222.449 24.027 222.808C24.0741 222.969 24.1086 223.135 24.1302 223.304C24.0639 223.154 24.0081 222.998 23.9635 222.838L23.5588 221.478C23.2017 220.235 22.7018 218.564 22.0987 216.437C20.8607 212.193 19.1386 206.326 17.1468 199.926C15.1549 193.525 13.29 187.698 11.9172 183.512C11.2426 181.462 10.6951 179.772 10.33 178.558L9.90152 177.208C9.82483 177.044 9.76865 176.868 9.73486 176.684Z" fill="#ABBFAB"/>
<path d="M18.2418 210.366C16.8132 207.379 14.8233 204.852 12.4371 202.994C10.0509 201.136 7.33724 200.001 4.52103 199.683C3.08468 199.547 1.34677 199.819 0.719848 201.382C0.0929298 202.946 0.910302 204.83 1.87052 206.132C3.92688 208.807 6.58366 210.677 9.5066 211.508C12.4295 212.34 15.4881 212.094 18.2974 210.803" fill="#238C3F"/>
<path d="M6.66361 204.393C6.96327 204.387 7.26295 204.406 7.56034 204.452C7.90945 204.473 8.25686 204.525 8.59992 204.607C9.00464 204.704 9.47284 204.762 9.97279 204.937C10.5101 205.092 11.04 205.283 11.5599 205.51C12.1768 205.753 12.781 206.042 13.3693 206.375C16.0988 207.871 18.486 210.166 20.3209 213.057C20.7155 213.681 21.0837 214.329 21.424 214.999C21.713 215.588 21.9779 216.195 22.2175 216.816C22.4635 217.379 22.6143 217.923 22.773 218.379C22.9123 218.777 23.029 219.186 23.1222 219.603C23.2276 219.945 23.3021 220.3 23.3444 220.662C23.273 220.662 22.9397 219.176 22.0033 216.952C21.7501 216.344 21.4692 215.754 21.1621 215.184C20.8214 214.512 20.4505 213.863 20.0511 213.241C19.1327 211.847 18.0922 210.58 16.9483 209.463C15.7876 208.375 14.5376 207.438 13.2185 206.666C12.6402 206.33 12.0467 206.035 11.4409 205.782C10.9207 205.545 10.391 205.341 9.85375 205.17C7.93332 204.588 6.65568 204.539 6.66361 204.393Z" fill="#ABBFAB"/>
<path d="M369.034 178.58C366.727 177.018 364.084 176.038 361.375 175.738C360.123 175.599 358.756 175.638 357.752 176.456C357.539 176.63 357.331 176.886 357.379 177.169C357.414 177.377 357.577 177.529 357.733 177.657C360.849 180.22 365.563 180.544 369.034 178.58Z" fill="#37BA5A"/>
<path d="M368.837 178.346C367.103 176.888 365.359 175.419 363.89 173.653C362.421 171.889 361.227 169.793 360.789 167.469C360.656 166.765 360.614 165.959 361.034 165.4C364.977 168.721 368.075 173.015 368.837 178.346Z" fill="#37BA5A"/>
<path d="M368.993 178.548C368.696 176.222 368.59 173.832 369.085 171.545C369.58 169.259 370.734 167.071 372.544 165.767C373.226 167.484 372.933 169.462 372.453 171.257C371.711 174.03 370.547 176.672 369.022 179.044" fill="#37BA5A"/>
<path d="M372.858 186.016C370.512 186.323 368.468 187.657 366.716 189.368C364.964 191.078 363.719 193.384 363.203 195.871C365.504 195.718 367.457 193.968 368.873 192.005C370.289 190.043 371.27 187.89 372.826 186.055" fill="#37BA5A"/>
<path d="M373.698 187.21C371.808 182.19 372.493 176.142 375.447 171.76C376.785 176.887 376.294 182.679 373.698 187.21Z" fill="#37BA5A"/>
<path d="M378.806 193.767C376.676 193.625 374.511 194.172 372.662 195.319C370.812 196.467 369.287 198.211 368.331 200.268C368.201 200.547 368.087 200.903 368.26 201.153C368.411 201.371 368.704 201.391 368.955 201.373C371.019 201.229 372.849 199.89 374.359 198.365C375.869 196.841 377.184 195.079 378.852 193.76" fill="#37BA5A"/>
<path d="M378.643 193.411C377.544 189.621 377.476 185.491 378.448 181.661C378.832 180.149 379.477 178.557 380.774 177.848C380.884 177.788 381.013 177.734 381.129 177.78C381.24 177.825 381.303 177.947 381.354 178.061C381.816 179.101 381.95 180.281 381.903 181.432C381.855 182.584 381.634 183.717 381.413 184.845C381.004 186.93 380.787 189.171 379.726 190.97C379.474 191.397 379.252 191.858 379.052 192.315C378.851 192.772 378.849 192.933 378.665 193.297" fill="#37BA5A"/>
<path d="M392.162 195.582C391.161 191.474 392.224 186.494 394.625 183.126C394.802 182.878 395.036 182.613 395.325 182.642C395.767 182.686 395.882 183.321 395.862 183.799C395.689 187.997 394.39 192.134 392.162 195.582Z" fill="#37BA5A"/>
<path d="M393.382 196.48C398.011 197.779 403.321 196.517 407.172 193.456C404.89 192.21 402.2 191.854 399.707 192.468C397.213 193.084 394.934 194.288 393.382 196.48Z" fill="#37BA5A"/>
<path d="M394.41 193.745C397.002 189.188 401.973 186.214 406.925 185.943C406.354 188.115 404.699 189.803 402.831 190.822C400.964 191.842 398.879 192.287 396.824 192.717C396.024 192.884 394.928 193.068 394.41 193.745Z" fill="#37BA5A"/>
<path d="M392.42 180.473C393.122 177.88 393.828 175.263 394.021 172.57C394.214 169.877 393.857 167.065 392.561 164.753C390.139 169.806 389.894 175.709 392.347 180.743" fill="#37BA5A"/>
<path d="M400.573 176.03C403.405 170.481 409.183 166.048 415.03 165.427C412.774 171.481 406.624 176.16 400.573 176.03Z" fill="#37BA5A"/>
<path d="M398.792 177.117C403.016 177.811 406.614 180.719 410.561 182.482C411.405 182.86 412.316 183.16 413.221 183.032C414.127 182.904 415.021 182.248 415.225 181.288C415.393 180.49 415.057 179.644 414.526 179.059C413.995 178.474 413.294 178.109 412.593 177.795C408.294 175.865 403.684 175.817 399.156 176.987" fill="#37BA5A"/>
<path d="M396.348 180.311C397.304 180.606 397.63 181.14 398.388 181.836C400.957 184.195 404.037 185.901 407.312 186.779C407.653 186.87 408.1 186.907 408.269 186.575C408.417 186.284 408.23 185.933 408.038 185.675C406.666 183.824 404.709 182.558 402.65 181.731C400.59 180.904 398.806 179.907 396.348 180.121" fill="#37BA5A"/>
<path d="M393.589 161.021C397.024 164.478 401.861 166.252 406.538 165.771C406.75 165.749 406.983 165.712 407.128 165.543C407.453 165.161 407.063 164.571 406.683 164.251C402.876 161.052 398.265 159.725 393.589 161.021Z" fill="#37BA5A"/>
<path d="M396.859 159.732C401.399 156.062 407.624 154.954 413.017 156.857C410.982 159.019 408.159 160.182 405.317 160.501C402.476 160.82 399.631 160.481 396.859 159.732Z" fill="#37BA5A"/>
<path d="M395.56 150.867C395.187 146.77 395.429 143.537 395.165 139.42C395.144 139.092 395.078 138.696 394.793 138.577C394.396 138.412 394.064 138.939 393.934 139.376C392.803 143.17 393.421 147.522 395.555 150.777" fill="#37BA5A"/>
<path d="M395.286 151.32C397.862 149.603 399.794 147.36 401.581 144.724C402.824 142.89 403.872 140.693 403.589 138.441C401.843 138.404 400.184 139.442 399.049 140.872C397.914 142.303 397.239 144.091 396.734 145.893C396.231 147.696 395.878 149.549 395.286 151.32Z" fill="#37BA5A"/>
<path d="M401.471 149.468C407.123 147.214 412.397 143.862 416.961 139.62C415.111 138.816 412.993 139.297 411.143 140.102C406.916 141.941 403.463 145.046 401.39 149.423" fill="#37BA5A"/>
<path d="M397.025 153.561C399.885 153.898 402.79 154.117 405.627 153.606C408.415 153.104 411.051 151.911 413.657 150.729C413.873 150.631 414.108 150.514 414.202 150.283C414.305 150.032 414.195 149.726 414.007 149.542C413.818 149.358 413.567 149.27 413.322 149.196C410.489 148.341 407.431 148.742 404.644 149.755C401.856 150.769 399.571 151.972 397.025 153.561Z" fill="#37BA5A"/>
<path d="M380.697 161.162C378.746 156.915 378.873 151.961 380.558 147.585C381.744 149.534 381.89 152.016 381.673 154.335C381.456 156.655 380.801 159.042 380.758 161.372" fill="#37BA5A"/>
<path d="M372.903 156.923C368.033 156.823 363.16 159.061 359.852 162.918C362.283 163.33 364.787 162.654 366.998 161.489C369.21 160.325 371.175 158.691 373.123 157.07" fill="#37BA5A"/>
<path d="M367.663 155.034C365.28 154.826 362.987 154.508 360.696 155.265C358.406 156.022 356.32 157.74 355.386 160.119C357.615 160.39 359.875 159.788 361.918 158.789C363.961 157.791 365.818 156.409 367.663 155.034Z" fill="#37BA5A"/>
<path d="M375.422 155.121C373.278 153.606 371.077 152.064 368.581 151.436C366.085 150.809 363.192 151.273 361.452 153.301C363.472 154.579 365.924 154.731 368.267 154.729C370.609 154.727 373.481 154.698 375.69 155.541" fill="#37BA5A"/>
<path d="M375.434 155.243C371.77 151.363 370.38 144.393 371.854 139.088C374.736 143.807 376.026 149.63 375.434 155.243Z" fill="#37BA5A"/>
<path d="M385.512 144.249C386.203 142.517 386.689 140.699 387.309 138.935C387.929 137.172 388.7 135.437 389.872 134.036C391.044 132.636 392.664 131.593 394.411 131.5C393.317 136.838 390.028 141.609 385.602 144.277" fill="#37BA5A"/>
<path d="M383.688 146.54C382.544 144.843 381.222 142.539 379.672 141.272C378.12 140.005 376.101 139.238 374.208 139.725C376.133 143.435 379.771 146.05 383.688 146.54Z" fill="#37BA5A"/>
<path d="M384.053 144.39C383.304 142.336 382.548 140.261 382.245 138.078C381.942 135.895 382.126 133.563 383.162 131.659C385.173 135.759 385.821 140.161 384.156 144.437" fill="#37BA5A"/>
<path d="M385.53 131.659C386.67 127.595 390.121 124.602 393.848 123.229C394.318 123.056 394.816 122.912 395.307 122.993C395.798 123.075 396.279 123.437 396.382 123.961C396.517 124.652 395.988 125.272 395.489 125.731C392.587 128.406 389.177 130.436 385.53 131.659Z" fill="#37BA5A"/>
<path d="M385.571 128.335C385.716 125.715 385.868 123.056 386.658 120.573C387.449 118.09 388.973 115.761 391.189 114.674C391.566 117.321 390.483 119.954 389.177 122.231C387.871 124.508 386.297 126.658 385.512 129.199" fill="#37BA5A"/>
<path d="M385.512 130.139C384.57 127.177 384.473 123.414 382.828 120.834C381.678 119.03 379.836 117.802 378.845 115.891C378.187 117.675 378.388 119.731 379.077 121.502C379.765 123.274 380.903 124.798 382.12 126.2C383.337 127.602 384.38 128.657 385.512 130.139Z" fill="#37BA5A"/>
<path d="M385.53 217.371C385.457 217.371 385.393 197.611 385.388 173.241C385.383 148.863 385.438 129.107 385.511 129.107C385.584 129.107 385.648 148.863 385.653 173.241C385.658 197.611 385.603 217.371 385.53 217.371Z" fill="#165D31"/>
<path d="M401.546 158.18C401.551 158.199 401.305 158.297 400.857 158.459C400.362 158.639 399.725 158.871 398.961 159.149C397.362 159.736 395.165 160.587 392.781 161.64C390.421 162.732 388.195 163.618 386.927 164.802C386.294 165.387 385.93 166.019 385.751 166.481C385.569 166.944 385.536 167.228 385.512 167.224C385.503 167.222 385.506 167.151 385.52 167.016C385.541 166.883 385.573 166.684 385.655 166.44C385.809 165.953 386.163 165.277 386.803 164.651C387.44 164.025 388.327 163.462 389.343 162.95C390.359 162.439 391.485 161.905 392.681 161.376C395.073 160.319 397.286 159.496 398.903 158.957C399.711 158.685 400.371 158.484 400.828 158.353C401.286 158.224 401.541 158.161 401.546 158.18Z" fill="#165D31"/>
<path d="M406.796 144.277C406.802 144.284 406.736 144.36 406.603 144.499C406.447 144.657 406.253 144.854 406.015 145.095C405.469 145.63 404.726 146.358 403.82 147.245C401.924 149.066 399.353 151.534 396.513 154.261C393.66 156.998 391.195 159.614 389.487 161.583C388.632 162.567 387.958 163.382 387.499 163.95C387.284 164.214 387.108 164.431 386.968 164.604C386.844 164.753 386.777 164.827 386.769 164.821C386.762 164.815 386.816 164.728 386.926 164.568C387.037 164.409 387.199 164.173 387.42 163.88C387.856 163.288 388.51 162.451 389.35 161.447C391.028 159.437 393.48 156.791 396.337 154.048C399.2 151.317 401.804 148.863 403.697 147.094C404.626 146.235 405.388 145.53 405.949 145.012C406.2 144.788 406.405 144.604 406.569 144.457C406.712 144.331 406.79 144.27 406.796 144.277Z" fill="#165D31"/>
<path d="M393.433 157.044C393.358 157.008 393.954 155.524 394.548 153.649C395.147 151.773 395.429 150.189 395.505 150.203C395.574 150.211 395.405 151.84 394.799 153.74C394.5 154.688 394.17 155.523 393.911 156.115C393.651 156.707 393.465 157.06 393.433 157.044Z" fill="#165D31"/>
<path d="M385.547 169.004C385.532 169.016 385.376 168.819 385.107 168.454C384.809 168.042 384.432 167.52 383.981 166.897C383.035 165.579 381.727 163.759 380.262 161.768C378.796 159.777 377.448 157.99 376.472 156.698C376.012 156.083 375.627 155.569 375.322 155.162C375.053 154.797 374.911 154.589 374.925 154.576C374.939 154.563 375.108 154.746 375.401 155.09C375.694 155.433 376.109 155.938 376.616 156.568C377.63 157.829 379.001 159.597 380.47 161.591C381.937 163.585 383.223 165.427 384.131 166.777C384.585 167.451 384.947 168.002 385.19 168.389C385.434 168.774 385.562 168.992 385.547 169.004Z" fill="#165D31"/>
<path d="M382.036 164.144C381.992 164.194 381.055 162.995 380.564 161.174C380.202 159.891 380.186 158.717 380.231 158.18L380.348 158.191C380.295 158.419 380.257 158.54 380.237 158.536C380.216 158.533 380.215 158.405 380.232 158.17L380.349 158.18C380.392 158.712 380.467 159.846 380.819 161.093C381.292 162.857 382.106 164.095 382.036 164.144Z" fill="#165D31"/>
<path d="M377.501 157.994C377.467 158.034 377.165 157.624 376.474 157.351C375.788 157.065 374.755 157.002 373.622 157.107C372.488 157.196 371.475 157.415 370.75 157.607C370.025 157.8 369.582 157.952 369.569 157.913C369.557 157.879 369.978 157.658 370.7 157.412C371.42 157.168 372.447 156.913 373.602 156.822C374.748 156.715 375.835 156.81 376.544 157.164C377.263 157.507 377.525 157.988 377.501 157.994Z" fill="#165D31"/>
<path d="M376.427 156.505C376.407 156.549 375.829 156.246 374.854 155.887C373.88 155.526 372.493 155.147 370.927 155.015C369.361 154.889 367.936 155.037 366.923 155.234C365.908 155.43 365.294 155.635 365.281 155.588C365.275 155.569 365.423 155.502 365.698 155.396C365.971 155.286 366.378 155.161 366.887 155.036C367.902 154.785 369.352 154.602 370.948 154.73C372.542 154.864 373.948 155.282 374.918 155.696C375.403 155.902 375.787 156.093 376.041 156.246C376.298 156.396 376.435 156.487 376.427 156.505Z" fill="#165D31"/>
<path d="M385.512 150.203C385.441 150.222 384.927 148.298 384.364 145.905C383.801 143.511 383.403 141.556 383.473 141.536C383.544 141.517 384.058 143.441 384.621 145.835C385.184 148.227 385.583 150.183 385.512 150.203Z" fill="#165D31"/>
<path d="M385.585 150.203C385.506 150.23 385.175 148.945 384.313 147.63C383.473 146.287 382.401 145.613 382.441 145.547C382.455 145.517 382.751 145.634 383.163 145.949C383.577 146.259 384.089 146.786 384.53 147.466C385.425 148.834 385.649 150.198 385.585 150.203Z" fill="#165D31"/>
<path d="M385.53 206.837C385.502 206.842 385.447 206.362 385.241 205.523C385.037 204.684 384.653 203.494 384.016 202.102C382.75 199.312 380.446 195.774 377.518 192.231C376.067 190.444 374.66 188.758 373.465 187.144C372.268 185.533 371.285 183.997 370.567 182.638C369.847 181.28 369.378 180.116 369.104 179.294C368.969 178.882 368.871 178.56 368.817 178.338C368.758 178.116 368.732 177.999 368.742 177.996C368.765 177.988 368.899 178.448 369.201 179.254C369.502 180.059 369.994 181.202 370.729 182.536C371.462 183.872 372.454 185.385 373.655 186.98C374.854 188.577 376.264 190.254 377.717 192.044C380.653 195.596 382.951 199.178 384.184 202.014C384.805 203.43 385.165 204.643 385.341 205.497C385.425 205.925 385.483 206.258 385.503 206.488C385.53 206.716 385.54 206.836 385.53 206.837Z" fill="#165D31"/>
<path d="M400.003 189.213C400.011 189.233 399.734 189.385 399.244 189.672C398.758 189.966 398.067 190.42 397.277 191.074C396.486 191.726 395.601 192.584 394.693 193.614C393.786 194.647 392.852 195.846 391.898 197.132C389.992 199.71 388.209 201.993 387.142 203.814C386.6 204.717 386.206 205.479 385.948 206.014C385.687 206.547 385.55 206.846 385.53 206.837C385.521 206.833 385.546 206.754 385.6 206.605C385.657 206.458 385.733 206.238 385.855 205.964C386.086 205.413 386.458 204.631 386.984 203.707C388.02 201.841 389.789 199.528 391.692 196.953C392.647 195.665 393.593 194.464 394.517 193.433C395.442 192.403 396.35 191.552 397.165 190.912C397.979 190.272 398.692 189.84 399.196 189.573C399.448 189.437 399.653 189.353 399.788 189.29C399.926 189.23 399.999 189.204 400.003 189.213Z" fill="#165D31"/>
<path d="M400.286 194.93C400.29 194.972 399.674 195.052 398.683 195.181C397.695 195.319 396.321 195.497 394.881 195.989C393.446 196.493 392.253 197.261 391.476 197.915C390.691 198.569 390.321 199.11 390.285 199.078C390.272 199.069 390.349 198.921 390.522 198.68C390.694 198.438 390.975 198.115 391.357 197.759C392.122 197.048 393.326 196.234 394.799 195.717C396.274 195.214 397.668 195.068 398.664 194.981C399.664 194.902 400.283 194.893 400.286 194.93Z" fill="#165D31"/>
<path d="M390.753 198.45C390.669 198.399 391.392 197.209 391.952 195.609C392.478 193.993 392.601 192.577 392.695 192.594C392.729 192.598 392.728 192.952 392.669 193.521C392.606 194.088 392.479 194.876 392.201 195.706C391.921 196.534 391.554 197.227 391.271 197.709C390.986 198.191 390.783 198.47 390.753 198.45Z" fill="#165D31"/>
<path d="M404.69 173.862C404.694 173.872 404.605 173.922 404.434 174.009C404.235 174.107 403.985 174.229 403.68 174.379C403.35 174.531 402.949 174.725 402.498 174.981C402.045 175.233 401.516 175.493 400.966 175.85C400.687 176.021 400.395 176.199 400.092 176.385C399.789 176.574 399.488 176.797 399.169 177.012C398.524 177.434 397.878 177.953 397.189 178.483C395.84 179.587 394.422 180.894 393.056 182.403C391.703 183.927 390.54 185.5 389.563 186.992C389.095 187.753 388.636 188.467 388.266 189.176C388.078 189.527 387.881 189.858 387.717 190.191C387.555 190.525 387.399 190.845 387.25 191.152C386.938 191.757 386.716 192.336 386.498 192.832C386.276 193.327 386.11 193.766 385.98 194.126C385.851 194.46 385.747 194.733 385.663 194.951C385.588 195.138 385.544 195.235 385.536 195.232C385.527 195.229 385.554 195.125 385.613 194.932C385.684 194.709 385.774 194.429 385.883 194.086C385.999 193.718 386.151 193.272 386.362 192.768C386.568 192.263 386.78 191.676 387.082 191.061C387.227 190.749 387.379 190.424 387.537 190.086C387.697 189.747 387.89 189.412 388.076 189.056C388.439 188.336 388.895 187.613 389.361 186.842C390.334 185.331 391.501 183.74 392.865 182.204C394.241 180.683 395.676 179.372 397.043 178.271C397.742 177.743 398.397 177.227 399.051 176.811C399.375 176.599 399.68 176.379 399.988 176.195C400.296 176.013 400.592 175.839 400.876 175.672C401.435 175.325 401.973 175.076 402.433 174.837C402.893 174.593 403.301 174.413 403.639 174.276C403.952 174.146 404.209 174.04 404.413 173.956C404.592 173.886 404.687 173.853 404.69 173.862Z" fill="#165D31"/>
<path d="M393.236 182.137C393.213 182.132 393.34 181.653 393.866 181.125C394.379 180.599 395.314 180.111 396.404 180.076C397.49 180.045 398.431 180.372 399.074 180.638C399.721 180.912 400.097 181.134 400.084 181.168C400.069 181.207 399.666 181.051 399.013 180.829C398.362 180.614 397.441 180.331 396.412 180.362C395.387 180.396 394.502 180.821 393.988 181.279C393.463 181.734 393.278 182.164 393.236 182.137Z" fill="#165D31"/>
<path d="M391.524 184.041C391.451 183.998 392.097 182.976 392.244 181.514C392.413 180.053 392.003 178.899 392.083 178.875C392.111 178.862 392.256 179.13 392.38 179.611C392.506 180.09 392.588 180.786 392.507 181.547C392.423 182.307 392.194 182.964 391.97 183.398C391.747 183.835 391.549 184.06 391.524 184.041Z" fill="#165D31"/>
<path d="M372.872 209.668C373.267 217.22 375.378 224.9 378.624 232.665H392.741C395.837 224.977 397.802 217.309 398.151 209.668H372.872Z" fill="#1E54AE"/>
<path d="M395.864 221.888C395.864 221.967 391.215 222.031 385.483 222.031C379.749 222.031 375.101 221.967 375.101 221.888C375.101 221.81 379.749 221.746 385.483 221.746C391.215 221.745 395.864 221.809 395.864 221.888Z" fill="#FAFAFA"/>
<path d="M395.548 224.624C395.548 224.703 391.191 224.767 385.817 224.767C380.441 224.767 376.084 224.703 376.084 224.624C376.084 224.545 380.441 224.481 385.817 224.481C391.19 224.481 395.548 224.545 395.548 224.624Z" fill="#FAFAFA"/>
</g>
<defs>
<clipPath id="clip0_4016_5853">
<rect width="417" height="253" fill="white" transform="translate(0.5)"/>
</clipPath>
</defs>
</svg>
