<svg width="255" height="255" viewBox="0 0 255 255" fill="none" xmlns="http://www.w3.org/2000/svg">
  <!-- 🔹 Blue diamond background -->
  <path
    fill-rule="evenodd"
    clip-rule="evenodd"
    d="M101.602 9.55092C114.337 -3.18364 134.949 -3.18364 147.662 9.55092L245.398 107.287C258.132 119.999 258.132 140.612 245.398 153.324L153.324 245.398C140.589 258.132 119.977 258.132 107.265 245.398L9.55092 147.684C-3.18364 134.972 -3.18364 114.359 9.55092 101.647L101.602 9.55092Z"
    fill="#0082D2"
  />

  <!-- ⚪ White inner SVG centered (126x126) -->
  <g transform="translate(64.5,64.5)">
    <path
      fill-rule="evenodd"
      clip-rule="evenodd"
      d="M28.3264 24.8941C28.3264 36.4701 37.7099 45.8534 49.2859 45.8534C60.8622 45.8534 70.2457 36.4701 70.2457 24.8941C70.2457 13.3213 60.8622 3.9375 49.2859 3.9375C37.7102 3.9375 28.3264 13.3213 28.3264 24.8941ZM97.4531 72.8438C111.044 72.8438 122.062 83.8616 122.062 97.4531C122.062 111.044 111.045 122.062 97.4531 122.062C83.8619 122.062 72.8438 111.044 72.8438 97.4531C72.8438 83.8619 83.8619 72.8438 97.4531 72.8438ZM90.7399 108.091C92.2514 109.517 93.6842 110.594 95.7703 110.962L95.8156 112.844C95.838 113.792 96.6243 114.542 97.572 114.519C98.5197 114.497 99.2698 113.711 99.2476 112.763L99.2033 110.931C102.805 110.222 105.792 107.275 105.792 103.47C105.792 98.988 101.738 95.8395 97.4531 95.8395C95.0667 95.8395 92.5595 94.2325 92.5595 91.6539C92.5595 89.0808 95.0695 87.4617 97.4531 87.4617C98.6014 87.4617 101.241 88.4308 101.889 89.4179C102.41 90.2094 103.473 90.4294 104.265 89.9091C105.056 89.3889 105.276 88.3253 104.756 87.5338C103.643 85.8409 101.091 84.6796 99.1428 84.2418L99.0909 82.0632C99.0685 81.1155 98.2822 80.3654 97.3345 80.3875C96.3868 80.4097 95.6367 81.1962 95.6589 82.1439L95.7078 84.1978C92.1011 84.9018 89.1142 87.8461 89.1142 91.6539C89.1142 96.1363 93.1681 99.2848 97.4531 99.2848C99.8395 99.2848 102.347 100.892 102.347 103.47C102.347 106.049 99.8395 107.656 97.4531 107.656C95.4546 107.656 94.4938 106.907 93.095 105.588C92.4038 104.937 91.3163 104.971 90.6659 105.662C90.0154 106.353 90.0487 107.44 90.7399 108.091ZM78.4247 118.065C72.8753 112.939 69.3984 105.602 69.3984 97.4531C69.3984 87.1381 74.968 78.1239 83.2624 73.2498C80.139 69.7193 76.4746 66.6781 72.3978 64.2583L49.2859 99.4534L26.1748 64.2593C12.8628 72.1608 3.9375 86.6769 3.9375 103.279C3.9375 121.576 52.3395 126.502 78.4247 118.065ZM57.6856 62.3038L56.1049 67.1683C55.8697 67.8928 55.4208 68.4857 54.8388 68.889L56.6016 82.0366L49.2859 93.1768L41.9703 82.0363L43.7331 68.8888C43.1511 68.4854 42.7024 67.8926 42.4669 67.1681L40.8863 62.3036C40.5452 61.254 40.712 60.2014 41.3607 59.3083C42.0094 58.4153 42.9591 57.9317 44.0628 57.9317H54.509C55.6128 57.9317 56.5622 58.4155 57.2111 59.3083C57.8601 60.2017 58.0267 61.2542 57.6856 62.3038Z"
      fill="white"
    />
  </g>
</svg>
