<svg width="148" height="126" viewBox="0 0 148 126" fill="none" xmlns="http://www.w3.org/2000/svg">
<path fill-rule="evenodd" clip-rule="evenodd" d="M69.8575 1.36858C71.6823 -0.456194 74.6359 -0.456194 76.4575 1.36858L90.4624 15.3735C92.2872 17.1951 92.2872 20.1487 90.4624 21.9703L77.2688 35.1638C75.4441 36.9886 72.4904 36.9886 70.6689 35.1638L56.6672 21.1621C54.8424 19.3405 54.8424 16.3869 56.6672 14.5653L69.8575 1.36858Z" fill="white"/>
<path fill-rule="evenodd" clip-rule="evenodd" d="M95.8664 27.9833C97.688 26.1586 100.642 26.1586 102.46 27.9833L116.468 41.9882C118.29 43.8098 118.29 46.7634 116.468 48.5818L103.271 61.7785C101.45 63.6033 98.4929 63.6033 96.6746 61.7785L82.6696 47.7768C80.8481 45.9553 80.8481 43.0016 82.6696 41.1769L95.8664 27.9833Z" fill="white"/>
<path fill-rule="evenodd" clip-rule="evenodd" d="M43.8554 28.4836C45.6801 26.6589 48.6338 26.6589 50.4553 28.4836L64.4571 42.4885C66.2786 44.3101 66.2786 47.2637 64.4571 49.0885L51.2635 62.2789C49.4419 64.1036 46.4883 64.1036 44.6667 62.2789L30.6618 48.2772C28.8403 46.4556 28.8403 43.5019 30.6618 41.6772L43.8554 28.4836Z" fill="white"/>
<path d="M14.7241 86.6975L15.9171 84.6322C16.318 84.908 16.8792 85.1582 17.5976 85.3891C18.3159 85.62 19.153 85.7354 20.1119 85.7354C21.5903 85.7354 22.639 85.5141 23.2547 85.0684C23.8769 84.6162 24.1911 83.9908 24.1911 83.1955C24.1911 82.7946 24.1046 82.2975 23.9346 81.7074C23.7614 81.1174 23.3958 80.3188 22.8314 79.3086C22.2734 78.3016 21.4203 76.9804 20.2658 75.3448L22.3311 73.985C23.9121 76.185 25.0185 78.0515 25.6535 79.5908C26.2949 81.1302 26.6156 82.3809 26.6156 83.3366C26.6156 84.1576 26.4136 84.9401 26.0127 85.6841C25.6183 86.4217 24.9512 87.0278 24.0116 87.5057C23.0687 87.9867 21.7699 88.224 20.1119 88.224C19.0151 88.224 17.9985 88.0894 17.0588 87.8264C16.116 87.5538 15.3399 87.1786 14.7241 86.6975ZM20.1503 71.2655C19.7206 71.2655 19.3614 71.1212 19.0728 70.8294C18.7906 70.5407 18.6495 70.1944 18.6495 69.7903C18.6495 69.399 18.7906 69.0527 19.0728 68.7512C19.3614 68.453 19.7206 68.3022 20.1503 68.3022C20.5416 68.3022 20.8847 68.453 21.1766 68.7512C21.4652 69.0527 21.6127 69.399 21.6127 69.7903C21.6127 70.1944 21.4652 70.5407 21.1766 70.8294C20.8847 71.1212 20.5416 71.2655 20.1503 71.2655Z" fill="white"/>
<path d="M30.7177 88.0445L30.1147 66.6475H32.5392L33.1421 88.0445H30.7177Z" fill="white"/>
<path d="M36.8205 94.9331L36.2817 92.4829C37.5196 92.3194 38.6549 92.0852 39.6811 91.7774C40.7138 91.4695 41.5989 91.0334 42.3365 90.4689C43.0805 89.9109 43.6322 89.1541 43.9913 88.1984H42.0671C41.1692 88.1984 40.3354 88.0733 39.5657 87.8264C38.796 87.5698 38.1739 87.1657 37.7056 86.6077C37.2438 86.0433 37.0129 85.3121 37.0129 84.4141C37.0129 83.3206 37.231 82.2815 37.6672 81.2969C38.1033 80.306 38.6998 79.501 39.4631 78.8853C40.2231 78.2631 41.0826 77.9489 42.0415 77.9489C43.4173 77.9489 44.559 78.5518 45.4665 79.7576C46.3805 80.9634 46.8391 82.8171 46.8391 85.3121C46.8391 85.4596 46.8391 85.6007 46.8391 85.7354H49.533C49.9499 85.7354 50.2546 85.8509 50.4438 86.0818C50.6298 86.3127 50.726 86.5885 50.726 86.9028C50.726 87.2299 50.5849 87.5281 50.3027 87.8007C50.0269 88.0637 49.6741 88.1984 49.238 88.1984H46.48C45.4601 92.0724 42.2403 94.3173 36.8205 94.9331ZM43.2088 85.7354H44.466C44.4916 85.5398 44.5045 85.3377 44.5045 85.1325C44.5045 83.7824 44.2511 82.6567 43.7476 81.7588C43.2505 80.8544 42.5995 80.399 41.7978 80.399C41.3776 80.399 40.9832 80.5625 40.6176 80.8865C40.2488 81.2039 39.9537 81.6305 39.7325 82.1692C39.508 82.708 39.3989 83.2981 39.3989 83.9395C39.3989 84.6418 39.7132 85.1165 40.3482 85.3634C40.98 85.6135 41.9324 85.7354 43.2088 85.7354Z" fill="white"/>
<path d="M49.2261 88.1984L49.5211 85.7355H57.6156C58.0325 85.7355 58.3371 85.8509 58.5263 86.0818C58.722 86.3127 58.8214 86.5885 58.8214 86.9028C58.8214 87.2299 58.6803 87.5282 58.3981 87.8008C58.1158 88.0637 57.7567 88.1984 57.3205 88.1984H49.2261Z" fill="white"/>
<path d="M57.3135 88.1984L57.5829 85.7355C59.6417 85.7355 61.6397 85.434 63.5735 84.8247C65.5137 84.2186 67.284 83.3559 68.8843 82.2335C68.105 81.5504 67.1525 80.9988 66.0237 80.5786C64.8948 80.1617 63.6505 79.9501 62.2907 79.9501C61.784 79.9501 61.3447 79.9757 60.9694 80.027C60.591 80.0784 60.1356 80.1649 59.5969 80.2836L59.1094 78.0002C60.2286 77.6667 61.2901 77.4999 62.2907 77.4999C63.3234 77.4999 64.2598 77.625 65.1 77.8719C65.9371 78.1221 66.7035 78.4236 67.3962 78.7827C68.0889 79.1419 68.7368 79.5011 69.3461 79.8603C69.9522 80.2195 70.5455 80.5273 71.1292 80.7839C71.7096 81.034 72.3093 81.1559 72.9251 81.1559H73.5537L73.7589 83.311C73.1432 83.311 72.5435 83.3816 71.963 83.5162C72.3478 84.4142 72.8866 85.0107 73.5793 85.2993C74.2784 85.5912 75.3175 85.7355 76.6965 85.7355C77.1134 85.7355 77.4181 85.8509 77.6073 86.0818C77.8029 86.3127 77.9023 86.5885 77.9023 86.9028C77.9023 87.2299 77.7612 87.5282 77.479 87.8008C77.1968 88.0638 76.8376 88.1984 76.4015 88.1984C75.3239 88.1984 74.3554 88.1022 73.5023 87.9162C72.6557 87.7206 71.9309 87.339 71.3344 86.7745C70.7347 86.2037 70.2954 85.3474 70.0131 84.209C69.2595 84.5681 68.4866 84.9754 67.6913 85.4276C66.9024 85.8734 66.0301 86.3063 65.0744 86.7232C64.1155 87.1433 63.0091 87.4929 61.7519 87.7751C60.4948 88.0573 59.0132 88.1984 57.3135 88.1984Z" fill="white"/>
<path d="M76.3936 88.1984L76.6886 85.7355H84.783C85.1999 85.7355 85.5046 85.8509 85.6938 86.0818C85.8894 86.3127 85.9889 86.5885 85.9889 86.9028C85.9889 87.2299 85.8477 87.5282 85.5655 87.8008C85.2833 88.0637 84.9241 88.1984 84.488 88.1984H76.3936Z" fill="white"/>
<path d="M84.4805 88.1984L84.7755 85.7355C85.7761 85.7355 86.5522 85.6649 87.1102 85.5174C87.6746 85.3635 88.1012 85.0748 88.393 84.6451C88.6816 84.2186 88.9189 83.5932 89.0985 82.7722C89.2781 81.9512 89.4962 80.8833 89.7528 79.5652L92.0874 80.0142C91.9656 80.553 91.8309 81.1751 91.6769 81.8743C91.5294 82.5766 91.4589 83.1667 91.4589 83.6445C91.4589 83.946 91.4781 84.2218 91.523 84.4783C91.5647 84.7349 91.7154 84.953 91.972 85.1326C92.2285 85.3121 92.6647 85.4597 93.2804 85.5687C93.9026 85.681 94.7973 85.7355 95.9615 85.7355C96.3784 85.7355 96.6831 85.8509 96.8723 86.0818C97.0583 86.3127 97.1545 86.5885 97.1545 86.9028C97.1545 87.2299 97.0134 87.5282 96.7312 87.8008C96.4554 88.0637 96.0962 88.1984 95.6536 88.1984C94.3516 88.1984 93.3382 88.1247 92.6134 87.9804C91.8854 87.8264 91.3466 87.6051 90.9971 87.3133C90.6443 87.0247 90.3942 86.6591 90.2402 86.2229C89.6565 87.0375 88.9382 87.5699 88.0851 87.8264C87.2385 88.0734 86.0359 88.1984 84.4805 88.1984ZM92.4851 76.4737C92.065 76.4737 91.709 76.3294 91.4204 76.0375C91.1286 75.7489 90.9842 75.4026 90.9842 74.9985C90.9842 74.6072 91.1286 74.2609 91.4204 73.9594C91.709 73.6612 92.065 73.5104 92.4851 73.5104C92.8764 73.5104 93.2195 73.6612 93.5113 73.9594C93.8 74.2609 93.9475 74.6072 93.9475 74.9985C93.9475 75.4026 93.8 75.7489 93.5113 76.0375C93.2195 76.3294 92.8764 76.4737 92.4851 76.4737ZM88.3802 76.4737C87.9504 76.4737 87.5912 76.3294 87.3026 76.0375C87.0204 75.7489 86.8793 75.4026 86.8793 74.9985C86.8793 74.6072 87.0204 74.2609 87.3026 73.9594C87.5912 73.6612 87.9504 73.5104 88.3802 73.5104C88.7714 73.5104 89.1146 73.6612 89.4064 73.9594C89.695 74.2609 89.8425 74.6072 89.8425 74.9985C89.8425 75.4026 89.695 75.7489 89.4064 76.0375C89.1146 76.3294 88.7714 76.4737 88.3802 76.4737Z" fill="white"/>
<path d="M95.6528 88.1984L95.9479 85.7355H104.042C104.459 85.7355 104.764 85.8509 104.953 86.0818C105.149 86.3127 105.248 86.5885 105.248 86.9028C105.248 87.2299 105.107 87.5282 104.825 87.8008C104.543 88.0637 104.183 88.1984 103.747 88.1984H95.6528Z" fill="white"/>
<path d="M103.74 88.1984L104.035 85.7355C104.677 85.7355 105.196 85.6938 105.6 85.6072C106.001 85.5142 106.335 85.2833 106.601 84.9145C106.873 84.5489 107.13 83.9652 107.371 83.1699C107.608 82.3681 107.887 81.2457 108.204 79.8089L110.449 80.4375C110.327 80.9506 110.186 81.56 110.026 82.2591C109.872 82.9614 109.795 83.59 109.795 84.1448C109.795 84.6515 109.981 85.0427 110.359 85.325C110.744 85.6008 111.431 85.7355 112.425 85.7355C113.031 85.7355 113.522 85.6906 113.9 85.5943C114.275 85.4917 114.586 85.2544 114.836 84.876C115.093 84.4911 115.317 83.885 115.516 83.0544C115.712 82.227 115.92 81.0725 116.145 79.5909L118.428 80.0142C118.367 80.3734 118.29 80.8159 118.197 81.3355C118.111 81.8486 118.037 82.3617 117.979 82.8748C117.918 83.3879 117.889 83.8113 117.889 84.1448C117.889 84.427 117.954 84.6932 118.082 84.9401C118.21 85.1903 118.467 85.3859 118.852 85.5302C119.243 85.6681 119.83 85.7355 120.609 85.7355C121.472 85.7355 122.161 85.5687 122.674 85.2352C123.194 84.8952 123.457 84.2025 123.457 83.157C123.457 82.4226 123.28 81.4766 122.931 80.3221C122.578 79.1611 122.187 78.0098 121.751 76.8713L124.175 75.9734C124.412 76.634 124.653 77.3684 124.894 78.1798C125.131 78.9847 125.333 79.7897 125.496 80.5914C125.657 81.3868 125.74 82.0859 125.74 82.6824C125.74 84.5392 125.278 85.9247 124.355 86.8387C123.438 87.7462 122.18 88.1984 120.583 88.1984C119.48 88.1984 118.611 88.0509 117.979 87.7623C117.354 87.4736 116.902 87.0182 116.619 86.4025C116.138 87.1401 115.568 87.6212 114.901 87.8521C114.233 88.083 113.287 88.1984 112.066 88.1984C111.645 88.1984 111.2 88.1471 110.731 88.0445C110.27 87.9419 109.837 87.7494 109.436 87.4672C109.032 87.1786 108.721 86.7424 108.499 86.1588C107.986 87.0407 107.345 87.6019 106.575 87.8392C105.806 88.0766 104.859 88.1984 103.74 88.1984Z" fill="white"/>
<path d="M129.981 88.0445L129.378 66.6475H131.803L132.406 88.0445H129.981Z" fill="white"/>
<path d="M3.0274 115.52L10.6985 98.0228H11.2373L19.3189 116.662C19.6171 117.348 19.9026 117.855 20.1784 118.188C20.451 118.515 20.7364 118.727 21.0378 118.83C21.3361 118.926 21.7434 118.971 22.2565 118.971V119.51H13.8157V118.971C14.5341 118.971 15.0728 118.843 15.432 118.586C15.7912 118.323 15.9708 117.97 15.9708 117.534C15.9708 117.149 15.8361 116.681 15.5731 116.123L14.0209 112.583H5.72126L4.01515 116.508C3.8099 116.912 3.70728 117.271 3.70728 117.585C3.70728 118.509 4.44488 118.971 5.92651 118.971V119.51H0V118.971C0.493876 118.913 0.897956 118.766 1.20583 118.535C1.52011 118.304 1.80233 117.97 2.05247 117.534C2.29941 117.092 2.62332 116.418 3.0274 115.52ZM13.5463 111.454L9.89035 103.09L6.23438 111.454H13.5463Z" fill="white"/>
<path d="M30.226 105.271C31.079 105.271 31.8744 105.421 32.612 105.72C33.356 106.021 33.9397 106.419 34.3694 106.913C34.7959 107.4 35.0108 107.923 35.0108 108.478C35.0108 108.837 34.8729 109.138 34.6003 109.376C34.3341 109.616 33.991 109.735 33.5741 109.735C32.6152 109.735 32.086 109.196 31.9834 108.118C31.9481 107.625 31.7525 107.176 31.3933 106.771C31.0341 106.371 30.4729 106.169 29.7128 106.169C28.5327 106.169 27.5834 106.64 26.865 107.58C26.1467 108.523 25.7875 109.77 25.7875 111.325C25.7875 113.192 26.2269 114.686 27.1088 115.815C27.9875 116.938 29.1548 117.496 30.6108 117.496C31.6884 117.496 32.5895 117.197 33.3175 116.598C34.0519 116.001 34.5778 115.174 34.8953 114.122L35.37 114.327C34.9755 116.004 34.2443 117.361 33.1764 118.394C32.1053 119.42 30.893 119.933 29.5333 119.933C28.3691 119.933 27.3172 119.625 26.3776 119.009C25.4443 118.387 24.7132 117.531 24.184 116.444C23.6516 115.35 23.3887 114.115 23.3887 112.736C23.3887 111.3 23.6773 110.017 24.261 108.888C24.8414 107.759 25.6496 106.874 26.6855 106.233C27.7181 105.591 28.8983 105.271 30.226 105.271Z" fill="white"/>
<path d="M43.9351 105.271C44.5316 105.271 45.0928 105.348 45.6156 105.502C46.1351 105.649 46.6739 105.893 47.2319 106.233C47.915 105.995 48.489 105.675 48.9508 105.271H49.4511V122.652C49.4511 123.429 49.5217 124.006 49.6692 124.384C49.8231 124.769 50.054 125.019 50.3619 125.141C50.6762 125.26 51.1348 125.321 51.7345 125.321V125.859H44.4739V125.321H44.7818C45.3622 125.321 45.8016 125.257 46.103 125.128C46.4013 125 46.6226 124.743 46.7701 124.359C46.924 123.98 47.001 123.413 47.001 122.652V117.265H46.9369C46.2602 118.105 45.5162 118.759 44.7048 119.227C43.8902 119.696 43.0885 119.933 42.2931 119.933C41.2733 119.933 40.3561 119.632 39.5351 119.035C38.7141 118.439 38.0663 117.611 37.5981 116.559C37.1267 115.507 36.8926 114.346 36.8926 113.07C36.8926 111.633 37.2004 110.322 37.8162 109.132C38.4383 107.945 39.2914 107.002 40.369 106.31C41.4529 105.617 42.6427 105.271 43.9351 105.271ZM39.4453 112.134C39.4453 113.853 39.8558 115.235 40.6768 116.277C41.4978 117.313 42.5754 117.829 43.9095 117.829C44.5829 117.829 45.1474 117.714 45.6028 117.483C46.0549 117.252 46.52 116.89 47.001 116.392V109.35C47.001 108.497 46.7188 107.759 46.1544 107.144C45.5963 106.521 44.7689 106.207 43.6657 106.207C42.3733 106.207 41.3471 106.771 40.587 107.9C39.8238 109.029 39.4453 110.44 39.4453 112.134Z" fill="white"/>
<path d="M57.8395 115.559C57.8395 116.277 58.0576 116.867 58.4938 117.329C58.9363 117.784 59.4751 118.009 60.1101 118.009C60.6906 118.009 61.2903 117.855 61.906 117.547C62.5282 117.239 63.1182 116.787 63.6763 116.187V107.888C63.6763 106.727 62.9964 106.143 61.6366 106.143H61.3416V105.604H66.1392V116.277C66.1392 116.636 66.2419 117.002 66.4471 117.367C66.6588 117.736 66.9987 117.919 67.4605 117.919C67.7171 117.919 68.0442 117.842 68.4483 117.688V118.253L64.2535 119.869H63.6763V116.931H63.625C61.999 118.932 60.4372 119.933 58.9428 119.933C58.1795 119.933 57.5317 119.741 56.9929 119.356C56.4541 118.964 56.0468 118.467 55.7742 117.868C55.5081 117.262 55.3766 116.649 55.3766 116.033V108.118C55.3766 107.342 55.2002 106.82 54.8506 106.553C54.5075 106.281 53.9655 106.143 53.2215 106.143H52.8623V105.604H57.8395V115.559Z" fill="white"/>
<path d="M72.9369 97.933C73.373 97.933 73.7386 98.0838 74.0401 98.382C74.3383 98.6835 74.4891 99.0427 74.4891 99.4596C74.4891 99.9053 74.3383 100.277 74.0401 100.576C73.7386 100.877 73.373 101.025 72.9369 101.025C72.5168 101.025 72.1576 100.877 71.8593 100.576C71.5579 100.277 71.4103 99.9053 71.4103 99.4596C71.4103 99.0427 71.5579 98.6835 71.8593 98.382C72.1576 98.0838 72.5168 97.933 72.9369 97.933ZM74.2453 116.392C74.2453 117.377 74.4025 118.047 74.72 118.406C75.0439 118.766 75.5666 118.955 76.285 118.971V119.51H69.5503V118.971C70.3713 118.971 70.9485 118.785 71.2821 118.406C71.622 118.022 71.7952 117.329 71.7952 116.328V109.081C71.7952 108.542 71.6733 108.106 71.436 107.772C71.1955 107.432 70.8235 107.259 70.32 107.259C70.1051 107.259 69.9095 107.307 69.7299 107.4L69.5503 106.861L73.7065 105.271H74.2453V116.392Z" fill="white"/>
<path d="M82.6059 105.271C83.1863 105.271 83.7764 105.373 84.3761 105.579C84.793 105.716 85.133 105.784 85.3895 105.784C85.5691 105.784 85.7615 105.726 85.9668 105.604H86.5056V109.825H85.9668C85.8032 108.731 85.4088 107.843 84.7866 107.156C84.1709 106.464 83.4204 106.117 82.5417 106.117C81.849 106.117 81.275 106.29 80.8228 106.63C80.377 106.964 80.1557 107.423 80.1557 108.003C80.1557 108.465 80.2776 108.862 80.5277 109.196C80.7747 109.523 81.121 109.825 81.5668 110.107C82.019 110.383 82.7245 110.771 83.6834 111.274C84.9213 111.935 85.8706 112.583 86.5312 113.224C87.1887 113.859 87.519 114.712 87.519 115.79C87.519 116.748 87.2752 117.541 86.7878 118.163C86.3003 118.778 85.7102 119.227 85.0175 119.51C84.3312 119.792 83.677 119.933 83.0548 119.933C82.4551 119.933 81.647 119.792 80.6304 119.51C80.1686 119.375 79.8607 119.304 79.7068 119.304C79.4406 119.304 79.261 119.375 79.168 119.51H78.5266V114.84H79.0397C79.184 116.072 79.633 117.072 80.3866 117.842C81.1467 118.612 82.0479 118.997 83.0933 118.997C83.7091 118.997 84.2414 118.801 84.6968 118.406C85.1586 118.006 85.3895 117.505 85.3895 116.906C85.3895 116.206 85.1875 115.658 84.7866 115.264C84.3922 114.863 83.9528 114.516 83.4653 114.225C82.9779 113.936 82.6508 113.747 82.4904 113.66C82.4038 113.602 82.1216 113.442 81.6438 113.185C80.9254 112.785 80.3514 112.429 79.9248 112.121C79.4951 111.813 79.1359 111.412 78.8473 110.915C78.5554 110.411 78.4111 109.792 78.4111 109.055C78.4111 107.936 78.8024 107.025 79.5913 106.323C80.3866 105.623 81.3904 105.271 82.6059 105.271Z" fill="white"/>
<path d="M92.5858 97.933C93.0219 97.933 93.3875 98.0838 93.689 98.382C93.9872 98.6835 94.138 99.0427 94.138 99.4596C94.138 99.9053 93.9872 100.277 93.689 100.576C93.3875 100.877 93.0219 101.025 92.5858 101.025C92.1657 101.025 91.8065 100.877 91.5082 100.576C91.2068 100.277 91.0593 99.9053 91.0593 99.4596C91.0593 99.0427 91.2068 98.6835 91.5082 98.382C91.8065 98.0838 92.1657 97.933 92.5858 97.933ZM93.8942 116.392C93.8942 117.377 94.0514 118.047 94.3689 118.406C94.6928 118.766 95.2155 118.955 95.9339 118.971V119.51H89.1992V118.971C90.0202 118.971 90.5975 118.785 90.931 118.406C91.2709 118.022 91.4441 117.329 91.4441 116.328V109.081C91.4441 108.542 91.3222 108.106 91.0849 107.772C90.8444 107.432 90.4724 107.259 89.9689 107.259C89.754 107.259 89.5584 107.307 89.3788 107.4L89.1992 106.861L93.3555 105.271H93.8942V116.392Z" fill="white"/>
<path d="M101.601 101.204H102.076V105.604H105.219V106.541H102.076V116.187C102.076 116.7 102.223 117.162 102.525 117.573C102.823 117.983 103.243 118.188 103.782 118.188C104.141 118.188 104.462 118.108 104.744 117.945C105.026 117.775 105.324 117.476 105.642 117.047H106.245C105.722 118.015 105.161 118.737 104.564 119.215C103.965 119.692 103.269 119.933 102.473 119.933C101.591 119.933 100.895 119.606 100.382 118.958C99.8757 118.31 99.6255 117.425 99.6255 116.303V106.541H97.4961V105.938C98.5127 105.521 99.369 104.908 100.062 104.103C100.761 103.292 101.274 102.327 101.601 101.204Z" fill="white"/>
<path d="M110.677 97.933C111.113 97.933 111.479 98.0838 111.78 98.382C112.079 98.6835 112.229 99.0427 112.229 99.4596C112.229 99.9053 112.079 100.277 111.78 100.576C111.479 100.877 111.113 101.025 110.677 101.025C110.257 101.025 109.898 100.877 109.6 100.576C109.298 100.277 109.151 99.9053 109.151 99.4596C109.151 99.0427 109.298 98.6835 109.6 98.382C109.898 98.0838 110.257 97.933 110.677 97.933ZM111.986 116.392C111.986 117.377 112.143 118.047 112.46 118.406C112.784 118.766 113.307 118.955 114.025 118.971V119.51H107.291V118.971C108.112 118.971 108.689 118.785 109.022 118.406C109.362 118.022 109.535 117.329 109.535 116.328V109.081C109.535 108.542 109.414 108.106 109.176 107.772C108.936 107.432 108.564 107.259 108.06 107.259C107.845 107.259 107.65 107.307 107.47 107.4L107.291 106.861L111.447 105.271H111.986V116.392Z" fill="white"/>
<path d="M123.258 105.271C124.439 105.271 125.542 105.588 126.568 106.22C127.594 106.855 128.409 107.695 129.018 108.747C129.634 109.792 129.942 110.912 129.942 112.108C129.942 113.513 129.612 114.811 128.954 116.008C128.293 117.207 127.408 118.16 126.299 118.868C125.186 119.577 124.003 119.933 122.745 119.933C121.546 119.933 120.43 119.619 119.397 118.997C118.371 118.365 117.556 117.515 116.96 116.444C116.36 115.376 116.062 114.208 116.062 112.942C116.062 111.592 116.389 110.325 117.05 109.145C117.707 107.964 118.592 107.025 119.705 106.323C120.815 105.623 122.001 105.271 123.258 105.271ZM118.756 111.749C118.756 112.929 118.939 114.064 119.307 115.148C119.683 116.235 120.218 117.13 120.911 117.829C121.61 118.532 122.454 118.881 123.438 118.881C124.573 118.881 125.491 118.378 126.183 117.367C126.882 116.36 127.235 115.026 127.235 113.365C127.235 112.05 127.033 110.857 126.632 109.786C126.238 108.718 125.683 107.875 124.965 107.259C124.246 106.637 123.425 106.323 122.502 106.323C121.363 106.323 120.452 106.816 119.769 107.798C119.093 108.773 118.756 110.091 118.756 111.749Z" fill="white"/>
<path d="M136.611 108.208C137.653 107.099 138.503 106.332 139.164 105.912C139.821 105.485 140.549 105.271 141.344 105.271C142.223 105.271 142.935 105.508 143.474 105.976C144.013 106.448 144.401 107.025 144.641 107.708C144.879 108.385 145 109.052 145 109.709V116.328C145 117.355 145.158 118.044 145.475 118.394C145.799 118.737 146.351 118.929 147.13 118.971V119.51H140.113V118.971C140.754 118.971 141.245 118.904 141.588 118.766C141.928 118.621 142.172 118.365 142.319 117.996C142.473 117.63 142.55 117.072 142.55 116.328V109.594C142.55 108.952 142.339 108.369 141.922 107.836C141.502 107.307 140.921 107.041 140.177 107.041C139.561 107.041 138.971 107.208 138.407 107.541C137.849 107.868 137.252 108.372 136.611 109.055V116.328C136.611 117.374 136.781 118.07 137.124 118.419C137.464 118.772 138.054 118.955 138.894 118.971V119.51H131.993V118.971C132.615 118.913 133.077 118.804 133.378 118.65C133.677 118.49 133.882 118.236 133.994 117.893C134.103 117.553 134.161 117.06 134.161 116.418V108.965C134.161 108.503 134.058 108.106 133.853 107.772C133.654 107.432 133.333 107.259 132.891 107.259C132.692 107.259 132.509 107.294 132.339 107.362C132.166 107.432 132.051 107.474 131.993 107.49L131.788 106.925L136.098 105.271H136.611V108.208Z" fill="white"/>
</svg>
