<svg width="255" height="255" viewBox="0 0 255 255" fill="none" xmlns="http://www.w3.org/2000/svg">
  <!-- ✅ الخلفية الزرقاء (الشكل الماسي) -->
  <path fill-rule="evenodd" clip-rule="evenodd" d="M101.602 9.55092C114.337 -3.18364 134.949 -3.18364 147.662 9.55092L245.398 107.287C258.132 119.999 258.132 140.612 245.398 153.324L153.324 245.398C140.589 258.132 119.977 258.132 107.265 245.398L9.55092 147.684C-3.18364 134.972 -3.18364 114.359 9.55092 101.647L101.602 9.55092Z" fill="#0ABEF8"/>

  <!-- ✅ الأيقونة البيضاء في المنتصف -->
  <g transform="translate(50,50) scale(1.1)">
    <path d="M49.2188 53.9062C60.8685 53.9062 70.3125 44.4623 70.3125 32.8125C70.3125 21.1627 60.8685 11.7188 49.2188 11.7188C37.569 11.7188 28.125 21.1627 28.125 32.8125C28.125 44.4623 37.569 53.9062 49.2188 53.9062Z" fill="white"/>
    <path d="M82.7266 75.7357C77.1564 65.5322 66.3274 58.5938 53.9062 58.5938H44.5312C26.4381 58.5938 11.7188 73.3131 11.7188 91.4062V104.207C11.7188 120.793 29.7153 119.531 31.0096 119.531H70.7379C69.1875 115.463 68.1888 110.867 67.9733 105.662C67.9706 93.4268 73.7765 82.6148 82.7266 75.7357Z" fill="white"/>
    <path d="M105.469 72.6562C87.3756 72.6562 72.6562 87.3756 72.6562 105.469C74.4583 148.999 136.486 148.986 138.281 105.468C138.281 87.3756 123.562 72.6562 105.469 72.6562ZM121.875 108.682V119.531C121.875 120.826 120.827 121.875 119.531 121.875H91.4062C90.1108 121.875 89.0625 120.826 89.0625 119.531V108.682C87.2719 107.143 86.0245 104.7 86.3022 102.165L88.7123 90.9153C88.9435 89.835 89.8979 89.0625 91.0034 89.0625H119.934C121.04 89.0625 121.994 89.835 122.225 90.9153L124.635 102.165C124.914 104.7 123.665 107.143 121.875 108.682Z" fill="white"/>
    <path d="M92.8986 93.75L90.9439 102.871C91.0561 104.581 92.482 105.938 94.2192 105.938C96.0274 105.938 97.4991 104.465 97.4991 102.656C97.4991 101.361 98.5474 100.312 99.8428 100.312C101.138 100.312 102.187 101.361 102.187 102.656C102.187 104.465 103.658 105.938 105.469 105.938C107.279 105.938 108.751 104.465 108.751 102.656C108.751 101.361 109.799 100.312 111.095 100.312C112.39 100.312 113.438 101.361 113.438 102.656C113.438 104.465 114.91 105.938 116.718 105.938C118.456 105.938 119.881 104.581 119.994 102.871L118.039 93.75H92.8986Z" fill="white"/>
    <path d="M99.8428 108.295C98.3168 109.811 96.055 110.815 93.75 110.578V117.187H117.188V110.578C114.883 110.815 112.62 109.811 111.095 108.295C108.27 111.355 102.668 111.355 99.8428 108.295Z" fill="white"/>
  </g>
</svg>
