<svg width="65" height="66" viewBox="0 0 65 66" fill="none" xmlns="http://www.w3.org/2000/svg">
<rect x="0.5" y="1" width="64" height="64" rx="32" fill="#ABBFAB" fill-opacity="0.25"/>
<rect x="0.5" y="1" width="64" height="64" rx="32" stroke="#ABBFAB"/>
<path d="M38.9981 35.0485L38.9897 35.0452C38.8847 35.0002 38.7831 34.9485 38.6764 34.9068C39.8667 33.9735 40.8294 32.7819 41.4918 31.422C42.1541 30.0621 42.4988 28.5695 42.4997 27.0568C42.4969 26.7056 42.4718 26.3549 42.4247 26.0068C42.4501 25.9405 42.4713 25.8726 42.4881 25.8035L42.9564 21.8085C43.1025 20.5461 42.7634 19.2752 42.0077 18.2534C41.252 17.2316 40.1363 16.5352 38.8864 16.3052L37.5697 16.0668C34.2181 15.4536 30.783 15.4536 27.4314 16.0668L26.113 16.3052C24.8632 16.5352 23.7474 17.2316 22.9917 18.2534C22.236 19.2752 21.8969 20.5461 22.043 21.8085L22.5097 25.8035C22.527 25.8726 22.5487 25.9405 22.5747 26.0068C22.5276 26.3549 22.5026 26.7056 22.4997 27.0568C22.5007 28.5695 22.8453 30.0621 23.5077 31.422C24.17 32.7819 25.1327 33.9735 26.323 34.9068C26.2164 34.9485 26.1147 35.0002 26.0097 35.0452L26.0014 35.0485C23.2731 36.1957 20.9016 38.0521 19.1329 40.4251C17.3642 42.7981 16.2628 45.6012 15.943 48.5435C15.9016 48.9796 16.0334 49.4144 16.31 49.754C16.5867 50.0936 16.9859 50.3107 17.4214 50.3582C17.8568 50.4058 18.2935 50.2799 18.6369 50.008C18.9803 49.7361 19.2028 49.3399 19.2564 48.9052C19.4912 46.7421 20.2551 44.6701 21.4806 42.8723C22.7061 41.0744 24.3555 39.6061 26.283 38.5968L31.3214 43.6352C31.6339 43.9476 32.0578 44.1231 32.4997 44.1231C32.9417 44.1231 33.3655 43.9476 33.678 43.6352L38.7164 38.5968C40.644 39.6061 42.2933 41.0744 43.5188 42.8723C44.7443 44.6701 45.5082 46.7421 45.743 48.9052C45.7874 49.313 45.9805 49.6902 46.2856 49.9645C46.5906 50.2388 46.9861 50.391 47.3964 50.3918C47.4576 50.3919 47.5188 50.3885 47.5797 50.3818C47.7974 50.3582 48.0083 50.2918 48.2004 50.1866C48.3924 50.0814 48.5619 49.9394 48.699 49.7687C48.8361 49.5979 48.9383 49.4019 48.9996 49.1917C49.0609 48.9814 49.0802 48.7612 49.0564 48.5435C48.7364 45.601 47.6348 42.7978 45.8658 40.4248C44.0968 38.0518 41.7249 36.1955 38.9964 35.0485H38.9981ZM25.353 21.4185C25.3038 20.9977 25.4167 20.574 25.6687 20.2334C25.9207 19.8929 26.2929 19.6611 26.7097 19.5852L28.0264 19.3468C30.984 18.8052 34.0154 18.8052 36.973 19.3468L38.2897 19.5852C38.7065 19.6611 39.0787 19.8929 39.3307 20.2334C39.5827 20.574 39.6956 20.9977 39.6464 21.4185L39.3497 23.9418H25.6497L25.353 21.4185ZM32.4997 40.1018L29.7497 37.3502C31.5623 36.9605 33.4371 36.9605 35.2497 37.3502L32.4997 40.1018ZM32.4997 33.7252C30.7697 33.7231 29.1081 33.0495 27.8651 31.8463C26.622 30.643 25.8947 29.0042 25.8364 27.2752H39.163C39.1047 29.0042 38.3774 30.643 37.1344 31.8463C35.8913 33.0495 34.2297 33.7231 32.4997 33.7252Z" fill="#447143"/>
</svg>
