<svg width="16" height="16" viewBox="0 0 16 16" fill="none" xmlns="http://www.w3.org/2000/svg">
<path d="M4.66669 4.66675H4.00002C3.6464 4.66675 3.30726 4.80722 3.05721 5.05727C2.80716 5.30732 2.66669 5.64646 2.66669 6.00008V12.0001C2.66669 12.3537 2.80716 12.6928 3.05721 12.9429C3.30726 13.1929 3.6464 13.3334 4.00002 13.3334H10C10.3536 13.3334 10.6928 13.1929 10.9428 12.9429C11.1929 12.6928 11.3334 12.3537 11.3334 12.0001V11.3334" stroke="currentColor" stroke-width="1.33333" stroke-linecap="round" stroke-linejoin="round"/>
<path d="M10.6667 3.3334L12.6667 5.3334M13.59 4.39007C13.8526 4.12751 14.0001 3.77139 14.0001 3.40007C14.0001 3.02875 13.8526 2.67264 13.59 2.41007C13.3274 2.14751 12.9713 2 12.6 2C12.2287 2 11.8726 2.14751 11.61 2.41007L6 8.00007V10.0001H8L13.59 4.39007Z" stroke="currentColor" stroke-width="1.33333" stroke-linecap="round" stroke-linejoin="round"/>
</svg>
