<svg width="16" height="16" viewBox="0 0 16 16" fill="none" xmlns="http://www.w3.org/2000/svg">
<path d="M7.15536 3.38383C8.70828 3.19877 10.2791 3.52704 11.6279 4.31853C12.9768 5.11002 14.0295 6.32122 14.6254 7.76717C14.6809 7.91684 14.6809 8.08149 14.6254 8.23117C14.38 8.82497 14.0562 9.38326 13.6627 9.89116M9.38936 9.4385C9.01216 9.80281 8.50695 10.0044 7.98256 9.99985C7.45817 9.99529 6.95654 9.78495 6.58573 9.41414C6.21491 9.04332 6.00457 8.54169 6.00001 8.0173C5.99546 7.49291 6.19705 6.9877 6.56136 6.6105" stroke="currentColor" stroke-width="2" stroke-linecap="round" stroke-linejoin="round"/>
<path d="M11.6527 11.6659C10.7683 12.1898 9.78165 12.5173 8.75959 12.6262C7.73752 12.7351 6.70398 12.6229 5.7291 12.2972C4.75422 11.9715 3.86081 11.4398 3.10949 10.7384C2.35816 10.037 1.76651 9.18216 1.37468 8.23192C1.31912 8.08224 1.31912 7.9176 1.37468 7.76792C1.96577 6.33449 3.00579 5.13142 4.33868 4.33925M1.33334 1.33325L14.6667 14.6666" stroke="currentColor" stroke-width="2" stroke-linecap="round" stroke-linejoin="round"/>
</svg>
