<svg width="18" height="18" viewBox="0 0 18 18" fill="none" xmlns="http://www.w3.org/2000/svg">
<path d="M4.5 1.83301H10.5C10.5829 1.83304 10.6635 1.85791 10.7314 1.90332L10.7949 1.95508L14.5449 5.70508C14.623 5.78318 14.6669 5.88953 14.667 6V15C14.667 15.2707 14.5724 15.5317 14.4023 15.7393L14.3252 15.8252C14.1064 16.044 13.8094 16.167 13.5 16.167H4.5C4.22927 16.167 3.96834 16.0724 3.76074 15.9023L3.6748 15.8252C3.45601 15.6064 3.33301 15.3094 3.33301 15V3C3.33301 2.72927 3.42757 2.46834 3.59766 2.26074L3.6748 2.1748C3.86627 1.98334 4.11765 1.86537 4.38477 1.83887L4.5 1.83301ZM4.16699 15.333H13.833V7.16699H9.75C9.66704 7.16699 9.58655 7.14207 9.51855 7.09668L9.45508 7.04492C9.37694 6.96678 9.33301 6.86051 9.33301 6.75V2.66699H4.16699V15.333ZM6.75 12.333H11.25C11.333 12.333 11.4135 12.3579 11.4814 12.4033L11.5449 12.4551C11.6231 12.5332 11.667 12.6395 11.667 12.75C11.667 12.833 11.6421 12.9135 11.5967 12.9814L11.5449 13.0449C11.4668 13.1231 11.3605 13.167 11.25 13.167H6.75C6.63949 13.167 6.53322 13.1231 6.45508 13.0449C6.37694 12.9668 6.33301 12.8605 6.33301 12.75C6.33301 12.6395 6.37694 12.5332 6.45508 12.4551C6.53322 12.3769 6.63949 12.333 6.75 12.333ZM6.75 9.33301H11.25C11.333 9.33301 11.4135 9.35793 11.4814 9.40332L11.5449 9.45508C11.6231 9.53322 11.667 9.63949 11.667 9.75C11.667 9.83296 11.6421 9.91345 11.5967 9.98145L11.5449 10.0449C11.4668 10.1231 11.3605 10.167 11.25 10.167H6.75C6.66704 10.167 6.58655 10.1421 6.51855 10.0967L6.45508 10.0449C6.37694 9.96678 6.33301 9.86051 6.33301 9.75C6.33301 9.66704 6.35793 9.58655 6.40332 9.51855L6.45508 9.45508C6.53322 9.37694 6.63949 9.33301 6.75 9.33301ZM10.167 6.33301H13.9941L13.4248 5.76465L10.7354 3.0752L10.167 2.50586V6.33301Z" fill="#447143" stroke="#447143" stroke-width="0.666667"/>
</svg>
