<svg width="16" height="10" viewBox="0 0 16 10" fill="none" xmlns="http://www.w3.org/2000/svg">
<path fill-rule="evenodd" clip-rule="evenodd" d="M13.8309 0.682346C14.0453 0.4679 14.3362 0.347425 14.6395 0.347425C14.9427 0.347425 15.2336 0.4679 15.448 0.682346C15.6625 0.896793 15.783 1.18764 15.783 1.49092C15.783 1.79419 15.6625 2.08504 15.448 2.29949L11.6389 6.10749L11.6309 6.11549C11.3197 6.42031 10.9014 6.59103 10.4658 6.59103C10.0301 6.59103 9.61183 6.42031 9.30061 6.11549L9.29261 6.10749L7.34861 4.16349L4.66632 7.00006L5.85489 8.18863C5.97462 8.3085 6.05613 8.46116 6.08914 8.62733C6.12215 8.7935 6.10518 8.96573 6.04037 9.12226C5.97555 9.27879 5.86581 9.4126 5.72499 9.50679C5.58417 9.60099 5.4186 9.65134 5.24918 9.65149H1.07547C0.848138 9.65149 0.63012 9.56118 0.469375 9.40044C0.308629 9.23969 0.218323 9.02167 0.218323 8.79435V4.62063C0.218472 4.45122 0.268824 4.28564 0.363018 4.14482C0.457212 4.00401 0.591024 3.89426 0.747554 3.82945C0.904083 3.76463 1.07631 3.74766 1.24248 3.78067C1.40865 3.81368 1.56131 3.8952 1.68118 4.01492L3.04918 5.38406L6.13947 2.11435C6.29216 1.95674 6.4745 1.83087 6.676 1.74398C6.87751 1.65708 7.0942 1.61087 7.31362 1.608C7.53304 1.60514 7.75087 1.64567 7.95458 1.72727C8.15828 1.80887 8.34385 1.92993 8.50061 2.08349L8.50861 2.09149L10.4663 4.04806L13.8309 0.682346Z" fill="white"/>
</svg>
