<svg width="16" height="16" viewBox="0 0 16 16" fill="none" xmlns="http://www.w3.org/2000/svg">
<path fill-rule="evenodd" clip-rule="evenodd" d="M13.8309 12.3177C14.0453 12.5321 14.3362 12.6526 14.6395 12.6526C14.9427 12.6526 15.2336 12.5321 15.448 12.3177C15.6625 12.1032 15.783 11.8124 15.783 11.5091C15.783 11.2058 15.6625 10.915 15.448 10.7005L11.6389 6.89251L11.6309 6.88451C11.3197 6.57969 10.9014 6.40897 10.4658 6.40897C10.0301 6.40897 9.61183 6.57969 9.30061 6.88451L9.29261 6.89251L7.34861 8.83651L4.66632 5.99994L5.85489 4.81137C5.97462 4.6915 6.05613 4.53884 6.08914 4.37267C6.12215 4.2065 6.10518 4.03427 6.04037 3.87774C5.97555 3.72121 5.86581 3.5874 5.72499 3.49321C5.58417 3.39901 5.4186 3.34866 5.24918 3.34851H1.07547C0.848138 3.34851 0.63012 3.43882 0.469375 3.59956C0.308629 3.76031 0.218323 3.97833 0.218323 4.20565V8.37937C0.218472 8.54878 0.268824 8.71436 0.363018 8.85518C0.457212 8.99599 0.591024 9.10574 0.747554 9.17055C0.904083 9.23537 1.07631 9.25234 1.24248 9.21933C1.40865 9.18632 1.56131 9.1048 1.68118 8.98508L3.04918 7.61594L6.13947 10.8857C6.29216 11.0433 6.4745 11.1691 6.676 11.256C6.87751 11.3429 7.0942 11.3891 7.31362 11.392C7.53304 11.3949 7.75087 11.3543 7.95458 11.2727C8.15828 11.1911 8.34385 11.0701 8.50061 10.9165L8.50861 10.9085L10.4663 8.95194L13.8309 12.3177Z" fill="white"/>
</svg>
