<svg width="60" height="60" viewBox="0 0 60 60" fill="none" xmlns="http://www.w3.org/2000/svg">
<rect width="60" height="60" rx="8" fill="#FFF8F5"/>
<path d="M19.3335 24.6666H40.6668M19.3335 24.6666V36.4C19.3335 37.8933 19.3335 38.64 19.6242 39.2106C19.8798 39.7124 20.2878 40.1203 20.7895 40.376C21.3588 40.6666 22.1055 40.6666 23.5962 40.6666H36.4042C37.8948 40.6666 38.6402 40.6666 39.2095 40.376C39.7122 40.12 40.1202 39.712 40.3762 39.2106C40.6668 38.64 40.6668 37.896 40.6668 36.4053V24.6666M19.3335 24.6666V23.6C19.3335 22.1066 19.3335 21.36 19.6242 20.7893C19.8802 20.2866 20.2868 19.88 20.7895 19.624C21.3602 19.3333 22.1068 19.3333 23.6002 19.3333H24.6668M40.6668 24.6666V23.596C40.6668 22.1053 40.6668 21.3586 40.3762 20.7893C40.1202 20.2873 39.7117 19.8794 39.2095 19.624C38.6402 19.3333 37.8935 19.3333 36.4002 19.3333H35.3335M24.6668 19.3333H35.3335M24.6668 19.3333V16.6666M35.3335 19.3333V16.6666M29.6668 35.3333C29.7552 35.3333 29.84 35.2982 29.9025 35.2357C29.965 35.1732 30.0002 35.0884 30.0002 35V30.3333C30.0002 30.2449 29.965 30.1601 29.9025 30.0976C29.84 30.0351 29.7552 30 29.6668 30H25.0002C24.9118 30 24.827 30.0351 24.7645 30.0976C24.7019 30.1601 24.6668 30.2449 24.6668 30.3333V35C24.6668 35.184 24.8162 35.3333 25.0002 35.3333H29.6668Z" stroke="#F1A68E" stroke-linecap="round" stroke-linejoin="round"/>
</svg>
