<svg width="60" height="60" viewBox="0 0 60 60" fill="none" xmlns="http://www.w3.org/2000/svg">
<rect width="60" height="60" rx="8" fill="#FFF8F5"/>
<path d="M28.2467 29.5188C29.582 30.4521 28.8827 32.9134 25.2153 35.9088C25.2153 35.9088 22.3553 33.7428 22.306 31.6514C22.2567 29.5601 24.4007 29.6128 25.2113 31.9314C25.2113 31.9314 26.912 28.5854 28.2467 29.5188Z" stroke="#F1A68E" stroke-width="0.5" stroke-linecap="round" stroke-linejoin="round"/>
<path d="M29.8159 17.728H20.6066C20.0742 17.728 19.6426 18.1596 19.6426 18.692V22.4727C19.6426 23.0051 20.0742 23.4367 20.6066 23.4367H29.8159C30.3483 23.4367 30.7799 23.0051 30.7799 22.4727V18.692C30.7799 18.1596 30.3483 17.728 29.8159 17.728Z" stroke="#F1A68E" stroke-width="0.5" stroke-linecap="round" stroke-linejoin="round"/>
<path d="M29.5804 23.6614L29.6091 24.9447C29.6931 26.4267 32.7311 26.6887 32.7311 28.804V38.022M30.1331 40.6214H20.0911C19.7756 40.6221 19.4632 40.5605 19.1716 40.4401C18.88 40.3197 18.6151 40.1429 18.392 39.9198C18.1689 39.6967 17.9921 39.4318 17.8717 39.1402C17.7513 38.8487 17.6897 38.5362 17.6904 38.2207V28.804C17.6904 26.9214 20.4104 26.666 20.6264 24.974L20.6691 23.902M34.1998 42.278L34.2051 38.2427M37.5531 35.4214L40.0078 32.2187M38.4204 30.9694C39.4931 31.8027 40.5751 32.6227 41.6411 33.464C42.0193 33.8087 42.2624 34.2767 42.3269 34.7843C42.3914 35.2918 42.2731 35.8058 41.9931 36.234C41.7214 36.6497 41.3074 36.9519 40.8287 37.0841C40.35 37.2163 39.8396 37.1693 39.3931 36.952C38.9488 36.6663 38.5218 36.3544 38.1144 36.018C37.3478 35.4214 36.5724 34.8374 35.8124 34.2327C35.4342 33.8881 35.1911 33.4201 35.1266 32.9125C35.0621 32.4049 35.1805 31.891 35.4604 31.4627C35.7323 31.0472 36.1463 30.7451 36.625 30.6131C37.1036 30.481 37.614 30.528 38.0604 30.7454C38.188 30.8071 38.3087 30.8822 38.4204 30.9694ZM32.2471 38.1147C33.6051 38.12 34.9631 38.11 36.3204 38.1254C36.8214 38.1666 37.2921 38.3819 37.6511 38.7338C38.01 39.0856 38.2346 39.552 38.2858 40.052C38.3355 40.5375 38.21 41.0247 37.9318 41.4256C37.6536 41.8265 37.2412 42.1147 36.7691 42.238C36.2707 42.3064 35.7669 42.3276 35.2644 42.3014C34.2338 42.2967 33.2031 42.3074 32.1724 42.292C31.6716 42.2506 31.201 42.0353 30.8422 41.6835C30.4834 41.3316 30.259 40.8653 30.2078 40.3654C30.1582 39.8801 30.2838 39.393 30.562 38.9922C30.8401 38.5915 31.2524 38.3034 31.7244 38.18C31.895 38.1355 32.0708 38.1131 32.2471 38.1147Z" stroke="#F1A68E" stroke-width="0.5" stroke-linecap="round" stroke-linejoin="round"/>
</svg>
