<svg width="60" height="60" viewBox="0 0 60 60" fill="none" xmlns="http://www.w3.org/2000/svg">
<rect width="60" height="60" rx="8" fill="#FFF8F5"/>
<path d="M25.7333 28.9333C24.3188 28.9333 22.9622 28.3714 21.962 27.3712C20.9618 26.371 20.3999 25.0145 20.3999 23.6V19.3333C20.3999 19.0504 20.5123 18.7791 20.7124 18.5791C20.9124 18.379 21.1837 18.2666 21.4666 18.2666H22.5333C22.8162 18.2666 23.0875 18.1543 23.2875 17.9542C23.4876 17.7542 23.5999 17.4829 23.5999 17.2C23.5999 16.9171 23.4876 16.6458 23.2875 16.4457C23.0875 16.2457 22.8162 16.1333 22.5333 16.1333H21.4666C20.6179 16.1333 19.804 16.4704 19.2039 17.0706C18.6037 17.6707 18.2666 18.4846 18.2666 19.3333V23.6C18.268 24.805 18.5618 25.9917 19.1229 27.0582C19.684 28.1246 20.4956 29.039 21.4879 29.7226C22.4423 30.5624 23.2162 31.5873 23.7626 32.7351C24.309 33.8829 24.6165 35.1297 24.6666 36.4C24.6666 38.3803 25.4533 40.2794 26.8535 41.6797C28.2538 43.08 30.153 43.8666 32.1333 43.8666C34.1136 43.8666 36.0127 43.08 37.413 41.6797C38.8133 40.2794 39.5999 38.3803 39.5999 36.4V35.184C40.6054 34.9243 41.4817 34.3069 42.0646 33.4474C42.6474 32.5879 42.8968 31.5454 42.7659 30.5152C42.6351 29.485 42.133 28.5379 41.3538 27.8514C40.5746 27.1649 39.5717 26.7861 38.5333 26.7861C37.4948 26.7861 36.492 27.1649 35.7128 27.8514C34.9335 28.5379 34.4315 29.485 34.3006 30.5152C34.1698 31.5454 34.4191 32.5879 35.002 33.4474C35.5848 34.3069 36.4611 34.9243 37.4666 35.184V36.4C37.4666 37.8145 36.9047 39.171 35.9045 40.1712C34.9043 41.1714 33.5478 41.7333 32.1333 41.7333C30.7188 41.7333 29.3622 41.1714 28.362 40.1712C27.3618 39.171 26.7999 37.8145 26.7999 36.4C26.8527 35.1281 27.1636 33.8803 27.7137 32.7324C28.2638 31.5845 29.0417 30.5605 29.9999 29.7226C30.9883 29.0366 31.7958 28.1212 32.3531 27.0549C32.9104 25.9886 33.201 24.8031 33.1999 23.6V19.3333C33.1999 18.4846 32.8628 17.6707 32.2627 17.0706C31.6626 16.4704 30.8486 16.1333 29.9999 16.1333H28.9333C28.6504 16.1333 28.3791 16.2457 28.179 16.4457C27.979 16.6458 27.8666 16.9171 27.8666 17.2C27.8666 17.4829 27.979 17.7542 28.179 17.9542C28.3791 18.1543 28.6504 18.2666 28.9333 18.2666H29.9999C30.2828 18.2666 30.5541 18.379 30.7542 18.5791C30.9542 18.7791 31.0666 19.0504 31.0666 19.3333V23.6C31.0666 24.3004 30.9287 24.9939 30.6606 25.6409C30.3926 26.288 29.9998 26.876 29.5045 27.3712C29.0093 27.8665 28.4213 28.2593 27.7742 28.5273C27.1272 28.7954 26.4337 28.9333 25.7333 28.9333ZM38.5333 33.2C37.9675 33.2 37.4249 32.9752 37.0248 32.5751C36.6247 32.1751 36.3999 31.6324 36.3999 31.0666C36.3999 30.5008 36.6247 29.9582 37.0248 29.5581C37.4249 29.1581 37.9675 28.9333 38.5333 28.9333C39.0991 28.9333 39.6417 29.1581 40.0418 29.5581C40.4418 29.9582 40.6666 30.5008 40.6666 31.0666C40.6666 31.6324 40.4418 32.1751 40.0418 32.5751C39.6417 32.9752 39.0991 33.2 38.5333 33.2Z" fill="#F1A68E"/>
</svg>
