<svg width="60" height="60" viewBox="0 0 60 60" fill="none" xmlns="http://www.w3.org/2000/svg">
<rect width="60" height="60" rx="8" fill="#FFF8F5"/>
<path d="M20.9834 47.5C20.1563 47.5 19.4523 47.2247 18.8714 46.674C18.2905 46.1233 18 45.4566 18 44.6738V15.3263C18 14.5213 18.2849 13.8493 18.8548 13.3103C19.4246 12.7713 20.1342 12.5012 20.9834 12.5H37.3145C38.1391 12.5 38.8425 12.7753 39.4246 13.326C40.0055 13.8767 40.296 14.544 40.296 15.328V20.9525C40.7551 20.9992 41.1538 21.18 41.4923 21.495C41.8308 21.8088 42 22.1868 42 22.629V25.7248C42 26.1669 41.8308 26.5449 41.4923 26.8587C41.1538 27.1726 40.7551 27.3534 40.296 27.4013V44.672C40.296 45.4537 40.0055 46.1204 39.4246 46.6722C38.8437 47.2229 38.1403 47.4983 37.3145 47.4983L20.9834 47.5ZM20.9834 45.75H37.3145C37.6455 45.75 37.9175 45.6491 38.1305 45.4473C38.3434 45.2454 38.4498 44.9876 38.4498 44.6738V15.3263C38.4498 15.0124 38.3434 14.7546 38.1305 14.5528C37.9175 14.3509 37.6455 14.25 37.3145 14.25H20.9834C20.6511 14.25 20.3785 14.3509 20.1655 14.5528C19.9526 14.7546 19.8462 15.013 19.8462 15.328V44.6738C19.8462 44.9876 19.9526 45.2454 20.1655 45.4473C20.3785 45.6491 20.6511 45.75 20.9834 45.75ZM25.1723 42.6525H33.1237C33.3871 42.6525 33.6068 42.5697 33.7828 42.404C33.9588 42.2383 34.0468 42.0301 34.0468 41.7793C34.0468 41.5284 33.9588 41.3202 33.7828 41.1545C33.6068 40.9888 33.3871 40.9054 33.1237 40.9043H25.1723C24.9089 40.9043 24.6892 40.9877 24.5132 41.1545C24.336 41.3213 24.2474 41.5296 24.2474 41.7793C24.2474 42.0289 24.336 42.2366 24.5132 42.4023C24.6905 42.5679 24.9102 42.6519 25.1723 42.6543" fill="#F1A68E"/>
</svg>
