<svg width="60" height="60" viewBox="0 0 60 60" fill="none" xmlns="http://www.w3.org/2000/svg">
<rect width="60" height="60" rx="8" fill="#FFF8F5"/>
<path d="M41.2319 37.8901L34.0007 27.592V17.5714H36.0007V15.5H24.0003V17.5714H26.0003V27.592L18.7691 37.8901C18.3329 38.5109 18.071 39.2447 18.0125 40.0101C17.954 40.7755 18.1011 41.5428 18.4375 42.227C18.774 42.9112 19.2866 43.4856 19.9187 43.8868C20.5509 44.288 21.2778 44.5002 22.0192 44.5H37.9808C38.7222 44.5002 39.4491 44.288 40.0813 43.8868C40.7134 43.4856 41.226 42.9112 41.5625 42.227C41.8989 41.5428 42.046 40.7755 41.9875 40.0101C41.929 39.2447 41.6681 38.5109 41.2319 37.8901ZM28.0004 28.2652V17.5714H32.0006V28.2652L34.6737 32.0714H25.3273L28.0004 28.2652ZM37.9818 42.4286H22.0202C21.648 42.4282 21.2831 42.3212 20.9658 42.1196C20.6486 41.918 20.3913 41.6295 20.2223 41.286C20.0534 40.9425 19.9794 40.5573 20.0085 40.173C20.0375 39.7887 20.1686 39.4201 20.3871 39.1081L23.8733 34.1429H36.1277L39.6149 39.1081C39.8334 39.4201 39.9645 39.7887 39.9935 40.173C40.0226 40.5573 39.9486 40.9425 39.7797 41.286C39.6107 41.6295 39.3534 41.918 39.0362 42.1196C38.7189 42.3212 38.354 42.4282 37.9818 42.4286Z" fill="#F1A68E"/>
</svg>
