<svg width="40" height="40" viewBox="0 0 40 40" fill="none" xmlns="http://www.w3.org/2000/svg">
<path d="M20 0C8.954 0 0 8.954 0 20C0 31.046 8.954 40 20 40C31.046 40 40 31.046 40 20C40 8.954 31.046 0 20 0ZM28 21.5H15.6221L19.062 24.9399C19.648 25.5259 19.648 26.476 19.062 27.062C18.77 27.354 18.386 27.502 18.002 27.502C17.618 27.502 17.2339 27.356 16.9419 27.062L10.9419 21.062C10.8039 20.924 10.6942 20.7582 10.6182 20.5742C10.4662 20.2082 10.4662 19.7942 10.6182 19.4282C10.6942 19.2442 10.8039 19.0779 10.9419 18.9399L16.9419 12.9399C17.5279 12.3539 18.478 12.3539 19.064 12.9399C19.65 13.5259 19.65 14.476 19.064 15.062L15.624 18.502H28C28.828 18.502 29.5 19.174 29.5 20.002C29.5 20.83 28.828 21.5 28 21.5Z" fill="black" fill-opacity="0.2"/>
</svg>
