<svg width="33" height="36" viewBox="0 0 33 36" fill="none" xmlns="http://www.w3.org/2000/svg">
<path d="M2.92235 21.2543C2.60696 21.2554 2.29774 21.167 2.03061 20.9993C1.76348 20.8316 1.54941 20.5916 1.41327 20.3071C1.27713 20.0226 1.22451 19.7053 1.26152 19.3921C1.29853 19.0789 1.42365 18.7826 1.62235 18.5377L18.1223 1.53767C18.2461 1.39481 18.4148 1.29827 18.6007 1.2639C18.7865 1.22952 18.9786 1.25936 19.1452 1.34851C19.3119 1.43767 19.4433 1.58084 19.5179 1.75452C19.5925 1.92821 19.6058 2.12209 19.5557 2.30434L16.3557 12.3377C16.2613 12.5902 16.2296 12.8619 16.2633 13.1294C16.297 13.3968 16.3951 13.6521 16.5492 13.8734C16.7032 14.0946 16.9086 14.2752 17.1478 14.3996C17.387 14.524 17.6528 14.5886 17.9224 14.5877H29.589C29.9044 14.5866 30.2136 14.675 30.4808 14.8427C30.7479 15.0104 30.962 15.2504 31.0981 15.5349C31.2342 15.8194 31.2869 16.1367 31.2498 16.4499C31.2128 16.7631 31.0877 17.0594 30.889 17.3043L14.389 34.3043C14.2652 34.4472 14.0966 34.5437 13.9107 34.5781C13.7248 34.6125 13.5328 34.5827 13.3661 34.4935C13.1995 34.4043 13.068 34.2612 12.9935 34.0875C12.9189 33.9138 12.9056 33.7199 12.9557 33.5377L16.1557 23.5043C16.25 23.2518 16.2817 22.9801 16.248 22.7127C16.2143 22.4452 16.1163 22.1899 15.9622 21.9686C15.8081 21.7474 15.6027 21.5668 15.3636 21.4424C15.1244 21.318 14.8586 21.2535 14.589 21.2543H2.92235Z" stroke="#C19A6B" stroke-width="2.5" stroke-linecap="round" stroke-linejoin="round"/>
</svg>
