<svg width="25" height="25" viewBox="0 0 25 25" fill="none" xmlns="http://www.w3.org/2000/svg">
<rect x="0.5" y="0.25" width="24" height="24" rx="12" fill="#ABBFAB"/>
<path d="M7.05532 6.91659H10.0487L11.0133 9.32859L9.46332 10.3619C9.37204 10.4228 9.29721 10.5053 9.24546 10.6021C9.19371 10.6988 9.16664 10.8069 9.16665 10.9166C9.16865 10.9793 9.16665 10.9173 9.16665 10.9173V10.9313C9.16699 10.9611 9.16832 10.9909 9.17065 11.0206C9.17421 11.0757 9.18199 11.149 9.19399 11.2406C9.21999 11.4206 9.26999 11.6686 9.36732 11.9606C9.56332 12.5473 9.94732 13.3066 10.6953 14.0546C11.4433 14.8026 12.2027 15.1866 12.7887 15.3826C13.0813 15.4799 13.3287 15.5293 13.51 15.5559C13.6123 15.5708 13.7153 15.5797 13.8187 15.5826L13.8273 15.5833H13.8327C13.8327 15.5833 13.9073 15.5793 13.8333 15.5833C13.9571 15.5832 14.0784 15.5487 14.1837 15.4836C14.2889 15.4184 14.374 15.3253 14.4293 15.2146L14.876 14.3213L17.8333 14.8146V17.6946C16.426 17.8979 12.6247 18.0986 9.63799 15.1119C6.65132 12.1253 6.85132 8.32325 7.05532 6.91659ZM10.5487 11.2406L11.7533 10.4379C12.0078 10.2682 12.1962 10.0161 12.2869 9.7239C12.3775 9.43173 12.365 9.11726 12.2513 8.83325L11.2867 6.42125C11.1877 6.17386 11.0168 5.9618 10.7961 5.81243C10.5755 5.66306 10.3151 5.58323 10.0487 5.58325H7.02065C6.41465 5.58325 5.84465 6.00392 5.74532 6.66125C5.51865 8.15592 5.21132 12.5706 8.69532 16.0546C12.1793 19.5386 16.594 19.2306 18.0887 19.0046C18.746 18.9046 19.1667 18.3353 19.1667 17.7293V14.8146C19.1667 14.499 19.0548 14.1936 18.8508 13.9527C18.6468 13.7119 18.364 13.5512 18.0527 13.4993L15.0953 13.0066C14.8141 12.9596 14.5251 13.0041 14.271 13.1334C14.0169 13.2628 13.8109 13.4702 13.6833 13.7253L13.4527 14.1873C13.3711 14.167 13.2904 14.1436 13.2107 14.1173C12.7973 13.9799 12.2233 13.6973 11.638 13.1119C11.0527 12.5266 10.77 11.9526 10.6327 11.5386C10.6003 11.4406 10.5725 11.3412 10.5493 11.2406H10.5487Z" fill="black"/>
</svg>
