<svg width="36" height="35" viewBox="0 0 36 35" fill="none" xmlns="http://www.w3.org/2000/svg">
<path d="M17.128 1.74149C17.201 1.59392 17.3139 1.46971 17.4538 1.38286C17.5936 1.29602 17.755 1.25 17.9197 1.25C18.0843 1.25 18.2457 1.29602 18.3856 1.38286C18.5255 1.46971 18.6383 1.59392 18.7113 1.74149L22.5613 9.53982C22.815 10.0531 23.1894 10.4972 23.6524 10.8339C24.1154 11.1707 24.6532 11.39 25.2197 11.4732L33.8297 12.7332C33.9928 12.7568 34.1461 12.8256 34.2722 12.9318C34.3982 13.038 34.492 13.1774 34.543 13.3342C34.594 13.4909 34.6001 13.6588 34.5606 13.8189C34.5212 13.9789 34.4377 14.1247 34.3197 14.2398L28.093 20.3032C27.6824 20.7033 27.3751 21.1973 27.1977 21.7425C27.0203 22.2878 26.9781 22.868 27.0747 23.4332L28.5447 31.9998C28.5735 32.1629 28.5559 32.3308 28.4938 32.4843C28.4318 32.6378 28.3279 32.7708 28.1939 32.8681C28.0599 32.9655 27.9013 33.0232 27.7361 33.0346C27.5709 33.0461 27.4058 33.011 27.2597 32.9332L19.563 28.8865C19.0559 28.6202 18.4916 28.4811 17.9188 28.4811C17.346 28.4811 16.7818 28.6202 16.2747 28.8865L8.57967 32.9332C8.43355 33.0105 8.26866 33.0453 8.10375 33.0336C7.93884 33.0219 7.78053 32.9641 7.64682 32.8669C7.51312 32.7696 7.40939 32.6368 7.34743 32.4835C7.28547 32.3302 7.26776 32.1627 7.29633 31.9998L8.76467 23.4348C8.86166 22.8694 8.81964 22.2888 8.64223 21.7432C8.46482 21.1976 8.15735 20.7034 7.74633 20.3032L1.51967 14.2415C1.40066 14.1265 1.31632 13.9805 1.27627 13.8199C1.23622 13.6594 1.24206 13.4909 1.29313 13.3335C1.3442 13.1761 1.43844 13.0362 1.56513 12.9298C1.69181 12.8234 1.84584 12.7547 2.00967 12.7315L10.618 11.4732C11.1851 11.3907 11.7236 11.1716 12.1873 10.8348C12.651 10.498 13.0258 10.0536 13.2797 9.53982L17.128 1.74149Z" stroke="#C19A6B" stroke-width="2.5" stroke-linecap="round" stroke-linejoin="round"/>
</svg>
