<svg width="40" height="40" viewBox="0 0 40 40" fill="none" xmlns="http://www.w3.org/2000/svg">
<path d="M33.3332 21.6666C33.3332 29.9999 27.4998 34.1666 20.5665 36.5833C20.2034 36.7063 19.8091 36.7004 19.4498 36.5666C12.4998 34.1666 6.6665 29.9999 6.6665 21.6666V9.99994C6.6665 9.55791 6.8421 9.13399 7.15466 8.82142C7.46722 8.50886 7.89114 8.33327 8.33317 8.33327C11.6665 8.33327 15.8332 6.33327 18.7332 3.79994C19.0863 3.49827 19.5354 3.33252 19.9998 3.33252C20.4642 3.33252 20.9134 3.49827 21.2665 3.79994C24.1832 6.34994 28.3332 8.33327 31.6665 8.33327C32.1085 8.33327 32.5325 8.50886 32.845 8.82142C33.1576 9.13399 33.3332 9.55791 33.3332 9.99994V21.6666Z" stroke="#C19A6B" stroke-width="2.66667" stroke-linecap="round" stroke-linejoin="round"/>
<path d="M15 20L18.3333 23.3333L25 16.6666" stroke="#C19A6B" stroke-width="2.66667" stroke-linecap="round" stroke-linejoin="round"/>
</svg>
