<svg width="25" height="25" viewBox="0 0 25 25" fill="none" xmlns="http://www.w3.org/2000/svg">
<path fill-rule="evenodd" clip-rule="evenodd" d="M0.5 12.25C0.5 18.8774 5.87258 24.25 12.5 24.25C19.1274 24.25 24.5 18.8774 24.5 12.25C24.5 5.62258 19.1274 0.25 12.5 0.25C5.87258 0.25 0.5 5.62258 0.5 12.25ZM20.0311 11.7908C20.0295 15.7241 16.8297 18.9247 12.8955 18.9263H12.8926C11.6984 18.9258 10.5249 18.6262 9.48267 18.0577L5.7 19.05L6.71231 15.3524C6.08787 14.2703 5.75929 13.0427 5.75982 11.7851C5.76139 7.85085 8.96241 4.65 12.8955 4.65C14.8043 4.65082 16.5959 5.39393 17.9431 6.74271C19.2903 8.09141 20.0318 9.88417 20.0311 11.7908Z" fill="#ABBFAB"/>
<path fill-rule="evenodd" clip-rule="evenodd" d="M7.41325 17.3548L9.65794 16.7659L9.87451 16.8945C10.7851 17.4348 11.8289 17.7208 12.8931 17.7212H12.8955C16.1644 17.7212 18.825 15.0606 18.8263 11.7903C18.8269 10.2056 18.2106 8.71555 17.0908 7.5945C15.9711 6.47345 14.482 5.85577 12.8979 5.85522C9.62647 5.85522 6.9659 8.51556 6.9646 11.7855C6.96414 12.9062 7.2777 13.9976 7.87138 14.9418L8.0124 15.1662L7.41325 17.3548ZM16.2462 13.327C16.3706 13.3871 16.4545 13.4277 16.4904 13.4876C16.535 13.5619 16.535 13.9189 16.3865 14.3354C16.2378 14.7519 15.5255 15.132 15.183 15.1832C14.8758 15.2291 14.4871 15.2483 14.06 15.1125C13.801 15.0304 13.4689 14.9207 13.0436 14.7369C11.3721 14.0152 10.2425 12.3952 10.029 12.089C10.0141 12.0676 10.0036 12.0526 9.99779 12.0448L9.99635 12.0429C9.90199 11.917 9.26977 11.0734 9.26977 10.2004C9.26977 9.37913 9.67319 8.94866 9.85888 8.75051C9.87161 8.73694 9.88331 8.72445 9.89378 8.71301C10.0572 8.53451 10.2504 8.48988 10.3692 8.48988C10.4881 8.48988 10.6071 8.49098 10.711 8.4962C10.7238 8.49684 10.7371 8.49676 10.7509 8.49668C10.8548 8.49607 10.9843 8.49532 11.1121 8.80226C11.1613 8.92038 11.2332 9.09551 11.3091 9.28021C11.4625 9.65371 11.632 10.0664 11.6618 10.1261C11.7064 10.2154 11.7361 10.3194 11.6767 10.4385C11.6678 10.4563 11.6595 10.4732 11.6516 10.4893C11.607 10.5804 11.5741 10.6474 11.4984 10.7359C11.4686 10.7707 11.4378 10.8082 11.407 10.8457C11.3457 10.9204 11.2843 10.9951 11.2309 11.0483C11.1417 11.1372 11.0488 11.2336 11.1528 11.4121C11.2568 11.5906 11.6146 12.1745 12.1446 12.6472C12.7144 13.1555 13.2096 13.3703 13.4606 13.4791C13.5096 13.5004 13.5493 13.5176 13.5784 13.5322C13.7567 13.6215 13.8607 13.6065 13.9647 13.4876C14.0687 13.3686 14.4104 12.9669 14.5292 12.7885C14.6481 12.61 14.767 12.6398 14.9304 12.6992C15.0938 12.7588 15.9704 13.1901 16.1487 13.2793C16.1835 13.2967 16.2161 13.3125 16.2462 13.327Z" fill="#ABBFAB"/>
</svg>
